<?xml version="1.0" encoding="UTF-8" standalone="no"?>
<!-- Created with Inkscape (http://www.inkscape.org/) -->

<svg
   xmlns:svg="http://www.w3.org/2000/svg"
   xmlns="http://www.w3.org/2000/svg"
   version="1.1"
   width="270"
   height="162"
   viewBox="0 0 270 162"
   id="Layer_1"
   xml:space="preserve"><defs
   id="defs11" />
<g
   id="g3">
	<path
   d="m 45.175,159.675 c 0,-51.174 0,-102.349 0,-153.523 59.343,0 118.687,0 178.031,0 0,51.175 0,102.349 0,153.523 -59.344,0 -118.687,0 -178.031,0 z m 174.522,-10.252 c -0.22,-0.619 -0.376,-1.038 -0.517,-1.463 -1.494,-4.526 -2.927,-9.06 -3.771,-13.773 -0.393,-2.192 -1.21,-4.313 -1.897,-6.444 -0.865,-2.686 -1.965,-5.307 -2.659,-8.033 -1.423,-5.59 -3.843,-10.639 -7.492,-15.103 -0.313,-0.382 -0.605,-0.786 -0.863,-1.206 -1.204,-1.956 -2.41,-3.911 -3.579,-5.888 -0.785,-1.327 -1.577,-2.658 -2.24,-4.047 -0.509,-1.064 -0.903,-2.201 -1.188,-3.346 -0.148,-0.601 -0.134,-1.342 0.623,-1.735 2.517,-1.309 5.188,-2.003 8.025,-2.067 1.992,-0.045 4.027,0.284 5.921,-0.679 0.24,-0.122 0.547,-0.112 0.823,-0.164 0.049,0.057 0.097,0.113 0.146,0.171 -0.608,0.677 -1.218,1.353 -1.816,2.019 3.165,-0.344 6.803,-3.637 5.805,-8.822 -0.109,-0.57 -0.045,-0.898 0.376,-1.281 0.204,-0.185 0.275,-0.594 0.282,-0.905 0.02,-0.798 -0.47,-1.335 -1.148,-1.601 -1.159,-0.453 -2.389,-0.732 -3.531,-1.217 -2.836,-1.202 -5.72,-0.73 -8.582,-0.283 -1.371,0.214 -2.679,0.8 -4.04,1.111 -2.146,0.491 -4.271,1.078 -6.502,0.127 -1.714,-0.73 -3.01,-1.703 -3.148,-3.663 -0.193,-2.727 -0.257,-5.462 -0.446,-8.188 -0.176,-2.511 0.99,-4.855 0.643,-7.439 -0.298,-2.209 -0.569,-4.352 -1.542,-6.382 -0.903,-1.886 -1.714,-3.816 -2.563,-5.728 -0.178,-0.399 -0.306,-0.827 -0.524,-1.201 -0.841,-1.433 -1.235,-3.089 -2.408,-4.373 -0.562,-0.614 -0.736,-1.568 -1.137,-2.342 -2.312,-4.46 -4.289,-9.058 -5.587,-13.92 -0.978,-3.662 -1.855,-7.35 -2.798,-11.021 -0.122,-0.475 -0.363,-0.919 -0.55,-1.378 -0.102,0.008 -0.203,0.015 -0.306,0.023 -0.117,0.332 -0.276,0.656 -0.346,0.998 -0.724,3.598 -0.149,7.129 1.021,10.494 0.493,1.417 0.087,2.556 0.069,4.055 -0.309,-0.482 -0.513,-0.759 -0.673,-1.058 -2.041,-3.811 -3.676,-7.793 -5.03,-11.895 -0.32,-0.968 -0.639,-1.939 -1.031,-2.879 -0.141,-0.337 -0.495,-0.586 -0.752,-0.875 -0.18,0.365 -0.475,0.715 -0.521,1.096 -0.439,3.531 0.506,6.818 1.956,9.97 0.728,1.581 1.661,3.07 2.544,4.575 0.685,1.167 0.606,2.122 -0.339,2.973 -0.052,-0.023 -0.121,-0.031 -0.153,-0.07 -3.217,-3.979 -6.688,-7.762 -9.036,-12.39 -0.763,-1.504 -1.869,-2.836 -2.838,-4.233 -0.109,-0.158 -0.343,-0.23 -0.519,-0.342 -0.06,0.208 -0.183,0.422 -0.165,0.623 0.044,0.521 0.103,1.05 0.241,1.553 0.874,3.191 2.262,6.151 4.074,8.916 0.67,1.022 1.356,2.035 1.996,3.076 0.147,0.24 0.246,0.616 0.167,0.866 -0.161,0.51 -0.457,0.978 -0.704,1.474 -3.248,-2.403 -5.763,-5.613 -9.087,-7.93 -0.027,0.344 0.026,0.62 0.131,0.875 0.543,1.319 0.999,2.688 1.68,3.932 0.62,1.134 0.168,1.95 -0.339,2.787 -1.267,-0.583 -2.484,-1.144 -3.704,-1.705 -0.136,0.28 -0.218,0.366 -0.205,0.434 0.14,0.734 0.261,1.475 0.453,2.196 0.187,0.699 0.292,1.506 0.721,2.032 0.584,0.717 0.068,1.088 -0.168,1.605 -0.282,0.62 -0.747,0.386 -1.194,0.305 -1.458,-0.264 -2.202,0.318 -2.004,1.767 0.147,1.074 0.594,2.104 0.862,3.166 0.074,0.292 0.077,0.663 -0.042,0.927 -0.15,0.333 -0.419,0.645 -0.709,0.875 -0.796,0.634 -0.852,1.405 -0.521,2.276 0.166,0.435 0.422,0.849 0.507,1.297 0.083,0.44 0.177,1.029 -0.039,1.348 -0.607,0.9 -0.581,1.806 -0.111,2.643 0.45,0.8 0.327,1.336 -0.229,2.001 -0.654,0.781 -0.442,2.517 0.297,3.01 0.965,0.645 2.008,1.073 3.208,0.878 0.832,-0.135 1.66,-0.293 2.49,-0.441 0.034,0.088 0.069,0.176 0.104,0.264 -0.904,0.403 -1.787,0.865 -2.718,1.194 -1.626,0.575 -2.029,1.253 -1.678,2.955 0.049,0.237 -0.071,0.563 -0.218,0.775 -0.246,0.356 -0.695,0.607 -0.846,0.987 -0.264,0.667 -0.574,1.431 -0.47,2.092 0.083,0.531 0.189,0.896 -0.098,1.412 -0.387,0.694 -0.731,1.529 -0.112,2.251 0.406,0.474 0.407,0.832 0.127,1.32 -0.229,0.402 -0.428,0.828 -0.582,1.264 -0.079,0.225 -0.133,0.624 -0.018,0.713 0.182,0.142 0.575,0.204 0.772,0.099 1.016,-0.541 2.012,-1.121 2.984,-1.736 0.558,-0.354 1.058,-0.799 1.585,-1.204 0.074,0.07 0.148,0.141 0.223,0.211 -0.214,0.457 -0.329,1.009 -0.659,1.353 -1.021,1.06 -2.099,2.07 -3.202,3.045 -1.702,1.506 -1.802,2.743 -0.357,4.542 0.188,0.233 0.198,0.652 0.197,0.985 -0.001,0.877 -0.11,1.758 -0.067,2.631 0.037,0.76 0.524,0.913 1.238,0.737 0.936,-0.231 1.896,-0.363 2.845,-0.538 0.023,0.074 0.048,0.148 0.072,0.222 -0.204,0.191 -0.407,0.383 -0.611,0.574 -1.39,1.3 -1.654,3.243 -0.717,4.859 0.2,0.345 0.305,0.793 0.306,1.193 0.004,1.021 0.138,1.187 1.138,1.137 0.323,-0.016 0.648,-0.002 0.973,-0.002 -0.185,0.318 -0.397,0.437 -0.623,0.524 -0.729,0.285 -1.467,0.548 -2.192,0.841 -1.424,0.574 -2.801,1.311 -4.271,1.72 -5.424,1.508 -10.879,2.902 -16.318,4.354 -4.537,1.212 -9.029,2.623 -13.611,3.625 -6.389,1.397 -12.846,2.488 -19.271,3.725 -4.835,0.931 -9.698,1.654 -14.614,1.977 -6.515,0.427 -13.031,0.834 -19.545,1.263 -2.269,0.149 -4.535,0.331 -6.801,0.522 -0.274,0.023 -0.535,0.199 -0.802,0.304 0.021,0.092 0.043,0.184 0.065,0.275 5.184,-0.111 10.368,-0.223 15.549,-0.333 -0.133,0.102 -0.289,0.22 -0.593,0.452 1.216,-0.184 2.229,-0.336 3.241,-0.489 0.019,0.117 0.039,0.234 0.058,0.351 -1.938,0.438 -3.875,0.876 -5.813,1.313 0.302,0.207 0.617,0.335 0.924,0.318 0.694,-0.037 1.383,-0.163 2.077,-0.222 1.801,-0.153 3.63,-0.148 5.399,-0.472 1.809,-0.33 3.636,0.42 5.409,-0.246 0.124,-0.047 0.304,0.057 0.458,0.091 -0.544,0.278 -1.096,0.378 -1.645,0.496 -0.336,0.072 -0.674,0.149 -0.999,0.264 -0.624,0.219 -1.222,0.542 -1.861,0.685 -2.271,0.508 -4.543,1.039 -6.839,1.412 -5.486,0.892 -10.953,1.867 -16.352,3.199 -1.538,0.379 -3.087,0.729 -4.593,1.215 -0.432,0.139 -1.041,0.718 -1.021,1.064 0.043,0.78 0.835,0.602 1.396,0.625 0.232,0.009 0.466,-0.021 0.698,-0.042 1.683,-0.146 3.365,-0.295 5.047,-0.443 4.331,-0.382 8.666,-0.727 12.992,-1.158 2.808,-0.28 5.608,-0.653 8.402,-1.057 1.166,-0.168 2.292,-0.618 3.458,-0.776 3.317,-0.449 6.654,-0.755 9.967,-1.233 2.647,-0.383 5.262,-0.984 7.904,-1.402 4.938,-0.782 9.887,-1.497 14.83,-2.251 2.701,-0.412 5.398,-0.852 8.099,-1.269 1.348,-0.208 2.707,-0.353 4.048,-0.598 1.543,-0.283 3.071,-0.645 4.649,-0.981 -0.039,0.32 -0.061,0.496 -0.091,0.747 1.48,-0.465 2.864,-0.899 4.317,-1.355 -0.047,0.38 -0.07,0.568 -0.106,0.859 1.325,-0.527 2.505,-1.109 3.75,-1.468 2.086,-0.601 4.226,-1.013 6.318,-1.59 2.117,-0.585 4.293,-1.08 6.281,-1.975 1.909,-0.858 3.612,-0.548 5.395,0.075 0.534,0.188 0.792,0.467 0.583,1.188 -0.173,0.593 -0.095,1.412 0.203,1.949 0.349,0.63 1.073,1.043 1.593,1.591 0.176,0.187 0.344,0.516 0.307,0.746 -0.147,0.908 -0.167,1.775 0.257,2.629 0.241,0.487 0.544,0.671 1.105,0.57 1.05,-0.189 2.112,-0.305 3.17,-0.451 0.027,0.042 0.055,0.085 0.083,0.127 -0.97,0.602 -1.94,1.203 -2.998,1.859 1.634,0.451 2.47,0.989 2.958,1.827 -1.246,1.013 -2.484,-0.403 -3.984,-0.037 1.406,1.084 1.912,3.223 4.088,2.37 0.037,0.832 -0.107,1.662 0.149,2.341 0.301,0.793 0.95,1.453 1.448,2.172 0.125,0.18 -0.016,0.501 0.069,0.743 0.537,1.532 1.398,2.762 3.122,3.143 0.191,0.042 0.449,0.286 0.48,0.471 0.275,1.603 1.656,2.111 2.845,2.449 0.813,0.23 1.104,0.619 1.446,1.205 0.273,0.465 0.613,0.892 1.022,1.478 -1.046,1.098 -1.031,2.55 -0.018,3.892 0.796,1.054 2.026,1.24 3.118,0.732 0.025,0.274 0.051,0.543 0.075,0.812 0.088,0.063 0.176,0.126 0.264,0.189 0.111,-0.304 0.224,-0.607 0.336,-0.911 0.09,0.067 0.179,0.135 0.269,0.202 -0.101,0.353 -0.136,0.742 -0.313,1.051 -0.43,0.749 0.056,2.47 0.901,2.631 0.998,0.189 1.479,0.677 1.663,1.641 0.097,0.506 0.321,1.007 0.579,1.457 0.537,0.938 1.084,1.915 2.288,2.126 0.523,0.092 1.065,0.075 1.564,0.105 0.583,1.617 1.185,3.188 2.474,4.443 1.27,1.235 2.401,1.37 3.767,0.219 0.186,-0.156 0.389,-0.292 0.574,-0.431 0.198,0.777 0.374,1.463 0.558,2.185 0.347,-0.041 0.619,-0.074 0.941,-0.112 0,0.543 -0.116,1.065 0.031,1.499 0.157,0.461 0.559,0.841 0.863,1.249 0.161,0.217 0.463,0.403 0.492,0.631 0.085,0.649 0.504,0.856 0.972,0.63 0.626,-0.303 1.187,-0.765 1.725,-1.22 0.298,-0.252 0.491,-0.628 0.8,-1.038 0.441,1.677 0.531,3.308 1.608,4.383 0.229,0.699 0.299,1.393 0.654,1.874 0.388,0.524 1.041,0.854 1.578,1.269 0.302,-0.609 0.687,-1.194 0.889,-1.836 0.497,-1.58 0.868,-3.201 1.376,-4.777 0.218,-0.677 0.646,-1.284 0.98,-1.924 0.277,4.502 0.29,8.952 5.305,11.331 -0.092,-0.594 -0.258,-1.13 -0.242,-1.661 0.071,-2.505 0.142,-5.013 0.33,-7.51 0.053,-0.685 0.516,-1.338 0.789,-2.005 0.111,-0.023 0.222,-0.046 0.333,-0.069 0.021,3.3 0.764,6.072 4.712,6.651 -0.116,-0.526 -0.202,-0.996 -0.324,-1.457 -0.373,-1.411 -0.744,-2.817 0.409,-4.186 0.533,1.187 1.42,1.993 2.985,2.33 z"
   id="path5"
   style="fill:#ffffff;fill-rule:evenodd" />
	<path
   d="m 219.697,149.423 c -1.565,-0.337 -2.452,-1.143 -2.984,-2.332 -1.153,1.368 -0.782,2.774 -0.409,4.186 0.122,0.461 0.208,0.931 0.324,1.457 -3.948,-0.579 -4.69,-3.352 -4.712,-6.651 -0.111,0.023 -0.222,0.046 -0.333,0.069 -0.273,0.667 -0.736,1.32 -0.789,2.005 -0.188,2.497 -0.259,5.005 -0.33,7.51 -0.016,0.531 0.15,1.067 0.242,1.661 -5.015,-2.379 -5.027,-6.829 -5.305,-11.331 -0.334,0.64 -0.763,1.247 -0.98,1.924 -0.508,1.576 -0.879,3.197 -1.376,4.777 -0.202,0.642 -0.587,1.227 -0.889,1.836 -0.537,-0.414 -1.19,-0.744 -1.578,-1.269 -0.355,-0.481 -0.426,-1.175 -0.654,-1.874 -1.077,-1.075 -1.167,-2.706 -1.608,-4.383 -0.309,0.41 -0.502,0.786 -0.8,1.038 -0.538,0.455 -1.099,0.917 -1.725,1.22 -0.468,0.227 -0.887,0.02 -0.972,-0.63 -0.029,-0.228 -0.331,-0.414 -0.492,-0.631 -0.305,-0.408 -0.706,-0.788 -0.863,-1.249 -0.147,-0.434 -0.031,-0.956 -0.031,-1.499 -0.322,0.038 -0.595,0.071 -0.941,0.112 -0.184,-0.722 -0.359,-1.407 -0.558,-2.185 -0.186,0.139 -0.389,0.274 -0.574,0.431 -1.365,1.151 -2.497,1.017 -3.767,-0.219 -1.289,-1.255 -1.891,-2.826 -2.474,-4.443 -0.499,-0.03 -1.041,-0.014 -1.564,-0.105 -1.204,-0.211 -1.751,-1.188 -2.288,-2.126 -0.258,-0.45 -0.482,-0.951 -0.579,-1.457 -0.184,-0.964 -0.665,-1.451 -1.663,-1.641 -0.846,-0.161 -1.331,-1.882 -0.901,-2.631 0.177,-0.309 0.212,-0.698 0.313,-1.051 -0.09,-0.067 -0.179,-0.135 -0.269,-0.202 -0.112,0.304 -0.225,0.607 -0.336,0.911 -0.088,-0.063 -0.176,-0.126 -0.264,-0.189 -0.024,-0.269 -0.05,-0.537 -0.075,-0.812 -1.092,0.508 -2.322,0.321 -3.118,-0.732 -1.014,-1.342 -1.028,-2.794 0.018,-3.892 -0.409,-0.586 -0.749,-1.013 -1.022,-1.478 -0.343,-0.586 -0.633,-0.975 -1.446,-1.205 -1.188,-0.338 -2.569,-0.847 -2.845,-2.449 -0.031,-0.185 -0.289,-0.429 -0.48,-0.471 -1.724,-0.381 -2.585,-1.61 -3.122,-3.143 -0.085,-0.242 0.056,-0.563 -0.069,-0.743 -0.498,-0.719 -1.147,-1.379 -1.448,-2.172 -0.257,-0.679 -0.112,-1.509 -0.149,-2.341 -2.176,0.853 -2.682,-1.286 -4.088,-2.37 1.5,-0.366 2.738,1.05 3.984,0.037 -0.488,-0.838 -1.324,-1.376 -2.958,-1.827 1.058,-0.656 2.028,-1.258 2.998,-1.859 -0.028,-0.042 -0.056,-0.085 -0.083,-0.127 -1.058,0.146 -2.12,0.262 -3.17,0.451 -0.562,0.101 -0.864,-0.083 -1.105,-0.57 -0.424,-0.854 -0.404,-1.721 -0.257,-2.629 0.037,-0.23 -0.131,-0.56 -0.307,-0.746 -0.52,-0.548 -1.244,-0.961 -1.593,-1.591 -0.298,-0.537 -0.376,-1.356 -0.203,-1.949 0.209,-0.721 -0.049,-1 -0.583,-1.188 -1.782,-0.623 -3.485,-0.934 -5.395,-0.075 -1.988,0.895 -4.164,1.39 -6.281,1.975 -2.093,0.577 -4.232,0.989 -6.318,1.59 -1.245,0.358 -2.425,0.94 -3.75,1.468 0.036,-0.291 0.059,-0.479 0.106,-0.859 -1.453,0.456 -2.837,0.891 -4.317,1.355 0.03,-0.251 0.052,-0.427 0.091,-0.747 -1.578,0.337 -3.106,0.698 -4.649,0.981 -1.341,0.245 -2.7,0.39 -4.048,0.598 -2.701,0.417 -5.397,0.856 -8.099,1.269 -4.943,0.754 -9.891,1.469 -14.83,2.251 -2.642,0.418 -5.257,1.02 -7.904,1.402 -3.313,0.479 -6.65,0.784 -9.967,1.233 -1.167,0.158 -2.292,0.608 -3.458,0.776 -2.793,0.403 -5.594,0.776 -8.402,1.057 -4.326,0.432 -8.661,0.776 -12.992,1.158 -1.682,0.148 -3.364,0.297 -5.047,0.443 -0.232,0.021 -0.466,0.051 -0.698,0.042 -0.561,-0.023 -1.353,0.155 -1.396,-0.625 -0.02,-0.347 0.59,-0.926 1.021,-1.064 1.505,-0.485 3.055,-0.836 4.593,-1.215 5.398,-1.332 10.866,-2.308 16.352,-3.199 2.296,-0.373 4.567,-0.904 6.839,-1.412 0.639,-0.143 1.237,-0.466 1.861,-0.685 0.324,-0.114 0.662,-0.191 0.999,-0.264 0.548,-0.118 1.101,-0.218 1.645,-0.496 -0.154,-0.034 -0.334,-0.138 -0.458,-0.091 -1.773,0.666 -3.6,-0.084 -5.409,0.246 -1.769,0.323 -3.598,0.318 -5.399,0.472 -0.694,0.059 -1.383,0.185 -2.077,0.222 -0.307,0.017 -0.622,-0.111 -0.924,-0.318 1.938,-0.438 3.875,-0.875 5.813,-1.313 -0.02,-0.116 -0.039,-0.233 -0.058,-0.351 -1.012,0.153 -2.025,0.306 -3.241,0.489 0.304,-0.232 0.459,-0.351 0.593,-0.452 -5.181,0.11 -10.365,0.222 -15.549,0.333 -0.021,-0.092 -0.043,-0.184 -0.065,-0.275 0.267,-0.104 0.528,-0.28 0.802,-0.304 2.266,-0.191 4.532,-0.373 6.801,-0.522 6.514,-0.429 13.03,-0.836 19.545,-1.263 4.917,-0.322 9.779,-1.046 14.614,-1.977 6.425,-1.236 12.881,-2.327 19.271,-3.725 4.582,-1.002 9.074,-2.413 13.611,-3.625 5.439,-1.452 10.895,-2.847 16.318,-4.354 1.47,-0.409 2.847,-1.146 4.271,-1.72 0.726,-0.293 1.464,-0.556 2.192,-0.841 0.226,-0.088 0.438,-0.206 0.623,-0.524 -0.324,0 -0.649,-0.014 -0.973,0.002 -1,0.05 -1.134,-0.115 -1.138,-1.137 -0.001,-0.4 -0.105,-0.849 -0.306,-1.193 -0.938,-1.616 -0.673,-3.559 0.717,-4.859 0.204,-0.191 0.407,-0.382 0.611,-0.574 -0.024,-0.074 -0.049,-0.148 -0.072,-0.222 -0.949,0.174 -1.909,0.307 -2.845,0.538 -0.714,0.176 -1.201,0.023 -1.238,-0.737 -0.043,-0.874 0.066,-1.754 0.067,-2.631 0.001,-0.333 -0.01,-0.751 -0.197,-0.985 -1.444,-1.798 -1.345,-3.036 0.357,-4.542 1.104,-0.976 2.181,-1.985 3.202,-3.045 0.33,-0.344 0.445,-0.896 0.659,-1.353 -0.074,-0.071 -0.148,-0.141 -0.223,-0.211 -0.527,0.404 -1.027,0.85 -1.585,1.204 -0.973,0.615 -1.969,1.195 -2.984,1.736 -0.197,0.105 -0.591,0.043 -0.772,-0.099 -0.115,-0.089 -0.062,-0.489 0.018,-0.713 0.154,-0.436 0.353,-0.862 0.582,-1.264 0.28,-0.488 0.279,-0.846 -0.127,-1.32 -0.619,-0.722 -0.274,-1.557 0.112,-2.251 0.287,-0.515 0.181,-0.88 0.098,-1.412 -0.104,-0.661 0.206,-1.425 0.47,-2.092 0.15,-0.38 0.6,-0.631 0.846,-0.987 0.146,-0.212 0.267,-0.538 0.218,-0.775 -0.352,-1.702 0.052,-2.38 1.678,-2.955 0.931,-0.329 1.813,-0.791 2.718,-1.194 -0.034,-0.087 -0.069,-0.176 -0.104,-0.264 -0.83,0.148 -1.658,0.306 -2.49,0.441 -1.2,0.195 -2.243,-0.233 -3.208,-0.878 -0.739,-0.494 -0.951,-2.229 -0.297,-3.01 0.557,-0.665 0.68,-1.201 0.229,-2.001 -0.47,-0.837 -0.496,-1.743 0.111,-2.643 0.216,-0.319 0.122,-0.908 0.039,-1.348 -0.085,-0.448 -0.341,-0.862 -0.507,-1.297 -0.331,-0.871 -0.275,-1.643 0.521,-2.276 0.29,-0.231 0.559,-0.542 0.709,-0.875 0.119,-0.265 0.116,-0.635 0.042,-0.927 -0.269,-1.061 -0.715,-2.092 -0.862,-3.166 -0.198,-1.448 0.546,-2.031 2.004,-1.767 0.447,0.081 0.912,0.314 1.194,-0.305 0.236,-0.517 0.752,-0.888 0.168,-1.605 -0.429,-0.525 -0.534,-1.333 -0.721,-2.032 -0.192,-0.721 -0.313,-1.462 -0.453,-2.196 -0.013,-0.068 0.069,-0.154 0.205,-0.434 1.22,0.561 2.438,1.122 3.704,1.705 0.507,-0.837 0.959,-1.653 0.339,-2.787 -0.681,-1.245 -1.137,-2.613 -1.68,-3.932 -0.104,-0.255 -0.158,-0.531 -0.131,-0.875 3.324,2.317 5.839,5.527 9.087,7.93 0.247,-0.497 0.543,-0.964 0.704,-1.474 0.079,-0.25 -0.02,-0.626 -0.167,-0.866 -0.64,-1.042 -1.326,-2.054 -1.996,-3.076 -1.813,-2.765 -3.2,-5.725 -4.074,-8.916 -0.139,-0.502 -0.197,-1.032 -0.241,-1.553 -0.018,-0.201 0.105,-0.415 0.165,-0.623 0.176,0.112 0.409,0.184 0.519,0.342 0.969,1.397 2.075,2.729 2.838,4.233 2.348,4.628 5.819,8.411 9.036,12.39 0.032,0.04 0.102,0.047 0.154,0.069 0.944,-0.85 1.022,-1.805 0.338,-2.972 -0.883,-1.505 -1.816,-2.995 -2.544,-4.575 -1.45,-3.152 -2.396,-6.439 -1.956,-9.97 0.047,-0.381 0.342,-0.731 0.521,-1.096 0.257,0.289 0.611,0.538 0.752,0.875 0.393,0.94 0.711,1.911 1.031,2.879 1.354,4.102 2.989,8.084 5.03,11.895 0.16,0.299 0.364,0.575 0.673,1.058 0.018,-1.499 0.424,-2.638 -0.069,-4.055 -1.17,-3.365 -1.744,-6.896 -1.021,-10.494 0.069,-0.342 0.229,-0.666 0.346,-0.998 0.103,-0.008 0.204,-0.015 0.306,-0.023 0.187,0.459 0.428,0.903 0.55,1.378 0.942,3.671 1.82,7.36 2.798,11.021 1.298,4.862 3.275,9.46 5.587,13.92 0.4,0.774 0.575,1.729 1.137,2.342 1.173,1.283 1.567,2.94 2.408,4.373 0.219,0.374 0.347,0.802 0.524,1.201 0.85,1.912 1.66,3.842 2.563,5.728 0.973,2.03 1.244,4.172 1.542,6.382 0.348,2.584 -0.818,4.929 -0.643,7.439 0.189,2.727 0.253,5.462 0.446,8.188 0.139,1.96 1.435,2.933 3.148,3.663 2.23,0.951 4.355,0.364 6.502,-0.127 1.361,-0.311 2.669,-0.897 4.04,-1.111 2.862,-0.448 5.746,-0.919 8.582,0.283 1.143,0.484 2.372,0.764 3.531,1.217 0.679,0.266 1.168,0.803 1.148,1.601 -0.007,0.311 -0.078,0.72 -0.282,0.905 -0.421,0.382 -0.485,0.711 -0.376,1.281 0.998,5.185 -2.64,8.478 -5.805,8.822 0.599,-0.666 1.208,-1.342 1.816,-2.019 -0.049,-0.058 -0.097,-0.114 -0.146,-0.171 -0.276,0.052 -0.583,0.042 -0.823,0.164 -1.894,0.963 -3.929,0.634 -5.921,0.679 -2.838,0.064 -5.509,0.759 -8.025,2.067 -0.757,0.394 -0.771,1.135 -0.623,1.735 0.284,1.145 0.679,2.281 1.188,3.346 0.663,1.389 1.455,2.72 2.24,4.047 1.169,1.977 2.375,3.932 3.579,5.888 0.258,0.42 0.551,0.824 0.863,1.206 3.649,4.464 6.069,9.513 7.492,15.103 0.694,2.727 1.794,5.348 2.659,8.033 0.688,2.132 1.505,4.252 1.897,6.444 0.844,4.714 2.276,9.247 3.771,13.773 0.14,0.427 0.297,0.846 0.516,1.465 z"
   id="path7"
   style="fill-rule:evenodd" />
</g>
</svg>