<?xml version="1.0" encoding="UTF-8" standalone="no"?>
<!-- Created with Inkscape (http://www.inkscape.org/) -->

<svg
   xmlns:svg="http://www.w3.org/2000/svg"
   xmlns="http://www.w3.org/2000/svg"
   version="1.1"
   width="238.26839mm"
   height="122.98988mm"
   viewBox="0 0 238.26839 122.98988"
   id="svg8">
  <defs
     id="defs2" />
  <g
     transform="translate(57.061747,-176.25476)"
     id="layer1">
    <path
       d="m 25.716022,299.00415 c -0.3638,-0.11651 -1.1529,-0.2237 -1.75354,-0.23821 -0.60603,-0.0146 -1.23489,-0.19845 -1.41296,-0.413 -0.17648,-0.21264 -0.57801,-0.46485 -0.89229,-0.56046 -0.88608,-0.26956 -1.49746,-0.92585 -1.49746,-1.60746 0,-0.34125 0.20836,-0.79661 0.46302,-1.01192 0.25466,-0.21531 1.05833,-0.90441 1.78594,-1.53133 2.31436,-1.99409 4.29832,-3.35006 5.72347,-3.9118 0.76117,-0.30003 1.54803,-0.74709 1.74856,-0.99347 1.36103,-1.67218 3.45857,-8.31023 3.7823,-11.96976 0.41495,-4.6907 0.62507,-17.11466 0.30751,-18.1826 -0.16146,-0.543 -0.3644,-1.43707 -0.45097,-1.98682 -0.0866,-0.54974 -0.25775,-0.93752 -0.38039,-0.86172 -0.25529,0.15778 -0.43658,-0.48504 -0.66897,-2.37207 -0.29847,-2.42364 -0.43693,-3.09819 -0.60208,-2.93305 -0.21111,0.21112 -0.85791,-1.32104 -0.86889,-2.05826 -0.008,-0.50809 -0.0417,-0.52114 -0.33957,-0.12971 -0.45554,0.59868 -1.05854,0.12585 -1.48295,-1.16283 -0.30708,-0.93241 -0.8149,-1.3606 -0.8149,-0.68712 0,0.16778 -0.23812,0.0305 -0.52916,-0.30507 -0.29105,-0.33558 -0.52917,-0.70248 -0.52917,-0.81534 0,-0.45306 -0.85435,-1.0513 -1.15251,-0.80702 -0.35164,0.28809 -1.73694,0.25431 -2.22494,-0.0542 -0.1841,-0.11641 -0.51607,-0.64565 -0.73769,-1.17607 -0.42551,-1.01838 -1.11343,-1.90982 -1.47381,-1.90982 -0.1184,0 -0.13925,0.19812 -0.0463,0.44028 0.28957,0.75459 -0.38191,0.1511 -1.2731,-1.1442 -0.54295,-0.78915 -0.89729,-1.0969 -1.02501,-0.89024 -0.2157,0.34902 -1.18205,-0.70725 -1.46624,-1.60266 -0.0886,-0.27904 -0.2791,-0.50735 -0.4234,-0.50735 -0.1443,0 -0.19649,0.10659 -0.11598,0.23686 0.0805,0.13027 -0.0353,0.30659 -0.25744,0.39182 -0.26762,0.1027 -0.488,-0.0664 -0.65339,-0.50144 -0.13726,-0.36102 -0.32478,-0.6564 -0.41671,-0.6564 -0.0919,0 -0.1059,0.15962 -0.031,0.35472 0.2772,0.72236 -0.21959,0.99122 -0.81189,0.4394 -0.31262,-0.29125 -0.69245,-0.52954 -0.84405,-0.52954 -0.15161,0 -0.27565,-0.23813 -0.27565,-0.52917 0,-0.29104 -0.11906,-0.52916 -0.26458,-0.52916 -0.14552,0 -0.26458,0.23109 -0.26458,0.51355 0,0.28245 -0.11907,0.58713 -0.26459,0.67707 -0.14653,0.0906 -0.26833,-0.10905 -0.27299,-0.44741 -0.008,-0.59417 -0.0191,-0.59684 -0.39688,-0.0973 -0.33873,0.44784 -0.38846,0.45631 -0.38846,0.0661 0,-0.24609 -0.12609,-0.44744 -0.2802,-0.44744 -0.15411,0 -0.20331,0.14883 -0.10933,0.33073 0.094,0.1819 -0.0806,0.0331 -0.3879,-0.33073 -0.30732,-0.3638 -0.54168,-0.5424 -0.5208,-0.39688 0.1114,0.77615 -0.0242,0.99122 -0.41865,0.66388 -0.21668,-0.17983 -0.31734,-0.45093 -0.2237,-0.60245 0.10593,-0.1714 0.0397,-0.19478 -0.17535,-0.0619 -0.2176096,0.13449 -0.4777096,0.0329 -0.7023296,-0.27428 -0.23375,-0.31967 -0.35674,-0.36507 -0.35674,-0.1317 0,0.25305 -0.16618,0.21024 -0.57403,-0.14787 -0.48545,-0.42625 -0.54927,-0.43596 -0.41358,-0.0629 0.24905,0.68472 -0.50357,0.79122 -0.97314,0.13771 -0.22875,-0.31836 -0.40284,-0.45977 -0.38687,-0.31425 0.0957,0.872 -0.0415,1.00096 -0.5628,0.52917 -0.51156,-0.46296 -0.5293,-0.46212 -0.53321,0.0251 -0.003,0.42227 -0.0457,0.43965 -0.26054,0.10715 -0.19915,-0.30816 -0.25738,-0.23074 -0.26053,0.34634 -0.002,0.43171 -0.11594,0.67407 -0.271,0.57824 -0.14682,-0.0907 -0.49178,-0.0936 -0.76657,-0.006 -0.36201,0.1149 -0.45803,0.32002 -0.34863,0.74469 0.13339,0.51775 0.10021,0.54446 -0.28443,0.22907 -0.38882,-0.31883 -0.45467,-0.23665 -0.6153,0.76786 -0.16367,1.02352 -0.21202,1.08095 -0.5365,0.6372 -0.32973,-0.45092 -0.35894,-0.42902 -0.38731,0.29047 -0.0176,0.44626 -0.0823,0.58068 -0.1517,0.31515 -0.14813,-0.56687 -0.57394,-0.60382 -0.77968003,-0.0677 -0.0834,0.21744 -0.2583,0.32948 -0.38857,0.24896 -0.13027,-0.0805 -0.24108,0.12853 -0.24624,0.46454 l -0.009,0.61093 -0.3521,-0.63537 c -0.19931,-0.35965 -0.39789,-0.498 -0.45762,-0.31882 -0.15496,0.46488 -2.60575997,0.69225 -2.62970997,0.24397 -0.0102,-0.19147 -0.12093,-0.10999 -0.246,0.18105 -0.20001,0.46546 -0.22963,0.43968 -0.24598,-0.21405 -0.0229,-0.91426 -0.44711,-0.71425 -0.67375,0.31764 -0.167,0.76031 -0.84478,0.98942 -1.25903,0.42558 -0.11871,-0.16159 -0.19596,-0.12976 -0.19844,0.0818 -0.007,0.58511 -0.53165,0.0572 -0.55708,-0.5604 -0.0169,-0.4113 -0.0994,-0.3167 -0.28393,0.32566 l -0.26006,0.90536 -0.77378,-0.90536 -0.77379,-0.90536 -5.3e-4,1.04276 c -5.3e-4,0.97372 -0.0263,1.00875 -0.38908,0.52917 -0.375233,-0.4961 -0.389021,-0.49107 -0.404922,0.14786 -0.01505,0.60503 -0.04098,0.61925 -0.303909,0.1667 -0.232097,-0.39949 -0.331665,-0.42497 -0.5170704,-0.13229 -0.153611,0.24249 -0.23886,0.0121 -0.257534,-0.69586 l -0.02791,-1.05834 -0.248285,0.8599 c -0.285287,0.98804 -0.74776,1.14234 -0.793014,0.26458 -0.02336,-0.45303 -0.05976,-0.48387 -0.152316,-0.12905 -0.188206,0.72151 -0.610743,0.26162 -0.610743,-0.66474 0,-0.78546 -0.02027,-0.8019 -0.388461,-0.31511 -0.37588,0.49696 -0.388731,0.49267 -0.396875,-0.13229 -0.0081,-0.62497 -0.02101,-0.62925 -0.396875,-0.13229 -0.213651,0.28247 -0.392586,0.39452 -0.397632,0.249 -0.0057,-0.16481 -1.480439,-0.25811 -3.911017,-0.24744 -3.282591,0.0144 -4.405747,0.1335 -7.076848,0.75022 -1.74625,0.40318 -3.472656,0.79502 -3.836458,0.87075 -0.363802,0.0757 -1.613958,0.41991 -2.778125,0.76484 -1.164167,0.34494 -2.890573,0.73904 -3.836458,0.87578 -0.945886,0.13674 -2.196042,0.45367 -2.778125,0.70429 -2.769953,1.19261 -5.723914,1.50033 -7.455862,0.77667 -1.276194,-0.53323 -1.653777,-1.09373 -1.663849,-2.46991 -0.01028,-1.40499 0.684226,-2.66016 1.57642,-2.84902 1.011788,-0.21419 2.446291,-0.87016 3.127451,-1.43014 l 0.611244,-0.50249 -0.572517,-0.77437 c -1.054447,-1.42622 0.235272,-2.76539 1.723898,-1.79001 0.357622,0.23432 0.911841,0.42604 1.231598,0.42604 0.764499,0 2.791851,-1.19893 3.145851,-1.86038 0.153227,-0.28648 0.533917,-0.52087 0.845887,-0.52087 0.697311,0 2.32458,-0.5697 2.32458,-0.81383 0,-0.20518 -1.358709,-0.50908 -2.276067,-0.50908 -0.342332,0 -1.309715,0.37738 -2.14974,0.83862 -1.404665,0.77128 -1.792913,0.85319 -4.834609,1.01999 -2.920778,0.16017 -3.624563,0.29853 -6.022101,1.1839 l -2.714809,1.00253 -1.694428,-0.86004 c -2.06606,-1.04868 -2.843111,-1.85548 -3.449787,-3.58188 -0.596147,-1.69643 -1.071077,-5.11251 -0.839216,-6.03631 0.09865,-0.39306 0.511358,-1.08621 0.917129,-1.54035 0.602751,-0.6746 0.994732,-0.85039 2.141935,-0.96062 0.772293,-0.0742 2.194845,0.0143 3.161226,0.19661 1.608759,0.30355 1.924375,0.2821 3.739491,-0.25416 1.090339,-0.32212 3.214511,-1.10967 4.720382,-1.75011 1.50587,-0.64044 2.954684,-1.16443 3.219586,-1.16443 0.264901,0 1.351185,-0.41672 2.413963,-0.92605 1.062779,-0.50932 2.064855,-0.92604 2.226836,-0.92604 0.161981,0 1.296434,-0.61264 2.521006,-1.36141 1.224573,-0.74878 3.55592,-1.98973 5.180772,-2.75767 3.262307,-1.54184 5.271092,-3.20724 5.549881,-4.60118 0.08909,-0.44545 0.329515,-0.80474 0.538512,-0.80474 0.207661,0 0.502957,-0.3597 0.656214,-0.79933 0.274238,-0.78668 1.281324,-1.6251 1.281324,-1.06673 0,0.14806 0.416719,-0.13548 0.926042,-0.6301 0.509323,-0.49462 0.926041,-1.00861 0.926041,-1.14221 0,-0.1336 0.357188,-0.56116 0.79375,-0.95014 0.436563,-0.38898 0.79375,-0.62365 0.79375,-0.5215 0,0.10215 0.297337,-0.22435 0.660747,-0.72556 1.278559,-1.76339 2.328024,-2.89568 2.683857,-2.89568 0.19776,0 0.359563,0.11223 0.359563,0.24939 0,0.13717 0.224634,0.20614 0.499187,0.15326 0.644715,-0.12416 1.6174804,-0.73223 1.6174804,-1.01107 0,-0.11911 0.118536,-0.1433 0.263414,-0.0538 0.144877,0.0895 0.545485,-0.14156 0.890235,-0.51355 0.63181,-0.68174 1.42883,-0.95142 1.06314,-0.35973 -0.10762,0.17414 0.15325,0.0682 0.5797,-0.2355 0.74485,-0.53038 0.92526,-0.61029 1.37787,-0.61029 0.1131,0 0.59669,-0.35718 1.07467,-0.79375 0.47797,-0.43656 0.95684,-0.79375 1.06414,-0.79375 0.41025,0 0.84689,-1.88457 1.00923,-4.35593 0.17244,-2.6252 0.45539,-3.20474 1.24481997,-2.54957 0.27008,0.22415 0.4366,0.20322 0.67574,-0.0849 0.38869,-0.46835 1.34037003,-0.4367 1.34037003,0.0446 0,0.27584 0.12017,0.28557 0.56788,0.046 0.51294,-0.27452 0.55311,-0.24747 0.41527,0.27963 -0.14618,0.55901 -0.13136,0.56432 0.35265,0.1263 0.47992,-0.43432 0.51466,-0.43222 0.69281,0.0418 0.10315,0.27447 0.36132,0.62934 0.5737,0.7886 0.2466,0.18493 0.32821,0.52035 0.22584,0.92824 -0.0882,0.35127 -0.0421,0.81628 0.1023,1.03335 0.22268,0.33469 0.3316,0.30096 0.71659,-0.22195 0.91363,-1.24091 1.95726,-2.29191 1.80427,-1.81702 -0.0937,0.29098 -0.0472,0.41098 0.11956,0.30795 0.15023,-0.0928 0.41676,-0.0674 0.59228,0.0566 0.17553,0.12397 0.49774,0.20748 0.71602,0.18559 0.21828,-0.0219 0.52659,-0.0535 0.68513,-0.0703 0.15854,-0.0168 0.4149,-0.30845 0.56967,-0.64815 0.21586,-0.47375 0.51122,-0.62626 1.2680196,-0.65471 1.42643,-0.0536 1.78019,-0.21834 2.37197,-1.10438 0.66031,-0.98865 1.36453,-1.35437 0.88884,-0.4616 -0.28445,0.53386 -0.27256,0.55516 0.12617,0.22623 0.3731,-0.30778 0.44163,-0.30778 0.44957,0 0.0137,0.52919 0.72632,-0.79387 1.05571,-1.95996 0.15539,-0.55009 0.39604,-0.93002 0.53476,-0.84428 0.13873,0.0857 0.25406,3e-5 0.25629,-0.19045 0.003,-0.25167 0.0742,-0.23786 0.26053,0.0505 0.14107,0.21828 0.25831,0.72429 0.26054,1.12448 0.002,0.40018 0.12311,0.7276 0.26863,0.7276 0.14552,0 0.26458,-0.24515 0.26458,-0.54478 0,-0.29963 0.11998,-0.47063 0.26662,-0.38001 0.14663,0.0906 0.45846,-0.0271 0.69295,-0.26157 0.51631,-0.5163 0.63588,-0.41893 0.87177,0.70991 l 0.1825,0.87332 0.47745,-1.32291 c 0.2626,-0.72761 0.52012,-1.47175 0.57228,-1.65365 0.0521,-0.1819 0.27715,-0.33073 0.50001,-0.33073 0.30302,0 0.40517,0.29625 0.40517,1.17501 0,1.38386 0.45732,1.87106 0.57818,0.61595 0.0575,-0.59714 0.21966,-0.86492 0.52378,-0.86492 0.24227,0 0.76454,-0.28123 1.1606,-0.62497 l 0.72011,-0.62498 -0.17645,0.75727 c -0.12966,0.55642 -0.10523,0.652 0.0921,0.36039 0.14771,-0.21828 0.27039,-0.29907 0.27262,-0.17954 0.002,0.11954 0.19091,0.0305 0.4193,-0.19791 0.31345,-0.31345 0.54048,-0.34823 0.92604,-0.14188 0.28094,0.15035 0.5108,0.17156 0.5108,0.0471 0,-0.12443 0.34475,-0.61239 0.76613,-1.08436 l 0.76612,-0.85812 0.27132,0.74432 c 0.14922,0.40938 0.28072,0.55418 0.2922,0.32178 0.0115,-0.23239 0.25848,-0.69647 0.54886,-1.03128 l 0.52796,-0.60874 0.16767,0.83835 c 0.20822,1.04113 0.53483,1.27467 0.76563,0.54746 0.0986,-0.31074 0.32745,-0.49374 0.52336,-0.41856 0.43055,0.16522 1.19158,-0.63711 1.19158,-1.25624 0,-0.25179 0.10889,-0.3905 0.24198,-0.30825 0.1331,0.0823 0.29783,-1e-5 0.36607,-0.18282 0.0883,-0.23644 0.17505,-0.20991 0.30064,0.0919 0.1491,0.35834 0.30443,0.30486 0.99903,-0.344 0.45236,-0.42257 1.05063,-0.89041 1.32949,-1.03965 0.44787,-0.2397 0.4749,-0.21135 0.23171,0.24306 -0.53753,1.00438 0.24261,0.9651 1.69045,-0.0851 1.22912,-0.89155 1.64813,-1.09848 1.29284,-0.63847 -0.7744,1.00266 0.0444,1.64485 1.04179,0.81709 0.34415,-0.28562 0.37927,-0.24584 0.24451,0.27691 -0.14592,0.56606 -0.12148,0.58159 0.33619,0.21356 0.28558,-0.22965 0.40982,-0.25752 0.29485,-0.0662 -0.33638,0.55991 0.21529,0.36751 1.13797,-0.39687 0.48305,-0.40018 0.93918,-0.68767 1.01361,-0.63886 0.0744,0.0488 0.23612,-0.0703 0.3593,-0.26458 0.18232,-0.28763 0.22472,-0.28263 0.22802,0.0269 0.003,0.24777 0.29251,0.10951 0.83209,-0.39688 0.73342,-0.6883 0.79144,-0.70648 0.50773,-0.15913 -0.17617,0.33989 -0.25113,0.68715 -0.16658,0.7717 0.0846,0.0845 0.15373,0.0598 0.15373,-0.0551 0,-0.11484 0.17118,-0.0667 0.3804,0.10691 0.3109,0.25804 0.46265,0.15521 0.83066,-0.56291 0.5497,-1.07263 0.91484,-1.33263 1.35662,-0.96598 0.24466,0.20305 0.379,0.16841 0.49235,-0.12697 0.0857,-0.22342 0.32802,-0.47227 0.53842,-0.55301 0.31778,-0.12194 0.32938,-0.047 0.0685,0.44256 -0.28588,0.53654 -0.27403,0.55636 0.13222,0.22121 0.38954,-0.32136 0.42507,-0.31295 0.2796,0.0661 -0.27083,0.70577 0.46815,0.5099 1.41131,-0.37408 0.47294,-0.44327 0.8599,-0.68084 0.8599,-0.52794 0,0.15289 0.20836,0.27981 0.46302,0.28204 0.39701,0.003 0.40644,0.0417 0.0661,0.26831 -0.28898,0.19242 -0.11898,0.2363 0.62535,0.1614 0.56222,-0.0566 1.098,-0.22079 1.19062,-0.36493 0.0926,-0.14415 0.42025,-0.3406 0.72805,-0.43655 0.47849,-0.14916 0.54899,-0.0774 0.48618,0.49481 -0.0404,0.3681 0.0371,0.60092 0.17227,0.51739 0.13516,-0.0835 0.17725,-0.26271 0.0935,-0.39818 -0.0837,-0.13546 0.0207,-0.2463 0.23196,-0.2463 0.21131,0 0.45272,-0.17859 0.53648,-0.39688 0.23493,-0.6122 0.62623,-0.47196 0.9228,0.33073 0.25875,0.70032 0.27543,0.70597 0.445,0.1506 0.22361,-0.73239 0.83547,-0.97828 1.12903,-0.45372 0.12388,0.22137 0.45445,0.44544 0.7346,0.49793 0.28014,0.0525 0.50935,0.12077 0.50935,0.15173 0,0.031 0.38402,0.0768 0.85337,0.10191 0.46936,0.0251 0.92949,0.12174 1.02252,0.21477 0.17823,0.17823 1.4294,-0.52633 1.75421,-0.98783 0.10479,-0.14889 0.269,0.11873 0.36491,0.5947 0.19641,0.97471 0.50961,1.29872 0.72154,0.74643 0.21354,-0.55646 2.13637,-0.36901 2.25172,0.21951 0.0692,0.35312 0.28905,0.42766 0.98476,0.3339 0.56871,-0.0766 1.00677,0.0132 1.20006,0.24609 0.39132,0.47151 0.70983,0.46355 1.20346,-0.0301 0.21828,-0.21828 0.59673,-0.39505 0.841,-0.39282 0.38344,0.003 0.38989,0.0391 0.0472,0.26053 -0.33649,0.21746 -0.32406,0.2571 0.0818,0.26053 0.29461,0.002 0.40586,0.12181 0.28936,0.31031 -0.1312,0.21228 -0.004,0.25774 0.41546,0.14812 0.33261,-0.087 1.07054,0.0282 1.63985,0.25603 0.56931,0.22779 1.10981,0.33947 1.2011,0.24818 0.0913,-0.0913 0.35424,-0.005 0.58433,0.19123 0.23009,0.19647 1.01366,0.51286 1.74127,0.70309 0.7276,0.19023 1.44198,0.43621 1.5875,0.54662 0.27839,0.21122 4.79495,1.67549 7.9375,2.57334 2.63636,0.75322 4.06975,1.03841 7.67291,1.52662 1.74625,0.23661 4.36563,0.65219 5.82084,0.92351 1.455208,0.27132 3.657858,0.56521 4.894788,0.65308 1.23693,0.0879 2.78474,0.26969 3.43958,0.40404 7.18952,1.47502 7.53923,1.50924 12.30313,1.20398 2.45371,-0.15723 3.59575,-0.11281 5.02708,0.19551 1.01865,0.21943 2.74505,0.48584 3.83646,0.59202 1.3909,0.13532 3.01306,0.58424 5.42396,1.50104 1.89177,0.71939 3.97536,1.41064 4.6302,1.53611 4.04077,0.77426 7.93998,2.79294 10.84792,5.61615 0.94589,0.91833 2.37464,2.0736 3.175,2.56727 3.82821,2.36127 4.11848,2.60406 4.72938,3.95576 0.72365,1.6012 2.68957,3.43705 4.69804,4.38721 2.22461,1.05241 4.77448,1.47648 10.28404,1.71037 4.68597,0.19892 6.74687,0.54128 6.74687,1.1208 0,0.11362 0.16541,0.20658 0.36757,0.20658 0.46349,0 1.73493,1.03758 1.28608,1.04953 -0.37562,0.01 -0.33266,0.57165 0.0661,0.86465 0.23092,0.16966 -0.42282,0.32372 -0.99219,0.23382 -0.10914,-0.0172 -0.19844,0.093 -0.19844,0.24485 0,0.1519 -0.14883,0.25685 -0.33073,0.23323 -0.87541,-0.11367 -1.80124,0.0455 -1.65364,0.28434 0.15333,0.24809 -0.37492,0.38166 -1.12448,0.28433 -0.1819,-0.0236 -0.33073,0.0776 -0.33073,0.22493 0,0.14733 -0.19927,0.19141 -0.44281,0.098 -0.33547,-0.12873 -0.40162,-0.0626 -0.27289,0.27288 0.15589,0.40625 -0.2068,0.58959 -0.93795,0.47414 -0.10914,-0.0172 -0.19844,0.0877 -0.19844,0.23326 0,0.14552 0.13891,0.26458 0.30869,0.26458 0.16977,0 0.23722,0.0714 0.14989,0.15879 -0.0873,0.0873 -0.30727,0.067 -0.48876,-0.0452 -0.18149,-0.11216 -0.93698,-0.21984 -1.67887,-0.23929 -0.74189,-0.0194 -1.4943,-0.12522 -1.672,-0.23504 -0.17771,-0.10984 -0.32311,-0.0901 -0.32311,0.0438 0,0.13393 -0.31535,0.18322 -0.70078,0.10955 -0.5321,-0.10172 -0.64903,-0.0502 -0.48577,0.21394 0.15473,0.25035 0.0937,0.30136 -0.2176,0.1819 -0.23794,-0.0913 -0.60049,0.002 -0.80566,0.20702 -0.20516,0.20517 -0.44475,0.30131 -0.53242,0.21364 -0.0877,-0.0877 -0.54938,-0.17629 -1.02605,-0.19695 -0.47667,-0.0207 -1.01443,-0.12889 -1.19503,-0.2405 -0.1806,-0.11162 -0.32836,-0.11363 -0.32836,-0.004 0,0.10917 -0.17009,-0.0326 -0.37798,-0.31511 -0.36242,-0.49245 -0.38571,-0.49362 -0.56598,-0.0284 -0.13394,0.34566 -0.24501,0.39298 -0.38619,0.16454 -0.26424,-0.42754 -0.70188,-0.12568 -1.19207,0.82224 -0.3574,0.69115 -0.35803,0.86158 -0.006,1.54295 0.21785,0.42128 0.47137,1.28448 0.56337,1.91822 0.092,0.63374 0.33076,1.73008 0.53057,2.43631 0.31962,1.12964 0.31632,1.24506 -0.0274,0.95979 -0.33923,-0.28153 -0.39125,-0.0323 -0.39477,1.89095 -0.003,1.50063 -0.085,2.08718 -0.25502,1.81833 -0.17947,-0.2838 -0.23747,-0.0953 -0.20355,0.66146 0.0261,0.58208 0.0218,1.63846 -0.01,2.3475 -0.0506,1.14405 -0.10421,1.24997 -0.47656,0.94096 -0.37799,-0.31371 -0.41076,-0.14612 -0.33073,1.69102 0.0642,1.4736 0.003,2.00623 -0.21939,1.92025 -0.19678,-0.076 -0.37486,0.36551 -0.49252,1.22102 -0.12576,0.91436 -0.25768,1.22414 -0.41533,0.97525 -0.18277,-0.28857 -0.23187,-0.26804 -0.23507,0.0983 -0.002,0.25466 -0.0933,0.44892 -0.20249,0.43169 -0.58162,-0.0918 -0.8599,0.0851 -0.8599,0.54687 0,0.28354 -0.29765,0.83671 -0.66145,1.22926 -0.70575,0.76151 -0.7391,0.86438 -0.67805,2.09166 0.0307,0.61821 -0.0207,0.70598 -0.2325,0.39687 -0.2063,-0.30104 -0.27295,-0.12912 -0.27603,0.71199 -0.002,0.60988 -0.12311,1.18245 -0.26863,1.27239 -0.14552,0.0899 -0.26276,0.30532 -0.26054,0.47864 0.003,0.22502 0.0655,0.21828 0.21899,-0.0236 0.13892,-0.21892 0.37764,0.24895 0.67499,1.32291 0.25304,0.9139 1.04746,2.86643 1.76539,4.33897 0.71793,1.47254 1.30533,2.79503 1.30533,2.93886 0,0.14384 0.9431,1.1131 2.09578,2.1539 2.59222,2.34064 3.06554,3.36265 2.86406,6.18409 -0.10057,1.40824 -0.36732,2.41504 -0.99965,3.77289 -0.86242,1.85198 -0.86249,1.85244 -1.11139,7.9375 -0.30401,7.43262 -0.32511,10.555 -0.0797,11.78867 0.27697,1.39215 -0.18838,1.64957 -2.88595,1.59643 l -2.23013,-0.0439 -1.00934,2.04068 c -1.47312,2.97834 -1.74187,3.12053 -6.09814,3.22645 -1.97831,0.0481 -4.00743,0.0105 -4.50915,-0.0837 -1.14212,-0.21427 -2.17601,-1.22094 -2.17601,-2.11874 0,-0.96681 1.66687,-2.54838 3.47048,-3.29287 1.27845,-0.52773 1.60976,-0.82126 2.37108,-2.10072 0.48673,-0.818 1.14277,-1.84446 1.45787,-2.28103 0.81428,-1.12817 2.62734,-5.34565 2.96369,-6.89402 0.61956,-2.85207 1.11636,-5.85281 1.11519,-6.73594 -7.9e-4,-0.51147 -0.2415,-1.37826 -0.53517,-1.92618 -0.29367,-0.54792 -0.63262,-1.71777 -0.75323,-2.59966 -0.17856,-1.3057 -0.36192,-1.72007 -0.98741,-2.23149 -1.05344,-0.86134 -1.50705,-0.83395 -1.33372,0.0805 0.0758,0.40018 0.21552,1.88901 0.31039,3.3085 0.1466,2.19375 0.1149,2.5588 -0.21136,2.4336 -0.25207,-0.0967 -0.49893,0.13054 -0.71906,0.66199 -0.18437,0.4451 -0.67649,1.19545 -1.0936,1.66744 -0.41711,0.47199 -0.95515,1.39394 -1.19565,2.04878 -0.2405,0.65485 -0.91454,2.32172 -1.49788,3.70417 -1.72494,4.08796 -2.35253,6.45033 -2.54279,9.57155 -0.19728,3.23637 -0.51773,3.84172 -2.10367,3.97405 l -0.96412,0.0805 -0.18584,1.68503 c -0.21584,1.95705 -0.68198,2.60523 -2.0333,2.82738 -0.52572,0.0864 -1.72005,0.3864 -2.65406,0.66663 -2.04317,0.61299 -5.45069,0.68028 -6.75939,0.13347 -1.46796,-0.61336 -2.17864,-2.66379 -1.38876,-4.00683 0.68384,-1.16275 2.1683,-2.78365 2.99725,-3.27274 0.47716,-0.28153 1.10305,-0.96615 1.39086,-1.52137 0.28781,-0.55522 1.00757,-1.54527 1.59947,-2.20012 0.5919,-0.65484 1.22172,-1.66687 1.3996,-2.24895 0.4407,-1.44214 0.89011,-1.88671 1.12713,-1.115 0.1485,0.48353 0.417,0.1007 1.53754,-2.1923 1.27048,-2.59979 1.36924,-2.94796 1.53855,-5.42395 l 0.18093,-2.64584 -1.91376,-3.96875 c -1.05258,-2.18281 -1.989,-4.27633 -2.08095,-4.65225 -0.0919,-0.37593 -0.64909,-1.23099 -1.23809,-1.90013 -0.58901,-0.66915 -1.35266,-1.84985 -1.69701,-2.62379 -0.34435,-0.77394 -0.99624,-1.87002 -1.44865,-2.43573 -0.45241,-0.56571 -0.82256,-1.12057 -0.82256,-1.23301 0,-0.11244 -0.45772,-0.7835 -1.01715,-1.49124 -0.55944,-0.70773 -1.47357,-2.08035 -2.03141,-3.05026 -1.1611,-2.01877 -2.57273,-3.1188 -4.00226,-3.1188 -0.61704,0 -0.85711,-0.0984 -0.73242,-0.30013 0.12927,-0.20916 -0.0789,-0.26132 -0.68669,-0.17211 -0.78406,0.11507 -0.82285,0.0919 -0.38389,-0.22904 0.66074,-0.48314 0.27821,-0.45112 -0.70891,0.0593 -0.44286,0.22901 -0.87377,0.34781 -0.95758,0.264 -0.0838,-0.0838 -0.34063,0.0114 -0.57072,0.21156 -0.23009,0.20017 -0.8946,0.44297 -1.47668,0.53956 -0.75884,0.12593 -0.94602,0.0991 -0.66146,-0.0947 0.21828,-0.14869 0.27186,-0.27217 0.11906,-0.27439 -0.15279,-0.002 -0.40512,0.12326 -0.56073,0.27886 -0.1556,0.15561 -0.49325,0.31379 -0.75032,0.35152 -0.25707,0.0377 -0.81604,0.47597 -1.24216,0.97386 -0.60449,0.70629 -0.70443,0.75987 -0.45473,0.24379 0.31701,-0.65519 0.31483,-0.65684 -0.22978,-0.17358 -0.31301,0.27775 -0.48325,0.66136 -0.39525,0.89068 0.12896,0.33607 0.0613,0.35285 -0.40876,0.1013 -0.47128,-0.25221 -0.53785,-0.23508 -0.4074,0.10489 0.21787,0.56774 -0.43679,1.34645 -0.73575,0.87517 -0.16043,-0.2529 -0.21881,-0.21727 -0.22179,0.13538 -0.002,0.26325 -0.11352,0.41099 -0.24731,0.3283 -0.31706,-0.19596 -1.07966,0.57119 -1.07966,1.0861 0,0.22001 -0.14883,0.34766 -0.33073,0.28367 -0.1819,-0.064 -0.59069,-0.0204 -0.90841,0.097 -0.3805,0.14052 -0.61417,0.10498 -0.68458,-0.10413 -0.0799,-0.23742 -0.21783,-0.22591 -0.5468,0.0456 -0.39194,0.32354 -0.44193,0.28027 -0.4585,-0.39687 -0.0153,-0.62389 -0.0544,-0.6687 -0.21831,-0.25018 -0.17871,0.45618 -0.21763,0.46314 -0.36998,0.0661 -0.0936,-0.24402 -0.0922,-0.65204 0.003,-0.9067 0.15196,-0.40547 0.11804,-0.41789 -0.27288,-0.0999 -0.39338,0.31999 -0.44642,0.29456 -0.44642,-0.21405 0,-0.3558 -0.11273,-0.50751 -0.29391,-0.39553 -0.20345,0.12574 -0.26452,-0.17837 -0.19843,-0.98813 0.09,-1.10241 0.0574,-1.16825 -0.56599,-1.14327 -0.3638,0.0146 -0.92935,-0.0666 -1.25677,-0.18033 -0.36696,-0.1275 -0.59531,-0.10187 -0.59531,0.0668 0,0.15051 -0.12101,0.19887 -0.2689,0.10746 -0.1479,-0.0914 -0.19306,-0.2889 -0.10036,-0.43889 0.1015,-0.16423 -0.0568,-0.15209 -0.39803,0.0305 -0.31161,0.16677 -0.67207,0.23802 -0.80101,0.15833 -0.12894,-0.0797 -0.17454,0.0842 -0.10132,0.36414 0.10931,0.41801 0.01,0.4955 -0.55627,0.43335 -0.59057,-0.0648 -0.64163,-0.0178 -0.35622,0.32841 0.29251,0.35478 0.25962,0.36489 -0.26958,0.0829 -0.33149,-0.17664 -0.53102,-0.46403 -0.44339,-0.63863 0.0876,-0.1746 -0.0202,-0.0972 -0.23957,0.17207 -0.21939,0.26923 -0.53118,0.40775 -0.69287,0.30783 -0.47696,-0.29478 -2.125008,-0.35404 -1.949528,-0.0701 0.0943,0.15266 -0.0677,0.18387 -0.40274,0.0775 -0.44398,-0.14091 -0.52649,-0.089 -0.39654,0.24968 0.13428,0.34994 0.0378,0.39594 -0.53083,0.2532 -0.46826,-0.11752 -0.69493,-0.0682 -0.69493,0.15125 0,0.24918 -0.0979,0.24438 -0.41705,-0.0205 -0.34039,-0.28251 -0.45588,-0.28327 -0.62838,-0.004 -0.14884,0.24082 -0.26487,0.25535 -0.39233,0.0491 -0.29697,-0.48052 -0.72686,-0.33156 -0.56004,0.19406 0.12829,0.40419 0.0208,0.47894 -0.63254,0.44007 -0.43669,-0.026 -0.71837,0.0644 -0.63274,0.20291 0.0894,0.14462 -0.0741,0.17724 -0.38832,0.0775 -0.37294,-0.11836 -0.62599,-0.0238 -0.80909,0.30239 -0.25213,0.44915 -0.276,0.44977 -0.44482,0.0116 -0.0981,-0.25467 -0.29174,-0.46303 -0.43028,-0.46303 -0.13854,0 -0.18602,0.10659 -0.10551,0.23687 0.0805,0.13027 -0.059,0.31567 -0.31007,0.41201 -0.25105,0.0963 -0.49841,0.0493 -0.54969,-0.10457 -0.0513,-0.15383 -0.21512,-0.27971 -0.36408,-0.27971 -0.14897,0 -0.20177,0.18 -0.11735,0.4 0.13697,0.35693 0.0702,0.35693 -0.62002,0 -0.96194,-0.49744 -1.35878,-0.50603 -0.71136,-0.0154 0.46411,0.35171 0.45833,0.38493 -0.13229,0.76095 -0.66034,0.42041 -3.39571,0.32303 -3.39571,-0.12088 0,-0.127 -0.23439,-0.23092 -0.52087,-0.23092 -0.38577,0 -0.47585,0.12009 -0.34733,0.46302 0.15284,0.40783 0.11955,0.4191 -0.27928,0.0946 -0.24905,-0.20264 -0.52931,-0.29194 -0.6228,-0.19844 -0.0935,0.0935 -0.0165,0.17 0.17108,0.17 0.26692,0 0.27231,0.0829 0.0248,0.38115 -0.17398,0.20963 -0.48621,0.31595 -0.69385,0.23627 -0.20766,-0.0797 -0.37754,-0.0131 -0.37754,0.14802 0,0.16109 -0.30469,0.29289 -0.67708,0.29289 -0.38264,0 -0.60618,0.11471 -0.51404,0.26379 0.10596,0.17145 -0.0866,0.16886 -0.55025,-0.007 -0.3923,-0.14916 -0.77139,-0.21307 -0.84242,-0.14205 -0.071,0.071 -0.501,-0.0631 -0.95549,-0.29806 -0.79279,-0.40986 -0.81023,-0.40767 -0.42947,0.0539 0.36626,0.44397 0.35606,0.45991 -0.1323,0.2067 -0.58762,-0.30468 -1.41878,-0.29411 -1.93447,0.0246 -0.18855,0.11653 -0.51671,0.0601 -0.74311,-0.1278 -0.25943,-0.21531 -0.46966,-0.24148 -0.58373,-0.0727 -0.0981,0.1451 -0.41639,0.28026 -0.70744,0.30034 -0.29104,0.0201 -1.30307,0.0841 -2.24895,0.14216 -0.94589,0.0581 -2.0026,0.19594 -2.34824,0.3063 -0.37619,0.12012 -0.56672,0.10078 -0.47466,-0.0482 0.0846,-0.13686 -0.0297,-0.24883 -0.25387,-0.24883 -0.28701,0 -0.37192,0.1869 -0.28692,0.63156 l 0.12074,0.63157 -0.67015,-0.60952 c -0.36858,-0.33523 -0.5921,-0.47316 -0.49671,-0.30651 0.25514,0.44576 -0.43511,0.61685 -0.95498,0.23671 -0.2463,-0.1801 -0.39014,-0.38513 -0.31964,-0.45563 0.0705,-0.0705 -0.0485,-0.12818 -0.2645,-0.12818 -0.30072,0 -0.32287,0.0841 -0.0946,0.35917 0.16395,0.19755 0.21186,0.4454 0.10646,0.5508 -0.10539,0.1054 -0.36519,-0.0457 -0.57732,-0.33583 -0.30787,-0.42105 -0.4305,-0.45496 -0.60779,-0.16809 -0.18699,0.30255 -0.24479,0.30234 -0.36554,-0.001 -0.0924,-0.23235 -0.15683,-0.1724 -0.18109,0.1685 -0.0327,0.46001 -0.0725,0.44272 -0.30399,-0.13229 l -0.26634,-0.66146 -0.36898,0.66146 c -0.3045,0.54587 -0.37061,0.57489 -0.37835,0.16604 -0.008,-0.41011 -0.0777,-0.43869 -0.40625,-0.16601 -0.21828,0.18116 -0.39688,0.21563 -0.39688,0.0766 0,-0.21079 -0.85293,-0.25476 -1.32291,-0.0682 -0.0728,0.0289 -0.35367,0.0291 -0.62424,5.3e-4 -0.27385,-0.029 -0.41856,0.0667 -0.32641,0.21583 0.091,0.14731 0.0445,0.34262 -0.10337,0.43402 -0.1479,0.0914 -0.2689,0.0331 -0.2689,-0.12963 0,-0.1627 -0.10788,-0.22914 -0.23975,-0.14764 -0.13186,0.0815 -0.17589,0.39233 -0.0978,0.69075 0.12378,0.47335 0.0531,0.5203 -0.554,0.36793 -0.42884,-0.10763 -0.6959,-0.0653 -0.6959,0.11031 0,0.15672 -0.16729,0.22076 -0.37175,0.1423 -0.62406,-0.23947 -0.72416,1.15279 -0.29679,4.12801 0.64301,4.47638 0.48922,4.2211 3.06488,5.08762 4.91148,1.65236 4.59859,1.59693 5.61815,0.99537 1.15433,-0.68107 2.20133,-0.3718 2.59851,0.76757 l 0.26779,0.76817 1.37262,-0.70399 c 0.75495,-0.38718 1.69802,-0.92313 2.09571,-1.19098 0.5767,-0.38843 0.8768,-0.43343 1.48248,-0.22228 1.50017,0.52296 6.07145,4.36077 6.47685,5.43763 0.24159,0.64171 -0.67135,2.69044 -1.36409,3.06118 -0.29516,0.15797 -0.84214,0.28721 -1.21551,0.28721 -0.59345,0 -0.67885,0.11134 -0.67885,0.88504 0,1.60995 -1.16485,2.13149 -3.02485,1.35433 -1.64651,-0.68795 -3.52665,-0.93535 -8.68417,-1.1427 -3.24955,-0.13064 -5.07131,-0.30866 -5.27844,-0.51579 -0.17396,-0.17396 -0.64793,-0.31629 -1.05326,-0.31629 -0.40533,0 -1.42331,-0.35726 -2.26218,-0.79392 -0.83888,-0.43665 -2.10098,-0.89944 -2.80467,-1.02841 -0.89167,-0.16342 -1.55604,-0.50257 -2.19202,-1.11899 -1.07158,-1.03861 -3.80071,-6.43916 -3.81299,-7.54533 -0.008,-0.71783 -0.51327,-1.68419 -0.88065,-1.68419 -0.0931,0 -0.16927,0.18563 -0.16927,0.4125 0,0.22686 -0.0975,0.35221 -0.21671,0.27855 -0.11919,-0.0737 -0.17586,0.1872 -0.12594,0.5797 0.0568,0.44653 -0.11889,0.9612 -0.46938,1.37509 -0.35108,0.41458 -0.50661,0.49367 -0.4167,0.21191 0.10083,-0.316 0.0289,-0.40558 -0.24224,-0.30155 -0.21212,0.0814 -0.45527,0.4623 -0.54032,0.84643 -0.085,0.38413 -0.63246,1.66244 -1.21646,2.8407 -0.584,1.17826 -1.16492,2.60701 -1.29094,3.175 -0.12602,0.56799 -0.67256,2.64006 -1.21453,4.60459 -1.37354,4.97876 -1.3488,5.39805 0.53606,9.0877 1.68933,3.30688 1.72564,3.67919 0.48772,5.00136 -0.76906,0.82141 -1.97346,0.95929 -2.81561,0.32232 -0.89581,-0.67756 -1.37355,-0.43504 -2.92455,1.48461 -1.19867,1.48357 -1.59236,2.21258 -1.89321,3.50573 -0.39004,1.67653 -1.41293,3.45542 -2.2421,3.89918 -0.72661,0.38887 -4.46288,1.04365 -5.78801,1.01435 -0.65484,-0.0145 -1.48828,-0.12166 -1.85208,-0.23817 z m 95.812918,-53.64427 c 0.3291,-0.41964 0.31974,-0.429 -0.0999,-0.0999 -0.25466,0.19972 -0.46302,0.40808 -0.46302,0.46302 0,0.21776 0.21727,0.0776 0.56292,-0.36313 z M 13.553912,188.8052 c 0.35904,-0.48948 0.35343,-0.50194 -0.0749,-0.16604 -0.25466,0.19972 -0.46302,0.48745 -0.46302,0.63941 0,0.15195 0.0337,0.22667 0.0749,0.16604 0.0412,-0.0606 0.24954,-0.34837 0.46302,-0.63941 z m 107.875128,-0.0501 c -0.25466,-0.0665 -0.67138,-0.0665 -0.92604,0 -0.25466,0.0666 -0.0463,0.121 0.46302,0.121 0.50932,0 0.71768,-0.0545 0.46302,-0.121 z m -93.604458,-6.03533 c 0,-0.14552 -0.11541,-0.086 -0.25648,0.13229 -0.14106,0.21828 -0.25648,0.51594 -0.25648,0.66146 0,0.14552 0.11542,0.086 0.25648,-0.13229 0.14107,-0.21828 0.25648,-0.51594 0.25648,-0.66146 z"
       id="path21"
       style="fill:#000000;stroke-width:0.26458332" />
  </g>
</svg>
