<?xml version="1.0" encoding="UTF-8" standalone="no"?>
<!-- Created with Inkscape (http://www.inkscape.org/) -->

<svg
   xmlns:svg="http://www.w3.org/2000/svg"
   xmlns="http://www.w3.org/2000/svg"
   version="1.1"
   width="488.16147mm"
   height="295.97025mm"
   viewBox="0 0 1729.706 1048.7135"
   id="svg2">
  <defs
     id="defs4" />
  <g
     transform="translate(806.42857,-4.2053302)"
     id="layer1">
    <path
       d="m -65.803573,1051.476 c -1.43976,-0.878 -9.17506,-1.7896 -18.23946,-2.1495 -14.94327,-0.5934 -16.057787,-0.823 -22.032127,-4.5393 -3.46096,-2.1529 -8.3287,-4.5862 -10.8172,-5.4075 -4.70964,-1.5543 -11.2657,-8.565 -15.1413,-16.1911 -3.40619,-6.7026 -2.16479,-17.7433 2.55994,-22.7673 6.34289,-6.74479 9.28782,-7.34481 36.048617,-7.34481 13.38358,0 25.6718,-0.50872 27.30718,-1.13049 6.20259,-2.35821 17.6371,-15.8066 23.95936,-28.17914 3.37975,-6.61412 8.87676,-15.14739 12.21556,-18.96284 3.33882,-3.81543 7.25075,-9.28062 8.69322,-12.14485 1.44246,-2.86422 4.59179,-7.63558 6.99851,-10.60302 8.9046601,-10.9793 10.7535701,-22.80231 7.6596001,-48.97966 -0.6907,-5.84375 -1.66495,-47.1875 -2.16501,-91.875 -0.50006,-44.6875 -1.3528001,-82.2 -1.8949801,-83.36112 -0.54216,-1.16111 -2.7669,-2.48591 -4.94383,-2.94398 -2.17694,-0.45808 -10.98933,-2.71624 -19.58308,-5.01813 l -15.625,-4.18525 -39.06341,-0.37076 -39.063427,-0.37076 9.3e-4,23.23883 c 0.001,26.17524 -0.96232,31.22207 -7.97602,41.78547 -2.40954,3.62903 -8.70096,15.23317 -13.98092,25.78697 -7.40934,14.81009 -12.472,22.89678 -22.1864,35.43873 -18.94574,24.46027 -24.12912,30.079 -44.25286,47.96956 -10.16284,9.03505 -22.62239,20.94767 -27.68789,26.4725 -8.71109,9.501 -21.35046,19.92537 -33.915,27.97151 -3.09375,1.9812 -8.71875,6.01203 -12.5,8.95741 -3.78125,2.94538 -14.04687,8.73533 -22.8125,12.86658 -13.24395,6.24187 -15.9375,7.97177 -15.9375,10.23565 0,1.74905 -3.18176,5.75817 -8.88804,11.19921 -7.40776,7.06341 -10.59506,9.11918 -19.13741,12.34326 -5.63715,2.1276 -12.74691,5.45499 -15.79946,7.3942 -6.46561,4.10745 -15.54595,15.43395 -16.70732,20.84012 -0.97386,4.53341 -13.36607,21.60231 -17.79084,24.50491 -6.84237,4.4885 -15.49037,5.0281 -72.30193,4.5108 -55.19534,-0.5026 -66.75987,-1.3278 -74.46729,-5.3134 -5.18085,-2.6792 -6.15771,-6.1254 -6.15771,-21.72384 0,-11.93749 0.32539,-13.97084 2.83741,-17.73112 5.29034,-7.91915 8.87793,-8.83027 31.53759,-8.00945 37.62621,1.36297 45.70909,0.77671 50.625,-3.67192 3.17239,-2.87082 18.46535,-10.69098 20.9071,-10.69098 1.62574,0 17.89419,-12.32573 24.53056,-18.58548 2.64695,-2.49674 8.36574,-9.06037 12.7084,-14.58585 4.34268,-5.52549 11.27237,-12.69915 15.39934,-15.94147 6.26669,-4.92339 7.98375,-7.152 10.41659,-13.51994 1.60215,-4.19364 5.44426,-10.57285 8.53801,-14.17604 15.24371,-17.75384 29.63791,-36.81697 53.1708,-70.41739 5.91336,-8.44313 13.58473,-18.75555 17.04746,-22.91645 7.69652,-9.2483 19.24128,-24.99995 26.92205,-36.73238 3.15055,-4.8125 8.93239,-12.6875 12.84852,-17.5 3.91612,-4.8125 7.77068,-9.97865 8.5657,-11.48033 0.84448,-1.59512 1.44547,-8.52964 1.44547,-16.67862 0,-13.45012 -0.24419,-14.71432 -6.83671,-35.39468 -8.92558,-27.99905 -10.44311,-34.09312 -12.03297,-48.32137 -1.47154,-13.16949 -2.83073,-16.09614 -12.69557,-27.33649 -7.33665,-8.35966 -9.76137,-12.86104 -15.51014,-28.79384 -2.38032,-6.59707 -7.01491,-17.05717 -10.29908,-23.24467 -3.28419,-6.1875 -7.30905,-14.625 -8.94415,-18.75 -1.6351,-4.125 -5.60737,-12.28125 -8.82727,-18.125 -3.2199,-5.84375 -7.11172,-14.84375 -8.64851,-20 -7.3602,-24.69509 -8.77032,-27.67989 -17.42116,-36.875 -4.52764,-4.8125 -10.991,-12.40625 -14.36305,-16.875 -3.37204,-4.46875 -8.84008,-11.04445 -12.15119,-14.61268 -3.31111,-3.56822 -6.0202,-7.01845 -6.0202,-7.66716 0,-1.54321 -10.30713,-16.64189 -16.78534,-24.58845 -9.04552,-11.09579 -29.83867,-32.50998 -39.46466,-40.64336 -5.15625,-4.35674 -13.3125,-11.74597 -18.125,-16.42052 -4.8125,-4.67455 -13.25,-11.82371 -18.75,-15.88702 -10.06755,-7.43774 -18.52765,-14.47101 -34.06744,-28.3219 -4.63791,-4.13385 -12.63592,-10.0401 -17.77337,-13.125 l -9.34081,-5.60891 -28.15919,0 c -27.17824,0 -28.29618,0.0977 -32.09164,2.80501 -2.16285,1.54276 -6.10035,3.25301 -8.75,3.80056 -6.67751,1.37993 -8.12204,5.78384 -7.13276,21.74546 1.13226,18.2685 0.11562,22.7178 -6.70538,29.34708 -3.13495,3.04682 -9.25496,7.2018 -13.60004,9.23329 -7.33021,3.42715 -8.91833,3.68851 -22.01475,3.62305 -16.13437,-0.0806 -19.79106,-1.10395 -28.7821,-8.05445 -13.88504,-10.7338 -19.65431,-17.20715 -25.066,-28.125 -4.77567,-9.63474 -5.81602,-10.88415 -11.16232,-13.40557 -4.29284,-2.02457 -6.58685,-4.13511 -8.4375,-7.7627 -4.66733,-9.14872 -2.90514,-12.58173 6.4583,-12.58173 3.3,0 6,-0.3674 6,-0.81645 0,-0.44904 -1.63929,-4.28599 -3.64285,-8.52654 -3.39704,-7.18984 -9.57702,-30.28295 -10.37852,-38.78201 l -0.35363,-3.75 -11.875,-0.67265 c -13.03615,-0.73842 -18.21961,-2.6911 -22.27979,-8.39309 -5.60917,-7.87736 -12.4745,-22.72846 -13.30784,-28.78755 -0.67468,-4.9055 -1.99113,-7.68588 -5.57929,-11.78358 -6.68158,-7.63038 -7.58308,-9.84772 -7.58308,-18.65127 0,-6.39598 0.59502,-8.6861 3.25358,-12.5224 3.75954,-5.42502 18.27276,-16.38887 27.37103,-20.67714 3.43771,-1.6203 8.50039,-4.16154 11.25039,-5.64722 11.66918,-6.30422 37.21138,-18.4901 38.75616,-18.4901 0.92236,0 3.3656,-1.42084 5.42941,-3.157421 2.0638,-1.736582 5.62259,-3.794007 7.9084,-4.572056 5.52996,-1.882296 15.55003,-10.30825 19.27434,-16.207939 3.87927,-6.145171 7.37825,-8.346094 16.74069,-10.5302 4.20197,-0.980255 9.44018,-2.71975 11.64047,-3.865545 4.29875,-2.238565 11.44505,-3.99608 32.12553,-7.90075 10.17126,-1.920431 18.50481,-2.482396 37.03034,-2.497106 19.15553,-0.01521 24.99212,-0.429414 29.375,-2.084644 3.82215,-1.443465 10.96891,-2.236201 23.72686,-2.631845 l 18.25721,-0.566181 6.27655,-6.430656 c 3.4521,-3.536862 9.80989,-10.227531 14.12843,-14.868156 l 10.29089,-4.7789638 10.33479,-3.6585366 c 9.61308,-3.4030512 13.1094,0.4043586 14.43782,2.0049929 2.05713,2.4787005 3.38085,11.6920805 4.43078,30.8394095 l 0.80713,14.719402 4.5146,3.559775 c 7.46096,5.882988 13.07057,8.866809 16.67897,8.871748 1.8779,0.0026 5.8154,1.724752 8.75,3.827074 17.37999,12.450878 34.82548,23.333357 49.08563,30.619568 8.9375,4.56661 23.16092,12.2658 31.6076,17.1093 8.44669,4.84351 21.10294,11.14482 28.125,14.0029 16.62389,6.76616 23.13131,10.23634 35.2674,18.8068 16.41148,11.58971 26.06234,17.75185 29.375,18.75611 1.71875,0.52105 6.5,3.2767 10.625,6.12365 9.10677,6.28524 25.59885,13.92685 35.33089,16.3706 3.94301,0.9901 15.70922,2.35158 26.14715,3.0255 21.95344,1.41742 58.66074,8.37728 69.52605,13.18244 3.80561,1.68301 10.41285,3.96531 14.68275,5.07175 4.269897,1.10644 13.461967,4.72626 20.426847,8.04404 6.96487,3.31779 14.90731,6.65529 17.64986,7.41666 3.54756,0.98488 61.0752401,1.388 199.361453,1.39706 185.86783,0.0125 195.09673,0.11888 210.86523,2.43887 24.9375,3.66893 31.7048,5.05225 36.5668,7.47468 2.4436,1.21752 8.943,2.91533 14.443,3.77294 17.4555,2.7218 26.2258,4.66483 30.1007,6.66864 6.5906,3.4081 74.3785,19.46054 99.8993,23.65652 4.125,0.67822 9.75,2.03237 12.5,3.00925 2.75,0.97688 13.1562,2.91157 23.125,4.2993 12.0188,1.67314 20.4411,3.55227 25,5.57785 3.7812,1.68008 10.5312,3.93172 15,5.00363 12.2763,2.94471 14.2902,3.93841 32.3091,15.94206 9.1762,6.11295 19.371,11.9124 22.6551,12.88765 3.284,0.97526 11.8074,4.36196 18.9409,7.52603 7.1334,3.16406 18.9472,7.88606 26.253,10.49333 13.7461,4.90574 18.2612,7.20908 23.5919,12.03492 1.7187,1.556 9.0887,5.8585 16.3777,9.56111 10.6256,5.39751 15.3336,8.74154 23.75,16.86926 5.7735,5.57549 12.7911,11.79145 15.5946,13.81325 5.0962,3.67505 12.2263,12.52976 15.78,19.59693 34.0038,67.61993 36.3282,71.58761 50.7189,86.57578 4.9826,5.18957 10.8946,9.92149 14.5226,11.62385 3.3654,1.57917 8.6455,5.32674 11.7335,8.32794 3.088,3.0012 7.4949,6.24239 9.793,7.20264 6.9605,2.90824 28.2549,18.93752 33.9904,25.58616 7.4115,8.59131 8.0341,13.21209 2.6124,19.38708 l -4.1409,4.71631 -13.8036,-0.59914 c -11.0703,-0.4805 -16.2491,-1.39792 -26.1534,-4.63306 -6.7924,-2.21865 -15.3745,-4.82173 -19.0711,-5.7846 -3.6968,-0.96288 -9.9519,-3.36703 -13.9003,-5.34255 -3.9483,-1.97553 -9.4288,-4.30968 -12.1788,-5.18699 -10.2544,-3.27141 -24.2465,-11.37136 -40.813,-23.62624 -9.3847,-6.9422 -17.3793,-12.62218 -17.7659,-12.62218 -0.3866,0 -3.0791,3.51562 -5.9833,7.8125 -11.3717,16.82531 -58.0381,65.3387 -71.4943,74.32411 -10.9203,7.292 -14.5994,12.47731 -19.4208,27.37161 -3.0662,9.47263 -3.895,14.20904 -3.8846,22.20398 0.012,10.01066 0.092,10.26753 5.3125,17.15908 9.9101,13.08354 25.256,28.90394 44.6744,46.05594 10.6562,9.41253 21.0625,18.18113 23.125,19.48579 2.0625,1.30466 6.4106,4.71809 9.6623,7.5854 3.2518,2.86731 8.8768,6.74524 12.5,8.61762 3.6233,1.87239 7.7127,4.32788 9.0877,5.45665 1.375,1.12878 5.2066,3.41452 8.5146,5.07943 7.0852,3.56597 15.6035,12.61427 19.7676,20.99784 2.7901,5.61741 2.9923,7.54626 3.3775,32.22505 0.2254,14.4375 0.036,30.87073 -0.421,36.51831 -0.8289,10.2451 -0.8487,10.29175 -8.7795,20.625 -9.1032,11.86116 -16.2022,28.3611 -18.0619,41.98086 -0.629,4.6067 -2.5788,15.36144 -4.333,23.89941 -1.7541,8.53797 -3.1893,17.21064 -3.1893,19.2726 0,2.06198 -0.6274,7.35143 -1.3942,11.75435 -1.1117,6.38482 -2.3668,9.12939 -6.2,13.55819 -2.6432,3.05408 -5.7258,7.49138 -6.8501,9.86066 -4.7927,10.10002 -22.5881,14.24953 -65.7664,15.33563 -24.8681,0.6254 -25.999,0.5488 -30.1963,-2.0453 -3.1722,-1.96046 -7.2033,-2.88791 -14.7894,-3.40261 -20.1429,-1.36665 -21.8974,-3.22879 -23.3985,-24.83528 l -0.7801,-11.22816 -3.4519,3.72816 c -1.8985,2.0505 -4.3339,6.25943 -5.4119,9.35318 -1.078,3.09375 -3.0157,7.875 -4.306,10.625 -1.2902,2.75 -2.9849,7.13415 -3.7657,9.74256 -0.7809,2.6084 -3.2792,7.17855 -5.5519,10.15595 -2.2726,2.9773 -4.8423,6.7494 -5.7104,8.3824 -3.6926,6.9465 -14.4307,17.5539 -22.2975,22.0262 l -8.2547,4.6929 -50,-0.3787 -50,-0.3786 -3.1934,-3.0589 c -2.7113,-2.597 -4.4098,-3.0595 -11.25,-3.0635 -5.8453,0 -9.18,-0.6896 -12.1494,-2.5 -2.8569,-1.7418 -6.2974,-2.4953 -11.3939,-2.4953 -5.5113,0 -8.1147,-0.6399 -10.6197,-2.6104 -6.0779,-4.7809 -7.0186,-8.3338 -7.0186,-26.5088 0,-22.64946 -1.7732,-21.30073 29.1901,-22.20421 26.1281,-0.7624 28.5776,-1.30075 42.1726,-9.26859 4.1663,-2.4417 10.2045,-5.02606 13.4185,-5.743 3.2141,-0.71694 7.25,-2.24346 8.9688,-3.39226 1.7187,-1.14882 7.9062,-4.55428 13.75,-7.5677 5.8437,-3.01344 11.513,-6.26109 12.5983,-7.21702 1.0854,-0.95592 2.5222,-1.73803 3.1929,-1.73803 0.6706,0 3.8803,-1.6875 7.1324,-3.75 3.2522,-2.0625 7.1275,-3.75 8.6115,-3.75 1.629,0 5.3271,-2.71409 9.3316,-6.84845 l 6.6333,-6.84845 0,-8.99098 c 0,-6.78245 -0.804,-11.00059 -3.273,-17.17221 -1.8002,-4.49968 -4.3953,-13.82506 -5.7668,-20.72308 -1.3716,-6.89801 -3.6244,-14.76477 -5.0061,-17.48171 -1.3819,-2.71692 -3.5706,-8.01572 -4.8641,-11.77511 -1.2934,-3.75939 -3.6872,-9.13019 -5.3193,-11.93513 -1.6322,-2.80493 -3.3906,-7.06863 -3.9074,-9.47488 -0.5168,-2.40625 -3.1813,-9.15625 -5.9212,-15 -2.7398,-5.84375 -6.3265,-13.6571 -7.9706,-17.363 -1.644,-3.7059 -4.924,-9.43119 -7.2889,-12.72285 -5.5041,-7.66147 -9.223,-15.04659 -16.0834,-31.93957 -3.0375,-7.47977 -7.9445,-18.94333 -10.9044,-25.47458 -5.2831,-11.65782 -5.3832,-12.13153 -5.4757,-25.90058 -0.084,-12.56417 -0.371,-14.30269 -2.7514,-16.68507 -1.4615,-1.46272 -3.9927,-2.68738 -5.625,-2.72147 -4.8734,-0.10175 -18.8444,4.06862 -24.4404,7.29554 -2.8723,1.65636 -6.425,3.01158 -7.8946,3.01158 -1.4696,0 -3.8036,0.60558 -5.1866,1.34576 -9.9873,5.34497 -7.7695,5.26771 -164.1961,5.72034 -81.81253,0.23672 -150.58152,0.73857 -152.82001,1.1152 -4.92467,0.82858 -7.05665,5.07198 -8.13605,16.1937 -0.40033,4.125 -1.9967,10.875 -3.54746,15 -2.72482,7.24801 -2.8486,9.45291 -3.68371,65.625 -0.87674,58.97126 -1.52498,67.44881 -5.926033,77.5 -1.67735,3.83076 -2.69657,9.76522 -3.19527,18.60476 -0.63641,11.28032 -1.30206,14.22624 -5.08396,22.5 -6.42005,14.04527 -10.82804,25.20067 -11.91168,30.14524 -1.51117,6.89528 -5.22396,13.91937 -10.44632,19.76298 -2.64835,2.96339 -5.58728,7.23588 -6.53097,9.4944 -0.94367,2.25854 -4.1292,7.14645 -7.07895,10.86203 -8.48642,10.68971 -11.08497,17.44317 -12.39398,32.2112 -0.69,7.7844 -1.9542,14.3198 -3.16725,16.3733 -2.83498,4.7992 -12.53695,10.8073 -19.20339,11.892 -3.09375,0.5034 -8.6962999,1.7002 -12.4501299,2.6597 -3.75381,0.9594 -11.52865,1.7444 -17.2774101,1.7444 -8.75416,0 -11.30077,0.488 -15.67487,3.0036 -8.21177,4.7228 -33.59793,7.4233 -38.97259,4.1459 z M 671.03406,943.73527 c 2.5729,-2.32836 17.9119,-11.21187 24.1031,-13.95911 3.822,-1.69597 4.9371,-3.02989 6.0216,-7.20305 0.732,-2.8169 1.891,-7.28199 2.5755,-9.92242 0.6845,-2.64043 3.4967,-7.244 6.2492,-10.23015 4.1937,-4.54977 5.1781,-6.65673 6.0755,-13.00518 0.6232,-4.40987 2.1556,-8.95492 3.6666,-10.87591 4.5487,-5.78279 3.4671,-24.36579 -2.6561,-45.63278 -1.8032,-6.2622 -8.6279,-12.73648 -21.9709,-20.84237 -6.0588,-3.68074 -28.1725,-13.65023 -35.0635,-15.80756 l -2.9113,-0.91145 0.4113,30.56066 0.4114,30.56065 6.5351,9.71115 c 3.5944,5.34112 6.8814,11.5565 7.3045,13.81194 1.295,6.90262 -0.169,18.27852 -3.5006,27.20076 -3.478,9.31472 -6.1723,13.00359 -11.0428,15.11932 -3.4726,1.50848 -17.3755,15.88569 -19.7794,20.45422 l -1.4798,2.8125 16.5081,0 c 12.785,0 16.9669,-0.41525 18.5425,-1.84122 z M -698.48611,266.1972 c 2.53711,-1.06008 5.32504,-3.47904 6.39551,-5.54913 1.04377,-2.0184 2.95309,-4.40901 4.24294,-5.31246 1.29676,-0.90829 2.7377,-3.96592 3.2232,-6.83956 0.98114,-5.80729 3.54058,-8.73279 8.19589,-9.36809 2.54484,-0.3473 3.20102,-1.22499 3.5345,-4.72762 0.22522,-2.36564 1.49484,-5.68094 2.82137,-7.36737 2.38328,-3.02983 2.38299,-3.11225 -0.0237,-6.94883 -3.37143,-5.37448 -12.38522,-8.77747 -18.64452,-7.0389 -2.50944,0.69702 -9.4845,1.27045 -15.50013,1.27427 l -10.93747,0.007 0.0214,13.4375 c 0.0263,16.5386 2.8899,29.07831 8.14416,35.6634 2.0402,2.55696 3.78139,4.64903 3.86931,4.64906 0.0879,2e-5 2.18384,-0.84564 4.65761,-1.87925 z"
       id="path3358"
       style="fill:#000000" />
  </g>
</svg>
