<?xml version="1.0" encoding="UTF-8" standalone="no"?>
<!-- Created with Inkscape (http://www.inkscape.org/) -->

<svg
   xmlns:svg="http://www.w3.org/2000/svg"
   xmlns="http://www.w3.org/2000/svg"
   version="1.1"
   width="138.05045"
   height="124.25859"
   id="svg2">
  <defs
     id="defs4" />
  <g
     transform="translate(-301.14282,-529.85584)"
     id="layer1">
    <rect
       width="154.4959"
       height="70.508194"
       rx="36.292187"
       ry="35.254097"
       x="-154.84171"
       y="658.61188"
       transform="matrix(0.78370977,-0.6211272,0.6211272,0.78370977,0,0)"
       id="rect2996"
       style="fill:#ffffff;stroke:#000000;stroke-width:2;stroke-miterlimit:4;stroke-dasharray:none" />
    <path
       d="m 319.78969,591.37901 c -15.04325,11.92249 -18.34694,32.64642 -7.42024,46.43322 10.92669,13.7868 31.83798,15.27933 46.88123,3.35685 l 28.40948,-22.51587 c -0.0604,-0.18661 -0.15293,-0.36614 -0.20244,-0.55729 -0.46454,-1.7937 -0.21865,-3.36052 -0.0913,-4.59295 0.12735,-1.23243 0.17384,-2.09007 -0.11384,-2.86048 -0.0836,-0.22394 -1.04991,-0.99267 -2.71965,-1.87187 -1.0665,-0.56156 -2.32687,-1.19493 -3.51404,-2.11951 -2.32305,0.47236 -4.82906,-0.35754 -6.40227,-2.34255 -2.16994,-2.73793 -1.75971,-6.66748 0.85578,-8.93226 -0.4325,-1.29164 -0.89131,-2.44476 -1.49328,-3.24257 -0.71102,-0.94237 -1.75851,-1.67485 -2.99049,-2.41483 -4.79172,2.49236 -10.82579,1.33341 -14.30538,-3.05698 -3.94495,-4.97756 -3.10786,-12.21068 1.8697,-16.15563 0.0163,-0.0129 0.0326,-0.026 0.049,-0.0388 -0.87405,-0.33932 -1.85285,-0.7062 -2.98072,-1.34596 -1.16787,-0.66247 -2.56913,-1.70164 -3.55246,-3.32517 l -32.27905,25.58267 z"
       id="path3785"
       style="fill:#000000;stroke:#000000;stroke-width:2;stroke-linejoin:round;stroke-miterlimit:4;stroke-dasharray:none" />
    <path
       d="m 355.25256,563.27301 c 0.50018,1.16945 1.27745,1.78725 2.32688,2.38252 1.01263,0.5744 2.18617,0.89786 3.54127,1.49982 0.65067,0.28904 1.32885,0.66731 2.00056,1.1658 4.18734,-0.96009 8.74116,0.46373 11.58729,4.05484 3.50625,4.42403 3.20933,10.6078 -0.38917,14.70312 1.00686,0.70291 1.98533,1.5458 2.8283,2.663 0.95605,1.26699 1.55669,2.66978 2.04093,4.08451 2.08932,-0.16799 4.21653,0.64123 5.61621,2.40728 1.92317,2.42657 1.83832,5.80323 -0.0272,8.11612 0.50816,0.30244 1.05161,0.58129 1.61144,0.87607 1.6856,0.88755 3.72666,1.72704 4.58395,4.02291 0.65322,1.74935 0.50741,3.35802 0.37412,4.64792 -0.0755,0.73024 -0.13171,1.36087 -0.13575,1.94181 l 29.34014,-23.25345 c 15.04324,-11.92248 18.34185,-32.60251 7.41516,-46.38931 -10.9267,-13.78681 -31.83291,-15.32324 -46.87615,-3.40075 l -25.83793,20.47779 z"
       id="rect3766"
       style="fill:#000000;stroke:#000000;stroke-width:2;stroke-linejoin:round;stroke-miterlimit:4;stroke-dasharray:none" />
    <path
       d="m 385.27937,579.6275 a 11.184762,11.303749 0 1 1 -22.36953,0 11.184762,11.303749 0 1 1 22.36953,0 z"
       transform="matrix(0.80579831,-0.63863343,0.63191097,0.79731622,-317.51559,387.68337)"
       id="path3770"
       style="fill:#333333;stroke:#000000;stroke-width:1.95549536;stroke-linecap:butt;stroke-linejoin:miter;stroke-miterlimit:4;stroke-opacity:1;stroke-dasharray:none;stroke-dashoffset:0" />
  </g>
</svg>
