<?xml version="1.0" encoding="UTF-8" standalone="no"?>
<!-- Created with Inkscape (http://www.inkscape.org/) -->

<svg
   xmlns:svg="http://www.w3.org/2000/svg"
   xmlns="http://www.w3.org/2000/svg"
   version="1.0"
   width="2000pt"
   height="675pt"
   viewBox="0 0 2000 675"
   id="svg2">
  <defs
     id="defs12" />
  <g
     transform="matrix(0.1,0,0,-0.1,0,675)"
     id="g6"
     style="fill:#000000;stroke:none">
    <path
       d="m 16670,6193 c -72,-13 -249,-78 -355,-130 -364,-182 -436,-219 -619,-322 -289,-163 -414,-204 -661,-217 -77,-4 -151,-11 -165,-16 -14,-5 -120,-14 -237,-19 -193,-9 -229,-8 -385,11 -224,27 -408,53 -641,91 -103,16 -272,38 -375,49 -103,11 -255,27 -337,36 -148,17 -156,17 -505,-10 -1023,-77 -1361,-115 -2115,-244 -33,-6 -134,-29 -225,-51 -402,-101 -954,-230 -1230,-290 -129,-27 -309,-66 -400,-86 -388,-84 -383,-83 -1200,-215 -173,-28 -356,-57 -406,-65 -108,-18 -758,-21 -939,-5 -60,5 -173,14 -250,20 -170,12 -200,15 -485,40 -479,42 -608,50 -990,61 -513,15 -744,9 -1085,-30 -365,-42 -455,-60 -697,-141 -408,-138 -488,-173 -650,-287 -82,-57 -108,-85 -108,-117 0,-17 5,-18 60,-12 58,7 82,15 190,64 89,40 308,114 478,162 150,43 279,67 498,95 28,3 230,-1 450,-10 377,-15 418,-19 749,-65 193,-28 420,-59 505,-69 96,-13 199,-33 270,-54 63,-19 196,-58 295,-87 99,-29 232,-70 295,-91 63,-21 140,-45 170,-53 30,-8 109,-31 175,-51 116,-35 347,-90 585,-140 63,-13 194,-42 291,-64 166,-37 401,-73 940,-141 130,-16 278,-36 328,-44 51,-9 219,-27 374,-41 155,-14 345,-32 422,-40 77,-9 262,-29 410,-45 394,-42 583,-53 809,-47 l 199,5 31,-35 c 51,-57 163,-110 408,-193 128,-43 278,-95 333,-114 55,-20 102,-36 105,-36 3,-1 -24,-11 -60,-24 -127,-44 -218,-117 -287,-231 -20,-33 -74,-117 -120,-187 -46,-71 -83,-132 -83,-138 0,-14 -198,-248 -245,-289 -22,-20 -66,-61 -98,-93 -32,-32 -65,-58 -73,-58 -21,0 -124,-99 -124,-119 0,-19 -33,-76 -64,-111 -13,-14 -40,-68 -61,-120 -36,-90 -39,-103 -44,-233 -6,-134 -7,-138 -31,-150 -15,-8 -30,-28 -37,-51 -7,-21 -32,-54 -55,-75 -24,-22 -38,-43 -34,-49 9,-15 71,-16 98,-1 11,6 22,8 25,5 3,-3 -15,-47 -41,-99 -25,-52 -46,-107 -46,-123 0,-36 32,-90 59,-99 11,-3 31,-25 45,-48 32,-52 66,-91 95,-107 12,-6 31,-32 42,-58 25,-58 32,-63 94,-61 28,1 61,-1 75,-5 14,-3 95,-8 180,-10 169,-4 245,-14 303,-40 38,-17 39,-17 44,4 5,17 11,20 31,15 54,-14 78,-15 92,-6 12,8 12,13 0,37 -24,43 -91,115 -119,126 -73,29 -180,48 -270,48 -165,0 -206,22 -260,139 l -31,67 20,173 c 37,325 65,416 159,516 45,48 76,101 86,146 18,83 71,154 182,246 12,10 50,42 85,72 80,67 322,183 494,235 65,21 133,43 149,51 17,7 56,25 88,39 32,15 88,37 125,50 37,13 110,44 162,70 96,46 141,88 180,166 6,14 42,78 78,142 76,132 69,128 206,128 107,0 142,-17 167,-84 10,-26 24,-56 32,-65 21,-23 74,-133 113,-232 40,-102 50,-193 60,-514 7,-212 8,-222 33,-268 14,-27 34,-53 43,-58 10,-5 37,-30 62,-54 59,-60 138,-100 227,-115 118,-20 210,-50 236,-78 13,-14 28,-43 34,-66 15,-57 23,-71 45,-74 64,-10 64,-10 64,-62 0,-27 5,-52 11,-55 15,-10 57,33 64,66 4,16 10,29 14,29 17,0 40,-27 43,-50 3,-29 66,-68 111,-69 22,-1 27,-6 27,-26 0,-16 10,-31 28,-42 15,-10 36,-26 46,-35 11,-10 29,-18 41,-18 27,0 52,-20 57,-44 2,-11 21,-25 52,-37 28,-10 55,-24 62,-31 26,-28 64,-110 64,-138 0,-43 27,-38 47,7 11,28 14,60 11,120 -2,46 -4,83 -2,83 1,0 18,-7 39,-16 23,-9 48,-13 67,-9 27,6 36,1 95,-60 58,-60 67,-66 76,-50 15,28 1,148 -23,195 -12,23 -37,50 -56,62 -18,11 -34,24 -34,29 0,5 -12,9 -28,9 -44,0 -90,17 -123,44 -17,14 -39,26 -50,26 -32,0 -96,47 -107,78 -6,17 -31,50 -57,73 -49,45 -125,151 -125,173 0,38 -43,66 -150,100 -380,120 -499,183 -541,284 -12,30 -28,56 -36,59 -16,6 -13,66 13,208 7,44 21,122 29,173 16,95 58,227 139,437 72,183 24,162 383,170 342,7 449,15 570,41 78,18 82,18 101,0 11,-10 53,-88 92,-174 71,-157 115,-237 197,-364 24,-37 43,-71 43,-76 0,-5 6,-15 14,-21 18,-15 56,2 56,24 0,27 15,16 34,-25 20,-42 44,-51 66,-25 7,9 19,14 25,11 21,-8 36,9 39,45 2,19 8,46 14,61 18,44 -3,93 -64,150 l -54,52 0,95 c 0,68 -6,113 -20,155 -30,89 -27,107 22,136 23,14 78,58 122,98 48,43 106,85 141,101 75,35 271,167 442,298 86,66 132,116 181,198 28,48 38,75 78,213 17,61 19,64 68,86 28,13 92,43 141,66 50,23 140,58 200,77 110,35 216,73 330,119 33,13 119,60 190,105 227,140 326,175 402,142 63,-27 384,-133 402,-133 41,0 322,-88 416,-130 33,-15 85,-43 115,-62 99,-64 142,-81 189,-79 61,3 125,36 118,62 -3,10 -2,21 2,24 11,6 -1,66 -19,93 -8,12 -23,22 -33,22 -10,0 -20,6 -23,14 -4,11 -20,14 -60,11 -51,-2 -54,-1 -54,20 0,37 -11,55 -31,55 -11,0 -22,7 -26,16 -4,10 -13,14 -29,10 -12,-3 -26,-2 -29,4 -3,5 -16,10 -29,10 -18,0 -24,8 -32,38 -7,27 -15,38 -31,40 -13,2 -23,-1 -23,-7 0,-19 -15,-12 -25,12 -7,16 -18,21 -37,20 -19,-1 -29,4 -33,19 -5,15 -13,18 -30,14 -17,-4 -25,-1 -29,11 -6,18 -49,43 -73,43 -8,0 -16,7 -20,16 -4,11 -14,14 -32,11 -22,-5 -32,2 -63,45 -52,69 -58,108 -24,159 22,32 44,48 113,80 70,32 92,38 124,33 21,-4 44,-13 50,-20 6,-8 17,-14 23,-14 6,0 17,-9 24,-20 7,-11 18,-17 27,-14 9,4 18,-1 21,-11 5,-12 14,-15 30,-11 17,5 24,2 24,-9 0,-17 23,-20 50,-5 15,8 19,5 24,-15 5,-18 13,-25 31,-25 14,0 25,-4 25,-10 0,-5 11,-10 25,-10 20,0 25,-5 25,-25 0,-20 5,-25 24,-25 13,0 34,8 47,19 24,19 61,17 53,-3 -3,-7 3,-19 12,-27 14,-11 22,-10 54,8 33,18 40,18 44,6 4,-10 14,-13 31,-9 14,4 25,2 25,-4 0,-15 43,-12 66,5 10,8 29,15 41,15 12,0 24,4 27,9 3,4 19,11 35,14 19,4 36,18 51,42 12,19 28,35 36,35 20,0 29,44 28,147 0,72 -4,97 -17,111 -9,10 -17,27 -17,36 0,10 -6,30 -14,44 -18,36 -37,91 -43,125 -3,16 -12,31 -19,34 -8,3 -14,9 -14,15 0,18 -95,105 -123,112 -15,4 -31,14 -34,24 -3,9 -15,29 -25,43 -17,26 -37,32 -138,42 -14,1 -35,12 -47,24 -12,12 -39,25 -60,29 -21,4 -49,15 -62,25 -15,12 -40,19 -66,19 -29,0 -45,5 -49,15 -3,8 -14,15 -24,15 -11,0 -25,7 -32,15 -7,8 -19,15 -26,15 -17,0 -82,36 -109,60 -29,26 -63,34 -126,31 -48,-2 -68,3 -125,32 -38,19 -80,38 -94,42 -14,4 -56,23 -95,41 -69,33 -72,34 -195,33 -69,-1 -136,-4 -150,-6 z"
       id="path8" />
  </g>
</svg>
