<?xml version="1.0" encoding="UTF-8" standalone="no"?>
<!-- Created with Inkscape (http://www.inkscape.org/) -->

<svg
   xmlns:svg="http://www.w3.org/2000/svg"
   xmlns="http://www.w3.org/2000/svg"
   version="1.1"
   width="3168"
   height="2376"
   viewBox="0 0 3168 2376"
   id="Layer_1"
   xml:space="preserve"><defs
   id="defs11" />
<g
   id="g3">
	<path
   d="m 1835.081,1406.521 c -167.28,0 -334.561,0 -501.841,0 0,-145.76 0,-291.521 0,-437.28 167.28,0 334.561,0 501.841,0 0,145.759 0,291.52 0,437.28 z m -327.749,-78.695 c -0.092,0.046 0.01,-0.027 0.116,-0.056 5.401,-1.4 9.18,-4.851 11.53,-9.737 1.966,-4.09 3.51,-8.385 5.191,-12.607 0.289,-0.726 0.575,-1.113 1.43,-1.29 1.229,-0.254 2.518,-0.65 3.547,-1.337 1.651,-1.1 3.136,-2.458 4.645,-3.761 1.54,-1.329 2.913,-2.991 4.99,-3.403 3.05,-0.604 5.614,-1.941 7.781,-4.161 1.03,-1.054 2.356,-1.382 3.861,-1.185 1.057,0.139 2.2,0.258 3.208,0 3.276,-0.826 6.401,-1.995 8.678,-4.729 1.196,-1.437 2.777,-1.819 4.553,-1.245 1.062,0.343 2.093,0.777 3.15,1.135 1.302,0.439 2.608,0.645 4.062,-0.143 -0.526,-0.68 -1.021,-1.242 -1.417,-1.867 -0.188,-0.298 -0.376,-0.863 -0.232,-1.043 0.22,-0.276 0.759,-0.493 1.104,-0.429 0.563,0.105 1.143,0.375 1.605,0.723 1.286,0.966 2.661,1.045 4.083,0.493 0.961,-0.373 1.906,-0.826 2.788,-1.36 1.4,-0.848 2.74,-1.796 4.109,-2.695 2.161,-1.419 4.517,-2.012 7.079,-1.556 3.864,0.688 7.525,0.465 10.894,-1.878 1.447,-1.006 3.186,-1.06 4.954,-1.046 2.015,0.017 4.037,-0.278 6.048,-0.513 1.934,-0.226 3.852,-0.704 5.786,-0.772 1.374,-0.048 2.733,0.506 4.012,-0.566 0.349,-0.293 1.203,-0.224 1.713,-0.027 0.917,0.352 1.863,0.795 2.591,1.435 1.588,1.396 3.113,2.877 4.546,4.433 3.741,4.064 7.509,8.079 12.146,11.176 1.116,0.746 2.127,1.707 3.021,2.715 9.22,10.391 19.097,20.117 29.415,29.411 3.585,3.229 7.407,6.172 10.763,9.696 3.179,3.341 6.816,6.271 10.417,9.178 6.189,4.995 12.419,9.95 18.796,14.701 7.054,5.255 14.911,8.432 23.899,8.275 1.228,-0.021 1.772,-0.445 1.904,-1.587 0.027,-0.235 0.101,-0.467 0.169,-0.695 0.201,-0.67 0.479,-0.959 1.308,-0.69 0.68,0.22 1.529,0.203 2.229,0.015 1.76,-0.473 3.404,-0.211 5.035,0.447 1.702,0.688 3.379,1.439 5.102,2.07 3.563,1.306 6.903,0.976 9.917,-1.495 0.71,-0.583 1.467,-1.109 2.201,-1.662 1.526,-1.147 3.213,-1.889 5.11,-2.217 1.333,-0.229 2.661,-0.553 3.943,-0.979 1.289,-0.429 1.374,-0.799 0.795,-2.051 -0.067,-0.145 -0.208,-0.285 -0.206,-0.427 0,-0.34 -0.026,-0.746 0.147,-0.993 0.108,-0.155 0.585,-0.159 0.852,-0.079 0.568,0.172 1.091,0.534 1.664,0.638 0.378,0.068 1.034,-0.047 1.185,-0.304 0.88,-1.495 2.277,-2.321 3.71,-3.131 1.007,-0.568 2.055,-1.085 2.996,-1.749 1.58,-1.114 1.566,-1.405 0.185,-2.679 -0.146,-0.136 -0.339,-0.254 -0.419,-0.424 -0.127,-0.271 -0.33,-0.674 -0.223,-0.847 0.151,-0.241 0.585,-0.481 0.853,-0.438 0.653,0.105 1.307,0.318 1.914,0.59 0.852,0.38 1.551,0.454 2.229,-0.366 0.583,-0.704 1.292,-1.307 1.966,-1.933 3.65,-3.395 7.388,-6.663 9.054,-11.67 0.668,-2.006 2.051,-3.777 3.147,-5.633 0.156,-0.263 0.511,-0.493 0.815,-0.567 2.083,-0.507 3.554,-1.812 4.582,-3.603 1.786,-3.111 2.075,-6.397 0.996,-9.475 0.506,-1.081 1.008,-1.895 1.272,-2.779 0.423,-1.417 1.192,-2.498 2.441,-3.278 0.88,-0.55 1.775,-1.096 2.565,-1.759 1.342,-1.128 1.309,-1.747 0.018,-2.877 -0.21,-0.185 -0.536,-0.369 -0.571,-0.591 -0.086,-0.536 -0.241,-1.273 0.028,-1.593 0.242,-0.286 1.021,-0.175 1.554,-0.131 0.238,0.019 0.459,0.298 0.684,0.463 1.19,0.874 1.469,0.84 1.855,-0.616 0.533,-2.002 0.796,-4.079 1.384,-6.063 0.385,-1.299 0.622,-2.289 -1.035,-2.706 -0.116,-0.029 -0.188,-0.233 -0.281,-0.356 0.103,0.021 0.204,0.044 0.306,0.065 0.245,-0.715 0.656,-1.417 0.705,-2.145 0.16,-2.349 0.109,-2.35 2.455,-2.775 0.706,-0.129 1.535,-0.172 1.633,-1.105 0.112,-1.059 0.348,-2.201 0.072,-3.178 -0.304,-1.076 -0.717,-1.96 0.03,-3.025 0.245,-0.352 0.177,-1.037 0.05,-1.517 -0.718,-2.704 -0.033,-5.146 1.333,-7.453 2.361,-3.989 1.426,-10.304 -2.202,-13.697 -1.136,-1.063 -2.333,-2.064 -3.542,-3.045 -2.608,-2.113 -5.243,-4.192 -7.864,-6.291 -1.423,-1.14 -1.712,-2.618 -1.268,-4.313 0.91,-3.47 -0.093,-6.48 -2.315,-9.137 -2.141,-2.558 -5.012,-4.036 -8.067,-5.204 -4.22,-1.614 -8.648,-2.212 -13.1,-2.729 -6.469,-0.753 -12.934,-1.538 -19.395,-2.356 -2.863,-0.363 -5.837,-0.019 -8.57,-1.291 -0.275,-0.128 -0.63,-0.139 -0.944,-0.122 -2.27,0.118 -4.537,0.283 -6.808,0.381 -1.268,0.055 -2.54,0.01 -4.119,0.01 1.85,-1.05 3.885,-0.746 5.29,-2.026 -0.797,0.114 -1.539,0.39 -2.303,0.574 -0.751,0.181 -1.523,0.271 -2.286,0.399 -0.014,-0.074 -0.026,-0.147 -0.039,-0.222 0.604,-0.263 1.206,-0.525 2.127,-0.927 -5.824,-1.063 -10.906,0.986 -16.403,2.103 2.075,-2.552 5.088,-2.926 7.477,-4.487 -1.858,0 -3.571,-0.05 -5.281,0.01 -5.308,0.187 -10.613,0.495 -15.923,0.606 -6.732,0.142 -13.505,-0.847 -20.18,0.878 -0.867,0.225 -1.863,-0.045 -2.799,-0.086 -0,-0.133 -0.01,-0.267 -0.011,-0.4 1.654,-0.521 3.309,-1.042 4.963,-1.563 -11.428,0.849 -22.771,0.522 -34.331,-0.561 2.986,-2.084 3.169,-4.993 2.923,-8.074 2.061,0.01 3.379,-1.17 4.519,-2.534 1.413,-1.691 3.154,-2.226 5.311,-2.131 2.256,0.1 4.55,0.098 6.784,-0.19 4.612,-0.596 8.316,-2.703 10.475,-7.043 0.319,-0.641 0.761,-1.22 1.13,-1.838 1.588,-2.659 3.705,-4.664 6.702,-5.696 1.005,-0.346 2.045,-0.827 2.826,-1.52 0.795,-0.705 1.663,-1.677 1.848,-2.655 0.46,-2.435 1.667,-4.375 3.214,-6.189 1.652,-1.939 2.732,-4.158 2.9,-6.706 0.158,-2.389 0.074,-4.792 0.183,-7.186 0.11,-2.451 0.738,-4.604 2.798,-6.327 2.608,-2.18 4.847,-4.761 6.563,-7.742 2.393,-4.159 3.114,-8.354 0.326,-12.653 -0.139,-0.214 -0.189,-0.695 -0.053,-0.847 1.653,-1.839 1.877,-4.384 3.319,-6.384 2.398,-3.325 1.569,-6.813 -1.779,-9.193 -0.325,-0.231 -0.638,-0.482 -0.966,-0.709 -0.741,-0.512 -0.84,-1.061 -0.409,-1.91 1.046,-2.06 2.006,-4.165 2.925,-6.285 0.687,-1.583 0.535,-3.125 -0.586,-4.503 -1.39,-1.707 -1.411,-3.496 -0.598,-5.498 0.539,-1.326 0.724,-2.795 1.134,-4.473 5.114,-1.222 10.622,-2.521 16.116,-3.877 0.497,-0.123 1.21,-0.534 1.298,-0.929 0.243,-1.093 0.835,-1.036 1.677,-0.912 0.681,0.101 1.519,0.248 2.066,-0.042 3.345,-1.773 6.976,-2.481 10.645,-3.096 3.189,-0.534 6.383,-1.05 9.566,-1.622 0.977,-0.176 1.04,-0.525 0.344,-1.229 -0.315,-0.319 -0.629,-0.638 -0.943,-0.957 0.051,-0.098 0.103,-0.195 0.153,-0.293 0.273,0.049 0.552,0.079 0.819,0.15 1.191,0.319 2.361,0.793 3.573,0.946 2.599,0.328 5.21,0.325 7.606,-0.961 2.092,-1.122 2.191,-3.564 0.185,-4.823 -0.762,-0.479 -1.652,-0.839 -2.532,-1.027 -2.225,-0.477 -4.487,-0.773 -6.712,-1.246 -1.249,-0.266 -2.454,-0.739 -3.836,-1.167 1.051,-1.369 2.219,-1.753 3.489,-1.519 1.444,0.267 2.859,0.718 4.265,1.16 1.649,0.519 3.215,0.652 4.895,-0.065 0.8,-0.342 1.859,-0.215 2.779,-0.106 1.339,0.159 2.651,0.662 3.987,0.716 2.834,0.116 5.686,0.191 8.513,0.01 7.375,-0.482 14.742,-1.091 22.105,-1.722 0.678,-0.058 1.412,-0.525 1.94,-1.002 0.677,-0.612 0.625,-1.221 -0.32,-1.755 -2.991,-1.691 -6.2,-2.775 -9.547,-3.401 -9.656,-1.806 -19.332,-3.512 -28.992,-5.3 -2.453,-0.454 -4.877,-1.066 -7.356,-1.616 0.709,-1.574 1.431,-1.767 3.235,-1.423 1.986,0.379 4.026,0.901 6.009,0.785 4.181,-0.244 8.346,-0.805 12.504,-1.345 4.751,-0.617 9.527,-1.154 14.22,-2.092 4.569,-0.914 9.056,-2.256 13.556,-3.494 0.974,-0.268 1.954,-0.764 2.739,-1.394 0.953,-0.766 1.665,-1.965 1.268,-3.163 -0.387,-1.168 -1.645,-1.539 -2.861,-1.627 -1.553,-0.112 -3.11,-0.178 -4.662,-0.317 -5.607,-0.501 -11.203,-1.288 -16.821,-1.486 -14.218,-0.504 -28.445,-0.75 -42.669,-1.089 -1.473,-0.035 -2.946,-0 -4.42,-0 0,-0.126 -10e-4,-0.252 -0,-0.378 0.145,-0.027 0.289,-0.048 0.432,-0.082 4.876,-1.165 9.869,-1.418 14.826,-1.993 12.87,-1.494 25.232,-5.237 37.607,-8.875 0.336,-0.099 0.822,-0.424 0.853,-0.688 0.099,-0.865 0.723,-0.938 1.327,-1.141 1.398,-0.47 2.832,-0.871 4.17,-1.478 2.388,-1.083 3.995,-2.838 4.437,-5.549 0.139,-0.85 -0.139,-1.24 -0.886,-1.307 -2.3,-0.205 -4.615,-0.586 -6.906,-0.484 -5.827,0.259 -11.646,0.726 -17.465,1.142 -7.215,0.516 -14.431,1.021 -21.64,1.608 -6.651,0.541 -13.298,1.143 -19.938,1.803 -1.81,0.18 -3.698,0.408 -5.35,1.096 -1.5,0.625 -2.937,1.058 -4.502,0.855 -2.981,-0.386 -5.765,0.217 -8.563,1.21 -1.934,0.685 -3.99,1.264 -6.021,1.379 -2.453,0.14 -4.816,0.414 -7.166,1.163 -1.15,0.367 -2.437,0.386 -3.664,0.404 -0.798,0.012 -1.564,-0.312 -1.804,-1.276 1.999,-0.553 3.992,-1 5.915,-1.654 6.836,-2.326 13.633,-4.768 20.471,-7.084 10.279,-3.483 20.638,-6.743 30.856,-10.392 8.336,-2.976 16.229,-6.929 23.313,-12.336 1.321,-1.008 2.855,-1.853 3.027,-3.791 0.012,-0.125 0.149,-0.303 0.269,-0.346 2.312,-0.839 2.215,-3.021 2.634,-4.855 0.286,-1.249 -0.051,-1.641 -1.37,-1.554 -2.663,0.175 -5.374,0.254 -7.958,0.843 -4.588,1.044 -9.064,2.569 -13.643,3.662 -20.399,4.87 -40.585,10.457 -60.335,17.554 -2.02,0.726 -4.074,1.355 -6.116,2.021 -0.92,0.3 -1.865,0.53 -2.764,0.883 -0.975,0.383 -1.869,0.997 -2.863,1.292 -2.474,0.733 -5.028,1.213 -7.47,2.036 -2.793,0.941 -5.474,2.212 -8.254,3.197 -1.223,0.433 -2.57,0.513 -3.86,0.753 -0.029,-0.114 -0.058,-0.229 -0.087,-0.343 0.302,-0.167 0.598,-0.348 0.907,-0.5 3.224,-1.59 6.416,-3.247 9.682,-4.747 5.148,-2.364 10.415,-4.478 15.506,-6.956 8.222,-4.001 16.41,-8.08 24.481,-12.374 6.834,-3.636 13.52,-7.559 20.192,-11.488 2.562,-1.508 4.695,-3.599 6.234,-6.205 1.219,-2.063 1.813,-4.287 1.776,-6.746 -2.921,-0.166 -5.622,0.357 -8.265,1.144 -16.053,4.779 -31.785,10.468 -46.974,17.515 -17.958,8.332 -35.751,17.017 -53.617,25.546 -2.787,1.331 -5.579,2.651 -8.369,3.976 0.343,-0.573 0.775,-0.982 1.249,-1.337 6.369,-4.763 12.692,-9.59 19.131,-14.258 9.158,-6.64 18.476,-13.071 26.774,-20.813 2.71,-2.527 5.109,-5.306 6.415,-8.848 0.719,-1.95 1.06,-3.964 0.704,-6.108 -0.452,0.073 -0.82,0.084 -1.155,0.194 -3.86,1.268 -7.869,2.217 -11.546,3.891 -11.74,5.347 -22.705,12.075 -33.173,19.595 -22.615,16.245 -44.151,33.871 -65.687,51.494 -8.048,6.585 -16.023,13.242 -25.215,18.242 -7.106,3.866 -13.795,8.347 -20.116,13.42 -3.545,2.844 -7.459,5.224 -11.14,7.905 -4.455,3.245 -7.421,7.438 -7.959,13.099 -0.083,0.876 0.038,1.587 0.565,2.339 3.507,5.011 6.958,10.059 9.276,15.771 2.675,6.59 3.842,13.407 2.254,20.399 -0.789,3.475 -2.325,6.781 -3.541,10.157 -0.072,0.2 -0.264,0.404 -0.453,0.508 -2.901,1.588 -6.079,2.384 -9.249,3.203 -0.109,0.028 -0.232,0 -0.348,0.01 -2.857,0.114 -5.594,-0.734 -8.383,-1.051 -5.18,-0.587 -9.6,-2.78 -13.887,-5.467 -0.405,-0.254 -0.819,-0.506 -1.257,-0.695 -1.573,-0.68 -3.141,-1.379 -4.742,-1.986 -3.053,-1.156 -6.167,-2.158 -9.182,-3.401 -3.063,-1.263 -6.159,-2.229 -9.503,-2.155 -3.21,0.071 -6.372,0.66 -9.631,0.458 -2.444,-0.152 -4.947,0.544 -7.414,0.93 -0.427,0.067 -0.811,0.458 -1.197,0.725 -0.255,0.175 -0.452,0.451 -0.723,0.585 -3.537,1.75 -7.09,3.465 -10.618,5.233 -0.707,0.354 -1.361,0.845 -1.968,1.357 -1.127,0.952 -1.553,2.165 -1.65,3.681 -0.09,1.41 -0.334,2.927 -1.543,3.995 -1.452,1.282 -2.877,2.595 -4.328,3.878 -2.948,2.609 -5.393,5.593 -6.325,9.494 -0.525,2.196 -0.73,4.477 -0.959,6.731 -0.081,0.793 0.197,1.622 0.349,2.708 0.662,-0.533 1.192,-0.799 1.49,-1.227 1.137,-1.63 2.769,-2.458 4.563,-3.126 1.418,-0.529 2.8,-1.167 4.16,-1.833 2.725,-1.334 5.545,-1.618 8.518,-1.085 4.87,0.872 9.303,2.846 13.55,5.273 4.403,2.517 8.722,5.184 13.148,7.659 1.536,0.859 3.053,1.54 3.789,3.325 0.321,0.779 1.074,1.377 1.622,2.065 0.285,0.358 0.551,0.733 0.869,1.159 -1.383,0.496 -2.538,0.755 -3.943,0.396 -1.289,-0.33 -2.776,-0.182 -4.118,0.069 -1.793,0.336 -3.52,1.009 -5.293,1.468 -0.646,0.167 -1.344,0.185 -2.017,0.182 -1.953,-0.01 -3.906,-0.084 -5.859,-0.093 -3.465,-0.016 -6.931,-0.01 -10.396,0 -1.794,0 -3.589,0.024 -5.383,0.031 -1.912,0.01 -3.824,-0.029 -5.735,0.014 -2.345,0.053 -4.727,-0.064 -7.021,0.318 -2.408,0.402 -4.646,1.633 -7.189,1.617 -0.667,-0 -1.361,0.409 -2.001,0.716 -0.994,0.478 -1.898,1.273 -2.936,1.504 -3.993,0.887 -7.22,3.107 -9.991,5.893 -3.687,3.705 -7.173,7.62 -10.603,11.568 -4.455,5.128 -8.933,10.246 -12.445,16.115 -4.764,7.961 -10.415,15.18 -17.186,21.598 -4.659,4.416 -8.751,9.431 -13.099,14.175 -7.506,8.191 -15.069,16.333 -22.496,24.596 -3.15,3.505 -6.085,7.217 -8.239,11.46 -2.086,4.108 -2.71,8.312 -0.844,12.698 2.032,4.776 5.993,6.303 10.64,4.033 2.907,-1.42 5.048,-3.716 6.578,-6.466 2.18,-3.92 4.865,-7.569 6.463,-11.808 0.125,-0.331 0.326,-0.646 0.542,-0.928 0.651,-0.849 1.487,-1.271 2.759,-1.061 -0.334,1.756 -0.656,3.447 -0.979,5.14 -0.733,0.601 -1.458,1.299 -1.786,2.149 -0.844,2.195 -1.623,4.429 -2.231,6.699 -2.064,7.695 -3.345,15.492 -2.013,23.463 0.809,4.842 2.682,9.289 6.005,12.985 1.759,1.956 4.033,2.473 6.575,1.78 0.929,-0.253 1.745,-0.548 1.645,-1.799 -0.02,-0.241 0.468,-0.729 0.75,-0.752 1.181,-0.098 2.376,-0.01 3.559,-0.095 0.729,-0.053 0.964,0.206 1.09,0.889 0.795,4.317 1.567,8.642 2.476,12.937 0.82,3.876 1.892,7.693 4.227,10.989 2.671,3.771 6.003,4.363 9.843,1.804 0.496,-0.331 0.995,-0.695 1.388,-1.137 1.887,-2.117 3.753,-4.252 5.594,-6.407 1.055,-1.235 1.512,-2.684 1.44,-4.327 -0.031,-0.705 -0.056,-1.538 0.279,-2.095 0.307,-0.51 1.079,-0.784 1.699,-1.025 0.154,-0.06 0.658,0.364 0.757,0.649 0.976,2.829 1.986,5.651 2.819,8.524 1.5,5.174 2.813,10.402 4.348,15.565 0.809,2.721 2.005,5.3 3.949,7.461 1.592,1.771 3.512,2.288 5.75,1.581 3.942,-1.246 6.614,-3.805 7.734,-7.821 0.449,-1.609 0.688,-3.277 1.005,-4.922 0.53,-2.739 1.002,-5.49 1.584,-8.217 0.323,-1.513 1.62,-0.748 2.485,-0.789 0.206,-0.011 0.498,0.875 0.675,1.375 0.215,0.611 0.264,1.291 0.536,1.869 1.385,2.958 2.904,5.855 4.19,8.854 0.464,1.083 0.2,2.468 0.625,3.578 1.647,4.295 4.17,8.063 7.215,11.508 1.504,1.701 3.199,1.778 4.821,0.749 1.446,-0.917 2.731,-2.194 3.827,-3.527 1.291,-1.57 1.736,-1.502 -0.184,-3.247 -0.233,-0.212 -0.453,-0.461 -0.609,-0.732 -0.578,-1.008 -0.245,-1.679 0.901,-1.63 0.941,0.039 1.872,0.31 2.868,0.488 0.064,-0.183 0.159,-0.397 0.216,-0.623 1.273,-5.012 2.138,-10.089 2.151,-15.271 0.01,-2.917 -0.116,-5.839 -1.649,-8.486 -0.266,-0.46 -0.437,-1.086 -0.378,-1.604 0.289,-2.554 -0.536,-4.879 -1.258,-7.253 -0.402,-1.32 -0.612,-2.721 -0.716,-4.1 -0.035,-0.461 0.441,-1.261 0.839,-1.378 0.483,-0.142 1.316,0.105 1.667,0.487 0.661,0.719 1.118,1.638 1.602,2.505 1.457,2.611 2.876,5.242 4.331,7.854 0.505,0.907 1.089,1.77 1.595,2.676 0.188,0.338 0.402,0.76 0.357,1.112 -0.158,1.229 0.431,2.112 1.104,3.039 0.749,1.032 1.408,2.138 2.022,3.257 1.709,3.115 3.332,6.279 5.07,9.378 1.727,3.078 3.659,6.016 6.515,8.208 2.578,1.979 5.186,1.888 7.589,-0.303 1.822,-1.662 3.07,-3.711 3.579,-6.112 1.176,-5.554 1.23,-11.182 0.917,-16.825 -0.129,-2.325 -0.85,-4.433 -2.022,-6.447 -0.569,-0.979 -0.985,-2.121 -1.149,-3.236 -0.108,-0.731 0.145,-1.988 0.619,-2.217 0.601,-0.291 1.599,0.191 2.407,0.407 0.291,0.077 0.532,0.345 0.793,0.529 1.519,1.075 3.123,1.18 4.746,0.31 2.698,-1.447 4.833,-3.527 6.508,-6.07 0.657,-0.998 0.414,-1.913 -0.598,-2.559 -0.467,-0.299 -1.041,-0.441 -1.484,-0.766 -0.592,-0.433 -1.104,-0.974 -1.685,-1.498 0.847,-0.396 1.417,-0.661 1.986,-0.927 -10e-4,-0.138 -0,-0.274 -0,-0.412 -1.136,-0.659 -2.273,-1.318 -3.628,-2.105 2.986,-2.392 6.013,-0.289 9.039,-0.572 -0.241,-3.573 -0.477,-7.06 -0.721,-10.655 z"
   id="path5"
   style="fill:#ffffff;fill-rule:evenodd" />
	<path
   d="m 1507.332,1327.826 c 0.244,3.595 0.48,7.082 0.722,10.655 -3.026,0.283 -6.053,-1.819 -9.039,0.572 1.355,0.787 2.492,1.446 3.628,2.105 10e-4,0.138 0,0.274 0,0.412 -0.57,0.266 -1.14,0.531 -1.986,0.927 0.581,0.524 1.093,1.065 1.685,1.498 0.444,0.324 1.017,0.467 1.484,0.766 1.012,0.646 1.255,1.561 0.598,2.559 -1.676,2.543 -3.811,4.623 -6.508,6.07 -1.623,0.87 -3.227,0.766 -4.746,-0.31 -0.261,-0.185 -0.502,-0.452 -0.793,-0.529 -0.809,-0.216 -1.806,-0.698 -2.407,-0.407 -0.474,0.229 -0.727,1.485 -0.619,2.217 0.165,1.115 0.58,2.258 1.149,3.236 1.172,2.015 1.893,4.122 2.022,6.447 0.313,5.644 0.259,11.271 -0.917,16.825 -0.509,2.401 -1.756,4.45 -3.579,6.112 -2.403,2.19 -5.011,2.281 -7.589,0.303 -2.856,-2.192 -4.789,-5.13 -6.515,-8.208 -1.738,-3.099 -3.36,-6.263 -5.07,-9.378 -0.614,-1.119 -1.273,-2.225 -2.022,-3.257 -0.673,-0.927 -1.261,-1.81 -1.104,-3.039 0.045,-0.353 -0.169,-0.774 -0.357,-1.112 -0.506,-0.906 -1.09,-1.769 -1.595,-2.676 -1.455,-2.611 -2.874,-5.242 -4.331,-7.854 -0.484,-0.867 -0.941,-1.786 -1.602,-2.505 -0.351,-0.382 -1.184,-0.629 -1.667,-0.487 -0.398,0.117 -0.874,0.917 -0.839,1.378 0.104,1.379 0.314,2.779 0.716,4.1 0.722,2.374 1.547,4.699 1.258,7.253 -0.059,0.519 0.112,1.145 0.378,1.604 1.533,2.647 1.657,5.569 1.649,8.486 -0.013,5.182 -0.877,10.259 -2.151,15.271 -0.057,0.226 -0.152,0.44 -0.216,0.623 -0.996,-0.179 -1.927,-0.449 -2.868,-0.488 -1.146,-0.049 -1.479,0.622 -0.901,1.63 0.156,0.271 0.375,0.521 0.609,0.732 1.92,1.745 1.475,1.677 0.184,3.247 -1.095,1.333 -2.381,2.61 -3.827,3.527 -1.622,1.029 -3.317,0.952 -4.821,-0.749 -3.045,-3.445 -5.568,-7.213 -7.215,-11.508 -0.425,-1.11 -0.161,-2.495 -0.625,-3.578 -1.286,-2.999 -2.805,-5.896 -4.19,-8.854 -0.271,-0.578 -0.32,-1.258 -0.536,-1.869 -0.177,-0.5 -0.469,-1.386 -0.675,-1.375 -0.866,0.041 -2.163,-0.724 -2.485,0.789 -0.583,2.727 -1.055,5.478 -1.584,8.217 -0.317,1.645 -0.557,3.313 -1.005,4.922 -1.12,4.017 -3.792,6.575 -7.734,7.821 -2.239,0.707 -4.159,0.19 -5.75,-1.581 -1.944,-2.161 -3.14,-4.74 -3.949,-7.461 -1.535,-5.163 -2.847,-10.392 -4.348,-15.565 -0.833,-2.873 -1.843,-5.695 -2.819,-8.524 -0.099,-0.285 -0.603,-0.709 -0.757,-0.649 -0.62,0.241 -1.393,0.516 -1.699,1.025 -0.335,0.557 -0.31,1.39 -0.279,2.095 0.072,1.644 -0.385,3.092 -1.44,4.327 -1.841,2.155 -3.708,4.29 -5.594,6.407 -0.393,0.441 -0.892,0.806 -1.388,1.137 -3.84,2.56 -7.172,1.967 -9.843,-1.804 -2.335,-3.296 -3.407,-7.113 -4.227,-10.989 -0.909,-4.295 -1.68,-8.619 -2.476,-12.937 -0.126,-0.683 -0.361,-0.941 -1.09,-0.889 -1.182,0.085 -2.378,-0 -3.559,0.095 -0.282,0.023 -0.77,0.511 -0.75,0.752 0.1,1.251 -0.716,1.546 -1.645,1.799 -2.542,0.692 -4.816,0.176 -6.575,-1.78 -3.323,-3.696 -5.196,-8.144 -6.005,-12.985 -1.332,-7.971 -0.051,-15.768 2.013,-23.463 0.609,-2.271 1.387,-4.504 2.231,-6.699 0.327,-0.851 1.052,-1.549 1.786,-2.149 0.322,-1.692 0.644,-3.384 0.979,-5.14 -1.272,-0.211 -2.108,0.212 -2.759,1.061 -0.217,0.282 -0.417,0.597 -0.542,0.928 -1.599,4.238 -4.283,7.888 -6.463,11.808 -1.529,2.75 -3.67,5.046 -6.578,6.466 -4.646,2.27 -8.607,0.743 -10.64,-4.033 -1.866,-4.387 -1.242,-8.59 0.844,-12.698 2.154,-4.243 5.089,-7.955 8.239,-11.46 7.427,-8.263 14.99,-16.404 22.496,-24.596 4.348,-4.744 8.439,-9.759 13.099,-14.175 6.771,-6.418 12.422,-13.637 17.186,-21.598 3.512,-5.869 7.99,-10.987 12.445,-16.115 3.43,-3.948 6.917,-7.863 10.603,-11.568 2.771,-2.785 5.999,-5.006 9.991,-5.893 1.038,-0.23 1.942,-1.026 2.936,-1.504 0.641,-0.307 1.334,-0.72 2.001,-0.716 2.543,0.016 4.781,-1.215 7.189,-1.617 2.295,-0.383 4.677,-0.266 7.021,-0.318 1.911,-0.043 3.823,-0.01 5.735,-0.014 1.794,-0.01 3.589,-0.028 5.383,-0.031 3.465,-0.01 6.931,-0.018 10.396,-0 1.953,0.01 3.906,0.085 5.859,0.093 0.673,0 1.371,-0.015 2.017,-0.182 1.773,-0.459 3.5,-1.132 5.293,-1.468 1.341,-0.251 2.829,-0.398 4.118,-0.069 1.405,0.359 2.56,0.1 3.943,-0.396 -0.318,-0.426 -0.584,-0.801 -0.869,-1.159 -0.547,-0.688 -1.301,-1.287 -1.622,-2.065 -0.736,-1.785 -2.253,-2.466 -3.789,-3.325 -4.426,-2.475 -8.745,-5.142 -13.148,-7.659 -4.248,-2.428 -8.681,-4.401 -13.55,-5.273 -2.973,-0.533 -5.793,-0.249 -8.518,1.085 -1.36,0.666 -2.742,1.304 -4.16,1.833 -1.794,0.669 -3.426,1.496 -4.563,3.126 -0.298,0.427 -0.828,0.693 -1.49,1.227 -0.152,-1.086 -0.43,-1.915 -0.349,-2.708 0.229,-2.255 0.434,-4.535 0.959,-6.731 0.933,-3.901 3.377,-6.885 6.325,-9.494 1.451,-1.284 2.876,-2.596 4.328,-3.878 1.208,-1.067 1.453,-2.584 1.543,-3.995 0.097,-1.516 0.523,-2.729 1.65,-3.681 0.607,-0.513 1.262,-1.003 1.968,-1.357 3.527,-1.769 7.081,-3.483 10.618,-5.233 0.271,-0.134 0.468,-0.41 0.723,-0.585 0.387,-0.266 0.77,-0.657 1.197,-0.725 2.466,-0.386 4.969,-1.082 7.414,-0.93 3.259,0.203 6.421,-0.387 9.631,-0.458 3.344,-0.073 6.44,0.892 9.503,2.155 3.016,1.243 6.129,2.245 9.182,3.401 1.602,0.607 3.169,1.306 4.742,1.986 0.438,0.189 0.852,0.441 1.257,0.695 4.287,2.687 8.707,4.879 13.887,5.467 2.789,0.316 5.525,1.165 8.383,1.051 0.116,-0.01 0.239,0.02 0.348,-0.01 3.169,-0.819 6.348,-1.615 9.249,-3.203 0.189,-0.104 0.381,-0.308 0.453,-0.508 1.215,-3.376 2.751,-6.682 3.541,-10.157 1.588,-6.992 0.42,-13.81 -2.254,-20.399 -2.318,-5.712 -5.77,-10.76 -9.276,-15.771 -0.527,-0.752 -0.648,-1.463 -0.565,-2.339 0.538,-5.661 3.504,-9.854 7.959,-13.099 3.681,-2.682 7.595,-5.061 11.14,-7.905 6.321,-5.073 13.01,-9.554 20.116,-13.42 9.191,-5 17.167,-11.656 25.215,-18.242 21.535,-17.623 43.071,-35.249 65.687,-51.494 10.468,-7.52 21.433,-14.248 33.173,-19.595 3.677,-1.674 7.686,-2.624 11.546,-3.891 0.335,-0.11 0.703,-0.121 1.155,-0.194 0.355,2.144 0.015,4.158 -0.704,6.108 -1.306,3.542 -3.705,6.32 -6.415,8.848 -8.299,7.742 -17.616,14.172 -26.774,20.813 -6.438,4.668 -12.762,9.495 -19.131,14.258 -0.474,0.354 -0.906,0.764 -1.249,1.337 2.79,-1.325 5.582,-2.645 8.369,-3.976 17.866,-8.53 35.659,-17.215 53.617,-25.546 15.188,-7.047 30.921,-12.736 46.974,-17.515 2.643,-0.787 5.344,-1.31 8.265,-1.144 0.036,2.458 -0.558,4.683 -1.776,6.746 -1.539,2.605 -3.673,4.696 -6.234,6.205 -6.673,3.93 -13.358,7.852 -20.192,11.488 -8.071,4.294 -16.26,8.373 -24.481,12.374 -5.091,2.478 -10.357,4.592 -15.506,6.956 -3.266,1.5 -6.458,3.156 -9.682,4.747 -0.31,0.152 -0.605,0.333 -0.907,0.5 0.029,0.115 0.058,0.229 0.087,0.343 1.29,-0.24 2.638,-0.32 3.86,-0.753 2.78,-0.985 5.461,-2.256 8.254,-3.197 2.441,-0.822 4.996,-1.302 7.47,-2.036 0.994,-0.295 1.889,-0.909 2.863,-1.292 0.898,-0.354 1.844,-0.583 2.764,-0.883 2.042,-0.666 4.097,-1.295 6.116,-2.021 19.75,-7.097 39.936,-12.684 60.335,-17.554 4.578,-1.093 9.055,-2.618 13.643,-3.662 2.584,-0.588 5.295,-0.668 7.958,-0.843 1.319,-0.087 1.656,0.306 1.37,1.554 -0.419,1.834 -0.322,4.017 -2.634,4.855 -0.119,0.043 -0.257,0.221 -0.269,0.346 -0.172,1.938 -1.706,2.783 -3.027,3.791 -7.084,5.407 -14.978,9.36 -23.313,12.336 -10.219,3.649 -20.577,6.909 -30.856,10.392 -6.838,2.317 -13.635,4.758 -20.471,7.084 -1.923,0.655 -3.916,1.102 -5.915,1.654 0.239,0.965 1.006,1.288 1.804,1.276 1.228,-0.018 2.514,-0.037 3.664,-0.404 2.35,-0.749 4.713,-1.023 7.166,-1.163 2.03,-0.116 4.087,-0.694 6.021,-1.379 2.799,-0.993 5.582,-1.596 8.563,-1.21 1.565,0.203 3.002,-0.229 4.502,-0.855 1.651,-0.688 3.54,-0.916 5.35,-1.096 6.641,-0.661 13.287,-1.263 19.938,-1.803 7.209,-0.586 14.425,-1.092 21.64,-1.608 5.819,-0.416 11.638,-0.883 17.465,-1.142 2.291,-0.102 4.606,0.279 6.906,0.484 0.747,0.066 1.024,0.457 0.886,1.307 -0.441,2.711 -2.049,4.467 -4.437,5.549 -1.338,0.607 -2.771,1.008 -4.17,1.478 -0.604,0.203 -1.229,0.276 -1.327,1.141 -0.03,0.264 -0.517,0.589 -0.853,0.688 -12.375,3.638 -24.737,7.381 -37.607,8.875 -4.957,0.575 -9.95,0.828 -14.826,1.993 -0.143,0.034 -0.287,0.055 -0.432,0.082 10e-4,0.126 0,0.252 0,0.378 1.474,0 2.947,-0.031 4.42,0 14.224,0.339 28.451,0.585 42.669,1.089 5.618,0.199 11.214,0.985 16.821,1.486 1.552,0.139 3.109,0.205 4.662,0.317 1.217,0.088 2.475,0.459 2.861,1.627 0.397,1.198 -0.314,2.397 -1.268,3.163 -0.785,0.63 -1.766,1.126 -2.739,1.394 -4.5,1.238 -8.986,2.58 -13.556,3.494 -4.692,0.938 -9.469,1.475 -14.22,2.092 -4.158,0.54 -8.323,1.101 -12.504,1.345 -1.982,0.116 -4.022,-0.406 -6.009,-0.785 -1.805,-0.344 -2.526,-0.151 -3.235,1.423 2.479,0.549 4.903,1.162 7.356,1.616 9.66,1.788 19.336,3.494 28.992,5.3 3.347,0.625 6.556,1.709 9.547,3.401 0.945,0.534 0.997,1.143 0.32,1.755 -0.528,0.478 -1.263,0.944 -1.94,1.002 -7.363,0.631 -14.73,1.24 -22.105,1.722 -2.827,0.185 -5.679,0.11 -8.513,-0.01 -1.336,-0.054 -2.648,-0.558 -3.987,-0.716 -0.92,-0.109 -1.979,-0.236 -2.779,0.106 -1.68,0.717 -3.245,0.584 -4.895,0.065 -1.405,-0.442 -2.82,-0.893 -4.265,-1.16 -1.271,-0.235 -2.438,0.15 -3.489,1.519 1.382,0.428 2.587,0.901 3.836,1.167 2.225,0.473 4.487,0.769 6.712,1.246 0.88,0.188 1.771,0.549 2.532,1.027 2.007,1.259 1.907,3.701 -0.185,4.823 -2.396,1.286 -5.008,1.289 -7.606,0.961 -1.212,-0.153 -2.382,-0.627 -3.573,-0.946 -0.268,-0.071 -0.546,-0.101 -0.819,-0.15 -0.051,0.098 -0.103,0.196 -0.153,0.293 0.314,0.319 0.628,0.638 0.943,0.957 0.696,0.704 0.633,1.053 -0.344,1.229 -3.184,0.572 -6.377,1.088 -9.566,1.622 -3.669,0.614 -7.3,1.323 -10.645,3.096 -0.548,0.291 -1.386,0.144 -2.066,0.042 -0.842,-0.125 -1.434,-0.181 -1.677,0.912 -0.088,0.395 -0.801,0.806 -1.298,0.929 -5.494,1.355 -11.002,2.655 -16.116,3.877 -0.41,1.678 -0.595,3.147 -1.134,4.473 -0.813,2.002 -0.792,3.791 0.598,5.498 1.121,1.378 1.272,2.919 0.586,4.503 -0.919,2.12 -1.879,4.226 -2.925,6.285 -0.431,0.85 -0.332,1.398 0.409,1.91 0.328,0.227 0.641,0.478 0.966,0.709 3.349,2.38 4.178,5.868 1.779,9.193 -1.442,2 -1.666,4.544 -3.319,6.384 -0.137,0.152 -0.086,0.632 0.053,0.847 2.788,4.299 2.066,8.494 -0.326,12.653 -1.716,2.981 -3.954,5.563 -6.563,7.742 -2.06,1.723 -2.688,3.876 -2.798,6.327 -0.108,2.393 -0.024,4.797 -0.183,7.186 -0.168,2.547 -1.248,4.767 -2.9,6.706 -1.547,1.814 -2.754,3.754 -3.214,6.189 -0.185,0.979 -1.053,1.95 -1.848,2.655 -0.781,0.693 -1.821,1.174 -2.826,1.52 -2.997,1.032 -5.114,3.037 -6.702,5.696 -0.369,0.618 -0.811,1.197 -1.13,1.838 -2.158,4.34 -5.862,6.447 -10.475,7.043 -2.234,0.288 -4.528,0.29 -6.784,0.19 -2.156,-0.095 -3.897,0.439 -5.311,2.131 -1.14,1.364 -2.458,2.543 -4.519,2.534 0.246,3.081 0.063,5.99 -2.923,8.074 11.561,1.083 22.903,1.409 34.331,0.561 -1.654,0.521 -3.309,1.042 -4.963,1.563 0,0.134 0.01,0.268 0.011,0.4 0.936,0.041 1.932,0.311 2.799,0.086 6.675,-1.725 13.447,-0.736 20.18,-0.878 5.31,-0.111 10.615,-0.42 15.923,-0.606 1.71,-0.06 3.423,-0.01 5.281,-0.01 -2.389,1.562 -5.401,1.936 -7.477,4.487 5.497,-1.116 10.579,-3.165 16.403,-2.103 -0.921,0.401 -1.523,0.664 -2.127,0.927 0.013,0.074 0.025,0.147 0.039,0.222 0.763,-0.129 1.535,-0.219 2.286,-0.399 0.764,-0.185 1.506,-0.46 2.303,-0.574 -1.405,1.28 -3.44,0.977 -5.29,2.026 1.579,0 2.852,0.045 4.119,-0.01 2.271,-0.098 4.538,-0.263 6.808,-0.381 0.314,-0.017 0.669,-0.01 0.944,0.122 2.733,1.272 5.707,0.928 8.57,1.291 6.461,0.818 12.926,1.604 19.395,2.356 4.451,0.518 8.88,1.115 13.1,2.729 3.056,1.168 5.927,2.646 8.067,5.204 2.223,2.656 3.226,5.667 2.315,9.137 -0.444,1.695 -0.155,3.174 1.268,4.313 2.621,2.099 5.256,4.178 7.864,6.291 1.209,0.98 2.406,1.982 3.542,3.045 3.628,3.394 4.563,9.708 2.202,13.697 -1.366,2.307 -2.051,4.749 -1.333,7.453 0.127,0.479 0.195,1.165 -0.05,1.517 -0.747,1.065 -0.334,1.949 -0.03,3.025 0.275,0.977 0.04,2.119 -0.072,3.178 -0.098,0.934 -0.927,0.977 -1.633,1.105 -2.346,0.426 -2.295,0.427 -2.455,2.775 -0.049,0.728 -0.46,1.43 -0.705,2.145 -0.102,-0.021 -0.203,-0.044 -0.306,-0.065 0.093,0.123 0.165,0.327 0.281,0.356 1.657,0.417 1.42,1.407 1.035,2.706 -0.588,1.983 -0.851,4.061 -1.384,6.063 -0.387,1.456 -0.665,1.49 -1.855,0.616 -0.225,-0.165 -0.445,-0.444 -0.684,-0.463 -0.533,-0.044 -1.312,-0.155 -1.554,0.131 -0.27,0.319 -0.114,1.057 -0.028,1.593 0.035,0.222 0.361,0.406 0.571,0.591 1.291,1.13 1.324,1.749 -0.018,2.877 -0.79,0.663 -1.686,1.209 -2.565,1.759 -1.249,0.78 -2.019,1.861 -2.441,3.278 -0.265,0.885 -0.767,1.698 -1.272,2.779 1.079,3.077 0.79,6.363 -0.996,9.475 -1.028,1.791 -2.499,3.096 -4.582,3.603 -0.305,0.074 -0.659,0.305 -0.815,0.567 -1.097,1.855 -2.479,3.627 -3.147,5.633 -1.666,5.007 -5.403,8.275 -9.054,11.67 -0.674,0.626 -1.383,1.229 -1.966,1.933 -0.679,0.82 -1.378,0.746 -2.229,0.366 -0.607,-0.271 -1.261,-0.484 -1.914,-0.59 -0.268,-0.043 -0.701,0.197 -0.853,0.438 -0.107,0.173 0.096,0.576 0.223,0.847 0.08,0.17 0.272,0.288 0.419,0.424 1.382,1.273 1.396,1.564 -0.185,2.679 -0.941,0.664 -1.989,1.181 -2.996,1.749 -1.433,0.81 -2.83,1.636 -3.71,3.131 -0.15,0.257 -0.807,0.372 -1.185,0.304 -0.573,-0.104 -1.096,-0.466 -1.664,-0.638 -0.267,-0.08 -0.743,-0.076 -0.852,0.079 -0.174,0.247 -0.145,0.653 -0.147,0.993 -0,0.142 0.139,0.282 0.206,0.427 0.579,1.252 0.494,1.622 -0.795,2.051 -1.282,0.427 -2.61,0.75 -3.943,0.979 -1.897,0.328 -3.584,1.069 -5.11,2.217 -0.734,0.553 -1.491,1.079 -2.201,1.662 -3.014,2.471 -6.354,2.801 -9.917,1.495 -1.723,-0.631 -3.399,-1.383 -5.102,-2.07 -1.631,-0.658 -3.275,-0.92 -5.035,-0.447 -0.7,0.188 -1.55,0.205 -2.229,-0.015 -0.828,-0.269 -1.106,0.021 -1.308,0.69 -0.068,0.229 -0.142,0.46 -0.169,0.695 -0.132,1.142 -0.677,1.565 -1.904,1.587 -8.988,0.156 -16.846,-3.021 -23.899,-8.275 -6.377,-4.751 -12.606,-9.706 -18.796,-14.701 -3.601,-2.906 -7.238,-5.837 -10.417,-9.178 -3.355,-3.524 -7.178,-6.467 -10.763,-9.696 -10.318,-9.294 -20.195,-19.021 -29.415,-29.411 -0.895,-1.008 -1.905,-1.969 -3.021,-2.715 -4.638,-3.097 -8.405,-7.111 -12.146,-11.176 -1.433,-1.556 -2.958,-3.037 -4.546,-4.433 -0.728,-0.64 -1.674,-1.083 -2.591,-1.435 -0.51,-0.196 -1.364,-0.266 -1.713,0.027 -1.278,1.072 -2.638,0.519 -4.012,0.566 -1.935,0.068 -3.853,0.547 -5.786,0.772 -2.011,0.234 -4.033,0.529 -6.048,0.513 -1.769,-0.014 -3.507,0.04 -4.954,1.046 -3.368,2.343 -7.029,2.565 -10.894,1.878 -2.563,-0.456 -4.918,0.137 -7.079,1.556 -1.369,0.899 -2.708,1.848 -4.109,2.695 -0.882,0.534 -1.827,0.987 -2.788,1.36 -1.422,0.552 -2.797,0.473 -4.083,-0.493 -0.462,-0.348 -1.042,-0.617 -1.605,-0.723 -0.346,-0.064 -0.884,0.152 -1.104,0.429 -0.144,0.18 0.044,0.745 0.232,1.043 0.396,0.625 0.892,1.188 1.417,1.867 -1.454,0.787 -2.76,0.582 -4.062,0.143 -1.058,-0.357 -2.089,-0.792 -3.15,-1.135 -1.776,-0.574 -3.357,-0.191 -4.553,1.245 -2.276,2.733 -5.402,3.902 -8.678,4.729 -1.008,0.255 -2.152,0.136 -3.208,-0 -1.505,-0.197 -2.832,0.131 -3.861,1.185 -2.167,2.22 -4.731,3.557 -7.781,4.161 -2.077,0.412 -3.45,2.074 -4.99,3.403 -1.509,1.303 -2.994,2.661 -4.645,3.761 -1.03,0.687 -2.318,1.083 -3.547,1.337 -0.855,0.177 -1.141,0.564 -1.43,1.29 -1.681,4.223 -3.225,8.518 -5.191,12.607 -2.35,4.887 -6.128,8.337 -11.53,9.737 -0.11,0.029 -0.209,0.102 -0.117,0.056 z"
   id="path7"
   style="fill-rule:evenodd" />
</g>
</svg>