<?xml version="1.0" encoding="UTF-8" standalone="no"?>
<!-- Created with Inkscape (http://www.inkscape.org/) -->

<svg
   xmlns:svg="http://www.w3.org/2000/svg"
   xmlns="http://www.w3.org/2000/svg"
   version="1.1"
   width="210mm"
   height="297mm"
   viewBox="0 0 210 297"
   id="svg8">
  <defs
     id="defs2" />
  <g
     id="layer1">
    <path
       d="m 101.96464,115.21389 0.13259,-0.53038 0.1326,-0.99445"
       id="path826"
       style="fill:none;stroke:#000000;stroke-width:0.26458332px;stroke-linecap:butt;stroke-linejoin:miter;stroke-opacity:1" />
    <path
       d="m 107.14965,89.537219 v 0 0 c 0,0 0.10422,-1.51 0,-2.2541 -0.0446,-0.31865 -0.0851,-0.66151 -0.26519,-0.92815 -0.56411,-0.83521 -1.65537,-1.1628 -2.38669,-1.85632 -0.63658,-0.60368 -1.2558,-1.24681 -1.72372,-1.9889 -0.50146,-0.79528 -0.76784,-1.71672 -1.12705,-2.58558 -0.20853,-0.5044 -0.39035,-1.01952 -0.59667,-1.52483 -0.4267,-1.04502 -0.87872,-2.07955 -1.325938,-3.115957 -0.152907,-0.354359 -0.258902,-0.733865 -0.464079,-1.060749 -0.216629,-0.345131 -0.570164,-0.588687 -0.795563,-0.928156 -0.273336,-0.411667 -0.493182,-0.861875 -0.662969,-1.325938 -0.25783,-0.704705 -0.441351,-1.442709 -0.530376,-2.1878 -0.04981,-0.416915 -0.08235,-0.847915 0,-1.259641 0.05634,-0.281708 0.171628,-0.55686 0.331486,-0.795563 0.156512,-0.233707 0.350104,-0.461321 0.59667,-0.596672 0.357204,-0.196086 0.800645,-0.156416 1.193345,-0.265187 0.134695,-0.03731 0.320711,-0.016 0.397782,-0.132593 0.452362,-0.684352 -0.09399,-1.639377 -0.198892,-2.452987 -0.06844,-0.530771 -0.20991,-1.050316 -0.280412,-1.580816 -0.09106,-0.685196 -0.190233,-1.374323 -0.183665,-2.065512 0.0078,-0.822389 0.236718,-1.631053 0.265187,-2.452987 0.0199,-0.574653 -0.05525,-1.148827 -0.0663,-1.723718 -0.01402,-0.729132 -0.04646,-1.460015 0,-2.1878 0.05536,-0.867148 0.174971,-1.730876 0.331486,-2.585577 0.188272,-1.028118 0.326631,-2.085109 0.729268,-3.049659 0.74175,-1.776927 1.93024,-3.339262 3.04965,-4.90597 0.81264,-1.137351 1.53153,-2.41263 2.65188,-3.248549 1.28617,-0.959642 2.92065,-1.345472 4.4419,-1.856314 1.42778,-0.479456 2.88853,-0.888083 4.37559,-1.127045 1.31205,-0.210839 2.64901,-0.251141 3.97782,-0.26519 0.9733,-0.01029 1.96255,-0.05801 2.91706,0.132596 1.52192,0.303913 2.96109,0.952546 4.3756,1.591125 1.51424,0.683602 2.98765,1.473536 4.37559,2.386687 1.40709,0.925749 2.78377,1.928033 3.97782,3.115956 0.95912,0.954195 1.87922,1.990318 2.51928,3.182252 0.57198,1.065138 0.90317,2.259352 1.12705,3.447439 0.21724,1.15283 0.13739,2.342228 0.19889,3.513735 0.0719,1.369853 0.26135,2.740092 0.19889,4.110408 -0.0579,1.270669 -0.35605,2.51894 -0.53038,3.778925 -0.1345,0.972093 -0.27062,1.943983 -0.39778,2.917063 -0.0693,0.529996 -0.62366,1.266685 -0.19889,1.591125 0.32288,0.246613 0.72213,-0.430838 1.12705,-0.464077 0.29385,-0.02412 0.62413,0.02449 0.86186,0.19889 0.35143,0.257817 0.57682,0.699786 0.66297,1.127048 0.22917,1.136638 -0.154,2.330159 -0.46408,3.447439 -0.28324,1.020562 -0.75008,1.988556 -1.25964,2.917063 -0.35976,0.655553 -0.86108,1.223604 -1.25964,1.856316 -0.4909,0.7793 -0.75297,1.72365 -1.39224,2.38669 -0.54468,0.56493 -1.21639,1.12167 -1.98891,1.25964 -0.31148,0.0556 -0.65735,-0.0352 -0.92815,-0.19889 -0.14772,-0.0893 -0.16175,-0.42907 -0.33149,-0.39779 -0.80413,0.14817 -0.44158,1.58333 -0.79556,2.3204 -0.46446,0.96713 -1.22352,1.76903 -1.72372,2.71817 -0.2354,0.44667 -0.39778,0.92816 -0.59667,1.39224 -0.19889,0.46408 -0.52428,0.89255 -0.59668,1.39223 -0.0542,0.37437 0.0824,0.75212 0.1326,1.12705 0.0593,0.44297 0.009,0.92115 0.19889,1.32593 0.11281,0.24102 0.32063,0.43291 0.53038,0.59668 0.86481,0.67522 1.89038,1.13785 2.91706,1.52482 0.87269,0.32893 1.80948,0.45306 2.71817,0.66297 1.21212,0.28001 2.48182,0.35792 3.64633,0.79557 0.68515,0.2575 1.31419,0.65386 1.92261,1.06075 0.70574,0.47197 1.44206,0.94167 1.98891,1.59112 0.79634,0.94574 1.23126,2.14566 1.79002,3.24855 0.75963,1.499381 1.53851,2.998001 2.1215,4.574491 0.50959,1.378 0.8485,2.81484 1.19334,4.243 0.44454,1.84104 0.76764,3.70941 1.12705,5.56894 0.32408,1.67675 0.71555,3.34407 0.92816,5.03856 0.20405,1.6263 0.32167,3.26695 0.33148,4.90598 0.01,1.59355 -0.0267,3.19774 -0.26519,4.77337 -0.25912,1.71171 -0.43147,3.51829 -1.25964,5.03857 -0.91247,1.67503 -2.49527,2.89898 -3.91152,4.1767 -1.03045,0.92966 -2.2337,1.64908 -3.31484,2.51928 -0.61059,0.49147 -1.15903,1.05985 -1.79002,1.52483 -0.63174,0.46554 -1.35639,0.79515 -1.9889,1.25964 -0.30333,0.22275 -0.70653,0.38649 -0.86187,0.72927 -0.52003,1.1475 -0.28448,2.56891 0.0663,3.77892 0.33136,1.143 1.3918,1.95399 1.85631,3.04966 0.41007,0.96724 0.63714,2.0111 0.79557,3.04966 0.2102,1.37787 0.33853,2.7899 0.19889,4.1767 -0.16217,1.61052 -0.62333,3.19211 -1.19335,4.70708 -0.4455,1.18402 -1.03776,2.31822 -1.72372,3.38115 -0.5371,0.83226 -1.13791,1.63846 -1.85631,2.32039 -0.7695,0.73044 -1.65729,1.34254 -2.58558,1.85631 -1.37877,0.76309 -2.94925,1.12003 -4.37559,1.79002 -0.68007,0.31945 -1.33775,0.68586 -1.98891,1.06075 -1.59972,0.92099 -3.13653,1.94717 -4.70708,2.91706 -1.43505,0.88621 -2.83537,1.83196 -4.3093,2.65188 -1.25231,0.69663 -2.53848,1.3344 -3.84522,1.92261 -2.10677,0.94833 -4.20989,1.94887 -6.4308,2.58558 -2.54608,0.72994 -5.19108,1.09529 -7.823037,1.39223 -3.165923,0.35719 -6.360942,0.42861 -9.546754,0.46408 -1.679999,0.0187 -3.361268,-0.22964 -5.038566,-0.13259 -0.936014,0.0542 -1.916342,0.0436 -2.78447,0.39778 -0.380613,0.15526 -0.788652,0.37342 -0.994452,0.72926 -0.300565,0.51969 -0.117488,1.19522 -0.198893,1.79002 -0.130548,0.95387 -0.244646,1.91334 -0.464076,2.85077 -0.137013,0.58534 -0.475929,1.12503 -0.530376,1.72372 -0.03426,0.37672 0.1172,0.74908 0.132593,1.12704 0.0252,0.61866 0.123675,1.26702 -0.0663,1.85632 -0.146683,0.45501 -0.5633,0.77548 -0.795563,1.19334 -0.129729,0.23339 -0.244684,0.47675 -0.331486,0.72927 -0.184692,0.5373 -0.144408,1.14888 -0.397779,1.65742 -0.217035,0.43561 -0.533651,0.84206 -0.928159,1.12705 -0.595477,0.43017 -1.32202,0.74991 -2.055204,0.79556 -0.454701,0.0283 -0.925404,-0.11439 -1.325938,-0.33148 -0.371186,-0.20118 -0.728049,-0.49009 -0.928156,-0.86186 -0.06371,-0.11837 0.02916,-0.30314 -0.0663,-0.39779 -0.301861,-0.29929 -0.851394,-0.0804 -1.259642,-0.19889 -0.855558,-0.24822 -1.719156,-0.55569 -2.452986,-1.06075 -1.068473,-0.73538 -2.038879,-1.67949 -2.718173,-2.78447 -0.501412,-0.81563 -0.518898,-1.85263 -0.928156,-2.71817 -0.233308,-0.49342 -0.538453,-0.95256 -0.861859,-1.39223 -0.259917,-0.35336 -0.586451,-0.65304 -0.861862,-0.99446 -0.554998,-0.68801 -1.193759,-1.33189 -1.591124,-2.1215 -0.383462,-0.76198 -0.64482,-1.60414 -0.729266,-2.45298 -0.07249,-0.72868 0.0116,-1.47988 0.19889,-2.1878 0.136593,-0.51628 0.433018,-0.97653 0.662969,-1.45853 0.276603,-0.57979 0.806624,-1.08371 0.861862,-1.72372 0.01984,-0.22987 -0.155931,-0.43628 -0.198893,-0.66297 -0.04955,-0.26146 0.103578,-0.59074 -0.0663,-0.79557 -0.424398,-0.51172 -1.348098,-0.19585 -1.92261,-0.53037 -0.324094,-0.18871 -0.634962,-0.45666 -0.795563,-0.79556 -0.09511,-0.2007 -0.05524,-0.44115 -0.0663,-0.66297 -0.01651,-0.33108 0.220278,-0.74675 0,-0.99446 -0.251369,-0.28267 -0.765895,-0.0201 -1.127049,-0.13259 -0.405843,-0.12643 -0.891509,-0.24281 -1.127045,-0.59667 -0.2705,-0.40639 -0.298782,-0.99951 -0.132593,-1.45853 0.117031,-0.32325 0.779187,-0.38913 0.729265,-0.72927 -0.04738,-0.32283 -0.622059,-0.24281 -0.861861,-0.46408 -0.328864,-0.30344 -0.647196,-0.68717 -0.729266,-1.12705 -0.09936,-0.53257 0.03218,-1.13954 0.331486,-1.59112 0.193041,-0.29125 0.546594,-0.44601 0.861859,-0.59667 0.353323,-0.16885 0.755014,-0.20927 1.127048,-0.33149 0.24574,-0.0807 0.698399,-0.008 0.729266,-0.26518 0.04754,-0.39555 -0.649879,-0.463 -0.994455,-0.66297 -0.170957,-0.0992 -0.371793,-0.1472 -0.530373,-0.26519 -0.413907,-0.30796 -0.90504,-0.6352 -1.060752,-1.12705 -0.141491,-0.44693 0.04397,-0.94978 0.19889,-1.39223 0.144042,-0.41137 0.350351,-0.82333 0.662969,-1.12705 0.361791,-0.35149 0.869362,-0.51485 1.325938,-0.72927 0.70947,-0.33319 1.448613,-0.60115 2.187797,-0.86186 0.349354,-0.12322 0.698358,-0.25466 1.060752,-0.33148 0.565814,-0.11994 1.145757,-0.17679 1.723721,-0.19889 0.574578,-0.022 1.148738,0.0708 1.723718,0.0663 0.818831,-0.006 2.118321,0.61475 2.452986,-0.13259 0.404823,-0.90401 -1.356419,-1.46527 -1.856314,-2.32039 -0.745581,-1.27539 -1.112415,-2.73729 -1.657424,-4.11041 -0.560164,-1.41131 -1.282503,-2.77161 -1.657421,-4.243 -0.302532,-1.18731 -0.520468,-2.42238 -0.464079,-3.64633 0.05626,-1.22116 0.465501,-2.40298 0.795565,-3.58003 0.296242,-1.05644 0.480954,-2.18448 1.060749,-3.11596 0.511967,-0.82251 1.330903,-1.41175 2.055204,-2.0552 0.694089,-0.61661 1.35083,-1.32191 2.187797,-1.72372 1.411101,-0.67744 3.023482,-0.84978 4.574487,-1.06075 1.030106,-0.14012 2.076598,-0.1105 3.115955,-0.1326 0.83957,-0.0179 1.873078,0.5363 2.519281,0 0.553654,-0.45949 0.235052,-1.42065 0.397782,-2.1215 0.186748,-0.80429 0.486691,-1.58003 0.662969,-2.38668 0.267598,-1.22453 0.324576,-2.4891 0.596673,-3.71263 0.2794,-1.25637 0.540283,-2.53549 1.060749,-3.71263 0.441427,-0.99837 1.270054,-1.7916 1.723721,-2.78447 0.307911,-0.67388 0.336595,-1.45637 0.662969,-2.1215 0.62924,-1.28236 1.833271,-2.22675 2.452986,-3.51374 0.539975,-1.12139 0.683939,-2.39382 1.060749,-3.58003 0.395643,-1.2455 0.91837,-2.45114 1.259642,-3.71262 0.288609,-1.06682 0.375417,-2.18144 0.662969,-3.24855 0.540031,-2.00405 1.028011,-4.06072 1.988907,-5.900431 0.343766,-0.65817 0.857344,-1.21401 1.325938,-1.79001 0.69142,-0.84991 1.277504,-1.84326 2.187797,-2.45299 0.720059,-0.48231 1.616568,-0.6349 2.452987,-0.86186 0.782179,-0.21224 1.579958,-0.38638 2.38669,-0.46408 0.90188,-0.0869 1.81709,0.0948 2.71817,0 1.05607,-0.1111 2.17419,-0.17234 3.11595,-0.66297 0.40214,-0.2095 0.99448,-0.92816 0.99448,-0.92816"
       id="path828"
       style="fill:#000000;stroke:#000000;stroke-width:0.26458332px;stroke-linecap:butt;stroke-linejoin:miter;stroke-opacity:1" />
  </g>
</svg>
