<?xml version="1.0" encoding="UTF-8" standalone="no"?>
<!-- Created with Inkscape (http://www.inkscape.org/) -->

<svg
   xmlns:svg="http://www.w3.org/2000/svg"
   xmlns="http://www.w3.org/2000/svg"
   version="1.1"
   width="183.13422mm"
   height="88.312981mm"
   viewBox="0 0 183.13422 88.312981"
   id="svg8">
  <defs
     id="defs2" />
  <g
     transform="translate(3.0444905,-118.11389)"
     id="layer1">
    <path
       d="m 158.20508,206.3492 c -0.0932,-0.0984 -0.91388,-0.23784 -1.82372,-0.30993 -0.90985,-0.0721 -2.12833,-0.37291 -2.70773,-0.6685 -1.04477,-0.53301 -1.05211,-0.5474 -0.88825,-1.74282 0.0909,-0.66296 0.16521,-1.43847 0.16521,-1.72335 0,-0.28488 0.76641,-1.31183 1.70314,-2.28211 1.7018,-1.76276 3.05182,-4.09789 3.05678,-5.2873 0.001,-0.34134 -0.21672,-0.93666 -0.48477,-1.32292 -0.26803,-0.38627 -0.66844,-1.05949 -0.88979,-1.49605 -1.96347,-3.87253 -5.13251,-7.74362 -9.42203,-11.50938 -1.59168,-1.39733 -5.2052,-5.86773 -6.02597,-7.45493 -0.21674,-0.41914 -0.46518,-1.52348 -0.55208,-2.45409 l -0.158,-1.69202 -1.02198,0.6763 c -0.74873,0.4955 -1.02352,0.86144 -1.02777,1.36876 -0.003,0.38084 -0.23108,1.18857 -0.5064,1.79494 -0.64958,1.43067 -1.17448,4.71692 -0.99024,6.19958 0.45318,3.64696 0.62701,4.18481 2.29904,7.11358 0.28948,0.50706 0.52465,1.28096 0.5226,1.7198 -0.004,0.83028 -1.30803,3.41833 -3.15448,6.25996 -1.04266,1.60461 -1.07513,1.7224 -1.07513,3.89969 0,1.73911 -0.12507,2.50348 -0.55494,3.39146 -0.62853,1.29836 -1.07713,1.60517 -2.83609,1.93964 -0.68155,0.1296 -2.20233,0.50168 -3.37951,0.82686 l -2.14033,0.59122 -1.43154,-0.67837 c -1.04321,-0.49435 -1.71941,-0.64606 -2.49269,-0.55925 -1.23658,0.13882 -2.3461,-0.55534 -2.61777,-1.63776 -0.17464,-0.6958 0.43692,-2.51995 0.84483,-2.51995 0.1296,0 0.82028,-0.74268 1.53486,-1.65039 3.15171,-4.00359 3.81276,-5.56407 3.81276,-9.00051 0,-1.29166 -0.12153,-2.57557 -0.27008,-2.85313 -0.14854,-0.27755 -0.38225,-1.0961 -0.51934,-1.81899 -0.13709,-0.72289 -0.98058,-2.83946 -1.87441,-4.70348 -0.89383,-1.86402 -1.72874,-3.65702 -1.85536,-3.98444 l -0.23021,-0.59531 -8.40707,-0.006 c -4.65376,-0.004 -8.87956,-0.1236 -9.4654,-0.26903 -0.58208,-0.14449 -3.02287,-0.37224 -5.423955,-0.50612 -4.60481,-0.25674 -8.91904,-0.83847 -10.76086,-1.451 -1.25117,-0.41609 -1.40997,-0.34374 -1.40997,0.64243 0,1.37906 -0.83465,5.72197 -1.44968,7.54315 -2.11719,6.26917 -2.35774,7.78785 -2.37359,14.98472 -0.0124,5.60638 -0.047,6.02642 -0.54236,6.57659 -0.75091,0.83399 -2.34247,1.58883 -3.36289,1.59495 -0.47874,0.003 -1.87675,0.36006 -3.10668,0.79375 -2.56346,0.90391 -4.04025,0.99106 -5.16986,0.30508 -0.61029,-0.37061 -0.94794,-0.42162 -1.47469,-0.22279 -0.98436,0.37155 -2.04968,0.0152 -3.10289,-1.03806 -0.89398,-0.89398 -0.91448,-0.961 -0.74223,-2.42655 0.22299,-1.89733 0.60046,-2.46721 2.39428,-3.6147 1.71784,-1.09889 1.974,-1.46453 3.0722,-4.38528 0.7299,-1.94123 0.84997,-2.61099 0.87752,-4.89479 0.0264,-2.18408 -0.0592,-2.80745 -0.49015,-3.57188 -0.43011,-0.76295 -0.5466,-1.6059 -0.66145,-4.78649 l -0.13941,-3.86045 -1.68849,0.34521 c -1.87776,0.38391 -3.0302,0.93712 -6.48782,3.11435 -1.29551,0.81577 -2.49669,1.48322 -2.66929,1.48322 -0.17259,0 -1.5049,0.58247 -2.96068,1.29438 -2.67519,1.30823 -3.67853,2.18452 -3.94443,3.44496 -0.0794,0.37654 -0.40089,1.39899 -0.71435,2.27212 -0.37659,1.04893 -0.61859,2.50384 -0.71335,4.28852 -0.14027,2.6419 -0.1636,2.72225 -1.06583,3.67136 -1.15842,1.21859 -2.54466,1.85172 -4.86653,2.22264 -1.00029,0.1598 -2.06662,0.46418 -2.36961,0.6764 -0.68236,0.47795 -1.683193,0.48073 -2.538612,0.007 -0.457496,-0.25333 -0.843666,-0.28653 -1.302737,-0.11199 -1.774605,0.67469 -3.20639,-0.61451 -3.20639,-2.8871 0,-1.73683 0.603639,-2.86357 2.050267,-3.82697 2.344515,-1.56136 3.686667,-3.86014 5.224732,-8.94867 1.13988,-3.77122 1.88519,-4.72303 6.81957,-8.70913 2.81119,-2.27094 3.73528,-3.20031 4.99604,-5.02463 0.85079,-1.23109 1.54689,-2.30849 1.54689,-2.39424 0,-0.24114 -2.01194,-2.48317 -4.5589,-5.08024 -1.85698,-1.89352 -2.6871,-2.52863 -4.23333,-3.23888 -3.01123,-1.38318 -6.198293,-2.29188 -8.934852,-2.54753 -1.382448,-0.12915 -3.077125,-0.31156 -3.765952,-0.40536 -1.152472,-0.15694 -1.384716,-0.0848 -2.910417,0.90406 -3.485216,2.25888 -3.372498,2.24158 -13.583539,2.08398 -4.958313,-0.0765 -10.197063,-0.0367 -11.641666,0.0884 -3.181401,0.2756 -3.817174,0.0251 -3.817174,-1.50365 v -0.95813 l -2.003344,0.15151 c -1.71476,0.12969 -2.072957,0.0819 -2.486602,-0.33174 -0.727028,-0.72703 -0.905682,-1.94988 -0.421627,-2.88594 0.260562,-0.50387 0.413656,-1.49129 0.413656,-2.66798 0,-1.48818 0.192981,-2.39206 0.948998,-4.44491 1.501352,-4.07669 2.284161,-5.66995 3.371729,-6.86252 1.140905,-1.25106 1.590288,-1.43514 5.635882,-2.30871 4.668293,-1.00802 7.354797,-1.90461 10.032949,-3.34836 2.498798,-1.34706 3.025409,-1.82591 5.194358,-4.72326 0.482648,-0.64473 1.651447,-1.7039 2.597333,-2.3537 1.015942,-0.69793 1.702477,-1.35516 1.677487,-1.60588 -0.02326,-0.23343 -0.129053,-1.04869 -0.235077,-1.81167 -0.144978,-1.04332 -0.07958,-1.68363 0.263779,-2.58271 0.780693,-2.04421 2.279399,-2.24422 3.423031,-0.45682 1.406416,2.19812 1.905846,2.45986 5.226992,2.73933 1.652886,0.13909 3.71962,0.3664 4.592745,0.50515 0.873125,0.13874 3.750861,0.25316 6.394981,0.25426 5.00535,0.002 4.99056,0.004 12.78731,-1.7631 0.94589,-0.2144 2.55323,-0.56845 3.57187,-0.78678 1.01865,-0.21833 3.28084,-0.87685 5.02709,-1.46337 3.13788,-1.05394 3.21057,-1.06489 6.21771,-0.93643 2.44867,0.1046 3.52608,0.28902 5.51863,0.94461 1.36177,0.44805 2.62295,0.93664 2.80263,1.08576 0.5816,0.48269 4.16754,1.86297 4.83995,1.86297 0.35917,0 1.38459,0.1924 2.27872,0.42756 1.43172,0.37655 4.56167,0.43539 26.231935,0.49311 23.21952,0.0619 27.14519,0.15657 27.78125,0.67038 0.14552,0.11755 0.97896,0.3993 1.85208,0.62611 0.87313,0.2268 2.31696,0.6991 3.20852,1.04954 3.74844,1.47337 7.57345,5.42859 8.42996,8.71692 0.19941,0.76561 0.89073,2.52997 1.53626,3.9208 0.64553,1.39084 1.32403,3.17359 1.50778,3.96167 0.18374,0.78808 0.49746,1.88176 0.69714,2.43041 0.2372,0.65177 0.36198,2.16501 0.35996,4.36563 -0.003,2.9951 0.0778,3.60248 0.7276,5.48475 0.65392,1.89425 0.92035,2.29737 2.53559,3.83646 0.99269,0.94588 2.00472,1.82849 2.24896,1.96135 0.24423,0.13285 1.15744,0.71192 2.02935,1.2868 1.4456,0.95315 1.65706,1.01929 2.40003,0.75063 0.44811,-0.16204 1.04442,-0.28275 1.32513,-0.26824 0.40975,0.0212 0.37996,0.0724 -0.15107,0.25996 -0.47038,0.16611 -0.18373,0.20395 0.9923,0.131 0.90957,-0.0564 1.59314,-0.004 1.51905,0.11538 -0.0741,0.11988 0.23936,0.30013 0.69656,0.40055 0.6113,0.13427 0.73444,0.24392 0.46533,0.41436 -0.25363,0.16063 -0.10391,0.23301 0.48785,0.23582 0.60474,0.003 0.97428,0.18794 1.26685,0.63445 0.22718,0.34672 0.75067,0.69793 1.16331,0.78046 0.41264,0.0825 0.82346,0.34081 0.91293,0.57396 0.0895,0.23316 0.0691,0.36606 -0.0454,0.29534 -0.11442,-0.0707 -0.38095,-0.0192 -0.59228,0.1145 -0.26368,0.1668 -0.28047,0.24434 -0.0535,0.24712 0.1819,0.002 0.33073,0.18265 0.33073,0.40093 0,0.21828 -0.0893,0.37734 -0.19844,0.35347 -0.33341,-0.0729 -1.65365,0.3543 -1.65364,0.53511 1e-5,0.0934 0.41673,0.50225 0.92604,0.90864 0.97178,0.77538 1.14772,1.12963 0.59531,1.19857 -0.1819,0.0227 -0.71843,0.083 -1.19229,0.13395 -0.47385,0.051 -0.93258,0.1637 -1.01939,0.25051 -0.0868,0.0868 -0.44325,0.0493 -0.79209,-0.0833 -0.51201,-0.19467 -0.63425,-0.15617 -0.63425,0.19975 0,0.37847 -0.055,0.36817 -0.38846,-0.0727 -0.21366,-0.28248 -0.39225,-0.38508 -0.39688,-0.228 -0.0105,0.35681 -1.09859,0.33745 -1.48798,-0.0265 -0.15892,-0.14852 -0.43961,-0.55156 -0.62375,-0.89564 -0.26432,-0.49388 -0.38368,-0.54844 -0.5669,-0.25912 -0.1706,0.26936 -0.23317,0.19786 -0.23615,-0.26985 -0.004,-0.6309 -0.009,-0.63203 -0.57171,-0.13229 l -0.56765,0.50403 0.14577,-0.78872 c 0.13497,-0.73027 0.11821,-0.75103 -0.22609,-0.28016 -0.33684,0.46066 -0.37187,0.46494 -0.37187,0.0455 0,-0.25468 -0.11906,-0.38948 -0.26458,-0.29954 -0.14552,0.0899 -0.26459,-0.0901 -0.26459,-0.40016 0,-0.60764 -0.62614,-1.39904 -0.89454,-1.13064 -0.0901,0.0901 -0.16379,0.0806 -0.16379,-0.0211 0,-0.1017 0.26789,-0.29259 0.59531,-0.4242 0.39468,-0.15864 0.45174,-0.24493 0.1693,-0.25605 -0.2343,-0.009 -0.86786,-0.43349 -1.4079,-0.94282 -0.54004,-0.50932 -1.13563,-0.92604 -1.32354,-0.92604 -0.18791,0 -0.76985,-0.32742 -1.2932,-0.7276 -0.52334,-0.40018 -1.38136,-1.02526 -1.9067,-1.38906 -0.52534,-0.36381 -1.30537,-0.94097 -1.73339,-1.28258 l -0.77823,-0.62112 -0.44055,1.01799 c -0.48929,1.13063 -0.76306,2.78084 -1.0374,6.25293 -0.14278,1.80711 -0.0879,2.63162 0.24659,3.70417 0.6804,2.18171 1.68595,5.71293 2.19943,7.72374 0.407,1.59387 0.75566,2.19954 2.55121,4.43177 1.14387,1.42208 2.1795,2.58559 2.30139,2.58559 0.12189,0 0.76832,0.53134 1.43652,1.18076 1.06008,1.03028 1.21491,1.32121 1.21491,2.2829 0,0.74804 -0.26377,1.56316 -0.82097,2.53705 -0.79109,1.38268 -0.83549,1.6295 -1.21939,6.77909 l -0.39841,5.34416 -0.99636,1.44498 c -0.65522,0.95025 -1.25684,1.51673 -1.75717,1.65453 -1.05634,0.29093 -6.01487,0.57496 -6.22196,0.3564 z m 20.41009,-37.02968 c 0,-0.0572 -0.18477,-0.17488 -0.41061,-0.26155 -0.23546,-0.0904 -0.34167,-0.046 -0.24897,0.10398 0.15538,0.25141 0.65958,0.37186 0.65958,0.15757 z"
       id="path21"
       style="fill:#000000;stroke-width:0.26458332" />
  </g>
</svg>
