<?xml version="1.0" encoding="UTF-8" standalone="no"?>
<!-- Created with Inkscape (http://www.inkscape.org/) -->

<svg
   xmlns:svg="http://www.w3.org/2000/svg"
   xmlns="http://www.w3.org/2000/svg"
   version="1.1"
   width="270"
   height="162"
   viewBox="0 0 270 162"
   id="Layer_1"
   xml:space="preserve"><defs
   id="defs11" />
<g
   id="g3">
	<path
   d="m 29.236,153.411 c 0,-48.273 0,-96.548 0,-144.822 69.166,0 138.332,0 207.498,0 0,48.274 0,96.549 0,144.822 -69.166,0 -138.332,0 -207.498,0 z m 87.177,-56.359 c 0.47,-0.034 0.721,10e-4 0.93,-0.076 2.499,-0.921 4.446,-2.639 6.203,-4.544 1.258,-1.361 2.628,-2.425 4.393,-3.026 0.618,-0.211 1.207,-0.627 1.697,-1.073 1.849,-1.682 3.628,-3.44 5.496,-5.1 0.308,-0.273 0.984,-0.379 1.389,-0.248 1.22,0.395 2.385,0.217 3.614,0.077 2.759,-0.315 5.552,-0.358 8.306,-0.708 1.822,-0.233 3.604,-0.793 5.396,-1.231 3.338,-0.816 6.688,-1.582 9.998,-2.5 3.141,-0.871 6.289,-1.765 9.33,-2.924 2.13,-0.812 4.075,-2.143 6.427,-0.786 0.072,0.041 0.18,0.014 0.261,0.046 2.101,0.832 4.2,1.669 6.299,2.506 0.04,0.016 0.067,0.059 0.104,0.082 1.618,1.012 3.235,2.023 4.856,3.032 0.111,0.069 0.236,0.122 0.363,0.159 1.418,0.425 2.843,0.832 4.256,1.274 0.285,0.089 0.573,0.26 0.786,0.468 1.35,1.314 2.719,2.613 4.002,3.989 1.122,1.204 1.106,2.764 0.222,4.154 -0.466,0.732 -0.804,1.559 -1.119,2.373 -0.366,0.942 -0.537,1.971 -0.979,2.87 -2.018,4.103 -3.603,8.343 -4.315,12.878 -0.218,1.391 -0.315,2.81 -0.642,4.174 -0.632,2.653 -1.379,5.281 -2.096,7.914 -1.061,3.898 -2.001,7.839 -3.252,11.676 -0.853,2.611 -0.729,5.534 -2.495,7.867 -0.2,0.265 -0.146,0.93 0.051,1.248 0.626,1.012 0.535,1.869 -0.13,2.83 -0.684,0.985 -0.646,1.991 0.352,2.833 0.811,0.683 1.151,1.482 1.185,2.624 0.022,0.801 0.649,1.843 1.327,2.265 0.407,0.254 1.448,-0.43 2.167,-0.772 0.901,-0.432 1.713,-1.152 2.653,-1.38 1.765,-0.425 3.068,-1.307 3.944,-2.88 0.425,-0.765 0.767,-1.646 1.381,-2.225 4.637,-4.377 9.045,-8.958 12.881,-14.062 1.753,-2.333 3.686,-4.592 5.051,-7.145 3.174,-5.934 7.142,-11.344 10.855,-16.911 3.452,-5.175 5.263,-10.796 6.179,-16.836 0.357,-2.349 0.943,-4.661 1.42,-6.991 0.413,-2.027 1.008,-4.04 1.183,-6.089 0.313,-3.655 -0.972,-7.019 -2.63,-10.175 -0.871,-1.661 -2.448,-2.825 -4.31,-3.341 -2.371,-0.659 -4.781,-1.175 -7.173,-1.76 -2.268,-0.556 -4.54,-1.093 -6.797,-1.688 -2.986,-0.788 -5.974,-1.577 -8.935,-2.451 -3.456,-1.02 -7.032,-1.743 -10.051,-3.915 -1.023,-0.736 -1.496,-1.783 -0.837,-2.854 0.848,-1.374 1.752,-2.788 2.924,-3.869 1.894,-1.749 4.38,-2.555 6.751,-1.502 1.479,0.657 3,0.588 4.431,1.12 0.236,0.088 0.792,-0.168 0.932,-0.417 0.854,-1.503 0.427,-3.658 -0.984,-4.693 -0.661,-0.484 -1.498,-0.737 -2.267,-1.065 -0.729,-0.311 -1.671,-0.392 -2.173,-0.91 -1.47,-1.514 -2.865,-3.124 -4.108,-4.828 -1.866,-2.561 -4.415,-3.961 -7.439,-4.191 -2.254,-0.171 -4.561,0.214 -6.833,0.457 -1.656,0.177 -3.294,0.529 -4.941,0.796 -3.909,0.632 -7.818,1.268 -11.731,1.883 -1.039,0.164 -2.086,0.324 -3.134,0.368 -0.678,0.028 -1.45,0.012 -2.032,-0.278 -2.667,-1.332 -5.334,-2.679 -7.902,-4.188 -2.773,-1.629 -5.679,-3.134 -7.739,-5.721 -0.927,-1.162 -1.938,-2.354 -2.482,-3.705 -0.973,-2.41 -0.597,-4.959 0.097,-7.389 0.337,-1.18 -0.238,-1.704 -1.029,-2.106 -2.026,-1.03 -4.166,-1.684 -6.483,-1.524 -2.116,0.145 -4.243,0.204 -6.346,0.466 -2.854,0.356 -5.742,0.655 -8.521,1.356 -6.849,1.729 -13.653,3.64 -20.457,5.543 -3.913,1.094 -7.802,2.276 -11.678,3.496 -1.831,0.576 -3.597,1.355 -5.407,2.001 -0.618,0.22 -1.377,0.162 -1.907,0.494 -3.723,2.334 -8.212,2.822 -11.982,5.162 -2.054,1.275 -4.734,1.501 -7.052,2.407 -1.996,0.78 -3.905,1.801 -5.8,2.815 -1.156,0.619 -2.12,1.734 -3.328,2.091 -4.164,1.229 -7.506,3.915 -11.224,5.931 -2.624,1.423 -5.348,2.672 -8.073,3.895 -1.656,0.743 -3.4,1.289 -5.386,2.028 2.207,-0.351 4.144,-0.481 5.979,-0.985 5.029,-1.38 10.077,-2.735 15.005,-4.427 14.893,-5.116 29.722,-10.416 44.611,-15.542 1.147,-0.395 2.902,-0.487 3.791,0.126 1.916,1.322 3.38,3.276 5.161,4.819 1.912,1.656 2.93,3.87 4.066,6.007 0.456,0.857 0.795,1.906 0.78,2.861 -0.043,2.644 1.041,4.703 2.947,6.371 0.485,0.423 1.239,0.708 1.888,0.744 1.907,0.105 2.252,0.39 3.045,2.373 0.803,2.01 1.597,3.973 3.143,5.589 2.475,2.588 2.399,5.573 0.017,8.015 -0.311,0.318 -0.5,0.979 -0.416,1.417 0.322,1.667 -0.321,2.797 -1.772,3.474 -3.495,1.628 -6.988,3.267 -10.534,4.782 -2.428,1.038 -4.946,1.864 -7.415,2.806 -1.848,0.706 -3.758,1.301 -5.499,2.217 -1.33,0.7 -2.488,1.769 -3.605,2.801 -0.273,0.252 -0.315,1.183 -0.071,1.497 1.67,2.16 3.427,4.255 5.198,6.335 0.563,0.663 0.929,1.221 0.411,2.123 -0.213,0.372 -0.221,1.259 0.017,1.425 0.913,0.637 1.935,1.428 2.967,1.509 1.64,0.128 3.317,-0.323 4.985,-0.429 1.751,-0.11 2.126,0.36 1.819,2.366 0.525,-0.073 0.997,-0.066 1.411,-0.219 0.48,-0.176 0.908,-0.49 1.359,-0.745 0.069,0.096 0.14,0.191 0.209,0.288 -0.351,0.468 -0.702,0.937 -1.325,1.77 1.092,-0.141 1.833,-0.229 2.572,-0.331 0.956,-0.133 1.911,-0.398 2.862,-0.386 1.002,0.016 1.236,0.685 0.501,1.778 z"
   id="path5"
   style="fill:#ffffff;fill-rule:evenodd" />
	<path
   d="m 116.413,97.052 c 0.736,-1.093 0.501,-1.762 -0.506,-1.777 -0.952,-0.013 -1.907,0.253 -2.862,0.386 -0.739,0.103 -1.48,0.19 -2.572,0.331 0.624,-0.833 0.975,-1.302 1.325,-1.77 -0.069,-0.097 -0.14,-0.192 -0.209,-0.288 -0.451,0.255 -0.879,0.569 -1.359,0.745 -0.414,0.152 -0.886,0.146 -1.411,0.219 0.307,-2.006 -0.068,-2.477 -1.819,-2.366 -1.667,0.105 -3.345,0.557 -4.985,0.429 -1.032,-0.081 -2.055,-0.872 -2.967,-1.509 -0.238,-0.166 -0.23,-1.053 -0.017,-1.425 0.519,-0.902 0.153,-1.46 -0.411,-2.123 -1.771,-2.08 -3.528,-4.175 -5.198,-6.335 -0.244,-0.314 -0.202,-1.245 0.071,-1.497 1.117,-1.032 2.276,-2.101 3.605,-2.801 1.741,-0.916 3.651,-1.511 5.499,-2.217 2.469,-0.942 4.987,-1.769 7.415,-2.806 3.545,-1.515 7.039,-3.153 10.534,-4.782 1.452,-0.677 2.095,-1.807 1.772,-3.474 -0.084,-0.438 0.105,-1.099 0.416,-1.417 2.383,-2.442 2.458,-5.427 -0.017,-8.015 -1.546,-1.616 -2.34,-3.58 -3.143,-5.589 -0.793,-1.983 -1.138,-2.268 -3.045,-2.373 -0.648,-0.036 -1.403,-0.321 -1.888,-0.744 -1.907,-1.668 -2.99,-3.727 -2.947,-6.371 0.015,-0.955 -0.325,-2.003 -0.78,-2.861 -1.136,-2.138 -2.154,-4.351 -4.066,-6.007 -1.781,-1.543 -3.245,-3.498 -5.161,-4.819 -0.889,-0.613 -2.644,-0.521 -3.791,-0.126 -14.889,5.127 -29.718,10.426 -44.611,15.542 -4.928,1.692 -9.977,3.047 -15.005,4.427 -1.835,0.504 -3.772,0.634 -5.979,0.985 1.985,-0.739 3.729,-1.285 5.386,-2.028 2.726,-1.223 5.449,-2.472 8.073,-3.895 3.718,-2.017 7.06,-4.703 11.224,-5.931 1.208,-0.357 2.172,-1.472 3.328,-2.091 1.895,-1.014 3.804,-2.035 5.8,-2.815 2.318,-0.905 4.998,-1.131 7.052,-2.407 3.77,-2.34 8.259,-2.828 11.982,-5.162 0.53,-0.332 1.289,-0.273 1.907,-0.494 1.811,-0.646 3.577,-1.425 5.407,-2.001 3.876,-1.22 7.766,-2.401 11.678,-3.496 6.804,-1.903 13.608,-3.814 20.457,-5.543 2.779,-0.701 5.667,-1 8.521,-1.356 2.103,-0.262 4.229,-0.321 6.346,-0.466 2.317,-0.159 4.457,0.495 6.483,1.524 0.791,0.402 1.366,0.926 1.029,2.106 -0.693,2.429 -1.069,4.979 -0.097,7.389 0.545,1.351 1.556,2.542 2.482,3.705 2.061,2.587 4.966,4.092 7.739,5.721 2.568,1.508 5.235,2.856 7.902,4.188 0.582,0.291 1.354,0.306 2.032,0.278 1.048,-0.043 2.095,-0.204 3.134,-0.368 3.913,-0.616 7.822,-1.251 11.731,-1.883 1.647,-0.267 3.285,-0.62 4.941,-0.796 2.272,-0.242 4.579,-0.628 6.833,-0.457 3.024,0.229 5.573,1.63 7.439,4.191 1.243,1.705 2.639,3.314 4.108,4.828 0.502,0.518 1.444,0.599 2.173,0.91 0.769,0.329 1.605,0.581 2.267,1.065 1.411,1.035 1.838,3.19 0.984,4.693 -0.14,0.249 -0.695,0.505 -0.932,0.417 -1.431,-0.532 -2.952,-0.463 -4.431,-1.12 -2.371,-1.053 -4.857,-0.246 -6.751,1.502 -1.172,1.081 -2.076,2.495 -2.924,3.869 -0.659,1.071 -0.187,2.118 0.837,2.854 3.019,2.172 6.595,2.895 10.051,3.915 2.961,0.874 5.948,1.663 8.935,2.451 2.257,0.595 4.529,1.132 6.797,1.688 2.392,0.585 4.802,1.101 7.173,1.76 1.861,0.517 3.438,1.68 4.31,3.341 1.658,3.157 2.942,6.52 2.63,10.175 -0.175,2.049 -0.77,4.062 -1.183,6.089 -0.477,2.33 -1.063,4.643 -1.42,6.991 -0.916,6.04 -2.727,11.661 -6.179,16.836 -3.714,5.567 -7.682,10.978 -10.855,16.911 -1.365,2.553 -3.298,4.812 -5.051,7.145 -3.836,5.104 -8.244,9.685 -12.881,14.062 -0.614,0.579 -0.956,1.46 -1.381,2.225 -0.876,1.573 -2.18,2.455 -3.944,2.88 -0.94,0.228 -1.752,0.948 -2.653,1.38 -0.719,0.343 -1.76,1.026 -2.167,0.772 -0.678,-0.422 -1.305,-1.464 -1.327,-2.265 -0.033,-1.142 -0.374,-1.941 -1.185,-2.624 -0.998,-0.842 -1.035,-1.848 -0.352,-2.833 0.665,-0.961 0.756,-1.818 0.13,-2.83 -0.197,-0.318 -0.251,-0.983 -0.051,-1.248 1.767,-2.333 1.643,-5.256 2.495,-7.867 1.251,-3.837 2.191,-7.777 3.252,-11.676 0.717,-2.633 1.464,-5.261 2.096,-7.914 0.326,-1.364 0.424,-2.783 0.642,-4.174 0.713,-4.535 2.298,-8.775 4.315,-12.878 0.442,-0.899 0.613,-1.928 0.979,-2.87 0.315,-0.814 0.653,-1.641 1.119,-2.373 0.885,-1.391 0.9,-2.95 -0.222,-4.154 -1.283,-1.376 -2.652,-2.675 -4.002,-3.989 -0.213,-0.208 -0.501,-0.379 -0.786,-0.468 -1.413,-0.442 -2.838,-0.85 -4.256,-1.274 -0.127,-0.037 -0.252,-0.09 -0.363,-0.159 -1.621,-1.009 -3.238,-2.021 -4.856,-3.032 -0.037,-0.023 -0.064,-0.066 -0.104,-0.082 -2.099,-0.837 -4.198,-1.674 -6.299,-2.506 -0.081,-0.032 -0.188,-0.005 -0.261,-0.046 -2.352,-1.356 -4.297,-0.025 -6.427,0.786 -3.041,1.159 -6.189,2.053 -9.33,2.924 -3.31,0.918 -6.66,1.684 -9.998,2.5 -1.793,0.438 -3.574,0.998 -5.396,1.231 -2.754,0.35 -5.547,0.393 -8.306,0.708 -1.229,0.14 -2.395,0.317 -3.614,-0.077 -0.404,-0.131 -1.081,-0.025 -1.389,0.248 -1.867,1.659 -3.646,3.418 -5.496,5.1 -0.49,0.446 -1.079,0.862 -1.697,1.073 -1.765,0.602 -3.135,1.665 -4.393,3.026 -1.757,1.905 -3.704,3.623 -6.203,4.544 -0.204,0.076 -0.455,0.041 -0.925,0.075 z"
   id="path7"
   style="fill-rule:evenodd" />
</g>
</svg>