<?xml version="1.0" encoding="UTF-8" standalone="no"?>
<!-- Created with Inkscape (http://www.inkscape.org/) -->

<svg
   xmlns:svg="http://www.w3.org/2000/svg"
   xmlns="http://www.w3.org/2000/svg"
   version="1.1"
   width="247.12961mm"
   height="116.09949mm"
   viewBox="0 0 875.65609 411.37613"
   id="svg4308">
  <defs
     id="defs4310" />
  <g
     transform="translate(-1082.172,-226.67414)"
     id="layer1">
    <g
       transform="translate(1082.172,226.67414)"
       id="g6472"
       style="fill:#000000;fill-opacity:1;stroke:#000000;stroke-opacity:1">
      <path
         d="m 743.57802,125.40668 -6.60702,0.14363 0.28726,-4.73983 -2.87262,-1.14904 -5.88888,0.86178 -4.30893,1.29268 -10.91596,-12.35227 -37.63134,-27.864427 -48.40367,-24.417281 -56.44701,-13.788582 -31.16794,-9.048757 -6.89429,-8.04334 34.61509,3.303515 60.46868,14.506737 50.12724,23.411864 39.64217,28.869844 z"
         id="path6447"
         style="fill:#000000;fill-opacity:1;fill-rule:evenodd;stroke:#000000;stroke-width:1px;stroke-linecap:butt;stroke-linejoin:miter;stroke-opacity:1" />
      <path
         d="m 740.99267,140.20068 8.47423,-0.14363 8.04334,0.71815 23.98639,68.79928 -1.14905,9.76691 -2.72899,0.28727 -5.02709,0.43089 -1.8672,0 0.43089,-1.8672 -18.67204,-57.3088 z"
         id="path6449"
         style="fill:#000000;fill-opacity:1;fill-rule:evenodd;stroke:#000000;stroke-width:1px;stroke-linecap:butt;stroke-linejoin:miter;stroke-opacity:1" />
      <path
         d="m 768.71346,237.8698 9.04876,0.14363 -3.30352,25.56633 -2.01083,29.15711 1.57994,5.31435 6.03251,21.54466 -16.08668,-24.99181 1.43631,-32.17336 z"
         id="path6451"
         style="fill:#000000;fill-opacity:1;fill-rule:evenodd;stroke:#000000;stroke-width:1px;stroke-linecap:butt;stroke-linejoin:miter;stroke-opacity:1" />
      <g
         id="g6422"
         style="fill:#000000;fill-opacity:1;stroke:#000000;stroke-opacity:1">
        <path
           d="m 206.375,58.141753 2.84375,3.453125 0,3.25 -4.0625,6.09375 22.54688,9.140625 L 247,74.594878 l 34.73438,-10.15625 10.96875,-4.875 0.20312,-3.453125 -0.8125,-6.703125 -2.23437,-7.515625 -16.04688,0 -13.40625,2.03125 -19.5,4.46875 -18.07812,4.0625 -13.20313,4.265625 z"
           id="path6348"
           style="fill:#000000;fill-opacity:1;fill-rule:evenodd;stroke:#000000;stroke-width:1px;stroke-linecap:butt;stroke-linejoin:miter;stroke-opacity:1" />
        <path
           d="m 293.3125,58.954253 14.01563,3.859375 31.07812,13 0.40625,-5.28125 -2.03125,-16.25 -1.21875,-7.71875 -3.04687,-9.75 0,-3.65625 -1.21875,-1.21875 -12.79688,1.625 -22.34375,6.5 -5.89062,2.4375 1.625,7.515625 1.21875,6.5 z"
           id="path6350"
           style="fill:#000000;fill-opacity:1;fill-rule:evenodd;stroke:#000000;stroke-width:1px;stroke-linecap:butt;stroke-linejoin:miter;stroke-opacity:1" />
        <path
           d="m 331.90625,31.735503 2.64063,-1.421875 11.375,-2.4375 19.5,-5.6875 8.9375,-2.234375 4.875,0.203125 1.82812,1.21875 0.40625,4.265625 2.23438,16.65625 0.8125,2.84375 0,8.125 1.01562,11.171875 2.64063,6.5 1.01562,4.46875 -1.625,2.4375 -51.39062,-27.015625 -0.60938,-4.46875 -3.04687,-9.953125 0.20312,-3.046875 z"
           id="path6352"
           style="fill:#000000;fill-opacity:1;fill-rule:evenodd;stroke:#000000;stroke-width:1px;stroke-linecap:butt;stroke-linejoin:miter;stroke-opacity:1" />
        <path
           d="m 381.0625,21.173003 9.95313,-2.640625 14.01562,-3.25 6.29688,-1.015625 8.125,-2.640625 11.78125,-1.421875 2.84375,1.421875 0.20312,2.4375 0.8125,21.53125 3.85938,21.125 2.64062,12.59375 -0.40625,2.640625 -1.21875,1.421875 -1.82812,2.640625 -54.4375,-34.734375 -2.23438,-15.4375 z"
           id="path6354"
           style="fill:#000000;fill-opacity:1;fill-rule:evenodd;stroke:#000000;stroke-width:1px;stroke-linecap:butt;stroke-linejoin:miter;stroke-opacity:1" />
        <path
           d="m 433.90945,11.938137 10.1978,-1.579942 28.86985,-6.0325048 12.92679,-2.0108349 8.04334,-0.1436311 0.71816,1.1490485 -1.00542,28.5825823 1.72357,13.070427 3.59078,11.203223 3.30352,7.756077 0.43089,5.31435 -1.14905,2.154466 -2.58536,1.867204 -26.57175,-7.899709 -37.34407,-29.875262 z"
           id="path6356"
           style="fill:#000000;fill-opacity:1;fill-rule:evenodd;stroke:#000000;stroke-width:1px;stroke-linecap:butt;stroke-linejoin:miter;stroke-opacity:1" />
        <path
           d="m 494.52176,3.0330106 18.24114,-1.8672039 7.61245,-0.86178635 22.69371,0.28726213 12.92679,0.28726213 4.88346,1.00541749 2.15447,1.2926796 1.00541,1.8672038 -1.14905,3.0162524 0.57453,6.4633981 2.15447,17.092097 1.57994,18.672038 5.88887,21.831922 -1.57994,2.72899 -77.91426,-42.909915 0.8125,-16.25 z"
           id="path6358"
           style="fill:#000000;fill-opacity:1;fill-rule:evenodd;stroke:#000000;stroke-width:1px;stroke-linecap:butt;stroke-linejoin:miter;stroke-opacity:1" />
        <path
           d="m 564.18282,5.4747387 9.62329,-0.4308932 28.29532,4.308932 9.33601,1.4363105 15.51216,4.883456 1.43631,1.579942 -1.43631,3.016252 -0.71816,13.070427 0.28727,9.479651 -2.15447,10.628698 -1.43631,4.883457 0.71816,17.092096 0.28726,3.303515 1.29268,4.308932 1.72357,2.298097 0.71816,2.72899 -0.28727,2.154466 -1.57994,0.861787 L 565.4755,32.046486 562.74651,7.7728357 z"
           id="path6360"
           style="fill:#000000;fill-opacity:1;fill-rule:evenodd;stroke:#000000;stroke-width:1px;stroke-linecap:butt;stroke-linejoin:miter;stroke-opacity:1" />
        <path
           d="m 628.38591,17.539748 1.72357,-0.143631 23.84276,8.186971 13.93221,4.739825 9.33602,4.596194 7.03792,5.314349 2.15447,2.441729 -1.8672,0.718155 -2.44173,7.899709 -1.57994,8.043339 -3.15989,9.623282 -6.17613,26.428116 -1.72357,15.368524 -1.86721,2.44173 -2.15446,0.28726 -39.21129,-70.953746 0.14364,-10.341437 0.43089,-12.208641 z"
           id="path6362"
           style="fill:#000000;fill-opacity:1;fill-rule:evenodd;stroke:#000000;stroke-width:1px;stroke-linecap:butt;stroke-linejoin:miter;stroke-opacity:1" />
        <path
           d="m 685.95313,42.907378 5.07812,2.234375 15.23438,9.140625 13.60937,10.5625 12.59375,10.96875 1.82813,3.65625 -2.84375,1.421875 -9.14063,11.78125 -7.71875,8.124997 -2.4375,3.25 -5.48437,9.54688 -4.26563,14.82812 -3.04687,-0.60937 0.8125,-3.25 -1.21875,-0.8125 -4.0625,0.40625 -14.82813,-62.968752 0.8125,-4.46875 1.42188,-6.09375 2.03125,-7.3125 2.64062,-0.609375 z"
           id="path6364"
           style="fill:#000000;fill-opacity:1;fill-rule:evenodd;stroke:#000000;stroke-width:1px;stroke-linecap:butt;stroke-linejoin:miter;stroke-opacity:1" />
        <path
           d="m 734.09375,79.876128 9.34375,7.71875 7.92188,8.734375 12.59375,14.015627 8.125,10.5625 3.65625,6.09375 -12.59375,-0.40625 -9.75,-1.21875 -16.45313,0.40625 -0.40625,-3.04688 0.20313,-1.82812 -2.64063,-1.42188 -5.48437,1.21875 -5.6875,-28.640622 8.53125,-11.375 z"
           id="path6366"
           style="fill:#000000;fill-opacity:1;fill-rule:evenodd;stroke:#000000;stroke-width:1px;stroke-linecap:butt;stroke-linejoin:miter;stroke-opacity:1" />
        <path
           d="m 727.39063,143.8605 -13.60938,45.90625 5.28125,-0.20312 4.875,-1.21875 6.09375,-3.04688 6.70313,-6.90625 7.51562,-12.1875 4.46875,-6.70312 4.26563,-7.51563 5.07812,-5.6875 6.70313,-5.28125 -8.53125,-0.20312 -7.51563,-1.01563 -14.01562,0.20313 -2.4375,-0.60938 z"
           id="path6368"
           style="fill:#000000;fill-opacity:1;fill-rule:evenodd;stroke:#000000;stroke-width:1px;stroke-linecap:butt;stroke-linejoin:miter;stroke-opacity:1" />
        <path
           d="m 765.98438,141.01675 5.48437,1.82813 6.09375,0.8125 4.875,0.60937 3.45313,5.6875 4.26562,8.9375 4.0625,13.20313 2.64063,8.9375 1.42187,6.29687 0.60938,9.75 -0.40625,2.84375 -2.4375,1.01563 -5.28125,0.8125 -5.48438,2.4375 -3.65625,2.84375 -6.70312,8.125 -2.84375,5.07812 -4.26563,1.21875 -2.4375,0 0.20313,-3.04687 0,-2.64063 -1.82813,-2.03125 -5.48437,0.60938 -8.125,-1.21875 1.01562,-57.28125 1.625,-4.46875 5.48438,-5.48438 6.5,-4.875 z"
           id="path6370"
           style="fill:#000000;fill-opacity:1;fill-rule:evenodd;stroke:#000000;stroke-width:1px;stroke-linecap:butt;stroke-linejoin:miter;stroke-opacity:1" />
        <path
           d="m 745.875,267.15738 15.4375,-28.64063 5.28125,-0.60937 14.625,0 5.6875,1.01562 5.28125,0.20313 -1.01562,5.6875 -1.42188,11.375 0,5.07812 -1.625,1.42188 -5.48437,-0.40625 -5.6875,1.21875 -10.35938,0.40625 -8.9375,1.625 -10.5625,3.85937 -1.42187,-1.42187 z"
           id="path6372"
           style="fill:#000000;fill-opacity:1;fill-rule:evenodd;stroke:#000000;stroke-width:1px;stroke-linecap:butt;stroke-linejoin:miter;stroke-opacity:1" />
        <path
           d="m 772.6875,219.62613 8.9375,-0.8125 14.42188,-0.60938 0,-16.85937 -4.875,0.20312 -5.28125,2.4375 -4.26563,3.25 -6.90625,7.71875 z"
           id="path6374"
           style="fill:#000000;fill-opacity:1;fill-rule:evenodd;stroke:#000000;stroke-width:1px;stroke-linecap:butt;stroke-linejoin:miter;stroke-opacity:1" />
        <path
           d="m 759.6875,296.20425 16.04688,-32.09375 6.70312,-1.82812 5.28125,0.20312 -0.8125,6.70313 -2.23437,9.54687 -1.21875,6.09375 -1.01563,3.85938 -1.82812,1.625 -7.3125,1.42187 -9.14063,3.25 -4.0625,2.64063 z"
           id="path6376"
           style="fill:#000000;fill-opacity:1;fill-rule:evenodd;stroke:#000000;stroke-width:1px;stroke-linecap:butt;stroke-linejoin:miter;stroke-opacity:1" />
        <path
           d="m 781.82813,290.1105 -0.60938,15.64063 1.21875,4.875 0.40625,1.82812 -3.25,11.17188 -11.57812,-29.85938 6.09375,-2.4375 6.5,-1.01562 z"
           id="path6378"
           style="fill:#000000;fill-opacity:1;fill-rule:evenodd;stroke:#000000;stroke-width:1px;stroke-linecap:butt;stroke-linejoin:miter;stroke-opacity:1" />
        <path
           d="m 783.65625,312.45425 2.84375,2.4375 1.625,4.875 1.42188,4.26563 2.4375,2.23437 0,2.4375 -2.23438,0.20313 -7.3125,-4.46875 -2.64062,-2.03125 z"
           id="path6380"
           style="fill:#000000;fill-opacity:1;fill-rule:evenodd;stroke:#000000;stroke-width:1px;stroke-linecap:butt;stroke-linejoin:miter;stroke-opacity:1" />
      </g>
      <g
         id="g6343"
         style="fill:#000000;fill-opacity:1;stroke:#000000;stroke-opacity:1">
        <path
           d="m 803.68763,168.28055 3.08806,-2.58536 2.2981,-4.59619 1.07723,-6.10432 0,-6.82248 -0.9336,-2.94443 -1.72357,-2.01084 -0.78997,-1.79539 -1.65176,-2.22628 -7.397,-4.30893 -13.14224,-5.24254 -8.61787,-2.29809 -13.57313,-0.71816 -8.54605,-0.9336 -17.0921,0.0718 -1.43631,1.72357 -1.50812,3.01625 -1.3645,4.02167 -0.28726,4.81164 1.57994,0.64634 7.397,0.14363 8.61787,-0.28726 7.18155,1.00542 8.40242,0.14363 7.46881,1.8672 10.12599,1.57994 3.59078,1.14905 7.25337,3.51896 6.17613,0.50271 2.51355,-0.57452 2.65717,5.52979 0.78997,6.60703 -0.21544,3.73441 z"
           id="path6313"
           style="fill:#000000;fill-opacity:1;fill-rule:evenodd;stroke:#000000;stroke-width:1px;stroke-linecap:butt;stroke-linejoin:miter;stroke-opacity:1" />
        <path
           d="m 855.46663,310.04441 3.66259,-0.43089 4.59619,-2.80081 4.1653,-4.1653 4.88346,-6.67884 1.8672,-4.09349 0.57453,-4.23711 -0.64634,-2.94444 0.21544,-2.87262 -2.15446,-6.17614 -5.81706,-9.04875 -5.88887,-8.25879 -14.93764,-16.23031 -8.3306,-7.03792 -7.61244,-6.10432 -7.03793,-3.94986 -6.31976,9.91055 -0.64634,2.15446 1.72357,1.57994 5.88887,4.73983 14.36311,14.57855 6.17614,4.88346 5.31435,6.31976 5.02708,4.95528 8.47424,12.56771 2.72899,3.15989 0.78997,0.43089 -0.35908,1.50813 -0.28726,3.80622 -1.00542,3.01625 -2.15447,3.59078 -4.95527,6.10432 z"
           id="path6323"
           style="fill:#000000;fill-opacity:1;fill-rule:evenodd;stroke:#000000;stroke-width:1px;stroke-linecap:butt;stroke-linejoin:miter;stroke-opacity:1" />
        <path
           d="m 660.7029,395.86397 0.28726,1.3645 1.86721,3.2317 4.23711,4.81164 4.45257,3.08807 6.17613,2.08265 5.17072,0.50271 2.36991,-2.2981 2.08265,0.14363 2.58536,-0.78997 3.15989,-3.15988 1.14904,-3.2317 6.10432,-10.48507 3.44715,-6.53521 4.95527,-13.35769 3.2317,-12.35228 2.01084,-12.20864 0.28726,-11.1314 -1.07724,-8.47424 -11.84956,0 -1.8672,0.57453 -0.21545,2.22628 -2.36991,7.25337 -1.3645,5.88887 -1.50812,9.55147 -2.15447,5.60161 -1.57994,10.41325 -1.14905,4.81164 -3.2317,10.91596 -4.02167,8.54605 -2.87262,5.02709 -0.78997,2.44173 0.21545,2.87262 -1.93902,1.14905 -3.66259,-0.35908 -4.66801,-2.2981 z"
           id="path6333"
           style="fill:#000000;fill-opacity:1;fill-rule:evenodd;stroke:#000000;stroke-width:1px;stroke-linecap:butt;stroke-linejoin:miter;stroke-opacity:1" />
      </g>
      <g
         transform="translate(-114.46957,-27.398436)"
         id="g6195"
         style="fill:#000000;fill-opacity:1;stroke:#000000;stroke-opacity:1">
        <path
           d="m 313.01563,112.09375 0.8125,-4.46875 1.42187,-4.26563 1.42188,-2.23437 3.25,-3.453126 2.64062,-3.859375 1.21875,-2.4375 -0.20312,-2.4375 -2.64063,-3.25 3.25,-1.625 12.79688,-4.0625 16.04687,-3.65625 13.8125,-3.25 10.35938,-2.234375 12.39062,-1.625 14.82813,0 0.8125,3.046875 1.21875,4.875 0.8125,6.296875 0,4.0625 1.01562,9.546875 0.8125,3.656251 0.8125,4.46875 -3.25,2.84375 -8.32812,6.29687 -8.32813,7.10938 -7.3125,8.32812 -3.85937,6.09375 -3.65625,0.40625 -7.10938,0.40625 -4.875,1.42188 -4.67187,0.8125 0.20312,-3.65625 -0.60937,-4.875 -2.4375,-4.67188 -3.25,-3.85937 -4.26563,-1.82813 -6.70312,-1.21875 -11.375,0 -5.6875,0 -2.64063,-2.4375 -3.25,-1.42187 -2.23437,-2.03125 z"
           id="path4138"
           style="opacity:0.98999999;fill:#000000;fill-opacity:1;fill-rule:evenodd;stroke:#000000;stroke-width:1;stroke-linecap:square;stroke-miterlimit:4;stroke-opacity:1;stroke-dasharray:none;stroke-dashoffset:0" />
        <path
           d="m 405.03125,69.843749 5.89063,-2.4375 10.15625,-3.046875 11.98437,-3.453125 6.09375,-0.8125 6.29688,-0.8125 1.42187,1.21875 0.20313,3.65625 1.42187,5.078125 1.42188,5.28125 1.42187,7.71875 0.8125,7.109375 1.01563,8.9375 0,4.875001 -1.42188,1.42187 -2.64062,1.21875 -3.65625,1.625 -3.85938,0.60938 -8.32812,0.40625 L 425.75,107.21875 418.64063,106 l -6.70313,-1.01563 -2.23437,0 -0.64186,-4.76255 -0.86178,-3.375328 -0.86179,-8.905126 0,-4.524378 -0.86179,-6.319767 -1.8672,-7.037922 z"
           id="path4140"
           style="opacity:0.98999999;fill:#000000;fill-opacity:1;fill-rule:evenodd;stroke:#000000;stroke-width:1;stroke-linecap:square;stroke-miterlimit:4;stroke-opacity:1;stroke-dasharray:none;stroke-dashoffset:0" />
        <path
           d="m 446.26172,59.502415 2.44173,-1.292679 7.54063,-1.867204 8.47423,-2.369913 10.48507,-3.303514 9.12057,-2.369913 4.73983,-0.789971 4.38074,0.07182 2.01084,0.789971 0.50271,1.077233 0.35908,5.888873 0.86178,7.037923 1.07724,7.396999 0.64634,2.58536 0.14363,8.689679 1.22086,10.987777 1.07723,3.159883 1.29268,2.944437 0.64634,2.728984 0.28727,2.22628 -1.3645,2.01084 -2.87262,1.36449 -9.26421,0.28727 -16.87665,-0.57453 -11.27503,-1.43631 -6.60703,-1.07723 -2.15447,-1.00542 0,-4.811636 -1.79539,-15.44034 -1.36449,-7.684262 -2.87262,-10.269621 -0.28727,-4.02167 z"
           id="path4142"
           style="opacity:0.98999999;fill:#000000;fill-opacity:1;fill-rule:evenodd;stroke:#000000;stroke-width:1;stroke-linecap:square;stroke-miterlimit:4;stroke-opacity:1;stroke-dasharray:none;stroke-dashoffset:0" />
        <path
           d="m 495.59899,48.586454 5.96069,-1.579941 13.4295,-3.37533 12.28046,-2.369913 6.75066,-2.010835 7.97153,-1.220864 4.38074,-0.143631 1.86721,1.149048 0.43089,2.226282 0.21545,5.314349 0.64634,17.020282 0.9336,5.673427 3.44714,17.307543 2.01084,9.192388 0,2.944437 -3.30352,4.955274 -6.82247,1.14905 -12.99861,-0.78997 -25.49452,0.0718 -3.7344,-1.57994 -0.93361,-4.380748 -2.58536,-6.247952 -1.00541,-10.341436 -0.14363,-9.264204 -0.86179,-3.016252 -1.8672,-14.291291 -0.28727,-5.457981 z"
           id="path4144"
           style="opacity:0.98999999;fill:#000000;fill-opacity:1;fill-rule:evenodd;stroke:#000000;stroke-width:1;stroke-linecap:square;stroke-miterlimit:4;stroke-opacity:1;stroke-dasharray:none;stroke-dashoffset:0" />
        <path
           d="m 548.45522,39.681328 7.61245,-1.508126 14.794,-3.016252 17.52299,-3.518961 12.28046,-1.795389 7.82789,-0.143631 0.43089,1.077233 -0.21545,4.02167 -0.21544,15.368524 -0.28726,9.264204 1.79538,13.214058 3.2317,10.341436 3.44715,8.761495 0.43089,4.165301 -0.71815,2.872622 -3.37533,2.298098 -5.96069,1.93902 -11.27504,0.9336 -23.26823,-0.35908 -15.51216,-1.22086 -2.44173,-1.3645 1.3645,-2.154463 -0.0718,-3.231699 -4.38074,-21.113766 -2.01084,-11.275039 -0.78997,-22.047369 z"
           id="path4146"
           style="opacity:0.98999999;fill:#000000;fill-opacity:1;fill-rule:evenodd;stroke:#000000;stroke-width:1;stroke-linecap:square;stroke-miterlimit:4;stroke-opacity:1;stroke-dasharray:none;stroke-dashoffset:0" />
        <path
           d="m 609.07031,30.437499 7.61719,-0.8125 16.85938,-1.726563 22.85156,0 14.42187,0.40625 4.67188,1.117188 2.33594,1.421875 0.40625,1.929687 -0.71094,2.84375 0.50781,6.5 1.625,11.679688 1.11719,14.929687 0.8125,8.429688 1.92969,8.328125 2.03125,7.515625 1.42187,4.976563 0.50781,2.031248 -1.72656,2.33594 -4.46875,1.72656 -13.71094,0 -11.78125,-1.11719 -19.60156,-0.91406 -8.63281,-0.91406 -4.875,-1.625001 -3.55469,-1.625 -2.03125,-1.320312 -0.30469,-4.875 -3.65625,-9.140626 -3.35156,-10.257812 -1.625,-12.898438 z"
           id="path4148"
           style="opacity:0.98999999;fill:#000000;fill-opacity:1;fill-rule:evenodd;stroke:#000000;stroke-width:1;stroke-linecap:square;stroke-miterlimit:4;stroke-opacity:1;stroke-dasharray:none;stroke-dashoffset:0" />
        <path
           d="m 678.53906,32.773436 9.44532,-0.203125 16.04687,2.132813 21.53125,3.554687 12.89844,3.65625 3.45312,1.320313 0.60938,1.625 -0.8125,2.742187 -0.91406,11.476563 0,10.867187 -1.92969,11.171875 -1.32031,4.367188 0.50781,17.874996 0.60937,3.14844 1.01563,3.45313 1.52344,2.64062 0.71093,1.82813 -0.10156,3.04687 -2.13281,1.52344 -14.05555,0.25294 -8.18697,-1.43631 -10.1978,-2.2981 -9.33602,-1.8672 -2.01084,-1.29268 -1.29268,-3.59078 -1.72357,-3.59078 -2.58536,-3.01625 -3.15988,-1.57994 0.35907,-0.861786 -2.36991,-8.258787 -3.44714,-14.075844 -2.08265,-22.980971 -1.72358,-13.357689 -0.35907,-5.45798 z"
           id="path4150"
           style="opacity:0.98999999;fill:#000000;fill-opacity:1;fill-rule:evenodd;stroke:#000000;stroke-width:1;stroke-linecap:square;stroke-miterlimit:4;stroke-opacity:1;stroke-dasharray:none;stroke-dashoffset:0" />
        <path
           d="m 742.72656,44.960936 2.33594,-0.101562 9.85156,3.351562 17.46875,6.09375 10.46094,3.859375 8.73438,3.960938 4.26562,3.148437 3.96094,3.453125 0.91406,1.117188 -1.625,1.320312 -2.03125,5.6875 -2.13281,9.445313 -1.92969,5.992188 -4.0625,16.453128 -3.14844,13.71093 -0.40625,4.77344 -0.8125,6.70313 -0.60937,3.85937 -1.72656,2.74219 -2.53907,0.60937 -5.28125,-1.42187 -9.44531,-2.53906 -7.21094,-1.92969 -7.51562,-1.625 -3.04688,-0.8125 -1.52343,-2.53906 -0.91407,-4.77344 -2.23437,-4.36719 -2.13281,-2.33594 1.625,-1.32031 -0.20313,-3.14844 -0.8125,-2.03125 -1.42187,-2.53906 -1.11719,-3.85937 -0.50781,-2.84375 -0.50782,-17.367191 1.52344,-5.179688 1.92969,-10.765625 -0.10156,-11.273437 0.71093,-11.070313 z"
           id="path4152"
           style="opacity:0.98999999;fill:#000000;fill-opacity:1;fill-rule:evenodd;stroke:#000000;stroke-width:1;stroke-linecap:square;stroke-miterlimit:4;stroke-opacity:1;stroke-dasharray:none;stroke-dashoffset:0" />
        <path
           d="m 800.41406,70.249999 4.46875,2.03125 7.21094,3.960937 7.82031,4.773438 6.70313,4.875 5.89062,4.773437 5.07813,4.265626 5.07812,4.671875 3.55469,3.249998 1.72656,2.23438 0.40625,1.42187 -3.14843,2.74219 -3.45313,4.57031 -5.38281,7.00781 -5.6875,5.78907 -3.85938,4.875 -3.55468,5.58593 -2.03125,3.85938 -2.33594,7.92187 -2.03125,6.70313 -2.23438,-0.10156 -0.50781,0 0.30469,-1.42188 0.10156,-2.03125 -1.21875,-0.71094 -6.29687,0.60938 -5.6875,1.92969 -4.57032,2.03125 -2.84375,-1.625 -5.78906,-1.625 -3.04687,-1.11719 -1.82813,-4.875 -1.32031,-5.17969 0.10156,-0.71094 2.03125,-2.74218 1.625,-15.33594 7.82031,-32.398439 1.42188,-4.265625 1.72656,-7.617187 2.53906,-7.414063 1.52344,-0.609375 z"
           id="path4154"
           style="opacity:0.98999999;fill:#000000;fill-opacity:1;fill-rule:evenodd;stroke:#000000;stroke-width:1;stroke-linecap:square;stroke-miterlimit:4;stroke-opacity:1;stroke-dasharray:none;stroke-dashoffset:0" />
        <path
           d="m 848.35156,107.21875 3.04688,2.13281 8.32812,7.51563 8.73438,9.64843 7.71875,8.42969 6.29687,8.02344 3.85938,4.77344 2.13281,3.45312 1.625,3.25 -1.82812,0 -12.08594,-0.40625 -8.42969,-0.91406 -14.82812,0 -2.13282,0.40625 0.10157,-2.4375 0.20312,-2.94531 -2.13281,-0.8125 -5.17969,0.60937 -7.61719,2.23438 -5.99218,2.03125 -7.10938,2.84375 -4.875,2.53906 -1.42187,0.50781 0.20312,-2.84375 4.36719,-14.52344 5.38281,-9.24218 4.36719,-5.28125 5.48437,-5.6875 9.14063,-11.98438 2.53906,-2.13281 z"
           id="path4156"
           style="opacity:0.98999999;fill:#000000;fill-opacity:1;fill-rule:evenodd;stroke:#000000;stroke-width:1;stroke-linecap:square;stroke-miterlimit:4;stroke-opacity:1;stroke-dasharray:none;stroke-dashoffset:0" />
        <path
           d="m 825.29688,217.3125 4.77343,0.20312 5.48438,-0.71093 5.07812,-1.625 5.28125,-3.55469 5.07813,-5.6875 3.65625,-5.99219 3.75781,-6.09375 3.55469,-5.17969 5.07812,-8.73437 1.92969,-2.53906 3.85938,-3.96094 4.16406,-3.25 2.64062,-1.92969 -7.51562,0 -7.92188,-0.91406 -9.14062,0 -5.78906,0.20312 -2.4375,-0.60937 -1.52344,1.52344 -2.74219,2.13281 -4.46875,0.8125 -9.24219,1.21875 -10.96875,2.64062 0.91407,3.55469 3.14843,8.42969 1.52344,7.71875 0.91406,7.51562 0.40625,9.85157 z"
           id="path4158"
           style="opacity:0.98999999;fill:#000000;fill-opacity:1;fill-rule:evenodd;stroke:#000000;stroke-width:1;stroke-linecap:square;stroke-miterlimit:4;stroke-opacity:1;stroke-dasharray:none;stroke-dashoffset:0" />
        <path
           d="m 879.53125,168.25781 5.07813,1.52344 5.58593,1.01562 6.39844,0.71094 3.55469,5.6875 4.16406,8.83594 3.25,9.34375 3.55469,11.78125 1.82812,8.32812 0.50782,9.14063 -0.71094,2.84375 -3.25,0.91406 -4.36719,0.8125 -5.6875,2.64063 -3.45312,2.84375 -4.26563,5.17968 -3.04687,3.75782 -2.23438,4.0625 -4.46875,1.11718 -2.53906,0 0.50781,-3.25 0,-2.94531 -1.52344,-1.11719 -7.21093,0 -6.5,-0.71093 -10.25782,1.11718 -13.10156,1.42188 -3.65625,0.20312 -2.90375,-4.04348 -2.01083,-3.59078 -1.72358,-4.59619 -1.65175,-5.31435 -1.14905,-3.73441 0,-4.73982 2.36991,0 5.17072,-0.64634 4.88346,-1.79539 5.52979,-3.51896 4.95527,-5.81706 7.54063,-12.35227 3.44715,-4.95527 2.80081,-4.73983 2.15446,-4.02167 2.2981,-2.72899 3.30351,-3.59078 z"
           id="path4160"
           style="opacity:0.98999999;fill:#000000;fill-opacity:1;fill-rule:evenodd;stroke:#000000;stroke-width:1;stroke-linecap:square;stroke-miterlimit:4;stroke-opacity:1;stroke-dasharray:none;stroke-dashoffset:0" />
        <path
           d="m 886.74219,247.375 5.17969,-0.10156 4.16406,-1.01563 7.00781,-0.10156 5.89063,-0.40625 1.11718,-0.10156 0.30469,-2.64063 0.10156,-5.48437 0.20313,-5.78907 -0.50781,-3.75781 -4.875,1.11719 -5.6875,2.53906 -3.75782,2.84375 -6.90625,8.73438 z"
           id="path4162"
           style="opacity:0.98999999;fill:#000000;fill-opacity:1;fill-rule:evenodd;stroke:#000000;stroke-width:1;stroke-linecap:square;stroke-miterlimit:4;stroke-opacity:1;stroke-dasharray:none;stroke-dashoffset:0" />
        <path
           d="m 851.09375,264.74219 -1.82812,4.67187 -3.14844,9.03906 -1.32031,6.29688 -0.71094,4.67187 0.60937,1.52344 2.94532,1.01563 7.21093,1.01562 3.75782,1.32031 3.04687,2.74219 1.82813,-0.8125 4.46875,-1.92969 4.97656,-1.625 6.60156,-1.32031 11.98438,-0.71094 6.19531,-0.8125 4.97656,0.10157 1.32031,-0.8125 0.10157,-3.14844 0.40625,-5.99219 0.91406,-6.90625 1.21875,-6.5 -5.38281,-0.30469 -5.48438,-0.91406 -13.71094,0 -6.39843,0.20313 -0.91407,1.21875 -2.13281,0.50781 -3.96094,-0.71094 -10.46093,-1.32031 -4.0625,-0.8125 z"
           id="path4164"
           style="opacity:0.98999999;fill:#000000;fill-opacity:1;fill-rule:evenodd;stroke:#000000;stroke-width:1;stroke-linecap:square;stroke-miterlimit:4;stroke-opacity:1;stroke-dasharray:none;stroke-dashoffset:0" />
        <path
           d="m 861.65625,297.03906 -1.21875,3.85938 -0.71094,4.36718 -0.20312,7.21094 0,5.58594 0.71094,2.13281 2.4375,0.20313 3.25,0 4.26562,0.8125 2.84375,1.72656 1.82813,2.03125 1.42187,-0.91406 2.33594,-1.52344 4.77344,-2.03125 4.77343,-1.42188 3.25,-0.50781 2.53907,-0.50781 2.23437,-0.91406 1.625,-3.35157 0.91406,-6.09375 1.42188,-6.80468 1.42187,-5.28125 0.50782,-2.84375 0.40625,-2.84375 -4.97657,-0.30469 -5.89062,1.01562 -12.08594,0.71094 -6.80469,1.42188 -4.875,1.52343 z"
           id="path4166"
           style="opacity:0.98999999;fill:#000000;fill-opacity:1;fill-rule:evenodd;stroke:#000000;stroke-width:1;stroke-linecap:square;stroke-miterlimit:4;stroke-opacity:1;stroke-dasharray:none;stroke-dashoffset:0" />
        <path
           d="m 875.16406,324.96875 -0.10156,4.46875 -0.10156,5.17969 0.60937,5.28125 1.72657,7.21093 2.13281,6.70313 2.64062,5.58594 2.23438,1.72656 2.23437,1.42187 1.72657,-0.8125 3.14843,-5.17968 3.45313,-5.99219 1.52344,-4.77344 0.8125,-5.28125 -0.40625,-3.96094 -1.11719,-3.25 0,-4.77343 0.10156,-5.89063 0.20313,-5.38281 -1.82813,0.71094 -5.78906,1.11718 -4.67188,1.32032 -4.77343,2.03125 z"
           id="path4168"
           style="opacity:0.98999999;fill:#000000;fill-opacity:1;fill-rule:evenodd;stroke:#000000;stroke-width:1;stroke-linecap:square;stroke-miterlimit:4;stroke-opacity:1;stroke-dasharray:none;stroke-dashoffset:0" />
        <path
           d="m 897.50781,340 1.11719,0.30469 1.21875,0.91406 1.52344,2.4375 0.91406,3.35156 1.21875,3.04688 1.72656,2.53906 1.32032,1.11719 0.10156,1.21875 -0.50781,1.21875 -1.92969,0.10156 -2.74219,-1.52344 -3.85937,-2.64062 -2.94532,-1.01563 0.60938,-1.92969 1.11719,-3.96093 z"
           id="path4170"
           style="opacity:0.98999999;fill:#000000;fill-opacity:1;fill-rule:evenodd;stroke:#000000;stroke-width:1;stroke-linecap:square;stroke-miterlimit:4;stroke-opacity:1;stroke-dasharray:none;stroke-dashoffset:0" />
        <path
           d="m 894.46246,351.07348 -6.17614,10.55688 -1.22086,0.78997 0.50271,1.07724 4.52438,3.51896 9.47965,6.82247 5.02708,3.59078 7.25337,3.37533 6.24795,2.51354 4.52438,1.72357 3.44715,-0.35907 0.71815,-0.78997 0.21545,-1.93902 1.00542,-1.22087 0.9336,-1.29268 -0.43089,-1.07723 -2.51355,-1.8672 -4.02167,-3.37533 -4.95527,-3.6626 -5.02709,-4.52437 -7.61244,-5.5298 -9.19239,-7.03792 -1.43631,-0.78997 z"
           id="path4172"
           style="opacity:0.98999999;fill:#000000;fill-opacity:1;fill-rule:evenodd;stroke:#000000;stroke-width:1;stroke-linecap:square;stroke-miterlimit:4;stroke-opacity:1;stroke-dasharray:none;stroke-dashoffset:0" />
        <path
           d="m 929.22118,381.81053 1.72357,-2.44173 1.29268,-0.4309 2.01083,-0.21544 1.43632,-0.50271 1.50812,-0.64634 1.29268,-1.22086 0.86179,-1.50813 0.86178,-1.79539 0.0718,-0.78997 0.86179,0.78997 0.35907,1.57994 0.0718,2.08265 -0.43089,2.15447 -1.79539,2.15447 -3.2317,2.15446 -3.59078,1.3645 -1.79539,0.43089 -2.44172,-0.21545 0.57452,-0.86178 z"
           id="path4174"
           style="opacity:0.98999999;fill:#000000;fill-opacity:1;fill-rule:evenodd;stroke:#000000;stroke-width:1;stroke-linecap:square;stroke-miterlimit:4;stroke-opacity:1;stroke-dasharray:none;stroke-dashoffset:0" />
        <path
           d="m 929.7957,385.25767 3.73441,1.00542 3.73441,-0.14363 2.87262,-0.64634 2.8008,-0.9336 2.2981,-1.14905 0.50271,-0.4309 -2.08265,0.14364 -3.80622,0.14363 -2.51355,-0.86179 -1.22086,0.86179 -3.66259,1.36449 z"
           id="path4176"
           style="opacity:0.98999999;fill:#000000;fill-opacity:1;fill-rule:evenodd;stroke:#000000;stroke-width:1;stroke-linecap:square;stroke-miterlimit:4;stroke-opacity:1;stroke-dasharray:none;stroke-dashoffset:0" />
        <path
           d="m 874.92863,325.36352 -1.79538,-2.36992 -2.94444,-1.8672 -4.30893,-0.71815 -4.5962,-0.0718 -0.43089,4.52438 -0.78997,9.12057 0.35908,6.10432 1.14905,6.67885 1.22086,7.397 1.8672,4.52437 2.36992,3.94986 1.57994,-0.14363 1.14905,-0.64634 1.65175,-0.50271 2.36992,0 1.65175,-0.28726 -0.43089,-1.07724 1.29268,-0.78997 0,-1.14905 -0.28726,-1.43631 -0.9336,-1.22086 -0.35908,-2.80081 -0.21545,-5.0989 -0.21545,-4.59619 0.35908,-8.25879 z"
           id="path4178"
           style="opacity:0.98999999;fill:#000000;fill-opacity:1;fill-rule:evenodd;stroke:#000000;stroke-width:1;stroke-linecap:square;stroke-miterlimit:4;stroke-opacity:1;stroke-dasharray:none;stroke-dashoffset:0" />
        <path
           d="m 868.24979,362.99486 1.22086,2.94443 3.08807,5.67343 4.52438,6.60703 4.02167,5.60161 4.02167,5.0989 2.08265,2.58536 2.36991,1.43631 0.86179,-1.07723 -0.71816,-1.36449 -1.14904,-2.08266 0,-2.08265 -1.43631,-1.50812 -1.07724,-2.01084 0,-2.15446 -0.57452,-1.57994 -1.43631,-1.43632 -0.78997,-2.72899 0,-1.22086 -1.86721,-1.79539 -2.22628,-3.87804 -2.2981,-4.52437 -1.93902,-2.2981 -3.01625,0.0718 -2.08265,0.50271 z"
           id="path4180"
           style="opacity:0.98999999;fill:#000000;fill-opacity:1;fill-rule:evenodd;stroke:#000000;stroke-width:1;stroke-linecap:square;stroke-miterlimit:4;stroke-opacity:1;stroke-dasharray:none;stroke-dashoffset:0" />
        <path
           d="m 876.29313,359.40408 4.30893,4.23712 2.80081,4.1653 3.01625,3.2317 1.79539,1.29268 2.65717,3.23169 2.08265,2.15447 2.51355,1.93902 1.8672,2.65717 1.8672,2.01084 1.3645,1.07723 0.71816,1.72358 1.72357,1.79538 1.65176,1.50813 0.43089,0.9336 -1.14905,0.57453 -2.58536,-0.28727 -4.38075,-2.72899 -4.59619,-4.02167 -5.17072,-4.59619 -2.44173,-2.2981 -0.71815,-0.64634 -0.71816,-2.44173 0.0718,-1.29267 -2.15447,-1.79539 -1.93902,-3.37533 -2.36991,-5.09891 -2.01084,-2.22628 0.4309,-0.0718 -0.50271,-1.22087 z"
           id="path4182"
           style="opacity:0.98999999;fill:#000000;fill-opacity:1;fill-rule:evenodd;stroke:#000000;stroke-width:1;stroke-linecap:square;stroke-miterlimit:4;stroke-opacity:1;stroke-dasharray:none;stroke-dashoffset:0" />
        <path
           d="m 844.55066,291.25114 3.08807,0.86179 7.10974,0.78997 3.80622,1.43631 1.22087,1.00541 -0.78997,2.72899 -1.22087,3.94986 -1.43631,7.68426 -1.36449,9.12057 -0.0718,8.61787 0.43089,9.83873 0.78997,5.96068 0.28727,6.75066 0.57452,2.2981 0.50271,2.72899 0,1.93902 0.14363,1.29268 0,1.14905 -2.65717,0.64634 -3.80623,-0.43089 -3.15988,-0.0718 -1.50813,-0.0718 -1.22086,-2.729 -0.50271,-1.65175 -1.57994,-9.33602 -1.14905,-7.68426 -1.57994,-25.4227 1.50813,-11.34686 1.57994,-8.11515 z"
           id="path4184"
           style="opacity:0.98999999;fill:#000000;fill-opacity:1;fill-rule:evenodd;stroke:#000000;stroke-width:1;stroke-linecap:square;stroke-miterlimit:4;stroke-opacity:1;stroke-dasharray:none;stroke-dashoffset:0" />
        <path
           d="m 847.84375,359.80469 -0.10156,1.82812 1.72656,5.38281 4.46875,8.63282 4.77344,9.44531 4.77344,8.22656 4.36718,5.89063 3.65625,4.16406 1.32032,0.8125 1.01562,-1.01563 0,-2.33593 -1.01562,-2.03125 -1.42188,-3.75782 -1.52344,-4.16406 -1.01562,-2.64062 -1.21875,-2.4375 -1.21875,-1.92969 -1.52344,-2.94531 -0.40625,-1.52344 0,-1.625 -0.60937,-1.32031 -0.8125,-1.11719 -1.42188,-2.4375 -0.91406,-2.74219 -1.72656,-3.35156 -0.40625,-1.625 -1.42188,-2.74219 -0.20312,-2.64062 -1.72657,0.10156 -4.16406,-0.40625 z"
           id="path4186"
           style="opacity:0.98999999;fill:#000000;fill-opacity:1;fill-rule:evenodd;stroke:#000000;stroke-width:1;stroke-linecap:square;stroke-miterlimit:4;stroke-opacity:1;stroke-dasharray:none;stroke-dashoffset:0" />
        <path
           d="m 857.89844,359.70312 3.75781,4.875 2.74219,3.45313 0.91406,0.50781 0.60938,2.53906 2.74218,3.55469 1.72657,0.91406 0.40625,2.74219 1.42187,2.53906 2.4375,1.21875 0.50781,2.64063 1.01563,2.13281 1.32031,1.21875 2.33594,2.03125 -0.20313,1.625 1.11719,2.13281 1.11719,1.01563 1.32031,0.91406 -0.10156,2.03125 0.40625,0.91406 2.03125,1.42188 1.11719,1.92969 0.40625,2.23437 -0.10157,0.91406 -2.4375,-1.11718 -4.97656,-3.96094 -5.6875,-6.29688 -4.97656,-5.99218 -1.21875,-2.03125 -3.14844,-5.48438 -0.20312,-1.625 0.30468,-0.91406 -0.60937,-1.42188 -2.53906,-3.65625 -0.91407,-3.04687 -1.72656,-3.04688 -0.20312,-1.52343 -1.42188,-2.53907 -0.30469,-2.94531 0.91407,-0.91406 z"
           id="path4188"
           style="opacity:0.98999999;fill:#000000;fill-opacity:1;fill-rule:evenodd;stroke:#000000;stroke-width:1;stroke-linecap:square;stroke-miterlimit:4;stroke-opacity:1;stroke-dasharray:none;stroke-dashoffset:0" />
        <path
           d="m 747.09375,133.21875 0.71094,2.64062 0.91406,2.94532 1.21875,4.57031 -0.40625,4.77344 -1.11719,2.03125 1.52344,0.50781 2.4375,2.64062 4.16406,3.25 3.65625,3.04688 2.23438,1.21875 3.25,1.52344 4.26562,0.91406 3.96094,-0.60938 3.14844,-0.91406 3.04687,-1.625 2.64063,-3.14844 1.01562,-2.23437 0.60938,-3.96094 -1.01563,-3.96094 -1.52343,-6.19531 -1.82813,0.40625 -20.3125,-5.17969 -10.15625,-2.53906 -2.64062,-0.50781 z"
           id="path4190"
           style="opacity:0.98999999;fill:#000000;fill-opacity:1;fill-rule:evenodd;stroke:#000000;stroke-width:1;stroke-linecap:square;stroke-miterlimit:4;stroke-opacity:1;stroke-dasharray:none;stroke-dashoffset:0" />
        <path
           d="m 759.28125,176.58594 0,-6.29688 1.01563,-5.17969 1.32031,-4.46875 3.65625,1.625 4.875,1.01563 4.26562,-0.71094 2.74219,-0.91406 2.84375,-1.52344 2.84375,-3.04687 0.91406,-2.13282 0.60938,-4.16406 5.17969,2.33594 4.36718,0.91406 2.94532,1.92969 -3.04688,1.21875 -6.09375,2.94531 -10.15625,4.36719 -6.5,4.57031 -4.97656,3.14844 -4.77344,3.35156 z"
           id="path4192"
           style="opacity:0.98999999;fill:#000000;fill-opacity:1;fill-rule:evenodd;stroke:#000000;stroke-width:1;stroke-linecap:square;stroke-miterlimit:4;stroke-opacity:1;stroke-dasharray:none;stroke-dashoffset:0" />
        <path
           d="m 817.26076,176.13084 -9.04876,1.00542 -8.47423,4.59619 -9.33602,3.59078 -7.03792,2.72899 -11.20322,4.59619 -6.60703,2.58536 -5.45798,0.86179 0.57452,7.46881 3.59078,12.63954 6.75066,13.78858 8.18697,12.4959 3.44714,4.73983 3.59078,4.30893 2.58536,2.15447 1.14905,0.43089 1.00542,-1.29268 1.72357,-3.15988 2.01083,-3.59078 1.00542,-2.87262 4.1653,-0.4309 4.88346,-1.00541 1.72357,-1.14905 5.17072,2.44173 2.72899,0.43089 3.59078,0.28726 1.57994,-0.86178 2.44173,-4.88346 1.29268,-9.04876 1.8672,-12.63953 -0.57452,-10.34144 -0.57453,-8.47423 -2.2981,-11.05959 -3.87803,-10.77233 z"
           id="path4194"
           style="opacity:0.98999999;fill:#000000;fill-opacity:1;fill-rule:evenodd;stroke:#000000;stroke-width:1;stroke-linecap:square;stroke-miterlimit:4;stroke-opacity:1;stroke-dasharray:none;stroke-dashoffset:0" />
        <path
           d="m 790.68901,253.69162 5.74525,4.02167 4.45256,2.44172 4.30893,1.72358 4.1653,0.14363 2.87262,-1.00542 1.43631,-3.44715 2.15447,-6.46339 1.14905,-3.30352 -0.28726,-1.8672 -4.1653,-2.01084 -1.57995,-1.14905 -4.45256,-2.29809 -2.15446,1.43631 -4.5962,0.86178 -4.02167,0.28727 -1.14905,3.30351 z"
           id="path4196"
           style="opacity:0.98999999;fill:#000000;fill-opacity:1;fill-rule:evenodd;stroke:#000000;stroke-width:1;stroke-linecap:square;stroke-miterlimit:4;stroke-opacity:1;stroke-dasharray:none;stroke-dashoffset:0" />
        <path
           d="m 817.11713,247.80274 4.59619,-1.57994 6.17614,-1.43631 10.19781,-1.14905 26.57174,-2.87262 6.4634,0.71816 7.32519,0 1.72357,1.43631 0,2.72899 -0.71816,3.30351 -1.72357,3.44715 -2.44173,6.60703 -0.14363,5.02708 0.57452,1.72358 -1.00541,1.00541 -2.2981,0.57453 -4.45256,-0.86179 -11.49049,-1.43631 -2.15446,-0.71816 -4.1653,0 -17.66663,-0.57452 -10.1978,-0.14363 -9.19239,-1.00542 -3.15988,-0.57452 2.44173,-1.14905 z"
           id="path4198"
           style="opacity:0.98999999;fill:#000000;fill-opacity:1;fill-rule:evenodd;stroke:#000000;stroke-width:1;stroke-linecap:square;stroke-miterlimit:4;stroke-opacity:1;stroke-dasharray:none;stroke-dashoffset:0" />
        <path
           d="m 879.88391,248.95179 3.01625,-0.28726 5.17072,-1.43631 4.1653,-0.14363 5.17072,-0.86179 18.24114,-0.57452 16.80484,-0.14364 3.15988,1.72358 4.02167,2.29809 -2.01084,2.44173 -2.01083,3.44715 -4.59619,7.46881 -1.00542,2.87263 -1.14905,1.14904 -5.17072,1.00542 -4.73982,-1.00542 -13.21406,-0.28726 -7.03792,-0.71815 -3.59078,-0.71816 -19.3902,0.28726 -0.71815,-1.29268 0.28726,-4.88345 2.2981,-6.75066 z"
           id="path4200"
           style="opacity:0.98999999;fill:#000000;fill-opacity:1;fill-rule:evenodd;stroke:#000000;stroke-width:1;stroke-linecap:square;stroke-miterlimit:4;stroke-opacity:1;stroke-dasharray:none;stroke-dashoffset:0" />
        <path
           d="m 930.58567,264.75121 7.46882,6.0325 14.794,14.93763 5.74524,4.45257 5.02709,6.0325 5.31435,5.31435 4.1653,6.03251 4.1653,6.31976 3.01625,3.59078 1.29268,0 1.57994,-1.29268 2.44173,-0.28726 1.57994,-1.57994 1.86721,-2.44173 0.14363,-2.58536 -2.15447,-6.17614 -5.74524,-9.04875 -5.88888,-8.18698 -7.32518,-8.18697 -7.75608,-8.18697 -7.61244,-6.60703 -8.33061,-6.46339 -6.89429,-4.02167 -6.46339,10.1978 z"
           id="path4202"
           style="opacity:0.98999999;fill:#000000;fill-opacity:1;fill-rule:evenodd;stroke:#000000;stroke-width:1;stroke-linecap:square;stroke-miterlimit:4;stroke-opacity:1;stroke-dasharray:none;stroke-dashoffset:0" />
        <path
           d="m 981.28744,317.60744 -0.86179,1.8672 0,3.30352 -1.14905,3.15988 -2.01083,3.59078 -2.87262,3.59077 -2.15447,2.58536 -1.8672,1.57995 -1.14905,0.43089 4.45256,-0.71816 4.1653,-2.58536 4.02167,-3.87803 5.31435,-7.03793 1.86721,-4.1653 0.57452,-4.45256 -0.71816,-3.01625 -3.15988,4.1653 -2.58536,0.14363 z"
           id="path4204"
           style="opacity:0.98999999;fill:#000000;fill-opacity:1;fill-rule:evenodd;stroke:#000000;stroke-width:1;stroke-linecap:square;stroke-miterlimit:4;stroke-opacity:1;stroke-dasharray:none;stroke-dashoffset:0" />
        <path
           d="m 696.3234,113.0768 1.43632,5.60161 0.28726,4.5962 8.04334,1.8672 10.91596,3.44715 10.48507,6.0325 13.35768,10.19781 5.74525,6.75066 0.71815,0.71815 1.86721,-2.87262 1.00541,-6.4634 -3.44714,-10.91596 -0.86179,-1.57994 -1.14905,-5.17072 -2.29809,-4.73982 -2.2981,-2.01084 -0.28726,0.4309 -14.21948,0.28726 -19.82109,-4.1653 -8.18697,-1.43631 z"
           id="path4206"
           style="opacity:0.98999999;fill:#000000;fill-opacity:1;fill-rule:evenodd;stroke:#000000;stroke-width:1;stroke-linecap:square;stroke-miterlimit:4;stroke-opacity:1;stroke-dasharray:none;stroke-dashoffset:0" />
        <path
           d="m 747.74333,152.71898 2.29809,3.15988 2.58536,6.89429 1.57994,5.74524 1.29268,8.61787 -2.58536,0.14363 -0.86178,-0.43089 0,-2.72899 0.86178,-2.15447 0.57453,-4.59619 -2.44173,-6.75066 -4.59619,-7.03793 z"
           id="path4208"
           style="opacity:0.98999999;fill:#000000;fill-opacity:1;fill-rule:evenodd;stroke:#000000;stroke-width:1;stroke-linecap:square;stroke-miterlimit:4;stroke-opacity:1;stroke-dasharray:none;stroke-dashoffset:0" />
        <path
           d="m 755.4994,197.24461 0,8.3306 -3.44714,11.49048 -3.30352,6.4634 -4.45256,5.88888 -4.02167,1.14904 -2.72899,0.86179 -3.87804,0.14363 -2.2981,-1.8672 -3.44714,-1.14905 -3.30352,-0.86179 -3.15988,0.14363 -3.30351,2.2981 -1.72358,2.2981 -2.29809,1.8672 -1.72358,-0.86178 -3.7344,-4.88346 -4.45257,-6.75066 -3.30351,-6.03251 -3.15988,-6.60702 -1.72358,-6.03251 -1.57994,-6.31977 -1.14905,-5.60161 -0.71815,-5.88887 8.90512,5.60161 13.07043,5.60161 9.76691,1.57994 10.77233,-0.14363 2.2981,-1.00542 -0.14363,-0.57452 2.2981,1.29268 4.02166,-0.28726 8.47424,0 z"
           id="path4210"
           style="opacity:0.98999999;fill:#000000;fill-opacity:1;fill-rule:evenodd;stroke:#000000;stroke-width:1;stroke-linecap:square;stroke-miterlimit:4;stroke-opacity:1;stroke-dasharray:none;stroke-dashoffset:0" />
        <path
           d="m 714.27729,234.15779 2.44173,-1.72357 1.43631,-2.44173 3.30351,-2.15447 3.15988,-0.28726 4.88346,1.43631 2.01084,3.15989 2.01083,2.87262 3.87804,3.59077 2.2981,2.2981 1.14904,3.44715 -0.71815,2.15446 -3.30352,2.58536 -4.73982,1.14905 -2.15447,0.14363 -2.29809,1.72357 -2.01084,1.72358 -1.8672,0.28726 -2.15447,-2.58536 -3.15988,-4.88346 -2.2981,-5.60161 z"
           id="path4212"
           style="opacity:0.98999999;fill:#000000;fill-opacity:1;fill-rule:evenodd;stroke:#000000;stroke-width:1;stroke-linecap:square;stroke-miterlimit:4;stroke-opacity:1;stroke-dasharray:none;stroke-dashoffset:0" />
        <path
           d="m 729.93307,250.24447 2.15447,0.14363 4.30893,-1.14905 3.73441,-2.15446 3.01625,1.29268 8.47423,4.02167 3.87804,1.8672 3.59078,2.2981 6.4634,5.02708 4.73982,5.17072 3.44715,2.58536 3.01625,1.43631 2.2981,3.01625 2.2981,4.45257 4.30893,3.15988 5.45798,5.02709 2.15446,2.87262 0.28727,1.43631 2.15446,1.8672 3.87804,4.5962 1.00542,3.01625 0,2.2981 -1.43631,1.72357 -3.15989,0.86179 -6.60703,-0.28727 -3.30351,0.57453 -3.30351,1.8672 -4.45257,3.15989 -2.87262,1.72357 -5.88887,-5.60161 -10.34144,-12.20864 -13.35769,-13.78859 -7.32518,-8.18697 -5.31435,-5.88887 -4.88346,-6.60703 -3.15988,-5.74524 z"
           id="path4214"
           style="opacity:0.98999999;fill:#000000;fill-opacity:1;fill-rule:evenodd;stroke:#000000;stroke-width:1;stroke-linecap:square;stroke-miterlimit:4;stroke-opacity:1;stroke-dasharray:none;stroke-dashoffset:0" />
        <path
           d="m 775.89501,312.00583 2.2981,4.59619 8.04334,9.62328 8.3306,9.76692 6.60703,7.03792 3.01625,5.45798 1.86721,3.30351 3.30351,3.44715 2.72899,0.86179 1.57994,-1.00542 1.86721,-0.57453 6.4634,0 5.74524,-0.14363 2.2981,-0.28726 1.14904,-1.29268 0.28727,-1.8672 0,-2.72899 -3.30352,-5.74525 -3.59077,-5.45798 -3.73441,-4.73982 -3.87804,-4.73983 -1.29268,-2.15446 -4.02167,-3.87804 -5.88887,-5.74524 -4.1653,-3.59078 -5.02709,-3.44715 -4.1653,-3.7344 -3.73441,-0.14364 -2.87262,0.57453 -5.45798,3.44714 z"
           id="path4216"
           style="opacity:0.98999999;fill:#000000;fill-opacity:1;fill-rule:evenodd;stroke:#000000;stroke-width:1;stroke-linecap:square;stroke-miterlimit:4;stroke-opacity:1;stroke-dasharray:none;stroke-dashoffset:0" />
        <path
           d="m 813.81362,355.09515 1.8672,-0.57453 11.92138,0 1.14905,8.04334 -0.28727,11.20323 -2.01083,12.35227 -3.30351,12.4959 -5.02709,13.35769 -5.60161,10.77233 -3.87804,6.31977 -1.29268,3.30351 -2.87262,2.87262 -2.58536,1.14905 -2.01084,-0.57452 -1.14905,-1.57995 -3.7344,-3.30351 -2.15447,-0.71816 -0.14363,-2.01083 0.71815,-2.87262 3.30352,-5.74524 3.59078,-7.61245 4.1653,-14.65037 1.8672,-11.63412 2.15447,-5.60161 1.72357,-10.77233 1.14905,-4.73982 1.43631,-4.45256 1.00542,-3.01626 z"
           id="path4218"
           style="opacity:0.98999999;fill:#000000;fill-opacity:1;fill-rule:evenodd;stroke:#000000;stroke-width:1;stroke-linecap:square;stroke-miterlimit:4;stroke-opacity:1;stroke-dasharray:none;stroke-dashoffset:0" />
        <path
           d="m 799.45051,436.2467 -1.8672,2.01083 -5.60162,-0.43089 -6.0325,-2.15446 -4.59619,-3.30352 -4.30894,-4.73982 -1.72357,-3.15989 -0.14363,-1.29268 2.87262,2.2981 4.59619,3.59078 4.5962,2.29809 3.59078,0.4309 2.44172,-1.29268 2.2981,0.57452 3.59078,3.30352 1.14905,1.8672 z"
           id="path4220"
           style="opacity:0.98999999;fill:#000000;fill-opacity:1;fill-rule:evenodd;stroke:#000000;stroke-width:1;stroke-linecap:square;stroke-miterlimit:4;stroke-opacity:1;stroke-dasharray:none;stroke-dashoffset:0" />
        <path
           d="m 619.62442,98.426434 -3.87804,6.319766 -3.15989,9.91054 -1.72357,12.20865 0.43089,9.19238 2.44173,8.90513 4.88346,8.76149 7.03792,10.48507 3.73441,4.1653 4.88345,1.86721 8.33061,4.02167 4.30893,1.14905 5.88887,-0.14364 5.17072,-2.15446 6.0325,-7.32519 4.30894,-8.76149 2.15446,-9.19239 1.29268,-8.61786 -0.14363,-6.03251 2.87262,-0.14363 7.89971,0 7.32519,-1.00542 3.87803,-1.57994 2.58536,-2.58536 2.01084,-4.59619 -0.28726,-4.45256 -2.01084,-7.03793 -3.01625,-6.89429 -2.58536,-2.72899 -3.30351,-1.57994 -1.29268,2.01084 -4.45257,1.43631 -14.07584,-0.14364 -12.20864,-1.14904 -18.09752,-0.4309 -8.90512,-1.14905 -5.74525,-1.867199 z"
           id="path4222"
           style="opacity:0.98999999;fill:#000000;fill-opacity:1;fill-rule:evenodd;stroke:#000000;stroke-width:1;stroke-linecap:square;stroke-miterlimit:4;stroke-opacity:1;stroke-dasharray:none;stroke-dashoffset:0" />
        <path
           d="m 698.04698,123.27461 -2.01084,5.02709 -2.58536,2.15446 -4.02167,1.57994 -7.03792,1.00542 -11.05959,0 0.43089,5.88887 -1.14905,8.7615 -2.44172,8.3306 4.1653,7.32519 6.60703,8.04334 7.46881,9.04875 7.61245,5.88888 7.89971,4.88345 12.63953,5.31435 10.05417,1.57994 10.77233,-0.28726 2.2981,-1.00542 -0.71815,-0.71815 1.00541,-2.01084 -0.43089,-1.57994 -0.71816,-1.43631 0,-3.59078 1.00542,-2.15446 0.14363,-1.00542 2.15447,-1.72357 4.1653,-1.00542 2.44173,-1.43631 3.59077,-1.8672 1.86721,-1.72358 -0.43089,-2.29809 1.29268,-2.2981 0.43089,-4.02167 -2.01084,-6.4634 -3.7344,-5.45798 -1.43631,-2.01083 0.14363,-2.58536 -5.60162,-6.4634 -12.63953,-10.19781 -11.63412,-6.60703 -12.065,-3.44714 z"
           id="path4224"
           style="opacity:0.98999999;fill:#000000;fill-opacity:1;fill-rule:evenodd;stroke:#000000;stroke-width:1;stroke-linecap:square;stroke-miterlimit:4;stroke-opacity:1;stroke-dasharray:none;stroke-dashoffset:0" />
        <path
           d="m 737.54552,196.52645 2.2981,1.29268 3.30351,-0.43089 12.35227,-0.14363 2.15447,-1.43631 1.43631,-2.58536 0.14363,-1.29268 -0.28726,-2.58536 -0.86179,-2.72899 -1.43631,-2.44173 -0.14363,-2.72899 0.28726,-2.15447 -1.14905,-1.8672 -3.30351,0 -2.87262,1.29268 -3.87804,1.8672 -1.43631,1.00542 -4.1653,0.86179 -2.01084,1.72357 -0.43089,1.43631 -0.86179,2.01084 -0.14363,2.87262 1.57994,3.30351 -1.29268,2.01084 z"
           id="path4226"
           style="opacity:0.98999999;fill:#000000;fill-opacity:1;fill-rule:evenodd;stroke:#000000;stroke-width:1;stroke-linecap:square;stroke-miterlimit:4;stroke-opacity:1;stroke-dasharray:none;stroke-dashoffset:0" />
        <path
           d="m 756.79208,178.7162 4.1653,-2.87262 10.48507,-6.89429 6.17614,-4.5962 11.63411,-5.02708 9.33602,-4.45257 8.7615,-3.30351 6.17613,-0.43089 1.00542,0.86178 -0.28726,3.30352 2.58536,0.28726 -0.57453,3.15988 -4.88345,2.44173 -2.2981,4.45256 -1.57994,6.4634 -0.28726,5.31435 -7.32519,4.1653 -11.63411,4.88346 -13.64496,5.31435 -9.19238,3.44714 -5.31435,1.00542 -2.2981,-0.43089 1.43631,-2.58536 -0.28726,-3.87804 -0.86179,-2.87262 -1.57994,-2.2981 -0.14363,-2.72899 z"
           id="path4228"
           style="opacity:0.98999999;fill:#000000;fill-opacity:1;fill-rule:evenodd;stroke:#000000;stroke-width:1;stroke-linecap:square;stroke-miterlimit:4;stroke-opacity:1;stroke-dasharray:none;stroke-dashoffset:0" />
        <path
           d="m 811.37189,161.04958 12.06501,-6.31977 12.06501,-4.45256 8.3306,-2.44173 4.88345,-0.71815 2.72899,1.00541 -0.57452,5.60161 -1.72357,2.01084 -1.43631,3.01625 -0.86179,3.15988 0,2.87263 -0.14363,2.01083 -3.87804,3.59078 -2.87262,0.86178 -12.06501,1.57995 -9.91054,2.44172 -4.88346,1.14905 -5.74524,0.86179 0.14363,-5.17072 1.57994,-6.60703 z"
           id="path4230"
           style="opacity:0.98999999;fill:#000000;fill-opacity:1;fill-rule:evenodd;stroke:#000000;stroke-width:1;stroke-linecap:square;stroke-miterlimit:4;stroke-opacity:1;stroke-dasharray:none;stroke-dashoffset:0" />
        <path
           d="m 846.70513,166.50756 0.14363,-4.45256 1.43631,-4.45257 1.57994,-2.87262 1.57994,-1.57994 2.2981,0 14.65037,-0.14363 6.89429,0.86179 14.93763,0.71815 7.89971,2.15447 13.64495,5.31435 7.75608,4.59619 1.72357,2.01084 0.14363,1.72357 -2.01083,1.00542 -1.29268,2.15446 -1.14905,2.87262 -2.72899,0.57453 -6.0325,-0.4309 -7.89971,-3.7344 -4.30893,-1.43631 -8.04334,-1.00542 -4.88346,-1.00542 -3.87804,-1.14905 -8.18697,0.14363 -7.32518,-1.14905 -9.04876,0.28727 -3.73441,0 -2.58536,-0.14363 z"
           id="path4232"
           style="opacity:0.98999999;fill:#000000;fill-opacity:1;fill-rule:evenodd;stroke:#000000;stroke-width:1;stroke-linecap:square;stroke-miterlimit:4;stroke-opacity:1;stroke-dasharray:none;stroke-dashoffset:0" />
        <path
           d="m 921.53691,170.24197 2.15447,2.44172 0.86179,3.01626 0.14363,6.31976 -1.43631,6.8943 -2.15447,4.30893 -3.15988,2.72899 2.01083,-3.44715 0.28727,-4.02167 -0.71816,-6.4634 -1.00542,-1.8672 -1.72357,-3.87804 1.72357,-3.59078 0.86179,-1.43631 z"
           id="path4234"
           style="opacity:0.98999999;fill:#000000;fill-opacity:1;fill-rule:evenodd;stroke:#000000;stroke-width:1;stroke-linecap:square;stroke-miterlimit:4;stroke-opacity:1;stroke-dasharray:none;stroke-dashoffset:0" />
        <path
           d="m 617.03906,99.288221 1.57994,1.292679 -3.01625,4.45256 -3.15989,9.62328 -1.43631,12.63954 0,8.61786 2.87262,9.04876 5.02709,9.33602 7.61245,10.77233 3.01625,4.02167 0.86179,4.1653 -1.57995,6.4634 -5.17071,6.89429 -8.61787,7.89971 -6.0325,3.44714 -11.49049,3.15989 -9.62328,1.43631 -13.07043,-0.71816 -11.49048,-2.15446 -4.73983,-1.86721 -3.59077,-5.17072 -3.87804,-7.46881 -1.57994,-4.1653 -2.87263,-11.34686 -0.71815,-10.91596 -1.00542,-11.34685 0.28726,-15.08126 2.87263,-10.48507 1.8672,-7.18156 3.87804,-7.8997 3.30351,-4.45257 15.2249,1.14905 23.98638,0.57453 10.48507,-1.14905 6.4634,-2.01084 3.01625,-2.154464 1.29268,0.718156 -0.14363,0 z"
           id="path4238"
           style="opacity:0.98999999;fill:#000000;fill-opacity:1;fill-rule:evenodd;stroke:#000000;stroke-width:1;stroke-linecap:square;stroke-miterlimit:4;stroke-opacity:1;stroke-dasharray:none;stroke-dashoffset:0" />
        <path
           d="m 607.84667,198.53729 5.60161,8.47423 4.45256,6.17614 4.30893,5.17071 2.72899,2.87262 1.00542,2.2981 1.57994,1.86721 3.15989,0.71815 3.01625,0.14363 2.72899,-1.43631 2.72899,-1.14905 3.30351,-0.57452 2.729,0 -0.71816,-13.78858 -2.87262,-10.19781 -3.15988,-9.04876 -3.59078,-7.46881 -4.88346,-7.32519 -1.14905,4.45257 -5.31435,6.89429 -8.3306,7.89971 -6.31976,3.59077 z"
           id="path4240"
           style="opacity:0.98999999;fill:#000000;fill-opacity:1;fill-rule:evenodd;stroke:#000000;stroke-width:1;stroke-linecap:square;stroke-miterlimit:4;stroke-opacity:1;stroke-dasharray:none;stroke-dashoffset:0" />
        <path
           d="m 644.75985,223.24183 -3.15988,-0.14363 -2.87262,0.57452 -5.02709,2.58536 -1.57994,0 -0.28726,2.44173 -1.14905,2.15447 -1.29268,2.87262 -0.86179,3.30351 0.28726,2.2981 0.86179,1.8672 1.00542,0.86179 4.02167,0.57452 3.44714,1.43631 3.15989,0.71816 3.59077,0.28726 0.86179,-3.15988 0.28726,-7.75608 -0.43089,-7.75608 z"
           id="path4242"
           style="opacity:0.98999999;fill:#000000;fill-opacity:1;fill-rule:evenodd;stroke:#000000;stroke-width:1;stroke-linecap:square;stroke-miterlimit:4;stroke-opacity:1;stroke-dasharray:none;stroke-dashoffset:0" />
        <path
           d="m 629.96585,241.62661 -4.73982,4.1653 -7.32519,7.18155 -1.14905,2.58536 -3.44714,3.44715 -3.30352,4.88345 -2.72899,5.17072 -0.57452,3.44715 0.57452,1.72357 3.87804,1.43631 4.45257,-0.28726 6.31976,-0.4309 2.2981,1.00542 2.01083,1.43631 1.57995,0.28726 3.30351,-5.31435 3.44715,-5.17071 2.72899,-6.03251 4.02167,-7.75608 2.15446,-6.17613 0.57453,-2.2981 -2.58536,-0.14363 -5.02709,-1.29268 -1.8672,-1.00542 z"
           id="path4244"
           style="opacity:0.98999999;fill:#000000;fill-opacity:1;fill-rule:evenodd;stroke:#000000;stroke-width:1;stroke-linecap:square;stroke-miterlimit:4;stroke-opacity:1;stroke-dasharray:none;stroke-dashoffset:0" />
        <path
           d="m 612.73012,275.52354 -10.34143,11.05959 -1.86721,3.59078 -1.14904,4.30893 -0.14364,2.01083 1.29268,1.00542 2.2981,0.43089 4.5962,0.28727 2.01083,1.43631 1.57994,-0.28727 1.29268,-1.29268 1.00542,-2.29809 1.29268,-2.72899 4.02167,-5.74525 4.30893,-6.0325 2.58536,-4.30893 -3.87804,-2.2981 z"
           id="path4246"
           style="opacity:0.98999999;fill:#000000;fill-opacity:1;fill-rule:evenodd;stroke:#000000;stroke-width:1;stroke-linecap:square;stroke-miterlimit:4;stroke-opacity:1;stroke-dasharray:none;stroke-dashoffset:0" />
        <path
           d="m 600.66511,297.21183 0,6.4634 0.28727,4.1653 0.86178,2.58536 1.14905,3.30351 0.4309,3.01625 0,2.44173 0.71815,1.43631 0.43089,2.87262 0.86179,1.57995 1.72357,1.57994 2.15447,0.57452 1.57994,0 0,-2.01083 -0.14363,-1.72358 0.71815,-1.8672 -0.14363,-4.88346 0,-5.45798 0,-4.45256 0,-3.30351 -0.86178,-2.15447 -0.71816,-1.57994 -2.29809,-1.86721 -4.16531,-0.14363 z"
           id="path4248"
           style="opacity:0.98999999;fill:#000000;fill-opacity:1;fill-rule:evenodd;stroke:#000000;stroke-width:1;stroke-linecap:square;stroke-miterlimit:4;stroke-opacity:1;stroke-dasharray:none;stroke-dashoffset:0" />
        <path
           d="m 611.29381,322.77816 1.86721,-0.4309 2.44173,-1.8672 3.15988,-3.44714 2.2981,-3.44715 -0.14363,2.72899 -1.14905,3.73441 -2.44173,2.87262 -2.2981,2.87262 -1.8672,1.43631 -2.44173,0.14363 0.28726,-1.14905 -0.28726,-2.72899 z"
           id="path4250"
           style="opacity:0.98999999;fill:#000000;fill-opacity:1;fill-rule:evenodd;stroke:#000000;stroke-width:1;stroke-linecap:square;stroke-miterlimit:4;stroke-opacity:1;stroke-dasharray:none;stroke-dashoffset:0" />
        <path
           d="m 556.86719,102.44531 -2.53906,-1.52344 -1.625,2.74219 -6.60157,1.11719 -13.30468,-1.01563 -25.28907,0.40625 -3.85937,-1.625 -1.72656,2.94532 -2.64063,1.11718 -3.25,4.875 -5.07812,9.24219 -4.46875,10.66406 -3.65625,16.96094 -1.92969,21.63281 0.60937,8.02344 3.14844,10.76563 2.03125,4.0625 3.35156,4.16406 6.80469,4.67187 5.48438,2.53907 7.61718,1.82812 13.10157,-0.60937 11.375,-3.25 6.29687,-4.67188 5.28125,-7.21094 3.25,-10.66406 -3.04687,-10.66406 -0.40625,-13 -0.91407,-8.73438 0.20313,-15.03125 5.07812,-17.77343 3.85938,-7.92188 z"
           id="path4252"
           style="opacity:0.98999999;fill:#000000;fill-opacity:1;fill-rule:evenodd;stroke:#000000;stroke-width:1;stroke-linecap:square;stroke-miterlimit:4;stroke-opacity:1;stroke-dasharray:none;stroke-dashoffset:0" />
        <path
           d="m 534.92969,201.875 5.78906,-4.36719 5.17969,-7.10937 3.35156,-10.86719 1.92969,5.78906 4.0625,7.82031 3.25,4.57032 4.67187,2.03125 3.55469,0.40625 1.72656,6.5 1.625,4.67187 1.42188,7.82031 0.8125,4.97657 0.20312,4.875 -0.20312,2.23437 -2.03125,3.65625 -1.625,1.32031 -3.14844,0.50782 -2.23437,-0.20313 -2.03125,-0.60937 -3.65625,0.20312 -2.84375,0.10156 -3.04688,-0.8125 -1.82812,-2.13281 -2.23438,-5.17969 -3.75781,-8.42968 -3.14844,-7.71875 -2.13281,-4.77344 z"
           id="path4254"
           style="opacity:0.98999999;fill:#000000;fill-opacity:1;fill-rule:evenodd;stroke:#000000;stroke-width:1;stroke-linecap:square;stroke-miterlimit:4;stroke-opacity:1;stroke-dasharray:none;stroke-dashoffset:0" />
        <path
           d="m 555.64844,236.20312 -0.91406,0.50782 -0.71094,1.52343 0,2.03125 -0.91406,1.92969 -2.13282,2.84375 -0.8125,1.92969 -0.20312,2.53906 0.50781,1.52344 2.23438,1.625 3.45312,1.32031 4.0625,1.42188 3.55469,1.01562 1.21875,-0.60937 0.60937,-2.23438 0.91407,-3.45312 1.625,-2.84375 0.91406,-2.84375 0.40625,-2.74219 0.71094,-3.14844 0.50781,-1.72656 -0.10156,-1.21875 -0.91407,-0.10156 -1.01562,0.50781 -3.04688,0.71094 -2.23437,-0.10157 -2.03125,-0.8125 z"
           id="path4256"
           style="opacity:0.98999999;fill:#000000;fill-opacity:1;fill-rule:evenodd;stroke:#000000;stroke-width:1;stroke-linecap:square;stroke-miterlimit:4;stroke-opacity:1;stroke-dasharray:none;stroke-dashoffset:0" />
        <path
           d="m 550.16406,251.13281 -7.3125,3.65625 -8.83593,3.55469 -5.78907,3.96094 -5.28125,4.0625 -2.03125,1.92968 -2.03125,2.74219 -1.72656,3.35156 -0.10156,3.04688 1.42187,1.92969 5.07813,0.10156 7.21094,-0.71094 3.35156,0.20313 3.35156,1.52343 2.23438,2.23438 0.91406,1.32031 1.52344,-0.91406 4.97656,-5.6875 5.48437,-5.78906 5.89063,-7.41407 1.92969,-3.35156 3.25,-2.4375 1.11718,-2.23437 -0.91406,0.10156 -7.10937,-2.23438 -3.65625,-1.32031 z"
           id="path4258"
           style="opacity:0.98999999;fill:#000000;fill-opacity:1;fill-rule:evenodd;stroke:#000000;stroke-width:1;stroke-linecap:square;stroke-miterlimit:4;stroke-opacity:1;stroke-dasharray:none;stroke-dashoffset:0" />
        <path
           d="m 525.58594,279.16406 -3.65625,2.23438 -4.36719,2.74218 -4.46875,3.45313 -3.04687,3.75781 -1.82813,3.75781 -0.91406,3.14844 0.30469,1.52344 2.74218,1.21875 2.4375,0.50781 2.23438,1.21875 2.53906,1.11719 2.03125,-1.01563 3.45313,-2.94531 4.77343,-4.875 4.26563,-5.17969 5.6875,-4.36718 2.74219,-1.92969 -3.14844,-3.25 -3.25,-1.52344 -3.45313,0 z"
           id="path4260"
           style="opacity:0.98999999;fill:#000000;fill-opacity:1;fill-rule:evenodd;stroke:#000000;stroke-width:1;stroke-linecap:square;stroke-miterlimit:4;stroke-opacity:1;stroke-dasharray:none;stroke-dashoffset:0" />
        <path
           d="m 507.40625,299.78125 -0.40625,3.25 -1.42187,4.46875 -1.32032,4.875 -1.72656,5.28125 -0.10156,5.6875 0,4.26562 0.71094,2.64063 1.11718,1.52344 1.625,0.20312 2.03125,-0.71094 2.13282,-1.82812 0,-2.84375 0.71093,-4.0625 2.74219,-7.41406 1.625,-3.85938 1.01563,-3.55469 0.91406,-3.96093 -4.16406,-2.33594 -2.4375,-0.50781 z"
           id="path4262"
           style="opacity:0.98999999;fill:#000000;fill-opacity:1;fill-rule:evenodd;stroke:#000000;stroke-width:1;stroke-linecap:square;stroke-miterlimit:4;stroke-opacity:1;stroke-dasharray:none;stroke-dashoffset:0" />
        <path
           d="m 505.375,332.17969 2.64063,-1.11719 1.92968,-1.52344 1.72657,0 4.26562,-0.10156 2.53906,-0.71094 2.33594,-1.32031 1.32031,-1.21875 -1.42187,1.92969 -2.13281,1.82812 -3.25,2.23438 -2.74219,0.91406 -3.55469,0.8125 -2.4375,-0.20313 -0.8125,-0.40625 z"
           id="path4264"
           style="opacity:0.98999999;fill:#000000;fill-opacity:1;fill-rule:evenodd;stroke:#000000;stroke-width:1;stroke-linecap:square;stroke-miterlimit:4;stroke-opacity:1;stroke-dasharray:none;stroke-dashoffset:0" />
        <path
           d="m 498.46875,106.40625 -8.9375,0.30469 -15.74219,-0.60938 -12.89843,-1.52344 -5.48438,-1.01562 -2.23437,-1.01563 -0.30469,1.01563 -1.32031,1.21875 -3.96094,1.92969 -2.53906,3.25 -7.71875,7.61718 -8.125,10.96875 -3.55469,9.85157 -3.45313,10.5625 0.30469,10.96875 1.11719,6.80468 2.53906,7.71875 4.0625,7.71875 5.28125,5.17969 4.97656,2.64063 11.375,0.30468 11.88282,-0.20312 7.92187,-2.13281 7.3125,-2.4375 3.85938,-2.74219 -1.42188,-5.07813 -0.40625,-8.22656 1.72656,-21.73437 3.75782,-16.35157 4.67187,-11.17187 5.07813,-8.83594 3.35156,-4.97656 z"
           id="path4266"
           style="opacity:0.98999999;fill:#000000;fill-opacity:1;fill-rule:evenodd;stroke:#000000;stroke-width:1;stroke-linecap:square;stroke-miterlimit:4;stroke-opacity:1;stroke-dasharray:none;stroke-dashoffset:0" />
        <path
           d="m 482.52344,182.88281 -3.35156,2.64063 -9.03907,2.84375 1.11719,2.84375 1.82813,3.96093 2.23437,4.875 2.13281,5.99219 0.60938,4.36719 0.20312,5.28125 0,5.17969 0.8125,1.92968 0.40625,2.94532 0.20313,2.64062 1.21875,2.53906 1.32031,1.82813 2.64063,0.50781 2.84375,-0.40625 2.53906,-3.55469 2.13281,-2.33593 2.53906,-1.32032 3.65625,0 3.45313,0.40625 1.625,-0.20312 0.71094,-1.11719 0.10156,-5.28125 -0.50781,-5.48437 -1.21875,-4.77344 -1.01563,-5.6875 -4.36719,-1.92969 -7.00781,-4.26562 -3.85937,-4.77344 -1.82813,-3.75781 -1.82812,-6.60157 z"
           id="path4268"
           style="opacity:0.98999999;fill:#000000;fill-opacity:1;fill-rule:evenodd;stroke:#000000;stroke-width:1;stroke-linecap:square;stroke-miterlimit:4;stroke-opacity:1;stroke-dasharray:none;stroke-dashoffset:0" />
        <path
           d="m 487.90625,232.64844 -2.13281,2.23437 -1.42188,1.82813 -0.60937,1.92968 -0.20313,2.53907 0.30469,1.52343 1.82813,0.60938 2.23437,0.10156 2.94531,1.11719 2.64063,1.72656 1.01562,1.21875 0.8125,0.20313 1.52344,-1.42188 2.33594,-5.17969 2.4375,-7.3125 0.91406,-7.71875 -7.3125,-0.71093 -2.84375,1.52343 -2.4375,2.74219 z"
           id="path4270"
           style="opacity:0.98999999;fill:#000000;fill-opacity:1;fill-rule:evenodd;stroke:#000000;stroke-width:1;stroke-linecap:square;stroke-miterlimit:4;stroke-opacity:1;stroke-dasharray:none;stroke-dashoffset:0" />
        <path
           d="m 483.94531,242.80469 -2.53906,1.42187 -0.91406,2.4375 -2.64063,2.84375 -3.25,2.64063 -1.32031,1.32031 0.20313,1.72656 0.71093,2.33594 2.03125,1.82812 2.4375,0.71094 3.04688,0.20313 2.74219,-1.52344 4.0625,-3.25 2.74218,-3.35156 2.4375,-3.65625 0.60938,-1.625 -1.01563,-0.91407 -2.74218,-1.625 -2.53907,-1.01562 -2.33593,0 z"
           id="path4272"
           style="opacity:0.98999999;fill:#000000;fill-opacity:1;fill-rule:evenodd;stroke:#000000;stroke-width:1;stroke-linecap:square;stroke-miterlimit:4;stroke-opacity:1;stroke-dasharray:none;stroke-dashoffset:0" />
        <path
           d="m 480.89844,244.22656 -1.52344,-1.82812 -3.45312,-1.92969 -4.46875,-2.03125 -6.29688,-1.92969 -6.90625,-0.10156 -2.53906,0.10156 0,1.01563 -1.625,2.03125 1.92969,3.14843 2.84375,5.48438 0.91406,3.96094 1.625,5.38281 0.91406,2.53906 -0.60937,1.11719 -1.01563,2.74219 0.30469,1.82812 1.625,1.42188 2.33594,1.21875 1.42187,-0.60938 1.625,-2.03125 2.23438,-3.75781 0.50781,-2.84375 0.50781,-2.74219 0.8125,-2.03125 1.92969,-1.625 2.84375,-2.4375 2.74219,-2.74219 1.32031,-1.42187 z"
           id="path4274"
           style="opacity:0.98999999;fill:#000000;fill-opacity:1;fill-rule:evenodd;stroke:#000000;stroke-width:1;stroke-linecap:square;stroke-miterlimit:4;stroke-opacity:1;stroke-dasharray:none;stroke-dashoffset:0" />
        <path
           d="m 454.08594,239.45312 -4.57031,-1.52343 -6.80469,0.30468 -5.99219,1.21875 -7.00781,3.14844 -6.90625,3.96094 -5.58594,4.36719 -5.28125,4.77343 -4.77344,4.57032 -3.04687,4.57031 -3.96094,5.6875 -2.03125,3.55469 -1.01562,2.4375 -0.50782,3.14843 0.40625,2.13282 1.42188,2.53906 2.64062,0.50781 2.23438,0.60938 2.64062,-0.30469 2.33594,-1.11719 2.74219,-0.91406 3.25,0.91406 4.16406,1.32031 4.97656,0.50782 6.29688,-0.30469 5.78906,-1.42188 6.80469,-3.25 5.07812,-3.14843 4.36719,-4.36719 4.67188,-5.58594 3.14843,-4.26562 2.94532,-3.55469 -2.13282,-5.58594 -0.60937,-1.82812 -0.91406,-4.875 -3.96094,-6.90625 z"
           id="path4276"
           style="opacity:0.98999999;fill:#000000;fill-opacity:1;fill-rule:evenodd;stroke:#000000;stroke-width:1;stroke-linecap:square;stroke-miterlimit:4;stroke-opacity:1;stroke-dasharray:none;stroke-dashoffset:0" />
        <path
           d="m 398.125,284.24219 0,2.03125 2.13281,3.65625 1.92969,2.33593 4.875,3.65625 6.70313,2.94532 5.6875,1.32031 5.17968,-0.30469 2.84375,-1.42187 2.23438,-1.625 0.40625,-0.50782 -2.94531,-0.8125 -3.14844,0 -4.875,-0.30468 -2.53906,-1.52344 -3.45313,-1.21875 -1.82812,-2.03125 -2.84375,-1.82813 -2.13282,-1.32031 0.10157,-2.33594 -3.14844,0.50782 z"
           id="path4278"
           style="opacity:0.98999999;fill:#000000;fill-opacity:1;fill-rule:evenodd;stroke:#000000;stroke-width:1;stroke-linecap:square;stroke-miterlimit:4;stroke-opacity:1;stroke-dasharray:none;stroke-dashoffset:0" />
        <path
           d="m 409.90625,104.98437 2.4375,-0.10156 20.71875,3.55469 6.5,-0.40625 2.74219,-0.20313 3.55469,-0.60937 2.13281,-0.91406 -3.14844,4.16406 -7.51562,7.00781 -8.22657,10.86719 -6.80468,20.61719 0.20312,7.41406 -2.53906,2.13281 -4.97656,3.14844 -7.21094,0.40625 -9.64844,-0.71094 -7.10937,-2.4375 -6.39844,-4.57031 -2.64063,-3.45313 -2.64062,-5.6875 -0.60938,-5.07812 0.40625,-4.46875 3.55469,-5.89063 7.41406,-8.63281 9.34375,-7.71875 6.90625,-4.97656 z"
           id="path4280"
           style="opacity:0.98999999;fill:#000000;fill-opacity:1;fill-rule:evenodd;stroke:#000000;stroke-width:1;stroke-linecap:square;stroke-miterlimit:4;stroke-opacity:1;stroke-dasharray:none;stroke-dashoffset:0" />
        <path
           d="m 415.79688,161.35156 0.20312,4.16406 1.11719,3.04688 1.21875,4.16406 0.50781,4.97656 0,5.78907 -0.60937,2.64062 -0.60938,2.94531 -0.30469,3.45313 -0.50781,1.52344 -0.60937,1.92968 0,2.84375 0.60937,2.4375 1.42188,1.625 2.03125,1.52344 2.53906,-1.72656 2.84375,-1.625 3.45312,-0.30469 2.94532,0.50781 1.82812,0.10157 1.11719,-2.03125 0.91406,-4.57032 0.8125,-3.45312 0.30469,-3.04688 -1.52344,-1.11718 -5.17969,-4.875 -4.16406,-7.82032 -2.64062,-7.92187 -1.11719,-6.70313 0,-3.55468 -2.64063,2.23437 z"
           id="path4282"
           style="opacity:0.98999999;fill:#000000;fill-opacity:1;fill-rule:evenodd;stroke:#000000;stroke-width:1;stroke-linecap:square;stroke-miterlimit:4;stroke-opacity:1;stroke-dasharray:none;stroke-dashoffset:0" />
        <path
           d="m 420.57031,204.3125 -1.72656,2.03125 -2.53906,2.53906 -0.71094,1.72656 -0.20312,2.13282 1.21875,0.91406 1.92968,1.11719 1.72657,0.50781 1.42187,1.01562 1.21875,1.52344 2.13281,-2.23437 4.67188,-4.77344 2.13281,-3.45313 0.60938,-2.13281 0.40625,-3.85937 -3.85938,-0.8125 -3.25,0.40625 -2.74219,1.625 z"
           id="path4284"
           style="opacity:0.98999999;fill:#000000;fill-opacity:1;fill-rule:evenodd;stroke:#000000;stroke-width:1;stroke-linecap:square;stroke-miterlimit:4;stroke-opacity:1;stroke-dasharray:none;stroke-dashoffset:0" />
        <path
           d="m 415.1875,213.04687 -1.92969,1.82813 -2.13281,0.71094 -2.03125,0.71093 -3.45312,1.625 -1.92969,1.21875 0.10156,1.625 2.23438,2.03125 3.55468,1.92969 4.46875,0.20313 3.85938,-2.03125 2.03125,-2.23438 2.13281,-1.92969 0.8125,-1.11718 -1.21875,-1.42188 -1.42187,-1.01562 -1.92969,-0.60938 -2.94531,-1.92969 z"
           id="path4286"
           style="opacity:0.98999999;fill:#000000;fill-opacity:1;fill-rule:evenodd;stroke:#000000;stroke-width:1;stroke-linecap:square;stroke-miterlimit:4;stroke-opacity:1;stroke-dasharray:none;stroke-dashoffset:0" />
        <path
           d="m 412.24219,214.875 0,-2.33594 -1.32031,-2.53906 -2.4375,-2.84375 -4.16407,-2.4375 -5.58593,-2.94531 -5.78907,-1.625 -4.0625,-0.71094 -3.45312,0.30469 -0.71094,1.82812 0,2.4375 0.20313,5.28125 -0.91407,2.53906 -0.71093,1.72657 -0.30469,2.23437 -1.01563,1.92969 0.50782,1.01562 1.52343,1.42188 -0.30468,1.42187 1.42187,1.72657 0.91406,2.53906 1.92969,2.33594 1.32031,1.32031 2.23438,0 3.35156,-0.91406 2.13281,-2.53907 1.42188,-3.04687 2.03125,-2.74219 1.11719,-1.01562 2.53906,-0.60938 3.65625,-1.82812 2.4375,-0.91407 z"
           id="path4288"
           style="opacity:0.98999999;fill:#000000;fill-opacity:1;fill-rule:evenodd;stroke:#000000;stroke-width:1;stroke-linecap:square;stroke-miterlimit:4;stroke-opacity:1;stroke-dasharray:none;stroke-dashoffset:0" />
        <path
           d="m 384.00781,202.17969 -11.17187,0.20312 -6.39844,1.11719 -7.61719,2.03125 -6.70312,3.65625 -6.70313,3.96094 -6.39843,5.38281 -1.82813,3.14844 -1.21875,3.45312 -0.20312,2.94531 1.32031,1.82813 2.74219,2.03125 1.32031,1.11719 2.03125,-0.40625 3.25,-0.50782 5.38281,1.11719 5.07813,0.20313 8.9375,0.50781 4.875,-0.10156 2.53906,-1.11719 3.65625,-2.84375 4.26562,-4.97656 2.84375,-4.36719 0,-0.30469 -1.52343,-1.52344 -0.50782,-0.91406 1.11719,-2.33594 0.20313,-2.03125 1.82812,-4.26562 -0.40625,-7.21094 z"
           id="path4290"
           style="opacity:0.98999999;fill:#000000;fill-opacity:1;fill-rule:evenodd;stroke:#000000;stroke-width:1;stroke-linecap:square;stroke-miterlimit:4;stroke-opacity:1;stroke-dasharray:none;stroke-dashoffset:0" />
        <path
           d="M 337.28906,230.3125 z"
           id="path4292"
           style="opacity:0.98999999;fill:#000000;fill-opacity:1;fill-rule:evenodd;stroke:#000000;stroke-width:1;stroke-linecap:square;stroke-miterlimit:4;stroke-opacity:1;stroke-dasharray:none;stroke-dashoffset:0" />
        <path
           d="m 336.47656,229.5 0.60938,3.25 1.92969,5.07812 3.85937,5.17969 3.65625,2.84375 5.38281,2.94531 2.94532,0.8125 7.41406,-0.50781 -4.36719,-1.32031 -4.77344,-2.4375 -4.46875,-3.65625 -2.84375,-2.4375 -1.52343,-2.4375 -0.20313,-2.23438 0.10156,-2.13281 -2.84375,0.50781 -2.23437,-1.625 z"
           id="path4294"
           style="opacity:0.98999999;fill:#000000;fill-opacity:1;fill-rule:evenodd;stroke:#000000;stroke-width:1;stroke-linecap:square;stroke-miterlimit:4;stroke-opacity:1;stroke-dasharray:none;stroke-dashoffset:0" />
        <path
           d="m 338.10753,118.82205 -0.71816,1.57994 -1.72357,4.02167 -1.57994,3.87804 -0.57453,2.72899 -0.28726,5.45798 0.57453,4.73982 -3.15989,1.43631 -3.01625,2.01084 3.30351,-2.01084 3.01626,-1.57994 1.72357,1.8672 1.43631,1.72358 5.02709,0.28726 5.60161,-0.14363 5.60161,-2.44173 5.31435,-4.45256 0.14363,-2.2981 -0.43089,-5.17072 -2.72899,-4.88345 -3.30352,-4.16531 -4.73982,-1.43631 -6.4634,-1.43631 z"
           id="path4296"
           style="opacity:0.98999999;fill:#000000;fill-opacity:1;fill-rule:evenodd;stroke:#000000;stroke-width:1;stroke-linecap:square;stroke-miterlimit:4;stroke-opacity:1;stroke-dasharray:none;stroke-dashoffset:0" />
        <path
           d="m 327.76609,144.67564 -1.14905,1.00541 1.14905,0.28727 3.01625,-0.4309 4.1653,-0.14363 2.2981,-0.86178 -3.30351,-3.30352 -3.15989,1.29268 z"
           id="path4298"
           style="opacity:0.98999999;fill:#000000;fill-opacity:1;fill-rule:evenodd;stroke:#000000;stroke-width:1;stroke-linecap:square;stroke-miterlimit:4;stroke-opacity:1;stroke-dasharray:none;stroke-dashoffset:0" />
        <path
           d="m 333.65496,128.58896 -2.01083,-1.00542 -1.14905,-2.2981 -1.29268,-3.44714 -1.43631,-3.01625 10.77233,-0.14364 -1.14905,1.14905 z"
           id="path4300"
           style="opacity:0.98999999;fill:#000000;fill-opacity:1;fill-rule:evenodd;stroke:#000000;stroke-width:1;stroke-linecap:square;stroke-miterlimit:4;stroke-opacity:1;stroke-dasharray:none;stroke-dashoffset:0" />
        <path
           d="m 327.3352,118.96568 -6.17614,-0.14363 -8.61786,0.43089 -6.17614,0.71815 -5.17072,2.01084 -3.30351,2.15446 -2.44173,2.01084 -1.43631,1.72357 -0.43089,2.87262 1.72357,1.86721 3.15988,4.1653 2.44173,4.45256 2.44173,3.59078 3.15988,0.71815 5.74525,-0.28726 7.61244,-1.8672 8.18697,-2.58536 5.74525,-2.15447 -0.57453,-2.29809 0.28726,-5.31435 0.57453,-2.2981 -2.44173,-1.29268 -1.57994,-2.72899 -1.57994,-3.73441 z"
           id="path4302"
           style="opacity:0.98999999;fill:#000000;fill-opacity:1;fill-rule:evenodd;stroke:#000000;stroke-width:1;stroke-linecap:square;stroke-miterlimit:4;stroke-opacity:1;stroke-dasharray:none;stroke-dashoffset:0" />
        <path
           d="m 293.00737,130.88705 -13.21405,4.5962 -17.95389,8.18697 -14.07584,8.76149 -10.6287,7.61245 -8.61787,7.75608 -8.61786,8.61786 -2.87262,3.01625 -1.72357,3.30352 -2.01084,3.59078 -0.28726,1.14904 1.8672,0.86179 2.58536,2.15447 3.01626,4.45256 2.15446,1.72357 2.15447,-0.71815 4.45256,-3.73441 9.91054,-8.18697 12.78317,-9.19239 13.07043,-10.05417 11.49048,-7.18156 10.6287,-5.31435 9.19239,-3.7344 8.04334,-3.30352 -1.43631,-1.14905 -2.15447,-3.15988 -2.01083,-3.87804 -3.73441,-5.02709 -1.29268,-1.29268 z"
           id="path4304"
           style="opacity:0.98999999;fill:#000000;fill-opacity:1;fill-rule:evenodd;stroke:#000000;stroke-width:1;stroke-linecap:square;stroke-miterlimit:4;stroke-opacity:1;stroke-dasharray:none;stroke-dashoffset:0" />
        <path
           d="m 213.00487,187.62133 -4.1653,7.18155 -9.33602,15.94305 -5.60161,11.20322 -5.88888,11.77775 -5.31434,11.34685 -5.60162,13.78858 -4.30893,9.33602 -3.30351,9.04876 -1.29268,6.03251 -0.71816,5.60161 1.00542,3.87804 4.45256,0.57452 6.4634,-0.28726 1.57994,-2.01084 2.72899,-3.59077 2.15447,-5.17072 2.01083,-7.89971 4.02167,-11.05959 5.31435,-12.35227 5.88888,-13.21406 5.88887,-13.21406 5.45798,-11.20322 4.59619,-9.33602 3.59078,-7.46882 -2.01083,-1.57994 -3.15989,-4.30893 -2.58536,-2.58536 z"
           id="path4306"
           style="opacity:0.98999999;fill:#000000;fill-opacity:1;fill-rule:evenodd;stroke:#000000;stroke-width:1;stroke-linecap:square;stroke-miterlimit:4;stroke-opacity:1;stroke-dasharray:none;stroke-dashoffset:0" />
        <path
           d="m 168.91013,293.04653 0.86179,7.03792 1.29268,8.76149 3.59078,11.77775 4.30893,10.05418 2.01083,3.15988 5.17072,0.28726 3.15988,-1.00542 0.86179,-4.88345 -1.29268,-2.72899 -1.8672,-3.44715 -0.86179,-4.1653 -1.29268,-2.72899 -0.71815,-2.58536 -1.57995,-4.59619 -1.14904,-4.45256 -0.28727,-3.87804 -1.29268,-3.87804 -0.28726,-2.72899 -6.4634,0.43089 -3.59077,-0.43089 z"
           id="path4308"
           style="opacity:0.98999999;fill:#000000;fill-opacity:1;fill-rule:evenodd;stroke:#000000;stroke-width:1;stroke-linecap:square;stroke-miterlimit:4;stroke-opacity:1;stroke-dasharray:none;stroke-dashoffset:0" />
        <path
           d="m 181.2624,334.41227 2.2981,4.73983 2.2981,4.59619 2.72899,3.30352 2.58536,2.15446 2.44173,-0.43089 2.58536,-2.2981 0.28726,-1.72357 -0.71816,-2.58536 -2.58536,-3.73441 -2.15446,-3.01625 -1.72358,-2.2981 -3.01625,0.86179 z"
           id="path4310"
           style="opacity:0.98999999;fill:#000000;fill-opacity:1;fill-rule:evenodd;stroke:#000000;stroke-width:1;stroke-linecap:square;stroke-miterlimit:4;stroke-opacity:1;stroke-dasharray:none;stroke-dashoffset:0" />
        <path
           d="m 192.17837,349.7808 0.14363,2.2981 3.15988,3.59077 3.30351,2.87262 2.2981,0.57453 1.86721,-0.86179 2.29809,-2.15446 0.28726,-1.57995 -1.14904,-2.72899 -1.14905,-1.14905 -3.30352,-2.44172 -2.87262,-2.44173 -0.86178,0.71815 -2.44173,2.15447 -1.57994,0.43089 z"
           id="path4312"
           style="opacity:0.98999999;fill:#000000;fill-opacity:1;fill-rule:evenodd;stroke:#000000;stroke-width:1;stroke-linecap:square;stroke-miterlimit:4;stroke-opacity:1;stroke-dasharray:none;stroke-dashoffset:0" />
        <path
           d="m 201.37075,359.11682 0.57453,1.43631 3.87804,2.87262 4.59619,2.58536 3.01625,1.43631 1.29268,-1.43631 1.29268,-1.57994 -0.71815,-1.14905 -2.72899,-2.44173 -3.01626,-2.72899 -2.72899,-2.15447 -1.57994,-0.28726 -0.28726,0.71816 -2.01083,2.01083 z"
           id="path4314"
           style="opacity:0.98999999;fill:#000000;fill-opacity:1;fill-rule:evenodd;stroke:#000000;stroke-width:1;stroke-linecap:square;stroke-miterlimit:4;stroke-opacity:1;stroke-dasharray:none;stroke-dashoffset:0" />
        <path
           d="m 214.01029,367.30379 0.57452,1.43631 1.57994,1.14905 3.01626,2.01083 4.02167,1.57994 2.01083,-2.01083 -2.01083,-2.15447 -4.30894,-3.01625 -2.87262,-1.72357 -1.72357,2.01083 z"
           id="path4316"
           style="opacity:0.98999999;fill:#000000;fill-opacity:1;fill-rule:evenodd;stroke:#000000;stroke-width:1;stroke-linecap:square;stroke-miterlimit:4;stroke-opacity:1;stroke-dasharray:none;stroke-dashoffset:0" />
        <path
           d="m 223.48994,373.62356 2.29809,2.01083 4.45257,1.72357 2.01083,-0.71815 -4.30893,-2.01084 -2.87262,-3.30351 -0.86179,1.29268 z"
           id="path4318"
           style="opacity:0.98999999;fill:#000000;fill-opacity:1;fill-rule:evenodd;stroke:#000000;stroke-width:1;stroke-linecap:square;stroke-miterlimit:4;stroke-opacity:1;stroke-dasharray:none;stroke-dashoffset:0" />
        <path
           d="m 320.29728,85.7869 -4.45257,-1.005417 -9.33602,-1.436311 -8.47423,-0.430893 -10.77233,0.143631 -7.46881,0.861787 -5.60162,1.867203 -3.30351,1.867204 0.14363,1.29268 0.57452,1.43631 0,2.58536 -0.14363,4.596194 0.4309,5.170722 2.44172,2.44172 5.17072,1.86721 8.61787,0 8.61786,0.28726 6.89429,-0.57452 10.48507,0.14363 1.14905,-3.59078 1.57994,-2.44173 3.01625,-3.159881 4.02167,-6.319767 0,-2.010835 -3.01625,-3.878039 z"
           id="path4320"
           style="opacity:0.98999999;fill:#000000;fill-opacity:1;fill-rule:evenodd;stroke:#000000;stroke-width:1;stroke-linecap:square;stroke-miterlimit:4;stroke-opacity:1;stroke-dasharray:none;stroke-dashoffset:0" />
        <path
           d="m 270.4573,88.515891 -4.02167,1.149048 -10.19781,2.298097 -9.33602,3.447146 -8.3306,3.016252 -5.31435,2.154466 -9.76691,5.17072 -5.60161,2.72899 -7.32519,4.45256 -9.19239,5.60161 -6.17613,4.73983 -3.73441,3.30351 -1.14905,2.72899 0.14363,1.72358 1.72358,2.87262 2.29809,3.15988 3.87804,3.01625 2.72899,-0.86178 9.62328,-4.73983 10.05418,-5.60161 10.77233,-5.60161 10.48506,-5.31435 7.32519,-3.44715 6.60703,-2.44172 6.0325,-2.72899 5.31435,-2.2981 4.88346,-4.02167 -0.71816,-5.888875 0.28727,-6.894292 z"
           id="path4322"
           style="opacity:0.98999999;fill:#000000;fill-opacity:1;fill-rule:evenodd;stroke:#000000;stroke-width:1;stroke-linecap:square;stroke-miterlimit:4;stroke-opacity:1;stroke-dasharray:none;stroke-dashoffset:0" />
        <path
           d="m 190.45479,131.89247 -4.73982,3.15989 -6.60703,5.31435 -6.4634,5.02708 -6.4634,5.31435 -4.30893,4.1653 -5.02709,5.88888 -6.17613,6.31976 -3.01625,3.15989 -1.86721,2.72899 -2.87262,3.44714 -2.44173,4.30893 -0.43089,2.87263 0.14363,1.43631 1.72357,1.43631 2.01084,1.00541 1.72357,1.72358 1.57994,-0.14363 3.30352,-3.44715 5.31435,-6.60703 7.61244,-8.90512 6.75066,-7.03793 7.75608,-7.61244 6.4634,-6.17614 6.4634,-4.88345 7.32518,-4.88346 -3.87804,-2.58536 z"
           id="path4324"
           style="opacity:0.98999999;fill:#000000;fill-opacity:1;fill-rule:evenodd;stroke:#000000;stroke-width:1;stroke-linecap:square;stroke-miterlimit:4;stroke-opacity:1;stroke-dasharray:none;stroke-dashoffset:0" />
        <path
           d="m 141.18934,185.75412 -1.00542,2.15447 -2.87262,2.29809 -5.02709,2.729 -4.1653,3.44714 -3.59078,2.72899 -1.14904,-0.28726 -0.71816,-1.72357 3.30351,-2.87263 5.60162,-4.73982 4.30893,-3.30351 2.72899,-1.43632 1.14905,-0.57452 0.43089,0.86179 z"
           id="path4326"
           style="opacity:0.98999999;fill:#000000;fill-opacity:1;fill-rule:evenodd;stroke:#000000;stroke-width:1;stroke-linecap:square;stroke-miterlimit:4;stroke-opacity:1;stroke-dasharray:none;stroke-dashoffset:0" />
        <path
           d="m 122.23004,197.24461 -2.01084,1.57994 -0.43089,1.29268 1.00542,0.71815 3.7344,-1.57994 -1.29268,-0.86178 z"
           id="path4328"
           style="opacity:0.98999999;fill:#000000;fill-opacity:1;fill-rule:evenodd;stroke:#000000;stroke-width:1;stroke-linecap:square;stroke-miterlimit:4;stroke-opacity:1;stroke-dasharray:none;stroke-dashoffset:0" />
        <path
           d="m 119.21378,200.26086 -2.44172,2.15447 -1.86721,3.30351 5.88888,-5.02709 z"
           id="path4330"
           style="opacity:0.98999999;fill:#000000;fill-opacity:1;fill-rule:evenodd;stroke:#000000;stroke-width:1;stroke-linecap:square;stroke-miterlimit:4;stroke-opacity:1;stroke-dasharray:none;stroke-dashoffset:0" />
        <path
           d="m 135.44409,191.643 -2.58535,4.45256 -3.01626,5.60161 -1.8672,4.45256 -0.14363,2.15447 1.57994,1.43631 2.2981,1.00542 2.72899,0.28726 1.8672,-0.71816 3.44715,-6.31976 2.72899,-6.75066 2.29809,-4.45257 0.86179,-2.01083 0.28726,-1.29268 -1.57994,-1.8672 -3.15988,-1.72358 -0.86179,2.15447 -3.01625,2.44173 z"
           id="path4332"
           style="opacity:0.98999999;fill:#000000;fill-opacity:1;fill-rule:evenodd;stroke:#000000;stroke-width:1;stroke-linecap:square;stroke-miterlimit:4;stroke-opacity:1;stroke-dasharray:none;stroke-dashoffset:0" />
        <path
           d="m 127.54439,208.3042 -1.43631,4.02167 -1.86721,5.60161 -1.29268,4.1653 -0.28726,4.73983 0.28726,1.00541 1.29268,0.57453 2.2981,0 2.58536,0.14363 1.8672,-2.58536 1.00542,-3.73441 0.28726,-5.31435 0.57453,-2.87262 1.43631,-3.15988 -2.2981,-0.28726 -3.01625,-1.14905 z"
           id="path4334"
           style="opacity:0.98999999;fill:#000000;fill-opacity:1;fill-rule:evenodd;stroke:#000000;stroke-width:1;stroke-linecap:square;stroke-miterlimit:4;stroke-opacity:1;stroke-dasharray:none;stroke-dashoffset:0" />
        <path
           d="m 122.80456,228.26892 -1.14905,1.72357 -0.57452,3.44715 -1.14905,4.59619 0,4.02167 0.28726,3.44714 1.57994,0.57453 2.87262,0.14363 2.01084,0.71816 0.43089,-3.44715 0.14363,-5.74524 1.43631,-5.45798 0.4309,-3.87804 -4.88346,0 z"
           id="path4336"
           style="opacity:0.98999999;fill:#000000;fill-opacity:1;fill-rule:evenodd;stroke:#000000;stroke-width:1;stroke-linecap:square;stroke-miterlimit:4;stroke-opacity:1;stroke-dasharray:none;stroke-dashoffset:0" />
        <path
           d="m 120.50646,246.07917 -0.43089,3.30351 -0.28726,4.88346 0.28726,2.58536 1.29268,2.87262 1.14905,0 3.15988,0.14363 1.14905,-0.28726 0.71816,-2.15447 0,-3.15988 0,-5.31435 -0.71816,-2.01083 -2.2981,-1.00542 -2.72899,0 z"
           id="path4338"
           style="opacity:0.98999999;fill:#000000;fill-opacity:1;fill-rule:evenodd;stroke:#000000;stroke-width:1;stroke-linecap:square;stroke-miterlimit:4;stroke-opacity:1;stroke-dasharray:none;stroke-dashoffset:0" />
        <path
           d="m 121.22462,260.29864 0,2.15447 1.00542,2.87262 1.57994,4.02167 1.14905,3.44715 2.15446,2.72899 1.29268,-0.28726 2.44173,-1.72358 0.43089,-4.30893 -1.14904,-4.73982 -1.57995,-2.72899 -2.29809,-1.86721 -4.73983,-0.14363 z"
           id="path4340"
           style="opacity:0.98999999;fill:#000000;fill-opacity:1;fill-rule:evenodd;stroke:#000000;stroke-width:1;stroke-linecap:square;stroke-miterlimit:4;stroke-opacity:1;stroke-dasharray:none;stroke-dashoffset:0" />
        <path
           d="m 127.68802,275.8108 3.30351,5.31435 2.2981,3.30351 1.57994,0.28727 2.15447,-1.29268 -0.57453,-2.72899 -1.29268,-3.01626 -3.15988,-4.02167 -1.00542,-0.57452 -0.43089,0.86179 z"
           id="path4342"
           style="opacity:0.98999999;fill:#000000;fill-opacity:1;fill-rule:evenodd;stroke:#000000;stroke-width:1;stroke-linecap:square;stroke-miterlimit:4;stroke-opacity:1;stroke-dasharray:none;stroke-dashoffset:0" />
        <path
           d="m 134.43868,285.00319 0.71815,2.15446 2.15447,1.57995 1.8672,0.14363 0.4309,-1.72358 -2.58536,-3.87803 z"
           id="path4344"
           style="opacity:0.98999999;fill:#000000;fill-opacity:1;fill-rule:evenodd;stroke:#000000;stroke-width:1;stroke-linecap:square;stroke-miterlimit:4;stroke-opacity:1;stroke-dasharray:none;stroke-dashoffset:0" />
        <path
           d="m 830.67969,230.51562 1.625,3.35157 0.71094,2.64062 2.33593,3.55469 1.82813,2.53906 -2.64063,0 -0.91406,0 -1.32031,-3.14844 -1.32031,-1.01562 -0.60938,-1.72656 -1.11719,-1.21875 -1.42187,-0.10157 1.32031,-2.74218 1.32031,-1.21875 z"
           id="path6111"
           style="fill:#000000;fill-opacity:1;fill-rule:evenodd;stroke:#000000;stroke-width:1px;stroke-linecap:butt;stroke-linejoin:miter;stroke-opacity:1" />
        <path
           d="m 827.63281,236 -6.29687,4.36719 -1.32031,2.53906 -1.52344,0.8125 -1.625,0.10156 -1.32031,1.52344 1.32031,0.71094 0.20312,1.92968 4.67188,-2.03125 5.99219,-1.32031 6.09375,-0.60937 0.20312,-1.32032 -1.72656,-3.35156 -1.42188,-0.91406 -0.40625,-1.52344 -1.21875,-1.21875 -1.32031,-0.20312 z"
           id="path6115"
           style="fill:#000000;fill-opacity:1;fill-rule:evenodd;stroke:#000000;stroke-width:1px;stroke-linecap:butt;stroke-linejoin:miter;stroke-opacity:1" />
        <path
           d="m 806,262 3.65625,0.20312 3.35156,0.40625 1.32032,0.20313 -2.23438,2.13281 -1.92969,2.03125 -1.11718,1.32031 -0.30469,-3.96093 -0.91406,-1.11719 -1.42188,-0.60938 z"
           id="path6117"
           style="fill:#000000;fill-opacity:1;fill-rule:evenodd;stroke:#000000;stroke-width:1px;stroke-linecap:butt;stroke-linejoin:miter;stroke-opacity:1" />
        <path
           d="m 805.59375,262.20312 -2.53906,-0.71093 -1.82813,3.45312 -2.4375,3.75781 3.04688,-0.71093 1.01562,1.32031 0,0.8125 1.01563,0.91406 0.60937,1.42188 1.625,-0.60938 3.35157,-3.55469 -0.71094,-4.0625 -1.21875,-1.11718 z"
           id="path6119"
           style="fill:#000000;fill-opacity:1;fill-rule:evenodd;stroke:#000000;stroke-width:1px;stroke-linecap:butt;stroke-linejoin:miter;stroke-opacity:1" />
        <path
           d="m 798.89063,268.80469 -2.53907,3.55468 -1.32031,2.74219 0,0.8125 1.92969,-0.60937 1.92969,0.71093 0.8125,2.64063 1.42187,-1.21875 1.92969,-2.23438 1.01562,-1.52343 0.60938,-1.42188 -0.91406,-1.32031 -0.71094,-0.60938 -0.20313,-1.01562 -0.91406,-1.11719 -2.74219,0.50781 z"
           id="path6121"
           style="fill:#000000;fill-opacity:1;fill-rule:evenodd;stroke:#000000;stroke-width:1px;stroke-linecap:butt;stroke-linejoin:miter;stroke-opacity:1" />
        <path
           d="m 794.82813,276.11719 -1.72657,2.94531 -1.11718,1.625 -1.92969,2.64062 0.60937,0.8125 1.21875,0.60938 0,0.50781 1.21875,0 0.91407,0.71094 1.42187,-2.03125 2.4375,-2.84375 1.32031,-1.21875 0.40625,-1.11719 -0.71093,-2.53906 -1.82813,-0.91406 z"
           id="path6123"
           style="fill:#000000;fill-opacity:1;fill-rule:evenodd;stroke:#000000;stroke-width:1px;stroke-linecap:butt;stroke-linejoin:miter;stroke-opacity:1" />
        <path
           d="m 790.05469,283.83594 -0.50781,0.91406 1.92968,2.13281 1.21875,1.92969 0.20313,0.40625 1.21875,-3.04688 -1.01563,-0.91406 -1.11718,0 -0.20313,-0.50781 z"
           id="path6125"
           style="fill:#000000;fill-opacity:1;fill-rule:evenodd;stroke:#000000;stroke-width:1px;stroke-linecap:butt;stroke-linejoin:miter;stroke-opacity:1" />
        <path
           d="m 778.17188,316.4375 2.53906,3.14844 -0.71094,3.85937 -1.82812,7.82031 -0.50782,-11.67968 z"
           id="path6127"
           style="fill:#000000;fill-opacity:1;fill-rule:evenodd;stroke:#000000;stroke-width:1px;stroke-linecap:butt;stroke-linejoin:miter;stroke-opacity:1" />
        <path
           d="m 767.56441,223.81635 3.2317,5.60162 -2.08265,1.07723 -4.95527,3.08807 -0.50271,0.14363 -0.57452,-0.71816 -1.00542,-0.50271 -0.64634,-1.29268 -0.9336,-0.71815 5.81706,-4.73983 z"
           id="path6157"
           style="fill:#000000;fill-opacity:1;fill-rule:evenodd;stroke:#000000;stroke-width:1px;stroke-linecap:butt;stroke-linejoin:miter;stroke-opacity:1" />
        <path
           d="m 760.16741,230.78246 -3.08806,3.2317 -2.65718,2.65717 -0.43089,1.3645 0.35908,0.9336 0.86178,0.57453 1.72357,0 1.29268,0.86178 0.14364,0.0718 5.24253,-6.60703 -0.78997,-0.71816 -1.22087,-0.78997 -0.5027,-1.14905 z"
           id="path6159"
           style="fill:#000000;fill-opacity:1;fill-rule:evenodd;stroke:#000000;stroke-width:1px;stroke-linecap:butt;stroke-linejoin:miter;stroke-opacity:1" />
        <path
           d="m 753.77583,238.89762 -6.24795,6.10432 -0.78997,1.43631 1.36449,0.14363 0.71816,1.8672 0.71815,0.50271 0.4309,0.9336 2.72899,-1.65175 5.74524,-7.54064 -1.43631,-1.14904 -1.65176,0.0718 -1.36449,-1.14905 z"
           id="path6161"
           style="fill:#000000;fill-opacity:1;fill-rule:evenodd;stroke:#000000;stroke-width:1px;stroke-linecap:butt;stroke-linejoin:miter;stroke-opacity:1" />
        <path
           d="m 746.66609,246.72551 -1.65175,2.44173 4.02167,2.22628 1.00541,-1.29268 -0.50271,-1.3645 -0.64634,-0.35907 -0.9336,-1.86721 -1.07723,-0.35908 z"
           id="path6163"
           style="fill:#000000;fill-opacity:1;fill-rule:evenodd;stroke:#000000;stroke-width:1px;stroke-linecap:butt;stroke-linejoin:miter;stroke-opacity:1" />
        <path
           d="m 735.96558,269.41922 1.14905,1.29268 -1.50813,2.65717 -0.57452,-0.21545 z"
           id="path6165"
           style="fill:#000000;fill-opacity:1;fill-rule:evenodd;stroke:#000000;stroke-width:1px;stroke-linecap:butt;stroke-linejoin:miter;stroke-opacity:1" />
      </g>
      <path
         d="m 207.38199,77.585934 1.72657,-4.36718 1.52343,-2.234378 2.23438,-2.640625 1.82812,-1.015625 2.23438,-0.914063 4.67187,0 2.74219,1.21875 1.92969,2.03125 1.11719,2.640625 0.40625,2.843746 -0.30469,4.46875 -1.42188,2.4375 -2.03125,2.23438 -1.82812,1.21875 -3.55469,1.01562 -3.55469,0.30469 -3.35156,-0.91406 -2.53906,-1.92969 -1.82813,-1.92969 -0.60937,-2.53906 z"
         id="path4346"
         style="opacity:0.98999999;fill:#000000;fill-opacity:1;fill-rule:evenodd;stroke:#000000;stroke-width:1;stroke-linecap:square;stroke-miterlimit:4;stroke-opacity:1;stroke-dasharray:none;stroke-dashoffset:0" />
    </g>
  </g>
</svg>
