<?xml version="1.0" encoding="UTF-8" standalone="no"?>
<!-- Created with Inkscape (http://www.inkscape.org/) -->

<svg
   xmlns:svg="http://www.w3.org/2000/svg"
   xmlns="http://www.w3.org/2000/svg"
   version="1.1"
   width="2960"
   height="4240"
   viewBox="0 0 2960 4240"
   id="svg4136">
  <defs
     id="defs4140" />
  <path
     d="m 1739.9022,4160.2818 c -2.3949,-1.0427 -6.0512,-3.1062 -8.125,-4.5855 -3.2139,-2.2927 -5.2476,-2.6464 -13.7708,-2.3958 -14.329,0.4215 -21.1074,-1.9796 -29.37,-10.4037 -7.0085,-7.1455 -8.6175,-7.6572 -16.8725,-5.3655 -5.4178,1.5041 -17.3948,0.015 -28.1325,-3.499 -3.0938,-1.0123 -10.4994,-2.2703 -16.4569,-2.7956 -8.9854,-0.7924 -11.4817,-1.5022 -14.6447,-4.1637 -2.0973,-1.7646 -7.0084,-4.8077 -10.9138,-6.7625 -3.9054,-1.9547 -8.5652,-5.0178 -10.3551,-6.8067 -3.0894,-3.0876 -12.2178,-17.6513 -18.7239,-29.8724 -1.6471,-3.0937 -3.9666,-7.0312 -5.1546,-8.75 -1.188,-1.7187 -3.2814,-5.6867 -4.652,-8.8177 -1.3705,-3.1312 -4.541,-8.3773 -7.0455,-11.6583 -2.5044,-3.281 -4.5535,-6.6902 -4.5535,-7.5761 0,-0.8859 -1.2153,-3.1558 -2.7006,-5.044 -2.4334,-3.0935 -3.3008,-3.3758 -8.7628,-2.8509 -7.4485,0.7156 -10.692,3.4711 -12.4896,10.6105 -0.7554,2.9996 -3.4904,8.7293 -6.0778,12.7325 -3.9625,6.1308 -5.6477,7.6003 -10.6846,9.3164 -7.6995,2.6235 -16.0027,2.641 -18.6046,0.039 -2.271,-2.271 -2.5409,-13.1556 -0.5858,-23.6265 1.8314,-9.8083 2.2067,-14.0755 2.4729,-28.125 0.1869,-9.8588 1.0138,-15.6135 3.3228,-23.125 5.8977,-19.1861 13.0713,-45.1098 16.6033,-60 1.957,-8.25 5.3729,-20.625 7.5909,-27.5 3.8416,-11.9072 4.0536,-13.5966 4.4728,-35.625 0.3893,-20.4702 -0.036,-27.442 -2.7435,-45 -0.3712,-2.4062 -0.9228,-7.75 -1.2258,-11.875 -0.3031,-4.125 -1.165,-9.4687 -1.9155,-11.875 -0.7504,-2.4062 -1.6366,-8.5937 -1.9695,-13.75 -0.5567,-8.6231 -0.9365,-9.6897 -4.7352,-13.2997 -2.4785,-2.3553 -7.042,-4.7713 -11.4117,-6.0416 -8.5588,-2.4882 -23.117,-9.5952 -25.4751,-12.4365 -1.1671,-1.4063 -1.403,-3.8549 -0.8052,-8.3608 0.7968,-6.0071 1.551,-7.0801 13.1718,-18.7416 6.7797,-6.8034 12.8967,-12.3698 13.5935,-12.3698 0.6968,0 2.9978,-1.7307 5.1132,-3.8461 4.518,-4.518 4.6392,-6.1169 1.8752,-24.7309 -2.0711,-13.9482 -3.1119,-16.423 -6.9074,-16.423 -3.9101,0 -17.7508,-6.2281 -24.1326,-10.8593 l -6.0392,-4.3828 0.698,-7.9422 c 0.384,-4.3683 1.3151,-9.095 2.0691,-10.5039 1.4109,-2.6363 1.9402,-2.7401 14.057,-2.7568 5.2345,-0.012 7.9964,-0.6761 10.3125,-2.4981 3.6407,-2.8637 4.2625,-8.5886 1.2081,-11.1236 -1.1895,-0.9871 -1.6861,-2.6954 -1.2679,-4.3616 0.378,-1.5063 -0.1676,-5.6177 -1.2125,-9.1363 -1.0448,-3.5186 -2.1476,-10.6995 -2.4505,-15.9575 -0.3028,-5.2581 -0.818,-10.4697 -1.1446,-11.5815 -0.3266,-1.1117 -0.9485,-4.5336 -1.3821,-7.6042 -0.4336,-3.0705 -1.3345,-6.6032 -2.0019,-7.8502 -0.6674,-1.2471 -1.4166,-3.7972 -1.665,-5.6672 -0.2484,-1.8699 -1.6434,-9.1994 -3.1,-16.2879 -1.4565,-7.0885 -2.9476,-16.3697 -3.3134,-20.625 -0.3657,-4.2552 -1.0843,-9.7056 -1.597,-12.1119 -0.5126,-2.4062 -0.7541,-8.0312 -0.5367,-12.5 0.2174,-4.4687 -0.2633,-12.0625 -1.068,-16.875 -0.8048,-4.8125 -1.3804,-14.0657 -1.2794,-20.5628 0.1326,-8.5262 -0.3259,-12.5908 -1.6479,-14.6084 -1.949,-2.9745 -4.2926,-11.9835 -4.9957,-19.2038 -0.8138,-8.3568 -2.1243,-15.677 -4.4755,-25 -1.3004,-5.1562 -2.6088,-11.9062 -2.9075,-15 -1.1489,-11.8978 -3.811,-32.7301 -7.784,-60.9136 -0.3843,-2.7261 -1.9499,-5.0917 -4.8171,-7.2787 -2.3364,-1.782 -4.4223,-4.4645 -4.6354,-5.9613 -0.505,-3.5466 -4.8549,-4.1625 -9.2161,-1.3049 -4.7763,3.1295 -21.6183,9.101 -28.0464,9.9442 -1.7188,0.2253 -6.2608,1.5318 -10.0934,2.9031 -3.8325,1.3712 -10.8637,3.1139 -15.625,3.8722 -4.7611,0.7585 -9.191,1.9102 -9.8441,2.559 -2.2709,2.2565 -13.9949,1.2347 -22.4811,-1.9596 -4.5877,-1.7267 -11.8885,-3.642 -16.224,-4.256 -5.8657,-0.8306 -10.2465,-2.5445 -17.1202,-6.6977 -5.0805,-3.0699 -10.4061,-5.9432 -11.8347,-6.3852 -1.665,-0.515 -2.5625,-1.8075 -2.5,-3.6 0.079,-2.244 -0.5199,-2.7423 -3.0275,-2.5228 -1.7188,0.1506 -4.25,0.351 -5.625,0.4452 -31.6051,2.169 -35.1663,2.944 -33.7683,7.3485 0.8233,2.594 -3.9698,6.936 -11.0387,9.9995 -2.8561,1.2379 -12.2243,5.6025 -20.818,9.6993 -15.6245,7.4483 -17.4623,8.2298 -35,14.8835 -5.1563,1.9562 -9.5283,3.8857 -9.7156,4.2877 -0.4158,0.8925 -38.7034,0.4165 -46.5344,-0.5785 -14.9185,-1.8955 -19.9825,-3.3021 -27.2741,-7.5756 -4.2731,-2.5044 -9.5876,-5.1818 -11.8101,-5.9498 -2.2224,-0.768 -6.7023,-3.0272 -9.9552,-5.0203 -4.8715,-2.9852 -6.1403,-4.5444 -7.1958,-8.8437 -1.8544,-7.5526 -4.0456,-11.2603 -7.6902,-13.0127 -2.8086,-1.3504 -3.3254,-2.5995 -4.1377,-10 -1.6218,-14.7755 -1.3744,-24.4534 0.8584,-33.5888 1.9432,-7.9505 3.3493,-20.5451 3.891,-34.8516 0.1796,-4.7425 -0.048,-5.0616 -4.6968,-6.5951 -2.687,-0.8863 -8.7669,-2.1619 -13.511,-2.8348 -4.744,-0.6728 -10.252,-2.0643 -12.2399,-3.0923 -4.9161,-2.5423 -13.0177,-2.348 -21.9334,0.5258 -4.0866,1.3173 -8.9397,2.7249 -10.7847,3.128 -4.3958,0.9605 -7.9112,6.0727 -9.976,14.5075 -1.314,5.3682 -2.40142,7.17 -5.10702,8.4632 -1.8906,0.9035 -3.4375,2.1746 -3.4375,2.8246 0,0.65 -1.684,1.1817 -3.7422,1.1817 -2.9669,0 -4.5374,-1.1005 -7.5814,-5.3125 -2.1116,-2.9218 -5.76513,-6.3071 -8.11891,-7.5227 -2.35379,-1.2156 -5.21028,-3.7469 -6.34775,-5.625 -1.13747,-1.8781 -3.11255,-4.939 -4.38908,-6.8019 -1.27652,-1.8629 -2.51482,-4.6754 -2.75176,-6.25 -0.68001,-4.5191 -5.23854,-4.4511 -6.82574,0.1013 -0.96425,2.7661 -2.20892,3.8297 -4.83342,4.1303 -2.71283,0.3108 -3.61425,1.1315 -3.87667,3.5299 -0.18806,1.7188 -0.90487,5.375 -1.59292,8.125 -0.68805,2.75 -1.471,7.5313 -1.73989,10.625 -0.70057,8.0605 -1.51856,11.4146 -6.6662,27.3343 -4.68175,14.4788 -6.64131,17.2063 -9.52677,13.2602 -0.89244,-1.2205 -3.51782,-2.8379 -5.83417,-3.5942 -2.544,-0.8308 -5.319,-3.1075 -7.00848,-5.7503 -1.53832,-2.4062 -4.41859,-6.625 -6.40062,-9.375 -2.4284,-3.3694 -3.8636,-7.211 -4.40063,-11.7792 -0.43833,-3.7287 -1.3744,-7.3568 -2.08017,-8.0625 -0.70577,-0.7058 -1.28322,-2.2625 -1.28322,-3.4595 0,-3.1364 -2.62729,-4.3003 -4.35959,-1.9313 -0.93904,1.2843 -1.28479,5.1443 -0.94556,10.5565 0.40197,6.4135 -0.15878,10.8466 -2.25834,17.854 -2.96986,9.9119 -6.6055,18.0359 -8.63194,19.2883 -2.31323,1.4296 -8.56848,-3.0283 -10.87571,-7.7507 -1.26712,-2.5936 -3.14761,-4.7156 -4.17886,-4.7156 -3.1114,0 -2.46524,39.957 1.04105,64.375 0.74041,5.1563 1.60187,12.3129 1.91435,15.9035 0.31249,3.5908 1.66959,10.0595 3.01577,14.375 6.34322,20.3348 11.52883,49.6888 11.52883,65.2609 l 0,11.4617 -5.3125,6.2678 c -3.46861,4.0922 -10.18916,9.2766 -19.36284,14.9369 -18.25211,11.2617 -20.00601,12.1603 -34.07466,17.4585 -6.53125,2.4596 -13.5625,5.2225 -15.625,6.1397 -2.0625,0.9173 -10.21875,2.8803 -18.125,4.3623 -21.16726,3.9678 -25.13796,5.0868 -30.31239,8.5428 -4.07067,2.7189 -5.46857,3.0075 -10.625,2.1943 -15.98721,-2.5215 -19.8096,-2.627 -22.23567,-0.6135 -4.34783,3.6084 -8.44069,15.1431 -10.009,28.208 -0.598,4.9817 -6.71565,19.3044 -9.29099,21.7521 -5.50261,5.23 -16.13311,21.2161 -21.68963,32.6169 -8.37578,17.1852 -14.15437,25.1694 -19.81421,27.3766 -4.79122,1.8685 -10.60607,7.7199 -13.04946,13.1315 -1.62605,3.6014 -6.64841,12.3301 -17.34865,30.1516 -7.56535,12.6003 -17.83135,24.0777 -26.875,30.0465 -14.64406,9.665 -15.2185,10.256 -14.85616,15.2847 0.37637,5.2232 -1.24179,13.8922 -2.59312,13.8922 -1.28127,0 -4.52947,7.9469 -6.89743,16.875 -2.00818,7.5715 -5.60219,16.9728 -6.92902,18.125 -0.39585,0.3438 -2.0741,2.5938 -3.72943,5 -9.31993,13.5476 -33.79377,39.0108 -41.6336,43.3165 -4.33929,2.3831 -13.73737,12.3375 -15.41819,16.3309 -0.93118,2.2122 -1.70648,6.9935 -1.72288,10.625 -0.0311,6.8949 -0.24201,7.9202 -5.6,27.2276 -3.08773,11.1266 -3.7187,12.2689 -10.01145,18.125 -3.69381,3.4375 -8.24896,7.375 -10.12255,8.75 -10.677,7.8358 -22.45997,19.4979 -23.72415,23.481 -1.32047,4.1604 -11.70622,21.1928 -14.0239,22.9988 -1.16221,0.9056 -4.45631,2.7187 -7.3202,4.029 -6.50233,2.975 -8.89143,6.5637 -10.64413,15.9883 -1.3707,7.3703 -1.4243,7.4395 -9.6386,12.4399 -4.5431,2.7656 -10.2289,5.7758 -12.6352,6.6891 -2.4062,0.9133 -5.3384,2.48 -6.5159,3.4814 -1.1776,1.0014 -3.0731,1.463 -4.2124,1.0258 -1.7336,-0.6652 -1.9561,-2.066 -1.364,-8.589 1.1072,-12.1989 8.7501,-40.1877 12.4455,-45.5762 5.3104,-7.7437 8.2716,-18.4803 7.9862,-28.9568 -0.2317,-8.5072 -0.4896,-9.3267 -3.2574,-10.3505 -1.6532,-0.6117 -3.4139,-0.673 -3.9128,-0.1364 -0.4989,0.5366 -3.6076,6.0381 -6.9083,12.2256 -4.0503,7.5928 -8.5629,13.7929 -13.8811,19.0719 -4.3339,4.302 -7.8836,8.2395 -7.8883,8.75 0,0.5105 -2.1141,2.3064 -4.6875,3.991 -2.5735,1.6846 -6.7313,5.1191 -9.2396,7.6321 -2.9267,2.9323 -6.6214,5.0883 -10.3125,6.0176 -3.1635,0.7967 -5.753,1.8622 -5.7543,2.3679 -0.01,2.109 -12.3415,9.2625 -14.6885,8.5176 -4.2971,-1.3638 -7.9875,-6.5193 -8.7063,-12.1627 -1.2428,-9.7579 -4.3195,-12.6908 -6.7119,-6.3984 -1.2438,3.2715 -3.2069,5.2781 -5.2034,5.3189 -2.1371,0.044 -0.9594,-10.2411 3.5048,-30.6059 2.3286,-10.6227 2.2145,-11.6605 -1.7136,-15.5886 -2.0825,-2.0825 -4.2208,-3.7864 -4.7516,-3.7864 -0.5309,0 -2.4883,1.4591 -4.3497,3.2425 -3.7859,3.6271 -3.8213,3.5874 -5.4684,-6.1537 -0.7852,-4.6434 4.3825,-25.0572 12.0785,-47.7138 1.4012,-4.125 2.8185,-10.1654 3.1497,-13.423 0.5598,-5.5064 0.3682,-6.0119 -2.7239,-7.1875 -1.8293,-0.6955 -5.4705,-1.2645 -8.0916,-1.2645 -2.6211,0 -5.3194,-0.7031 -5.9963,-1.5625 -1.8655,-2.3685 -2.981,-8.1937 -1.7185,-8.9741 0.6139,-0.3794 1.5023,-2.242 1.9742,-4.1391 0.4719,-1.897 5.5968,-12.2392 11.3885,-22.9823 l 10.5304,-19.532 0,-12.5015 c 0,-9.7526 -0.4249,-12.854 -1.9325,-14.1053 -1.4819,-1.2298 -1.7825,-3.2327 -1.289,-8.5905 1.793,-19.4705 2.2519,-27.6117 1.5563,-27.6117 -0.4222,0 -3.3539,4.3594 -6.5149,9.6875 -10.07,16.974 -20.5094,30.02 -22.8597,28.5674 -2.6827,-1.658 -1.5105,-4.732 5.2297,-13.7145 3.6794,-4.9035 9.3748,-13.4154 12.6562,-18.9154 5.4181,-9.081 8.0952,-13.3276 18.0766,-28.6735 1.7613,-2.7079 4.3273,-6.1091 5.7023,-7.5581 1.375,-1.4491 4.1875,-4.7585 6.25,-7.3543 2.0625,-2.5957 5.0543,-6.2259 6.6483,-8.0669 1.5941,-1.841 4.9691,-5.8726 7.5,-8.9592 2.531,-3.0866 5.5717,-6.6929 6.7572,-8.0139 1.1855,-1.321 3.998,-6.0778 6.25,-10.5707 2.252,-4.493 5.6033,-9.4828 7.4473,-11.0885 2.4386,-2.1235 4.4091,-6.4025 7.2264,-15.6923 2.1305,-7.025 5.0618,-16.6012 6.5141,-21.2806 1.8544,-5.975 2.2474,-8.9013 1.3201,-9.8286 -0.7263,-0.7263 -1.8958,-0.965 -2.5988,-0.5305 -1.4416,0.8908 -6.5667,11.6772 -8.8824,18.694 -1.8635,5.6463 -7.1056,9.7043 -8.977,6.9492 -2.2812,-3.3584 -0.064,-14.4502 5.6213,-28.1241 3.122,-7.5086 7.9949,-19.5583 10.8286,-26.777 2.8337,-7.2188 5.9549,-14.3709 6.936,-15.8935 0.9812,-1.5228 1.7839,-3.9134 1.7839,-5.3125 0,-3.3911 -4.7554,-3.423 -6.0068,-0.04 -0.8541,2.3089 -1.1387,2.3549 -3.6573,0.5909 -1.5022,-1.0523 -2.4955,-2.6008 -2.2073,-3.4414 0.2881,-0.8405 1.1138,-6.5908 1.835,-12.7783 1.8897,-16.2143 7.1852,-46.2863 9.9752,-56.6477 0.7574,-2.8126 1.3315,-10.905 1.2758,-17.9831 -0.1089,-13.8383 2.0017,-24.0249 7.8465,-37.8692 1.7415,-4.125 4.4052,-12.8437 5.9194,-19.375 1.5142,-6.5312 3.3796,-13.8437 4.1455,-16.25 0.7658,-2.4062 1.465,-4.6562 1.5537,-5 0.089,-0.3437 0.5038,-1.4687 0.9226,-2.5 0.4187,-1.0312 1.9394,-6.0937 3.3792,-11.25 2.5404,-9.0973 8.2544,-24.3388 10.0754,-26.875 2.0792,-2.8956 9.13636,-16.8708 12.52812,-24.809 5.55729,-13.0065 17.59283,-54.4493 21.65495,-74.566 2.69836,-13.363 6.90369,-27.7072 10.1794,-34.7216 1.69435,-3.6282 3.08064,-6.901 3.08064,-7.2729 0,-0.3718 3.375,-8.2846 7.5,-17.5838 4.125,-9.2994 7.5,-17.6242 7.5,-18.4997 0,-0.8755 2.53511,-6.56 5.63358,-12.6323 3.09846,-6.0723 6.87123,-14.8834 8.38393,-19.5802 2.40642,-7.4716 2.54783,-9.0426 1.13085,-12.562 -2.73056,-6.7821 -2.72648,-10.7486 0.0192,-18.7931 1.94655,-5.703 2.79972,-11.9896 3.25422,-23.9794 0.663,-17.4902 -0.61123,-25.4752 -4.64823,-29.1283 -4.33137,-3.9197 -6.16182,-5.2467 -7.23704,-5.2467 -0.5879,0 -2.65841,-1.6591 -4.60115,-3.6868 l -3.53225,-3.6869 0.74082,-14.1256 c 0.72456,-13.816 1.05662,-16.4179 3.39798,-26.6257 1.95093,-8.5055 1.47283,-12.4403 -1.89606,-15.6052 -2.8741,-2.7001 -3.07016,-3.6191 -2.6468,-12.4055 0.25149,-5.2191 1.6399,-13.0721 3.08538,-17.4514 1.44546,-4.3791 2.38102,-8.3619 2.07902,-8.8505 -1.00699,-1.6292 2.73398,-13.0655 7.7894,-23.8124 2.74895,-5.8437 7.17473,-15.6801 9.83506,-21.8587 2.66034,-6.1785 6.59198,-13.5408 8.73698,-16.3604 2.145,-2.8197 6.87107,-10.9832 10.50239,-18.1412 3.63131,-7.1582 7.92318,-15.622 9.5375,-18.8088 4.38463,-8.6556 3.95813,-10.6316 -3.00239,-13.9096 -3.26563,-1.5379 -6.54254,-3.5679 -7.28204,-4.511 -0.7395,-0.9431 -4.31599,-2.1844 -7.94775,-2.7585 -9.77657,-1.5455 -10.36977,-3.0655 -6.28317,-16.1003 1.86993,-5.9645 4.33025,-12.4941 5.46735,-14.5105 4.44725,-7.8858 10.44386,-16.9441 17.99701,-27.1856 8.30404,-11.2595 15.2361,-23.6224 15.2361,-27.1724 0,-1.3873 -3.95583,-4.1975 -11.55519,-8.2087 -7.03378,-3.7126 -11.72059,-6.978 -11.97787,-8.345 -0.4615,-2.452 3.8161,-8.0604 19.26188,-25.2543 12.81134,-14.2612 21.35575,-25.888 22.34929,-30.4115 0.42633,-1.9411 0.20399,-5.0313 -0.49409,-6.8675 -1.14552,-3.013 -0.34178,-4.7091 8.24713,-17.4046 8.88782,-13.1374 26.18507,-44.6709 27.12011,-49.441 0.22914,-1.169 1.0606,-3.697 1.8477,-5.618 0.78709,-1.921 1.80251,-5.0147 2.25648,-6.875 0.45397,-1.8602 2.65953,-7.6011 4.90126,-12.7574 2.24172,-5.1562 6.12645,-15.5625 8.63274,-23.125 4.09918,-12.369 7.83493,-20.9497 19.59128,-45 3.01189,-6.1615 3.60955,-8.8385 3.34885,-15 -0.34195,-8.0818 0.27293,-9.6713 8.03293,-20.7652 3.65035,-5.2186 4.6875,-7.8903 4.6875,-12.0745 0,-6.8974 2.22616,-10.1695 10.78452,-15.852 5.95777,-3.9558 7.51739,-5.8714 11.05725,-13.5818 2.26664,-4.9371 7.27949,-15.4423 11.13969,-23.3451 3.8602,-7.9027 7.01854,-14.793 7.01854,-15.3116 0,-1.8429 11.45265,-24.1113 13.66482,-26.5698 1.23723,-1.375 2.573,-4.1875 2.9684,-6.25 1.23218,-6.4272 21.70173,-44.2366 29.27794,-54.0793 3.96761,-5.1547 8.48324,-11.1267 10.03473,-13.2713 1.55148,-2.1446 3.53112,-4.7431 4.39918,-5.7744 2.79619,-3.3218 6.79644,-10.3297 13.40347,-23.4812 3.55227,-7.0709 8.52143,-15.2615 11.04257,-18.2013 7.07538,-8.2503 13.0275,-15.7077 16.45889,-20.6211 1.71875,-2.461 4.66907,-6.1237 6.55627,-8.1394 1.8872,-2.0156 6.00105,-8.12 9.14189,-13.5652 3.14083,-5.4453 6.66685,-10.8568 7.8356,-12.0255 1.16876,-1.1688 3.51606,-4.0786 5.21624,-6.4663 1.70017,-2.3876 3.94257,-5.2938 4.98311,-6.4581 1.04054,-1.1642 3.29814,-3.8875 5.01689,-6.0516 1.71875,-2.1641 4.73581,-5.7191 6.7046,-7.9 3.26585,-3.6178 17.85185,-22.2769 23.9204,-30.6003 6.06927,-8.3243 9.40662,-11.9897 28.10276,-30.865 10.89561,-11 20.84228,-20.895 22.10371,-21.9888 3.34115,-2.8975 15.53033,-16.0512 19.58633,-21.1362 13.48314,-16.9038 15.00484,-18.3731 29.27934,-28.271 6.69782,-4.6442 12.45912,-8.7757 12.80282,-9.1812 0.3438,-0.4055 3.1563,-2.6654 6.25,-5.0219 11.38527,-8.6721 13.89397,-11.9707 13.58867,-17.8679 -0.1522,-2.9408 0.2538,-6.2952 0.9023,-7.454 0.9394,-1.6785 12.423,-14.3953 22.0781,-24.4491 0.8558,-0.8911 4.9309,-4.0811 9.0559,-7.0889 11.6242,-8.476 39.3072,-36.4346 55.9056,-56.4622 2.3572,-2.8441 5.9302,-6.6445 7.9401,-8.4451 11.5724,-10.3678 12.032,-11.0473 11.2841,-16.6825 -0.3867,-2.9145 -0.1834,-6.6663 0.452,-8.3373 1.0814,-2.8445 15.7602,-14.6755 22.5968,-18.213 4.8794,-2.5247 16.073,-11.351 23.019,-18.1509 6.6422,-6.5023 17.9282,-15.625 19.3303,-15.625 2.3233,0 5.3718,-8.3466 5.539,-15.1652 0.2083,-8.4943 -0.1762,-8.1528 18.3081,-16.2554 5.1563,-2.2601 11.625,-5.4919 14.375,-7.1815 9.7382,-5.9832 15.0805,-9.3775 21.875,-13.8981 3.7813,-2.5158 12.5,-7.5549 19.375,-11.198 14.2834,-7.569 16.875,-9.5243 16.875,-12.7315 0,-1.5946 2.9487,-3.8184 9.6875,-7.3061 5.3282,-2.7577 11.375,-6.2712 13.4375,-7.8079 2.0625,-1.5368 7.6875,-5.7098 12.5,-9.2734 7.2435,-5.3637 33.3875,-19.1829 36.2915,-19.1829 0.4539,0 5.6927,-3.173 11.6419,-7.0512 5.9491,-3.8781 15.0354,-9.5341 20.1916,-12.5688 5.1563,-3.0346 10.2188,-6.0286 11.25,-6.6532 16.6667,-10.0948 23.0304,-13.0953 35.3462,-16.6658 9.7483,-2.8261 30.7088,-13.7116 32.7445,-17.0052 0.3632,-0.5879 5.069,-3.6534 10.4572,-6.8123 9.026,-5.2916 10.4615,-5.7435 18.2441,-5.7435 7.6622,0 9.7634,-0.6326 22.606,-6.8067 7.7874,-3.7438 19.6867,-9.1566 26.4429,-12.0285 6.7563,-2.872 17.6279,-7.6981 24.1591,-10.7246 6.5313,-3.0267 15.5313,-7.1994 20,-9.273 4.4688,-2.0735 10.0938,-4.8349 12.5,-6.1363 2.4063,-1.3015 7.6624,-4.1256 11.6802,-6.276 4.0178,-2.1502 9.5866,-5.5624 12.3751,-7.5822 2.7884,-2.02 5.7927,-3.6727 6.6762,-3.6727 0.8837,0 12.4712,-5.8127 25.75,-12.9172 13.2789,-7.1045 29.206,-15.5276 35.3935,-18.7179 6.1875,-3.1904 15.4688,-9.241 20.625,-13.4459 5.1563,-4.2048 13.0313,-9.6441 17.5,-12.0872 12.6607,-6.9216 20.0129,-11.7198 27.5327,-17.9676 3.8133,-3.1687 9.4442,-6.8809 12.513,-8.2495 4.7147,-2.103 8.1933,-5.2949 18.4778,-16.955 1.0263,-1.1635 5.2845,-4.8205 13.431,-11.5347 7.7458,-6.3837 28.5812,-24.7001 40.0179,-35.1798 4.8661,-4.4589 10.7514,-11.3049 13.0783,-15.2135 4.615,-7.7522 10.2153,-15.2199 18.034,-24.0473 10.759,-12.1472 15.7266,-18.3389 20.5065,-25.5594 2.7306,-4.125 6.9636,-9.728 9.4065,-12.4512 4.8446,-5.4004 6.652,-9.5886 6.2245,-14.4238 -0.7803,-8.8222 6.188,-22.0913 16.7858,-31.9637 7.5614,-7.0438 8.7308,-11.3531 4.2867,-15.7972 l -2.518,-2.518 3.9242,-6.423 c 2.1583,-3.5327 4.7679,-7.0883 5.7991,-7.9014 2.1337,-1.6823 0.7885,-3.6431 -2.9756,-4.3378 -1.2929,-0.2386 -3.1339,-1.6156 -4.0912,-3.0599 -1.6158,-2.4379 -1.2012,-3.1807 5.7882,-10.3681 4.1408,-4.2581 7.5286,-8.1934 7.5286,-8.7452 0,-0.5517 1.1382,-2.3154 2.5293,-3.9193 3.0312,-3.4952 2.6314,-5.5395 -1.122,-5.7357 -2.757,-0.1441 -6.2924,-3.614 -6.3675,-6.2496 -0.036,-1.2952 4.4415,-7.818 6.3379,-9.2311 0.4612,-0.3437 4.217,-5.125 8.346,-10.625 4.1288,-5.5 9.008,-11.559 10.8423,-13.4645 5.7873,-6.0115 4.8883,-6.8042 -20.0983,-17.7222 -5.5865,-2.441 -10.7897,-4.4383 -11.5625,-4.4383 -2.6943,0 -1.3733,-5.17 3.113,-12.183 5.4843,-8.5735 16.2082,-19.2488 24.3995,-24.2888 7.4321,-4.5731 11.385,-9.8407 10.8531,-14.4631 -0.3856,-3.3515 -0.6208,-3.4484 -9.1399,-3.7656 -5.2127,-0.1941 -10.8919,0.4063 -14.0625,1.4866 l -5.3184,1.8122 0.013,-3.3616 c 0.012,-4.2994 2.2824,-7.4902 13.4293,-18.8615 7.3146,-7.4619 9.0626,-9.9928 9.0631,-13.1225 4e-4,-2.1327 1.1366,-6.8663 2.5249,-10.5192 1.3884,-3.6528 2.1432,-7.2582 1.6774,-8.012 -1.7063,-2.7606 -0.4023,-10.93503 2.4038,-15.07013 3.44,-5.0691 4.1642,-12.92355 1.7189,-18.64284 -2.8552,-6.66827 -14.6642,-19.75876 -17.8285,-19.75876 -3.0222,0 -8.0013,-2.88597 -8.0013,-4.63771 0,-2.87424 3.8946,-9.49121 7.0448,-11.9691 4.4347,-3.48842 3.8366,-6.69963 -1.4322,-7.68805 -3.9286,-0.73699 -4.2467,-1.08606 -3.0419,-3.33743 1.9398,-3.62436 0.482,-8.46557 -4.4102,-14.64684 -2.3524,-2.97226 -4.9324,-7.38946 -5.7331,-9.816 -1.7308,-5.24428 -0.8109,-6.49447 9.0452,-12.29288 7.4779,-4.39926 9.8158,-7.32359 7.6148,-9.5246 -1.1419,-1.14192 -1.9095,-1.12613 -3.3494,0.0689 -2.3012,1.90987 -6.988,0.6036 -6.988,-1.94766 0,-3.5024 2.4318,-6.43105 8.0965,-9.75077 5.3415,-3.13037 5.6535,-3.61569 5.6535,-8.79478 0,-6.12054 1.9821,-8.35882 11.0059,-12.42794 6.7268,-3.03343 7.3002,-5.112 2.8179,-10.2171 -2.0353,-2.318 -4.0791,-6.23253 -4.5418,-8.69897 -0.7212,-3.8447 -0.3289,-5.02428 2.7509,-8.26866 1.9756,-2.08133 5.5202,-4.71598 7.8769,-5.85479 5.6306,-2.72093 6.062,-4.62886 1.5715,-6.95101 -4.6449,-2.40192 -5.3625,-4.30085 -3.3944,-8.98162 1.0857,-2.58227 3.9181,-4.98326 9.1985,-7.79771 4.1964,-2.23662 7.8752,-4.46566 8.1754,-4.95341 0.8828,-1.43488 -3.8424,-21.77283 -6.0887,-26.20583 -1.7042,-3.36343 -1.8111,-4.82815 -0.6168,-8.4471 0.7947,-2.40795 2.5248,-4.95606 3.8448,-5.66247 3.3075,-1.77013 3.0182,-3.36583 -1.3501,-7.44643 -4.1555,-3.88187 -4.6969,-6.40805 -1.875,-8.75 1.0313,-0.85586 1.875,-2.27811 1.875,-3.16055 0,-1.73435 9.9626,-5.58945 14.4446,-5.58945 5.7537,0 5.8725,-2.78808 0.5592,-13.11775 -2.7522,-5.35018 -5.0038,-10.23926 -5.0038,-10.86461 0,-0.62536 1.4884,-2.5164 3.3075,-4.20232 2.5725,-2.3841 4.6646,-3.06532 9.4143,-3.06532 7.6298,0 8.5731,-1.85952 5.1061,-10.0657 l -2.5485,-6.03203 4.2354,-2.00978 c 5.065,-2.40355 5.1591,-3.03054 1.1102,-7.39936 -1.7187,-1.85456 -3.125,-4.13114 -3.125,-5.05906 0,-2.00667 7.1805,-6.45589 12.7469,-7.89828 4.8435,-1.25507 5.693,-3.25549 2.5319,-5.9621 -3.0067,-2.57444 -2.2517,-7.60156 1.4367,-9.56575 4.8925,-2.60541 5.9095,-4.97596 5.176,-12.06454 -0.6344,-6.1313 -0.3804,-7.03571 3.0836,-10.981 2.0762,-2.36466 3.7749,-5.6193 3.7749,-7.23253 0,-1.88322 1.566,-4.12763 4.375,-6.27012 5.0971,-3.88781 5.8561,-8.98187 1.875,-12.58475 -1.375,-1.24436 -2.5,-3.32822 -2.5,-4.63081 0,-3.13291 2.872,-8.56209 6.0511,-11.43925 1.4065,-1.2728 2.8798,-3.80271 3.2742,-5.62205 0.3942,-1.81934 1.0327,-4.71414 1.4186,-6.43289 0.386,-1.71875 0.9766,-6.78125 1.3125,-11.25 0.3359,-4.46875 1.2266,-10.375 1.9792,-13.125 1.5357,-5.61003 1.5252,-6.9513 -0.2046,-26.25 -1.0346,-11.54338 -0.92,-14.58208 0.7144,-18.93495 1.381,-3.67807 1.7897,-8.03745 1.4062,-15 -0.3075,-5.58207 0.1472,-12.80326 1.054,-16.74386 0.877,-3.81084 1.7025,-10.56084 1.8343,-15 0.17,-5.72505 1.3134,-10.61464 3.9334,-16.82119 2.3526,-5.5729 4.0618,-12.38097 4.7073,-18.75 0.9425,-9.29847 2.889,-17.02957 5.0354,-20 1.7859,-2.4716 4.7775,-13.89383 5.53,-21.11423 0.4863,-4.66633 2.1296,-9.84637 4.4858,-14.13949 2.1896,-3.98998 3.7305,-8.67063 3.7481,-11.38576 0.065,-10.04428 5.6081,-24.74142 12.3447,-32.73062 2.8897,-3.42698 6.4497,-9.18941 7.9112,-12.8054 1.4613,-3.61597 4.4558,-9.10575 6.6542,-12.1995 2.1985,-3.09375 5.8168,-9.84375 8.0408,-15 2.224,-5.15625 5.984,-11.90086 8.3557,-14.98802 2.3716,-3.08716 6.0738,-9.41529 8.227,-14.0625 2.1531,-4.64721 4.3014,-8.44948 4.774,-8.44948 0.4725,0 1.6065,-1.80423 2.52,-4.00941 1.7824,-4.30321 7.757,-13.53261 13.4971,-20.85031 1.9482,-2.4834 4.2522,-6.76528 5.1203,-9.51527 2.58,-8.17308 6.0346,-12.85176 10.603,-14.35942 2.3221,-0.7664 4.8939,-2.2029 5.715,-3.19223 0.821,-0.98931 4.9441,-4.11932 9.1625,-6.95557 4.2182,-2.83625 10.4821,-7.8094 13.9196,-11.05146 10.8796,-10.26104 27.0185,-20.96373 36.8338,-24.42674 2.8151,-0.99328 7.773,-3.95723 11.0173,-6.58655 3.2444,-2.62934 8.4302,-6.02753 11.5239,-7.55154 3.0938,-1.52401 9.1239,-4.99964 13.4001,-7.72361 9.4183,-5.99925 10.9687,-6.50125 46.5999,-15.088312 12.5421,-3.02262 16.5498,-3.68991 22.2055,-3.69727 3.2558,-0.004 7.607,-0.90917 9.6695,-2.01097 6.2854,-3.35771 10.0361,-4.01244 15.7659,-2.75215 3.0162,0.66344 13.3591,1.69491 22.9841,2.29217 11.6804,0.7248 20.1351,1.94104 25.4239,3.65729 4.3581,1.41425 9.2041,2.57136 10.7689,2.57136 1.5648,0 4.3225,1.16209 6.1281,2.58242 1.8057,1.420322 8.2097,5.018922 14.2311,7.996882 6.0215,2.97795 13.9471,8.00337 17.6127,11.16758 3.6655,3.16422 7.1358,5.75312 7.7118,5.75312 0.5759,0 4.065,2.75819 7.7536,6.1293 3.9448,3.6053 8.7476,6.68099 11.6633,7.46902 2.7262,0.73683 6.0981,2.14226 7.4931,3.12316 1.395,0.9809 5.0406,2.45779 8.1015,3.28197 3.0607,0.82419 9.7845,4.5414 14.9415,8.26048 6.8125,4.91291 12.2492,7.6382 19.8822,9.96641 11.6915,3.56614 19.2947,7.81083 21.5547,12.0335 0.8242,1.54018 1.3836,5.98655 1.2431,9.88084 l -0.2555,7.0805 5.7046,3.5749 c 3.1375,1.9662 8.9304,5.95055 12.873,8.8541 3.9426,2.90356 7.6213,5.29419 8.1746,5.3125 0.5533,0.0184 3.647,1.23751 6.875,2.70933 3.2279,1.47181 8.2973,3.71802 11.2654,4.99158 6.6377,2.84818 17.2639,10.94075 26.7756,20.39169 10.587,10.51916 21.4443,33.83454 22.89,49.15501 1.2775,13.53623 -2.7642,17.9947 -11.5912,12.78663 -4.1275,-2.43529 -5.2978,-2.57119 -12.1443,-1.41023 -13.8538,2.34919 -30.8667,2.80794 -45.3235,1.22218 -16.2267,-1.77994 -25.0612,-0.79119 -42.7344,4.78286 -9.2236,2.90913 -11.2858,4.13649 -17.1875,10.2296 -3.6883,3.80813 -6.7062,7.90099 -6.7062,9.09525 0,1.19426 -2.4236,5.72258 -5.3858,10.0629 -6.3027,9.2352 -12.3106,20.87968 -16.6371,32.24589 -1.6966,4.45741 -4.7212,11.48866 -6.7212,15.625 -10.0335,20.7505 -13.467,30.97349 -17.0099,50.64562 -1.922,10.67242 -4.7735,18.12752 -10.0403,26.25 -1.5602,2.40625 -3.1691,6.29534 -3.5752,8.64242 -0.724,4.18412 -5.0178,12.45851 -25.3533,48.85758 -5.5694,9.96875 -12.4929,23.64177 -15.3857,30.38448 -3.2632,7.60626 -6.8057,13.71792 -9.3334,16.10194 -2.9067,2.74181 -4.308,5.40493 -4.8916,9.29708 -0.8877,5.91919 -5.2391,12.03377 -10.503,14.75867 -3.1302,1.6204 -9.3234,12.12922 -12.7434,21.62345 -0.8005,2.22233 -3.9278,6.513 -6.9496,9.53482 -3.0219,3.02183 -6.1404,7.39105 -6.9301,9.70939 -0.7899,2.31835 -3.0345,6.06287 -4.9883,8.32117 -1.9537,2.25829 -3.5522,4.62939 -3.5522,5.26909 0,2.57168 -10.5164,17.49439 -17.8125,25.27601 -1.8906,2.01642 -3.4508,4.32607 -3.4669,5.13255 -0.016,0.8065 -2.8717,5.6851 -6.3456,10.84135 -3.474,5.15625 -6.741,11.6471 -7.26,14.4241 -0.5191,2.77702 -3.0074,8.11325 -5.5294,11.85833 -2.5221,3.74506 -4.5856,7.84705 -4.5856,9.11551 0,1.26848 -2.0748,4.83834 -4.6106,7.93303 -3.505,4.27737 -4.6635,6.8758 -4.8307,10.83537 -0.1212,2.86476 -0.2961,5.61094 -0.3893,6.1026 -0.094,0.49168 -2.8413,3.45571 -6.1069,6.58676 l -5.9375,5.69282 0.3489,9.67127 c 0.256,7.09533 -0.3184,11.66678 -2.1568,17.16325 -1.3781,4.12058 -2.5282,10.30446 -2.5559,13.74196 -0.027,3.4375 -0.8011,9.44007 -1.7187,13.33904 -1.5513,6.59075 -1.462,7.72248 1.2695,16.10111 1.6159,4.95665 2.938,10.67065 2.938,12.69778 0,2.02712 1.4564,7.32601 3.2364,11.77529 2.469,6.1717 3.1358,9.75857 2.8125,15.1292 l -0.4239,7.0396 5.6321,1.43907 c 3.0976,0.7915 7.0351,2.18569 8.75,3.09823 3.7218,1.98046 15.216,11.25565 16.583,13.38148 0.5308,0.82544 1.8136,2.34934 2.8506,3.38644 3.694,3.69393 10.5598,15.09779 10.5868,17.58426 0.047,4.38128 4.6332,12.89699 9.8921,18.36994 2.7871,2.90058 5.4208,6.4291 5.8526,7.84116 0.4318,1.41208 2.8212,5.89337 5.3098,9.95843 4.3611,7.12397 4.5477,7.91767 5.1672,21.96744 l 0.6428,14.57642 7.0427,7.7825 c 6.0402,6.6746 7.1685,8.708 7.926,14.2826 1.2268,9.0293 1.2915,9.3041 4.2509,18.0231 1.4511,4.2752 2.6384,9.6752 2.6384,11.9999 0,2.8366 1.3362,5.9889 4.0625,9.5839 6.8585,9.0438 8.4241,11.7821 8.4309,14.7458 0.013,4.9187 3.2726,10.9614 9.8145,18.1851 7.0557,7.7912 8.9285,12.8968 9.7038,26.4553 0.6434,11.2493 1.1787,13.4348 5.5283,22.5717 1.9806,4.1606 3.9425,10.0668 4.3595,13.125 1.3021,9.5502 1.7611,10.887 5.101,14.8562 5.6275,6.688 4.6782,13.6606 -3.524,25.8853 -1.912,2.8497 -3.4764,6.0566 -3.4764,7.1265 0,1.1391 3.7215,3.9128 8.9814,6.6937 4.9396,2.6117 10.0595,6.2252 11.3775,8.0299 2.8381,3.8866 2.1153,5.7971 -5.7138,15.1056 -2.8027,3.3325 -4.6516,6.668 -4.2607,7.6867 0.3798,0.9898 2.8393,2.4866 5.4656,3.3263 5.1649,1.6513 11.65,6.962 11.65,9.5404 0,0.8787 -1.6095,3.4454 -3.5766,5.7036 -5.0374,5.7829 -7.9942,12.0329 -7.1963,15.2116 0.3743,1.4913 2.6713,4.9463 5.1045,7.6779 7.5076,8.4284 8.612,16.2864 3.1179,22.1838 -3.6576,3.9258 -2.9135,5.97 4.4255,12.1577 3.6694,3.0938 6.7172,6.6205 6.7732,7.8374 0.1518,3.3002 -5.4527,11.5049 -10.476,15.3364 -4.9196,3.7523 -5.4518,5.2596 -2.286,6.4745 2.6118,1.0021 7.5273,6.4277 8.546,9.4326 0.503,1.4837 -0.9185,4.0989 -4.3421,7.9885 -5.6625,6.4329 -6.2767,9.0881 -2.6295,11.366 1.3534,0.8451 3.3705,3.296 4.4824,5.4462 1.9736,3.8165 1.93,4.0373 -1.8356,9.2808 -4.6317,6.4495 -4.768,9.6075 -0.6998,16.2126 1.6938,2.75 3.0825,5.6586 3.086,6.4635 0,0.8049 -2.2436,3.7361 -4.9936,6.5138 -6.2486,6.3113 -6.5275,10.3277 -1.1051,15.9222 l 3.8949,4.0184 -2.876,10.8866 c -3.4498,13.0589 -6.1758,17.417 -14.1779,22.6668 -8.5669,5.6201 -9.0148,6.2041 -6.7585,8.8117 2.1609,2.4973 7.3517,23.9428 5.8469,24.1555 -0.2472,0.035 -2.9805,0.3685 -6.0743,0.7414 -9.569,1.153 -9.6407,1.6467 -2.9898,20.5574 8.0367,22.8507 8.8325,35.4713 2.6769,42.4517 -1.5466,1.754 -5.9059,4.4878 -9.6872,6.0751 -11.3964,4.784 -11.6531,5.2152 -10.8648,18.2359 0.3748,6.1875 1.3567,14.0944 2.1819,17.5709 1.2351,5.2021 1.1696,7.5254 -0.3701,13.125 -1.0289,3.7422 -1.6729,9.8979 -1.431,13.6791 0.242,3.7813 -0.1876,9.4243 -0.9545,12.54 -1.1981,4.8674 -1.0264,6.7156 1.2196,13.125 3.7135,10.5973 4.2284,24.8546 1.3184,36.4999 -3.0148,12.0637 -2.1554,25.5891 2.8804,45.3351 4.1197,16.1543 4.6983,28.1248 1.7056,35.2874 -2.786,6.6679 -2.427,10.1251 1.9569,18.8452 4.7961,9.5404 7.0251,18.312 8.1522,32.0822 0.5125,6.259 1.7479,12.1376 3.021,14.375 1.1847,2.0818 3.6471,9.859 5.4719,17.2825 3.2098,13.0576 3.2985,14.4015 2.7208,41.25 -0.4136,19.2218 -1.1496,29.4818 -2.3946,33.3777 -2.2984,7.1925 -1.5006,17.8715 1.8208,24.375 2.5521,4.9971 9.8651,15.0526 14.7346,20.2603 1.4195,1.5181 2.581,3.127 2.581,3.5753 0,0.4484 2.7471,4.5922 6.1046,9.2084 7.1973,9.8951 10.1454,15.3048 10.1454,18.6159 0,1.325 0.8129,3.0836 1.8065,3.9082 0.9936,0.8247 2.7546,4.4092 3.9135,7.9657 1.1587,3.5563 2.9575,8.1537 3.997,10.2162 1.0395,2.0625 2.286,4.5938 2.7701,5.625 0.4841,1.0313 2.7989,5.5313 5.144,10 2.3451,4.4688 5.308,11.2188 6.5843,15 2.9017,8.5975 9.1111,22.0848 12.1443,26.3784 3.5603,5.0397 10.9708,24.1156 15.0037,38.6216 10.5046,37.7851 12.8495,45.7264 13.8226,46.8125 0.5852,0.6531 1.0759,2.3406 1.0904,3.75 0.015,1.4094 1.4287,6.5 3.1426,11.3125 1.714,4.8125 3.9762,12.4063 5.0271,16.875 1.385,5.8895 3.055,9.3288 6.0696,12.5 4.9383,5.1948 19.7367,32.9555 22.3622,41.9499 1.0153,3.4787 3.5552,9.7104 5.6438,13.8481 3.397,6.7293 5.883,14.376 17.2153,52.952 1.7167,5.8438 3.7634,11.9073 4.5481,13.4744 1.1655,2.3276 1.0271,3.2432 -0.7555,5 -2.0647,2.0347 -2.2759,2.0245 -3.9172,-0.1886 -1.654,-2.2303 -5.5398,-13.9029 -10.0402,-30.1608 -4.5938,-16.5955 -11.0547,-35.3435 -14.2155,-41.25 -1.8396,-3.4375 -4.0335,-8.7812 -4.8753,-11.875 -1.3682,-5.0274 -15.4163,-33.9819 -16.1374,-33.2606 -0.6248,0.6246 7.2487,29.9277 11.0082,40.9699 2.8869,8.4788 4.134,14.7391 4.5655,22.9157 l 0.5937,11.25 -3.8808,3.6714 c -2.1344,2.0192 -3.8752,4.2692 -3.8687,5 0.012,0.7307 2.2396,4.8401 4.9623,9.1319 2.7229,4.2918 5.8814,11.0418 7.0189,15 1.1376,3.9582 3.349,10.5717 4.9141,14.6967 5.3303,14.0483 10.7083,31.7296 11.898,39.1171 0.6529,4.0542 2.5517,9.9374 4.2194,13.0742 2.6584,4.9997 3.1259,7.914 3.7905,23.6308 1.7996,42.5565 1.9436,50.935 1.0279,59.8029 -0.9199,8.9085 -1.1235,9.375 -4.093,9.375 -2.9166,0 -3.1041,-0.3751 -2.8128,-5.625 1.4104,-25.4061 1.6783,-38.3104 0.8769,-42.2511 l -0.9401,-4.6239 -1.1875,4.375 c -0.653,2.4063 -1.2715,14.0498 -1.3745,25.8744 -0.1385,15.9254 -0.6139,21.9209 -1.8336,23.125 -1.3536,1.3362 -1.9819,1.1806 -3.5301,-0.8744 -1.5874,-2.1071 -1.7558,-5.9379 -1.0708,-24.375 1.2236,-32.9382 1.1724,-46.6767 -0.233,-62.5 -0.7022,-7.9062 -1.3629,-12.4062 -1.4681,-10 -0.105,2.4063 -0.7571,17.875 -1.4489,34.375 -1.7846,42.5655 -3.1739,57.0049 -6.8554,71.25 -1.7767,6.875 -3.083,14.2884 -2.9027,16.4743 0.1901,2.3048 -0.5224,4.9302 -1.6962,6.25 -1.1131,1.2516 -3.2682,6.4945 -4.789,11.6507 -3.7452,12.6979 -7.0681,19.0124 -9.7375,18.5038 -2.7396,-0.522 -3.4603,-5.6068 -1.1757,-8.2944 0.9746,-1.1464 2.9831,-6.0219 4.4634,-10.8344 6.4848,-21.0826 6.6298,-22.2814 6.8023,-56.25 0.091,-17.875 -0.3167,-35.5937 -0.9056,-39.375 l -1.0706,-6.875 -1.6506,6.25 c -3.7006,14.012 -4.6891,23.7265 -4.9606,48.75 -0.1567,14.4375 -0.3332,26.9923 -0.392,27.8995 -0.064,0.975 -1.2572,1.4861 -2.9198,1.25 -2.7784,-0.3946 -2.8234,-0.7107 -3.7062,-26.0245 -0.7742,-22.197 -2.7735,-47.0887 -3.3038,-41.1312 -0.097,1.0966 -1.2504,2.9647 -2.5617,4.1515 -1.3114,1.1867 -4.1764,5.6517 -6.3667,9.9221 l -3.9823,7.7644 2.6166,15.1603 c 1.4391,8.3383 2.6166,16.6365 2.6166,18.4407 0,1.8041 0.8408,4.5632 1.8683,6.1315 1.6277,2.4843 1.6372,3.1625 0.074,5.2685 -2.5877,3.4847 -6.0922,0.9367 -7.1699,-5.2129 -0.4693,-2.6784 -1.8613,-10.6355 -3.0933,-17.6824 -2.1307,-12.1864 -3.0499,-14.3995 -4.8033,-11.5625 -0.4249,0.6875 -1.5229,1.25 -2.44,1.25 -3.078,0 -3.0745,-3.5639 0.012,-8.106 2.8963,-4.2679 3.0453,-5.374 2.8319,-21.012 -0.1238,-9.0789 -0.4343,-13.88 -0.6895,-10.6691 -0.5569,7.0046 -3.1924,9.9656 -6.1964,6.9617 -1.8142,-1.8142 -1.8002,-2.9408 0.163,-13.0478 1.1818,-6.0843 1.9123,-13.0174 1.6234,-15.407 l -0.5251,-4.3448 -0.2002,4.5345 c -0.2061,4.6726 -2.8562,8.164 -5.1301,6.7586 -0.8527,-0.527 -1.0331,1.0748 -0.5325,4.7277 0.5255,3.8336 0.2676,5.8272 -0.8425,6.5133 -2.2619,1.3979 -6.1949,-3.8608 -6.1949,-8.2828 0,-2.9849 -0.4785,-3.5462 -2.8125,-3.299 -2.5463,0.2696 -2.7752,-0.1667 -2.4183,-4.6107 0.3432,-4.2733 0.1481,-4.7041 -1.5078,-3.3298 -3.0174,2.5042 -4.713,0.3215 -4.349,-5.5984 0.1846,-3.0014 -0.1012,-5.8941 -0.6356,-6.4283 -0.5341,-0.5342 -0.8348,2.7938 -0.6679,7.3954 0.1744,4.8088 -0.2936,9.086 -1.1005,10.0581 -1.7464,2.1044 -0.8277,5.7544 3.5085,13.9397 1.8565,3.5043 4.0961,8.6217 4.977,11.3717 0.8808,2.75 3.4025,8.6563 5.6039,13.125 2.2014,4.4688 4.7531,10.9375 5.6705,14.375 0.9174,3.4375 2.4801,7.5185 3.4727,9.0688 1.4468,2.2596 1.497,3.1895 0.2538,4.6875 -0.853,1.0278 -2.0714,1.8687 -2.7075,1.8687 -2.0321,0 -7.1568,-6.3857 -6.4994,-8.0989 0.9565,-2.4923 -2.4244,-12.7075 -7.5035,-22.6718 -2.4939,-4.8927 -4.5344,-9.6373 -4.5344,-10.5438 0,-0.9064 -1.869,-5.3409 -4.1533,-9.8542 -2.2844,-4.5135 -4.9239,-10.6519 -5.8655,-13.6412 -1.0984,-3.4868 -2.7008,-5.8107 -4.4705,-6.4836 -1.517,-0.5767 -3.6589,-2.3344 -4.7595,-3.9057 -1.9459,-2.7782 -2.0012,-2.6795 -2.0012,3.5688 0,8.1033 -0.85,10.2902 -4.5455,11.6953 -2.2905,0.8707 -2.9545,2.0597 -2.9545,5.2902 0,2.2919 -0.8093,5.2589 -1.7986,6.5935 -1.6999,2.2932 -1.9181,2.3087 -3.9746,0.2822 -1.9201,-1.8922 -2.0026,-2.8959 -0.7014,-8.5329 0.811,-3.5138 1.4555,-8.455 1.4323,-10.9808 l -0.042,-4.5921 -2.3678,5 c -1.3022,2.75 -2.7416,8.2089 -3.1986,12.1309 -0.9651,8.2807 -3.357,11.2716 -6.5005,8.1281 -1.6936,-1.6936 -1.799,-2.8046 -0.6421,-6.7676 1.7816,-6.1031 4.5337,-25.2931 3.7412,-26.0858 -1.0526,-1.0525 -6.1179,12.0344 -7.7315,19.9754 -1.2731,6.2656 -2.0294,7.69 -4.257,8.0185 -2.525,0.3723 -3.4109,-0.9681 -2.7422,-4.1495 0.1445,-0.6875 -0.4414,-4.204 -1.3022,-7.8145 -1.2676,-5.3179 -1.2512,-8.2257 0.086,-15.3116 1.6879,-8.9458 1.7076,-8.7693 -2.5149,-22.4989 -0.5289,-1.7197 -0.6702,1.1031 -0.3144,6.2776 0.5297,7.7004 0.2785,9.7082 -1.3871,11.0905 -3.241,2.6898 -5.761,-0.3828 -5.912,-7.2086 l -0.1278,-5.7845 -1.0443,4.375 c -0.5742,2.4063 -1.0907,13.0938 -1.1479,23.75 -0.1112,20.7521 -1.0143,40.8405 -1.9571,43.5185 -0.3581,1.0174 -2.1006,1.4936 -4.5732,1.25 -4.7172,-0.4646 -5.698,1.6745 -5.897,12.8606 -0.069,3.8523 -0.4744,10.35 -0.9018,14.4395 -0.6742,6.4502 -1.2436,7.703 -4.2971,9.4555 -1.936,1.1112 -4.6825,4.1759 -6.1033,6.8105 -1.4207,2.6348 -3.8463,6.3787 -5.3903,8.3198 -2.7237,3.4242 -2.8072,4.3746 -2.8072,31.9284 0,25.4761 -0.2368,28.7606 -2.3013,31.9128 -2.2114,3.3767 -2.5772,3.4795 -9.3607,2.632 -3.8826,-0.4851 -8.5588,-1.9497 -10.3916,-3.2548 -5.6376,-4.0143 -6.0581,-3.312 -6.2516,10.4397 -0.3099,22.0348 -0.1949,37.6279 0.3146,42.634 0.4849,4.7653 0.4031,4.8675 -7.0094,8.7623 -4.125,2.1673 -7.7812,3.9932 -8.125,4.0575 -7.1645,1.3397 -10,6.7583 -10,19.1101 0,9.6509 -0.3312,10.2327 -9.3233,16.3736 -7.5638,5.1654 -8.1757,6.0823 -8.1938,12.2768 -0.026,8.8242 -1.0209,11.277 -4.7532,11.715 -2.5305,0.297 -3.4442,1.2631 -4.0583,4.2916 -0.5065,2.4977 -3.4946,6.558 -8.2792,11.25 -6.8898,6.7564 -7.6685,8.089 -9.7687,16.7166 -1.2551,5.1563 -4.3387,13.3125 -6.8526,18.125 -2.5137,4.8125 -5.3116,11.4369 -6.2175,14.721 -1.9686,7.1371 -6.9766,11.8324 -13.7807,12.9204 -2.915,0.4661 -7.0813,2.6634 -10.6644,5.6242 -4.9886,4.1225 -6.7714,4.8594 -11.7555,4.8594 -8.0364,0 -9.7388,1.6911 -10.3911,10.3221 -0.3854,5.0999 -1.3225,8.0259 -3.216,10.0414 -1.4697,1.5644 -3.133,5.0756 -3.6963,7.8029 -1.0009,4.8452 -1.1576,4.9672 -6.8549,5.3372 -3.8701,0.2514 -6.8971,-0.3202 -9.0028,-1.6998 -4.0132,-2.6295 -7.4824,-1.5064 -6.5352,2.1157 0.4219,1.6133 -0.3732,4.1583 -2.0456,6.5474 -3.0822,4.4029 -3.0724,4.3927 -6.9636,7.2172 -2.7128,1.969 -6.273,12.7039 -8.2303,24.8159 -1.8913,11.704 -6.4202,27.4738 -7.8937,27.4863 -2.8285,0.024 -3.1756,-3.7632 -1.0468,-11.4204 2.1292,-7.6579 1.8953,-9.8159 -1.0635,-9.8159 -2.0363,0 -8.163,11.853 -8.163,15.7929 0,3.2392 -3.2298,17.6764 -4.9906,22.3076 -0.735,1.9331 -2.1739,3.1495 -3.7255,3.1495 -3.3581,0 -14.215,-7.6827 -21.6256,-15.3031 -3.2818,-3.3746 -6.6551,-5.9063 -7.4965,-5.6258 -0.8724,0.2908 -1.5951,2.9372 -1.682,6.1585 -0.2259,8.3763 -8.5129,22.0208 -16.3838,26.9757 -3.284,2.0673 -8.221,4.4671 -10.971,5.3328 -2.75,0.8658 -6.514,2.8348 -8.3643,4.3758 -2.9442,2.4516 -6.6197,3.6406 -19.668,6.3617 -3.631,0.7573 -11.7584,9.0734 -13.5848,13.9003 -0.7177,1.897 -2.4919,7.5272 -3.9425,12.5116 -1.4505,4.9844 -3.1376,9.0625 -3.7491,9.0625 -3.9009,0 -5.0663,-1.7651 -5.0663,-7.673 0,-8.6097 -2.2921,-9.0327 -9.9797,-1.8419 -6.3825,5.97 -11.9433,9.2585 -13.323,7.8788 -0.4358,-0.4358 -0.1113,-3.2243 0.721,-6.1969 0.8322,-2.9725 1.3317,-7.6294 1.11,-10.3484 l -0.4033,-4.9436 -7.9225,0.441 c -7.2493,0.4035 -8.2291,0.1473 -11.531,-3.0162 -2.6823,-2.5698 -4.7553,-3.4142 -8.0765,-3.2893 -2.4575,0.093 -5.0483,0.5268 -5.7577,0.9651 -1.7901,1.1063 -0.394,5.843 3.3469,11.3555 2.9171,4.2985 2.9898,4.737 0.9742,5.865 -1.1982,0.6707 -5.8585,1.6273 -10.356,2.1259 -14.9571,1.6583 -23.8024,6.4989 -23.8024,13.026 0,2.8533 8.4717,16.4565 15.1275,24.2909 4.2797,5.0374 4.3263,5.3367 1.2628,8.1091 -3.5819,3.2416 -12.9914,6.4355 -31.427,10.6673 -13.5225,3.104 -19.4803,3.8347 -31.2658,3.8347 -12.518,0 -14.8501,0.3206 -16.6287,2.2859 -1.1379,1.2572 -2.0688,2.572 -2.0688,2.9216 0,0.3495 -2.2825,3.035 -5.0722,5.9676 -6.7496,7.0953 -12.7339,8.109 -19.8948,3.37 -2.7298,-1.8063 -5.8557,-5.0102 -6.9465,-7.1195 -3.2112,-6.21 -5.0041,-3.9635 -4.6363,5.8094 1.0482,27.8603 1.1715,26.6571 -3.8307,37.39 -6.3212,13.5633 -6.4447,13.75 -9.0961,13.75 -2.5026,0 -3.728,-4.5522 -4.8465,-18.0049 -1.003,-12.0631 -5.6769,-12.0336 -5.6769,0.036 0,4.1296 -0.5892,8.6094 -1.3095,9.9551 -0.7202,1.3458 -1.6317,7.0744 -2.0255,12.7304 -0.3938,5.6559 -1.2108,10.8179 -1.8156,11.471 -0.6046,0.6531 -1.0994,4.1687 -1.0994,7.8125 0,5.632 -0.3495,6.625 -2.3313,6.625 -1.2824,0 -3.7808,-1.14 -5.552,-2.5333 -1.7713,-1.3932 -5.2222,-3.3696 -7.6687,-4.3917 -2.9161,-1.2185 -4.448,-2.6884 -4.448,-4.268 0,-1.3253 -0.5871,-2.7724 -1.3047,-3.2159 -2.6404,-1.6319 -4.7874,2.2771 -5.7253,10.4238 -0.5292,4.598 -1.0625,8.782 -1.1848,9.2976 -0.1225,0.5156 -0.2929,2.625 -0.3789,4.6875 -0.1896,4.5502 -3.0556,4.9849 -7.1996,1.0919 -3.8098,-3.5792 -6.2728,-2.3048 -8.0294,4.1545 -0.8045,2.9582 -1.667,6.0945 -1.9166,6.9695 -0.855,2.9966 -4.3413,3.1441 -7.3568,0.3112 -3.8234,-3.5919 -6.1344,-2.2221 -5.2671,3.1221 0.4375,2.6958 -0.046,5.0819 -1.4248,7.0285 -1.2035,1.6997 -2.087,5.3284 -2.087,8.5723 l 0,5.625 -5.9375,-0.3031 c -6.5236,-0.333 -6.3431,-0.6063 -6.1013,9.2362 0.07,2.8506 0.695,6.676 1.3887,8.5008 0.9824,2.5837 0.7488,4.3406 -1.056,7.9418 -1.2745,2.5434 -2.7024,7.1277 -3.173,10.1873 -0.4705,3.0596 -1.3795,6.1942 -2.0199,6.9659 -2.3196,2.7951 -2.164,12.3517 0.3049,18.7128 2.3919,6.163 2.4064,7.3127 0.27,21.3877 -0.618,4.072 -0.11,6.4483 2.4634,11.5271 1.7831,3.5187 3.4805,8.2602 3.7719,10.5366 0.8636,6.745 2.1713,11.2633 4.7485,16.4049 2.1991,4.3874 2.2451,5.033 0.4846,6.7935 -1.6918,1.6916 -2.3694,1.7186 -5.1951,0.2062 -1.7873,-0.9565 -4.5895,-3.079 -6.2272,-4.7166 -3.7197,-3.7197 -6.1105,-2.5112 -5.0933,2.5744 0.4155,2.0776 0.1761,4.4755 -0.532,5.3287 -0.7082,0.8533 -1.4545,4.3432 -1.6587,7.7554 -0.4372,7.3089 -5.0252,15.0453 -7.637,12.8778 -0.869,-0.7213 -1.9258,-4.2313 -2.3485,-7.8002 -0.8071,-6.8147 -4.7276,-12.6025 -6.9896,-10.3186 -1.0945,1.1051 0.4214,9.3066 3.6318,19.6476 1.1827,3.8099 0.216,3.6615 -4.644,-0.7127 -2.625,-2.3626 -2.9433,-2.3895 -5.108,-0.4305 -2.1783,1.9712 -2.3898,1.9107 -3.7488,-1.0718 -1.1489,-2.5215 -2.0546,-3.0068 -4.4769,-2.3988 -3.5473,0.8902 -5.742,-2.1238 -5.742,-7.8863 0,-1.9764 -0.7681,-4.6437 -1.7068,-5.9275 -1.6285,-2.2272 -2.0725,-2.104 -9.6875,2.6905 -8.8813,5.5916 -10.5269,8.0633 -11.7078,17.5844 -0.4462,3.599 -1.3372,8.3765 -1.9797,10.6167 -0.6425,2.2403 -1.1709,5.4833 -1.1743,7.2065 0,1.7233 -1.9602,6.941 -4.3485,11.595 l -4.3425,8.4619 1.0753,19.2301 c 0.5915,10.5767 1.4495,19.8355 1.9067,20.5755 0.4573,0.7399 -0.095,4.0285 -1.2276,7.308 -1.6229,4.6993 -1.8906,8.479 -1.2636,17.8378 1.1735,17.5186 1.6771,21.6026 3.1371,25.4427 0.7256,1.9085 1.3392,11.7303 1.3637,21.8262 0.025,10.149 0.7505,21.43 1.6234,25.2311 0.9035,3.9347 1.228,9.2806 0.7586,12.5 -0.9495,6.5132 -0.5213,14.5117 1.9405,36.25 0.9733,8.5937 2.137,20.9687 2.586,27.5 0.449,6.5312 1.0127,12.2035 1.2523,12.6051 0.2397,0.4015 0.5104,9.9835 0.6014,21.2933 0.091,11.3097 0.6186,23.075 1.1725,26.1448 1.5695,8.7 2.8293,18.7977 3.114,24.9568 0.2833,6.1327 3.5213,20.0261 6.1831,26.5299 0.9219,2.2523 2.0656,8.0326 2.5419,12.8451 0.4762,4.8125 1.909,14.0937 3.1838,20.625 1.2749,6.5312 3.5409,18.3437 5.0354,26.25 1.4946,7.9062 4.0621,19.6887 5.7054,26.1832 1.6434,6.4945 3.3235,15.2133 3.7337,19.375 0.4103,4.1618 1.5828,10.908 2.6055,14.9917 1.0228,4.0837 2.1153,9.99 2.4279,13.125 1.0243,10.2715 1.628,12.4587 4.7571,17.2333 2.3362,3.5647 3.5664,8.1622 5.0372,18.8223 1.0702,7.758 1.9458,15.9676 1.9458,18.2437 0,2.358 0.9437,4.9923 2.1934,6.1233 2.1678,1.9619 17.5495,7.9909 22.2523,8.7221 1.3361,0.2078 2.9918,0.7176 3.6793,1.1331 0.6875,0.4155 7.8773,2.8148 15.9773,5.3318 11.6872,3.6316 15.4286,5.3686 18.125,8.4144 4.5681,5.1601 7.2655,5.9591 13.641,4.0403 2.961,-0.8911 7.2114,-1.2906 9.4452,-0.8878 2.2338,0.4028 23.4707,0.88 47.193,1.0602 39.9502,0.3035 43.722,0.5215 51.137,2.9558 10.0998,3.3155 17.8425,8.269 26.0472,16.6637 6.3952,6.5435 15.3093,18.6371 15.3093,20.7701 0,0.6114 1.1659,2.5938 2.5908,4.4052 2.6512,3.3705 8.958,4.594 10.5342,2.0436 1.21,-1.9579 4.1712,-1.5031 12.8689,1.9765 4.4358,1.7746 8.9799,3.4239 10.0981,3.665 1.1182,0.2412 5.6893,1.663 10.158,3.1596 4.4688,1.4966 9.5313,2.9543 11.25,3.2394 8.7558,1.4522 19.2234,6.2822 24.5794,11.3415 3.1256,2.9524 6.4676,5.368 7.4268,5.368 0.9591,0 1.7438,0.4844 1.7438,1.0762 0,0.592 2.6339,2.4202 5.853,4.0625 7.7114,3.9344 24.3607,14.9322 29.4663,19.4642 2.2306,1.98 5.7416,6.1137 7.8022,9.1861 2.0605,3.0722 4.1084,5.8672 4.5508,6.211 1.3666,1.0619 5.7692,10.4399 6.5835,14.0231 0.6436,2.8324 0.1975,3.6953 -2.6793,5.182 -1.8983,0.981 -4.5765,1.9491 -5.9515,2.1515 -4.0872,0.6013 -17.1703,-1.4612 -21.875,-3.4486 -3.0711,-1.2974 -6.2376,-1.5911 -10.625,-0.9855 -3.4375,0.4744 -7.9375,1.0689 -10,1.3209 -4.4485,0.5437 -11.0463,1.4345 -21.0896,2.8471 -7.4127,1.0426 -10.1935,0.9896 -16.625,-0.3173 -1.9445,-0.395 -6.0666,-1.0036 -9.1604,-1.3522 -6.6982,-0.755 -13.4375,-2.6105 -15.4336,-4.2493 -0.7927,-0.6507 -4.8164,-3.0635 -8.9414,-5.3616 -6.9625,-3.8791 -8.3957,-4.1971 -20,-4.438 -6.875,-0.1426 -14.9275,0.2889 -17.8943,0.9589 -7.3958,1.6704 -24.2909,1.7275 -33.3557,0.1125 -9.3916,-1.673 -29.4373,-4.1521 -36.875,-4.5605 -5.6265,-0.3089 -13.1275,2.4625 -17.8125,6.5811 -4.5751,4.0221 -1.3088,12.323 6.4917,16.4976 1.6583,0.8877 12.4665,1.9772 26.1367,2.6349 12.82,0.6169 25.2779,1.6468 27.6841,2.2885 2.4063,0.6419 9.4375,2.5566 15.625,4.255 6.1875,1.6985 13.7813,3.5031 16.875,4.0104 10.4664,1.716 27.3302,8.9911 31.781,13.7104 2.3463,2.4878 5.3557,4.3888 6.9474,4.3888 5.503,0 28.4899,13.907 37.5216,22.7005 11.081,10.7888 18.766,20.5519 23.2939,29.593 3.7698,7.5277 4.2836,9.3909 2.8415,10.3038 -4.1627,2.6354 -27.0872,0.4519 -40.0975,-3.8193 -6.6631,-2.1873 -7.9309,-2.2611 -12.0545,-0.7016 -2.5346,0.9585 -10.5146,2.041 -17.7334,2.4055 -7.2187,0.3645 -15.375,0.8765 -18.125,1.1378 -2.75,0.2612 -7.25,-0.2387 -10,-1.1108 -13.1947,-4.1849 -22.2622,-5.7056 -37.9497,-6.3647 -10.5406,-0.4429 -18.7206,-1.4119 -21.4253,-2.5379 -3.0718,-1.279 -11.077,-1.9838 -26.875,-2.3658 -12.375,-0.2993 -24.1875,-1.0636 -26.25,-1.6985 -7.0583,-2.1727 -13.7628,-2.8647 -30.625,-3.1611 -17.4926,-0.3075 -21.0617,-1.0586 -26.1287,-5.4987 -3.6266,-3.1779 -11.4723,-3.5069 -18.0535,-0.7572 -2.4681,1.0313 -6.7336,1.875 -9.4789,1.875 -5.8854,0 -9.7696,3.4008 -10.6012,9.2815 -0.299,2.1139 -1.1423,8.2032 -1.874,13.5317 -0.7319,5.3285 -2.1532,11.6566 -3.1584,14.0625 -1.7398,4.164 -2.1164,4.3695 -7.829,4.2723 -3.3006,-0.056 -7.9606,-0.955 -10.3555,-1.9976 z m 849.3646,-1759.4629 c 0.7205,-10.782 0.6004,-14.6875 -0.4519,-14.6875 -0.939,0 -1.4335,2.9655 -1.4335,8.597 0,8.5904 -1.882,12.705 -4.9453,10.8119 -1.6966,-1.0486 -1.7149,6.0766 -0.03,11.8493 0.7007,2.4018 1.9663,12.8043 2.8125,23.1168 l 1.5383,18.75 0.7645,-21.875 c 0.4204,-12.0312 1.2062,-28.4844 1.7459,-36.5625 z m -34.5758,37.5462 c 4.0369,-7.7458 5.6797,-16.5144 3.7359,-19.9421 -1.5876,-2.7998 -1.6791,-2.6915 -2.2871,2.7084 -0.4375,3.8851 -1.2134,5.625 -2.5084,5.625 -1.1085,0 -2.1353,1.533 -2.5116,3.75 -0.439,2.5858 -1.3122,3.6961 -2.8125,3.5764 -1.8782,-0.1499 -2.1759,1.03 -2.1759,8.6224 l 0,8.796 3.0704,-4.2474 c 1.6886,-2.3361 4.1587,-6.336 5.4892,-8.8886 z m 18.3794,-26.6087 c 0.3175,-2.75 0.2455,-4.2969 -0.16,-3.4375 -1.0984,2.3276 -5.2606,1.888 -5.9174,-0.625 -0.3144,-1.2031 -0.6027,5.4063 -0.6406,14.6875 l -0.069,16.875 3.1048,-11.25 c 1.7077,-6.1875 3.3646,-13.5 3.6823,-16.25 z m -24.2855,3.6661 c -1.1225,-4.7885 -1.1556,-4.8133 -1.2779,-0.9558 -0.1333,4.203 1.2937,9.2818 2.0068,7.1426 0.233,-0.6989 -0.095,-3.4829 -0.7289,-6.1868 z m -89.3336,-14.6273 c -0.3424,-0.8464 -0.6016,0.1487 -0.5763,2.2112 0.025,2.0625 0.3057,2.7549 0.6227,1.5388 0.3168,-1.2163 0.2961,-2.9038 -0.046,-3.75 z m 145.0417,-1.8513 c -0.3143,-1.2031 -0.5716,-0.2187 -0.5716,2.1875 0,2.4063 0.2573,3.3906 0.5716,2.1875 0.3145,-1.2031 0.3145,-3.1719 0,-4.375 z m -119.5766,-2.0955 c -0.7067,-1.8589 -1.2936,-6.015 -1.3041,-9.2359 -0.014,-4.2417 -0.3533,-5.3392 -1.2309,-3.9811 -0.6665,1.0313 -1.2204,3.1293 -1.2309,4.6623 -0.021,3.0199 3.7237,13.2616 4.5474,12.438 0.2769,-0.277 -0.075,-2.0244 -0.7815,-3.8833 z m 39.4663,-1.2837 c -0.4394,-1.7508 -1.3018,-3.1833 -1.9165,-3.1833 -0.6147,0 -0.4888,1.666 0.2798,3.7023 1.6555,4.386 2.7784,4.0298 1.6366,-0.519 z m 60.9605,-46.8118 c -0.5554,-2.7769 -1.2074,-3.6259 -2.0998,-2.7335 -0.8922,0.8922 -0.8244,2.3254 0.2188,4.6146 1.9431,4.2649 2.9157,3.2923 1.881,-1.8811 z m -7.2065,-9.783 c -0.4154,-0.4154 -0.7109,0.323 -0.6567,1.6406 0.06,1.4563 0.3563,1.7524 0.7553,0.7553 0.3611,-0.9024 0.3167,-1.9805 -0.099,-2.3959 z"
     id="path4146"
     style="fill:#000000" />
</svg>
