<?xml version="1.0" encoding="UTF-8" standalone="no"?>
<!-- Created with Inkscape (http://www.inkscape.org/) -->

<svg
   xmlns:svg="http://www.w3.org/2000/svg"
   xmlns="http://www.w3.org/2000/svg"
   version="1.0"
   width="540"
   height="540"
   id="svg37">
  <defs
     id="defs42" />
  <path
     d="m 149.46559,234.8502 c 0,17.54 -2.868,42.557 -16.21,55.787 -9.447,9.368 -37.992203,14.069 -32.79,32.213 -3.445303,2.434 -2.756903,6.207 -3.901203,10 -2.1623,7.167 -8.7512,13.882 -6.6505,21.961 1.8823,7.238 12.957103,15.337 20.442703,12.026 12.05,-5.33 -3.959,-12.938 -6.0283,-17.042 -2.0717,-4.108 1.2253,-11.56 3.9263,-14.72 7.589,-8.878 21.992,-13.694 32.211,-18.551 6.246,-2.969 10.505,-8.066 16,-12.04 14.492,-10.481 34.317,-19.805 37,-39.634 6.078,6.963 16.201,16.392 16.91,26 0.592,8.034 -1.018,16.779 -4.504,23.999 -1.967,4.074 -7.19,8.411 -7.188,13.013 0.002,5.202 6.891,12.141 10.111,15.984 6.805,8.124 17.578,19.731 28.671,20.805 9.263,0.897 21.777,0.04 19,-11.801 l -3,1 c -3.2,-8.365 -11.609,-2.066 -18,-5.272 -6.712,-3.365 -12.726,-18.418 -12.735,-25.689 -0.01,-8.464 11.038,-13.238 14.689,-20.039 2.807,-5.23 3.446,-11.431 5.391,-17 2.143,-6.136 6.88,-11.714 8.261,-18 1.852,-8.432 -2.019,-22.8402 -4.606,-31 6.062,4.6774 9.798,10.1191 17,13.6258 20.851,10.1522 50.341,9.3742 73,9.3742 -3.462,14.543 -1.501,31.076 -3.285,46 -1.572,13.142 -7.775,26.63 -5.247,40 1.987,10.511 19.065,22.006 29.304,14.258 11.43,-8.651 -8.891,-14.136 -14.772,-14.258 3.917,-8.139 1.713,-18.25 3.017,-27 0.82,-5.501 5.116,-9.64 6.454,-15 3.12,-12.492 1.791,-34.722 13.142,-43.487 3.962,-3.059 11.573,-2.616 16.387,-3.513 3.795,15.976 18.39,24.129 29.907,34.464 4.607,4.134 7.197,9.936 11.393,14.443 4.997,5.367 11.899,8.815 17.415,13.588 6.441,5.573 11.276,12.762 18.285,17.872 8.6,6.269 13.928,7.453 24,9.007 3.861,0.596 9.183,1.321 10.562,-3.483 2.892,-10.079 -21.174,-16.159 -27.562,-21.27 -19.415,-15.532 -33.243,-38.645 -45.931,-59.621 -3.998,-6.609 -9.441,-21.2132 -5.041,-28.6991 3.181,-5.4121 12.517,-7.0636 17.972,-9.3009 6.127,9.6725 17.936,4.9454 26.957,6.6026 5.544,1.0186 7.417,7.9708 14,7.125 3.79,-0.487 5.407,-3.9515 7.719,-6.5224 9.111,-10.1314 6.615,-28.2977 -0.36,-40.2052 -2.143,-3.6579 -5.047,-9.0177 -9.359,-10.3326 -5.293,-1.6136 -9.544,1.5539 -14.957,-1.1466 -13.724,-6.8462 -25.266,-7.5313 -40,-10.1358 -5.904,-1.0435 -11.184,-4.0368 -17,-5.0563 -16,-2.8045 -38.043,-1.8043 -54,1 -6.724,1.1816 -11.47,6.5838 -18,8.1389 -12.338,2.9385 -26.495,-0.4676 -39,-0.4676 -18.742,0 -36.55,3.1456 -55,3.9606 -17.826,0.7875 -35.73,-0.7119 -53,5.1436 -12.099,4.1023 -23.815,14.0252 -34,21.5463 -24.523,18.1083 -46.740603,40.0916 -72.000003,57.0105 -15.8225,10.598 -39.5174,0.987 -53.4676,18.379 -5.80943,7.243 -6.4803,20.021 -5.3472,28.96 0.6351,5.01 3.8911,10.139 9.706,8.551 4.5021,-1.23 3.6439,-6.051 4.9267,-9.551 1.6837,-4.594 5.5871,-9.279 10.1821,-11.142 3.7755,-1.531 8.0861,-0.522 12,-1.577 9.9112,-2.673 21.576,-6.101 31,-10.321 8.3073,-3.72 15.5649,-10.806 23.000003,-16.047 14.933,-10.528 29.729,-20.2119 43,-32.913 z"
     id="path39"
     style="fill:#000000;stroke:none" />
</svg>
