<?xml version="1.0" encoding="UTF-8" standalone="no"?>
<!-- Created with Inkscape (http://www.inkscape.org/) -->

<svg
   xmlns:svg="http://www.w3.org/2000/svg"
   xmlns="http://www.w3.org/2000/svg"
   version="1.1"
   width="100%"
   height="100%"
   viewBox="0 0 388 212.2"
   id="Layer_1"
   xml:space="preserve"><defs
   id="defs7" />
<path
   d="m 388,22.9 c -3.2,8.6 -8.1,14.9 -17.9,17.1 -18.1,4 -23.3,18.5 -26,34.4 -0.8,4.4 -1.4,8.9 -1.8,13.3 -0.5,5.5 -2.8,10 -6,14.4 -1.9,2.6 -3.2,6.6 -2.7,9.7 1,6.8 -0.6,12.8 -2.7,19 -0.3,0.8 -0.5,1.6 -0.8,2.4 -4,10.9 -1.2,19.6 7.4,27.5 7.8,7.1 14.5,15.4 21.5,23.3 1.8,2.1 2.4,5.4 4.4,7.2 2.5,2.3 5.7,4.7 8.9,5.3 5.8,1.2 10.1,4.3 14.7,7.4 -4.8,8.3 -12.2,9.1 -20,7.8 -2.6,-0.4 -5,-2.6 -7.1,-4.4 -8.6,-8.1 -16.8,-16.7 -25.7,-24.4 -11.8,-10.1 -24.3,-19.4 -36.3,-29.3 -5,-4.1 -9.8,-1.3 -14.8,-1.4 -0.2,0.5 -0.3,1 -0.5,1.5 2,1.1 3.9,2.4 6.1,3.3 5.4,2.1 10.8,3.8 16.2,5.9 3.1,1.2 5.4,2.9 6.4,6.8 1.4,5.5 4.3,10.5 6.1,15.9 1.1,3.4 1.5,7.1 1.9,10.7 0.8,6.1 0.6,5.6 -5.5,6.5 -3.5,0.5 -6.4,1.3 -8.4,-2.3 -1.4,-2.7 -2.8,-5.5 -3.6,-8.4 -1,-3.6 -1.1,-7.6 -2.4,-11.1 -0.9,-2.3 -3.1,-5.1 -5.3,-5.8 -10.4,-3.3 -21,-5.9 -31.6,-8.9 -0.9,-0.3 -1.8,-0.7 -2.7,-1.2 -5.5,-3.1 -10.9,-4.3 -17.5,-3.5 -6.6,0.8 -13.6,-0.6 -20.3,-1.7 -7.3,-1.2 -14.5,-3.3 -21.8,-4.9 -3.3,-0.7 -5.3,0.3 -6.1,3.9 -2.4,10.8 0.2,17.4 9.6,23.3 4.2,2.7 8.1,4.8 13.6,4.9 6.7,0.1 10.6,6.3 15.5,10.2 -8,8.2 -17.1,5.8 -25.9,5.5 -1.1,0 -2.4,-1 -3.3,-1.9 -9.8,-9.4 -19.6,-19 -29.4,-28.4 -3.1,-2.9 -2.7,-5.9 -1.4,-9.5 3.3,-9.5 -1.7,-16 -11.3,-14.8 -1.6,0.2 -3.5,1.1 -4.6,2.3 -8.3,8.6 -18.2,15 -29.6,18.1 -13.1,3.6 -25.2,0.7 -35.1,-9.3 -2,-2 -4.3,-3.6 -7.7,-6.4 -0.8,4.5 -1.6,8.1 -1.9,11.6 -0.3,3.8 -0.6,7.7 -0.1,11.5 0.2,2 1.7,4.3 3.4,5.5 5.2,3.6 6.9,8.2 4.2,13.2 -1.7,3.2 -10.9,4.9 -14.7,2.7 -0.6,-0.3 -1,-1 -1.6,-1.2 -3.6,-1 -7.6,-1.9 -7.6,-6.5 0,-3.5 1.4,-7 1.8,-10.5 1,-9.4 1.9,-18.8 2.5,-28.2 0.3,-4.9 -0.2,-10 0.3,-14.9 0.5,-5.4 5,-7 9.3,-3.8 4.9,3.7 9.5,7.9 16.3,7.5 4.1,-0.3 6,-2.4 4.5,-6.1 -4.1,-10.2 -1.7,-20 1.7,-29.6 3,-8.3 2.5,-9.9 -6.4,-11.9 C 83,89.3 70.9,83.8 60.7,75.1 52.5,68.1 45,60 38.2,51.5 31.2,43 22.5,37.9 12.3,35.3 6.6,33.8 2.8,30.9 0,25.4 c 1.6,-1.2 3.2,-2.8 5,-3.5 27.1,-10.1 53,-7.7 76.6,9.2 10,7.2 18.5,16.4 27.6,24.8 4.4,4 8.4,8.4 12.7,12.5 4.2,4 9.1,1.5 12.4,-0.6 9.6,-6 20.2,-6.8 30.9,-7.2 15.7,-0.6 31.1,2.1 46.4,5.3 10.3,2.2 20.9,4.7 31.5,1.7 7.6,-2.2 15.1,-4.8 22.6,-7.3 6.7,-2.2 11.2,-7 14.7,-12.9 3.6,-6 7.2,-12 10.2,-18.3 1.1,-2.2 0.9,-5.2 0.9,-7.8 0,-3.4 -1.1,-6.9 -0.6,-10.2 1.1,-6.9 5.3,-8.8 11.5,-5.7 4,2 7.7,5.3 12.3,2.3 2,-1.3 3.5,-3.4 5.4,-4.9 1.4,-1.2 4.5,-2.9 4.6,-2.8 5.6,7.4 14.8,5.4 21.9,8.5 2.1,0.9 4.7,1.3 6.3,2.7 6.8,6.2 15.4,5.8 23.7,6.9 3.8,0.5 7.5,1.8 11.2,2.7 0.2,0.7 0.2,1.4 0.2,2.1 z"
   id="path3" />
</svg>