<?xml version="1.0" encoding="UTF-8" standalone="no"?>
<!-- Created with Inkscape (http://www.inkscape.org/) -->

<svg
   xmlns:svg="http://www.w3.org/2000/svg"
   xmlns="http://www.w3.org/2000/svg"
   version="1.1"
   width="1020"
   height="1024"
   viewBox="0 0 1020 1024"
   id="Layer_1"
   xml:space="preserve"><defs
   id="defs89" />
    
    <g
   id="g3">
        
        <g
   id="g5">
            
            <path
   d="M 35.5,84 H 35 c 0,0.4 0,0.6 0,1 -0.5,4.9 -0.1,8.9 1,12 0,0.4 0,0.6 0,1 0,0.4 0,0.6 0,1 -0.5,3.9 -0.1,6.9 1,9 0,4.4 0,8.6 0,13 0,0.4 0,0.6 0,1 -3.8,6.5 -6.8,12.1 -8.8,17 -0.2,0.4 -0.2,0.6 -0.2,1 -7.6,1.9 -8.9,3.7 -4,5.8 0.4,0.2 0.6,0.2 1,0.2 -2.4,6.5 -6.7,11.9 -12.8,16.4 -0.101,0.1 -0.2,0.2 -0.2,0.6 2,2.1 3,4.9 3,8 0,0.4 0,0.6 0,1 -4.3,2.4 -7.1,6.4 -8.5,11.9 0,0.1 -0.2,0.1 -0.5,0.1 3.6,6 1.9,11.6 -5.2,16.7 -0.2,0.2 -0.5,0.3 -0.8,0.3 0,0.6 0,1.4 0,2 0,0.4 0,0.6 0,1 0.3,0 0.6,0.1 0.7,0.2 C 2.6,206 3,208.6 2,212 H 1.5 c 4.9,4.7 9.1,8.7 12.5,12 h -0.5 c 0.9,3.8 3.7,7.5 8.5,11 0.4,0 0.6,0 0.9,0.2 1.4,0.8 2.8,1.8 4.1,2.8 -1.1,1.7 -3.3,1.5 -6.2,-0.8 -0.2,-0.1 -0.399,-0.2 -0.8,-0.2 0,0.4 0,0.6 0.2,0.9 1.2,2.1 2.8,3.8 4.8,5.1 -0.1,2.5 -0.4,4.9 -0.5,7 H 25 c 0,-0.4 0,-0.5 0.2,-0.6 0.5,-0.3 1.2,-0.4 1.8,-0.4 0,4 0,8 0,12 0,0.4 0,0.6 0,1 h 0.5 c -0.1,5.2 1,9.2 3.5,12 v -0.5 c 5,2.5 6,5.7 3,9.5 0,0.4 0,0.6 0,1 0.2,4.1 2.9,8.8 8,14 -1.6,3.5 -1.7,6 -0.3,7.2 0.2,0.2 0.3,0.4 0.3,0.8 0,3.6 0,7.4 0,11 0,0.4 0,0.6 0,1 0,0.4 0,0.6 0.1,1 1.5,4.9 2.101,12 1.9,21 0.4,0 0.5,0 0.5,-0.1 1.7,-4.801 3.5,-6.7 5.5,-5.9 0.4,0 0.5,0 0.5,0.1 1,4.301 -0.5,9.5 -4.5,15.9 0,0.4 0,0.5 0.1,0.5 2.7,0.8 5.601,0 8.9,-2.5 h 0.5 c -1,5 -0.5,8.7 1.5,11 0,0.6 -0.1,1.1 -0.5,1.4 l -2,1.6 c 3.2,2.3 5.7,5.6 7.5,10 h 0.5 c -0.1,4.5 0.4,8.1 1.5,11 0,-0.4 0,-0.6 0,-1 -0.1,-2.5 0.9,-3.8 3,-4 -0.3,2 -0.5,4 -0.5,6 H 67 l 0,0 c -0.5,8.9 0.9,17.5 4,26 h 0.5 c -0.4,-4.7 0.8,-7.7 3.5,-9 0.1,6.7 -0.5,10.4 -2,10.9 -0.4,0.1 -0.6,0.1 -1,0.1 0,0.4 0,0.6 0.1,1 1.4,5.1 3,10.1 4.9,15 0,-0.4 0,-0.6 0,-1 -0.5,-2.9 0.2,-4.5 2,-5 0,3.6 -0.1,7.3 -0.5,11 0,0 -0.1,0 -0.5,0 -0.4,0 -0.6,0.1 -0.9,0.2 -3,2 -2.399,2.899 1.9,2.8 0,0.4 0,0.6 0,1 0.4,0 0.6,-0.1 0.9,-0.3 0.699,-0.4 1.8,-0.7 3.1,-0.7 -1,3 -1.3,6.6 -1,11 0,0.4 0,0.6 0,1 h 0.5 c -0.1,2.9 0.7,4.5 2.5,5 0,-0.4 0,-0.6 0,-1 0.2,-1.1 0.9,-1.8 2,-2 0,4.4 -0.1,8.6 -0.5,13 0,0 -0.1,0 -0.5,0 h -0.5 c 2.3,3.1 4.1,9.1 5.5,18 h 0.5 c -0.5,-3.5 0.4,-5.5 2.5,-6 0.4,3.4 0.1,6.1 -0.8,8.1 -0.2,0.3 -0.2,0.5 -0.2,0.9 0.4,0 0.5,0 0.6,0.2 1.4,3.1 3.5,7 6.4,11.8 0,0.4 0,0.6 0,1 -0.1,5.5 0.5,10.1 2,14 0.4,0 0.5,0 0.6,0.2 3.101,5 6.5,10.7 10.4,16.8 h -0.5 c 1.6,8.3 3.9,12.9 6.5,14 0.4,0 0.5,0.1 0.5,0.1 1.6,7.601 5.5,13 11.5,15.9 0.4,0 0.5,0 0.5,0.1 0.5,5.101 1.6,9.5 3.5,12.9 0.4,0 0.6,0.1 0.8,0.2 4.7,3.5 8.2,6.8 10.2,9.8 0,0.4 0,0.6 0.2,0.6 4,1.9 5.899,4.7 5.8,8.4 0,0.4 0,0.6 0.2,0.6 5.6,2.5 9.5,6.601 11.8,12.4 0.4,0 0.6,0.1 0.9,0.2 2.6,1.399 5.199,2.7 8.1,3.8 0,0.4 0,0.6 0.2,0.9 0.8,2.1 1.8,4.1 2.8,6.1 0.4,0 0.6,0.1 1,0.1 5.2,2.101 9.9,6.5 14,12.9 0,0.4 0,0.6 0.1,0.9 3.301,14.399 5.301,30 5.9,47.1 0.4,0 0.6,0 1,0 0,17.4 0,34.6 0,52 0,0.4 0,0.6 0,1 0,0.4 0,0.6 0,1 0.5,18.7 2.2,36.4 5,53 -12.5,48.2 -28.4,92.9 -47.8,134.1 -0.2,0.2 -0.2,0.601 -0.2,0.9 -9.3,18.3 -20.2,35.1 -32.8,50.2 -0.101,0.2 -0.2,0.399 -0.2,0.8 -2.8,1 -5,2.4 -6.8,4.2 -0.101,0.2 -0.2,0.399 -0.2,0.8 -2,0.3 -4,0.6 -6,1 -0.4,0 -0.6,0 -1,0 -5,5 -12.4,7.7 -22,8 -0.4,0 -0.6,0 -1,0 -11.3,6.2 -19.7,13.8 -25.4,22.7 -0.1,0.2 -0.199,0.3 -0.6,0.3 2.7,2.6 4.4,6.2 5,11 0,0.3 0,0.7 0,1 7,2.7 14.6,4.9 22.9,6.5 0.1,0 0.1,0.2 0.1,0.5 0.4,0 0.6,0 1,0 13,0 26,0 39,0 v -0.5 c 8.1,0.1 13.5,-2.4 16,-7.5 0.4,0 0.6,0 1,-0.1 3.2,-0.301 5.9,-1.301 8,-2.9 0,-0.4 0.1,-0.6 0.2,-0.7 2.899,-2.2 4.5,-5.6 4.8,-10.3 0.4,0 0.6,-0.1 0.8,-0.3 9.601,-8.3 17.3,-18.601 23.2,-30.7 0,-0.4 0,-0.6 0.1,-1 0.601,-1.6 0.9,-3.6 0.9,-6 0.4,0 0.5,-0.1 0.7,-0.3 1,-1.3 2.2,-2.601 3.3,-3.7 0,-0.3 0.1,-0.6 0.2,-0.8 1,-1.4 1.3,-3.4 0.8,-6.2 0.4,0 0.5,-0.1 0.7,-0.3 4.8,-6.2 9.5,-12.5 14.3,-18.7 0,-0.3 0,-0.7 0.1,-1 2.301,-11.7 7.9,-20 16.9,-25 0,-0.3 0,-0.7 0.1,-1 3.601,-11.9 7.301,-22.3 10.9,-31 0.4,0 0.6,0.1 0.9,0.2 25,17.6 47,38.2 66.1,61.8 0,0.3 0,0.5 0.1,0.5 9.801,3.2 18.101,7.7 24.9,13.5 0.4,0 0.6,0 1,0 5,0.4 10,0.7 15,1 0,0.3 0.1,0.5 0.2,0.7 5.399,3.399 10.7,3.8 15.8,1.3 0.4,0 0.6,-0.1 0.7,-0.3 2.3,-2.2 1.1,-3.5 -3.7,-3.7 v 0.5 c -1.5,-2 1.8,-3.8 10,-5.5 0,-0.3 0,-0.5 -0.1,-0.5 -3.5,-1 -8.101,-3.2 -13.9,-6.5 0,-0.3 0,-0.7 -0.2,-0.9 -3.399,-6 -3.7,-10.399 -0.8,-13.1 0.4,0 0.6,0 1,0.2 6.7,2.8 12.1,1 16,-5.2 -6.6,1.3 -12.2,-0.8 -16.8,-6.2 -0.101,-0.2 -0.2,-0.5 -0.2,-0.8 -0.5,-4.5 -1.5,-8.5 -2.9,-12.1 -0.1,-0.2 -0.1,-0.601 -0.1,-0.9 -5.5,-5.8 -13.5,-9.1 -24,-9.9 -0.4,-0.1 -0.6,-0.1 -1,-0.1 -1.6,-2.8 -3.9,-4.8 -6.8,-6.4 -0.2,0 -0.2,-0.3 -0.2,-0.6 -2.1,-0.8 -4.9,-1.2 -8,-1 -0.4,0 -0.6,0 -1,0 -8,-5.1 -13.9,-12.1 -17.8,-21.1 -0.2,-0.2 -0.2,-0.601 -0.2,-0.9 -6.9,-6.4 -14.1,-12.6 -21.8,-18.3 -0.101,-0.101 -0.2,-0.4 -0.2,-0.7 -4,-8.1 -7,-17.1 -8.9,-27 -0.1,-0.3 -0.1,-0.7 -0.1,-1 3.9,-6.5 7.6,-13.1 11.4,-19.8 0.1,-0.101 0.199,-0.2 0.6,-0.2 2.5,-11.8 6.4,-21.5 11.7,-29.1 0.2,-0.301 0.3,-0.5 0.3,-0.9 -1,-3.9 0,-7.2 3.2,-9.8 0.2,-0.101 0.399,-0.2 0.8,-0.2 4.5,-12.5 8.8,-25.2 12.9,-38.1 0.1,-0.301 0.1,-0.5 0.1,-0.9 4.5,-5.5 8,-12.1 10.5,-19.9 0,0 0.1,-0.1 0.5,-0.1 3.6,-10.4 5.9,-19.4 7,-27 0,-0.4 0,-0.6 0,-1 10.5,-14.3 17.4,-29.6 20.5,-45.9 0,0 0.1,-0.1 0.5,-0.1 1.5,-0.1 4,-2.1 7.7,-6.3 0.2,-0.101 0.3,-0.3 0.3,-0.7 v -0.5 c 4.4,0.9 7,-0.9 8,-5.5 0,2.4 0,4.6 0,7 0,0.4 0,0.6 0,1 0.4,0 0.5,-0.1 0.6,-0.2 2.5,-5.2 5,-7.1 7.4,-5.8 0,0.4 0.1,0.6 0.2,0.8 3.899,5 7.5,4.4 10.8,-1.8 -0.1,1.8 0,2.4 0.4,1.9 5.199,-7.801 8.5,-10.101 9.6,-6.9 0,0.4 0,0.6 0,1 0.4,0 0.5,-0.1 0.6,-0.2 0.9,-1.7 2.801,-1.2 5.4,1.2 0,-0.4 0,-0.6 0,-1 0.2,-3.5 2.2,-1.1 6,7 0.4,0 0.5,-0.1 0.5,-0.1 1.9,-6.4 3,-8.7 3.5,-6.9 0.4,0 0.6,-0.1 0.9,-0.2 3.8,-1.899 7.5,0.601 11.1,7.2 0,-0.4 0,-0.6 0,-1 0,-2 0,-4 0,-6 -0.4,0 -0.5,0 -0.5,-0.1 -0.8,-7.301 -0.3,-8.7 1.5,-3.9 0.4,0 0.6,0 1,0 0,1.4 0,2.6 0,4 0,0.4 0,0.6 0,1 3.5,-1.4 5.4,-0.8 5.6,1.9 0.301,3.1 1.4,2.5 3.4,-1.9 0.4,0 0.6,0.1 1,0.1 2.5,0.601 4.1,3.601 5,8.9 -0.4,0 -0.5,0.1 -0.5,0.1 -2,8.301 -1.1,13.601 2.5,15.9 0,0.4 0,0.6 0,1 0.3,7.7 0.6,15.4 1,23 0.4,0 0.5,0.1 0.5,0.1 1.5,8 4,15 7.5,20.9 0,0.4 0,0.6 -0.1,0.9 -1,3.199 0,5.8 3.1,8.1 0,0.4 0,0.6 0,1 3,20.6 10,37.2 21,50 0,0.4 0,0.6 0.1,0.9 1.4,4.3 3.601,7.699 6.9,10.1 0,0.4 0,0.6 0,1 0.4,2 0.6,4 1,6 0.4,0 0.5,0.1 0.6,0.2 10.3,14.9 19.4,30.9 27.4,47.8 0,0.3 0,0.7 0,1 0,2.3 0,4.7 0,7 0.4,0 0.5,0.1 0.6,0.2 7.4,15 10.9,34 10.4,56.8 -0.4,0 -0.5,0.1 -0.5,0.2 -5.9,19 -12.4,37.2 -19.5,54.8 -0.4,0 -0.5,0 -0.6,0.2 -7.2,16 -17.301,28.899 -30.4,38.8 -0.4,0 -0.6,0 -1,0 -9,0.6 -16.8,2.6 -23,6 0,0.4 0,0.6 -0.1,1 -0.5,2 -1.5,3.7 -2.9,5 -0.4,0 -0.6,0 -0.9,0.2 -2.1,0.9 -4.1,1.8 -6.1,2.8 -0.4,0 -0.6,0.1 -0.8,0.2 -5.101,4 -8.5,9.5 -10.2,16.8 v 0.5 c 3.5,-1 4.9,0.7 4,5.5 v 0.5 c 6.7,-1.1 13,0.8 19,5.5 0.4,0 0.6,0 1,0 21.5,1.1 39.5,-0.3 54,-4 0,-0.4 0.1,-0.6 0.2,-0.7 9.8,-8.3 17.3,-18.8 22.8,-31.3 0,-0.4 0.1,-0.6 0.2,-0.9 C 529,927.3 546.9,886.6 564,845 544.4,801.3 536.4,752.3 539.9,698 c 0.1,-0.4 0.1,-0.6 0.1,-1 2.6,-3.1 4.9,-6.4 6.8,-10.1 0.101,-0.301 0.2,-0.5 0.2,-0.9 -0.6,-9.1 0.1,-13.5 2,-13.1 0.4,0 0.6,0.1 1,0.1 1.1,-6.1 3.1,-13.4 5.9,-22.1 0,-0.301 0.1,-0.5 0.1,-0.9 3.7,-4.6 5.6,-9.9 5.5,-16 H 561 c -0.4,0 -0.5,-0.1 -0.6,-0.1 -1.5,-5.5 -0.7,-8.801 2.6,-9.9 0,0.4 0,0.6 0,1 0,0.4 0.1,0.6 0.2,0.7 3.2,2.7 5.5,3.1 6.8,1.3 -4.9,-1.1 -7.6,-4.4 -7.9,-10 -0.1,-0.4 -0.1,-0.6 -0.1,-1 2.7,0.1 3.7,-1.2 3.1,-4 0,-0.4 -0.1,-0.6 -0.1,-1 0,-0.4 -0.1,-0.6 -0.1,-1 -0.801,-4.9 -0.2,-8.3 2.1,-10 0,1.4 0,2.6 0,4 0,0.4 0,0.6 0,1 v 0.5 c 4.7,-1.8 6.1,-6.3 4,-13.5 v -0.5 c 2.1,-0.1 3.7,-1.9 5,-5.5 0,0.4 0.1,0.6 0.2,0.8 2.899,3.8 6.5,6.8 10.8,9.2 v -0.5 c 0.9,3.5 2.9,6 6,7.5 0,0.4 0.1,0.6 0.1,0.9 3,7.1 5.301,14.5 6.9,22.1 0,0.4 0.1,0.6 0.2,0.6 5.2,2.301 7.7,7.101 7.8,14.4 0.4,0 0.6,0.1 0.6,0.2 10.9,15.6 23.3,27.899 37.4,36.8 0.399,0 0.6,0.1 0.7,0.2 4.3,4.5 8.699,8.7 13.3,12.8 0.399,0 0.6,0.1 0.899,0.1 4,1.4 7,3.7 9.101,6.9 10.399,3.2 19.899,6.7 28.6,10.4 47.101,20.5 70.3,64.3 69.4,131.6 0.3,0 0.7,0 1,0 0,6.7 0,13.3 0,20 0,0.3 0,0.7 0,1 h 0.5 c -0.2,22.2 1.899,41.8 6.5,59 0.3,0 0.6,0.1 0.7,0.2 7.3,7.5 13,16.399 17.3,26.8 0.3,0 0.6,0.1 0.8,0.2 7.1,4.6 13.1,10.2 18.2,16.8 0.3,0 0.5,0 0.5,-0.1 0.7,-4.4 1.899,-9.4 3.5,-14.9 v -0.5 c 4.399,3.9 8.7,8 13,12.5 0.3,0 0.5,0 0.6,-0.1 1.2,-3.7 1.101,-7.7 -0.6,-11.9 1.8,-1.8 2.7,-4.2 2.7,-7 -0.4,-13 0.1,-19.3 1.3,-19 0.3,0 0.6,-0.1 0.6,-0.2 2.8,-6.3 4,-14.3 3.4,-23.8 -8.9,-21.8 -17.101,-44.3 -24.4,-67.8 -0.1,-0.101 -0.3,-0.2 -0.6,-0.2 -1.601,-14.2 -3.2,-28.2 -4.9,-42 -0.1,-0.3 -0.1,-0.7 -0.1,-1 -1.2,-3.8 -1.5,-8.5 -1.101,-14 0.101,-0.3 0.101,-0.7 0.101,-1 0,-0.3 0,-0.7 -0.101,-1 -2.199,-21.1 -4.8,-41.7 -7.899,-62 0,-0.4 -0.101,-0.6 -0.3,-0.6 -15.6,-10.8 -28.301,-24.5 -37.7,-41.4 0,-0.4 -0.101,-0.6 -0.101,-1 -1.3,-6.3 -3.699,-14.9 -6.899,-26 0,-0.4 0.1,-0.6 0.1,-1 1.5,-6.6 0,-13.3 -4.1,-20 0,-0.4 0,-0.6 0,-1 -0.101,-2.9 0.899,-5.6 3,-8 -0.4,0 -0.601,-0.1 -0.601,-0.3 -3.3,-4.4 -3.5,-8 -0.399,-10.7 0,-0.4 -0.101,-0.6 -0.2,-0.9 -2.2,-4.5 -1.7,-9.5 1.2,-15.1 v -0.5 c 1.7,0.2 2.7,-0.9 3,-3.5 0,-0.4 -0.101,-0.6 -0.101,-1 -1.3,-8.9 -0.3,-18.6 3.101,-29 0,0.4 0.1,0.6 0.1,0.9 1.8,5.5 3.101,11.5 3.9,18.1 0,0.4 0.1,0.6 0.2,0.7 1.899,1.8 2.5,-1.101 1.8,-8.7 v -0.5 c 1.7,6.6 3.1,14.4 4,23.5 0.3,0 0.5,-0.1 0.6,-0.1 1.9,-6 3.3,-12.301 4.4,-18.9 0,0.4 0.1,0.6 0.2,0.9 1.1,3.5 2.699,6.5 4.8,9.1 0,0.4 0,0.6 -0.101,1 -0.6,5.7 0.4,8.1 3.101,7 v -0.5 c 6.6,3.9 14.2,10 23,18.5 0.3,0 0.6,0.1 0.8,0.2 3.4,2 3.5,1.2 0.2,-2.2 v -1.5 c 7.7,3.6 20.1,6.4 37,8.5 0,0.4 0.1,0.6 0.2,0.6 5,2.101 11,3.301 17.8,3.4 0,-0.4 0.1,-0.6 0.2,-0.8 1.5,-1.8 5.5,-3 11.8,-3.2 -3.3,0 -6.7,-0.1 -9.9,-0.5 -0.1,0 -0.1,-0.1 -0.1,-0.5 -1.9,-1.1 -4.7,-1.4 -8,-1.1 -0.3,0.1 -0.7,0.1 -1,0.1 -8.7,-3.1 -16.9,-6.5 -24.8,-10.4 -0.101,0 -0.2,-0.199 -0.2,-0.6 6.2,2.4 14.5,4.6 24.899,6.5 0,0 0.101,0.1 0.101,0.5 0.3,0 0.7,0 1,0 4.7,0 9.3,0 14,0 -0.5,2.1 -2.5,3 -6,2.5 v 0.5 c 0.3,0 0.7,0 1,-0.1 1.8,0 3.2,0.3 4,1.1 0.3,0 0.7,0 1,0 1.7,0 3.3,0 5,0 0.3,0 0.7,0 1,0 20.399,-0.9 38,-4.9 53,-12 0.3,0 0.7,0 1,0.1 7,0.5 10.2,-0.8 10,-4.1 h -0.5 c 4,-4.1 13.5,-8.7 28.5,-14 0,-0.4 0,-0.5 0,-0.5 4,-0.4 8,-0.5 12,-0.5 v -0.5 c 12.1,-0.1 16.399,-1.6 13,-4.5 -3.4,-1.9 -2.5,-2.1 2.899,-0.6 10.2,2.8 17.301,4 21.101,3.6 h 0.5 c -8.601,-6.6 -7.4,-7.9 3.5,-4 0,-0.4 0,-0.6 0,-1 0,-0.4 0,-0.6 0,-1 -3.8,-0.9 -6.7,-2.6 -8.8,-5.2 -0.101,-0.2 -0.2,-0.399 -0.2,-0.8 -7.101,-4.8 -7.4,-6.9 -1,-6.5 V 552 c -0.7,0 -1.3,-0.1 -1.8,-0.4 -0.101,0 -0.2,-0.199 -0.2,-0.6 -0.4,0 -0.7,0 -1,-0.1 -7.4,-0.9 -6.7,-1.5 2,-1.9 0,0.4 0,0.6 0,1 0.3,0 0.6,0.1 0.8,0.2 3,2.7 4.7,2.2 5.2,-1.2 -5.4,-0.3 -8.4,-2.9 -8.9,-8 -0.1,-0.4 -0.1,-0.6 -0.1,-1 -4.101,-3.3 -9.101,-5.6 -15.101,-6.9 -0.3,0 -0.5,-0.1 -0.899,-0.1 -3.8,-3.3 -9.8,-5.9 -18,-7.9 -0.4,0 -0.601,-0.1 -1,-0.1 5,-0.6 10.3,0 16,1.9 0.399,0 0.6,0.1 1,0.1 -2.4,-2.9 -6,-4.8 -11,-5.5 0,0 0,-0.1 0,-0.5 -0.4,0 -0.601,-0.1 -1,-0.1 -9.5,-1.801 -9.3,-2.2 1,-0.9 0.399,0 0.6,-0.1 0.7,-0.3 0.199,-0.101 0.3,-0.3 0.3,-0.7 -7.8,-2.6 -12.3,-4.9 -13.5,-7 h 0.5 c 5,-1.6 2,-3.4 -8.9,-5.1 -2,-0.301 -3.7,-1.301 -5.1,-2.9 -17.2,-3.5 -31.2,-7.9 -42,-13 h 2 c 4.7,-0.4 5,-1 1,-1.9 -0.3,-0.1 -0.7,-0.1 -1,-0.1 -13,-3.4 -27.9,-4.5 -44.9,-3.5 -0.1,0 -0.1,0.1 -0.1,0.5 -5.2,1.1 -11.2,1.4 -17.9,0.5 -0.1,0 -0.1,-0.1 -0.1,-0.5 4.2,-1.1 9.2,-1.5 15,-1 0.3,0 0.7,0 1,0 0,-0.4 0.1,-0.5 0.2,-0.6 0.5,-0.301 1.1,-0.4 1.8,-0.4 0,-0.4 0,-0.6 0,-1 -7.601,0.4 -9.601,-0.3 -5.9,-1.8 0.2,-0.2 0.601,-0.2 0.9,-0.2 v -0.5 c 3.3,0.4 5,-0.9 5,-3.5 -4.5,0.9 -8.601,2.1 -12.101,3.8 C 853.7,481 853.3,481 853,481 c 0.899,-2.8 3.8,-5.2 8.8,-7.4 0.1,-0.1 0.2,-0.199 0.2,-0.6 -4.601,-0.5 -9.3,0.4 -14.101,2.8 C 847.7,476 847.3,476 847,476 c -3.7,0 -7.3,0 -11,0 -0.3,0 -0.7,0 -1,0 -0.3,0 -0.7,0 -0.9,-0.2 -3.899,-1.7 -7.899,-3.3 -12.1,-4.8 v -0.5 c 6.899,1.7 12.899,1.2 18,-1.5 -9.601,-1 -15.4,-5 -17.5,-12 h 0.5 c -6.2,-1 -9.8,-2.6 -10.8,-5 6.699,-1.5 6.399,-2.9 -1.2,-4 -0.3,0 -0.7,0 -1,0 -0.3,0 -0.7,0 -0.9,-0.1 -3.8,-1.5 -3.2,-2.801 1.9,-3.9 -3.3,0 -6.7,-0.1 -9.9,-0.5 -0.1,0 -0.1,-0.1 -0.1,-0.5 0,-0.4 0,-0.6 0,-1 -4.101,-12.7 -11.7,-23.5 -22.8,-32.3 -0.101,-0.2 -0.2,-0.3 -0.2,-0.7 5.2,1.5 9.6,3.7 13.2,6.7 0.199,0.2 0.5,0.3 0.8,0.3 -3.7,-5.4 -6.9,-9.4 -9.8,-12.3 -0.101,-0.101 -0.2,-0.3 -0.2,-0.7 -6.7,-1 -10.7,-3 -11.8,-6 -0.101,-0.4 -0.2,-0.6 -0.2,-1 4.8,-1 4.899,-3.4 0.2,-7.3 -0.101,-0.2 -0.2,-0.3 -0.2,-0.7 -3.4,-1.6 -6.4,-4 -8.8,-7.2 -0.101,-0.2 -0.2,-0.399 -0.2,-0.8 -0.9,-3.1 -3.9,-5.8 -9.101,-7.9 -0.3,-0.1 -0.5,-0.1 -0.899,-0.1 -2.4,-3.3 -5.3,-6.1 -8.8,-8.4 -0.101,-0.1 -0.2,-0.199 -0.2,-0.6 -4.101,-12 -9.4,-21.6 -15.601,-28.9 1.301,0.5 2.2,-0.5 2.5,-3.1 0.101,-0.4 0.101,-0.6 0.101,-1 -7.101,-2.9 -12.7,-7.3 -16.8,-13.1 -0.101,-0.301 -0.2,-0.5 -0.2,-0.9 -12.3,-4 -22.601,-10.1 -30.8,-18.3 -0.101,-0.1 -0.2,-0.3 -0.2,-0.7 -5.4,-3.6 -10.601,-7.5 -15.8,-11.3 -0.101,-0.2 -0.2,-0.3 -0.2,-0.7 4.1,1.1 6.1,1.1 6,0 0,-0.4 0,-0.6 0,-1 -13.9,-7.8 -28.601,-14.7 -44.101,-20.9 -0.3,-0.1 -0.5,-0.1 -0.899,-0.1 -1.8,-2.5 -4.8,-3.9 -9,-4 -0.4,0 -0.6,0 -1,0 -11.9,-6.5 -25.9,-10.8 -42,-13 -0.4,0 -0.6,0 -1,0 -5.1,0.5 -9.4,0.1 -13.1,-0.9 -0.301,-0.1 -0.5,-0.1 -0.9,-0.1 -7.9,-1.1 -13.4,-2.5 -16.5,-4 h 1.5 c 0.1,-2.1 -6.3,-3.1 -19,-2.9 -2.9,0 -5.2,0 -7,-0.1 -3.6,-0.6 -7.4,-1.3 -11,-1.9 -0.4,-0.1 -0.6,-0.1 -1,-0.1 0,0.4 -0.1,0.6 -0.3,0.7 -0.101,0.2 -0.3,0.3 -0.7,0.3 -3.1,1.1 -7.1,1.5 -12,1 -0.4,0 -0.6,0 -1,0 -6.6,0.6 -13.4,1.3 -20,2 -0.4,0 -0.6,0 -1,0 -4,1.7 -8.3,2.1 -13,1.1 -0.4,-0.1 -0.6,-0.1 -1,-0.1 -7.5,2.6 -11.1,3 -10.5,1.1 0,-0.1 0.1,-0.1 0.5,-0.1 -6.9,-0.5 -15.1,1 -24.9,4.5 -0.1,0 -0.1,0.1 -0.1,0.5 -12.6,1 -22.3,1.5 -29,1.5 V 248 c -14.1,3.1 -29.9,6.5 -47,9.9 -0.4,0.1 -0.6,0.1 -1,0.1 1.2,-3.1 -2.8,-4.1 -12,-3 -0.4,0 -0.6,0 -1,0 -3,2 -7,2.9 -12,2.5 0,0 0,-0.1 0,-0.5 -1.9,-1.1 -4.9,-2.9 -8.8,-5.4 -0.2,-0.1 -0.2,-0.2 -0.2,-0.6 -5.1,0 -11.1,-0.5 -18,-1.5 0,0 0,-0.1 0,-0.5 -1.4,0 -2.6,-0.1 -3.9,-0.5 -0.1,0 -0.1,-0.1 -0.1,-0.5 0,-0.4 0,-0.6 0,-1 -8.8,-0.9 -10.5,-4.6 -5.3,-11.2 0.2,-0.2 0.3,-0.4 0.3,-0.8 -3.8,-5.5 -6,-9.1 -6.5,-11 h 0.5 c 4.7,-1.9 4.5,-6 -0.8,-12.2 -0.101,-0.2 -0.2,-0.4 -0.2,-0.8 1.9,1.9 3,1.5 3.5,-1 H 280 c -0.5,-4.6 -2.3,-9.2 -5.4,-13.8 -0.1,-0.1 -0.199,-0.2 -0.6,-0.2 0,-6.5 -1.3,-11.3 -3.8,-14.2 -0.101,-0.2 -0.2,-0.4 -0.2,-0.8 1.4,-4.3 -1.3,-7.8 -7.9,-10.5 -0.1,0 -0.1,-0.1 -0.1,-0.5 3.5,1.8 5.5,0.8 6,-3 0,-0.4 0,-0.6 0,-1 -5.6,-5 -7.4,-7.5 -5,-7.9 0.4,-0.1 0.6,-0.1 1,-0.1 -1.5,-2.1 -2.9,-4.5 -3.9,-7 -0.1,-0.4 -0.1,-0.6 -0.1,-1 3.9,-6.5 7.6,-13.1 11.4,-19.8 0.1,-0.2 0.199,-0.2 0.6,-0.2 2.5,-19.5 6.4,-37.8 11.5,-54.9 0,-0.1 0.1,-0.1 0.5,-0.1 1.4,-11.5 1.4,-22.9 0,-34 0,-0.4 0,-0.6 0,-1 -1.9,-2.8 -4.3,-5 -7.1,-6.8 C 276.6,33 276.4,33 276,33 c -24.9,6.5 -45.6,17 -62.2,31.7 -0.2,0.2 -0.399,0.3 -0.8,0.3 -3.3,0.5 -6.9,1 -11,1.5 V 66 c -6,2.2 -8.9,1.9 -8.5,-1 H 193 c -0.6,0 -1.3,0.1 -1.8,0.4 -0.2,0.1 -0.2,0.2 -0.2,0.6 -5.1,1.3 -10.2,1 -15,-0.9 -0.4,-0.1 -0.6,-0.1 -1,-0.1 -7.4,-1.8 -14,-2.3 -20,-1.5 0,0 0,0.1 0,0.5 -0.9,-2.1 -3.2,-2.5 -7,-1.1 -0.4,0.1 -0.6,0.1 -1,0.1 -7.8,-3.5 -15.8,-6 -23.9,-7.5 -0.1,0 -0.1,-0.1 -0.1,-0.5 -2.5,-1.3 -5.5,-1.5 -9,-0.5 V 54 c 0,-0.4 0,-0.6 0,-1 C 100.7,30.9 81.1,13.4 55.2,0.6 55,0.5 55,0.3 55,0 52.4,0 49.6,0 47,0 46.6,0 46.4,0 46,0 36.5,23.1 33,51.1 35.5,84 z"
   id="path7" />
            
            <path
   d="m 36,98 c 0,-0.4 0,-0.6 0,-1 -1.1,-3.1 -1.5,-7.1 -1,-12 0,-0.4 0,-0.6 0,-1 -0.4,0 -0.5,0 -0.5,0.1 C 33.2,90.4 33.7,95 36,98 z"
   id="path9"
   style="fill:#4e4d4e" />
            
            <path
   d="m 27,238 c -1.3,-1 -2.7,-2 -4.1,-2.8 C 22.6,235 22.4,235 22,235 c 0,1.1 -0.6,1.6 -2,1.5 v 0.5 c 0.4,0 0.6,0.1 0.8,0.2 2.9,2.3 5.1,2.5 6.2,0.8 z"
   id="path11"
   style="fill:#444343" />
            
            <path
   d="m 25.5,250 c -0.1,4.9 0.4,8.9 1.5,12 0,-0.4 0,-0.6 0,-1 0,-4 0,-8 0,-12 -0.6,0 -1.3,0.1 -1.8,0.4 -0.2,0.1 -0.2,0.2 -0.2,0.6 h 0.5 z"
   id="path13"
   style="fill:#474545" />
            
            <path
   d="m 42,306 c -1.1,3.1 -1.4,7.1 -0.5,11.9 0,0.1 0.1,0.1 0.5,0.1 0,-0.4 0,-0.6 0,-1 0,-3.6 0,-7.4 0,-11 z"
   id="path15"
   style="fill:#4f4e4e" />
            
            <path
   d="m 123,54 c -2.5,-2.1 -5.2,-2.2 -8.1,-0.3 -0.301,0.2 -0.5,0.3 -0.9,0.3 v 0.5 c 3.5,-1 6.5,-0.8 9,0.5 0,-0.4 0,-0.6 0,-1 z"
   id="path17"
   style="fill:#4f4e4e" />
            
            <path
   d="m 191,66 c -4.9,-1.1 -10.3,-1.6 -16,-1.5 V 65 c 0.4,0 0.6,0 1,0.1 4.8,1.9 9.9,2.2 15,0.9 z"
   id="path19"
   style="fill:#494848" />
            
            <path
   d="M 193,64.5 V 65 h 0.5 c -0.4,2.9 2.5,3.2 8.5,1 0,-0.4 0,-0.6 0,-1 -3.7,0.5 -6.7,0.4 -9,-0.5 z"
   id="path21"
   style="fill:#434243" />
            
            <path
   d="m 293,249 c 0,-0.4 0,-0.5 0.2,-0.6 1,-0.4 1.6,-1.3 1.8,-2.4 -3,-2.1 -4.9,-1.5 -5.5,1.9 0,0.1 -0.1,0.1 -0.5,0.1 0,0.4 0,0.5 0.1,0.5 1.3,0.4 2.5,0.5 3.9,0.5 z"
   id="path23"
   style="fill:#1c1c1c" />
            
            <path
   d="m 62,373 c -0.8,6.5 -0.1,9.8 2,10 -1.1,-2.9 -1.6,-6.5 -1.5,-11 H 62 c 0,0.4 0,0.6 0,1 z"
   id="path25"
   style="fill:#484748" />
            
            <path
   d="m 64.5,383.1 c 0.5,2.4 1.3,2.601 2.5,0.9 l 0,0 h -0.5 c 0,-2 0.2,-4 0.5,-6 -2.1,0.2 -3.1,1.5 -3,4 0,0.4 0,0.6 0,1 0.4,0 0.5,0 0.5,0.1 z"
   id="path27"
   style="fill:#494849" />
            
            <path
   d="m 75,401 c -2.7,1.3 -3.9,4.3 -3.5,9 H 71 c 0,0.4 0.1,0.6 0.2,0.7 0.2,0.2 0.399,0.3 0.8,0.3 0,0.4 0,0.6 0,1 0.4,0 0.6,0 1,-0.1 1.5,-0.5 2.1,-4.2 2,-10.9 z"
   id="path29"
   style="fill:#454444" />
            
            <path
   d="m 78,428 c 0,1.4 0,2.6 0,4 0,0.4 0,0.6 0,1 0.4,0 0.5,0 0.5,0 0.4,-3.7 0.5,-7.4 0.5,-11 -1.8,0.5 -2.5,2.1 -2,5 0,0.4 0,0.6 0,1 0.4,0 0.6,0 1,0 z"
   id="path31"
   style="fill:#484747" />
            
            <path
   d="m 79.2,437.9 c 1.7,2.6 2.6,6 2.8,10.1 0,-0.4 0,-0.6 0,-1 -0.3,-4.4 0,-8 1,-11 -1.3,0 -2.4,0.3 -3.1,0.7 -0.301,0.2 -0.5,0.3 -0.9,0.3 0,0.4 0,0.6 0.2,0.9 z"
   id="path33"
   style="fill:#4b4a4a" />
            
            <path
   d="m 91.2,481.9 c 0.5,0.699 1.2,1.5 1.8,2.1 0,-0.4 0,-0.6 0.2,-0.9 0.899,-2 1.2,-4.699 0.8,-8.1 -2.1,0.5 -3,2.5 -2.5,6 H 91 c 0,0.4 0.1,0.6 0.2,0.9 z"
   id="path35"
   style="fill:#4a494a" />
            
            <path
   d="m 86,462 c 0,0.4 0,0.6 0,1 0.4,0 0.5,0 0.5,0 0.4,-4.4 0.5,-8.6 0.5,-13 -1.1,0.2 -1.8,0.9 -2,2 0,0.4 0,0.6 0,1 0.4,0 0.6,0 1,0 0,3 0,6 0,9 z"
   id="path37"
   style="fill:#474647" />
            
            <path
   d="m 341,612.5 v 0.5 c 0.4,0 0.6,0.1 1,0.1 2.3,0.601 4.6,1.301 7,1.9 0,-0.4 0,-0.6 0,-1 0,-2.4 0,-4.6 0,-7 -1,4.6 -3.6,6.4 -8,5.5 z"
   id="path39"
   style="fill:#4c4948" />
            
            <path
   d="m 197,676 c -0.5,18.1 -0.1,35.5 1,52 0,-0.4 0,-0.6 0,-1 0,-17.4 0,-34.6 0,-52 -0.4,0 -0.6,0 -1,0 0,0.4 0,0.6 0,1 z"
   id="path41"
   style="fill:#423f3f" />
            
            <path
   d="m 573,245 c -5.3,0.2 -9.9,0.1 -14,-0.5 v 0.5 c 0.4,0 0.6,0 0.9,0.1 3.699,1 8,1.4 13.1,0.9 0,-0.4 0,-0.6 0,-1 z"
   id="path43"
   style="fill:#3d3c3d" />
            
            <path
   d="m 505,237 c -4.4,0 -8.6,0.1 -13,0.5 0,0 0,0.1 0,0.5 0.4,0 0.6,0 1,0 4.9,0.5 8.9,0.1 12,-1 z"
   id="path45"
   style="fill:#3d3b3b" />
            
            <path
   d="m 457.1,240.5 c -0.1,0 -0.1,0.1 -0.1,0.5 0.4,0 0.6,0 1,0.1 4.7,1 9,0.6 13,-1.1 -4.5,-0.6 -9.1,-0.5 -13.9,0.5 z"
   id="path47"
   style="fill:#464647" />
            
            <path
   d="m 518,236 c -6.4,-2.1 -10.4,-2.5 -11.8,-0.8 -0.101,0.2 -0.2,0.4 -0.2,0.8 0.4,0 0.6,0 1,0.1 3.6,0.6 7.4,1.3 11,1.9 0,-0.4 0,-0.6 0,-1 0,-0.4 0,-0.6 0,-1 z"
   id="path49"
   style="fill:#4a4a4c" />
            
            <path
   d="m 801.1,443.5 c 3.2,0.4 6.601,0.5 9.9,0.5 -5.101,1.1 -5.7,2.4 -1.9,3.9 0.2,0.1 0.601,0.1 0.9,0.1 0,-0.4 0.1,-0.6 0.2,-1 0.199,-0.7 2.5,-2.7 6.8,-6 -4.2,1.5 -9.2,2.2 -15,2 -0.3,0 -0.7,0 -1,0 0,0.4 0,0.5 0.1,0.5 z"
   id="path51"
   style="fill:#434344" />
            
            <path
   d="m 866,486 c -0.7,0 -1.3,-0.1 -1.8,-0.4 -0.101,-0.1 -0.2,-0.199 -0.2,-0.6 -0.3,0 -0.7,0 -1,0 -5.8,-0.5 -10.8,-0.1 -15,1 0,0.4 0,0.5 0.1,0.5 6.7,0.9 12.7,0.6 17.9,-0.5 z"
   id="path53"
   style="fill:#434344" />
            
            <path
   d="m 835.1,475.5 c -0.1,0 -0.1,0.1 -0.1,0.5 0.3,0 0.7,0 1,0 3.7,0 7.3,0 11,0 0,-0.4 0,-0.6 0,-1 -4,0 -8,0.1 -11.9,0.5 z"
   id="path55"
   style="fill:#323132" />
            
            <path
   d="m 854,604 c 0.3,0 0.7,0 1,-0.1 3.3,-0.301 6.1,0 8,1.1 0.3,0 0.7,0.1 1,0.1 2.2,0.4 3.399,0 4,-1.1 -0.8,-0.8 -2.2,-1.1 -4,-1.1 -0.3,0.1 -0.7,0.1 -1,0.1 -1.7,-2.1 -4.7,-2.9 -9,-2.5 V 600 c 0,-0.4 -0.101,-0.5 -0.101,-0.5 C 843.5,597.6 835.2,595.4 829,593 c 0,0.4 0.1,0.6 0.2,0.6 7.9,3.9 16.1,7.3 24.8,10.4 z"
   id="path57"
   style="fill:#060606" />
            
            <path
   d="m 866,483 c 0,0.4 0,0.6 0,1 0.3,0 0.6,0 0.6,-0.2 0.2,-0.6 0.4,-1.2 0.4,-1.8 -2,0 -3.9,-0.1 -5.9,-0.5 0,0 -0.1,-0.1 -0.1,-0.5 -0.3,0 -0.7,0 -0.9,0.2 -3.701,1.5 -1.701,2.2 5.9,1.8 z"
   id="path59"
   style="fill:#464647" />
            
            <path
   d="m 976,520.9 c 0.399,0 0.6,0.1 1,0.1 0,-0.4 0,-0.6 0,-1 -10.3,-1.3 -10.5,-0.9 -1,0.9 z"
   id="path61"
   style="fill:#0d0d0d" />
            
            <path
   d="m 1007,550.9 c 0.3,0.1 0.6,0.1 1,0.1 0,-0.4 0.1,-0.6 0.2,-0.8 0.199,-0.101 0.399,-0.2 0.8,-0.2 0,-0.4 0,-0.6 0,-1 -8.7,0.4 -9.4,1 -2,1.9 z"
   id="path63"
   style="fill:#474749" />
            
            <path
   d="m 1011,559 c 0,-0.4 -0.101,-0.6 -0.3,-0.9 -0.601,-0.899 0.1,-2 2.3,-3.1 -1.4,-0.2 -2.3,-1.2 -2.5,-2.9 0,-0.1 -0.2,-0.1 -0.5,-0.1 v 0.5 c -6.4,-0.4 -6.101,1.7 1,6.5 z"
   id="path65"
   style="fill:#414142" />
            
            <path
   d="m 968,574.1 c 4.5,0.4 8.1,0 11,-1.1 -4,0 -8,0.1 -12,0.5 0,0 0,0.1 0,0.5 0.399,0 0.6,0 1,0.1 z"
   id="path67"
   style="fill:#4a4b4e" />
            
            <path
   d="m 863,605 c 0,0.4 0,0.5 0.1,0.5 3.2,0.4 6.601,0.5 9.9,0.5 0,-0.4 0.1,-0.6 0.2,-0.9 0.199,-0.399 0.5,-0.699 0.8,-1.1 -1.7,0 -3.3,0 -5,0 -0.3,0 -0.7,0 -1,0 -0.601,1.1 -1.8,1.5 -4,1.1 -0.3,0 -0.7,-0.1 -1,-0.1 z"
   id="path69"
   style="fill:#46474a" />
            
            <path
   d="m 869,600 c -4.7,0 -9.3,0 -14,0 -0.3,0 -0.7,0 -1,0 v 0.5 c 4.3,-0.4 7.3,0.4 9,2.5 v -0.5 c 3.5,0.5 5.5,-0.4 6,-2.5 z"
   id="path71"
   style="fill:#464648" />
            
            <path
   d="m 808,787 c 0,-4.7 0,-9.3 0,-14 -0.3,0 -0.7,0 -1,0 0,0.3 0,0.7 -0.101,1 -0.399,5.5 -0.1,10.2 1.101,14 0,-0.3 0,-0.7 0,-1 z"
   id="path73"
   style="fill:#4b4847" />
            
            <path
   d="m 564.9,610 c 0,0.4 0.1,0.6 0.1,1 0.4,0 0.6,-0.1 0.9,-0.2 1,-0.7 2.1,-1.899 3.1,-3.8 -2.3,0.6 -3.1,0 -2.6,-1.9 0.1,0 0.199,-0.1 0.6,-0.1 0,-0.4 0,-0.6 0,-1 0,-1.4 0,-2.6 0,-4 -2.3,1.7 -2.9,5.1 -2.1,10 z"
   id="path75"
   style="fill:#484748" />
            
            <path
   d="m 560.4,633.9 c 0.1,0 0.199,0.1 0.6,0.1 0,-0.4 -0.1,-0.6 -0.1,-1 -0.801,-4.3 -0.2,-6.9 2.1,-8 0,-0.4 0,-0.6 0,-1 -3.3,1.1 -4.1,4.4 -2.6,9.9 z"
   id="path77"
   style="fill:#464546" />
            
            <path
   d="m 378.1,604.9 c 1.801,5.1 4.101,5.1 6.9,0.1 -0.4,0 -0.6,0 -1,0 -2.6,-2.4 -4.5,-2.9 -5.4,-1.2 -0.1,0.101 -0.199,0.2 -0.6,0.2 0,0.4 0,0.6 0.1,0.9 z"
   id="path79"
   style="fill:#4a4948" />
            
            <path
   d="m 408,600 c -0.4,0 -0.6,0 -1,0 0,1.4 -0.1,2.6 -0.5,3.9 0,0 -0.1,0.1 -0.5,0.1 0,2 0,4 0,6 0,0.4 0,0.6 0,1 h 0.5 c -0.1,-2.9 0.4,-4.9 1.5,-6 0,-0.4 0,-0.6 0,-1 0,-1.4 0,-2.6 0,-4 z"
   id="path81"
   style="fill:#4d4c4c" />
            
            <path
   d="m 406.5,603.9 c 0.4,-1.301 0.5,-2.5 0.5,-3.9 -1.8,-4.8 -2.3,-3.4 -1.5,3.9 0,0.1 0.1,0.1 0.5,0.1 0.4,0 0.5,-0.1 0.5,-0.1 z"
   id="path83"
   style="fill:#343232" />
            
            <path
   d="m 767.899,841 c -0.399,7.5 -0.1,14.2 1.101,20 0,-0.3 0,-0.7 0,-1 0,-6.7 0,-13.3 0,-20 -0.3,0 -0.7,0 -1,0 0,0.3 0,0.7 -0.101,1 z"
   id="path85"
   style="fill:#4d4b4a" />
            
        </g>
        
    </g>
    
</svg>