<?xml version="1.0" encoding="UTF-8" standalone="no"?>
<!-- Created with Inkscape (http://www.inkscape.org/) -->

<svg
   xmlns:svg="http://www.w3.org/2000/svg"
   xmlns="http://www.w3.org/2000/svg"
   version="1.1"
   width="100%"
   height="100%"
   viewBox="0 0 477.1 280.7"
   id="Layer_1"
   xml:space="preserve"><defs
   id="defs7" />
<path
   d="m 34.5,234.7 c -2.9,1.1 -5.9,1.9 -8.6,3.3 -6.5,3.2 -13.3,5.3 -20.6,4.1 -1.5,-0.3 -3.9,-1.8 -4,-3 -0.7,-5.4 -1.8,-11.1 -0.8,-16.3 1.9,-9.7 5.3,-19.1 7.7,-28.7 4.1,-16.3 13,-30.4 19.6,-45.6 3.1,-7.3 5,-15.2 8.4,-22.3 6.4,-13.4 15.1,-24.9 26.7,-34.8 9.2,-7.8 18.8,-14.2 30.4,-17.1 13.5,-3.4 27,-6.2 40.6,-9.4 1.5,-0.3 3,-0.6 4.3,-1.3 12.8,-7.3 26.7,-6.2 40.3,-5 18.4,1.5 36.6,5 54.9,5.8 21.7,1 43.5,-0.2 64.9,-5.1 6.1,-1.4 12.8,-0.4 19.2,-0.6 2.5,-0.1 5.3,0.4 7.3,-0.7 14.3,-7.5 28.4,-15.1 42.4,-23.1 2.4,-1.4 4.1,-4.2 5.7,-6.6 5.4,-7.7 10.5,-15.7 15.9,-23.4 1.1,-1.5 3.2,-2.2 5.8,-4 0,5.3 0,9.6 0,15.6 5.5,-6 10.1,-11 15.3,-16.6 3.8,7.7 3.3,14.4 1.2,21.2 -0.6,2 -1.4,4.1 -1.7,6.2 -0.7,4.3 0.8,6.7 5.2,8.6 8.9,3.9 17.3,8.7 24.2,16 3.3,3.4 8.2,5.6 12.7,7.5 6.5,2.8 13.5,4.6 20.1,7.4 2.3,1 4.7,3.3 5.5,5.5 0.4,1.2 -2.3,3.8 -4,5.3 -3.8,3.3 -7.5,7.4 -12,9.2 -4.8,2 -10.7,2.8 -15.9,2.3 -21.4,-2.2 -39.7,4.6 -55,18.9 -4.9,4.6 -7.9,11.3 -11.9,16.9 -5.2,7.2 -10,14.9 -16.2,21.2 -9,9 -18.6,17.6 -31.9,20.2 -7.4,1.5 -12.3,6.1 -12.2,14.7 0.2,15.8 1.4,31.5 2,47.3 0.2,4.3 0.4,8.7 -0.2,12.9 -0.8,6.2 0.2,12.1 3.7,17.1 1.2,1.7 4,2.7 6.3,3.3 2.2,0.6 4.7,0.1 7,0.4 2.8,0.5 5.5,1.3 5.3,5.2 -0.1,1.3 1.2,2.7 1.3,4.1 0.1,1.3 -0.3,3.1 -1.2,3.7 -7.1,4.7 -22.2,3.6 -29.4,-0.8 -3.2,-2 -7.9,-1.8 -11.9,-2.4 -7.6,-1.1 -11.9,-5.1 -13.1,-12.6 -1.4,-8.6 -2,-17.5 -7,-25.1 -0.4,-0.6 -0.5,-1.6 -0.4,-2.4 2.9,-14.2 0.2,-28.1 -2.6,-42 -0.4,-1.8 -0.6,-3.6 -0.8,-5.4 -0.7,-6.9 -1.4,-7.1 -8.5,-7 -12.5,0.2 -25,0.9 -37.3,-0.5 -11.3,-1.3 -22.3,-5.1 -33.5,-7.8 -4.7,-1.1 -9.3,-2.3 -14.1,-3.3 -8.2,-1.7 -11.7,1.4 -14.7,9.3 -2.5,6.5 -6.6,12.6 -10.8,18.2 -5.5,7.2 -12.2,13.5 -17.5,20.8 -4.2,5.8 -9.2,12.4 -7.4,19.9 2,8.2 5.9,16 9.5,23.8 1.4,3.1 4.5,4.3 8.4,4 5.2,-0.4 9.7,1.9 13.3,5.8 3.4,3.8 2.2,8.1 -2.5,9.7 -3.1,1 -6.4,3.5 -9.3,3.1 -6.9,-1.1 -14.5,-2.4 -18.7,-8.8 -5.6,-8.7 -10.6,-17.8 -15.5,-26.9 -2.9,-5.4 -5,-11.1 -7.6,-16.6 -1.7,-3.7 -0.6,-6.4 1.7,-9.6 8.6,-12.1 12.1,-25 4.2,-39 -1.8,-3.3 -4.4,-4 -6.9,-2.1 -11.5,8.4 -22.8,16.9 -33.8,25.6 -2.3,1.8 -3.3,5 -5.4,7 -3.4,3.3 -7.1,6.5 -11,9.2 -8.6,5.8 -10.7,14.6 -11.8,24 -0.1,1 0.1,2.1 -0.2,2.9 -1.5,4.4 1.1,6.1 4.4,8.1 3.6,2.3 6.8,5.4 9.9,8.5 0.7,0.7 0.2,3.9 -0.3,4.1 -4.8,1.4 -9.9,3.9 -14.6,3.3 -10.2,-1.2 -19.6,-7.8 -15.6,-20.8 1.3,-4.2 2.5,-8.5 3.8,-12.8 -0.3,-0.5 -0.5,-1.1 -0.7,-1.7 z m 266.5,5.6 c -1.6,2.9 -0.1,13.4 2.4,14.8 0.7,0.4 2.9,-0.4 3.3,-1.1 1,-2.3 -3.2,-11.9 -5.7,-13.7 z"
   id="path3" />
</svg>