<?xml version="1.0" encoding="UTF-8" standalone="no"?>
<!-- Created with Inkscape (http://www.inkscape.org/) -->

<svg
   xmlns:svg="http://www.w3.org/2000/svg"
   xmlns="http://www.w3.org/2000/svg"
   version="1.1"
   width="1000"
   height="1000"
   viewBox="0 0 1000 1000"
   id="Layer_1"
   xml:space="preserve"><defs
   id="defs7" />
    
    <path
   d="M 933.403,526.467 C 870.021,483.37 796.501,353.913 712.838,358.983 682.472,360.821 651.993,320.955 484.668,346.308 354.862,365.976 273.206,324.59 227.341,295.605 c -48.17,-30.441 -21.55,-59.586 -84.929,-79.86 -8.876,1.267 2.533,25.354 -10.142,31.693 -3.803,-10.142 -17.744,-20.284 -17.744,-20.284 0,0 -0.739,50.016 -13.945,67.185 -25.354,32.959 -16.478,45.63 -29.157,58.305 -16.036,16.032 -50.703,34.226 -50.703,34.226 0,0 2.655,11.977 7.605,17.751 7.606,8.876 19.015,11.409 19.015,11.409 0,0 6.298,10.361 19.014,12.675 27.886,5.073 76.057,-16.478 98.874,1.267 22.817,17.744 96.337,83.663 103.943,96.337 7.605,12.675 55.776,35.492 48.17,50.703 -7.605,15.212 -58.309,65.919 -58.309,93.805 0,27.887 57.908,78.823 76.057,68.451 26.616,-15.208 -35.492,-32.959 -45.634,-48.171 -10.142,-15.211 -5.069,-48.17 22.817,-53.239 27.886,-5.069 81.126,-40.562 81.126,-40.562 0,0 8.806,66.35 2.537,103.943 -2.537,15.211 -17.748,48.757 -32.959,53.822 -15.211,5.073 -38.025,2.939 -43.098,25.939 17.744,0 53.236,0 53.236,0 0,0 25.354,-31.64 35.496,-41.782 10.142,-10.142 2.537,-43.077 17.748,-70.963 15.211,-27.887 2.25,-95.858 20.281,-98.862 45.634,-7.605 119.154,-25.343 141.972,-35.485 22.816,-10.142 32.959,25.356 55.775,45.637 22.817,20.281 106.483,50.708 109.017,70.989 0.575,4.608 1.018,11.421 1.214,19.301 -33.531,45.029 -17.818,61.827 -6.287,61.827 0.424,0 0.828,-0.101 1.244,-0.156 -1.627,5.741 -3.695,10.053 -6.313,12.147 -12.676,10.145 -32.96,18.347 -32.96,37.347 0,8 43.102,0 43.102,0 0,0 20.276,-65.238 32.955,-75.376 12.679,-10.139 22.821,-52.896 12.679,-60.502 -0.758,-0.568 -1.809,-1.358 -3.06,-2.323 4.887,-19.502 5.972,-37.811 -4.546,-40.44 -9.945,-2.484 -35.128,-18.38 -58.22,-33.94 -0.156,-1.448 -0.216,-2.873 -0.093,-4.244 2.536,-27.886 53.239,-49.272 40.564,-118.358 0,0 78.594,113.764 144.508,131.511 65.915,17.746 78.594,-7.764 15.212,-50.861 z"
   id="path3" />
    
</svg>