<?xml version="1.0" encoding="UTF-8" standalone="no"?>
<!-- Created with Inkscape (http://www.inkscape.org/) -->

<svg
   xmlns:svg="http://www.w3.org/2000/svg"
   xmlns="http://www.w3.org/2000/svg"
   version="1.1"
   width="1024"
   height="896"
   viewBox="0 0 1024 896"
   id="Layer_1"
   xml:space="preserve"><defs
   id="defs323" />
    
    <g
   id="g3">
        
        <g
   id="g5">
            
            <path
   d="m 1024,179 c 0,-59.6 0,-119.4 0,-179 C 981,0 938,0 895,0 835.4,0 775.6,0 716,0 656.4,0 596.6,0 537,0 477.4,0 417.6,0 358,0 298.4,0 238.7,0 179,0 119.3,0 59.6,0 0,0 c 0,15.6 0,31.4 0,47 0,0.4 0,0.6 0,1 1.1,-3.2 1.8,-6.9 2,-11 0,-0.4 0,-0.6 0,-1 0,-0.4 0,-0.6 0,-1 0,-2.4 0,-4.6 0,-7 0.4,0 0.6,0 1,0 C 3,27.6 3,27.4 3,27 4.2,26.8 4.5,25.8 4.1,24 4,23.6 4,23.4 4,23 4,22.6 4,22.4 4,22 4,20.6 4,19.4 4,18 5,16.4 5.8,14.4 6.5,12.1 6.5,12 6.7,12 7,12 8.7,8.3 11.3,5.5 14.8,3.6 14.9,3.5 15,3.4 15,3 15,2.6 15,2.4 15,2 18.8,0.8 22.4,1 25.8,2.4 25.9,2.5 26,2.6 26,3 c 5,3.4 10,6.6 15.1,9.7 0.3,0.2 0.5,0.3 0.9,0.3 2.8,0.2 5,1 6.8,2.3 0.1,0.2 0.2,0.3 0.2,0.7 5.6,2.7 10.4,6.3 14.3,10.7 0.2,0.2 0.3,0.3 0.7,0.3 1.8,0.9 3,2.2 3.8,4.1 0.2,0.3 0.2,0.5 0.2,0.9 14.7,13.7 25.8,31.2 33.3,52.5 1.7,4.8 4.5,8.6 8.7,11.5 3.3,0 6.4,-0.3 9.1,-0.9 0.2,-0.1 0.6,-0.1 0.9,-0.1 2.7,0 5.3,0.1 8,0.5 0,0 0,0.1 0,0.5 5.2,4.4 10.5,4.7 16.2,1.2 0.2,-0.2 0.5,-0.2 0.8,-0.2 13.2,-26.2 29.2,-49.5 48.2,-70 2,-2.1 4.6,-4 7.6,-5.3 1.1,-0.5 2.2,-1.1 3.2,-1.7 0,-0.4 0,-0.6 0,-1 0,-0.4 0,-0.6 0,-1 1.3,-1 2.7,-2 4.2,-2.8 0.2,-0.2 0.5,-0.2 0.8,-0.2 1.9,-0.7 3.7,-1.6 5.2,-2.8 0.2,-0.1 0.5,-0.2 0.8,-0.2 0,-0.4 0,-0.6 0,-1 5.6,-0.6 9.8,0.1 12.8,2.3 0.1,0.2 0.2,0.3 0.2,0.7 8,10 13.3,22.6 15.9,38 0,0.4 0.1,0.6 0.1,1 1.7,1 2.3,3 2.1,6 -0.1,0.4 -0.1,0.6 -0.1,1 0,0.4 0,0.6 0,1 1.5,2.1 2.2,5.1 2,9 0,0.4 0,0.6 0,1 2.6,13.7 2.9,28.1 1.1,43 -0.1,0.4 -0.1,0.6 -0.1,1 0,0.4 0,0.6 0.1,1 0.4,6.5 -0.3,11.9 -2.1,16 0,0.4 0,0.6 -0.1,1 -0.6,4.4 -1.6,8.4 -2.9,12 0,1.6 0,3.4 0,5 0,0.4 0,0.6 0,1 -0.9,4.2 0.4,6.5 4,6.5 v 0.5 c 0.7,1 1.7,1.6 3,1.9 0.3,0.1 0.7,0.1 1,0.1 2.6,0.1 4.4,0.9 5.8,2.2 0.1,0.2 0.2,0.4 0.2,0.8 1,0.6 2.1,1.2 3.1,1.8 0.3,0.2 0.5,0.2 0.9,0.2 5.8,0.2 10.6,1.4 14.8,3.4 0.1,0.1 0.2,0.2 0.2,0.6 4.9,2.1 9.9,4.1 15.1,5.9 0.3,0.1 0.5,0.1 0.9,0.1 3.4,0 6.6,0.1 9.9,0.5 0.1,0 0.1,0.1 0.1,0.5 3.4,0 6.3,0.5 8.9,1.5 0,0 0.1,0.1 0.1,0.5 4,0 8,0.1 11.9,0.5 0.1,0 0.1,0.1 0.1,0.5 1.9,0.1 3.4,0.6 4.8,1.4 0.1,0.1 0.2,0.2 0.2,0.6 0.4,0.4 0.7,0.6 1.1,0.8 0.3,0.2 0.5,0.2 0.9,0.2 5.6,0 11.4,0 17,0 0.4,0 0.6,0 1,0 4.1,0.5 7.8,1.6 10.8,3.4 0.1,0.1 0.2,0.2 0.2,0.6 1.4,0.6 2.7,1.3 4.1,1.9 0.3,0.1 0.5,0.1 0.9,0.1 2.5,0.1 4.8,0.6 6.9,1.5 0,0 0.1,0.1 0.1,0.5 12.4,4.6 25.4,8.6 39.1,11.9 0.3,0.1 0.5,0.1 0.9,0.1 3.8,-0.1 7.1,0.4 9.9,1.5 0,0 0.1,0.1 0.1,0.5 6.5,1.9 13.1,3.5 20,4.9 0.4,0.1 0.6,0.1 1,0.1 6,0.6 12,0.7 18,0.5 v 0.5 c 6.4,0 12.6,0 19,0 0.4,0 0.6,0 1,0 0,-0.4 0,-0.6 0,-1 11.6,0 23.4,0 35,0 0.4,0 0.6,0 1,0 13.8,0.4 26.8,0.1 39,-1 0.4,0 0.6,0 1,0 12.6,-1.4 25.3,-2.7 38,-4 0.4,0 0.6,0 1,0 2.4,0 4.6,0 7,0 0.4,0 0.6,0 1,0 0,-0.4 0,-0.6 0,-1 3.6,0 7.4,0 11,0 0.4,0 0.6,0 1,0 0,-0.4 0,-0.6 0,-1 7.6,0 15.4,0 23,0 0.4,0 0.6,0 1,0 0,-0.4 0,-0.6 0,-1 3,-0.6 6,-1.1 9,-1.5 v 0.5 c 0.6,0 1.4,0 2,0 0.4,0 0.6,0 1,0 2.6,0 5.3,0.1 8,0.5 0,0 0,0.1 0,0.5 0.4,0 0.6,0 1,0 6,0 12,0 18,0 0.4,0 0.6,0 1,0 0,-0.4 0,-0.6 0,-1 2.6,0 5.3,0.1 8,0.5 0,0 0,0.1 0,0.5 1.6,-0.7 3.6,-1 6,-1 0.4,0 0.6,0 1,0 0,-0.4 0,-0.6 0,-1 0.6,0 1.4,0 2,0 0.4,0 0.6,0 1,0 0,-0.4 0,-0.6 0,-1 5.6,0 11.4,0 17,0 0.4,0 0.6,0 1,0 10.4,0 20.6,0.1 31,0.5 v 0.5 c 0.4,0 0.6,0 1,0 0.4,0 0.6,0 1,0 11,0 22,0 33,0 0.4,0 0.6,0 1,0 1.9,0.7 4.2,1.2 7,1.5 0,0 0,0.1 0,0.5 2.6,0.4 5.3,0.8 7.9,1.5 0.1,0 0.1,0.1 0.1,0.5 3.5,0.1 6.9,0.6 9.9,1.5 0.1,0 0.1,0.1 0.1,0.5 5.5,1.2 10.7,2.7 15.9,4.5 0.1,0 0.1,0.1 0.1,0.5 2.5,0.1 4.8,0.6 6.9,1.5 0.1,0 0.1,0.1 0.1,0.5 8.5,4.2 16,9.3 22.8,15.3 0.1,0.2 0.2,0.3 0.2,0.7 2.5,0.1 4.5,0.9 5.8,2.2 0.1,0.2 0.2,0.4 0.2,0.8 9.5,6.9 18.5,14.1 27.2,21.7 0.2,0.2 0.4,0.3 0.8,0.3 1.8,0.9 3,2.2 3.8,4.1 0.2,0.3 0.2,0.5 0.2,0.9 3.5,6.1 7.8,11.6 12.8,16.2 0.1,0.2 0.2,0.4 0.2,0.8 2.5,0.5 4.1,1.9 4.9,4 0.1,0.4 0.1,0.6 0.1,1 0,0.4 0.1,0.6 0.3,0.7 0.1,0.2 0.3,0.3 0.7,0.3 2.1,1.2 3.7,3 4.8,5.1 0.2,0.3 0.2,0.5 0.2,0.9 8.8,13.2 16.6,27.3 23.8,42.1 0.2,0.3 0.2,0.5 0.2,0.9 13.8,12.5 25.6,27.1 35.4,43.8 0.1,0.2 0.2,0.2 0.6,0.2 2,7.7 3.9,15.4 5.9,23.1 0.1,0.3 0.1,0.5 0.1,0.9 1.1,1.1 2.3,2.4 3.3,3.7 0.2,0.2 0.3,0.3 0.7,0.3 -0.4,5.7 0.8,11.6 3.4,17.8 0.1,0.1 0.2,0.2 0.6,0.2 4.1,1 4.8,2.2 1.9,3.8 -0.3,0.1 -0.5,0.2 -0.9,0.2 1,1.4 1.5,3.1 1.9,5 0.1,0.4 0.1,0.6 0.1,1 4.3,8.4 9.1,16.3 14.4,23.7 0.1,0.2 0.3,0.3 0.6,0.3 2.8,-0.4 4.1,0.6 4,3 0,0.4 0,0.6 0,1 0,0.4 0.1,0.6 0.3,0.7 1.5,1.7 0.8,2.4 -2.3,2.3 -0.3,0 -0.6,0 -1,0 0.3,4.4 0.6,8.7 1,13 0,0.4 0,0.6 0,1 0.8,1.9 1.5,3.9 1.9,6 0.1,0.4 0.1,0.6 0.1,1 1.2,0.2 1.5,1.2 1.1,3 0,0.4 -0.1,0.6 -0.1,1 1.4,1.6 2.4,3.6 2.9,6 0.1,0.4 0.1,0.6 0.1,1 4.6,1.9 5,5.1 1.3,9.2 -0.2,0.2 -0.3,0.4 -0.3,0.8 1.3,2.7 2.3,5.7 2.9,9 0.1,0.4 0.1,0.6 0.1,1 1.9,10.4 2.6,22.1 2,35 0,0.4 0,0.6 0,1 0,6 0,12 0,18 0,0.4 0,0.6 0,1 0,0.4 0,0.6 -0.1,0.9 -1.5,4.5 -2.4,9.5 -2.9,15.1 0,1.4 0.1,2.6 0.1,4 0.4,5.9 -0.7,8.9 -3.1,9 -0.3,0 -0.6,0.1 -0.9,0.2 -0.4,0.2 -0.7,0.4 -1.1,0.8 0,2.4 0,4.6 0,7 0,0.4 0,0.6 0,1 0,0.4 0,0.6 0.1,1 0.3,5.1 -1.1,6.9 -4.1,5 0,0.4 0,0.6 0.1,1 0.4,2.9 -0.3,4.5 -2.1,5 0,0.4 0,0.6 -0.2,0.9 -1.6,3 -2.9,2.3 -3.8,-1.9 v -0.5 c -7,0.6 -12,3.4 -15,8.5 0,-0.4 -0.1,-0.6 -0.2,-0.9 -4.2,-6.4 -9,-9 -14.8,-8.1 -0.4,0 -0.6,-0.1 -0.8,-0.3 -1.4,-1.1 -2.8,-2.3 -4.2,-3.7 -0.4,0 -0.5,-0.1 -0.7,-0.3 -9.9,-12.3 -19.4,-25.3 -28.3,-38.7 -0.4,0 -0.6,-0.1 -0.9,-0.3 -1.9,-1.3 -2.6,-3.8 -2.1,-7.7 0,-0.4 0,-0.6 -0.2,-0.9 -6.1,-10.5 -12,-21.2 -17.8,-32.1 -0.4,0 -0.6,0 -1,-0.1 -3.1,-0.1 -4.1,-2.5 -3,-6.9 0,-0.4 -0.1,-0.6 -0.2,-0.9 -0.5,-0.7 -0.8,-1.8 -0.8,-3.1 0,-0.4 0,-0.6 -0.1,-1 -0.6,-3.6 -0.9,-7.6 -0.9,-12 0,-0.4 0,-0.6 -0.1,-0.9 -1.9,-6.5 -4.2,-12.5 -6.9,-18.1 h -0.5 c 0.3,4.6 -0.5,6.2 -2.5,5 -0.4,0 -0.5,-0.1 -0.6,-0.2 -1.3,-2.2 -2.1,-4.7 -2.4,-7.8 0,-0.4 0,-0.6 0,-1 -0.8,-5.6 -2.8,-9.9 -6,-13 -0.4,0 -0.5,-0.1 -0.5,-0.1 -1.3,-4.3 -1.8,-9.3 -1.5,-14.9 0,-0.4 0,-0.6 -0.2,-0.9 -1,-1.9 -1.3,-4.6 -0.8,-8.1 -0.4,0 -0.5,0 -0.5,-0.1 -0.4,-2.9 -0.5,-5.9 -0.5,-8.9 -1,-9.4 -2.5,-18.6 -4.7,-27.6 -1.6,-6.3 -4.3,-7.5 -8.3,-3.4 0,0.4 0,0.5 -0.1,0.6 -2.8,0.7 -3.8,-0.5 -2.9,-3.6 1.1,-0.6 1.6,-1.9 1.5,-4 h 0.5 c 0,-0.4 0,-0.6 -0.1,-0.9 -1,-4.4 -1.3,-9.4 -0.9,-15.1 0,-0.4 0,-0.5 -0.1,-0.6 -0.9,-0.3 -1.9,-0.4 -2.9,-0.4 0,0.4 0,0.6 0,1 0.5,3.1 0.1,5.5 -1,7 0,0.4 0,0.6 -0.1,0.9 -1.1,3.2 -2.1,6.5 -2.9,10.1 0,0.6 0,1.4 0,2 0,0.4 0,0.6 0,1 0,5 0,10 0,15 0,0.4 0,0.6 0,1 1.1,1.9 1.5,4.6 1,8 0,0.4 0,0.6 0,1 h 0.5 c -0.4,4.6 -1.2,8.9 -2.5,13 0,0.4 0,0.6 0,1 0,12 0,24 0,36 0,0.4 0,0.6 0,1 1.1,1.5 1.5,3.9 1,7 0,0.4 0,0.6 0,1 1.4,6.9 2.5,14.2 3.5,21.9 0,0.1 0.1,0.1 0.5,0.1 1.1,2.1 1.5,5.1 1,9 0,0.4 0,0.6 0,1 2.9,2.7 4.9,6.4 5.9,11 0.1,0.4 0.1,0.6 0.1,1 1,1.7 1.9,3.4 2.8,5.1 0.2,0.3 0.2,0.5 0.2,0.9 14.4,25.4 29.9,49.4 46.8,72.2 0.1,0.2 0.2,0.4 0.2,0.8 5.5,3.2 9.4,7.9 11.9,14.1 0.1,0.3 0.1,0.5 0.1,0.9 1,2.6 1,5.9 0.1,10 -0.1,0.4 -0.1,0.6 -0.1,1 1.1,1.8 1.4,4.5 0.5,7.9 0,0 -0.1,0.1 -0.5,0.1 0,0.3 0,0.7 0,1 0,0.3 0,0.7 0,1 0.5,2.8 0.1,4.8 -1,6 0,0.3 0,0.7 0,1 0,0.3 0,0.7 0,1 0.5,3.5 0.1,6.2 -1,8 0,0.3 0,0.7 0,1 0.9,5.6 -0.1,9.2 -3,11 0,0.3 0,0.7 -0.1,1 -1.3,7.3 -2.6,14.7 -3.9,22 0,0.3 0,0.7 0,1 0.3,3.7 -0.4,6.3 -2,8 0,0.3 0,0.7 -0.2,0.9 -2.5,5 -4.2,11 -4.8,18.1 -0.4,0 -0.5,0.1 -0.6,0.2 -2.4,3.7 -4.9,7.3 -7.4,10.8 0,0.3 0,0.7 0,1 -0.3,9.7 -1.6,18.3 -4,26 0,0.3 0,0.7 0,1 0,0.3 0,0.7 0,1 0.5,3.5 0.1,6.2 -1,8 0,0.3 0,0.7 0,1 0.5,3.2 0.1,5.5 -1,7 0,0.3 0,0.7 0.1,1 0.7,4 -0.1,6.7 -2.1,8 0,0.3 0,0.7 0,1 -1.9,19.5 -5.5,37.1 -11,53 -0.4,0 -0.6,0.1 -0.7,0.2 -4.5,4.6 -8.5,9.5 -12.3,14.8 -0.4,0 -0.6,0 -1,0.1 -5.5,1.1 -10.5,2.8 -15,4.9 -0.4,0 -0.6,0 -1,0 -9.4,0 -18.6,0 -28,0 0,-0.4 0,-0.5 -0.1,-0.6 -8.9,-2.6 -16.3,-6.8 -21.9,-12.4 -0.4,0 -0.5,0 -0.6,-0.2 -1.4,-2.8 -1.9,-6.3 -1.4,-10.8 0,-0.4 0,-0.6 0,-1 0,-2 0,-4 0,-6 0.4,-0.4 0.7,-0.6 1.1,-0.8 0.3,-0.2 0.5,-0.2 0.9,-0.2 0,-0.4 0,-0.6 0,-1 1.1,-0.9 1.5,-2.5 1.1,-5 -0.1,-0.3 -0.1,-0.7 -0.1,-1 0,-0.3 0,-0.7 0,-1 0,-0.7 0,-1.3 0,-2 1,-0.7 1.8,-1.6 2.4,-2.8 0.1,-0.2 0.2,-0.2 0.6,-0.2 2,-2.6 4.3,-5 6.8,-7.3 0.1,-0.1 0.2,-0.4 0.2,-0.7 0,-0.3 0,-0.7 0,-1 9.2,-1.2 19.2,-2 30,-2.5 0,0 0,-0.5 0,-1.5 0,-0.3 0,-0.7 0,-1 0,-0.3 0,-0.7 0,-1 1.1,-5.2 1.6,-11.2 1.5,-18 h 0.5 c 2.1,-5.9 3.4,-12.6 4,-20 0,-0.3 0,-0.7 0,-1 0,-0.3 0,-0.7 0,-1 0,-2.7 0,-5.3 0,-8 1.1,-0.8 1.6,-2.6 1.5,-5 h 0.5 c 1.1,-0.2 1.5,-1.2 1.1,-3 -0.1,-0.3 -0.1,-0.7 -0.1,-1 0,-0.3 0,-0.7 0,-1 0,-2 0,-4 0,-6 1,-2.4 1.8,-5.1 2.5,-7.9 0,0 0.1,-0.1 0.5,-0.1 0,-0.3 0,-0.7 0,-1 0,-0.7 0,-1.3 0,-2 1.1,-2.2 1.5,-5.2 1,-9 0,-0.3 0,-0.7 0,-1 0,-0.3 0,-0.7 0,-1 0,-2.3 0,-4.7 0,-7 0.4,0 0.6,0 1,0 0,-0.3 0,-0.7 0,-1 0,-2.7 0,-5.3 0,-8 0.4,0 0.6,-0.1 0.8,-0.3 0.1,-0.1 0.2,-0.4 0.2,-0.7 0,-0.3 0,-0.7 0,-1 0,-8.7 0,-17.3 0,-26 -1.4,-17.9 -6.5,-32.3 -15.2,-43 -8.5,-10.4 -18.1,-19.7 -28.8,-28 0,2.6 0,5.4 0,8 0,0.4 0,0.6 0,1 0,0.4 0,0.6 0,1 1.1,2.1 1.4,5.1 0.5,8.9 0,0 -0.1,0.1 -0.5,0.1 -0.4,0 -0.5,0.1 -0.6,0.2 -1.9,3.9 -3.6,7.9 -5.4,11.8 0,0.4 0,0.6 0,1 0.5,3.4 -0.2,5.7 -2,7 0,0.3 -0.1,0.6 -0.2,0.7 -3.9,3.1 -6.2,8 -6.8,14.3 0,0.3 -0.1,0.6 -0.2,0.8 -15,20.4 -26.9,43.8 -35.8,70.2 -7.7,11.2 -13.9,24.2 -18.3,38.9 -4.3,14.3 -10.2,26.9 -17.7,38.1 -0.4,0 -0.6,0.1 -0.8,0.2 -11.2,9.8 -24.9,17.1 -41.2,21.8 -0.4,0 -0.6,0 -1,0 -4.1,0.5 -7.5,0.2 -10,-1 -0.4,0 -0.6,0 -1,0.1 -1.8,0.4 -2.8,0.1 -3,-1.1 0,-0.3 0,-0.5 -0.1,-0.5 -10,-2 -17.6,-6.1 -22.9,-12.5 -0.4,0 -0.5,0 -0.6,-0.2 -2.3,-4.8 -3.1,-11.1 -2.4,-18.8 1.1,0.1 1.6,-0.6 1.5,-2 h 0.5 c 2.3,-2.7 5,-5 8.1,-6.8 0.3,-0.2 0.5,-0.2 0.9,-0.2 0,-0.3 0,-0.7 0,-1 2.3,-1.4 5.3,-2.1 9,-2 0.4,0 0.6,0 1,0 0,-0.3 0,-0.7 0,-1 1.6,-0.7 3.6,-1.1 6,-1 0.4,0 0.6,0 1,0 0,-0.3 0,-0.7 0,-1 4,-1 8.8,-1.3 14,-1 0.4,0 0.6,0 1,0 5.2,-5.2 8.5,-12.2 9.9,-21 0.1,-0.3 0.1,-0.7 0.1,-1 0,-0.3 0,-0.7 0,-1 0,-1 0,-2 0,-3 1.1,-0.2 1.6,-1.2 1.5,-3 h 0.5 c 2,-2.8 3.5,-5.8 4.9,-9.1 0.1,-0.2 0.1,-0.6 0.1,-0.9 0,-0.3 0,-0.7 0,-1 0,-1.3 0,-2.7 0,-4 0.9,-1.1 1.7,-2.3 2.4,-3.8 0.1,-0.1 0.2,-0.2 0.6,-0.2 6.1,-12.8 12.1,-25.8 17.8,-39.1 0.2,-0.2 0.2,-0.6 0.2,-0.9 0,-0.3 0,-0.7 0,-1 0,-0.7 0,-1.3 0,-2 1.4,-1.3 2.1,-3.3 2.5,-5.9 0,-0.1 0.1,-0.1 0.5,-0.1 3.9,-8.4 7.5,-17.1 10.9,-26.1 0.1,-0.2 0.1,-0.6 0.1,-0.9 0,-0.3 0,-0.7 0,-1 0,-2.7 0,-5.3 0,-8 0.4,0 0.6,0 1,0 0,-0.3 0,-0.7 0,-1 0,-1 0,-2 0,-3 1.3,-0.8 2.1,-2.1 2.5,-3.9 0,0 0.1,-0.1 0.5,-0.1 0,-0.4 0,-0.6 0,-1 0,-0.6 0,-1.4 0,-2 1.1,-2.1 1.5,-5.1 1,-9 0,-0.4 0,-0.6 0,-1 0,-0.4 0,-0.6 0.1,-1 0.4,-1.8 0,-2.8 -1.1,-3 -0.4,0 -0.5,-0.1 -0.5,-0.1 -0.7,-2.6 -1.1,-5.3 -1.5,-7.9 0.4,0 0.6,0 1,0 -3.1,-16.6 -9.3,-30 -18.6,-40.4 C 730,563.1 721.2,551.9 713.2,540.2 699.5,520 684.8,500.9 669,483 v -0.5 c -13.3,0.7 -25.6,2.6 -37,5.5 -0.4,0 -0.6,0 -1,0 -7.1,-0.1 -13.8,0.2 -20,1 0,0.4 0,0.5 0,0.5 -13.2,1.4 -25.9,3.2 -38,5.5 v 0.5 c -6.4,0.2 -12.4,0.7 -18,1.5 -0.4,0 -0.5,0.1 -0.7,0.2 -0.8,1 -2.2,1.2 -4.3,0.8 v 0.5 c -9,0.4 -18,0.5 -27,0.5 0,0.4 0,0.5 0,0.5 -6.4,0.4 -12.6,0.5 -19,0.5 -0.4,0 -0.6,0 -1,0.1 -9.1,0.4 -17.5,0 -25,-1.1 -0.4,0 -0.6,0 -1,0 -0.4,0 -0.6,0 -1,0 -2.4,0 -4.6,0 -7,0 -0.4,0 -0.6,0.1 -0.9,0.1 -15.5,4.2 -30.2,9.1 -44.1,14.9 v 0.5 c -8.6,-0.1 -16.9,-0.6 -25,-1.5 0,0.4 -0.1,0.6 -0.2,0.6 -3.3,1.5 -5.5,4 -6.8,7.4 0,0.4 0,0.6 0,1 0,0.4 0,0.6 0,1 0.1,3.9 -0.5,6.9 -2,9 0,0.4 0,0.6 0,1 0.1,3.1 -0.5,5.5 -2,7 0,0.4 0,0.6 -0.1,1 -1.9,13.1 -4.2,25.7 -6.9,38 0,0.4 0,0.6 0.1,1 0.4,4.1 0,7.5 -1.1,10 0,0.4 0,0.6 0.1,1 0.4,2.8 0,4.8 -1.1,6 0,0.4 0,0.6 0.1,1 0.4,7.1 0,13.5 -1.1,19 0,0.4 -0.1,0.6 -0.1,0.9 -1.5,5.5 -2.5,11.5 -2.9,18.1 0,1 0,2 0,3 0,0.4 0,0.6 0,1 0,3 0,6 0,9 0,0.3 0,0.7 0,1 1.3,6.6 1.3,13.6 0.1,21 0,0.3 -0.1,0.7 -0.1,1 0,2.3 0,4.7 0,7 0,0.3 0,0.7 0,1 0,0.3 0,0.7 0.1,1 0.4,5.5 0,10.2 -1.1,14 0,0.3 0,0.7 0,1 0,5.3 0,10.7 0,16 0,0.3 0,0.7 0,1 0,0.3 0,0.7 0.1,1 0.4,4.2 0,7.5 -1.1,10 0,0.3 0,0.7 0,1 0,0.3 0,0.7 0.1,1 0.4,2.8 0,4.8 -1.1,6 0,1 0,2 0,3 0,0.3 0,0.7 0,1 0,7.3 0,14.7 0,22 0,0.3 0,0.7 0,1 0.9,1.3 1.3,3.3 1.1,6 -0.1,0.3 -0.1,0.7 -0.1,1 0,0.3 0,0.7 0,1 -0.1,4.8 -0.9,9.2 -2,13 0,0.3 0,0.7 0,1 0,0.3 0,0.7 0.1,1 0.4,5.2 0,9.5 -1.1,13 0,0.3 -0.1,0.7 -0.1,0.9 -0.6,1.4 -1.3,2.8 -1.9,4.1 -0.4,1.8 -0.2,3 0.8,3.4 0.1,0.1 0.2,0.3 0.2,0.6 1.1,3.8 1.4,8.5 0.5,14 0,0 -0.1,0 -0.5,0 -0.4,0.7 -0.5,1.3 -0.4,2 0,6.8 -0.8,12.7 -2.5,17.6 -7.7,21.6 -20.1,38.8 -37.1,51.4 -0.4,0 -0.6,0 -1,0 -7.2,1.1 -13.6,3 -19,6 -0.4,0 -0.6,0 -1,0 -4.4,0 -8.6,0 -13,0 0,0.3 0,0.7 0,1 4.4,0 8.6,0 13,0 59.6,0 119.4,0 179,0 59.6,0 119.4,0 179,0 59.6,0 119.4,0 179,0 59.6,0 119.4,0 179,0 0,-0.3 0,-0.7 0,-1 0,-59.6 0,-119.3 0,-179 0,-59.7 0,-119.4 0,-179 0,-59.6 0,-119.4 0,-179 0,-59.6 0,-119.4 0,-179 z"
   id="path7"
   style="fill:#fefefe" />
            
            <path
   d="m 976,374 c -0.4,0 -0.5,0 -0.6,-0.2 -9.8,-16.7 -21.6,-31.3 -35.4,-43.8 0,-0.4 0,-0.6 -0.2,-0.9 -7.2,-14.8 -15,-28.9 -23.8,-42.1 -0.4,0 -0.6,-0.1 -0.8,-0.3 -1.8,-1.4 -3.2,-3.3 -4.2,-5.7 -0.4,0 -0.6,-0.1 -0.7,-0.3 -0.2,-0.1 -0.3,-0.3 -0.3,-0.7 -0.4,0 -0.6,-0.1 -0.7,-0.3 -1.5,-1.5 -2.9,-3.1 -4.3,-4.7 0,-0.4 -0.1,-0.6 -0.2,-0.8 -5,-4.6 -9.3,-10.1 -12.8,-16.2 -0.4,0 -0.6,-0.1 -0.8,-0.3 -1.6,-1.1 -2.6,-2.7 -3.2,-4.7 -0.4,0 -0.6,-0.1 -0.8,-0.3 -8.7,-7.6 -17.7,-14.8 -27.2,-21.7 -0.4,0 -0.6,0 -1,-0.1 -2,-0.7 -3.6,-1.6 -5,-2.9 0,-0.4 -0.1,-0.5 -0.2,-0.7 -6.8,-6 -14.3,-11.1 -22.8,-15.3 -0.4,0 -0.6,0 -1,0 -2.6,0 -4.6,-0.6 -6,-2 0,-0.4 0,-0.5 -0.1,-0.5 -5.2,-1.8 -10.4,-3.3 -15.9,-4.5 -0.4,0 -0.6,0 -1,0 -3.6,0 -6.6,-0.8 -9,-2 -0.4,0 -0.6,0 -1,0 -3.1,0.1 -5.5,-0.5 -7,-2 -0.4,0 -0.6,0 -1,0 -2.9,0.5 -4.9,0.1 -6,-1 -0.4,0 -0.6,0 -1,0 -11.9,0.5 -22.9,0.1 -33,-1 -0.4,0 -0.6,0 -1,0 -0.4,0 -0.6,0 -1,0 -0.4,0 -0.6,0 -1,0 -10,0 -20,0 -30,0 -0.4,0 -0.6,0 -1,0 -5.6,0 -11.4,0 -17,0 -0.4,0 -0.6,0 -1,0 -0.6,0 -1.4,0 -2,0 0,0.4 0,0.6 0,1 0,0.4 0,0.5 -0.1,0.5 -3.1,1.2 -5.4,1.4 -6.9,0.5 -0.4,0 -0.6,0 -1,0 -1.6,0 -3.4,0 -5,0 0,0.4 0,0.5 0,0.5 -7.9,0.9 -14.9,0.6 -21,-0.5 -0.4,0 -0.6,0 -1,0 -0.4,0 -0.6,0 -1,0 -3.1,0.5 -5.5,0.1 -7,-1 -0.4,0 -0.6,0 -1,0 -0.6,0 -1.4,0 -2,0 -0.4,0 -0.6,0 -0.9,0.2 -2.1,1.2 -4.8,1.8 -8.1,1.8 v 0.5 c -8,0.4 -16,0.5 -24,0.5 0,0.4 0,0.5 0,0.5 -2.7,0.4 -5.4,0.5 -8,0.5 0,0.4 0,0.5 -0.1,0.5 -4.8,0.9 -8.8,0.6 -11.9,-0.5 -0.4,0 -0.6,0 -1,0 -12.7,1.3 -25.4,2.6 -38,4 0,0.4 0,0.5 0,0.5 -12.6,1.5 -25.9,2 -40,1.5 -0.4,0 -0.6,0 -1,0 -11.6,0 -23.4,0 -35,0 0,0.4 0,0.5 -0.1,0.5 -7.4,0.9 -14,0.6 -19.9,-0.5 -0.4,0 -0.6,0 -1,0.1 -6.2,1.4 -11.9,1 -17,-1.1 -0.4,0 -0.6,0 -1,-0.1 -6.9,-1.4 -13.5,-3 -20,-4.9 -0.4,0 -0.6,0 -1,0 -3.4,-0.3 -6.4,-1 -9,-2 -0.4,0 -0.6,0 -0.9,-0.1 -13.7,-3.3 -26.7,-7.3 -39.1,-11.9 -0.4,0 -0.6,0 -1,0 -2.6,0 -4.6,-0.6 -6,-2 -0.4,0 -0.6,0 -0.9,-0.1 -1.4,-0.6 -2.7,-1.3 -4.1,-1.9 -0.4,0 -0.6,0 -0.9,-0.1 -3.1,-1.3 -6.5,-2.2 -10.1,-2.9 -0.4,0 -0.6,0 -1,0 -6.5,0.5 -12.1,0.1 -17,-1 -0.4,0 -0.6,0 -0.9,-0.2 -0.4,-0.2 -0.7,-0.4 -1.1,-0.8 -0.4,0 -0.6,0 -1,0 -2.4,-0.3 -4.4,-1 -6,-2 -0.4,0 -0.6,0 -1,0 -3.9,0.5 -6.9,0.1 -9,-1 -0.4,0 -0.6,0 -1,0 -3.1,-0.2 -5.8,-0.9 -8,-2 -0.4,0 -0.6,0 -1,0 -3.9,0.5 -6.9,0.1 -9,-1 -0.4,0 -0.6,0 -0.9,-0.1 -5.2,-1.8 -10.2,-3.8 -15.1,-5.9 -0.4,0 -0.6,0 -1,-0.1 -4.9,-1 -9.6,-2.4 -14,-3.9 -0.4,0 -0.6,0 -0.9,-0.2 -1,-0.6 -2.1,-1.2 -3.1,-1.8 -0.4,0 -0.6,0 -0.9,-0.1 -2,-0.7 -3.8,-1.6 -5.1,-2.9 -0.3,0 -0.7,0 -1,-0.1 -1.3,-0.3 -2.3,-0.9 -3,-1.9 -0.3,0 -0.7,0 -1,0 -3.7,0.1 -5.1,-2.3 -4,-7 0.3,0 0.7,0 1,0 0,-0.4 0,-0.6 0,-1 0,-1.6 0,-3.4 0,-5 1.3,-3.6 2.3,-7.6 2.9,-12 0.1,-0.4 0.1,-0.6 0.1,-1 0,-0.4 0,-0.6 0,-1 0,-1.6 0,-3.4 0,-5 1.2,-2.9 1.7,-6.5 1.5,-11 h 0.5 c 0,-0.4 0,-0.6 0.1,-1 1.8,-14.9 1.5,-29.3 -1.1,-43 -0.3,0 -0.5,0 -0.5,-0.1 -0.7,-3.3 -1.2,-6.5 -1.5,-9.9 0,-0.4 0,-0.6 0,-1 -0.3,0 -0.5,0 -0.5,-0.1 -0.5,-2.4 -1,-4.8 -1.5,-6.9 0,-0.4 -0.1,-0.6 -0.1,-1 C 241.3,36.6 236,24 228,14 c -0.3,0 -0.6,0 -0.8,-0.2 -2.9,-1.8 -7,-2.3 -12.2,-1.8 -0.3,0 -0.6,0.1 -0.8,0.2 -1.5,1.2 -3.3,2.1 -5.2,2.8 0,0.4 -0.1,0.6 -0.2,0.7 -1.5,1.5 -3.1,2.9 -4.8,4.3 -1,0.6 -2.1,1.2 -3.2,1.7 -3,1.3 -5.6,3.2 -7.6,5.3 -19,20.5 -35,43.8 -48.2,70 -0.3,0 -0.6,0 -0.8,0.2 -5.7,3.5 -11,3.2 -16.2,-1.2 -0.3,0 -0.7,0 -1,0 -2.3,0 -4.7,0 -7,0 -0.3,0 -0.7,0 -0.9,0.1 -3.3,1.4 -6.3,1.4 -9.1,-0.1 -4.2,-2.9 -7,-6.7 -8.7,-11.5 C 93.8,63.2 82.7,45.7 68,32 67.7,32 67.4,31.9 67.2,31.7 65.7,30.6 64.6,29 64,27 63.6,27 63.5,26.9 63.3,26.7 59.4,22.3 54.6,18.7 49,16 48.6,16 48.4,16 48,15.9 45.6,15.4 43.6,14.4 42,13 41.6,13 41.4,12.9 41.1,12.7 36,9.6 31,6.4 26,3 25.6,3 25.4,3 25.1,2.9 22,2 18.6,2 15,3 15,3.4 14.9,3.5 14.8,3.6 11.3,5.5 8.7,8.3 7,12 7,12.4 7,12.6 6.9,13 6.3,16.6 5.3,20 4,23 c 0,0.4 0,0.6 0.1,1 0.4,1.8 0.1,2.8 -1.1,3 0,0.4 0,0.6 0,1 0,0.4 0,0.6 0,1 0.5,3.1 0.1,5.5 -1,7 0,0.4 0,0.6 0,1 -0.2,4.1 -0.9,7.8 -2,11 0,0.6 0,1.4 0,2 0,0.4 0,0.6 0,1 1.1,1.9 1.4,4.5 0.6,7.9 C 0.5,59 0.3,59 0,59 c 0,1 0,2 0,3 0,0.4 0,0.6 0,1 1.1,2.5 1.5,5.9 1.1,10 C 1,73.4 1,73.6 1,74 c 0,10.6 0,21.4 0,32 0,0.4 0,0.6 0,1 1.3,2.4 2.1,5.4 2.5,9 0,0 0.1,0 0.5,0 1.3,1.4 2,3.4 2,6 0,0.4 0,0.6 0,1 2.3,3 4.1,6.6 5.4,10.9 0.1,0.1 0.3,0.1 0.6,0.1 1.7,1 2.3,3 2.1,6 -0.1,0.4 -0.1,0.6 -0.1,1 6.6,12.5 7.1,25.4 1.6,38.8 -0.1,0.2 -0.2,0.2 -0.6,0.2 1.3,3.7 1.6,8.4 1.1,14 -0.1,0.4 -0.1,0.6 -0.1,1 0,0.4 -0.1,0.5 -0.2,0.7 -1.2,0.8 -2.4,1.7 -3.8,2.3 -0.4,1.5 -0.1,2.2 0.9,2.5 0,0 0.1,0.1 0.1,0.5 1.7,0.7 2.4,2 2.5,4 H 15 c 0,0.4 -0.1,0.6 -0.2,0.7 -0.2,0.2 -0.4,0.3 -0.8,0.3 -0.3,2.6 -0.1,4.6 0.8,6.1 0.1,0.3 0.2,0.5 0.2,0.9 0,0.4 0,0.6 0,1 0.1,4 -2.2,5 -7,3 3.3,4.1 4.4,9.5 3.5,16 H 12 c 2.2,6.5 5.8,11.5 10.8,15.3 0.1,0.2 0.2,0.3 0.2,0.7 1.9,0.9 2.8,2.5 2.9,5 0.1,0.4 0.1,0.6 0.1,1 3.3,3.7 6.4,7.6 9.4,11.7 0.1,0.2 0.2,0.3 0.6,0.3 0.5,9.8 4.8,16.1 12.6,19 1.2,0.5 1.7,1.7 1.4,4 0,0.4 0,0.6 0,1 0.5,5.1 0.1,9.5 -1,13 0,0.6 0,1.4 0,2 0,0.4 0,0.6 0,1 1.4,2.6 2,6 2,10 0,0.4 0,0.6 0,1 0.9,3.1 1.9,6.1 2.9,9 0.1,0.4 0.1,0.6 0.1,1 3.8,3.9 7,8.2 9.8,13.1 0.2,0.3 0.2,0.5 0.2,0.9 7.3,3.5 13.2,4 17.8,1.6 0.2,-0.1 0.2,-0.2 0.2,-0.6 2.2,-1.5 4.2,-1.6 6.2,-0.3 0.2,0.2 0.5,0.3 0.8,0.3 1.9,2.7 4.3,5 7.2,6.8 0.2,0.2 0.5,0.2 0.8,0.2 16.2,-6.1 28.2,-16.4 35.9,-30.6 2.9,-5.4 7.3,-9.2 13.1,-11.4 6,9.6 11.9,19.4 17.8,29.1 0.1,0.3 0.2,0.5 0.2,0.9 21.7,24.6 41.8,50.9 60.3,78.7 0.1,0.2 0.4,0.3 0.7,0.3 0.5,2.9 1.1,5.5 1.8,8.1 0.1,0.3 0.2,0.5 0.2,0.9 2.2,1.9 3.9,4.1 5.4,6.8 0,0.1 0.3,0.2 0.6,0.2 0.9,4.1 1.6,8.4 1.9,13 0.1,0.4 0.1,0.6 0.1,1 1.4,0.9 2.6,2.1 3.4,3.8 0,0.1 0.3,0.2 0.6,0.2 2.8,9.6 4.8,18.6 5.9,27 0.1,0.4 0.1,0.6 0.1,1 3.7,10.3 6.7,21.3 8.9,33 0,0.4 0.1,0.6 0.1,1 1,3 1.7,6.4 1.9,10 0.1,0.4 0.1,0.6 0.1,1 1.6,1.7 2.1,4.4 1.5,7.9 0,0 -0.1,0.1 -0.5,0.1 0,2.4 0,4.6 0,7 0,0.4 0,0.6 0,1 1.6,2.9 1.6,5.9 0.2,9.1 -0.1,0.3 -0.2,0.5 -0.2,0.9 2.6,7.1 3.4,15.7 2.5,25.9 0,0.1 -0.1,0.1 -0.5,0.1 0,3 0,6 0,9 0,0.4 0,0.6 0,1 0,0.4 -0.1,0.6 -0.2,0.9 -0.2,0.4 -0.4,0.7 -0.8,1.1 0,0.4 0,0.6 0,1 0,4.6 0,9.4 0,14 0,0.4 0,0.6 0,1 1.2,2.8 1.9,6.1 2,10 0,0.4 0,0.6 0,1 1.1,1.9 1.4,4.5 0.6,7.9 -0.1,0 -0.2,0.1 -0.6,0.1 1.4,10.9 2.6,22.3 3.5,33.9 0,0.1 0.1,0.1 0.5,0.1 1.1,4.2 1.4,9.2 0.5,14.9 0,0.1 -0.1,0.1 -0.5,0.1 0,2.3 0,4.7 0,7 0,0.3 0,0.7 0,1 1.1,1.8 1.4,4.5 0.6,7.9 -0.1,0 -0.2,0.1 -0.6,0.1 -0.4,0 -0.6,0 -1,0 5.3,15.7 7.8,33.1 7.5,52 -0.2,14.2 -0.6,28.8 -1.4,43.9 -0.2,4.3 -0.9,8.3 -2.1,12.1 0,0.3 0,0.7 0.1,1 0.4,3.2 0,5.5 -1.1,7 v 0.5 c -8.9,0.3 -17.5,2.2 -26,5.5 0,0.3 0,0.5 -0.1,0.5 -2.8,0.4 -5.5,0.9 -7.9,1.5 0,0.3 -0.1,0.5 -0.2,0.5 -2.4,0.8 -4.7,1.6 -6.8,2.5 0,0.3 -0.1,0.6 -0.2,0.8 -2.3,2.7 -4.5,5.4 -6.8,8.2 0,0.3 0,0.7 0,1 0.2,3.2 -0.5,5.5 -2,7 0,5 0,10 0,15 0,0.4 0,0.6 0,1 3.2,6.1 7.4,11.2 12.8,15.3 0.1,0.2 0.2,0.3 0.2,0.7 3,0 6,0.1 8.9,0.5 0.1,0 0.1,0.1 0.1,0.5 5,0 10,0 15,0 0.3,0 0.7,0 1,0 0,-0.4 0,-0.6 0,-1 5.3,0.7 7,5.1 5.1,13.1 0,0.3 -0.1,0.5 -0.1,0.9 2.8,4.6 6.1,8.6 9.8,12.2 0.1,0.2 0.2,0.5 0.2,0.8 5.8,1.5 11.8,3 17.9,4.4 0,0.1 0.1,0.3 0.1,0.6 2.4,-0.1 4.6,-0.1 7,0 0.4,0 0.6,0 1,0 0,-0.3 0,-0.7 0,-1 4.4,0 8.6,0 13,0 0.4,0 0.6,0 1,0 5.4,-3 11.8,-4.9 19,-6 0.4,0 0.6,0 1,0 17,-12.6 29.4,-29.8 37.1,-51.4 1.7,-4.9 2.5,-10.8 2.5,-17.6 -0.1,-0.7 0,-1.3 0.4,-2 0,-0.3 0,-0.7 0,-1 0,-4.3 0,-8.7 0,-13 0,-0.3 -0.1,-0.5 -0.2,-0.6 -1,-0.4 -1.2,-1.6 -0.8,-3.4 0.6,-1.3 1.3,-2.7 1.9,-4.1 0,-0.2 0.1,-0.6 0.1,-0.9 0,-0.3 0,-0.7 0,-1 0,-4.3 0,-8.7 0,-13 0.4,0 0.6,0 1,0 0,-0.3 0,-0.7 0,-1 1.1,-3.8 1.9,-8.2 2,-13 0,-0.3 0,-0.7 0,-1 -0.4,0 -0.5,0 -0.5,-0.1 -0.2,-2.7 -0.7,-5 -1.5,-6.9 0,-0.3 0,-0.7 0,-1 0,-7.3 0,-14.7 0,-22 0,-0.3 0,-0.7 0,-1 0,-1.3 0,-2.7 0,-4 1.1,-0.8 1.5,-2.6 1.1,-5 0,-0.3 -0.1,-0.7 -0.1,-1 0,-0.3 0,-0.7 0,-1 0,-0.3 0,-0.7 0,-1 1.1,-2.2 1.5,-5.2 1.1,-9 -0.1,-0.3 -0.1,-0.7 -0.1,-1 0,-0.3 0,-0.7 0,-1 0,-5.3 0,-10.7 0,-16 0.4,0 0.6,0 1,0 0,-0.3 0,-0.7 0,-1 0,-0.3 0,-0.7 0,-1 0,-4.7 0,-9.3 0,-14 0,-0.3 0,-0.7 0,-1 0,-2.3 0,-4.7 0,-7 0.4,0 0.6,0 1,0 0,-0.3 0.1,-0.7 0.1,-1 1.2,-7.4 1.2,-14.4 -0.1,-21 -0.4,0 -0.5,0 -0.5,-0.1 -0.4,-3.2 -0.5,-6.6 -0.5,-9.9 0.4,0 0.6,0 1,0 0,-0.4 0,-0.6 0,-1 0,-1 0,-2 0,-3 0.4,-6.6 1.4,-12.6 2.9,-18.1 0,-0.3 0.1,-0.5 0.1,-0.9 0,-0.4 0,-0.6 0,-1 0,-6.4 0,-12.6 0,-19 0.4,0 0.6,0 1,0 0,-0.4 0,-0.6 0,-1 0,-2.4 0,-4.6 0,-7 0.4,0 0.6,0 1,0 0,-0.4 0,-0.6 0,-1 0,-3 0,-6 0,-9 0.4,0 0.6,0 1,0 2.7,-12.3 5,-24.9 6.9,-38 0.1,-0.4 0.1,-0.6 0.1,-1 0,-0.4 0,-0.6 0,-1 0,-1 0,-2 0,-3 1.1,-0.6 1.6,-1.9 1.5,-4 h 0.5 c 0,-0.4 0,-0.6 0,-1 0,-1.4 0,-2.6 0,-4 1.1,-0.9 1.6,-2.6 1.5,-5 h 0.5 c 0,-0.4 0,-0.6 0,-1 1.3,-3.4 3.5,-5.9 6.8,-7.4 0.1,0 0.2,-0.2 0.2,-0.6 0,-0.4 0,-0.6 0,-1 8,0.6 16,1.3 24,1.9 0.4,0.1 0.6,0.1 1,0.1 13.9,-5.8 28.6,-10.7 44.1,-14.9 0.3,0 0.5,-0.1 0.9,-0.1 0,-0.4 0,-0.6 0,-1 2.6,0 5.3,0.1 7.9,0.5 0.1,0 0.1,0.1 0.1,0.5 0.4,0 0.6,0 1,0 8.4,0 16.6,0 25,0 0.4,0 0.6,0 1,0 6,0 12,0 18,0 0.4,0 0.6,0 1,0 0,-0.4 0,-0.6 0,-1 8.6,0 17.4,0 26,0 0.4,0 0.6,0 1,0 2.1,0.4 3.5,0.2 4.3,-0.8 0.2,-0.1 0.3,-0.2 0.7,-0.2 0,-0.4 0,-0.6 0,-1 5.2,-0.8 10.9,-1.1 17,-1 0.4,0 0.6,0 1,0 12.1,-2.3 24.8,-4.1 38,-5.5 0,0 0,-0.1 0,-0.5 0,-0.4 0,-0.6 0,-1 6.5,-0.9 13.4,-1.1 21,-0.5 0,0 0,0.1 0,0.5 11.4,-2.9 23.7,-4.8 37,-5.5 v 0.5 c 15.8,17.9 30.5,37 44.2,57.2 8,11.7 16.8,22.9 26.2,33.4 9.3,10.4 15.5,23.8 18.6,40.4 0.5,2.1 0.8,4.5 1,7 0,0.4 0,0.6 0,1 1.1,0.2 1.5,1.2 1.1,3 -0.1,0.4 -0.1,0.6 -0.1,1 0.4,0 0.5,0.1 0.5,0.1 1.1,5.7 0.6,10 -1.5,12.9 0,0.4 0,0.6 -0.1,1 -0.5,2.7 -1.5,5.1 -2.9,7 0,0.3 0,0.7 0,1 0.5,3.5 0.1,6.2 -1,8 0,0.3 0,0.7 -0.1,0.9 -3.4,9 -7,17.7 -10.9,26.1 0,0.3 0,0.7 0,1 -0.1,3.5 -1.1,6.2 -3,8 0,0.3 0,0.7 -0.2,0.9 -5.7,13.3 -11.7,26.3 -17.8,39.1 0,0.3 0,0.7 -0.1,0.9 -0.9,2.8 -1.9,5.5 -2.9,8.1 0,0.3 0,0.7 -0.1,0.9 -1.4,3.3 -2.9,6.3 -4.9,9.1 0,0.3 0,0.7 0,1 0,2.7 -0.6,4.7 -2,6 0,0.3 0,0.7 -0.1,1 -1.4,8.8 -4.7,15.8 -9.9,21 -0.4,0 -0.6,0 -1,0 -5.2,-0.3 -10,0 -14,1 0,0.3 0,0.7 0,1 0,0.3 0,0.5 -0.1,0.5 -2.4,0.5 -4.8,1 -6.9,1.5 0,0.3 0,0.5 0,0.5 -3.9,0.4 -7.2,1.2 -10,2.5 -0.4,0 -0.6,0 -0.9,0.2 -3.1,1.8 -5.8,4.1 -8.1,6.8 0,0.3 0,0.7 0.1,0.9 0.4,1.5 0,2.2 -1.1,2.1 -0.6,7 0,12.7 1.8,17 0.2,0.3 0.2,0.7 0.2,1 5.3,6.4 12.9,10.5 22.9,12.5 0.1,0 0.1,0.2 0.1,0.5 4.4,0 8.6,0.2 13,0.5 0,0 0,0.2 0,0.5 0.6,0 1.3,0.2 1.8,0.4 0.2,0.1 0.2,0.3 0.2,0.6 16.3,-4.7 30,-12 41.2,-21.8 0.2,-0.1 0.4,-0.2 0.8,-0.2 7.5,-11.2 13.4,-23.8 17.7,-38.1 4.4,-14.7 10.6,-27.7 18.3,-38.9 8.9,-26.4 20.8,-49.8 35.8,-70.2 0.1,-0.2 0.2,-0.5 0.2,-0.8 0.6,-6.3 2.9,-11.2 6.8,-14.3 0.1,-0.1 0.2,-0.4 0.2,-0.7 0,-0.3 0,-0.7 0,-1 0,-0.7 0,-1.3 0,-2 1.1,-0.8 1.6,-2.6 1.5,-5 h 0.5 c 1.8,-3.9 3.5,-7.9 5.4,-11.8 0.1,-0.1 0.2,-0.2 0.6,-0.2 0,-0.4 0,-0.6 0,-1 0,-2.6 0,-5.4 0,-8 0,-0.4 0,-0.6 0,-1 -0.4,0 -0.5,0 -0.5,-0.1 -0.4,-2.9 -0.5,-5.9 -0.5,-8.9 0.4,0 0.6,0 1,0 10.7,8.3 20.3,17.6 28.8,28 8.7,10.7 13.8,25.1 15.2,43 1.1,8.2 1.4,17.2 0.5,26.9 0,0.1 -0.1,0.1 -0.5,0.1 0,0.3 -0.1,0.6 -0.2,0.7 -0.2,0.2 -0.4,0.3 -0.8,0.3 0,2.7 0,5.3 0,8 0,0.3 0,0.7 0,1 0,0.3 0,0.7 0,1 0.5,3.2 0.1,5.5 -1,7 0,0.3 0,0.7 0,1 0.5,3.8 0.1,6.8 -1,9 0,0.7 0,1.3 0,2 0,0.3 0,0.7 0,1 0,0.3 0,0.7 0,1 -0.8,4.9 -1.7,9.6 -3,14 0,0.3 0,0.7 0.1,1 0.4,1.8 0,2.8 -1.1,3 0,0.3 0,0.7 0,1 -0.1,4.8 -0.8,9.2 -2,13 0,0.3 0,0.7 0,1 -0.6,7.4 -1.9,14.1 -4,20 0,0.3 0,0.7 0,1 0.5,6.8 0.1,12.8 -1,18 0,0.3 0,0.7 0,1 0,1 0,1.5 -0.2,1.5 -10.1,1.8 -20.3,3 -30.8,3.5 0,0.3 -0.1,0.6 -0.2,0.7 -2.5,2.3 -4.8,4.7 -6.8,7.3 0,0.3 0,0.7 -0.1,1 -0.6,2 -1.6,3.7 -2.9,5 0,0.3 0,0.7 0.1,1 0.4,2.5 0,4.1 -1.1,5 0,0.4 0,0.6 0,1 0,0.4 0,0.6 -0.2,0.9 -0.2,0.4 -0.4,0.7 -0.8,1.1 0,1.6 0,3.4 0,5 0,0.4 0,0.6 0,1 -0.4,4.1 -0.1,7.5 0.9,10 0.1,0.4 0.1,0.6 0.1,1 5.6,5.6 13,9.8 21.9,12.4 0.1,0.1 0.1,0.2 0.1,0.6 9.4,0 18.6,0 28,0 0.4,0 0.6,0 1,0 4.5,-2.1 9.5,-3.8 15,-4.9 0.4,-0.1 0.6,-0.1 1,-0.1 3.8,-5.3 7.8,-10.2 12.3,-14.8 0.1,-0.1 0.3,-0.2 0.7,-0.2 5.5,-15.9 9.1,-33.5 11,-53 0,-0.3 0,-0.7 0,-1 0,-0.3 0,-0.7 0,-1 0,-0.3 0,-0.7 0,-1 1.1,-1.8 1.6,-4.5 1.5,-8 h 0.5 c 0,-0.3 0,-0.7 0,-1 0,-2 0,-4 0,-6 0.4,0 0.6,0 1,0 0,-0.3 0,-0.7 0,-1 0,-2.7 0,-5.3 0,-8 0.4,0 0.6,0 1,0 0,-0.3 0,-0.7 0,-1 2.4,-7.7 3.7,-16.3 4,-26 0,-0.3 0,-0.7 0,-1 2.5,-3.5 5,-7.1 7.4,-10.8 0.1,-0.1 0.2,-0.2 0.6,-0.2 0.6,-7.1 2.3,-13.1 4.8,-18.1 0.2,-0.2 0.2,-0.6 0.2,-0.9 0,-0.3 0,-0.7 0,-1 0,-1 0,-2 0,-3 1.1,-0.8 1.6,-2.6 1.5,-5 h 0.5 c 1.3,-7.3 2.6,-14.7 3.9,-22 0.1,-0.3 0.1,-0.7 0.1,-1 0,-0.3 0,-0.7 0,-1 2,-3.7 2.9,-8.7 2.5,-15 h 0.5 c 0,-0.3 0,-0.7 0,-1 0,-1.3 0,-2.7 0,-4 0,-0.3 0,-0.7 0,-1 0,-0.3 0,-0.7 0,-1 1.1,-1.2 1.6,-3.2 1.5,-6 h 0.5 c 0,-0.3 0,-0.7 0,-1 0,-0.3 0,-0.7 0,-1 0,-2.3 0,-4.7 0,-7 0,-0.4 0,-0.6 0.1,-1 0.9,-4.1 0.9,-7.4 -0.1,-10 0,-0.4 0,-0.6 -0.1,-0.9 -2.5,-6.2 -6.4,-10.9 -11.9,-14.1 0,-0.4 -0.1,-0.6 -0.2,-0.8 -16.9,-22.8 -32.4,-46.8 -46.8,-72.2 -0.4,0 -0.6,-0.1 -0.9,-0.3 -1.6,-1 -2.2,-2.8 -2.1,-5.7 0,-0.4 0,-0.6 -0.1,-1 -1,-4.6 -3,-8.3 -5.9,-11 -0.4,0 -0.5,0 -0.5,-0.1 -0.4,-3.3 -0.5,-6.5 -0.5,-9.9 -0.4,0 -0.5,0 -0.5,-0.1 -1,-7.7 -2.1,-15 -3.5,-21.9 -0.4,0 -0.5,0 -0.5,-0.1 -0.4,-2.3 -0.5,-4.5 -0.5,-6.9 h -0.5 c -0.4,-12.6 -0.5,-25.4 -0.5,-38 0.4,0 0.6,0 1,0 0,-0.4 0,-0.6 0,-1 1.3,-4.1 2.1,-8.4 2.5,-13 H 869 c -0.4,0 -0.5,0 -0.5,-0.1 -0.4,-2.6 -0.5,-5.3 -0.5,-7.9 -0.4,0 -0.5,0 -0.5,-0.1 -0.4,-5.6 -0.5,-11.3 -0.5,-16.9 0.4,0 0.6,0 1,0 0,-0.4 0,-0.6 0,-1 0,-0.6 0,-1.4 0,-2 0.8,-3.6 1.8,-6.9 2.9,-10.1 0.1,-0.3 0.1,-0.5 0.1,-0.9 0,-0.4 0,-0.6 0,-1 0,-2.4 0,-4.6 0,-7 0.4,0 0.6,0 1,0 1,0 2,0.1 2.9,0.4 0.1,0.1 0.1,0.2 0.1,0.6 1,5.1 1.5,10.4 1.5,16 H 876 c 0,0.4 0,0.6 0.1,1 0.4,2.1 0,3.4 -1.1,4 -0.4,1.4 0,2.1 1,2.1 0.4,-0.1 0.6,-0.1 1,-0.1 4,-4.1 6.7,-2.9 8.3,3.4 2.2,9 3.7,18.2 4.7,27.6 1.1,1.9 1.5,4.6 1,8 0,0.4 0,0.6 0,1 -0.5,3.5 -0.2,6.2 0.8,8.1 0.2,0.3 0.2,0.5 0.2,0.9 0.9,4.4 1.5,9.1 2,14 0,0.4 0,0.6 0,1 3.2,3.1 5.2,7.4 6,13 0,0.4 0,0.6 0,1 1.5,1.9 2.5,4.2 2.9,7 0.1,0.4 0.1,0.6 0.1,1 0.3,-2.7 1.3,-4.6 3,-5.5 v 0.5 c 2.7,5.6 5,11.6 6.9,18.1 0.1,0.3 0.1,0.5 0.1,0.9 1.4,3.6 1.9,8 1.5,12.9 0,0.1 -0.1,0.1 -0.5,0.1 0,1.3 0.3,2.4 0.8,3.1 0.1,0.3 0.2,0.5 0.2,0.9 0.4,3.9 1.6,6.1 3.9,6.5 0.1,0 0.1,0.1 0.1,0.5 5.8,10.9 11.7,21.6 17.8,32.1 0.2,0.3 0.2,0.5 0.2,0.9 1.4,1.9 2.4,4.3 2.9,7 0.1,0.4 0.1,0.6 0.1,1 8.9,13.4 18.4,26.4 28.3,38.7 0.2,0.2 0.3,0.3 0.7,0.3 2.5,0.1 4.1,1.2 4.9,3.1 0.1,0.3 0.1,0.5 0.1,0.9 5.8,-0.9 10.6,1.7 14.8,8.1 0.1,0.3 0.2,0.5 0.2,0.9 3,-5.1 8,-7.9 15,-8.5 v 0.5 c 1.9,2.6 3,2.9 3.5,1.1 0,0 0.2,-0.1 0.5,-0.1 1.8,-0.5 2.5,-2.1 2.1,-5 -0.1,-0.4 -0.1,-0.6 -0.1,-1 0,-0.4 0,-0.6 0,-1 0,-0.4 0,-0.6 0,-1 1,-1.4 2.1,-2.6 3.3,-3.8 0.1,-0.1 0.4,-0.2 0.7,-0.2 0,-0.4 0,-0.6 0,-1 0,-2.4 0,-4.6 0,-7 0.4,-0.4 0.7,-0.6 1.1,-0.8 0.3,-0.1 0.6,-0.2 0.9,-0.2 1.1,-2.8 2,-7.1 2.5,-12.9 0,-0.1 0.2,-0.1 0.5,-0.1 0.5,-5.6 1.4,-10.6 2.9,-15.1 0.1,-0.3 0.1,-0.5 0.1,-0.9 -0.3,0 -0.5,0 -0.5,-0.1 -0.3,-6.3 -0.5,-12.5 -0.5,-18.9 0.4,0 0.7,0 1,0 0,-0.4 0,-0.6 0,-1 0.6,-12.9 -0.1,-24.6 -2,-35 -0.3,0 -0.5,-0.1 -0.6,-0.2 -1.5,-2.7 -2.3,-5.9 -2.4,-9.8 0,-0.4 0.1,-0.6 0.3,-0.8 3.7,-4.1 3.3,-7.3 -1.3,-9.2 -0.3,0 -0.5,-0.1 -0.7,-0.3 -1.3,-1.7 -2,-4 -2.3,-6.7 0,-0.4 0.1,-0.6 0.1,-1 0.4,-1.8 0.1,-2.8 -1.1,-3 -0.3,0 -0.5,-0.1 -0.7,-0.3 -1.2,-1.4 -1.6,-3.6 -1.3,-6.7 -0.3,0 -0.5,-0.1 -0.5,-0.1 -0.9,-4.7 -1.4,-9.7 -1.5,-14.9 0.7,0 1.3,0.1 1.8,0.4 0.2,0 0.2,0.2 0.2,0.6 3.1,0.1 3.8,-0.6 2.3,-2.3 -0.2,-0.1 -0.3,-0.3 -0.3,-0.7 -0.3,0 -0.5,-0.1 -0.7,-0.3 -1,-1.3 -2.1,-2.6 -3.3,-3.7 -0.3,0 -0.5,-0.1 -0.6,-0.3 -5.3,-7.4 -10.1,-15.3 -14.4,-23.7 -0.4,0 -0.5,-0.1 -0.6,-0.2 -1.2,-1.9 -1.9,-4.2 -2.4,-6.8 0.4,0 0.6,0 1,0 0.4,0 0.6,-0.1 1,-0.2 0.1,-0.1 -0.5,-1 -2,-2.8 -0.4,0 -0.5,-0.1 -0.6,-0.2 -2.6,-6.2 -3.8,-12.1 -3.4,-17.8 -0.4,0 -0.5,-0.1 -0.7,-0.3 -1,-1.3 -2.2,-2.6 -3.3,-3.7 0,-0.4 0,-0.6 -0.1,-0.9 -2,-7.7 -3.9,-15.4 -5.9,-23.1 z"
   id="path9" />
            
            <path
   d="m 807,205 c 0.4,0 0.6,0 1,0 0,-0.4 0,-0.5 -0.1,-0.5 -3,-0.9 -6.4,-1.4 -9.9,-1.5 2.4,1.2 5.4,2 9,2 z"
   id="path11"
   style="fill:#9a9a9a" />
            
            <path
   d="m 797,203 c 0.4,0 0.6,0 1,0 0,-0.4 0,-0.5 -0.1,-0.5 -2.6,-0.7 -5.3,-1.1 -7.9,-1.5 1.5,1.5 3.9,2.1 7,2 z"
   id="path13"
   style="fill:#8e8e8e" />
            
            <path
   d="m 790,201 c 0,-0.4 0,-0.5 0,-0.5 -2.8,-0.3 -5.1,-0.8 -7,-1.5 0,0.4 0,0.6 0,1 1.1,1.1 3.1,1.5 6,1 0.4,0 0.6,0 1,0 z"
   id="path15"
   style="fill:#898989" />
            
            <path
   d="m 783,200 c 0,-0.4 0,-0.6 0,-1 -0.4,0 -0.6,0 -1,0 -11,0 -22,0 -33,0 10.1,1.1 21.1,1.5 33,1 0.4,0 0.6,0 1,0 z"
   id="path17"
   style="fill:#a7a7a7" />
            
            <path
   d="m 747,199 v -0.5 c -10.4,-0.4 -20.6,-0.5 -31,-0.5 0,0.4 0,0.6 0,1 10,0 20,0 30,0 0.4,0 0.6,0 1,0 z"
   id="path19"
   style="fill:#666666" />
            
            <path
   d="m 716,199 c 0,-0.4 0,-0.6 0,-1 -0.4,0 -0.6,0 -1,0 -5.6,0 -11.4,0 -17,0 0,0.4 0,0.6 0,1 5.6,0 11.4,0 17,0 0.4,0 0.6,0 1,0 z"
   id="path21"
   style="fill:#848484" />
            
            <path
   d="m 695,200 c -0.4,0 -0.6,0 -1,0 -2.4,0 -4.4,0.3 -6,1 1.5,0.9 3.8,0.7 6.9,-0.5 0.1,0 0.1,-0.1 0.1,-0.5 z"
   id="path23"
   style="fill:#7f7f7f" />
            
            <path
   d="m 687,201 c 0.4,0 0.6,0 1,0 0,-0.4 0,-0.5 0,-0.5 -2.7,-0.4 -5.4,-0.5 -8,-0.5 0,0.4 0,0.6 0,1 0.4,0 0.6,0 1,0 0.4,0 0.6,0 1,0 1.6,0 3.4,0 5,0 z"
   id="path25"
   style="fill:#a2a2a2" />
            
            <path
   d="m 682,201 c -0.4,0 -0.6,0 -1,0 -0.4,0 -0.6,0 -1,0 -0.4,0 -0.6,0 -1,0 -6,0 -12,0 -18,0 6.1,1.1 13.1,1.4 21,0.5 0,0 0,-0.1 0,-0.5 z"
   id="path27"
   style="fill:#606060" />
            
            <path
   d="m 659,201 c 0.4,0 0.6,0 1,0 0,-0.4 0,-0.5 0,-0.5 -2.7,-0.4 -5.4,-0.5 -8,-0.5 1.5,1.1 3.9,1.5 7,1 z"
   id="path29"
   style="fill:#606060" />
            
            <path
   d="m 648.1,200.2 c 0.3,-0.2 0.5,-0.2 0.9,-0.2 v -0.5 c -3,0.4 -6,0.9 -9,1.5 0,0.4 0,0.6 0,1 3.3,0 6,-0.6 8.1,-1.8 z"
   id="path31"
   style="fill:#848484" />
            
            <path
   d="m 892,258 c 0,-0.4 0,-0.6 -0.2,-0.9 -0.8,-1.9 -2,-3.2 -3.8,-4.1 0.6,2 1.6,3.6 3.2,4.7 0.2,0.2 0.4,0.3 0.8,0.3 z"
   id="path33"
   style="fill:#929292" />
            
            <path
   d="m 909.9,279 c -0.8,-2.1 -2.4,-3.5 -4.9,-4 1.4,1.6 2.8,3.2 4.3,4.7 0.1,0.2 0.3,0.3 0.7,0.3 0,-0.4 0,-0.6 -0.1,-1 z"
   id="path35"
   style="fill:#919191" />
            
            <path
   d="m 916,287 c 0,-0.4 0,-0.6 -0.2,-0.9 -1.1,-2.1 -2.7,-3.9 -4.8,-5.1 1,2.4 2.4,4.3 4.2,5.7 0.2,0.2 0.4,0.3 0.8,0.3 z"
   id="path37"
   style="fill:#979797" />
            
            <path
   d="m 859.8,230.2 c -1.3,-1.3 -3.3,-2.1 -5.8,-2.2 1.4,1.3 3,2.2 5,2.9 0.4,0.1 0.6,0.1 1,0.1 0,-0.4 -0.1,-0.6 -0.2,-0.8 z"
   id="path39"
   style="fill:#858585" />
            
            <path
   d="m 830.9,211.5 c -2.1,-0.9 -4.4,-1.4 -6.9,-1.5 1.4,1.4 3.4,2 6,2 0.4,0 0.6,0 1,0 0,-0.4 0,-0.5 -0.1,-0.5 z"
   id="path41"
   style="fill:#878787" />
            
            <path
   d="m 872,384 c -0.4,0 -0.6,0 -1,0 0,2.4 0,4.6 0,7 0,0.4 0,0.6 0,1 1.1,-1.5 1.5,-3.9 1,-7 0,-0.4 0,-0.6 0,-1 z"
   id="path43"
   style="fill:#b3b3b3" />
            
            <path
   d="m 891,448 c 0,-0.4 0,-0.6 0,-1 0.5,-3.4 0.1,-6.1 -1,-8 0,3 0.1,6 0.5,8.9 0,0.1 0.1,0.1 0.5,0.1 z"
   id="path45"
   style="fill:#878787" />
            
            <path
   d="m 894,472 c 0,-0.4 0,-0.6 0,-1 -0.5,-4.9 -1.1,-9.6 -2,-14 -0.3,5.6 0.2,10.6 1.5,14.9 0,0 0.1,0.1 0.5,0.1 z"
   id="path47"
   style="fill:#959595" />
            
            <path
   d="m 903,494 c 0,-0.4 0,-0.6 -0.1,-1 -0.4,-2.8 -1.4,-5.1 -2.9,-7 0.3,3.1 1.1,5.6 2.4,7.8 0.1,0.1 0.2,0.2 0.6,0.2 z"
   id="path49"
   style="fill:#8a8a8a" />
            
            <path
   d="m 906,489 v -0.5 c -1.7,0.9 -2.7,2.8 -3,5.5 2,1.2 2.8,-0.4 2.5,-5 h 0.5 z"
   id="path51"
   style="fill:#838383" />
            
            <path
   d="m 876,408.1 c -1,0 -1.4,-0.7 -1,-2.1 1.1,-0.6 1.5,-1.9 1.1,-4 -0.1,-0.4 -0.1,-0.6 -0.1,-1 h -0.5 c 0.1,2.1 -0.4,3.4 -1.5,4 -0.9,3.1 0.1,4.3 2.9,3.6 0.1,-0.1 0.1,-0.2 0.1,-0.6 -0.4,0 -0.6,0 -1,0.1 z"
   id="path53"
   style="fill:#919191" />
            
            <path
   d="m 875.9,400.1 c 0.1,0.3 0.1,0.5 0.1,0.9 h 0.5 c 0,-5.6 -0.5,-10.9 -1.5,-16 -0.4,5.7 -0.1,10.7 0.9,15.1 z"
   id="path55"
   style="fill:#7d7d7d" />
            
            <path
   d="m 868,406 c -0.4,0 -0.6,0 -1,0 0,5.6 0.1,11.3 0.5,16.9 0,0.1 0.1,0.1 0.5,0.1 0,-0.4 0,-0.6 0,-1 0,-0.4 0,-0.6 0,-1 0,-5 0,-10 0,-15 z"
   id="path57"
   style="fill:#5e5e5e" />
            
            <path
   d="m 868.5,430.9 c 0,0.1 0.1,0.1 0.5,0.1 0,-0.4 0,-0.6 0,-1 0.5,-3.4 0.1,-6.1 -1,-8 0,0.4 0,0.6 0,1 0,2.6 0.1,5.3 0.5,7.9 z"
   id="path59"
   style="fill:#909090" />
            
            <path
   d="m 867,445 c -0.4,0 -0.6,0 -1,0 0,12.6 0.1,25.4 0.5,38 h 0.5 c 0,-0.4 0,-0.6 0,-1 0,-0.4 0,-0.6 0,-1 0,-12 0,-24 0,-36 z"
   id="path61"
   style="fill:#7c7c7c" />
            
            <path
   d="m 868,489 c 0.5,-3.1 0.1,-5.5 -1,-7 0,0.4 0,0.6 0,1 0,2.4 0.1,4.6 0.5,6.9 0,0.1 0.1,0.1 0.5,0.1 0,-0.4 0,-0.6 0,-1 z"
   id="path63"
   style="fill:#8a8a8a" />
            
            <path
   d="m 881.1,539.7 c 0.3,0.2 0.5,0.3 0.9,0.3 0,-0.4 0,-0.6 -0.2,-0.9 -0.9,-1.7 -1.8,-3.4 -2.8,-5.1 -0.1,2.9 0.5,4.7 2.1,5.7 z"
   id="path65"
   style="fill:#a0a0a0" />
            
            <path
   d="m 873,522 c 0,-0.4 0,-0.6 0,-1 0.5,-3.9 0.1,-6.9 -1,-9 0,3.4 0.1,6.6 0.5,9.9 0,0.1 0.1,0.1 0.5,0.1 z"
   id="path67"
   style="fill:#c5c5c5" />
            
            <path
   d="m 918,531.9 c 0.4,0.1 0.6,0.1 1,0.1 0,-0.4 0,-0.5 -0.1,-0.5 -2.3,-0.4 -3.5,-2.6 -3.9,-6.5 -1.1,4.4 -0.1,6.8 3,6.9 z"
   id="path69"
   style="fill:#707070" />
            
            <path
   d="m 914,521 c 0.4,0 0.5,0 0.5,-0.1 0.4,-4.9 -0.1,-9.3 -1.5,-12.9 0,4.4 0.3,8.4 0.9,12 0.1,0.4 0.1,0.6 0.1,1 z"
   id="path71"
   style="fill:#949494" />
            
            <path
   d="m 939.9,572 c -0.5,-2.7 -1.5,-5.1 -2.9,-7 -0.5,3.9 0.2,6.4 2.1,7.7 0.3,0.2 0.5,0.3 0.9,0.3 0,-0.4 0,-0.6 -0.1,-1 z"
   id="path73"
   style="fill:#8e8e8e" />
            
            <path
   d="m 758,614 c -0.4,0 -0.6,0 -1,0 0.4,2.6 0.8,5.3 1.5,7.9 0,0 0.1,0.1 0.5,0.1 0,-0.4 0,-0.6 0,-1 -0.2,-2.5 -0.5,-4.9 -1,-7 z"
   id="path75"
   style="fill:#898989" />
            
            <path
   d="m 760,626 c 0,0.4 0,0.6 0,1 0.5,3.9 0.1,6.9 -1,9 0,0.6 0,1.4 0,2 0,0.4 0,0.6 0,1 2.1,-2.9 2.6,-7.2 1.5,-12.9 0,0 -0.1,-0.1 -0.5,-0.1 z"
   id="path77"
   style="fill:#939393" />
            
            <path
   d="m 758.5,639.1 c -0.4,1.8 -1.2,3.1 -2.5,3.9 0,1 0,2 0,3 0,0.3 0,0.7 0,1 1.4,-1.9 2.4,-4.3 2.9,-7 0.1,-0.4 0.1,-0.6 0.1,-1 -0.4,0 -0.5,0.1 -0.5,0.1 z"
   id="path79"
   style="fill:#878787" />
            
            <path
   d="m 756,648 c 0,-0.3 0,-0.7 0,-1 -0.4,0 -0.6,0 -1,0 0,2.7 0,5.3 0,8 0,0.3 0,0.7 0,1 1.1,-1.8 1.5,-4.5 1,-8 z"
   id="path81"
   style="fill:#a8a8a8" />
            
            <path
   d="m 744,684 c 0,-0.3 0,-0.7 0,-1 -0.4,0 -0.5,0 -0.5,0.1 -0.4,2.6 -1.1,4.6 -2.5,5.9 0,0.7 0,1.3 0,2 0,0.3 0,0.7 0,1 1.9,-1.8 2.9,-4.5 3,-8 z"
   id="path83"
   style="fill:#909090" />
            
            <path
   d="m 722.4,732.2 c -0.7,1.5 -1.5,2.7 -2.4,3.8 0,1.3 0,2.7 0,4 0,0.3 0,0.7 0,1 1,-2.6 2,-5.3 2.9,-8.1 0.1,-0.2 0.1,-0.6 0.1,-0.9 -0.4,0 -0.5,0.1 -0.6,0.2 z"
   id="path85"
   style="fill:#868686" />
            
            <path
   d="m 671,786 c 0,0.3 0,0.7 0,1 2.8,-1.3 6.1,-2.1 10,-2.5 0,0 0,-0.2 0,-0.5 -0.4,0 -0.6,0 -1,0 -3.7,-0.1 -6.7,0.6 -9,2 z"
   id="path87"
   style="fill:#8c8c8c" />
            
            <path
   d="m 687,782 c -2.4,-0.1 -4.4,0.3 -6,1 0,0.3 0,0.7 0,1 2.1,-0.5 4.5,-1 6.9,-1.5 0.1,0 0.1,-0.2 0.1,-0.5 -0.4,0 -0.6,0 -1,0 z"
   id="path89"
   style="fill:#787878" />
            
            <path
   d="m 714.5,751 c 0.1,1.8 -0.4,2.8 -1.5,3 0,1 0,2 0,3 0,0.3 0,0.7 0,1 1.4,-1.3 2,-3.3 2,-6 0,-0.3 0,-0.7 0,-1 h -0.5 z"
   id="path91"
   style="fill:#818181" />
            
            <path
   d="m 940.5,648 c 0.1,2.8 -0.4,4.8 -1.5,6 0,0.3 0,0.7 0,1 0,0.3 0,0.7 0,1 0.4,0 0.6,0 1,0 0,-0.3 0,-0.7 0,-1 1.1,-1.2 1.5,-3.2 1,-6 0,-0.3 0,-0.7 0,-1 h -0.5 z"
   id="path93"
   style="fill:#808080" />
            
            <path
   d="m 941,647 c 0.4,0 0.5,-0.1 0.5,-0.1 0.9,-3.4 0.6,-6.1 -0.5,-7.9 0,2.3 0,4.7 0,7 0,0.3 0,0.7 0,1 z"
   id="path95"
   style="fill:#adadad" />
            
            <path
   d="m 939,660 c 0,0.3 0,0.7 0,1 0,1 0,2 0,3 0,0.3 0,0.7 0,1 1.1,-1.8 1.5,-4.5 1,-8 0,-0.3 0,-0.7 0,-1 -0.4,0 -0.6,0 -1,0 0,1.3 0,2.7 0,4 z"
   id="path97"
   style="fill:#b2b2b2" />
            
            <path
   d="m 939,661 h -0.5 c 0.4,6.3 -0.5,11.3 -2.5,15 0,0.3 0,0.7 0,1 2.9,-1.8 3.9,-5.4 3,-11 0,-0.3 0,-0.7 0,-1 0,-0.3 0,-0.7 0,-1 0,-1 0,-2 0,-3 z"
   id="path99"
   style="fill:#7f7f7f" />
            
            <path
   d="m 830,615 c 0,-0.4 0,-0.6 0,-1 0,-2.6 0,-5.4 0,-8 -0.4,0 -0.6,0 -1,0 0,3 0.1,6 0.5,8.9 0,0.1 0.1,0.1 0.5,0.1 z"
   id="path101"
   style="fill:#8f8f8f" />
            
            <path
   d="m 824,638 c 0,-0.4 0,-0.6 0,-1 h -0.5 c 0.1,2.4 -0.4,4.2 -1.5,5 0,0.7 0,1.3 0,2 0,0.3 0,0.7 0,1 1.8,-1.3 2.5,-3.6 2,-7 z"
   id="path103"
   style="fill:#8a8a8a" />
            
            <path
   d="m 830,624 c 0,0.4 0,0.6 0,1 0.4,0 0.5,-0.1 0.5,-0.1 0.9,-3.8 0.6,-6.8 -0.5,-8.9 0,2.6 0,5.4 0,8 z"
   id="path105"
   style="fill:#b7b7b7" />
            
            <path
   d="m 874,703 c 0,0.3 0,0.7 0,1 0.4,0 0.5,0 0.5,-0.1 0.9,-9.7 0.6,-18.7 -0.5,-26.9 0,8.7 0,17.3 0,26 z"
   id="path107"
   style="fill:#555555" />
            
            <path
   d="m 873,715 c 0,-0.3 0,-0.7 0,-1 -0.4,0 -0.6,0 -1,0 0,2.3 0,4.7 0,7 0,0.3 0,0.7 0,1 1.1,-1.5 1.5,-3.8 1,-7 z"
   id="path109"
   style="fill:#8e8e8e" />
            
            <path
   d="m 871,736 c 0,-0.3 0,-0.7 0,-1 -0.4,0 -0.5,0.1 -0.5,0.1 -0.7,2.8 -1.5,5.5 -2.5,7.9 0,2 0,4 0,6 0,0.3 0,0.7 0,1 1.3,-4.4 2.2,-9.1 3,-14 z"
   id="path111"
   style="fill:#9d9d9d" />
            
            <path
   d="m 867,755 c 0,-0.3 0,-0.7 0,-1 h -0.5 c 0.1,2.4 -0.4,4.2 -1.5,5 0,2.7 0,5.3 0,8 0,0.3 0,0.7 0,1 1.2,-3.8 1.9,-8.2 2,-13 z"
   id="path113"
   style="fill:#777777" />
            
            <path
   d="m 861,790 c 0,-0.3 0,-0.7 0,-1 h -0.5 c 0.1,6.8 -0.4,12.8 -1.5,18 0,0.3 0,0.7 0,1 0,0.3 0,0.7 0,1 0.4,0 0.6,0 1,0 0,-0.3 0,-0.7 0,-1 1.1,-5.2 1.5,-11.2 1,-18 z"
   id="path115"
   style="fill:#b1b1b1" />
            
            <path
   d="m 932,700 h -0.5 c 0.1,2.4 -0.4,4.2 -1.5,5 0,1 0,2 0,3 0,0.3 0,0.7 0,1 1.6,-1.7 2.3,-4.3 2,-8 0,-0.3 0,-0.7 0,-1 z"
   id="path117"
   style="fill:#818181" />
            
            <path
   d="m 913,767 c -0.4,0 -0.6,0 -1,0 0,2.7 0,5.3 0,8 0,0.3 0,0.7 0,1 1.1,-1.8 1.5,-4.5 1,-8 0,-0.3 0,-0.7 0,-1 z"
   id="path119"
   style="fill:#6f6f6f" />
            
            <path
   d="m 910.5,783 c 0.1,3.5 -0.4,6.2 -1.5,8 0,0.3 0,0.7 0,1 0,0.3 0,0.7 0,1 2,-1.3 2.8,-4 2.1,-8 -0.1,-0.3 -0.1,-0.7 -0.1,-1 0,-0.3 0,-0.7 0,-1 h -0.5 z"
   id="path121"
   style="fill:#858585" />
            
            <path
   d="m 911,776 c 0,2 0,4 0,6 0,0.3 0,0.7 0,1 0,0.3 0,0.7 0,1 1.1,-1.5 1.5,-3.8 1,-7 0,-0.3 0,-0.7 0,-1 -0.4,0 -0.6,0 -1,0 z"
   id="path123"
   style="fill:#8c8c8c" />
            
            <path
   d="m 991,423 c 0,0.4 0,0.6 0,1 0.4,0 0.6,-0.1 0.9,-0.2 2.9,-1.6 2.2,-2.8 -1.9,-3.8 1.5,1.8 2.1,2.7 2,2.8 -0.4,0.1 -0.6,0.2 -1,0.2 z"
   id="path125"
   style="fill:#9c9c9c" />
            
            <path
   d="m 991,424 c 0,-0.4 0,-0.6 0,-1 -0.4,0 -0.6,0 -1,0 0.5,2.6 1.2,4.9 2.4,6.8 0.1,0.1 0.2,0.2 0.6,0.2 0,-0.4 0,-0.6 -0.1,-1 -0.4,-1.9 -0.9,-3.6 -1.9,-5 z"
   id="path127"
   style="fill:#797979" />
            
            <path
   d="m 1012,457 c 0.1,-2.4 -1.2,-3.4 -4,-3 1.2,1.1 2.3,2.4 3.3,3.7 0.2,0.2 0.4,0.3 0.7,0.3 0,-0.4 0,-0.6 0,-1 z"
   id="path129"
   style="fill:#7a7a7a" />
            
            <path
   d="m 1009,461 c 0.4,0 0.7,0 1,0 0,-0.4 0,-0.6 -0.2,-0.6 -0.5,-0.3 -1.1,-0.4 -1.8,-0.4 0.1,5.2 0.6,10.2 1.5,14.9 0,0 0.2,0.1 0.5,0.1 0,-0.4 0,-0.6 0,-1 -0.4,-4.3 -0.7,-8.6 -1,-13 z"
   id="path131"
   style="fill:#959595" />
            
            <path
   d="m 1011.9,481 c -0.4,-2.1 -1.1,-4.1 -1.9,-6 -0.3,3.1 0.1,5.3 1.3,6.7 0.2,0.2 0.4,0.3 0.7,0.3 0,-0.4 0,-0.6 -0.1,-1 z"
   id="path133"
   style="fill:#838383" />
            
            <path
   d="m 1015.9,492 c -0.5,-2.4 -1.5,-4.4 -2.9,-6 0.3,2.7 1,5 2.3,6.7 0.2,0.2 0.4,0.3 0.7,0.3 0,-0.4 0,-0.6 -0.1,-1 z"
   id="path135"
   style="fill:#8b8b8b" />
            
            <path
   d="m 1019.9,512 c -0.6,-3.3 -1.6,-6.3 -2.9,-9 0.1,3.9 0.9,7.1 2.4,9.8 0.1,0.1 0.3,0.2 0.6,0.2 0,-0.4 0,-0.6 -0.1,-1 z"
   id="path137"
   style="fill:#939393" />
            
            <path
   d="m 1022,568 c 0,-0.4 0,-0.6 0,-1 0,-6 0,-12 0,-18 -0.3,0 -0.6,0 -1,0 0,6.4 0.2,12.6 0.5,18.9 0,0.1 0.2,0.1 0.5,0.1 z"
   id="path139"
   style="fill:#626262" />
            
            <path
   d="m 1019,584 c -0.3,0 -0.5,0 -0.5,0.1 -0.5,5.8 -1.4,10.1 -2.5,12.9 2.4,-0.1 3.5,-3.1 3.1,-9 0,-1.4 -0.1,-2.6 -0.1,-4 z"
   id="path141"
   style="fill:#959595" />
            
            <path
   d="m 1014,606 c -0.3,0 -0.6,0.1 -0.7,0.2 -1.2,1.2 -2.3,2.4 -3.3,3.8 0,0.4 0,0.6 0,1 0,0.4 0,0.6 0,1 3,1.9 4.4,0.1 4.1,-5 -0.1,-0.4 -0.1,-0.6 -0.1,-1 z"
   id="path143"
   style="fill:#757575" />
            
            <path
   d="m 1008,618 c -0.3,0 -0.5,0.1 -0.5,0.1 -0.5,1.8 -1.6,1.5 -3.5,-1.1 0.9,4.2 2.2,4.9 3.8,1.9 0.2,-0.3 0.2,-0.5 0.2,-0.9 z"
   id="path145"
   style="fill:#999999" />
            
            <path
   d="m 974,616 c 0,-0.4 0,-0.6 -0.1,-0.9 -0.8,-1.9 -2.4,-3 -4.9,-3.1 1.4,1.4 2.8,2.6 4.2,3.7 0.2,0.2 0.4,0.3 0.8,0.3 z"
   id="path147"
   style="fill:#929292" />
            
            <path
   d="m 328,181 c 0.4,0 0.6,0 1,0 0,-0.4 -0.1,-0.5 -0.2,-0.6 -1.4,-0.8 -2.9,-1.3 -4.8,-1.4 -0.4,0 -0.6,0 -1,0 -0.4,0 -0.6,0 -1,0 1.6,1 3.6,1.7 6,2 z"
   id="path149"
   style="fill:#848484" />
            
            <path
   d="m 348,183 c 0.4,0 0.6,0 1,0 0,-0.4 0,-0.6 0,-1 -0.4,0 -0.6,0 -1,0 -5.6,0 -11.4,0 -17,0 4.9,1.1 10.5,1.5 17,1 z"
   id="path151"
   style="fill:#858585" />
            
            <path
   d="m 359.8,185.4 c -3,-1.8 -6.7,-2.9 -10.8,-3.4 0,0.4 0,0.6 0,1 3.6,0.7 7,1.6 10.1,2.9 0.3,0.1 0.5,0.1 0.9,0.1 0,-0.4 -0.1,-0.5 -0.2,-0.6 z"
   id="path153"
   style="fill:#949494" />
            
            <path
   d="m 371.9,189.5 c -2.1,-0.9 -4.4,-1.4 -6.9,-1.5 1.4,1.4 3.4,2 6,2 0.4,0 0.6,0 1,0 0,-0.4 -0.1,-0.5 -0.1,-0.5 z"
   id="path155"
   style="fill:#8e8e8e" />
            
            <path
   d="m 461,210 v -0.5 c -6,0.2 -12,0.1 -18,-0.5 5.1,2.1 10.8,2.5 17,1.1 0.4,-0.1 0.6,-0.1 1,-0.1 z"
   id="path157"
   style="fill:#7b7b7b" />
            
            <path
   d="m 480,210 c -6.4,0 -12.6,0 -19,0 5.9,1.1 12.5,1.4 19.9,0.5 0.1,0 0.1,-0.1 0.1,-0.5 -0.4,0 -0.6,0 -1,0 z"
   id="path159"
   style="fill:#696969" />
            
            <path
   d="m 481,209 c 0,0.4 0,0.6 0,1 11.6,0 23.4,0 35,0 0.4,0 0.6,0 1,0 0,-0.4 0,-0.6 0,-1 -0.4,0 -0.6,0 -1,0 -11.6,0 -23.4,0 -35,0 z"
   id="path161"
   style="fill:#646464" />
            
            <path
   d="m 421.9,203.5 c -2.8,-1.1 -6.1,-1.6 -9.9,-1.5 2.6,1 5.6,1.7 9,2 0.4,0 0.6,0 1,0 0,-0.4 -0.1,-0.5 -0.1,-0.5 z"
   id="path163"
   style="fill:#999999" />
            
            <path
   d="m 640,202 c -0.4,0 -0.6,0 -1,0 -7.6,0 -15.4,0 -23,0 0,0.4 0,0.6 0,1 8,0 16,-0.1 24,-0.5 V 202 z"
   id="path165"
   style="fill:#808080" />
            
            <path
   d="m 607.9,204.5 c 0.1,0 0.1,-0.1 0.1,-0.5 -0.4,0 -0.6,0 -1,0 -1,0 -2,0 -3,0 -0.4,0 -0.6,0 -1,0 -2.4,0 -4.6,0 -7,0 3.1,1.1 7.1,1.4 11.9,0.5 z"
   id="path167"
   style="fill:#6b6b6b" />
            
            <path
   d="m 616,203 c -0.4,0 -0.6,0 -1,0 -3.6,0 -7.4,0 -11,0 0,0.4 0,0.6 0,1 1,0 2,0 3,0 0.4,0 0.6,0 1,0 2.6,0 5.3,-0.1 8,-0.5 0,0 0,-0.1 0,-0.5 z"
   id="path169"
   style="fill:#b3b3b3" />
            
            <path
   d="m 557,208 c -0.4,0 -0.6,0 -1,0 -12.2,1.1 -25.2,1.4 -39,1 0,0.4 0,0.6 0,1 14.1,0.5 27.4,0 40,-1.5 0,0 0,-0.1 0,-0.5 z"
   id="path171"
   style="fill:#5c5c5c" />
            
            <path
   d="m 246.1,59 c 0.2,-3 -0.4,-5 -2.1,-6 0.5,2.1 1,4.5 1.5,6.9 0,0.1 0.2,0.1 0.5,0.1 0,-0.4 0,-0.6 0.1,-1 z"
   id="path173"
   style="fill:#939393" />
            
            <path
   d="m 248,71 c 0,-0.4 0,-0.6 0,-1 0.2,-3.9 -0.5,-6.9 -2,-9 0.3,3.4 0.8,6.6 1.5,9.9 0,0.1 0.2,0.1 0.5,0.1 z"
   id="path175"
   style="fill:#7a7a7a" />
            
            <path
   d="m 227.2,13.8 c 0.2,0.2 0.5,0.2 0.8,0.2 0,-0.4 -0.1,-0.5 -0.2,-0.7 -3,-2.2 -7.2,-2.9 -12.8,-2.3 0,0.4 0,0.6 0,1 5.2,-0.5 9.3,0 12.2,1.8 z"
   id="path177"
   style="fill:#7c7c7c" />
            
            <path
   d="m 209,15 c -0.3,0 -0.6,0 -0.8,0.2 -1.5,0.8 -2.9,1.8 -4.2,2.8 0,0.4 0,0.6 0,1 0,0.4 0,0.6 0,1 1.7,-1.4 3.3,-2.8 4.8,-4.3 0.1,-0.1 0.2,-0.3 0.2,-0.7 z"
   id="path179"
   style="fill:#8e8e8e" />
            
            <path
   d="m 249,115 h -0.5 c 0.2,4.5 -0.3,8.1 -1.5,11 0,1.6 0,3.4 0,5 0,0.4 0,0.6 0,1 1.8,-4.1 2.5,-9.5 2.1,-16 -0.1,-0.4 -0.1,-0.6 -0.1,-1 z"
   id="path181"
   style="fill:#767676" />
            
            <path
   d="m 276,168.9 c 0.4,0.1 0.6,0.1 1,0.1 0,-0.4 -0.1,-0.5 -0.2,-0.6 -4.2,-2 -9,-3.2 -14.8,-3.4 4.4,1.5 9.1,2.9 14,3.9 z"
   id="path183"
   style="fill:#969696" />
            
            <path
   d="m 244,151 c -0.3,0 -0.7,0 -1,0 -1.1,4.7 0.3,7.1 4,7 0.3,0 0.7,0 1,0 v -0.5 c -3.6,0 -4.9,-2.3 -4,-6.5 z"
   id="path185"
   style="fill:#959595" />
            
            <path
   d="m 258,163 c 0,-0.4 -0.1,-0.6 -0.2,-0.8 -1.4,-1.3 -3.2,-2.1 -5.8,-2.2 1.3,1.3 3.1,2.2 5.1,2.9 0.3,0.1 0.5,0.1 0.9,0.1 z"
   id="path187"
   style="fill:#979797" />
            
            <path
   d="m 302.9,175.5 c -3.3,-0.4 -6.5,-0.5 -9.9,-0.5 2.1,1.1 5.1,1.5 9,1 0.4,0 0.6,0 1,0 0,-0.4 0,-0.5 -0.1,-0.5 z"
   id="path189"
   style="fill:#bdbdbd" />
            
            <path
   d="m 311,178 c 0.4,0 0.6,0 1,0 0,-0.4 -0.1,-0.5 -0.1,-0.5 -2.6,-1 -5.5,-1.5 -8.9,-1.5 2.2,1.1 4.9,1.8 8,2 z"
   id="path191"
   style="fill:#a3a3a3" />
            
            <path
   d="m 322,179 c 0.4,0 0.6,0 1,0 0.4,0 0.6,0 1,0 0,-0.4 0,-0.5 -0.1,-0.5 C 320,178.1 316,178 312,178 c 2.1,1.1 5.1,1.5 9,1 0.4,0 0.6,0 1,0 z"
   id="path193"
   style="fill:#a2a2a2" />
            
            <path
   d="m 119.1,95.1 c -2.7,0.6 -5.8,0.9 -9.1,0.9 2.8,1.5 5.8,1.5 9.1,0.1 0.2,-0.1 0.6,-0.1 0.9,-0.1 0,-0.4 0,-0.6 0,-1 -0.3,0 -0.7,0 -0.9,0.1 z"
   id="path195"
   style="fill:#a9a9a9" />
            
            <path
   d="m 120,95 c 0,0.4 0,0.6 0,1 2.3,0 4.7,0 7,0 0.3,0 0.7,0 1,0 0,-0.4 0,-0.5 0,-0.5 -2.7,-0.4 -5.3,-0.5 -8,-0.5 z"
   id="path197"
   style="fill:#6a6a6a" />
            
            <path
   d="M 48.8,15.3 C 47,14 44.8,13.2 42,13 c 1.6,1.4 3.6,2.4 6,2.9 0.4,0.1 0.6,0.1 1,0.1 0,-0.4 -0.1,-0.5 -0.2,-0.7 z"
   id="path199"
   style="fill:#888888" />
            
            <path
   d="m 68,32 c 0,-0.4 0,-0.6 -0.2,-0.9 -0.8,-1.9 -2,-3.2 -3.8,-4.1 0.6,2 1.7,3.6 3.2,4.7 0.2,0.2 0.5,0.3 0.8,0.3 z"
   id="path201"
   style="fill:#929292" />
            
            <path
   d="M 25.1,2.9 C 25.4,3 25.6,3 26,3 26,2.6 25.9,2.5 25.8,2.4 22.4,1 18.8,0.8 15,2 c 0,0.4 0,0.6 0,1 3.6,-1 7,-1 10.1,-0.1 z"
   id="path203"
   style="fill:#989898" />
            
            <path
   d="M 7,12 C 6.7,12 6.5,12 6.5,12.1 5.8,14.4 5,16.4 4,18 c 0,1.4 0,2.6 0,4 0,0.4 0,0.6 0,1 C 5.3,20 6.3,16.6 6.9,13 7,12.6 7,12.4 7,12 z"
   id="path205"
   style="fill:#909090" />
            
            <path
   d="m 3,29 c 0,-0.4 0,-0.6 0,-1 -0.4,0 -0.6,0 -1,0 0,2.4 0,4.6 0,7 0,0.4 0,0.6 0,1 1.1,-1.5 1.5,-3.9 1,-7 z"
   id="path207"
   style="fill:#5b5b5b" />
            
            <path
   d="M 0.6,58.9 C 1.4,55.5 1.1,52.9 0,51 c 0,2.4 0,4.6 0,7 0,0.4 0,0.6 0,1 0.3,0 0.5,0 0.6,-0.1 z"
   id="path209"
   style="fill:#949494" />
            
            <path
   d="m 1.1,73 c 0.4,-4.1 0,-7.5 -1.1,-10 0,3.4 0,6.6 0,10 0,0.4 0,0.6 0,1 0.3,0 0.7,0 1,0 0,-0.4 0,-0.6 0.1,-1 z"
   id="path211"
   style="fill:#acacac" />
            
            <path
   d="m 1,74 c -0.3,0 -0.7,0 -1,0 0,10.6 0,21.4 0,32 0,0.4 0,0.6 0,1 0.3,0 0.7,0 1,0 0,-0.4 0,-0.6 0,-1 C 1,95.4 1,84.6 1,74 z"
   id="path213"
   style="fill:#ececec" />
            
            <path
   d="m 1,107 c -0.3,0 -0.7,0 -1,0 0,59.6 0,119.4 0,179 0,59.6 0,119.4 0,179 0,59.6 0,119.4 0,179 0,59.7 0,119.3 0,179 0,24.4 0,48.6 0,73 59.6,0 119.3,0 179,0 36,0 72,0 108,0 0,-0.3 -0.1,-0.5 -0.1,-0.6 -6.1,-1.4 -12.1,-2.9 -17.9,-4.4 0,-0.3 -0.1,-0.6 -0.2,-0.8 -3.7,-3.6 -7,-7.6 -9.8,-12.2 h -0.5 c 1.4,-7.4 -0.1,-11.6 -4.5,-13 0,0.4 0,0.5 -0.1,0.5 -6.1,0.9 -11.4,0.6 -15.9,-0.5 -0.3,0 -0.7,0 -1,0.1 -3.5,0.4 -6.2,0 -8,-1.1 0,-0.4 -0.1,-0.5 -0.2,-0.7 -5.4,-4.1 -9.6,-9.2 -12.8,-15.3 -0.3,0 -0.5,0 -0.5,0 -0.3,-5.4 -0.5,-10.6 -0.5,-16 0.3,0 0.7,0 1,0 1.5,-1.5 2.2,-3.8 2,-7 0,-0.3 0,-0.7 0,-1 2.3,-2.8 4.5,-5.5 6.8,-8.2 0.1,-0.2 0.2,-0.5 0.2,-0.8 0,-0.3 0,-0.7 0,-1 1.4,-1.2 3.4,-1.8 6,-2 0.3,0 0.7,0 1,0 0,-0.3 0,-0.7 0,-1 1.9,-0.8 4.3,-1.1 7,-1 0.3,0 0.7,0 1,0 8.5,-3.3 17.1,-5.2 26,-5.5 V 804 c 0,-0.3 0,-0.7 0,-1 0,-2.3 0,-4.7 0,-7 0.4,0 0.6,0 1,0 1.2,-3.8 1.9,-7.8 2.1,-12.1 0.8,-15.1 1.2,-29.7 1.4,-43.9 0.3,-18.9 -2.2,-36.3 -7.5,-52 0.4,0 0.6,0 1,0 0,-0.3 0,-0.7 0,-1 0,-2.3 0,-4.7 0,-7 -0.4,0 -0.5,0 -0.5,-0.1 -0.4,-2.6 -0.5,-5.2 -0.5,-7.9 0.4,0 0.6,0 1,0 0,-0.3 0,-0.7 0,-1 0,-4.7 0,-9.3 0,-14 -0.4,0 -0.5,0 -0.5,-0.1 -0.9,-11.6 -2.1,-23 -3.5,-33.9 0,-0.4 0,-0.6 0,-1 0,-2.4 0,-4.6 0,-7 0,-0.4 0,-0.6 0,-1 -0.1,-3.9 -0.8,-7.2 -2,-10 -0.4,0 -0.5,0 -0.5,-0.1 C 257.1,599 257,594 257,589 c 0.4,0 0.6,0 1,0 0,-0.4 0,-0.6 0,-1 0.4,-0.4 0.6,-0.7 0.8,-1.1 0.1,-0.3 0.2,-0.5 0.2,-0.9 -0.4,0 -0.5,0 -0.5,-0.1 -0.4,-3.3 -0.5,-6.5 -0.5,-9.9 0.4,0 0.6,0 1,0 0.4,0 0.5,0 0.5,-0.1 0.9,-10.2 0.1,-18.8 -2.5,-25.9 -0.4,0 -0.5,-0.1 -0.6,-0.1 -0.3,-1 -0.4,-1.9 -0.4,-2.9 1.1,-1.2 1.5,-3.2 1.1,-6 -0.1,-0.4 -0.1,-0.6 -0.1,-1 -0.4,0 -0.5,0 -0.5,-0.1 -0.4,-2.6 -0.5,-5.3 -0.5,-7.9 0.4,0 0.6,0 1,0 0.4,0 0.5,-0.1 0.5,-0.1 0.6,-3.5 0.1,-6.2 -1.5,-7.9 -0.3,0 -0.5,-0.1 -0.6,-0.1 -1.1,-3.1 -1.6,-6.8 -1.4,-10.9 0,-0.4 -0.1,-0.6 -0.1,-1 -2.2,-11.7 -5.2,-22.7 -8.9,-33 0,-0.4 0,-0.6 -0.1,-1 -1.1,-8.4 -3.1,-17.4 -5.9,-27 -0.3,0 -0.6,-0.1 -0.6,-0.2 -0.8,-1.7 -2,-2.9 -3.4,-3.8 0,-0.4 0,-0.6 -0.1,-1 -0.3,-4.6 -1,-8.9 -1.9,-13 -0.3,0 -0.6,-0.1 -0.6,-0.2 -1.5,-2.7 -3.2,-4.9 -5.4,-6.8 0,-0.4 -0.1,-0.6 -0.2,-0.9 -0.7,-2.6 -1.3,-5.2 -1.8,-8.1 -0.3,0 -0.6,-0.1 -0.7,-0.3 -18.5,-27.8 -38.6,-54.1 -60.3,-78.7 0,-0.4 -0.1,-0.6 -0.2,-0.9 -5.9,-9.7 -11.8,-19.5 -17.8,-29.1 -5.8,2.2 -10.2,6 -13.1,11.4 -7.7,14.2 -19.7,24.5 -35.9,30.6 -0.3,0 -0.6,0 -0.8,-0.2 -2.9,-1.8 -5.3,-4.1 -7.2,-6.8 -0.3,0 -0.6,-0.1 -0.8,-0.3 -2,-1.3 -4,-1.2 -6.2,0.3 0,0.4 0,0.5 -0.2,0.6 -4.6,2.4 -10.5,1.9 -17.8,-1.6 0,-0.4 0,-0.6 -0.2,-0.9 -2.8,-4.9 -6,-9.2 -9.8,-13.1 0,-0.4 0,-0.6 -0.1,-1 -1,-2.9 -2,-5.9 -2.9,-9 -0.4,0 -0.5,0 -0.5,-0.1 -0.7,-3.5 -1.2,-7.2 -1.5,-10.9 0,-0.4 0,-0.6 0,-1 0,-0.6 0,-1.4 0,-2 0,-0.4 0,-0.6 0,-1 0,-4.4 0,-8.6 0,-13 0.4,0 0.6,0 1,0 0.3,-2.3 -0.2,-3.5 -1.4,-4 -7.8,-2.9 -12.1,-9.2 -12.6,-19 -0.4,0 -0.5,-0.1 -0.6,-0.3 -3,-4.1 -6.1,-8 -9.4,-11.7 -0.4,0 -0.6,0 -0.6,-0.2 -1,-1.8 -1.8,-3.8 -2.4,-5.8 0,-0.4 -0.1,-0.5 -0.2,-0.7 -5,-3.8 -8.6,-8.8 -10.8,-15.3 h -0.5 c 0.9,-6.5 -0.2,-11.9 -3.5,-16 4.8,2 7.1,1 7,-3 0,-0.4 0,-0.6 0,-1 -0.3,0 -0.6,-0.1 -0.6,-0.3 -1.3,-1.7 -1.7,-4.3 -1.4,-7.7 0.4,0 0.7,0 1,0 0.4,0 0.7,0 1,0 h 0.5 c -0.1,-2 -0.8,-3.3 -2.5,-4 -0.3,0 -0.6,0 -0.9,-0.1 -1.2,-0.5 -1.5,-1.8 -1.1,-3.9 1.4,-0.6 2.7,-1.3 4.1,-1.9 0.3,-0.1 0.6,-0.1 0.9,-0.1 0,-0.4 0,-0.6 0.1,-1 0.5,-5.6 0.2,-10.3 -1.1,-14 0.4,0 0.5,0 0.6,-0.2 5.5,-13.4 5,-26.3 -1.6,-38.8 -0.3,0 -0.5,0 -0.5,-0.1 -0.5,-2.4 -1,-4.8 -1.5,-6.9 -0.3,0 -0.5,0 -0.6,-0.1 C 10.1,129.6 8.3,126 6,123 5.7,123 5.5,123 5.5,122.9 4.7,120.8 4.2,118.5 4,116 3.6,116 3.5,116 3.5,116 3.1,112.4 2.3,109.4 1,107 z"
   id="path215"
   style="fill:#fefefe" />
            
            <path
   d="m 6,122 c 0,-2.6 -0.7,-4.6 -2,-6 0.2,2.5 0.7,4.8 1.5,6.9 0,0.1 0.2,0.1 0.5,0.1 0,-0.4 0,-0.6 0,-1 z"
   id="path217"
   style="fill:#858585" />
            
            <path
   d="m 14.1,140 c 0.2,-3 -0.4,-5 -2.1,-6 0.5,2.1 1,4.5 1.5,6.9 0,0.1 0.2,0.1 0.5,0.1 0,-0.4 0,-0.6 0.1,-1 z"
   id="path219"
   style="fill:#888888" />
            
            <path
   d="m 15.1,195.1 c -1.4,0.6 -2.7,1.3 -4.1,1.9 -0.4,2.1 -0.1,3.4 1.1,3.9 0.3,0.1 0.6,0.1 0.9,0.1 0,-0.4 -0.1,-0.5 -0.1,-0.5 -1,-0.3 -1.3,-1 -0.9,-2.5 1.4,-0.6 2.6,-1.5 3.8,-2.3 0.1,-0.2 0.2,-0.3 0.2,-0.7 -0.3,0 -0.6,0 -0.9,0.1 z"
   id="path221"
   style="fill:#787878" />
            
            <path
   d="m 15,205 c -0.3,0 -0.6,0 -1,0 -0.3,0 -0.6,0 -1,0 -0.3,3.4 0.1,6 1.4,7.7 0,0.2 0.3,0.3 0.6,0.3 0,-0.4 -0.1,-0.6 -0.2,-0.9 -0.9,-1.5 -1.1,-3.5 -0.8,-6.1 0.4,0 0.6,-0.1 0.8,-0.3 0.1,-0.1 0.2,-0.3 0.2,-0.7 z"
   id="path223"
   style="fill:#9c9c9c" />
            
            <path
   d="m 25.9,254 c -0.1,-2.5 -1,-4.1 -2.9,-5 0.6,2 1.4,4 2.4,5.8 0,0.2 0.2,0.2 0.6,0.2 0,-0.4 0,-0.6 -0.1,-1 z"
   id="path225"
   style="fill:#878787" />
            
            <path
   d="m 50,290 c -0.4,0 -0.6,0 -1,0 0,4.4 0,8.6 0,13 0,0.4 0,0.6 0,1 1.1,-3.5 1.5,-7.9 1,-13 0,-0.4 0,-0.6 0,-1 z"
   id="path227"
   style="fill:#838383" />
            
            <path
   d="m 51,317 c 0,-4 -0.6,-7.4 -2,-10 0.3,3.7 0.8,7.4 1.5,10.9 0,0.1 0.1,0.1 0.5,0.1 0,-0.4 0,-0.6 0,-1 z"
   id="path229"
   style="fill:#8d8d8d" />
            
            <path
   d="m 256,524 c 0,-0.4 0,-0.6 -0.1,-1 -0.2,-3.6 -0.9,-7 -1.9,-10 -0.2,4.1 0.3,7.8 1.4,10.9 0.1,0 0.3,0.1 0.6,0.1 z"
   id="path231"
   style="fill:#686868" />
            
            <path
   d="m 257,532 c -0.4,0 -0.6,0 -1,0 0,2.6 0.1,5.3 0.5,7.9 0,0.1 0.1,0.1 0.5,0.1 0,-0.4 0,-0.6 0,-1 0,-2.4 0,-4.6 0,-7 z"
   id="path233"
   style="fill:#959595" />
            
            <path
   d="m 257,540 c 0,0.4 0,0.6 0.1,1 0.4,2.8 0,4.8 -1.1,6 0,1 0.1,1.9 0.4,2.9 0.1,0 0.2,0.1 0.6,0.1 0,-0.4 0.1,-0.6 0.2,-0.9 1.4,-3.2 1.4,-6.2 -0.2,-9.1 z"
   id="path235"
   style="fill:#979797" />
            
            <path
   d="m 259,576 c -0.4,0 -0.6,0 -1,0 0,3.4 0.1,6.6 0.5,9.9 0,0.1 0.1,0.1 0.5,0.1 0,-0.4 0,-0.6 0,-1 0,-3 0,-6 0,-9 z"
   id="path237"
   style="fill:#bfbfbf" />
            
            <path
   d="m 258,589 c -0.4,0 -0.6,0 -1,0 0,5 0.1,10 0.5,14.9 0,0.1 0.1,0.1 0.5,0.1 0,-0.4 0,-0.6 0,-1 0,-4.6 0,-9.4 0,-14 z"
   id="path239"
   style="fill:#a6a6a6" />
            
            <path
   d="m 260.6,622.9 c 0.8,-3.4 0.5,-6 -0.6,-7.9 0,2.4 0,4.6 0,7 0,0.4 0,0.6 0,1 0.4,0 0.5,-0.1 0.6,-0.1 z"
   id="path241"
   style="fill:#696969" />
            
            <path
   d="m 264,680 c 0,-0.3 0,-0.7 0,-1 0,-2.3 0,-4.7 0,-7 -0.4,0 -0.6,0 -1,0 0,2.7 0.1,5.3 0.5,7.9 0,0.1 0.1,0.1 0.5,0.1 z"
   id="path243"
   style="fill:#636363" />
            
            <path
   d="m 264,672 c 0.4,0 0.5,0 0.5,-0.1 0.9,-5.7 0.6,-10.7 -0.5,-14.9 0,4.7 0,9.3 0,14 0,0.3 0,0.7 0,1 z"
   id="path245"
   style="fill:#6c6c6c" />
            
            <path
   d="m 264,687 c 0,0.3 0,0.7 0,1 0.4,0 0.5,-0.1 0.6,-0.1 0.8,-3.4 0.5,-6.1 -0.6,-7.9 0,2.3 0,4.7 0,7 z"
   id="path247"
   style="fill:#686868" />
            
            <path
   d="m 632,487.5 c -7.6,-0.6 -14.5,-0.4 -21,0.5 0,0.4 0,0.6 0,1 6.2,-0.8 12.9,-1.1 20,-1 0.4,0 0.6,0 1,0 0,-0.4 0,-0.5 0,-0.5 z"
   id="path249"
   style="fill:#838383" />
            
            <path
   d="m 550,498 c -0.4,0 -0.6,0 -1,0 -8.6,0 -17.4,0 -26,0 0,0.4 0,0.6 0,1 9,0 18,-0.1 27,-0.5 V 498 z"
   id="path251"
   style="fill:#696969" />
            
            <path
   d="m 555,496 c 0,0.4 0,0.6 0,1 5.6,-0.8 11.6,-1.3 18,-1.5 V 495 c -0.4,0 -0.6,0 -1,0 -6.1,-0.1 -11.8,0.2 -17,1 z"
   id="path253"
   style="fill:#9f9f9f" />
            
            <path
   d="m 504,499 c -0.4,0 -0.6,0 -1,0 -8.4,0 -16.6,0 -25,0 7.5,1.1 15.9,1.5 25,1.1 0.4,-0.1 0.6,-0.1 1,-0.1 0,-0.4 0,-0.6 0,-1 z"
   id="path255"
   style="fill:#454545" />
            
            <path
   d="m 522,499 c -6,0 -12,0 -18,0 0,0.4 0,0.6 0,1 6.4,0 12.6,-0.1 19,-0.5 0,0 0,-0.1 0,-0.5 -0.4,0 -0.6,0 -1,0 z"
   id="path257"
   style="fill:#a5a5a5" />
            
            <path
   d="m 399,512 c 0,0.4 0,0.6 0,1 8.1,0.9 16.4,1.4 25,1.5 V 514 c -0.4,0 -0.6,0 -1,-0.1 -8,-0.6 -16,-1.3 -24,-1.9 z"
   id="path259"
   style="fill:#9b9b9b" />
            
            <path
   d="m 391.5,522 c 0.1,2.4 -0.4,4.1 -1.5,5 0,1.4 0,2.6 0,4 0,0.4 0,0.6 0,1 1.5,-2.1 2.1,-5.1 2,-9 0,-0.4 0,-0.6 0,-1 h -0.5 z"
   id="path261"
   style="fill:#7e7e7e" />
            
            <path
   d="m 390,532 h -0.5 c 0.1,2.1 -0.4,3.4 -1.5,4 0,1 0,2 0,3 0,0.4 0,0.6 0,1 1.5,-1.5 2.1,-3.9 2,-7 0,-0.4 0,-0.6 0,-1 z"
   id="path263"
   style="fill:#8f8f8f" />
            
            <path
   d="m 380,589 c -0.4,0 -0.6,0 -1,0 0,2.4 0,4.6 0,7 0,0.4 0,0.6 0,1 1.1,-1.2 1.5,-3.2 1.1,-6 -0.1,-0.4 -0.1,-0.6 -0.1,-1 0,-0.4 0,-0.6 0,-1 z"
   id="path265"
   style="fill:#a2a2a2" />
            
            <path
   d="m 381,579 c -0.4,0 -0.6,0 -1,0 0,3 0,6 0,9 0,0.4 0,0.6 0,1 0,0.4 0,0.6 0,1 1.1,-2.5 1.5,-5.9 1.1,-10 -0.1,-0.4 -0.1,-0.6 -0.1,-1 z"
   id="path267"
   style="fill:#a3a3a3" />
            
            <path
   d="m 476.9,498.5 c -2.6,-0.4 -5.3,-0.5 -7.9,-0.5 0,0.4 0,0.6 0,1 2.4,0 4.6,0 7,0 0.4,0 0.6,0 1,0 0,-0.4 0,-0.5 -0.1,-0.5 z"
   id="path269"
   style="fill:#595959" />
            
            <path
   d="m 379.1,598 c -0.1,-0.4 -0.1,-0.6 -0.1,-1 -0.4,0 -0.6,0 -1,0 0,6.4 0,12.6 0,19 0,0.4 0,0.6 0,1 1.1,-5.5 1.5,-11.9 1.1,-19 z"
   id="path271"
   style="fill:#afafaf" />
            
            <path
   d="m 375,640 c -0.4,0 -0.6,0 -1,0 0,3.3 0.1,6.7 0.5,9.9 0,0.1 0.1,0.1 0.5,0.1 0,-0.3 0,-0.7 0,-1 0,-3 0,-6 0,-9 z"
   id="path273"
   style="fill:#4a4a4a" />
            
            <path
   d="m 375,680 c 0,-0.3 0,-0.7 0,-1 0,-2.3 0,-4.7 0,-7 -0.4,0 -0.6,0 -1,0 0,2.3 0,4.7 0,7 0,0.3 0,0.7 0,1 0.4,0 0.6,0 1,0 z"
   id="path275"
   style="fill:#a5a5a5" />
            
            <path
   d="m 375,680 c -0.4,0 -0.6,0 -1,0 0,4.7 0,9.3 0,14 0,0.3 0,0.7 0,1 1.1,-3.8 1.5,-8.5 1.1,-14 -0.1,-0.3 -0.1,-0.7 -0.1,-1 z"
   id="path277"
   style="fill:#6a6a6a" />
            
            <path
   d="m 374,696 c -0.4,0 -0.6,0 -1,0 0,5.3 0,10.7 0,16 0,0.3 0,0.7 0,1 0.4,0 0.6,0 1,0 0,-0.3 0,-0.7 0,-1 0,-5.3 0,-10.7 0,-16 z"
   id="path279"
   style="fill:#525252" />
            
            <path
   d="m 374.1,714 c -0.1,-0.3 -0.1,-0.7 -0.1,-1 -0.4,0 -0.6,0 -1,0 0,0.3 0,0.7 0.1,1 0.4,3.8 0,6.8 -1.1,9 0,0.3 0,0.7 0,1 0,0.3 0,0.7 0,1 0.4,0 0.6,0 1,0 0,-0.3 0,-0.7 0,-1 1.1,-2.5 1.5,-5.8 1.1,-10 z"
   id="path281"
   style="fill:#737373" />
            
            <path
   d="m 373.1,726 c -0.1,-0.3 -0.1,-0.7 -0.1,-1 -0.4,0 -0.6,0 -1,0 0,0.3 0.1,0.7 0.1,1 0.4,2.4 0,4.2 -1.1,5 0,1.3 0,2.7 0,4 0,0.3 0,0.7 0,1 0.4,0 0.6,0 1,0 0,-0.3 0,-0.7 0,-1 0,-1 0,-2 0,-3 1.1,-1.2 1.5,-3.2 1.1,-6 z"
   id="path283"
   style="fill:#838383" />
            
            <path
   d="m 372,736 c -0.4,0 -0.6,0 -1,0 0,7.3 0,14.7 0,22 0,0.3 0,0.7 0,1 0.4,0 0.6,0 1,0 0,-0.3 0,-0.7 0,-1 0,-7.3 0,-14.7 0,-22 z"
   id="path285"
   style="fill:#9a9a9a" />
            
            <path
   d="m 373,766 c 0,-0.3 0,-0.7 0.1,-1 0.2,-2.7 -0.2,-4.7 -1.1,-6 -0.4,0 -0.6,0 -1,0 0.8,1.9 1.3,4.2 1.5,6.9 0,0.1 0.1,0.1 0.5,0.1 z"
   id="path287"
   style="fill:#858585" />
            
            <path
   d="m 371.1,782 c -0.1,-0.3 -0.1,-0.7 -0.1,-1 -0.4,0 -0.6,0 -1,0 0,4.3 0,8.7 0,13 0,0.3 0,0.7 0,1 1.1,-3.5 1.5,-7.8 1.1,-13 z"
   id="path289"
   style="fill:#bbbbbb" />
            
            <path
   d="m 369,817 c 0,0.3 0,0.7 0,1 0.4,0 0.5,0 0.5,0 0.9,-5.5 0.6,-10.2 -0.5,-14 0,4.3 0,8.7 0,13 z"
   id="path291"
   style="fill:#d3d3d3" />
            
            <path
   d="m 267,796 c -0.4,0 -0.6,0 -1,0 0,2.3 0,4.7 0,7 0,0.3 0,0.7 0,1 1.1,-1.5 1.5,-3.8 1.1,-7 -0.1,-0.3 -0.1,-0.7 -0.1,-1 z"
   id="path293"
   style="fill:#979797" />
            
            <path
   d="m 254,865 c -0.3,0 -0.7,0 -1,0 -5,0 -10,0 -15,0 4.5,1.1 9.8,1.4 15.9,0.5 0.1,0 0.1,-0.1 0.1,-0.5 z"
   id="path295"
   style="fill:#6d6d6d" />
            
            <path
   d="m 259.1,877.1 c 1.9,-8 0.2,-12.4 -5.1,-13.1 0,0.4 0,0.6 0,1 4.4,1.4 5.9,5.6 4.5,13 h 0.5 c 0,-0.4 0.1,-0.6 0.1,-0.9 z"
   id="path297"
   style="fill:#b3b3b3" />
            
            <path
   d="m 232,811 c 0,0.3 0,0.7 0,1 2.4,-0.6 5.1,-1.1 7.9,-1.5 0.1,0 0.1,-0.2 0.1,-0.5 -0.3,0 -0.7,0 -1,0 -2.7,-0.1 -5.1,0.2 -7,1 z"
   id="path299"
   style="fill:#7d7d7d" />
            
            <path
   d="m 231.8,812.5 c 0.1,0 0.2,-0.2 0.2,-0.5 -0.3,0 -0.7,0 -1,0 -2.6,0.2 -4.6,0.8 -6,2 0,0.3 0,0.7 0,1 2.1,-0.9 4.4,-1.7 6.8,-2.5 z"
   id="path301"
   style="fill:#848484" />
            
            <path
   d="m 216,832 c -0.3,0 -0.7,0 -1,0 0,5.4 0.2,10.6 0.5,16 0,0 0.2,0 0.5,0 0,-0.4 0,-0.6 0,-1 0,-5 0,-10 0,-15 z"
   id="path303"
   style="fill:#595959" />
            
            <path
   d="M 237.9,864.5 C 235,864.1 232,864 229,864 c 1.8,1.1 4.5,1.5 8,1.1 0.3,-0.1 0.7,-0.1 1,-0.1 0,-0.4 0,-0.5 -0.1,-0.5 z"
   id="path305"
   style="fill:#808080" />
            
            <path
   d="m 859,809 c 0,1 0,1.5 0,1.5 -10.8,0.5 -20.8,1.3 -30,2.5 0,0.3 0,0.7 0,1 10.5,-0.5 20.7,-1.7 30.8,-3.5 0.2,0 0.2,-0.5 0.2,-1.5 -0.4,0 -0.6,0 -1,0 z"
   id="path307"
   style="fill:#a1a1a1" />
            
            <path
   d="m 822,822 c -0.4,0 -0.5,0 -0.6,0.2 -0.6,1.2 -1.4,2.1 -2.4,2.8 0,0.7 0,1.3 0,2 0,0.3 0,0.7 0,1 1.3,-1.3 2.3,-3 2.9,-5 0.1,-0.3 0.1,-0.7 0.1,-1 z"
   id="path309"
   style="fill:#8b8b8b" />
            
            <path
   d="m 817.1,835.2 c -0.4,0.2 -0.7,0.4 -1.1,0.8 0,2 0,4 0,6 0,0.4 0,0.6 0,1 0.4,0 0.6,0 1,0 0,-0.4 0,-0.6 0,-1 0,-1.6 0,-3.4 0,-5 0.4,-0.4 0.6,-0.7 0.8,-1.1 0.2,-0.3 0.2,-0.5 0.2,-0.9 -0.4,0 -0.6,0 -0.9,0.2 z"
   id="path311"
   style="fill:#a4a4a4" />
            
            <path
   d="m 817,843 c -0.4,0 -0.6,0 -1,0 -0.5,4.5 0,8 1.4,10.8 0.1,0.2 0.2,0.2 0.6,0.2 0,-0.4 0,-0.6 -0.1,-1 -1,-2.5 -1.3,-5.9 -0.9,-10 z"
   id="path313"
   style="fill:#858585" />
            
            <path
   d="m 699,829 c 0,-0.3 0,-0.5 0,-0.5 -4.4,-0.3 -8.6,-0.5 -13,-0.5 0.2,1.2 1.2,1.5 3,1.1 0.4,-0.1 0.6,-0.1 1,-0.1 2.6,0 5.4,0 8,0 0.4,0 0.6,0 1,0 z"
   id="path315"
   style="fill:#5e5e5e" />
            
            <path
   d="m 698,829 c -2.6,0 -5.4,0 -8,0 2.5,1.2 5.9,1.5 10,1 0.4,0 0.6,0 1,0 0,-0.3 0,-0.5 -0.2,-0.6 -0.5,-0.2 -1.2,-0.4 -1.8,-0.4 -0.4,0 -0.6,0 -1,0 z"
   id="path317"
   style="fill:#c4c4c4" />
            
            <path
   d="m 661.5,794 c 0.1,1.4 -0.4,2.1 -1.5,2 -0.7,7.7 0.1,14 2.4,18.8 0.1,0.2 0.2,0.2 0.6,0.2 0,-0.3 0,-0.7 -0.2,-1 -1.8,-4.3 -2.4,-10 -1.8,-17 1.1,0.1 1.5,-0.6 1.1,-2.1 -0.1,-0.2 -0.1,-0.6 -0.1,-0.9 h -0.5 z"
   id="path319"
   style="fill:#979797" />
            
        </g>
        
    </g>
    
</svg>