<?xml version="1.0" encoding="UTF-8" standalone="no"?>
<!-- Created with Inkscape (http://www.inkscape.org/) -->

<svg
   xmlns:svg="http://www.w3.org/2000/svg"
   xmlns="http://www.w3.org/2000/svg"
   version="1.1"
   width="437.207"
   height="239.356"
   viewBox="-33.997 -136.992 437.207 239.356"
   id="svg2"
   xml:space="preserve"><defs
   id="defs23" />
<g
   transform="translate(-78.151395,-344.69501)"
   id="g3161">
	<path
   d="m 158.655,281.742 c -29.596,-8.631 -44.049,-10.8 -44.049,-6.607 0,4.193 0.602,8.89 1.835,14.316 1.233,5.426 3.16,10.846 5.873,16.518 2.713,5.673 4.64,10.491 5.874,14.683 1.233,4.193 1.714,8.288 1.468,12.48 -0.247,4.192 -2.054,8.047 -5.506,11.746 -3.453,3.7 -7.548,6.952 -12.481,9.911 -4.932,2.96 -8.425,5.128 -10.645,6.607 -2.22,1.479 -3.304,4.491 -3.304,9.177 0,4.686 0.482,10.588 1.469,17.987 0.986,7.398 2.191,12.819 3.67,16.518 1.48,3.7 2.685,6.952 3.671,9.911 0.987,2.96 1.468,5.128 1.468,6.607 0,1.479 1.566,3.046 4.772,4.772 3.206,1.726 5.856,2.81 8.076,3.304 2.22,0.493 4.508,0.252 6.974,-0.734 2.467,-0.986 4.273,-1.469 5.507,-1.469 1.233,0 1.835,-1.205 1.835,-3.67 0,-2.467 -0.723,-4.515 -2.203,-6.24 -1.479,-1.728 -3.406,-3.172 -5.873,-4.405 -2.466,-1.233 -4.273,-3.16 -5.506,-5.873 -1.233,-2.713 -1.835,-6.567 -1.835,-11.747 0,-5.179 2.288,-10.357 6.974,-15.784 4.687,-5.426 11.07,-9.762 19.455,-13.215 8.386,-3.452 16.214,-7.427 23.86,-12.113 7.645,-4.686 13.306,-9.745 17.252,-15.417 3.946,-5.672 6.958,-11.574 9.177,-17.987 2.22,-6.412 3.786,-12.314 4.772,-17.986 0.987,-5.672 -12.985,-12.658 -42.58,-21.29 z"
   id="path7"
   style="stroke:#000000" />
	<path
   d="m 240.145,314.045 c 0,5.672 -0.482,12.538 -1.468,20.923 -0.987,8.385 -2.552,16.094 -4.771,23.492 -2.22,7.399 -3.545,11.855 -4.038,13.582 -0.493,1.727 0.591,5.219 3.304,10.646 2.713,5.426 6.085,11.207 10.278,17.619 4.192,6.413 8.288,9.905 12.479,10.645 4.193,0.74 7.084,1.945 8.81,3.671 1.727,1.728 2.569,3.533 2.569,5.506 0,1.974 -0.24,3.539 -0.733,4.772 -0.494,1.233 -1.337,2.077 -2.57,2.569 -1.232,0.494 -2.678,0.734 -4.404,0.734 -1.726,0 -4.015,0 -6.974,0 -2.96,0 -5.61,0 -8.076,0 -2.466,0 -4.273,-1.565 -5.506,-4.771 -1.233,-3.206 -3.281,-6.819 -6.24,-11.012 -2.96,-4.193 -7.537,-9.132 -13.949,-15.051 -6.413,-5.919 -11.23,-11.219 -14.683,-16.15 -3.453,-4.934 -5.139,-8.668 -5.139,-11.381 0,-2.713 0,-6.084 0,-10.277 0,-4.192 -0.603,-8.288 -1.836,-12.48 -1.233,-4.193 -3.16,-8.168 -5.873,-12.113 -2.713,-3.946 -3.074,-9.728 -1.101,-17.619 1.973,-7.893 10.645,-11.747 26.429,-11.747 15.784,-0.001 23.492,2.77 23.492,8.442 z"
   id="path9"
   style="stroke:#000000" />
	<path
   d="m 323.838,340.842 c -10.853,-7.893 -17.356,-10.783 -19.822,-8.81 -2.467,1.974 -3.671,4.502 -3.671,7.708 0,3.206 1.204,7.182 3.671,12.114 2.466,4.932 5.598,11.315 9.544,19.454 3.946,8.139 7.921,15.968 12.112,23.859 4.193,7.893 7.687,14.879 10.646,21.291 2.96,6.412 5.249,11.351 6.976,15.051 1.726,3.698 2.689,6.59 2.936,8.809 0.247,2.22 1.572,3.424 4.037,3.671 2.467,0.247 4.756,0.488 6.977,0.734 2.219,0.247 3.543,0.127 4.037,-0.367 0.494,-0.493 1.336,-0.252 2.568,0.733 1.234,0.987 2.92,1.47 5.141,1.47 2.219,0 3.303,-0.482 3.303,-1.47 0,-0.985 0.602,-1.588 1.836,-1.834 1.232,-0.248 1.955,-1.211 2.201,-2.938 0.248,-1.727 0.127,-3.773 -0.367,-6.24 -0.492,-2.466 -1.576,-3.911 -3.303,-4.404 -1.727,-0.494 -3.895,-0.734 -6.607,-0.734 -2.712,0 -4.881,-1.445 -6.607,-4.405 -1.727,-2.959 -4.016,-8.62 -6.975,-17.252 -2.959,-8.632 -5.609,-16.22 -8.075,-23.126 -2.466,-6.906 -4.151,-12.205 -5.14,-16.15 -0.985,-3.947 -1.106,-7.439 -0.366,-10.646 0.737,-3.206 -4.2,-8.627 -15.052,-16.518 z"
   id="path11"
   style="stroke:#000000" />
	<path
   d="m 124.884,252.744 c -3.453,11.838 -7.187,22.076 -11.379,31.201 -4.193,9.125 -7.566,19.363 -10.279,31.201 -2.713,11.838 -5.603,21.232 -8.809,28.632 -3.207,7.399 -6.579,14.505 -10.278,21.657 -3.7,7.151 -7.915,12.813 -12.848,17.253 -4.932,4.438 -11.196,8.534 -19.088,12.479 -7.892,3.946 -9.578,3.104 -5.139,-2.568 4.439,-5.674 8.294,-11.094 11.747,-16.519 3.452,-5.426 6.343,-11.087 8.809,-17.253 2.467,-6.166 4.153,-12.309 5.139,-18.721 0.987,-6.412 1.348,-12.916 1.102,-19.822 -0.247,-6.905 0.235,-14.494 1.468,-23.126 1.233,-8.631 3.281,-16.099 6.24,-22.758 2.96,-6.659 6.573,-11.838 11.012,-15.784 4.44,-3.946 11.666,-8.764 22.025,-14.683 10.358,-5.918 13.731,-3.027 10.278,8.811 l 0,0 z"
   id="path13"
   style="stroke:#000000" />
	<path
   d="m 299.978,323.589 c -12.085,-6.166 -18.106,-6.648 -18.354,-1.468 -0.246,5.179 -0.848,11.442 -1.834,19.087 -0.986,7.646 -1.59,14.271 -1.836,20.189 -0.246,5.92 -0.97,12.183 -2.203,19.088 -1.232,6.905 -2.076,12.206 -2.568,16.151 -0.494,3.946 -0.012,6.836 1.468,8.81 1.479,1.973 2.925,4.503 4.405,7.709 1.48,3.206 3.166,6.94 5.139,11.379 1.973,4.439 4.623,7.692 8.076,9.911 3.452,2.22 6.223,3.183 8.441,2.938 2.221,-0.248 4.268,-0.248 6.24,0 1.975,0.245 3.539,-0.235 4.772,-1.47 1.233,-1.233 1.233,-2.798 0,-4.771 -1.233,-1.975 -3.039,-3.66 -5.507,-5.139 -2.465,-1.48 -4.875,-4.612 -7.34,-9.545 -2.467,-4.933 -4.033,-8.908 -4.772,-12.113 -0.739,-3.207 -0.259,-7.182 1.468,-12.113 1.727,-4.934 3.172,-9.149 4.405,-12.848 1.233,-3.699 2.438,-7.555 3.671,-11.746 1.232,-4.193 3.883,-10.938 8.075,-20.557 4.193,-9.618 0.339,-17.325 -11.746,-23.492 l 0,0 z"
   id="path15"
   style="stroke:#000000" />
	<path
   d="m 120.846,250.174 c 0.74,-7.152 4.835,-12.572 12.481,-16.518 7.645,-3.946 15.835,-7.319 24.961,-10.278 9.125,-2.96 17.195,-5.369 24.593,-7.342 7.399,-1.973 15.228,-3.659 23.86,-5.139 8.632,-1.48 16.22,-2.323 23.126,-2.569 6.906,-0.247 15.096,-0.126 24.961,0.367 9.865,0.493 18.778,1.456 27.163,2.936 8.387,1.48 15.252,3.528 20.924,6.241 5.672,2.712 11.455,5.965 17.619,9.911 6.166,3.946 11.104,7.198 15.051,9.911 3.945,2.712 6.354,4.76 7.342,6.24 0.986,1.48 3.033,2.564 6.24,3.304 3.205,0.739 5.615,1.462 7.34,2.202 1.729,0.74 4.137,2.787 7.342,6.24 3.207,3.453 6.941,5.019 11.379,4.772 4.441,-0.247 7.934,5.053 10.646,16.151 2.713,11.099 6.928,21.698 12.848,32.303 5.918,10.605 7.484,16.868 4.771,19.088 -2.713,2.219 -5.242,4.749 -7.709,7.708 -2.465,2.96 -4.875,5.007 -7.34,6.241 -2.467,1.232 -5.238,1.835 -8.443,1.835 -3.207,0 -6.338,-0.12 -9.545,-0.367 -3.205,-0.247 -7.18,0.597 -12.113,2.569 -4.932,1.973 -10.594,4.021 -17.252,6.24 -6.658,2.219 -16.174,-0.189 -28.998,-7.342 -12.825,-7.152 -21.377,-11.367 -26.063,-12.847 -4.686,-1.48 -8.78,-3.287 -12.479,-5.506 -3.7,-2.22 -7.313,-3.786 -11.012,-4.773 -3.7,-0.986 -7.554,-2.311 -11.747,-4.037 -4.192,-1.727 -8.769,-2.57 -13.949,-2.57 -5.179,0 -21.921,-2.891 -51.023,-8.811 -29.102,-5.919 -47.651,-13.024 -56.529,-21.657 -8.879,-8.632 -12.613,-14.654 -11.38,-18.354 1.232,-3.697 2.195,-8.997 2.935,-16.149 l 0,0 z"
   id="path17"
   style="stroke:#000000" />
	<path
   d="m 381.469,264.212 c -1.48,-2.22 -1.33,-3.515 0.457,-3.946 1.789,-0.432 3.324,-0.853 4.682,-1.285 1.355,-0.431 2.529,-0.854 3.578,-1.285 1.049,-0.431 2.072,-0.793 3.121,-1.101 1.047,-0.308 1.529,-1.543 1.469,-3.762 -0.062,-2.22 0.088,-4.448 0.459,-6.791 0.369,-2.343 1.002,-4.331 1.926,-6.057 0.926,-1.726 2.039,-2.6 3.395,-2.661 1.357,-0.062 2.441,0.209 3.305,0.826 0.863,0.616 1.977,1.369 3.395,2.294 1.42,0.925 2.623,1.918 3.672,3.028 1.047,1.11 2.252,2.314 3.67,3.671 1.418,1.356 2.623,2.531 3.672,3.579 1.047,1.048 1.229,0.898 0.549,-0.459 -0.678,-1.356 -0.316,-2.169 1.104,-2.478 1.418,-0.308 2.742,-0.579 4.037,-0.826 1.295,-0.246 2.559,-0.367 3.854,-0.367 1.295,0 2.861,-0.06 4.773,-0.183 1.91,-0.123 3.385,-0.214 4.496,-0.275 1.109,-0.062 2.586,-0.785 4.496,-2.203 1.912,-1.418 3.629,-2.592 5.23,-3.579 1.604,-0.986 3.109,-1.709 4.588,-2.202 1.48,-0.494 2.926,-0.945 4.406,-1.377 1.48,-0.432 3.135,-0.763 5.047,-1.009 1.912,-0.247 3.146,-0.337 3.764,-0.276 0.615,0.062 1.037,0.514 1.283,1.377 0.246,0.863 0.547,2.308 0.918,4.405 0.369,2.096 0.43,3.903 0.184,5.506 -0.246,1.603 -0.457,3.199 -0.643,4.864 -0.186,1.664 -0.305,3.2 -0.367,4.68 -0.061,1.48 -0.271,2.805 -0.643,4.038 -0.369,1.233 -0.43,2.166 -0.184,2.844 0.248,0.679 0.76,1.552 1.561,2.662 0.801,1.11 1.494,2.194 2.111,3.303 0.617,1.11 1.338,2.285 2.203,3.579 0.861,1.295 1.705,2.53 2.568,3.763 0.863,1.233 1.797,2.558 2.846,4.038 1.047,1.479 1.711,2.684 2.018,3.67 0.309,0.987 0.58,2.221 0.826,3.763 0.246,1.541 0.518,2.866 0.826,4.038 0.309,1.171 0.338,2.376 0.092,3.67 -0.246,1.295 -0.729,2.47 -1.469,3.579 -0.74,1.11 -1.102,2.255 -1.102,3.488 0,1.233 0.242,2.347 0.734,3.395 0.494,1.048 1.035,2.433 1.652,4.221 0.615,1.788 0.887,3.204 0.826,4.314 -0.062,1.108 -0.424,2.374 -1.102,3.854 -0.68,1.48 -1.582,2.473 -2.752,3.028 -1.172,0.555 -2.287,1.278 -3.396,2.203 -1.109,0.925 -2.344,1.677 -3.762,2.294 -1.42,0.616 -2.895,0.978 -4.498,1.101 -1.602,0.123 -3.109,0.093 -4.588,-0.092 -1.48,-0.185 -2.834,-0.546 -4.129,-1.101 -1.295,-0.555 -2.258,-1.187 -2.938,-1.927 -0.678,-0.74 -1.279,-1.402 -1.836,-2.019 -0.555,-0.617 -1.428,-1.369 -2.66,-2.294 -1.232,-0.925 -2.469,-1.557 -3.764,-1.927 -1.295,-0.37 -2.559,-0.671 -3.854,-0.918 -1.295,-0.247 -2.861,-0.427 -4.771,-0.551 -1.912,-0.123 -3.568,-0.213 -5.047,-0.274 -1.48,-0.062 -3.076,-0.001 -4.865,0.184 -1.787,0.185 -3.264,0.546 -4.496,1.101 -1.232,0.555 -2.559,1.247 -4.037,2.111 -1.48,0.863 -2.686,1.736 -3.672,2.661 -0.986,0.925 -1.949,1.617 -2.936,2.11 -0.986,0.494 -2.012,0.885 -3.121,1.193 -1.109,0.309 -1.953,0.519 -2.57,0.643 -0.615,0.123 -1.066,-1.081 -1.375,-3.671 -0.309,-2.59 -0.971,-4.848 -2.02,-6.883 -1.047,-2.034 -1.951,-3.871 -2.752,-5.597 -0.803,-1.727 -1.766,-3.654 -2.938,-5.874 -1.172,-2.219 -2.166,-4.146 -3.029,-5.873 -0.861,-1.726 -1.615,-3.412 -2.293,-5.139 -0.678,-1.726 -1.371,-3.623 -2.111,-5.781 -0.74,-2.158 -1.461,-4.537 -2.201,-7.25 -0.74,-2.713 -1.523,-5.423 -2.387,-8.259 -0.864,-2.836 -2.006,-5.306 -3.485,-7.526 l 0,0 z"
   id="path19"
   style="stroke:#000000" />
	<path
   d="m 371.295,261.704 c -0.193,-1.057 0.471,-1.574 2.025,-1.574 1.554,0 3.264,0.029 5.207,0.088 1.943,0.058 3.684,-0.085 5.303,-0.437 1.619,-0.353 2.41,0.164 2.41,1.573 0,1.409 -0.379,2.614 -1.156,3.671 -0.779,1.057 -2.012,1.573 -3.762,1.573 -1.748,0 -3.268,-0.287 -4.627,-0.874 -1.361,-0.587 -2.531,-1.132 -3.568,-1.661 -1.035,-0.528 -1.636,-1.303 -1.832,-2.359 z"
   id="path21"
   style="stroke:#000000" />
	<path
   d="m 402.667,327.991 c -0.062,0.678 0.512,0.558 1.744,-0.367 1.232,-0.925 2.287,-1.497 3.213,-1.744 0.924,-0.246 0.984,-0.638 0.182,-1.193 -0.801,-0.555 -1.463,-0.795 -2.018,-0.734 -0.557,0.062 -1.188,0.574 -1.928,1.56 -0.74,0.987 -1.131,1.8 -1.193,2.478 z"
   id="path23"
   style="stroke:#000000" />
	<path
   d="m 417.35,250.355 c -1.295,-0.555 -1.385,-1.157 -0.275,-1.836 1.109,-0.678 1.861,-0.798 2.295,-0.367 0.43,0.432 0.521,1.034 0.273,1.836 -0.246,0.801 -0.998,0.922 -2.293,0.367 z"
   id="path25"
   style="stroke:#000000" />
	<path
   d="m 305.139,433.481 c 2.605,2.496 4.494,3.679 5.76,3.604 1.266,-0.072 2.102,-0.467 2.547,-1.201 0.446,-0.734 0.629,-1.953 0.555,-3.715 -0.076,-1.761 -0.293,-3.303 -0.666,-4.697 -0.371,-1.395 -0.844,-2.398 -1.439,-3.06 -0.596,-0.66 -1.461,-1.239 -2.639,-1.763 -1.178,-0.524 -2.205,-0.78 -3.129,-0.78 -0.926,0 -1.949,0.292 -3.121,0.89 -1.172,0.598 -1.743,1.894 -1.743,3.948 -0.001,2.056 1.272,4.278 3.875,6.774 z"
   id="path27"
   style="stroke:#000000;stroke-width:0.001" />
	<polygon
   points="456.676,319.185 452.231,322.112 446.784,325.417 446.784,325.417 452.231,322.112 "
   id="polygon29"
   style="fill:none;stroke:#000000;stroke-width:0.75" />
	<polygon
   points="459.508,318.804 456.096,322.889 451.834,327.624 451.834,327.624 456.096,322.889 "
   id="polygon31"
   style="fill:none;stroke:#000000;stroke-width:0.75" />
	<polygon
   points="414.651,297.244 410.797,300.915 406.026,305.136 406.026,305.136 410.797,300.915 "
   id="polygon33"
   style="fill:none;stroke:#000000;stroke-width:0.75" />
	<polygon
   points="459.883,318.693 457.649,323.524 454.762,329.204 454.762,329.204 457.649,323.524 "
   id="polygon35"
   style="fill:none;stroke:#000000;stroke-width:0.75" />
	<polygon
   points="453.086,318.156 447.913,320.113 441.653,322.22 441.653,322.22 447.913,320.113 "
   id="polygon37"
   style="fill:none;stroke:#000000;stroke-width:0.75" />
	<path
   d="m 115.947,245.689 c -1.233,-1.356 -0.962,-2.501 0.826,-3.487 1.788,-0.986 4.167,-2.311 7.25,-4.038 3.083,-1.726 5.522,-3.081 7.433,-4.129 1.912,-1.049 3.748,-0.898 5.598,0.458 1.85,1.357 1.579,3.073 -0.826,5.231 -2.405,2.158 -4.783,3.574 -7.25,4.313 -2.466,0.74 -4.905,1.523 -7.433,2.386 -2.528,0.863 -4.365,0.623 -5.598,-0.734 z"
   id="path39"
   style="stroke:#000000;stroke-width:0.001" />
</g>
</svg>