<?xml version="1.0" encoding="UTF-8" standalone="no"?>
<!-- Created with Inkscape (http://www.inkscape.org/) -->

<svg
   xmlns:svg="http://www.w3.org/2000/svg"
   xmlns="http://www.w3.org/2000/svg"
   version="1.1"
   width="100%"
   height="100%"
   viewBox="0 0 454.6 408"
   id="Layer_1"
   xml:space="preserve"><defs
   id="defs7" />
<path
   d="m 357.6,408 c -2.7,-0.6 -5.4,-1.5 -8.2,-1.8 -7.6,-0.9 -12.5,-4.5 -15.5,-11.9 -3.5,-8.7 -8.6,-16.7 -12.5,-25.3 -2.5,-5.4 -4.3,-11.1 -5.9,-16.9 -3.8,-13.9 -7.3,-27.9 -10.9,-41.8 -1.8,-7.1 -3.2,-14.2 -5.2,-21.2 -1.2,-4.4 -3.1,-8.6 -4.7,-12.8 -0.5,-0.1 -0.9,-0.1 -1.4,-0.2 -0.6,2.2 -1.4,4.3 -1.8,6.5 -1.4,6.6 -2.5,13.2 -4.1,19.7 -3.2,12.9 -7,25.6 -10,38.5 -1.9,7.8 -3.7,15.9 -4,23.8 -0.4,13.2 1.9,15.6 14.2,19.5 4.8,1.5 6.5,3.2 8.6,8.4 -8.1,7.1 -16.9,7.4 -26.9,4 -7.4,-2.6 -11.3,-6.8 -11.8,-14.7 -0.2,-4.3 -1,-8.6 -2,-12.8 -1.7,-6.7 -4.2,-13.2 -5.8,-20 -0.7,-3 -1.4,-7.2 0,-9.4 5.3,-8.1 5.2,-17 5.9,-25.9 0.9,-11.9 1.3,-23.8 2.2,-35.7 0.2,-2.6 1.2,-5.2 1.7,-7.8 0.8,-3.8 -1,-5.8 -4.7,-5.9 -23.4,-0.7 -45.9,-7 -68.9,-10.5 -2.7,-0.4 -5.4,-1.7 -8,-2.7 -5.5,-2.1 -10,-0.2 -12.1,5.1 -4.6,11.5 -11.7,20.9 -21.9,28.2 -7,5 -12.3,12.3 -19.5,16.8 -8.4,5.3 -10.6,13.6 -13.7,21.6 -1.1,2.7 -0.1,6.7 1,9.7 4.4,12.5 10.8,24 18.6,34.7 3,4.1 7.2,4.8 11.9,5 6.4,0.2 11,3.6 13.7,9.1 0.6,1.2 0.2,4 -0.7,4.5 -8.2,4.6 -16.8,7.8 -26.5,4.9 -6.2,-1.9 -10.7,-4.7 -13.7,-11.5 -4,-9.2 -10.1,-17.4 -15.5,-25.9 -4.9,-7.8 -10,-15.4 -15.2,-23.5 -4.7,4.3 -8.4,8.8 -6.8,15.7 2.2,9.2 4.2,18.5 6.5,27.6 1.1,4.3 3.2,6.8 8.5,7.4 7.6,0.9 12.4,6.3 14.5,14.1 -9,7 -19.4,8.3 -30.3,5.8 -7.2,-1.6 -9.5,-7.7 -11,-14.1 -3.6,-15.6 -7.2,-31.2 -10.9,-47.5 -1.2,0.6 -2.4,0.8 -3.3,1.6 -3.4,2.9 -6.8,5.7 -9.9,8.9 -8.8,9.1 -20.1,11.3 -32,11.6 -6.2,0.2 -9.9,-3.6 -9.6,-9.9 0.6,-12.1 4.9,-22.9 11,-33.2 2.6,-4.4 4.9,-9 7.4,-13.5 4.7,-8.4 3.3,-17.4 2.7,-26.3 -0.2,-2.6 -0.8,-5.2 -1,-7.9 -0.8,-12.2 -2.2,-24.5 -2.3,-36.8 0,-18 6.7,-33.7 18.9,-46.7 8.6,-9.2 16.1,-19.9 28.1,-25.5 7,-3.3 14.1,-6.6 20.9,-10.2 9.5,-5 18.4,-11.4 28.3,-15.4 19.1,-7.7 39,-11.3 59.9,-8.1 7,1.1 14.3,0.6 21.4,1 15.8,0.7 31.5,1.6 47.3,2.1 7.5,0.2 15,-0.7 22.4,-0.3 8.9,0.4 16,-3.7 23.4,-7.4 6.8,-3.4 13.7,-6.8 20.7,-9.8 9.2,-3.9 13.1,-11.7 16.6,-20.1 3.5,-8.6 6.9,-17.3 11.3,-25.5 2.3,-4.4 3.3,-7.9 3.2,-13.3 -0.5,-17.3 2.3,-34.4 12.5,-49.3 1.3,-1.9 4.4,-3.9 6.3,-3.6 2.2,0.4 4.7,2.9 5.8,5.2 4.5,9.3 8.3,18.9 12.7,28.2 1.6,3.3 4,1.5 5.2,-0.6 1.9,-3.3 3,-7.1 4.9,-10.3 4.3,-7.4 8.7,-14.8 13.4,-21.9 2.2,-3.2 4.9,-2.6 5.7,1.2 0.7,2.9 0.7,5.9 0.7,8.9 0.1,7.3 0.3,14.6 0,21.9 -0.1,4.5 -0.3,9.1 -1.6,13.3 -1.1,3.6 -0.5,5.5 2.3,7.5 4.5,3.4 9,6.8 13.2,10.6 1.5,1.3 3,3.6 3,5.4 -0.2,4.2 2.4,5.7 5.4,6.9 6.3,2.4 12.9,4.3 19.2,6.7 2.1,0.8 3.8,2.4 5.7,3.6 0,0.7 0,1.3 0,2 -7.7,9.6 -15.5,18 -30,15.6 -10.2,-1.7 -22.5,9.4 -23.7,20 -0.7,6.4 -0.6,13 -1.9,19.3 -1.6,8.3 -3.8,16.5 -6.5,24.4 -1.8,5.4 -4.9,10.3 -7.5,15.4 -4.2,8.2 -5,17.9 -11.5,25.2 -3,3.3 -4.2,8.1 -6.4,12.1 -1.4,2.6 -2.8,5.4 -4.9,7.4 -6.9,6.8 -14,13.5 -21.3,19.9 -6.2,5.4 -10.3,11.6 -10,20.2 0.2,4.9 -0.3,9.9 0.4,14.7 1.9,13.1 4.5,26.2 6.5,39.3 2.3,14.7 4.2,29.6 6.4,44.3 0.6,4.2 1.3,8.6 3,12.4 2.1,4.8 4.3,9.7 11.9,8.1 3.3,-0.7 7.9,2.1 11.2,4.4 4.1,2.9 3.5,8.5 -0.9,11 -3.1,1.8 -6.6,2.9 -9.9,4.4 -0.6,0.1 -1.2,0.1 -1.9,0.1 z"
   id="path3" />
</svg>