<?xml version="1.0" encoding="UTF-8" standalone="no"?>
<!-- Created with Inkscape (http://www.inkscape.org/) -->

<svg
   xmlns:svg="http://www.w3.org/2000/svg"
   xmlns="http://www.w3.org/2000/svg"
   version="1.1"
   width="595.28003"
   height="841.89001"
   viewBox="0 0 595.28 841.89"
   id="Capa_1"
   xml:space="preserve"><defs
   id="defs9" />
<g
   id="g3">
	<path
   d="m 272.725,395.293 c 0,-0.111 0,-0.222 0,-0.333 0.137,-0.221 0.371,-0.465 0.624,-0.624 0.572,-0.358 1.279,-0.645 1.873,-1.123 0.384,-0.312 0.807,-0.7 1.206,-1.041 0.417,-0.355 0.891,-0.739 1.166,-1.081 0.431,-0.537 0.552,-1.075 1.332,-1.207 0.099,-0.293 0.396,-0.412 0.416,-0.75 0.014,-0.254 -0.229,-0.556 -0.292,-0.873 -0.044,-0.226 -0.067,-0.502 -0.083,-0.708 -0.03,-0.384 -0.057,-0.855 0.208,-1.123 0.835,0.636 1.255,1.685 2.164,2.248 0.279,-0.063 0.891,-0.129 1.291,0 0.224,-0.691 0.054,-2.293 0.79,-2.331 0.297,-0.017 1.269,0.674 1.456,0.833 0.374,0.312 0.587,0.837 0.875,1.122 0.285,0.282 0.773,0.37 1.082,0.541 0.145,-0.119 0.199,-0.328 0.375,-0.416 0.364,0.275 0.408,-0.23 0.666,-0.207 0.229,0.021 0.294,0.562 0.749,0.373 0.045,0.24 -0.077,0.485 0,0.624 0.469,0.146 0.514,-0.479 0.916,-0.539 0.229,0.102 0.046,0.618 0.166,0.831 0.419,-0.013 0.579,-0.281 0.916,-0.375 0.175,0.033 0.081,0.336 0.167,0.458 0.252,-0.039 0.225,-0.357 0.541,-0.333 -0.014,0.335 0.269,0.37 0.416,0.541 -0.074,0.166 -0.208,0.408 -0.042,0.583 0.314,-0.018 0.124,-0.543 0.5,-0.499 0.227,0.05 0.012,0.543 0.291,0.54 0.128,-0.204 -0.011,-0.676 0.291,-0.707 0.268,0.037 0.198,0.414 0.333,0.583 0.292,0.014 0.263,-0.291 0.583,-0.25 0.257,0.211 0.073,0.647 0.374,0.665 0.38,0.023 -0.02,-0.481 0.208,-0.707 0.708,0.199 1.128,0.476 1.832,0.625 0.085,0.108 -0.009,0.396 0.125,0.458 0.479,0.056 0.972,-0.158 1.207,0.124 0.163,-0.217 0.557,-0.066 0.749,0.042 0.201,0.182 -0.052,0.562 0.083,0.79 0.492,-0.15 1.04,-0.032 0.999,0.666 0.488,-0.109 0.812,-0.383 1.332,-0.458 0.172,0.232 0.571,0.234 0.875,0.333 0.096,0.334 -0.047,0.906 0.291,0.999 0.244,-0.297 0.201,-0.882 0.623,-0.999 0.055,0.168 0.092,0.354 0.126,0.541 0.247,-0.039 0.37,0.045 0.54,0.084 0.23,-0.132 0.232,-0.49 0.583,-0.5 0.21,0.11 0.216,0.422 0.292,0.666 0.184,0.023 0.234,-0.233 0.416,-0.083 0.002,0.414 0.289,0.542 0.457,0.79 0.376,-0.04 0.438,-0.394 0.832,-0.416 0.135,0.061 0.052,0.338 0.125,0.458 0.402,-0.06 0.423,-0.71 0.832,-0.624 0.246,0.046 0.041,0.542 0.168,0.707 0.27,-0.008 0.331,-0.223 0.624,-0.208 0.167,0.123 0.019,0.563 0.124,0.749 0.193,0.13 0.281,-0.147 0.541,-0.083 0.206,0.043 0.104,0.396 0.333,0.416 0.284,-0.089 0.368,-0.38 0.708,-0.416 -0.031,0.197 0.047,0.286 0.041,0.458 0.291,0.027 0.276,-0.25 0.541,-0.25 0.148,0.281 0.444,0.415 0.625,0.666 0.207,0.022 0.303,-0.228 0.457,-0.125 0.273,0.061 0.209,0.456 0.416,0.583 0.379,-0.094 0.584,-0.359 0.957,-0.458 0.041,0.202 -0.113,0.355 0,0.499 0.293,-0.054 0.34,-0.354 0.666,-0.375 0.105,0.103 0.148,0.268 0.125,0.499 0.279,-0.06 0.234,-0.646 0.5,-0.581 0.11,0.11 0.103,0.34 0.207,0.457 0.347,-0.136 0.412,0.14 0.541,0.333 0.27,0.01 0.303,-0.405 0.582,-0.25 0.148,0.263 -0.097,0.662 0.041,0.915 0.521,-0.063 0.484,-0.682 0.918,-0.831 0.24,0.146 0.286,0.489 0.539,0.624 0.233,-0.017 0.315,-0.185 0.584,-0.167 0.204,0.03 0.125,0.346 0.291,0.416 0.27,-0.049 0.248,-0.39 0.541,-0.416 0.258,0.131 0.266,0.511 0.416,0.749 0.408,-0.095 0.479,-0.737 0.873,-0.707 0.247,0.154 -0.018,0.822 0.25,0.957 0.215,0.102 0.389,-0.195 0.666,-0.167 0.141,0.109 0.135,0.365 0.125,0.624 0.419,0.032 0.547,-0.229 0.915,-0.249 0.214,0.036 0.086,0.413 0.333,0.416 0.432,0.178 0.727,-0.094 0.999,-0.208 0.157,0.147 -0.003,0.613 0.208,0.708 0.318,0.019 0.645,-0.229 0.875,-0.042 0.139,0.185 -0.199,0.383 -0.084,0.54 0.264,0.027 0.592,-0.151 0.707,0.084 0.004,0.45 -0.372,0.899 0,1.332 0.16,0.074 0.472,-10e-4 0.583,0.125 -0.081,0.59 0.385,0.794 0.748,1.081 0.735,0.581 0.851,0.835 1.456,1.582 0.264,0.323 0.621,0.604 0.75,0.957 0.127,0.346 0.174,0.815 0.25,1.207 0.078,0.406 0.144,0.87 0.166,1.289 0.017,0.298 -0.092,0.677 -0.041,1.041 0.029,0.213 0.221,0.275 0.208,0.624 -0.009,0.234 -0.29,0.448 -0.333,0.708 -0.074,0.437 0.188,0.866 0.249,1.373 0.064,0.526 -0.062,1.078 -0.083,1.665 -0.04,1.118 0.362,2.452 -0.25,3.202 -0.148,-0.017 -0.09,-0.241 -0.25,-0.249 0.322,1.066 -0.457,1.955 -0.416,2.954 0.025,0.604 0.531,1.67 -0.291,1.915 -0.128,-0.252 -0.091,-0.513 -0.06,-0.74 -0.414,-0.604 -0.912,-1.527 -0.522,-2.423 -0.002,-0.15 -0.295,-0.01 -0.25,-0.208 0.285,-0.537 0.809,-2.044 -0.125,-2.246 -0.277,0.344 -0.241,0.883 -0.374,1.289 -0.047,0.144 -0.147,0.23 -0.166,0.375 -0.039,0.287 0.077,0.644 0.124,0.998 0.146,1.103 0.354,2.007 0.791,2.664 0.148,0.223 0.371,0.352 0.499,0.541 0.175,0.259 0.43,0.827 0.624,1.082 0.465,0.606 1.309,1.019 1.373,1.664 0.037,0.352 -0.145,1.055 -0.166,1.665 -0.023,0.679 0.002,1.266 0,1.872 -0.002,0.725 -0.023,1.621 -0.291,2.039 -0.322,0.505 -2.364,0.634 -2.371,-0.166 -0.008,-0.502 0.657,-0.779 0.789,-1.124 0.201,-0.524 -0.053,-1.015 0.042,-1.623 -0.114,-0.081 -0.364,-0.197 -0.499,-0.125 -0.361,0.488 -0.359,1.158 -0.749,1.748 -0.208,0.313 -0.623,0.729 -0.874,0.79 -0.646,0.16 -2.162,0.065 -2.247,-0.29 -0.126,-0.529 0.581,-0.877 0.874,-1.124 0.182,-0.9 0.615,-1.549 0.624,-2.622 -0.587,-0.357 -0.745,-1.108 -0.999,-1.747 -0.169,-0.428 -0.451,-0.844 -0.625,-1.29 -0.186,-0.482 -0.281,-1.044 -0.498,-1.457 -0.221,-0.418 -0.635,-0.763 -0.916,-1.206 -0.283,-0.449 -0.461,-0.975 -0.748,-1.374 -0.258,-0.356 -0.684,-0.592 -0.916,-0.998 -0.314,-0.548 -0.421,-1.219 -0.708,-1.79 -0.765,-0.009 -0.343,-0.821 -0.583,-1.248 -0.348,0.193 -0.727,0.354 -0.914,0.708 -0.577,-0.049 -0.518,0.537 -1,0.581 -0.062,0.202 -0.105,0.422 -0.208,0.584 -0.199,-0.052 -0.331,-0.294 -0.54,-0.209 -0.211,0.068 -0.026,0.53 -0.25,0.583 -0.158,-0.12 -0.367,-0.188 -0.625,-0.208 -0.338,0.118 -0.48,0.435 -0.707,0.666 -0.208,-0.027 -0.403,-0.228 -0.666,-0.251 -0.185,-0.015 -0.43,0.106 -0.623,0.084 -0.24,-0.026 -0.4,-0.21 -0.584,-0.209 -0.221,0.004 -0.416,0.215 -0.623,0.209 -0.037,0.315 0.279,0.653 0,0.832 -0.307,-0.068 -0.203,-0.489 -0.5,-0.499 -0.244,-0.009 -0.115,0.208 -0.374,0.291 -0.19,-0.645 -1.042,-0.107 -1.331,-0.457 -0.104,0.077 -0.17,0.191 -0.334,0.207 -0.158,0.229 -0.07,0.707 -0.333,0.833 -0.136,-0.547 -0.489,-1.021 -0.712,-1.369 -0.484,-0.759 -1.401,-0.56 -1.826,-1.377 -0.186,-0.046 -0.305,0.1 -0.416,0 -0.216,-0.058 -0.063,-0.251 -0.209,-0.375 -0.116,-0.099 -0.34,-0.045 -0.457,-0.166 -0.158,-0.165 -0.089,-0.403 -0.291,-0.541 -0.459,0.215 -0.545,-0.425 -0.873,-0.083 -0.174,-0.355 -0.501,-0.555 -1.041,-0.542 -0.467,0.616 -0.66,1.292 -0.708,2.372 -0.104,2.379 -0.308,4.633 -0.249,6.784 0.004,0.166 -0.061,0.332 -0.041,0.498 0.027,0.249 0.184,0.453 0.207,0.625 0.042,0.318 0.002,0.72 -0.041,0.915 -0.152,0.694 -0.432,1.573 -0.624,2.247 -0.079,0.277 -0.252,0.539 -0.251,0.707 0.002,0.281 0.223,0.548 0.251,0.833 0.171,1.763 -1.405,1.323 -2.747,1.331 -0.704,0.004 -1.705,-0.054 -2.081,-0.416 -0.569,-0.546 0.021,-0.95 0.375,-1.29 0.449,-0.432 0.959,-0.816 1.124,-1.373 0.126,-0.426 -0.041,-1.092 -0.084,-1.498 -0.151,-1.426 0.408,-3.02 0.125,-4.494 -0.031,-0.156 -0.167,-0.295 -0.208,-0.458 -0.136,-0.55 -0.197,-1.265 -0.291,-1.914 -0.098,-0.665 -0.132,-1.353 -0.25,-1.956 -0.06,-0.302 -0.297,-0.569 -0.375,-0.832 -0.227,-0.762 -0.218,-1.563 -0.416,-2.288 -0.088,-0.327 -0.132,-0.769 -0.25,-0.958 -0.08,-0.128 -0.306,-0.201 -0.416,-0.333 -0.199,-0.239 -0.312,-0.688 -0.5,-1.081 -0.355,-0.746 -0.685,-1.396 -0.915,-2.248 -0.209,-0.768 -0.648,-1.463 -0.832,-2.122 -0.109,-0.385 -0.067,-0.747 -0.292,-1.04 -0.125,-0.165 -0.492,-0.314 -0.707,-0.499 -0.15,-0.131 -0.385,-0.476 -0.542,-0.624 -0.447,-0.426 -1.07,-0.714 -1.665,-1.082 -0.543,-0.338 -1.021,-0.73 -1.58,-1.04 -0.571,-0.318 -1.173,-0.527 -1.832,-0.791 -0.621,-0.248 -1.195,-0.57 -1.789,-0.832 -0.634,-0.279 -1.158,-0.628 -1.706,-0.916 -0.783,-0.413 -1.438,-0.367 -2.372,-0.458 -0.465,-0.045 -0.952,-0.154 -1.332,-0.083 -0.505,0.095 -1.125,0.238 -1.623,0.417 -0.21,0.074 -0.4,0.251 -0.625,0.291 -0.544,0.098 -1.27,-0.044 -1.873,0 -0.386,-0.194 -0.515,-0.671 -0.208,-1.041 -0.109,-0.154 -0.21,-0.316 -0.291,-0.498 -0.25,0 -0.5,0 -0.75,0 -0.495,-0.562 -0.834,-1.277 -1.208,-1.957 z"
   id="path5"
   style="fill-rule:evenodd" />
</g>
</svg>