<?xml version="1.0" encoding="UTF-8" standalone="no"?>
<!-- Created with Inkscape (http://www.inkscape.org/) -->

<svg
   xmlns:svg="http://www.w3.org/2000/svg"
   xmlns="http://www.w3.org/2000/svg"
   version="1.1"
   width="100%"
   height="100%"
   viewBox="0 0 371.1 355.8"
   id="Layer_1"
   xml:space="preserve"><defs
   id="defs7" />
<path
   d="m 363.6,197.4 c -0.7,3.1 -1.1,6.3 -2.2,9.1 -1.1,2.7 -2.9,5.3 -4.7,7.5 -3.5,4.2 -4.2,8.1 -0.7,12.9 2.9,3.9 5.1,8.5 7.4,12.8 0.4,0.8 0.2,2.1 -0.1,3.1 -1.8,5.6 -2.7,10.6 2.5,15.4 2.6,2.4 3.6,6.7 5.3,10.1 -3.4,1.3 -6.9,2.6 -10.3,3.9 -4,1.5 -8,1.1 -11.3,-1.4 -4.1,-3.1 -8.8,-2.7 -13.4,-2.3 -6.3,0.6 -12.5,2 -18.8,2.4 -9,0.5 -15.1,7.2 -23.1,10.1 -5.7,2 -11.1,4.9 -16.7,7.4 -3.6,1.7 -4.6,5.7 -2.1,9.2 3.8,5.5 7.4,11.2 11.8,16.1 2.6,2.9 6.5,6.2 10,6.5 7.4,0.7 11,4.5 13.3,10.8 -6.6,7.2 -20,6.5 -25,-1.8 -3.7,-6.2 -9,-10.1 -14.8,-14.2 -5.7,-4 -10.7,-9.5 -14.8,-15.2 -4,-5.5 -9.1,-5.9 -14.8,-6 -3.4,-0.1 -4.5,1.7 -3.7,4.8 1.1,4.5 2.4,9 3.5,13.5 1.5,6.3 3.2,12.5 4.3,18.9 0.8,4.8 2.8,8.3 7.3,9.7 5.3,1.7 5.9,6.3 6.9,10.6 0.2,0.7 -0.6,2.3 -1.1,2.4 -3.9,0.9 -8.2,2.8 -11.8,1.8 -4.5,-1.2 -7.5,-4.6 -8.3,-10.4 -0.8,-6.2 -3.9,-12.2 -6.3,-18.1 -4.5,-10.7 -9.7,-21 -13.8,-31.8 -1.9,-4.9 -4,-8.2 -9.5,-9.5 -4.2,-1 -7.8,-3.8 -11.9,-5.2 -2.1,-0.7 -5.4,-1.2 -6.9,-0.1 -1.3,0.9 -1.7,4.9 -0.8,6.5 2.9,5.2 6.4,10 10,14.8 0.8,1.1 2.9,1.1 4.3,1.8 2.4,1.2 5.3,2.1 6.9,4.1 1.6,2 3.2,5.6 2.4,7.5 -0.8,1.9 -4.5,2.6 -7.6,4.2 -4.1,-1.4 -8.9,-2.8 -13.6,-4.6 -1.4,-0.5 -2.7,-1.8 -3.5,-3.1 -4.9,-8.4 -9.3,-17.1 -14.7,-25.1 -2.9,-4.3 -4.3,-8 -2.4,-12.8 1.7,-4.3 -0.2,-7.1 -3.6,-9.6 -2,-1.5 -3.7,-3.5 -5.4,-5.4 -2.5,-2.8 -4.9,-2.3 -7.8,-0.5 -4.5,2.9 -9,6.1 -14,7.9 -13.8,5.1 -24.8,-1.6 -35.2,-9.5 -2.7,-2 -5.3,-3.7 -8.6,-1.8 -1.2,0.7 -2.8,2 -2.9,3.1 -0.3,5.1 -0.5,10.2 0,15.3 0.1,1.5 2.6,2.8 4,4.3 1.6,1.8 4.4,3.8 4.4,5.7 0,3 -0.9,6.4 -5.3,7.2 C 88,291.7 81.9,287 82,278.6 c 0.1,-9 -0.3,-18 0.2,-26.9 0.3,-4.9 1.5,-9.9 3.3,-14.4 0.5,-1.4 4.4,-1.7 6.8,-1.9 1.2,-0.1 2.5,1.8 3.9,2 2.2,0.4 5.1,1 6.5,0 1.3,-1 1.3,-4.1 1.2,-6.2 -0.4,-5.2 -0.9,-10.5 -2.1,-15.6 -0.4,-1.6 -3,-3.9 -4.3,-3.8 -15.7,1.7 -29,-5.1 -41.8,-12.3 -12.1,-6.8 -20.4,-18.1 -26.9,-30.3 -3.6,-6.8 -6.8,-14 -9,-21.4 -2.9,-9.7 -5.1,-19.6 -7,-29.5 C 10.9,107.8 9.5,97.3 8.4,86.7 7.8,81.4 8.8,76.1 8.4,71 7.6,60.6 6.6,50.3 5.1,40 3.9,31.4 -0.9,23.5 0.1,14.2 0.9,7.1 3.7,2.3 10,0.4 15,-1 19,1.6 22.8,4.1 27.3,7 31.5,10.3 36,13 c 9.4,5.7 17,12.9 22.5,22.7 4,7.2 9.3,13.6 13.6,20.5 7.5,11.9 8.1,25.8 10,39.2 0.8,6 0,12.2 0.4,18.3 1,13.9 5.7,26.4 13.9,37.8 4,5.6 7.3,11.7 10.8,17.7 1.8,3.1 3.2,6.5 5,9.6 2.7,4.7 8.7,5.6 15.6,3.2 6.4,-2.2 13,-4.2 19.6,-5.4 13.8,-2.3 27.2,0.3 39.7,5.8 13.2,5.8 25.6,13.3 38.9,18.9 7.3,3.1 15.7,3.9 23.6,5.5 9.2,1.8 18.5,3.7 27.8,4.9 6,0.7 12.2,-0.3 18.2,0 11.8,0.5 20.7,-3.3 25.1,-15.1 0.6,-1.6 3.2,-2.4 4.9,-3.6 0.9,1.7 1.9,3.3 2.5,5.1 0.6,1.9 0.8,3.9 1.2,5.9 1.4,6.6 6.6,9.2 12.5,5.6 6,-3.6 13.7,-4.6 17.6,-11.5 0.4,-0.7 1.7,-0.8 2.5,-1.2 0.6,0.1 1.1,0.3 1.7,0.5 z"
   id="path3" />
</svg>