<?xml version="1.0" encoding="UTF-8" standalone="no"?>
<!-- Created with Inkscape (http://www.inkscape.org/) -->

<svg
   xmlns:svg="http://www.w3.org/2000/svg"
   xmlns="http://www.w3.org/2000/svg"
   version="1.2"
   width="272.88"
   height="123.84"
   viewBox="0 0 272.88 123.84"
   id="Layer_1"
   xml:space="preserve"
   style="overflow:inherit"><defs
   id="defs7" />
<path
   d="m 199.68,123.84 c -1.959,-0.44 -3.5,-1.3 -4.8,-2.4 -1.673,-0.073 -1.829,1.371 -3.12,1.681 -0.699,-1.062 0.272,-2.199 0.72,-2.881 -0.938,-0.501 -2.335,-0.544 -2.64,-1.68 -1.442,-0.242 -1.728,0.673 -2.88,0.721 -0.176,-0.225 -0.437,-0.364 -0.72,-0.48 -0.313,-2.933 2.293,-4.026 2.16,-6 2.84,-1.914 8.136,-3.731 11.52,-2.88 -2.68,-2.368 -8.596,-0.817 -11.52,-3.12 -1.462,1.269 -4.587,-1.145 -6.96,-0.48 -0.135,-0.346 -0.375,-0.585 -0.721,-0.72 -8.062,-2.074 -16.136,-1.113 -24.479,0.24 -0.771,0.21 -0.498,-0.622 -0.96,-0.72 -0.876,0.084 -1.041,0.879 -1.681,1.199 -0.512,0.112 -0.457,-0.343 -0.479,-0.72 -2.005,1.027 -4.042,0.669 -6.48,0.48 -0.096,-0.624 -0.716,-0.724 -0.72,-1.44 -0.991,0.243 -2.154,0.148 -2.399,-0.96 -1.402,0.438 -2.808,0.873 -4.08,1.44 -0.396,-0.963 0.617,-2.577 1.199,-3.36 -2.421,0.06 -4.348,2.691 -7.2,3.12 0.023,-1.454 1.724,-3.209 2.16,-5.04 -1.06,0.699 -2.197,1.323 -3.12,2.16 -1.012,-2.291 2.225,-4.162 1.68,-5.28 -0.482,-0.526 -1.894,-0.121 -1.2,-1.2 -0.864,-0.063 -1.157,0.443 -1.92,0.48 -1.247,-1.074 -3.028,-1.612 -5.04,-1.92 0.104,-0.296 0.307,-0.493 0.72,-0.48 -1.618,0.104 -2.748,-1.431 -3.84,-1.92 -0.606,-0.271 -1.36,-0.059 -1.68,-0.24 -0.206,-0.116 -0.36,-0.949 -0.72,-1.2 -1.047,-0.729 -3.04,-0.492 -2.16,-1.68 -2.129,0.049 -2.113,-2.048 -4.561,-1.68 0.042,5.817 -1.225,7.709 -2.4,13.2 -0.578,-0.099 -0.521,0.438 -1.2,0.239 -0.58,4.381 -4.592,5.328 -7.2,7.681 -0.193,-0.207 -0.657,-0.143 -0.72,-0.48 -0.73,0.23 -1.002,0.918 -1.44,1.44 -3.985,0.376 -6.799,0.619 -9.36,2.16 -1.3,-0.187 -1.239,-1.438 -0.72,-2.4 -1.007,-0.436 -2.137,0.837 -2.64,1.68 -1.637,-0.801 0.017,-2.711 0.48,-3.6 -1.688,-0.404 -2.798,1.84 -4.32,2.4 -0.612,-2.48 1.722,-4.018 2.64,-5.761 -1.495,0.108 -3.731,1.547 -4.8,2.88 -0.965,-2.709 1.513,-5.101 3.6,-6.239 -0.86,-1.329 0.717,-1.447 1.44,-2.16 0.957,-0.944 1.715,-2.477 3.12,-2.64 2.433,-0.284 5.572,2.928 7.68,0.479 0.082,-5.208 -3.602,-7.909 -4.56,-11.28 -1.351,0.181 -1.76,-1.241 -2.16,-2.64 -0.495,-0.211 -0.909,0.791 -0.48,0.72 -0.613,1.129 -0.696,-1.5 -1.2,-0.479 -0.683,-0.677 -0.328,-2.393 -1.2,-2.88 -0.682,-0.042 0.29,1.569 -0.72,1.199 0.075,-3.754 -3.837,-3.522 -4.8,-6.239 -3.842,0.325 -7.048,-0.387 -10.08,0.72 -3.448,2.473 -6.356,5.484 -10.8,6.96 -3.453,3.827 -7.987,6.572 -14.16,7.68 -0.229,0.411 -0.796,0.483 -0.96,0.96 -4.062,1.43 -12.187,2.971 -16.08,0.24 -1.044,-0.004 -1.338,0.742 -2.64,0.48 -0.042,-1.083 0.115,-1.965 0.96,-2.16 -2.067,-1.215 -3.231,1.246 -5.52,0.24 -0.216,-1.417 1.377,-1.023 1.44,-2.16 -1.417,-0.812 -3.095,1.052 -4.32,0.479 1.638,-3.208 3.977,-8.224 8.64,-8.64 1.089,-0.098 2.236,0.643 3.6,0.479 1.624,-0.193 5.304,-0.986 6.72,1.2 6.22,-1.272 8.666,-6 10.32,-11.28 -0.158,-0.719 -0.513,0.229 -0.96,0 0.285,-0.995 0.891,-1.669 1.44,-2.399 -0.385,-0.676 0.403,-1.022 -0.72,-0.96 1.13,-1.956 0.406,-3.472 0.96,-5.28 -0.788,-0.848 -0.803,-1.392 -0.96,-3.12 -0.624,-0.144 -0.864,0.097 -0.72,0.72 -0.958,-1.228 -1.502,-1.658 -3.12,-1.92 -0.242,1.123 0.963,0.797 0.72,1.92 -1.102,-0.738 -1.524,-2.156 -3.36,-2.16 -0.066,0.946 1.026,0.734 0.96,1.68 -1.457,-0.863 -2.357,-2.283 -5.04,-1.92 -0.562,0.272 0.615,0.803 0.96,0.96 -0.706,0.376 -2.195,-0.518 -2.64,-1.2 -0.447,0.19 -0.725,1.128 0,1.2 -3.733,-0.436 -6.89,1.975 -10.32,3.6 -0.242,0.722 0.535,0.426 0.96,0.48 0.333,0.271 -1.418,0.488 -2.16,0.48 -0.229,0.87 1.036,0.244 1.2,0.72 -1.855,-0.092 -3.161,0.735 -4.8,1.44 -0.02,1.06 1.293,0.786 1.439,1.681 -1.133,0.013 -1.401,-0.839 -2.16,-1.2 -0.73,0.465 -0.486,1.19 -1.68,0.72 0.328,1.486 1.725,0.5 2.64,1.2 0.013,0.981 1.339,1.774 2.4,2.399 C 22.645,68.31 21.032,65.447 18.238,65.04 14.936,67.097 3.676,68.036 2.638,62.16 2.201,61.477 1.273,61.285 0.958,60.48 0.917,59 1.487,58.129 1.918,57.12 0.966,55.754 0.747,53.653 0,52.08 c 1.498,0.583 1.063,3.097 2.16,4.08 1.928,-1.046 -1.022,-3.637 -0.48,-4.8 1.001,0.598 0.844,2.356 1.68,3.12 C 3.566,53.912 4.084,52.156 5.04,51.6 5.128,51.192 4.853,51.147 4.56,51.12 7.018,47.174 5.595,41.36 4.08,37.92 5.936,31.982 6.558,26.2 9.12,20.88 c 0.24,0 0.48,0 0.72,0 0.469,-2.429 -0.194,-6.569 1.68,-9.12 0.327,-1.446 -0.558,-1.682 -0.48,-2.88 3.017,0.452 5.797,2.051 5.76,4.8 3.105,-0.818 4.751,-3.493 7.68,-4.56 1.118,-2.402 4.228,-2.812 6.48,-4.08 0.281,0.039 0.203,0.438 0.24,0.72 0.459,-0.101 1.033,-0.087 0.96,-0.72 0.838,1.776 2.355,-0.434 3.6,-0.48 0.413,0.351 -1.494,0.412 -1.439,1.2 2.075,0.075 2.854,-1.146 4.08,-1.92 0.749,0.459 -0.558,0.859 -0.72,1.2 1.318,-0.205 3.433,-1.685 5.76,-1.68 -0.006,0.233 -0.293,0.186 -0.48,0.24 0.957,1.554 3.406,-1.105 4.08,0.24 2.513,-1.565 5.56,0.119 8.4,-0.24 3.427,-1.635 8.238,-4.281 12.72,-2.64 -0.06,0.26 -0.478,0.163 -0.48,0.48 0.62,0.758 1.504,-0.24 2.16,-0.24 -10e-4,1.122 2.244,-0.003 2.64,0.72 0.86,-0.758 2.443,-1.538 4.319,-1.92 -0.377,0.742 -1.542,0.697 -1.92,1.44 2.086,-0.288 4,-0.39 6.48,-0.48 -0.074,0.326 -0.601,0.199 -0.96,0.24 3.951,2.788 9.674,-1.542 15.36,0.96 -0.072,0.944 -2.432,-0.372 -3.12,0.48 1.884,0.824 5.641,-0.301 8.16,0 -0.302,0.251 -1.707,0.75 -0.24,0.72 -0.054,0.346 -0.716,0.083 -0.72,0.48 0.786,0.747 3.357,-0.904 4.08,0.48 0.108,0.668 -1.308,-0.188 -1.2,0.48 0.812,0.887 2.335,0.249 3.6,0.24 -0.146,1.106 1.063,0.856 1.439,1.439 0.892,-0.148 1.508,-0.571 2.4,-0.72 0.067,0.388 -0.227,0.413 -0.24,0.72 2.625,0.815 5.189,1.691 8.64,1.68 -0.176,0.224 -0.437,0.364 -0.72,0.48 1.913,0.268 6.401,0.577 8.4,-1.2 0.856,0.616 5.4,-0.077 5.52,-0.48 2.213,0.022 6.428,-1.594 9.12,-2.64 0.614,-0.011 0.293,0.178 0.24,0.48 2.38,-1.053 3.428,-0.479 6.24,-0.96 -0.105,0.295 -0.308,0.493 -0.721,0.48 0.994,0.505 2.592,-0.442 3.841,-0.48 0.067,0.388 -0.228,0.413 -0.24,0.72 1.841,-0.614 3.136,0.677 5.52,0.24 0.112,0.512 -0.343,0.457 -0.72,0.48 0.475,0.689 1.498,-0.083 2.16,0 0.288,0.315 0.094,0.377 0,0.72 2.215,0.15 2.838,0.412 5.279,0.24 0,0.24 0,0.48 0,0.72 0.398,-0.402 1.409,-0.191 2.16,-0.24 0.068,0.388 -0.227,0.413 -0.239,0.72 1.321,0.191 2.895,0.891 4.319,0.24 0.127,0.193 0.251,0.39 0.24,0.72 3.025,0.022 6.508,-0.055 8.88,1.44 0.108,0.068 -0.087,0.617 0,0.72 1.518,-0.516 1.638,0.229 2.88,0.48 1.157,-0.638 6.423,-0.992 8.881,0 -0.814,0.796 -2.872,-0.472 -3.36,0 0.618,0.431 1.87,1.42 3.6,1.439 -1.071,-0.467 -0.444,-0.517 0.72,-0.479 -0.127,0.193 -0.25,0.39 -0.239,0.72 1.474,0.412 2.443,0 4.08,0 -0.347,1.137 1.994,1.474 3.6,1.44 -0.102,0.501 0.165,0.636 0.24,0.96 2.824,0.107 4.2,2.217 6.239,2.4 0.211,0.771 -0.622,0.498 -0.72,0.96 1.093,0.013 2.181,1.286 3.841,1.44 0.277,0.355 0.277,0.604 0,0.96 3.108,1.165 8.6,1.717 9.6,5.76 0.104,0.356 0.307,-0.095 0.72,0 -0.323,1.764 1.781,1.099 1.44,2.88 0.757,-0.117 0.848,0.433 1.68,0.24 -0.174,1.257 0.392,1.678 -0.96,2.4 0.613,0.52 1.704,-0.525 1.92,-1.2 1.336,-0.105 -0.257,1.326 1.44,0.96 -0.586,1.48 1.513,1.241 1.199,3.12 0.319,-0.241 0.894,-0.227 0.961,-0.72 0.578,1.494 1.088,2.077 1.439,4.08 0.368,0.848 1.066,-0.123 1.68,0.48 0.175,0.655 -0.477,0.483 -0.479,0.96 0.026,0.613 0.804,0.476 1.439,0.48 -0.121,0.71 -0.229,1.765 -0.72,2.88 0.039,0.281 0.438,0.203 0.72,0.24 0.444,-0.436 0.312,-1.448 0.721,-1.92 0.376,0.104 0.205,0.755 0.96,0.48 -0.191,0.448 -0.401,0.879 -0.48,1.44 0.95,0.016 1.086,1.464 1.2,2.4 0.104,0.356 0.308,-0.095 0.72,0 -0.005,0.661 0.376,2.163 0.96,1.44 0.117,1.448 1.311,2.116 0.72,3.6 0.777,0.296 0.184,-0.777 0.961,-0.48 0.308,0.315 0.308,0.884 0,1.2 0.679,0.041 1.646,-0.206 1.68,0.48 -0.352,0.391 -1.37,1.49 -0.24,1.92 0.652,0.171 -0.172,-1.132 0.48,-0.96 1.171,0.59 -0.608,1.9 0.24,2.64 1.423,0.061 0.131,-1.504 0.72,-1.92 0.85,0.207 -0.146,0.89 0.72,1.2 0.135,1.095 -0.426,1.495 -0.24,2.64 0.634,-0.086 0.863,-0.576 0.721,-1.44 1.427,0.013 -0.023,2.903 1.68,2.64 -0.123,0.677 -0.581,1.02 -0.721,1.68 0.025,0.616 0.895,0.386 1.2,0.72 -0.203,1.882 1.213,4.386 0.24,6 0.56,0.24 1.072,0.527 1.44,0.96 -0.358,0.281 -0.283,0.997 -0.96,0.96 -0.144,0.427 0.703,0.996 0,1.199 0.235,0.673 0.64,-0.348 0.96,0.24 -0.314,0.905 -0.011,1.448 0.72,1.44 -0.409,0.828 -0.963,1.122 -0.24,1.92 -0.761,0.243 0.052,1.328 -1.439,1.2 -0.465,1.915 0.817,1.693 2.64,1.68 0.211,0.771 -0.622,0.498 -0.72,0.96 0.459,0.421 1.251,0.509 1.92,0.72 0.346,-0.054 0.084,-0.716 0.479,-0.72 1.317,0.955 3.427,-0.475 4.801,-0.96 -0.168,0.952 -1.627,0.613 -1.92,1.439 1.115,0.23 2.716,-1.119 3.84,-1.68 0.067,0.388 -0.227,0.413 -0.24,0.721 1.02,-0.632 2.612,0.681 2.64,-0.721 0.8,0 1.601,0 2.4,0 -0.132,0.843 -1.392,0.386 -1.92,0.24 0.219,1.594 3.038,0.377 2.88,-0.72 0.74,0.059 1.356,0.243 1.92,0.479 -1.367,-0.07 -1.808,0.712 -3.12,1.2 0.716,1.017 2.13,-0.089 3.601,0.24 -0.139,-0.582 -0.907,-0.534 -1.44,-0.72 2.291,-0.231 3.334,2.213 6,1.92 -0.085,0.923 0.964,1.798 1.92,1.68 0.067,0.388 -0.227,0.413 -0.24,0.72 1.575,-0.157 0.687,0.721 1.681,0.96 3.188,-2.405 3.101,0.913 3.359,2.641 -0.724,2.076 -2.535,3.064 -4.8,3.6 -0.112,0.512 0.343,0.457 0.72,0.48 0.763,0.342 -1.172,0.342 -1.199,0 -0.012,0.41 0.178,0.621 0.479,0.72 -1.827,2.146 -5.245,3.801 -6.24,6 -1.59,0.098 -2.316,0.909 -3.6,0.72 -0.931,0.3 0.336,1.405 -0.72,1.68 -0.096,0.575 1.093,-0.133 0.72,0.721 -0.557,-0.077 -0.922,0.038 -1.2,0.239 -0.192,0.833 0.357,0.923 0.24,1.681 -1.027,-0.174 -1.4,-1 -2.16,-1.44 -1.277,0.424 -2.812,1.974 -4.32,0.72 0.861,1.109 -0.223,0.199 -0.479,1.2 -0.555,-0.405 -1.299,-0.621 -2.4,-0.479 -0.302,0.059 -0.242,0.477 0,0.479 -5.245,-0.209 -11.562,2.859 -17.76,2.16 -1,1.626 0.785,2.249 0.72,3.84 -0.125,3.048 -3.77,4.567 -5.76,6.24 -4.347,2.214 -8.353,4.768 -12.72,6.96 -3.232,0.208 -4.933,1.948 -7.44,2.88 -0.807,-0.026 -1.27,-0.479 -1.68,0.24 -1.204,0.002 -2.404,0.002 -3.604,0.002 z"
   id="path3"
   style="fill-rule:evenodd" />
</svg>