<?xml version="1.0" encoding="UTF-8" standalone="no"?>
<!-- Created with Inkscape (http://www.inkscape.org/) -->

<svg
   xmlns:svg="http://www.w3.org/2000/svg"
   xmlns="http://www.w3.org/2000/svg"
   version="1.1"
   width="777"
   height="464"
   viewBox="0 0 777 464"
   id="Layer_1"
   xml:space="preserve"><defs
   id="defs49" />
    
    <g
   id="g3">
        
        <g
   id="g5">
            
            <path
   d="m 42,238 c 3.139,-4.563 3.142,-15.089 -4,-15 -2.38,-6.62 -3.98,-14.02 -7,-20 -0.566,-3.1 -4.704,-2.629 -5,-6 1.333,0 2.667,0 4,0 -3.014,-4.62 -4.503,-9.788 -2,-15 0.261,-2.928 -2.261,-3.072 -2,-6 2.356,0.022 2.944,-1.723 6,-1 -1.067,-4.599 -4.269,-7.064 -9,-8 0.279,-2.054 2.671,-1.996 4,-3 -0.198,-3.135 -6.542,-0.125 -6,-4 2.676,-1.498 8.593,0.817 11,-3 0.13,-3.522 -3.579,-2.722 -6,-4 -3.85,-2.032 -7.923,-4.578 -14,-6 4.48,-2.832 9.205,1.474 13,3 4.38,1.761 9.609,2.406 12,6 2.556,-1.662 -3.903,-2.685 -3,-6 2.319,-0.319 3.839,0.161 5,1 3.253,-4.449 1.507,-11.868 -4,-13 -2.386,-5.391 -3.881,-10.471 -7,-15 -3.865,-5.613 -10.069,-7.469 -12,-14 -0.452,-1.528 0.479,-3.481 0,-5 -0.887,-2.812 -3.539,-6.379 -3,-11 6.566,-1.233 7.803,2.864 11,5 15.8,3.977 33.25,8.499 53,6 13.117,-1.659 22.444,-9.601 32,-14 1.793,-0.127 2.109,1.224 4,1 6.256,-2.077 7.755,-8.911 15,-10 2.88,-0.12 1.736,-4.265 5,-4 0.529,0.804 1.043,1.624 1,3 10.061,-3.896 17.978,1.912 26,-3 0.282,1.615 -0.945,1.722 -1,3 5.567,-8.704 13.568,-5.984 17,-15 1.701,-0.368 1.887,0.78 2,2 2.492,-2.841 5.755,-4.912 5,-11 3.045,2.927 1.955,-3.922 5,-4 -0.802,-3.469 1.489,-3.844 1,-7 3.928,-3.072 10.216,-3.784 13,-8 3.414,2.027 2.265,-0.341 5,-2 1.888,-1.145 5.32,0.723 7,-4 2.671,-0.092 5.755,-0.533 7,-1 3.496,-1.311 9.188,0.095 15,-2 1.183,-0.426 3.896,-2.993 4,-3 0.839,-0.054 3.618,1.677 5,2 2.007,0.469 4.386,0.854 6,1 4.69,0.422 10.513,-1.684 16,-1 1.007,0.125 5.49,2.574 8,3 6.525,1.107 13.165,1.099 20,-1 4.613,-5.054 9.597,-9.737 15,-14 3.471,1.799 5.549,-1.085 8,-3 4.896,1.406 11.041,-2.373 14,-6 1.701,-0.368 1.887,0.78 2,2 2.947,0.318 3.042,-3.731 6,-4 1.22,-0.111 3.334,1.886 3,2 2.859,-0.976 3.963,-2.928 7,-5 2.689,-0.689 1.933,2.067 3,3 5.57,-4.352 9.585,2.032 15,-2 0,1 0,2 0,3 6.54,-4.25 14.385,-1.003 22,-4 2.217,-0.55 1.424,1.91 3,2 7.711,-1.852 10.472,1.721 17,-1 1.8,-1.282 1.757,1.974 2,2 1.528,0.166 3.803,-1.913 6,-2 1.272,-0.05 1.611,1.921 3,2 -1.203,-0.068 10.063,0.444 11,0 0.243,-0.115 0.883,-1.979 1,-2 0.967,-0.177 1.935,2.211 4,2 0.755,-0.077 1.016,-2.054 3,-2 5.836,0.159 9.466,1.313 14,3 0.852,0.317 2.182,-0.388 3,0 0.341,0.162 0.758,1.927 1,2 1.516,0.459 2.915,-1.015 3,-1 1.089,0.192 0.728,1.759 2,2 1.92,0.364 4.098,-0.437 6,0 1.459,0.334 2.492,1.738 4,2 4.759,0.827 9.902,0.035 15,1 0.529,0.804 1.043,1.624 1,3 7.73,-0.053 12.25,3.415 20,2 -0.246,3.575 4.441,2.621 6,4 0.482,0.427 -0.361,2.442 0,3 -0.005,-0.008 1.897,0.895 2,1 0.238,0.244 0.759,1.886 1,2 2.124,1.006 3.561,0.399 4,4 3.059,-0.725 2.941,1.725 6,1 -2.124,4.209 6.249,5.447 7,10 1.667,0 3.333,0 5,0 2.033,6.977 9.714,13.605 17,12 4.309,12.358 16.641,16.693 20,30 5.118,5.882 13.569,8.431 19,14 0.65,7.672 6.239,11.837 11,18 5.391,6.978 7.394,13.059 16,16 0.896,2.104 0.031,5.969 4,5 0.282,1.615 -0.945,1.722 -1,3 1.402,1.598 3.445,2.555 6,3 -0.292,4.959 2.041,7.292 7,7 -1.842,1.753 -0.12,3.474 3,3 -2.479,3.389 3.011,3.471 4,5 1.254,1.937 -0.031,2.239 2,4 1.043,0.904 2.794,4.335 6,4 0.574,4.092 4.604,4.729 5,9 6.268,1.732 8.602,7.399 17,7 0,1.333 0,2.667 0,4 4.28,0.062 5.336,4.773 8,7 3.84,3.21 9.635,4.956 12,10 5.433,-1.1 5.185,3.482 11,2 1.882,4.785 5.406,7.927 9,11 1.173,2.965 -0.05,2.519 2,5 0.972,1.176 3.606,6.57 7,6 0.429,1.904 2.154,2.512 2,5 3.438,0.438 5.605,-0.395 8,-1 2.086,4.197 9.608,3.85 7,10 1.667,0 3.333,0 5,0 -1.222,3.42 6.635,5.555 11,6 -0.527,3.502 2.18,3.696 3,8 3.449,-1.679 4.429,-0.027 9,-1 -1.069,5.402 2.991,5.676 6,7 -3.442,5.197 2.92,12.216 -3,18 0.604,2.396 1.438,4.563 1,8 -1.615,0.282 -1.722,-0.945 -3,-1 -2.355,4.979 -8.36,6.307 -11,11 -0.933,-0.611 -3.688,-2.327 -3,1 -4.229,-2.307 -7.659,0.573 -11,2 -1.794,0.127 -2.109,-1.224 -4,-1 -3.61,0.057 -4.841,2.493 -8,3 -0.904,-2.096 -5.645,-0.355 -6,-3 -1.045,2.622 -5.285,2.048 -6,5 -3.938,-2.625 -7.355,-2.918 -12,-2 -1.491,0.295 -3.339,1.979 -5,2 -4.401,0.057 -8.7,-2.804 -14,-2 -1.076,-2.591 -3.615,-3.718 -4,-7 -4.986,1.496 -13.139,-0.274 -14,-6 -8.719,15.501 -5.605,42.819 -7,64 -0.307,4.663 0.92,9.434 -1,13 -1.26,2.34 -3.46,4.568 -5,7 -1.568,2.477 -2.58,5.774 -5,7 -0.365,9.302 -3.146,16.188 -9,20 -19.731,-3.163 -38.102,1.929 -52,-6 -1.316,-19.316 5.785,-30.215 21,-33 2.529,-8.097 0.338,-14.796 1,-22 0.524,-5.706 5.297,-10.228 4,-17 -0.351,-3.315 -5.764,-1.569 -9,-2 -5.722,-7.278 -16.294,-9.706 -21,-18 -9.98,-0.687 -18.63,-2.703 -23,-9 -7.969,-0.031 -12.765,-3.235 -16,-8 -9.493,0.16 -12.983,-5.684 -21,-7 0.045,-3.045 -2.111,-3.889 -3,-6 -3.078,-0.7 -1.922,-0.7 -5,0 -3.372,-9.961 -11.729,-14.938 -16,-24 -3.254,3.896 -8.885,2.415 -13,4 -6.614,2.548 -11.043,7.479 -16,11 -6.505,0.162 -11.928,1.405 -15,5 -9.002,0.332 -20.517,-1.85 -23,5 -1.133,5.155 2.093,7.124 2,11 -0.139,5.808 -5.201,10.351 -5,16 0.092,2.57 0.909,1.608 2,4 0.682,1.494 0.361,3.763 1,5 2.266,4.39 5.457,8.745 9,14 2.721,4.035 6.455,5.17 5,14 -5.141,5.526 -8.185,13.148 -12,20 -4.885,4.353 -10.919,7.601 -17,12 -11.346,8.209 -21.068,19.094 -37,20 -4.213,0.24 -9.228,-1.551 -15,-2 -10.067,-0.783 -22.024,1 -29,-4 -5.866,2.14 -11.774,0.296 -16,-2 -0.97,1.696 -2.764,2.569 -6,2 0.65,1.017 2.299,1.034 2,3 -5.918,2.146 -3.362,7.098 -9,10 -0.813,3.458 1.867,4.222 0,6 -3.21,-0.832 -2.073,-0.852 -4,1 -0.514,3.229 -0.628,8.058 2,10 -0.112,2.555 -3.349,1.984 -6,2 -1.493,1.611 0.862,5.014 0,9 -6.949,-0.948 -6.649,5.351 -11,7 -10.348,-0.015 -20.21,0.456 -26,5 -6.252,0.547 -11.768,-0.745 -17,0 -2.87,0.409 -5.104,2.057 -8,2 -3.177,-0.063 -5.016,-2.513 -8,-3 -4.31,-0.704 -9.574,3.236 -13,-1 0.163,-1.163 -0.221,-1.779 -1,-2 1.867,-3.918 1.633,-8.766 3,-12 1.117,-2.644 3.686,-5.457 6,-7 2.274,-1.516 3.777,-0.34 7,-2 4.249,-2.188 8.313,-5.174 12,-8 0.471,-7.246 -1.97,-11.253 2,-15 -0.354,-1.567 -1.761,0.875 -2,-1 -0.044,-3.045 2.111,-3.889 3,-6 0.368,-1.701 -0.78,-1.887 -2,-2 -1.13,-3.485 2.942,-1.898 3,-4 0.029,-1.064 -2.693,-0.957 -2,-3 0.471,-1.388 2.841,-0.747 3,-3 -0.804,0.529 -1.624,1.043 -3,1 -1.146,-3.146 1.57,-2.43 2,-4 -0.437,-1.484 -1.28,0.395 -3,0 2.712,-3.479 -0.986,-7.152 4,-8 -0.283,-1.173 -4.405,-4.155 0,-4 -0.013,-3.078 -4.339,-7.579 0,-9 -0.691,-2.497 -2.667,1.855 -5,1 -0.748,-5.081 0.998,-7.669 4,-9 -4.335,-0.142 0.041,-4.54 0,-5 -0.159,-1.808 -1.931,-2.303 -2,-4 -0.231,-5.702 0.258,-11.954 3,-16 -2.813,0.188 -4.26,1.739 -4,5 -4.869,-0.868 -6.298,1.701 -7,5 -5.124,-0.457 -4.142,5.191 -9,5 1.624,5.29 -4.203,3.131 -3,8 -4.448,-0.781 -6.391,0.942 -6,5 -2.09,0.424 -2.648,-0.686 -4,-1 -1.92,1.413 -1.81,4.857 -3,7 -1.985,-3.265 -2.288,3.538 -4,0 -2.626,0.707 -1.974,4.693 -4,6 -5.842,-3.338 -4.745,5.925 -9,1 -1.823,6.511 -10.102,6.565 -11,14 -1.479,-0.521 -2.521,-1.479 -4,-2 -1.558,4.396 -6.834,0.285 -7,7 -3.206,-0.872 -3.127,1.539 -4,3 -1.615,0.282 -1.722,-0.945 -3,-1 -0.736,2.931 -4.414,2.919 -5,6 -2.076,-2.165 -3.409,-0.055 -4,2 -2.85,-2.971 -7.19,-0.489 -9,3 -1.301,-4.176 -3.727,-0.355 -8,0 -1.007,0.084 -3.456,-0.864 -3,-1 -5.631,1.682 -8.137,7.891 -13,6 1.581,5.581 -5.952,2.048 -4,8 -5.987,1.026 -9.705,10.531 -11,18 -5.224,2.109 -4.369,10.298 -10,12 0,3.667 0,7.333 0,11 -5.741,10.711 -12.575,25.264 -28,23 -2.746,-6.921 -4.46,-14.873 -9,-20 2.332,-13.476 1.089,-24.336 2,-39 3.049,-3.618 5.824,-7.51 6,-14 6.694,-6.634 5.333,-17.086 8,-26 0.532,-1.777 2.44,-2.531 3,-4 1.182,-3.103 0.842,-5.719 2,-8 2.545,-5.017 8.358,-10.378 12,-16 -4.6,-12.902 9.673,-14.772 11,-25 l 1.5,0.5 0.5,-1.5 c 3.165,0.111 0.505,-7.985 1,-10 0.876,-3.567 7.028,-7.332 7,-13 -1.32,-4.091 -4.473,-7.936 -7,-12 -2.662,-4.282 -3.154,-9.967 -10,-10 -0.521,1.479 -1.479,2.521 -2,4 l -1.5,-0.5 -0.5,1.5 c -1.71,-0.044 -2.59,0.743 -3,2 L 97.5,270.5 96,270 c -0.804,0.529 -1.624,1.043 -3,1 v -2.5 l -2,1.5 c -2.86,-2.953 -1.829,2.41 -2,5 l -2,-0.5 -2,-0.5 c 0,-2 0,-4 0,-6 -4.125,-0.125 -6.262,1.738 -11,1 -4.339,-4.327 -9.309,-8.024 -16,-10 -2.168,-0.169 -0.453,3.547 -1,5 L 54.5,263.5 52,263 c -0.5,-3.146 2.18,-3.909 0,-6 -0.333,0 -0.667,0 -1,0 l -1,-0.5 -1,0.5 c 0.163,-1.163 -0.221,-1.779 -1,-2 l 0.5,-1.5 -1.5,0.5 c -1.333,0 -2.667,0 -4,0 L 42.5,252.5 41,253 c -0.21,-1.711 1.705,-2.59 0,-3 v -1 h -1 c 1.151,-1.182 1.132,-3.535 1,-6 v -1 h -1 c 0.19,-0.81 1.003,-0.997 1,-2 l 3.5,0.5 L 42,238 z m 304,68 c 1.759,0.241 2.279,1.721 2,4 1.772,0.228 5.008,-1.008 4,2 -5.58,-1.246 -5.077,3.59 -9,4 0.889,0.294 4.378,2.706 2,3 -1.667,0 -3.333,0 -5,0 0.337,3.329 4.083,3.25 4,7 -4.263,-1.694 -3.54,2.494 -5,3 -1.01,0.351 -2.396,-2.154 -3,0 5.391,1.223 0.229,3.797 1,6 0.864,2.469 3.645,-1.062 3,3 -1.496,0.171 -3.69,-0.357 -4,1 1.257,0.41 2.043,1.29 2,3 -4.53,-1.53 0.53,6.53 -4,5 0.938,4.003 2.704,5.943 0,9 5.479,0.188 9.482,1.852 14,3 10.733,-5.268 22.593,-9.407 31,-17 1.212,-8.746 -1.68,-10.354 -4,-15 -1.406,-2.816 -1.749,-5.996 -3,-8 -2.318,-3.713 -6.104,-6.348 -8,-10 -1.5,-2.891 -1.286,-6.23 -4,-9 -1.129,5.537 -11.133,2.2 -14,6 z"
   id="path7"
   style="fill-rule:evenodd" />
            
            <g
   id="g9">
                
                <path
   d="m 97.5,270.5 c 0.285,0.117 0.569,0.234 0.854,0.352 6.754,12.616 6.522,29.194 7.146,43.648"
   id="path11"
   style="fill:none;stroke:#000000;stroke-width:1.81219995;stroke-linecap:round" />
                
                <path
   d="m 96.5,320.5 c 3.533,-16.34 1.163,-33.608 1,-50"
   id="path13"
   style="fill:none;stroke:#000000;stroke-width:1.84389997;stroke-linecap:round" />
                
                <path
   d="m 91,320 c 5.667,-16.184 -0.955,-35.365 2,-51.5"
   id="path15"
   style="fill:none;stroke:#000000;stroke-width:1.97739995;stroke-linecap:round" />
                
                <path
   d="m 87,277 c 3.864,11.635 -0.658,24.217 -4,35.5"
   id="path17"
   style="fill:none;stroke:#000000;stroke-width:1.68610001;stroke-linecap:round" />
                
                <path
   d="m 78,309 c 4.752,-10.173 4.946,-21.894 9,-32"
   id="path19"
   style="fill:none;stroke:#000000;stroke-width:1.80280006;stroke-linecap:round" />
                
                <path
   d="m 87,277 c 0,-0.649 0,-1.618 0,-2.5"
   id="path21"
   style="fill:none;stroke:#000000;stroke-width:4.0619998;stroke-linecap:round" />
                
                <path
   d="M 54.022,266.195 C 57.105,274.517 53.432,282.514 54,291"
   id="path23"
   style="fill:none;stroke:#000000;stroke-width:4.23729992;stroke-linecap:round" />
                
                <path
   d="m 54,291 c 3.787,7.587 6.712,15.494 11,23"
   id="path25"
   style="fill:none;stroke:#000000;stroke-width:1.70039999;stroke-linecap:round" />
                
                <path
   d="m 54,291 c -4.524,14.043 0.868,28.905 8.5,40.5"
   id="path27"
   style="fill:none;stroke:#000000;stroke-width:1.71739995;stroke-linecap:round" />
                
                <path
   d="m 45,318 c -1.333,-17.011 1.299,-36.622 9.022,-51.805"
   id="path29"
   style="fill:none;stroke:#000000;stroke-width:1.86170006;stroke-linecap:round" />
                
                <path
   d="m 54.022,266.195 c 0.266,-0.786 0.368,-1.768 0.478,-2.695"
   id="path31"
   style="fill:none;stroke:#000000;stroke-width:5.14779997;stroke-linecap:round" />
                
                <path
   d="m 40,334.5 c -4.49,-26.483 0.395,-53.317 10,-78"
   id="path33"
   style="fill:none;stroke:#000000;stroke-width:1.75960004;stroke-linecap:round" />
                
                <path
   d="m 32,311 c -2.378,-20.787 5.613,-40.522 16.5,-57.5"
   id="path35"
   style="fill:none;stroke:#000000;stroke-width:1.81369996;stroke-linecap:round" />
                
                <path
   d="m 21.5,324.5 c -7.279,-26.016 4.934,-52.219 21,-72"
   id="path37"
   style="fill:none;stroke:#000000;stroke-width:1.71169996;stroke-linecap:round" />
                
                <path
   d="M 7,285 C 17.182,271.921 27.908,259.431 41,249"
   id="path39"
   style="fill:none;stroke:#000000;stroke-width:1.47899997;stroke-linecap:round" />
                
                <path
   d="m 4,267 c 8.512,-12.781 21.858,-21.859 37,-25"
   id="path41"
   style="fill:none;stroke:#000000;stroke-width:1.58829999;stroke-linecap:round" />
                
                <path
   d="m 5.5,250.5 c 10.563,-7.751 25.709,-14.048 39,-10"
   id="path43"
   style="fill:none;stroke:#000000;stroke-width:1.85109997;stroke-linecap:round" />
                
                <path
   d="m 102.5,266.5 c 7.079,13.019 8.793,28.546 12,43"
   id="path45"
   style="fill:none;stroke:#000000;stroke-width:1.78620005;stroke-linecap:round" />
                
            </g>
            
        </g>
        
    </g>
    
</svg>