<?xml version="1.0" encoding="UTF-8" standalone="no"?>
<!-- Created with Inkscape (http://www.inkscape.org/) -->

<svg
   xmlns:svg="http://www.w3.org/2000/svg"
   xmlns="http://www.w3.org/2000/svg"
   version="1.1"
   width="595.28003"
   height="841.89001"
   viewBox="0 0 595.28 841.89"
   id="svg2"
   xml:space="preserve"><defs
   id="defs17" />
<g
   id="Layer_1"
   style="display:none">
	<path
   d="M 813.741,290.677"
   id="path5"
   style="fill:none;display:inline" />
	<path
   d="M 227.998,462.326 C 251.893,434.003 255,401.659 294,333.659 c 39,-68 86,-106 115,-130 29,-24 120,-82 149,-85 29,-3 46,-2 73,-5 27,-3 97,-12 116,-23 19,-11 54.28,-34 54.28,-34 0,0 -14.561,-17 -7.28,-29 7.281,-12 13,-26 28,-27 15,-1 33,-3 40,13 7,16 11,24 11,24 l 23,3 c 0,0 -4,-9 0,-18 4,-9 16,-19 26,-16 10,3 27,11 32,25 5,14 9,35 9,35 l 43,18 c 0,0 19,5 39,27 20,22 43,51 50,65 7,14 18,22 13,33 -5,11 -13,19.341 -21,21.67 -8,2.329 -23,21.33 -56,19.33 -4.115,-0.25 -39.001,13 -47.001,9 0,0 -26.999,-8 -43.999,-4 -17,4 -17,12 -9,17 8,5 21.668,15.118 28,7 12.999,-16.667 44.999,-22.333 54.999,-13.333 1.566,1.41 11.919,11.593 11.333,14.667 -0.793,4.166 -12.763,1.405 -10.666,3.333 5.075,4.667 7.383,11.44 2.334,13.333 -8,3 -14.334,-4.667 -14.334,-4.667 0,0 -9.666,-6.333 -10.666,5.667 -1,12 -3.001,19.333 -12.001,20.333 -9,1 -28.999,0.667 -28.999,0.667 0,0 -30,19 -62,23 -32,4 -62,6 -62,6 l -37,17 c 0,0 16,21 26,32 10,11 31,30 35,40 4,10 9,70 9,70 l -5,-5 -2,5 c 0,0 -8,-1 -11,-6 -3,-5 -2.588,-21.313 -5,-28 -1.341,-3.719 -9,-13 -9,-13 l 3,32 c 0,0 -16,-23 -18,-28 -2,-5 -11.72,-6 -11.72,-6 l -5.28,-12 c 0,0 -18.731,-16.879 -26,-21 -13.207,-7.488 -57,-20.946 -57,-20.946 0,0 -81.575,18.321 -96,39.946 -4.023,6.031 0,29 0,29 l -8,-6 -3,13 -4,-6 -16,18 -5,-6 -16,28 c 0,0 -18,78 -39,88 -21,10 -3,26 -3,26 l 53,37 30,5 28,9 h -25.5 l -4,6 -11.5,-2.5 -18.5,-1 -6,7 -11,-2.5 -13.5,-0.5 0.5,3 -17.5,-2.5 -3,8.5 -13.5,-5.5 -14.5,-6.5 -3.5,7.5 -17,-8.5 c 0,0 -26,-22 -41.5,-36.5 -15.5,-14.5 -25,-34 -24,-36.5 1,-2.5 -12.5,3 -12.5,3 l 4,-18 c 0,0 -23.5,15.5 -23.5,14 0,-1.5 -1,-15.5 -1,-15.5 l -24,11 -3,-17 -21.5,3.5 1,-10.5 -28.5,7.5 -1,-12 -30,9.5 -3,-16.5 -28.5,10.5 4.5,-22.5 c 0,0 -25.5,8.5 -22,7.5 3.5,-1 10.5,-17 10.5,-17 l -31,10 5.5,-8 c 0,0 -125,6 -178,-5 -53,-11 -274,-71 -294,-80 -20,-9 -203,-75 -247,-86 -44,-11 -85,-21 -89,-23 -4,-2 -5,-7.08 -5,-7.08 0,0 10,-11.08 57,0 47,11.08 199,53.134 227,62.08 28,8.946 183,53 211,60 28,7 125.999,32 215,33 17.028,0.191 77,-7 77,-7 0,0 39.514,-23.277 47.998,-33.333 z"
   id="path7"
   style="stroke:#000000;stroke-width:3;stroke-miterlimit:10;display:inline" />
</g>
<g
   id="Layer_2"
   style="display:none">
	<path
   d="m -144.534,419.061 c 0,0 -5.667,1.4 -1.908,10.685 3.76,9.285 16.932,7.575 16.932,7.575 0,0 2.95,2.44 14.929,3.623 11.979,1.182 29.957,-8.474 33.895,-7.771 3.938,0.703 9.844,1.758 16.876,0.305 7.031,-1.453 31.173,-3.913 31.173,-3.913 0,0 -5.953,3 -9.282,6.469 -2.094,2.182 -5.951,6.73 -8.524,9.804 -1.516,1.812 -2.586,3.109 -2.586,3.109 l 0.092,3.274 c 0,0 9.937,5.03 13.782,2.461 3.845,-2.57 12.119,-7.188 12.119,-7.188 l -10.102,11.063 c 0,0 12.211,-3.914 16.5,-5.18 4.289,-1.266 20.673,-5.789 23.416,-5.977 2.743,-0.188 12.493,-9.281 12.493,-9.281 0,0 18.728,1.313 31.361,-1.172 12.634,-2.484 52.059,-18.469 54.965,-23.367 2.906,-4.898 13.126,-16.617 31.244,-19.477 18.118,-2.859 98.841,-7.406 103.248,-9.327 4.406,-1.921 26.393,-7.476 41.018,-2.155 14.625,5.321 34.408,19.689 46.409,24.542 12,4.853 37.665,12.821 48.213,10.642 10.548,-2.18 34.75,-12.561 34.75,-12.561 l -22.28,14.788 c 0,0 0.913,6.257 -0.985,9.305 -1.898,3.048 -7.549,8.133 -3.117,13.665 4.43,5.531 6.468,9.281 9.328,8.438 2.859,-0.843 15.177,-0.676 15.177,-0.676 l -7.277,-9.426 6.095,3.796 6.911,-0.797 -5.016,-11.857 3.494,1.428 1.056,-5.906 c 0,0 2.978,-1.5 4.992,-5.203 2.016,-3.704 4.926,-4.825 19.187,-12.631 14.261,-7.807 25.488,-21.377 25.301,-24.12 -0.187,-2.742 -7.71,-6.118 -7.71,-6.118 l -10.104,-7.899 15.916,-1.897 -3.892,-4.758 9.927,-2.291 -4.043,-4.108 13.29,-2.367 -6.282,-6.54 8.156,-3.961 0.601,-3.36 1.041,-5.828 7.875,1.406 -9.867,-9.211 15.751,2.813 -8.742,-11.719 25.432,-9.679 c 0,0 33.607,-6.188 66.376,-15.234 32.768,-9.047 123.312,-38.25 148.04,-43.992 24.728,-5.742 87.498,-12.139 129.125,-10.123 41.627,2.016 100.247,3.682 114.498,3.518 14.25,-0.164 34.992,-2.554 34.924,-5.952 -0.069,-3.399 -32.463,-7.83 -49.222,-8.791 -16.759,-0.961 -121.867,-7.021 -147.312,-9.379 -47.301,-4.384 -135.008,16.522 -148.11,21.631 -13.102,5.109 -97.786,28.031 -112.367,30.045 -14.581,2.015 -48.022,-0.327 -48.022,-0.327 0,0 -48.168,-22.269 -73.528,-28.153 -25.361,-5.884 -89.781,-36.895 -193.16,-25.693 -73.304,7.943 -60.352,9.538 -109.117,25.886 -48.765,16.348 -81.066,22.768 -93.043,25.37 -11.977,2.602 -60.238,33.938 -60.238,33.938 0,0 -3.188,-8.696 -1.055,-13.055 2.133,-4.36 3.891,-14.204 0.844,-16.103 -3.047,-1.898 -23.321,-2.132 -28.244,6.469 -4.922,8.602 -1.402,15.437 -0.232,24.055 1.169,8.618 -6.894,23.431 -6.894,23.431 0,0 -18.61,16.993 -23.251,20.228 -4.641,3.234 -10.501,17.087 -10.501,17.087 0,0 -8.227,19.524 -15.071,23.72 -6.844,4.195 -15.423,6.727 -19.642,11.391 -4.223,4.664 -6.026,18.563 -6.026,18.563 z"
   id="path10"
   style="display:inline" />
</g>
<g
   id="Layer_3">
	<path
   d="m 529.247,931.332 c 39.852,-20.698 119.745,-46.238 175.972,-36.058 56.226,10.182 102.634,27.336 145.582,20.974 42.947,-6.362 90.714,-38.353 112.134,-41.036 21.419,-2.685 52.111,-7.371 72.973,-14.14 20.861,-6.77 72.604,-38.324 102.86,-39.034 30.258,-0.711 77.755,6.503 97.867,15.747 20.113,9.245 41.453,25.666 47.976,30.404 6.523,4.738 27.754,22.152 37.817,31.303 10.063,9.149 38.158,37.376 43.795,41.012 5.639,3.635 21.014,19.402 21.354,25.476 0.342,6.073 -7.256,20.331 -14.759,24.539 -7.503,4.208 -23.952,7.437 -23.952,7.437 0,0 2.111,8.279 -3.186,10.717 -5.297,2.438 -38.957,15.854 -56.85,13.894 -17.894,-1.959 -60.065,6.5 -79.605,10.396 -19.54,3.896 -55.188,17.093 -74.265,35.123 -19.077,18.031 -74.658,66.267 -91.42,81.533 -16.761,15.266 -45.314,46.342 -46.185,54.294 -0.871,7.953 -11.503,59.1 -7.512,68.59 3.99,9.491 5.122,26.717 5.122,26.717 0,0 21.964,-7.654 31.469,-2.59 3.528,1.88 6.662,4.826 9.21,7.788 4.313,5.017 6.941,10.077 6.941,10.077 l -14.258,-7.598 4.439,14.57 c 0,0 -5.311,-6.618 -12.937,-10.471 l -10.376,2.888 3.432,5.405 c 0,0 18.343,7.039 28.951,11.219 10.607,4.18 20.439,6.262 24.865,11.776 4.426,5.514 8.308,16 8.308,16 0,0 -8.511,-4.956 -13.372,-6.495 -4.861,-1.538 -9.832,-2.082 -9.832,-2.082 l 5.312,6.617 c 0,0 -6.958,-0.762 -17.894,-1.959 -10.935,-1.198 -40.553,-15.508 -40.553,-15.508 l -17.675,-3.947 -22.755,-3.498 c 0,0 -2.561,-13.358 -6.537,-13.794 -3.977,-0.435 -40.32,-8.439 -39.559,-15.397 0.762,-6.959 -4.621,-58.853 -4.621,-58.853 0,0 -31.417,-34.626 -87.723,-25.703 -56.307,8.924 -95.496,17.709 -122.865,28.796 -27.369,11.086 -65.863,41.073 -84.068,51.151 -18.205,10.078 -53.328,20.315 -53.328,20.315 0,0 31.516,13.512 46.427,15.145 14.911,1.633 25.055,-8.322 31.578,-3.584 6.522,4.738 21.557,14.433 26.868,21.05 0.975,1.216 1.838,2.521 2.599,3.841 3.38,5.869 4.715,12.05 4.715,12.05 0,0 -0.341,-6.073 -22.863,-2.503 -22.522,3.568 -52.889,5.273 -60.841,4.402 -7.953,-0.871 -57.655,-6.314 -57.655,-6.314 0,0 -47.772,-41.446 -51.081,-38.791 -3.309,2.655 -27.492,3.024 -42.526,-6.669 -15.034,-9.694 -37.831,-40.358 -33.746,-40.917 4.085,-0.559 8.932,-8.076 12.227,-19.787 3.295,-11.711 -24.742,-3.716 -24.742,-3.716 l 14.541,-22.551 -12.8,6.646 8.142,-19.229 -16.108,9.302 c 0,0 -37.391,29.103 -36.846,24.133 0.544,-4.971 1.742,-15.905 1.742,-15.905 l -25.571,31.403 1.851,-16.899 -25.585,22.348 1.089,-9.94 -16.312,20.345 1.524,-13.917 -34.067,35.503 9.789,-25.084 -64.528,47.256 13.983,-26.636 -49.863,32.767 12.227,-19.786 -61.248,26.489 16.203,-19.352 c 0,0 -55.625,21.07 -94.828,20.801 -39.203,-0.269 -130.643,-1.229 -153.397,-4.728 -22.754,-3.499 -118.075,-14.943 -154.419,-22.947 -36.344,-8.004 -35.474,-15.957 -35.474,-15.957 l 26.513,5.922 -9.737,-12.132 62.517,7.853 -14.04,-9.586 55.885,4.108 -5.093,-8.605 38.659,5.239 4.738,-6.522 c 0,0 64.267,1.159 85.583,-0.688 23.025,-1.994 68.664,-10.01 91.193,-15.162 23.489,-5.372 69.49,-19.935 92.499,-27.091 29.378,-9.139 116.886,-38.505 116.886,-38.505 l -39.53,2.713 47.999,-24.923 -12.814,-2.409 56.37,-21.994 -22.941,1.512 c 0,0 65.537,-38.092 61.56,-38.527 -3.977,-0.435 -29.481,2.808 -29.481,2.808 l 69.404,-36.663 -12.705,-3.403 c 0,0 13.576,-4.549 32.435,-20.591 18.858,-16.043 37.144,-45.226 62.838,-68.567 25.69,-23.344 57.831,-48.155 79.965,-59.651 z"
   id="path13" />
</g>
</svg>