<?xml version="1.0" encoding="UTF-8" standalone="no"?>
<!-- Created with Inkscape (http://www.inkscape.org/) -->

<svg
   xmlns:svg="http://www.w3.org/2000/svg"
   xmlns="http://www.w3.org/2000/svg"
   version="1.1"
   width="1547"
   height="783"
   viewBox="0 0 1547 783"
   id="Layer_1"
   xml:space="preserve"><defs
   id="defs15" />
    
    <g
   id="g3">
        
        <g
   id="g5">
            
            <path
   d="m 0,185 c 5.285,-4.382 9.687,-9.647 17,-12 1.352,-0.982 1.999,-2.668 3,-4 7.207,-1.793 12.376,-5.624 19,-8 11.771,-12.099 29.52,-17.487 43,-28 9.809,-7.65 18.819,-20.362 30,-30 0.692,-0.596 2.289,-0.354 3,-1 8.532,-7.748 16.728,-16.792 26,-25 2.177,-1.927 4.189,-2.911 6,-5 3.439,-3.969 8.603,-10.22 12,-16 1.041,-1.771 1.642,-4.531 3,-6 1.902,-2.058 5.998,-1.512 6,-5 1.163,-0.163 1.779,0.221 2,1 8.208,-4.792 14.435,-11.565 23,-16 1.484,0.437 -0.395,1.28 0,3 6.946,0.279 8.514,-4.819 13,-7 3.147,-0.088 8.18,-0.98 10,-5 -0.36,3.937 6.786,0.233 10,-1 1.023,-2.14 0.031,-0.631 2,-1 1.131,-0.212 0.559,-0.986 0,-1 1.539,-1.174 5.862,-3.026 6,0 3.093,-0.344 5.807,-5.084 8,-6 0.528,-0.221 4.67,3.222 2,0 2.213,-1.148 4.975,1.154 8,-1 2.63,-1.873 6.982,-6.385 13,-4 -0.027,-0.973 -1.224,-0.776 -2,-1 1.402,-2.913 3.445,1.773 6,1 6.133,-4.806 13.074,-1.611 22,-4 1.701,-0.455 2.644,-1.834 4,-2 2.131,-0.261 4.673,0.973 7,1 3.074,0.036 5.553,-1.221 8,-1 2.072,0.188 1.244,1.814 2,2 7.577,1.863 17.771,-0.097 26,1 2.172,0.29 1.378,1.586 3,2 4.512,1.151 9.712,-0.327 14,1 2.88,1.674 -5.11,0.796 -7,1 2.53,2.472 14.309,-0.104 12,4 3,0 6,0 9,0 -0.162,1.172 -1.823,0.843 -3,1 1.008,3.896 3.442,0.155 7,1 6.073,1.593 10.542,4.791 17,6 0.256,-2.985 2.884,-0.944 7,-2 -2.423,3.15 0.192,0.596 3,2 0.432,0.216 2.396,2.592 4,3 4.083,1.039 9.915,0.016 15,1 0.37,0.072 -2.429,1.824 -3,1 1.672,2.411 11.593,0.914 11,-1 0.734,3.6 8.266,0.4 9,4 3.156,0.489 3.531,-1.802 7,-1 0.368,1.701 -0.78,1.887 -2,2 1.386,2.28 6.96,0.373 10,1 -0.027,0.973 -1.224,0.776 -2,1 0.92,2.726 3.126,-1.397 6,0 -0.162,-1.172 -1.823,-0.844 -3,-1 0.847,-2.931 3.22,0.598 5,0 1.151,-0.109 0.536,-1.104 0,-1 7.302,-1.418 17.339,1.618 25,-1 -0.027,-0.973 -1.224,-0.776 -2,-1 0.85,-2.934 2.517,1.301 5,0 1.72,-1.468 -1.299,-2.111 3,-1 1.567,-0.354 -0.875,-1.761 1,-2 1,0 2,0 3,0 2.557,-0.044 1.219,0.743 1,2 3.129,-0.204 7.341,0.674 9,-1 3.775,3.621 10.409,-0.52 15,-2 0.315,3.331 4.74,-3.011 4,2 3.105,-0.693 10.594,-3.646 18,-4 2.838,-0.135 6.187,-1.57 5,-2 3.45,1.25 0.529,2.376 0,4 0.791,-1.13 14.647,-0.89 11,2 4.47,0.271 3.843,-4.55 8,-2 -0.496,-2.091 3.182,-1.758 5,-4 -0.489,3.836 6.388,-1.066 11,-1 -3.321,-3 -0.57,-1.111 3,-1 0.146,-0.59 -1.441,-1.254 -2,-1 3.209,-1.458 13.818,-0.81 18,0 -0.296,-1.734 3.848,-2.007 6,-2 1.135,-0.19 0.555,-1.003 0,-1 4.381,-2.5 7.977,-0.07 11,-3 2.739,0.51 0.871,2.419 5,3 6.823,-1.177 12.982,-3.018 20,-4 -0.19,0.81 -1.003,0.997 -1,2 4.294,-0.039 7.363,-1.304 10,-3 6.439,2.721 11.879,-1.459 18,-2 3.605,-0.318 7.393,1.33 11,1 6.237,-0.57 12.093,-4.544 19,-5 5.801,-0.382 11.337,2.308 18,1 0.168,-2.168 -3.547,-0.453 -5,-1 -0.731,-1.903 3.758,-1.172 5,-1 0.109,0.015 3.034,0.685 4,1 0.75,0.245 -2.071,1.306 -2,1 -0.476,2.034 7.189,0.475 6,1 0.145,2.812 -2.449,2.884 -5,3 4.31,3.69 14.666,1.334 22,2 -0.027,0.973 -1.224,0.776 -2,1 4.207,1.793 10.132,1.868 13,5 6.361,-1.143 17.84,-1.928 23,-1 -0.745,2.255 -5.609,0.391 -8,1 5.599,2.068 14.925,0.408 21,2 1.135,-0.19 0.556,-1.003 0,-1 7.322,-0.037 21.59,0.086 31,-1 -0.31,-1.357 -2.504,-0.83 -4,-1 -1.667,0 -3.333,0 -5,0 -1.824,-0.777 0.6,-1.075 2,-1 1.667,0 3.333,0 5,0 3.804,2.132 6.578,-0.055 10,-1 2.041,-1.105 1.442,1.743 2,2 2.224,1.025 8.229,-1.631 5,2 2.965,-2.369 9.01,-1.657 13,-3 -2.306,4.561 6.049,-0.374 8,2 1.135,-0.19 0.556,-1.003 0,-1 3.178,-2.46 10.422,-0.46 14,0 -0.769,-3.384 6.628,-1.392 11,-2 6.127,-0.853 12.633,-4.511 20,-3 -3.313,3.432 5.029,0.847 4,5 1.602,-2.269 4.949,-0.367 7,-1 1.321,-0.408 0.198,-1.135 0,-1 1.43,-0.974 4.917,-2.316 7,-3 1.444,-0.474 3.184,-0.064 3,0 3.832,-1.337 10.825,-4.39 18,-6 -0.437,1.23 -1.279,2.054 -3,2 5.151,2.45 15.47,-3.829 22,0 6.445,-5.222 21.647,-1.686 30,-5 21.333,0 42.667,0 64,0 6.458,2.208 17.16,0.173 24,2 -3.249,3.16 2.982,0.371 2,4 6.912,-0.049 15.213,2.093 24,2 -6.724,1.368 3.013,4.247 5,2 6.693,4.16 11.766,6.506 19,8 2.949,0.609 6.499,-0.368 10,1 0.327,0.128 -1.526,1.47 -2,1 1.208,1.199 2.168,0.18 4,1 0.94,0.421 1.492,2.768 2,3 2.272,1.041 5.717,0.752 9,2 7.646,2.907 9.991,6.824 20,7 -6.206,3.24 7.526,0.663 3,5 4.199,-2.072 8.186,4.261 15,6 5.327,1.36 11.619,-1.296 14,1 0.186,0.179 -7.268,2.27 -5,1 1.583,2.083 6.996,0.337 9,2 -1.5,2.326 -2.445,1.526 -5,1 4.493,8.507 16.658,9.342 28,11 -5.871,2.352 0.877,1.704 4,3 -0.125,2.208 -4.242,0.425 -6,1 3.389,1.735 3.779,4.245 4,7 0.079,-0.299 5.671,1.176 4,0 0.493,0.347 0.391,2.084 0,2 1.713,0.368 3.146,-1.097 5,-1 1.578,0.083 3.675,1.606 6,2 4.352,0.736 10.638,0.808 13,2 2.008,1.014 2.009,4.583 5,4 -0.125,2.208 -4.242,0.425 -6,1 0.02,2.664 6.879,1.638 3,5 -4.038,3.5 1.114,2.977 7,5 0.356,0.123 0.767,1.938 1,2 0.934,0.246 2.219,-0.91 2,-1 1.601,0.661 -0.51,1.619 3,2 2.998,0.325 3.889,1.361 6,2 0.8,0.242 2.282,-0.408 3,0 0.303,0.172 -0.26,1.74 0,2 0.833,0.833 2.836,0.498 4,1 -0.125,2.208 -4.242,0.425 -6,1 0.259,2.809 4.72,3.023 7,5 1.069,0.927 2.984,3.953 7,3 -3.731,1.778 0.188,3.295 4,3 0.169,2.168 -3.547,0.453 -5,1 -1.146,2.204 2.689,2.414 3,3 0.293,0.552 -1.505,2.124 0,3 0.971,0.565 3.073,-0.625 4,0 0.699,0.472 -1.988,1.188 -2,1 0.163,2.592 4.376,1.736 8,1 -1.984,2.306 0.251,1.111 1,3 4.664,0.664 6.425,-1.576 10,-2 -0.437,1.23 -1.279,2.054 -3,2 0.431,2.236 4.928,0.405 7,1 0.957,3.624 -4.316,1.017 -5,3 2.813,-0.121 2.357,3.713 4,5 3.245,2.542 8.229,3.308 12,6 3.457,2.467 5.605,5.514 9,8 0.044,2.558 -0.743,1.219 -2,1 0.822,4.25 6.193,3.567 9,5 1.475,0.752 2.599,2.209 4,3 5.094,2.874 12.456,6.282 15,13 -3.19,0.857 -3.093,-1.574 -5,-2 -0.712,2.595 7.56,4.874 7,7 -0.879,3.339 13.247,9.074 19,13 1.117,6.107 9.538,11.537 14,17 1.097,1.343 1.027,2.885 2,4 5.416,6.208 12.277,9.862 18,15 -0.03,2.963 -0.627,5.661 3,9 -0.027,0.973 -1.224,0.776 -2,1 -1.029,2.792 4.755,4.813 6,7 0.267,0.468 -1.51,1.388 -1,2 0.445,0.535 1.298,-0.703 1,-1 9.218,9.194 15.034,20.656 27,28 1.008,3.008 -2.228,1.772 -4,2 6.892,15.442 17.275,27.392 27,40 0.044,2.557 -0.743,1.219 -2,1 -0.681,4.223 2.051,5.647 -1,7 3.282,6.717 7.96,12.041 10,20 -4.631,-3.746 -0.213,8.746 -6,5 5.176,17.491 17.739,27.594 29,39 -4.695,1.208 -1.31,4.552 -3,8 -2.729,0.729 -2.013,-1.987 -4,-2 -0.521,1.479 -1.479,2.521 -2,4 0.122,2.545 1.455,3.878 4,4 2.303,5.697 5.118,10.882 7,17 1.271,3.396 5.546,3.787 6,8 -1,0 -2,0 -3,0 1.756,5.06 0.893,7.561 4,13 0.512,0.896 -0.04,0.905 0,1 0.499,1.169 1.169,0.277 1,0 3.209,5.276 5.174,9.706 13,16 -0.257,2.341 -4.394,0.576 -5,0 -0.351,3.474 5.085,3.797 2,7 -4.221,-0.918 -5.71,0.613 -8,-3 -1.342,0.202 -1.862,4.153 -2,0 -2.715,-0.28 1.02,5.976 1,3 2.1,-0.871 -1.449,5.088 1,2 1.484,0.437 -0.395,1.279 0,3 0.279,2.055 2.671,1.996 4,3 0.282,1.615 -0.945,1.722 -1,3 5.827,2.308 4.746,21.838 6,29 0.521,0.386 1.479,4.857 2,2 1.458,0.551 -0.867,2.76 1,5 0.869,1.044 1.791,-0.04 3,3 0.417,20.094 2.195,41.063 2,60 2.095,1.232 1.43,-0.745 1,4 0.973,-0.027 0.776,-1.225 1,-2 -0.503,6.422 4.391,13.623 8,19 0,12 0,24 0,36 -2.7,1.967 -2.059,7.275 -7,7 -1.973,7.693 -4.285,15.048 -12,17 -2.523,7.143 -6.132,13.201 -9,20 -4.257,0.06 -9.383,0.007 -12,4 -1.78,-0.553 -4.153,-0.514 -5,-2 -3.887,2.931 -5.207,6.674 -7,13 -0.748,2.638 -4.487,5.355 -5,7 -0.133,0.427 3.223,5.519 -2,4 0.84,1.161 1.319,2.681 1,5 -8.301,3.5 -9.261,-5.615 -15,-10 -0.815,-0.623 -3.035,0.41 -4,0 -3.098,-1.316 -2.987,-4.662 -6,-5 -6.838,5.007 -12.401,-2.752 -15,-8 -3.01,2.467 -4.462,1.288 -9,1 -5.079,-6.255 -10.611,-12.055 -14,-20 -2.62,-1.579 -3.442,-4.951 -7,-3 -4.9,-6.1 -4.394,-17.606 -7,-26 -2.224,1.651 -5.423,-0.213 -6,1 -3.16,0.493 -0.371,-4.962 -4,-4 -0.596,-19.191 5.085,-38.985 -1,-55 -1.38,1.953 -1.4,5.267 -4,6 -1.927,-1.852 -0.79,-1.832 -4,-1 -3.073,-4.397 -5.664,-13.015 -3,-20 -1.002,-3.847 -4.036,-1.858 -6,-3 -2.47,-6.682 -0.281,-20.064 -1,-31 1.674,-2.88 0.796,5.109 1,7 2.28,-1.387 0.373,-6.961 1,-10 -0.31,-1.357 -2.504,-0.829 -4,-1 -0.66,-8.673 1.325,-19.991 -1,-27 l 0.5,-1.5 -1.5,0.5 c -0.291,-5.94 -2.479,-14.536 0,-20 -2.651,1.175 -5.889,-1.917 -6,0 -4.544,-2.456 -3.732,-10.268 -6,-15 -0.673,4.66 -4.833,5.834 -7,9 2.183,5.817 7.674,8.326 10,14 -2.091,0.424 -2.647,-0.686 -4,-1 -2.651,1.446 3.672,2.233 2,6 -1.966,1.848 -6.184,0.308 -8,-1 -2.117,0.911 1.887,4.019 1,7 -2.86,-2.953 -1.829,2.41 -2,5 -2.513,1.891 -5.357,-2.261 -5,3 -0.973,-0.027 -0.776,-1.224 -1,-2 -2.235,0.725 -0.484,5.702 2,5 -0.923,4.589 2.502,4.831 2,9 0.19,1.135 1.003,0.556 1,0 0.09,1.834 1.271,6.962 2,11 0.973,-0.027 0.776,-1.225 1,-2 3.824,3.892 -2.459,6.157 -1,11 -2.039,0.294 -1.961,2.706 -4,3 3.009,6.909 13.792,18.065 13,28 -0.194,2.435 -1.457,0.816 -2,2 -1.321,2.881 -0.847,10.089 -5,8 1.02,0.163 0.98,6.104 2,3 0.104,0.695 0.649,10.971 3,9 0.828,3.75 2.387,2.155 3,9 3.401,-2.916 0.296,-0.818 1,1 0.567,1.466 0.968,-0.027 1,0 4.583,3.842 7.113,13.014 7,19 -0.045,2.366 -1.681,0.991 -2,2 -0.527,1.662 1.021,2.708 1,3 -0.162,2.199 -3.101,6.625 -3,10 0.246,8.282 3.549,13.661 9,20 -0.981,1.615 -2.668,2.302 -4,1 -0.745,3.078 2.745,1.922 2,5 -3.154,2.012 -5.556,2.139 -8,1 4.861,6.805 6.036,17.297 8,27 -3.119,1.214 -3.011,5.656 -4,9 -2.729,-0.729 -2.013,1.987 -4,2 -0.228,1.772 1.008,5.008 -2,4 1.786,13.706 -6.039,24.872 -13,33 -2.995,-0.658 0.956,-2.138 0,-4 -6.846,5.488 -9.855,14.812 -20,17 -2.284,1.716 -5.052,2.948 -7,5 -1.16,-0.839 -2.681,-1.319 -5,-1 -0.127,-1.794 1.225,-2.109 1,-4 -18.691,3.758 -38.88,11.862 -61,16 -2.954,0.553 -5.987,0.476 -9,1 -9.449,1.646 -19.279,6.088 -31,7 -6.161,0.479 -12.842,-0.52 -19,0 -2.21,0.187 -5.1,1.655 -8,2 -9.308,1.105 -14.421,3.088 -21,9 -11.043,1.855 -21.941,0.148 -33,1 -11.105,0.855 -22.963,5.149 -35,0 -4.83,2.837 -10.94,4.393 -17,6 -3.333,0 -6.667,0 -10,0 -11.54,-1.46 -17.996,-8.004 -23,-16 -10.372,-0.039 -21.916,-1.249 -26,5 -11.867,-0.8 -22.551,-2.782 -21,-17 -2.329,-5.004 -9.219,-5.447 -16,-6 2.83,-2.17 5.725,-4.275 10,-5 -0.515,-3.485 -6.533,-1.467 -10,-2 5.337,-6.33 10.269,-13.064 23,-12 3.196,-7.287 15.849,-10.395 22,-4 4.05,-0.95 6.824,-3.176 12,-3 5.916,-5.418 12.149,-10.517 25,-9 3.663,2.618 8.565,5.954 14,5 5.702,-1.001 6.279,-7.655 12,-11 8.224,-4.809 21.104,-0.489 32,-1 10.706,-0.502 22.498,-5.874 29,-12 3.228,-3.041 4.987,-5.752 9,-9 1.412,-1.143 4.105,-3.544 5,-4 0.894,-0.455 3.058,0.534 4,0 0.267,-0.151 -0.268,-2.945 0,-3 1.465,-0.299 0.451,5.097 5,3 0.427,-0.196 1.003,-2.001 1,-2 3.048,-0.701 5.596,4.144 5,0 -0.91,-1.757 -3.504,-1.829 -5,-3 -0.826,-2.826 1.409,-2.591 1,-5 -1.017,0.649 -1.034,2.3 -3,2 1.443,-3.224 0.945,-8.388 1,-13 -5.172,-3.495 -7.796,-9.538 -13,-13 -0.261,-2.928 2.261,-3.072 2,-6 -6.709,-2.291 -10.19,-7.81 -13,-14 -7.061,2.453 -12.326,-2.114 -16,-6 -3.094,1.573 -3.421,5.912 -4,10 0.973,-0.027 0.776,-1.225 1,-2 1.357,0.31 0.83,2.504 1,4 0.044,2.558 -0.743,1.22 -2,1 0.047,7.08 -4.821,8.62 -2,16 1.172,-0.161 0.844,-1.823 1,-3 1.674,0.679 1.987,11.764 -1,8 0.068,3.402 0.312,6.979 -2,8 2.352,4.052 -1.939,9.543 -4,14 -3.514,7.599 -5.551,10.08 -11,16 -2.698,2.932 -4.956,6.715 -8,8 0.521,-1.479 1.479,-2.521 2,-4 -6.103,-0.77 -6.519,4.147 -11,5 -5.22,1.135 -9.712,-1.087 -15,-1 -2.367,0.039 -5.351,2.01 -8,2 -1.777,-0.006 -2.131,-1.205 -4,-1 -4.886,0.536 -10.403,1.257 -18,2 -14.387,1.408 -20.902,7.158 -30,8 -2.54,0.235 -5,0.125 -8,0 -9.057,-0.376 -26.028,-6.617 -39,-5 -4.531,0.564 -9.333,0.219 -14,1 -10.691,1.791 -21.925,4.436 -31,10 -5.389,3.304 -15.021,1.958 -24,3 -2.824,0.328 -6.111,2.396 -9,3 -1.553,0.325 -3.494,-0.48 -5,0 -7.608,2.429 -12.701,7.69 -24,5 -2.577,-0.613 -6.769,-2.172 -10,-4 -6.719,-3.802 -14.969,-9.59 -27,-10 -9.289,6.322 -29.107,5.227 -33,-5 -0.196,-3.863 -0.035,-7.369 1,-10 -1.918,-3.415 -9.162,-1.505 -14,-2 0.134,-3.866 4.056,-3.944 5,-7 -3.176,-6.194 -9.453,-6.071 -18,-5 3.224,-7.442 13.883,-7.451 23,-9 -1.891,-3.109 -6.13,-3.87 -10,-5 6.265,-4.923 19.084,-2.626 27,-1 0.23,-4.136 6.391,-2.938 4,-7 4.408,-0.259 7.735,-1.598 13,-1 7.819,-6.029 21.056,-10.273 30,-1 14.379,-2.508 29.312,1.443 43,-1 -0.027,-0.973 -1.225,-0.775 -2,-1 7.445,-1.555 13.632,-4.368 22,-5 -4.881,-2.781 2.594,-1.857 6,-2 -0.19,0.81 -1.003,0.997 -1,2 4.258,0.591 6.614,-0.719 10,-1 -1.182,-1.434 -5.305,-1.895 0,-2 3.73,-0.604 4.905,-3.761 9,-4 0.091,-2.06 8.41,-4.439 12,-3 1.13,-0.878 -0.24,-3.17 3,-1 -0.104,-3.325 1.974,0.995 3,-3 11.205,-2.063 18.54,-12.297 27,-20 3.143,-2.861 7.415,-4.791 10,-8 2.158,-2.679 4.31,-7.175 6,-11 2.38,-5.385 4.009,-9.943 4,-18 -0.869,-2.908 -1.497,-1.125 -4,-1 -0.226,-0.931 0.282,-2.087 0,-3 -0.48,-1.557 -0.893,0.049 -1,0 -1.624,-0.738 0.081,-3.834 -4,-3 0.34,-2.007 -0.204,-3.129 -2,-3 1.18,-5.514 -1.724,-6.943 -2,-11 -3.059,0.726 -2.941,-1.726 -6,-1 0,-2.333 0,-4.667 0,-7 -0.752,-0.436 -1.63,3.488 -1,4 -2.758,-2.242 -1.157,-17.775 -5,-20 -0.835,3.351 -0.981,4.34 -3,8 -5.438,-3.463 -10.452,-10.916 -17,-16 -3.966,0.397 1.907,1.749 2,2 0.729,1.966 -2.729,4.496 2,5 -0.31,1.357 -2.504,0.829 -4,1 -3.183,1.035 5.183,3.965 2,5 -3.056,2.326 -8.473,0.33 -11,-1 -7.367,4.22 -6.804,2.989 -16,2 -1.101,-3.232 -2.699,-5.968 -4,-9 -3.384,2.282 -4.799,6.534 -5,12 -1.771,-0.895 -1.274,-4.059 -5,-3 -2.244,-0.045 1.336,2.701 0,4 -0.104,0.102 -1.864,-1.353 -2,-1 -0.718,1.867 0.816,4.077 -2,7 -4.753,-0.58 -6.952,-3.715 -9,-7 -2.246,0.42 -0.027,5.306 -2,6 -9.618,-0.269 -11.334,-10.733 -19,-10 0.17,-2.503 -1.536,-3.131 -3,-4 -0.515,3.131 2.734,4.464 -2,4 1.254,3.045 0.764,3.889 -1,6 -6.959,0.818 -9.273,-5.078 -12,-11 -3.729,0.097 -0.067,3.903 -2,4 -4.146,0.271 -3.896,-1.313 -7,0 -2.351,-10.201 -14.874,-4.178 -17,-14 -2.806,2.305 -5.394,-2.011 -9,-2 -1.043,-1.486 -1.59,-4.017 -3,-6 -0.834,-1.173 -2.012,-0.084 -3,-1 -3.083,-2.86 2.132,-4.34 -2,-5 -3.183,-0.509 -3.721,7.115 -9,4 -5.208,3.375 -1.165,10.025 -9,11 1.063,5.063 -2.956,5.044 -4,8 -3.19,0.594 -3.093,-1.877 -5,0 -5.473,4.193 -3.735,15.598 -9,20 -3.19,0.594 -3.093,-1.877 -5,0 -3.125,8.208 -10.128,12.538 -10,24 -3.651,0.874 -4.491,0.989 -7,0 1.705,6.705 -4.496,5.504 -4,11 -1.333,0 -2.667,0 -4,0 0.697,6.755 -1.697,6.755 -1,0 -1.646,0.136 -1.646,6.864 0,7 -0.641,4.359 -4.308,5.692 -4,11 -1.701,0.368 -1.887,-0.78 -2,-2 -3.16,1.507 -3.066,6.268 -3,11 -3.624,-5.905 -0.947,1.846 1,4 0.044,2.558 -0.743,1.22 -2,1 0.649,3.649 -0.674,5.326 -2,7 -0.418,-1.273 -3.489,-1.248 -3,-1 -5.628,-2.854 -2.846,-5.869 -8,-3 -3.233,1.8 -4.748,5.739 -6,12 -3.15,1.121 -2.264,0.09 -6,0 -1.91,3.757 -3.173,8.16 -4,13 -2.603,0.996 -6.015,0.215 -9,-1 -3.176,3.49 -3.029,10.305 -5,15 -6.666,-2.35 -6.715,2.675 -9,7 -1.701,0.368 -1.887,-0.78 -2,-2 -2.009,1.991 -3.421,4.578 -3,9 -5.428,3.307 -9.994,9.979 -17,12 -1.423,0.41 -5.011,-0.333 -8,0 -4.617,0.515 -8.162,1.857 -13,2 -2.395,0.07 -5.503,-1.123 -8,-1 -2.962,0.146 -4.985,1.206 -7,1 -5.219,-0.533 -9.95,-4.194 -15,-4 -4.567,0.176 -16.689,5.013 -21,8 -3.057,2.118 -5.178,4.758 -7,8 -4.542,3.62 -10.1,0.14 -16,1 -6.49,0.946 -11.852,5.915 -18,9 -10.495,5.267 -26.354,-0.2 -34,-10 -11.781,0.568 -22.616,-3.885 -32,-2 -3.124,0.627 -5.207,4.088 -9,3 -3.586,0.253 -3.664,-3.003 -7,-3 -3.896,-0.501 -3.618,3.902 -5,6 -3.228,4.897 -7.434,9.998 -11,16 -1.31,2.204 -0.92,5.118 -3,8 -6.093,8.445 -19.213,13.699 -34,15 -8.976,0.79 -19.473,-0.138 -29,1 -3.406,0.406 -7.843,0.936 -11,1 -2.642,0.054 -4.246,-1.449 -8,0 -4.741,1.83 -9.677,5.924 -14,9 -8.928,6.354 -17.9,14.477 -29,16 -10.549,1.447 -17.778,-3.659 -28,-5 -4.566,-0.599 -10.916,-0.283 -17,0 -8.306,0.387 -19.163,-0.157 -25,1 -6.047,1.199 -11.292,6.976 -18,9 -3,0 -6,0 -9,0 -6.945,-2.722 -9.952,-9.381 -17,-12 -7.326,1.915 -15.255,10.359 -23,9 -7.407,-1.3 -8.65,-9.695 -12,-17 -4.938,-1.396 -11.692,-0.975 -18,-1 3.931,-5.603 -3.868,-2.766 -6,-5 2.773,-5.27 5.581,-9.604 10,-13 4.604,-3.537 10.827,-3.891 14,-9 0.178,-5.512 -8.175,-2.492 -11,-5 5.262,-6.071 13.234,-9.433 24,-10 1.895,-2.772 3.659,-5.675 7,-7 7.773,-3.634 21.299,0.914 31,1 6.847,0.061 13.083,-2.934 20,-3 -0.1,-4.1 -0.197,-8.196 1,-11 7.271,-6.166 16.636,-3.049 25,-5 4.975,-1.16 11.049,-6.028 18,-9 6.704,-2.866 14.27,-5.105 20,-7 1.816,-0.601 8.564,-6.697 11,-9 3.11,-2.94 5.283,-6.709 8,-9 1.384,-1.167 3.547,-0.895 5,-2 1.308,-0.995 1.849,-2.875 3,-4 2.233,-2.183 4.693,-3.965 6,-7 3.723,-1.387 -2.943,-0.15 -2,-2 10.227,-11.439 25.9,-17.433 38,-27 0.745,-4.529 -2.745,1.529 -2,-3 4.943,-3.724 8.95,-8.383 12,-14 -2.007,0.34 -3.129,-0.204 -3,-2 8.813,-4.188 13.765,-12.235 21,-18 -0.823,-3.053 -2.812,-2.398 -1,-6 4.62,-9.714 10.587,-18.079 15,-28 3.404,-1.067 -2.783,-0.312 -1,-3 2.91,-3.215 6.31,-6.22 9,-10 2.607,-3.663 3.412,-8.982 8,-11 0.971,-7.362 2.837,-13.83 4,-21 -3.132,-1.198 0.304,-4.072 -4,-5 1.547,-1.453 2.1,-3.9 2,-7 -5.662,-3.658 -1.541,-19.043 -3,-24 -1.128,2.639 -1.183,-4.035 -5,-2 -0.586,-2.081 -2.102,-3.232 -3,-5 0,-2.333 0,-4.667 0,-7 -3.23,-3.771 -5.958,-8.042 -12,-9 -4.887,-5.779 -10.712,-10.622 -14,-18 -2.549,-1.784 -5.833,-2.833 -8,-5 -2.18,-5.82 -5.967,-10.033 -9,-15 -2.521,-1.075 -6.658,0.254 -9,-1 -5.087,-8.913 -10.467,-17.533 -14,-28 -3.805,-0.96 -5.447,-4.937 -8,-8 -0.576,-0.691 -1.309,-2.285 -2,-3 -1.598,-1.655 -3.799,-1.571 -6,-4 -3.793,-4.187 -6.657,-11.726 -9,-19 -8.913,-1.088 -12.086,-7.914 -15,-15 -5.165,-3.171 -8.651,-4.946 -15,-5 -4.127,-1.206 -5.557,-5.11 -9,-7 -0.707,4.003 -4.693,0.057 -6,2 -3.722,-4.944 -9.219,-8.115 -15,-11 -6.119,1.561 -10.497,-0.47 -15,-3 -1.067,2.885 -3.033,3.315 -6,2 -3.417,0.75 -1.271,-4.063 -5,-3 -1.778,1.867 -2.542,-0.813 -6,0 -3.233,-1.464 -7.906,-6.72 -11,-5 2.54,0.097 2.54,3.903 0,4 -7.405,-0.966 -16.069,-8.948 -24,-3 -9.445,-2.68 -19.308,-5.318 -31,-3 -4.633,0.918 -10.533,5.505 -17,8 -13.799,5.324 -30.69,8.64 -45,15 -6.611,2.938 -12.514,5.846 -23,4 -10.951,-1.927 -23.906,-5.905 -33,-14 -0.685,-2.239 -3.005,-5.011 -1,-7 -2.576,-1.424 -5.658,-2.342 -6,-6 -0.483,-3.15 4.584,-0.749 5,-3 -5.898,-7.498 -16.082,-15.833 -14,-28 14.683,0.65 18.453,12.214 32,14 2.155,-0.845 -0.375,-6.375 2,-7 4.344,3.844 4.078,-3.327 6,-5 4.021,-0.688 5.708,0.958 9,1 1.705,-3.962 3.896,-7.438 6,-11 5.002,-0.588 7.585,5.175 11,3 -0.129,-5.796 0.175,-11.158 2,-15 5.149,-1.111 8.354,4.928 12,2 -3.688,-3.393 -4.687,-17.437 1,-20 -12.054,-3.279 -23.95,-6.717 -37,-9 -3.417,-0.75 -1.271,4.063 -5,3 -3.572,-1.428 -6.25,-3.75 -10,-5 -1.852,1.481 -1.498,5.168 -5,5 -3.541,0.541 -2.459,-3.541 -6,-3 -0.66,4.463 -6.211,1.814 -8,3 -2.34,7.409 -5.696,16.176 -7,25 -0.503,3.407 1.816,7.682 -2,10 -6.326,-0.171 -8.887,-7.017 -11,-12 -2.3,-5.423 -2.345,-12.738 -6,-17 -0.936,4.731 -3.401,7.933 -8,9 -2.867,-1.8 -5.578,-3.756 -8,-6 -0.057,-4.943 -0.987,-9.013 -3,-12 -10.373,2.364 -17.666,-6.994 -23,-13 -1.378,-1.289 -0.99,-4.344 -1,-7 -9.742,1.075 -13.49,-3.844 -17,-9 0,-1.333 0,-2.667 0,-4 z m 627,417 c -1.891,0.225 -2.206,-1.127 -4,-1 -5.835,6.498 -13.855,10.812 -16,21 -11.125,6.208 -20.53,14.137 -30,22 -2.356,0.022 -2.944,-1.723 -6,-1 -3.061,3.272 -5.036,7.631 -9,10 -6.396,-0.376 -12.409,4.897 -11,9 4.401,-1.233 7.626,0.677 12,0 3.7,-0.572 6.335,-3.415 10,-4 5.841,-0.933 11.923,0.682 19,0 5.927,-3.406 10.36,-8.307 17,-11 5.969,-14.031 10.715,-29.284 22,-38 -0.05,-14.389 15.284,-18.71 14,-31 -5.4,8.6 -9.694,18.306 -18,24 z"
   id="path7"
   style="fill-rule:evenodd" />
            
            <g
   id="g9">
                
                <path
   d="m 1379.5,511.5 c 0.607,-7.257 -1.253,-15.183 1,-22"
   id="path11"
   style="fill:none;stroke:#000000;stroke-width:1.22950006;stroke-linecap:round" />
                
            </g>
            
        </g>
        
    </g>
    
</svg>