<?xml version="1.0" encoding="UTF-8" standalone="no"?>
<!-- Created with Inkscape (http://www.inkscape.org/) -->

<svg
   xmlns:svg="http://www.w3.org/2000/svg"
   xmlns="http://www.w3.org/2000/svg"
   version="1.2"
   width="359"
   height="223"
   viewBox="0 0 359 223"
   id="Layer_1"
   xml:space="preserve"
   style="overflow:inherit"><defs
   id="defs7" />
<path
   d="m 51,0 c 0.667,0 1.333,0 2,0 11.281,6.144 16.2,12.48 16,30 43,14.833 93.22,1.597 137,-1 8.485,-0.503 20.785,0.353 28,2 3.338,0.762 5.069,3.771 8,5 12.595,5.283 28.33,8.241 37,18 3.22,-0.22 4.231,1.769 8,1 18.391,18.503 52.823,18.321 64,42 1.365,2.968 4.287,4.379 7,6 1.295,3.758 -2.485,12.271 1,9 0,3 0,6 0,9 -5.716,8.617 -15.978,12.688 -23,20 -8.817,-4.183 -21.298,-4.702 -27,-12 1.962,-1.896 9.943,-1.326 12,0 -5.216,-10.744 -31.103,-9.938 -38,-19 -5.7,13.571 -22.519,34.85 -7,49 -1.609,6.176 0.458,6.71 1,14 1.008,3.008 -2.228,1.772 -4,2 0.856,4.179 -0.916,7.023 -1,11 -0.139,6.553 3.157,13.691 3,19 -0.45,15.2 -13.745,21.391 -18,6 -5.088,-18.406 6.603,-32.924 -1,-46 -6.495,-11.172 -16.904,-19.035 -21,-31 -2.405,-7.025 -1.167,-13.105 -6,-18 -7.882,4.785 -10.852,14.482 -18,20 -4.125,14.86 0.622,38.357 -12,42 -1.15,12.571 -15.594,20.365 -22,31 -8.196,0.28 -9.345,11.435 -29,9 -1.739,-4.594 -6.763,-5.904 -6,-13 5.244,-3.423 12.034,-5.3 21,-5 18.725,-16.608 26.434,-44.233 26,-80 -15.484,5.849 -34.422,8.245 -54,10 -1.718,13.199 -11.7,24.53 -9,37 2.098,9.689 22.896,17.443 13,34 -1.496,0.17 -3.69,-0.357 -4,1 -10.397,-6.29 -12.54,-15.516 -26,-24 0.214,-3.553 -1.925,-10.538 -1,-20 -10.737,6.599 -19.698,23.633 -36,28 -9.025,15.642 -27.075,22.259 -37,37 -3.667,0 -7.333,0 -11,0 -5.109,-2.558 -9.376,-5.957 -13,-10 -1.448,-3.781 2.748,-1.919 2,-5 8.481,1.288 12.09,-8.605 22,-7 13.917,-26.791 51.042,-34.546 53,-80 -4.103,-1.089 -6.166,-1.147 -8,2 -0.923,-2.26 -2.096,-8.511 1,-11 -3.012,-4.21 -9.896,-11.05 -14,-8 -2.222,-4.111 -4.294,-8.373 -9,-10 -2.862,8.17 -16.435,27.207 -22,9 C 40.313,95.346 37.793,86.766 29,84 27.38,90.556 3.836,97.36 0,85 0,83.667 0,82.333 0,81 6.975,73.309 14.365,66.031 13,50 16.509,44.175 21.631,39.964 20,29 20.032,25.968 14.968,28.032 15,25 22.589,23.287 9.733,-1.145 28,3 34.029,4.368 33.849,13.688 41,16 41.063,7.396 45.753,3.419 51,0 z"
   id="path3"
   style="fill-rule:evenodd" />
</svg>