<?xml version="1.0" encoding="UTF-8" standalone="no"?>
<!-- Created with Inkscape (http://www.inkscape.org/) -->

<svg
   xmlns:svg="http://www.w3.org/2000/svg"
   xmlns="http://www.w3.org/2000/svg"
   version="1.1"
   width="72"
   height="105"
   id="svg3041">
  <defs
     id="defs3045" />
  <path
     d="m 64.187496,1.5238348 c -1.80171,0.2692051 -3.01724,1.8153033 -4.7876,2.2834451 -2.15136,0.7372341 -3.78082,2.4026867 -5.82938,3.3447587 -1.2548,1.384198 -3.13419,1.126017 -4.82052,1.121796 -1.14551,0.642056 -0.65806,2.5352154 0.15625,3.3125004 0.28438,2.128176 -1.94193,3.444252 -2.48564,5.389569 -0.56176,1.471753 -0.74673,3.06335 -1.35912,4.528062 -0.56781,2.945888 -0.72998,6.018733 -0.21774,8.978012 0.23526,1.496148 0.5793,2.795414 -0.36351,4.200637 -0.63532,2.289305 -2.87685,3.449497 -4.26744,5.210938 -2.67882,2.051402 -5.50352,3.950882 -8.35369,5.730935 -2.17134,0.477974 -4.01967,1.80602 -5.77328,3.114681 -1.23886,1.412892 -2.43955,2.895354 -3.871765,4.117168 -0.840382,1.598903 -2.733365,2.398464 -3.165348,4.285329 -1.138466,1.495507 -1.879077,3.232413 -2.204963,5.100919 -1.914106,2.885327 -1.492978,6.616631 -1.690028,9.937532 0.01088,3.714826 1.573277,7.199764 2.038692,10.812468 1.143411,2.223295 0.875424,4.765483 -0.504914,6.78125 -2.461931,1.189755 -5.22699,1.281751 -7.8768133,1.540697 -1.832922,0.476264 -4.008456,0.587586 -5.058974,2.399799 -1.662832,0.985397 -2.125756,2.838574 -1.876713,4.647954 -0.301175,1.892585 1.94389,2.576795 3.194524,3.463865 2.102396,0.81559 4.769431,1.90868 6.9641453,0.72509 -0.397535,-1.81294 -2.8241083,-1.93253 -3.2211693,-3.808655 -1.541408,-1.09393 -0.339663,-2.89799 1.3384463,-2.53125 2.699821,0.0843 5.350776,-0.53803 8.050763,-0.11553 3.047997,0.11407 6.044017,0.93684 9.105487,0.42803 2.82721,0.0712 6.06203,-0.46219 8.38053,1.50011 1.78312,0.83718 3.96988,0.32144 5.84352,-0.0626 1.71335,-0.53852 1.11432,-2.7367 -0.54463,-2.76488 -1.22483,-0.508179 -3.02315,0.0534 -3.40866,-1.672957 0.23362,-1.058277 2.29315,-1.458861 3.48454,-1.24966 2.69354,-0.42721 6.27122,0.542493 8,-2.1875 0.45836,-1.773984 -1.63624,-1.995948 -2.8125,-1.40625 -1.84627,0.392828 -3.90408,0.439628 -5.52272,-0.657954 -1.01494,-0.978531 0.153,-2.679201 0.12911,-3.942793 0.13587,-2.575725 -0.31588,-5.208936 -0.52832,-7.743116 -0.75836,-1.384125 -1.68474,-2.959475 -0.63385,-4.46367 0.45437,-1.998912 2.20281,-3.178852 3.66522,-4.34883 0.75248,-1.248469 1.48058,-2.540969 1.85039,-3.844532 0.99594,-0.996922 2.50488,-1.732517 2.94635,-3.134321 1.02647,-0.747694 1.66331,-2.046906 2.3128,-3.271487 1.29138,-0.546988 2.8368,0.529036 3.11478,1.910089 0.93012,2.156884 1.59566,4.381741 2.92737,6.347779 0.24318,1.323104 2.41616,2.721854 2.80137,0.940692 0.14073,-2.39959 -0.38995,-4.80188 -1.11388,-7.06464 -0.58201,-1.37984 -2.06104,-2.215387 -1.69394,-3.904611 -0.0564,-1.114517 -0.38935,-3.109412 1.31579,-2.957672 1.31678,0.315059 2.66093,1.093753 4.03785,1.495708 1.31235,0.537902 2.65929,0.858688 3.50195,2.057994 1.10392,0.351501 2.91723,1.835916 3.76485,0.674888 0.47052,-1.215224 -1.46317,-2.135699 -2.20413,-3.01216 -1.19444,-0.987683 -2.69213,-1.723379 -3.58909,-2.913193 -2.02395,-0.711867 -2.71151,-3.084172 -4.30669,-4.374819 -1.13029,-1.616164 -2.2588,-3.530584 -1.47771,-5.544974 0.22094,-1.450026 1.40206,-2.581494 0.98375,-4.148753 -0.17596,-1.82157 -1.08284,-3.743828 -0.1875,-5.469321 -0.0722,-2.598761 1.2296,-5.053921 0.78863,-7.686333 -0.27879,-2.146944 -0.0715,-4.680236 1.58637,-6.225221 0.63003,-1.692362 2.14626,-2.759249 2.51223,-4.553229 0.71324,-1.168953 1.37458,-2.295839 1.71798,-3.6512324 0.96378,-2.246711 0.91957,-4.8118269 0.64479,-7.2017918 -0.30639,-0.5003048 -0.91589,-0.3357898 -1.40625,-0.46875 z"
     id="path3053"
     style="fill:#000000;stroke:#000000;stroke-width:0.30000001;stroke-linecap:butt;stroke-linejoin:miter;stroke-miterlimit:4;stroke-opacity:1;stroke-dasharray:none" />
</svg>
