<?xml version="1.0" encoding="UTF-8" standalone="no"?>
<!-- Created with Inkscape (http://www.inkscape.org/) -->

<svg
   xmlns:svg="http://www.w3.org/2000/svg"
   xmlns="http://www.w3.org/2000/svg"
   version="1.1"
   width="1034"
   height="578"
   viewBox="0 0 1034 578"
   id="Layer_1"
   xml:space="preserve"><defs
   id="defs13" />
    
    <g
   id="g3">
        
        <g
   id="g5">
            
            <path
   d="m 1034,409 c -0.613,-1.387 -3.85,-0.15 -4,-2 -2.797,1.286 3.15,2.067 2,5 -1.615,0.282 -1.722,-0.945 -3,-1 -0.177,2.215 1.613,2.314 2,5 0.01,0.037 -1.953,-0.086 -2,0 0.619,-1.134 1.606,12.094 2,5 0,0 -1.999,0.012 -2,0 0.092,1.227 1.653,1.721 2,3 0.445,1.643 -1.021,2.734 -1,3 0.104,1.294 3.939,4.904 -1,3 0.429,1.904 2.154,2.513 2,5 -1.313,-0.354 -1.572,-1.761 -3,-2 -2.031,-0.306 0.205,2.889 1,3 -3.221,0 -4.046,-0.685 -3,6 -1.701,0.367 -1.887,-0.78 -2,-2 1.304,5.682 -6.644,11.501 -4,18 -4.363,-2.532 -8.447,6.706 -10,13 -2.622,-0.712 -0.958,-5.708 -4,-6 -3.906,0.941 -0.851,5.045 -1,8 -2.516,-4.213 -1.395,1.063 -3,3 -1.644,-3.203 -5.113,-1.56 -3,2 -3.392,-2.971 -8.817,-9.298 -13,-2 -3.722,-1.629 -5.437,-5.788 -6,-6 -0.152,-0.058 -3.564,3.27 -3,-2 -1.998,3.589 0.438,3.064 0,6 0.544,-3.639 -2.783,0.28 -2,3 -4.256,-4.41 -3.778,-13.555 -12,-14 -2.995,0.658 0.956,2.138 0,4 -1.313,-0.354 -1.573,-1.761 -3,-2 -3.102,2.678 2.622,3.803 0,6 -1.44,-0.56 -2.44,-1.56 -3,-3 -2.805,3.529 -8.104,4.563 -7,12 -1.889,-0.111 -0.694,-3.306 -3,-3 -0.409,2.409 1.826,2.174 1,5 -2.827,-2.115 -7.694,4.639 -9,1 -1.697,3.367 -3.752,9.514 -8,13 -0.731,5.063 3.648,5.044 0,8 -5.202,-1.917 -4.856,-1.198 -10,0 0.247,1.258 1.988,1.009 2,0 2.304,0.555 -0.518,5.793 -2,3 0.138,1.862 0.658,3.342 2,4 -0.579,0.89 -4.305,1.342 -5,2 -0.174,0.165 -1.018,3.009 -1,3 -0.332,0.165 -6.901,-4.853 -2,0 -2.281,1.313 -3.187,-0.952 -6,-2 1.262,4.798 -1.678,1.1 -1,1 -2.077,0.305 -3.653,1.661 -7,3 -0.812,0.325 -0.581,1.842 -1,2 -2.805,1.061 -11.182,-2.512 -10,5 -6.202,-3.898 -16.482,7.551 -26,1 -2.377,1.623 -1.59,6.41 -7,5 -1.151,-1.182 -1.132,-3.535 -1,-6 -7.225,-0.442 -13.669,-1.665 -18,-5 -3.824,2.01 1.1,6.908 -4,8 -4.121,0.265 -4.99,-6.279 -3,-9 -6.959,-5.516 -6.862,-5.469 -12,3 -5.882,-0.428 -2.136,-10.382 0,-12 -4.446,-4.909 -3.807,2.441 -9,2 -4.058,-15.848 15.15,-25.402 25,-31 -2.984,-1.161 -6.821,-0.137 -9,-4 -1.172,0.161 -0.844,1.823 -1,3 -7.803,-0.432 -10.979,-8.721 -16,-11 -0.465,-0.211 -1.892,1.625 -3,1 -1.643,-0.927 -1.783,-6.022 -5,-3 0.207,-5.207 -2.545,-7.455 -6,-9 -3.057,2.632 4.057,3.368 1,6 -6.438,-3.318 -19.183,9.214 -23,4 -0.365,2.302 -4.378,0.956 -4,4 -13.697,-3.172 -20.126,14.397 -34,11 -2.53,0.804 -2.55,4.116 -4,6 -5.076,1.076 -6.152,-1.848 -8,-4 -7.65,6.665 -18.982,-3.999 -25,4 -3.154,-1.749 -5.569,-4.198 -10,-4 -3.232,0.145 -6.575,3.473 -10,4 -9.233,1.422 -17.365,-0.726 -23,-5 -4.076,-0.743 -3.443,3.224 -8,2 -2.838,-2.395 -0.987,-3.682 -1,-8 -0.31,-1.357 -2.504,-0.829 -4,-1 -8.438,10.088 -21.161,3.393 -32,0 -1.97,-3.03 -4.03,-5.97 -6,-9 -0.802,-3.469 1.489,-3.844 1,-7 -3.227,-5.351 -8.682,1.133 -14,0 -1.151,-1.182 -1.132,-3.535 -1,-6 6.346,-3.987 11.115,-9.552 17,-14 5.293,-1.11 11.598,-0.066 15,-5 11.462,1.159 18.246,0.529 25,-3 -10.222,-0.393 -15.841,-3.726 -29,-3 -3.177,-8.691 -15.599,-2.489 -20,-9 -7.9,2.804 -15.796,-6.107 -25,-2 -14.165,-8.502 -32.415,-12.919 -48,-20 -1.987,0.013 -1.271,2.729 -4,2 -0.56,-1.44 -1.56,-2.44 -3,-3 -0.483,3.149 3.069,2.264 2,6 -2.665,-1.002 -3.297,-4.036 -5,-6 -3.262,2.557 -8.149,2.07 -13,2 -0.409,2.409 1.826,2.174 1,5 -3.701,-1.911 -2.494,0.631 -4,3 -1.342,-0.658 -1.862,-2.138 -2,-4 -1.401,2.967 -8.419,5.535 -5,10 -4.448,3.885 -5.405,8.684 -3,15 -3.156,-0.845 -2.844,-5.155 -6,-6 -10.632,8.77 -7.579,21.564 -13,35 -3.537,0.537 -5.152,-0.848 -6,-3 -2.678,0.655 -3.802,2.864 -6,4 -0.745,3.078 2.745,1.922 2,5 -3.09,0.243 -1.689,4.978 -6,4 0.242,1.883 -2.821,1.958 -4,4 -0.371,0.643 0.49,2.463 0,3 -1.931,2.117 -1.526,-0.086 -3,4 -0.443,1.229 -3.584,2.241 -4,3 -0.474,0.864 0.812,2.263 1,2 -2.635,3.68 -6.915,5.459 -11,9 -0.796,0.689 -0.284,2.346 -1,3 -1.404,1.284 -2.258,-0.603 -3,0 -1.193,0.97 -1.32,4.203 -3,6 -4.009,4.286 -8.727,6.218 -10,9 -2.987,6.526 -7.683,7.74 -4,13 -7.531,-2.198 -3.832,6.835 -9,7 -0.319,2.652 5.602,-0.936 4,3 -4.269,-0.602 -5.166,2.168 -7,4 5.773,5.807 -4.8,5.321 -3,13 -4.491,-3.513 -6.917,1.952 -12,1 -0.466,1.912 3.083,4.305 -1,4 0.279,2.055 2.671,1.996 4,3 -3.416,2.37 -10.032,-0.601 -13,-2 -2.131,1.726 -3.896,7.374 -7,5 -0.517,2.466 -1.988,5.112 -1,7 -6.859,0.604 -10.252,2.284 -17,3 0.279,2.055 2.671,1.996 4,3 -3.368,4.149 -13.676,-3.303 -18,-4 -3.72,-0.6 -6.945,2.514 -10,0 -1.172,0.161 -0.843,1.823 -1,3 -3.104,0.104 -2.854,-3.146 -7,-2 -1.701,-0.368 -1.887,0.78 -2,2 -3.531,-4.6 -17.374,6.251 -20,-3 -5.453,0.815 -10.886,-0.25 -16,1 -1.493,0.365 -2.074,2.108 -4,2 -0.053,-0.003 -1.537,-2.847 -3,-3 -0.784,-0.082 -1.598,1.346 -3,1 -3.231,-0.796 -4.441,-3.212 -8,-1 -0.085,0.053 -2.493,1.943 -2,2 -3.407,-0.389 -7.982,-9.166 -12,-2 -0.044,-10.641 -14.559,-9.154 -25,-6 -0.869,-5.535 3.659,-5.675 4,-10 -4.522,-10.843 -25.577,-12.313 -36,-6 0.687,-4.98 4.237,-7.096 7,-10 -2.613,-3.053 -6.967,-4.366 -13,-4 -3.866,-0.517 -3.944,5.762 -7,3 2.462,-5.204 6.415,-8.919 12,-11 -2.214,-5.034 -5.477,1.25 -9,1 0.355,-4.979 4.932,-5.734 6,-10 0.493,-3.14 -3.447,-2.642 -1,-5 -9.14,-0.474 -13.618,3.716 -15,11 -9.094,-5.709 1.886,-15.417 6,-20 -0.529,-0.804 -1.043,-1.623 -1,-3 -9.407,-1.74 -8.114,7.219 -14,9 0.427,-13.483 12.42,-15.809 22,-21 1.029,-0.558 1.443,-1.951 2,-3 19.638,-3.908 31.635,-4.357 50,-10 2.054,-0.279 1.996,-2.671 3,-4 3.256,0.877 9.294,-3.097 10,-8 4.483,0.117 5.052,-4.276 4,-7 5.698,-7.302 10.794,-15.206 12,-27 3.206,-1.795 3.174,-6.826 6,-9 -1.555,-6.595 -0.375,-8.231 -1,-15 4.758,1.425 3.862,-2.805 6,-4 -1.965,-4.473 -1.552,-6.314 -2,-11 6.125,-0.535 1.138,-7.715 2,-12 1.991,-1.009 4.271,-1.729 5,-4 0.689,-2.688 -2.067,-1.933 -3,-3 1.578,-2.423 3.578,-4.423 6,-6 -2.246,-1.754 -1.969,-6.031 -3,-9 6.848,-2.351 1.52,-10.716 7,-14 0.55,-2.217 -1.91,-1.424 -2,-3 -0.473,-3.14 2.691,-2.642 3,-5 -1.61,-2.047 -1.726,-6.4 -4,-9 -1.498,-1.712 -0.828,-2.864 -1,-4 -0.538,-3.547 -3.793,-5.474 -4,-7 0.229,1.686 4.885,-4.87 0,-5 0.847,-2.931 3.22,0.598 5,0 1.274,-4.941 -2.518,-4.815 -5,-6 6.534,-3.46 4.682,-11.224 2,-18 -2.729,-0.09 -2.013,1.666 -4,0 0.646,-3.98 -2.646,-4.02 -2,-8 -0.279,-2.054 -2.671,-1.996 -4,-3 -2.926,-7.408 -6.523,-14.144 -13,-18 -14.305,-27.362 -24.3,-59.033 -49,-76 -15.751,-0.815 -27.582,7.855 -44,8 -4.194,0.037 -10.088,-2.761 -16,-3 -6.049,-0.245 -12.282,1.721 -17,1 -7.371,-1.126 -14.624,-9.764 -21,-2 -8.964,-0.93 -17.309,3.354 -26,4 -23.934,1.779 -43.741,-8.594 -63,-15 -2.54,-3.127 -4.222,-7.112 -9,-8 -1.957,-11.71 -15.375,-11.958 -13,-28 9.933,-14.401 28.694,-19.973 36,-37 6.932,-5.67 12.226,-17.331 19,-25 2.375,-2.688 6.042,-4.337 8,-7 2.847,-3.87 3.421,-9.178 6,-13 5.306,-7.863 14.76,-10.917 16,-21 4.192,0.526 3.963,-3.37 5,-6 7.673,-1.327 12.65,-5.35 19,-8 4.646,-10.197 17.347,-3.289 22,-13 2.201,2.893 5.32,1.651 7,-1 0.715,-2.592 2.556,1.103 3,1 3.651,-0.844 3.207,-3.021 8,-3 1.703,0.007 3.212,-1.931 4,-2 6.454,-0.57 14.067,2.706 20,-2 2.93,6.104 11.167,5.015 19,4 5.016,7.984 22.379,3.621 31,8 -0.437,1.23 -1.28,2.054 -3,2 0.853,3.147 9.971,-1.972 8,4 6.885,-5.039 12.931,6.241 18,0 3.449,0.729 0.667,3.009 0,5 3.708,-0.708 4.292,1.708 8,1 1.739,5.594 11.107,3.559 13,9 17.367,-2.034 22.15,8.517 33,13 0,1 0,2 0,3 9.252,5.082 15.261,13.406 29,14 0.521,1.479 1.479,2.521 2,4 2.667,0 5.333,0 8,0 -1.369,5.369 6.067,1.933 5,7 18.558,4.442 38.354,7.646 51,18 18.583,-3.596 37.782,6.675 55,7 0.586,2.081 2.102,3.232 3,5 2.091,-0.576 2.854,-2.479 6,-2 1.777,7.336 12.109,4.431 21,5 -3.974,8.62 7.741,3.974 8,9 2.091,-0.576 2.854,-2.479 6,-2 0.423,2.09 -0.686,2.648 -1,4 5.571,-1.574 8.026,2.225 14,-1 -0.478,4.811 5.329,3.338 7,6 7.181,-3.583 20.428,-4.062 25,4 3.438,0.438 5.604,-0.395 8,-1 -0.347,6.299 9.02,-1.9 9,5 6.563,0.045 10.511,-4.529 16,-4 5.197,0.501 8.432,7.705 14,5 -1.666,1.987 0.091,1.271 0,4 5.915,0.708 10.459,-2.537 14,1 1.086,-0.247 0.678,-1.988 2,-2 5.012,3.884 11.431,-1.492 16,4 3.059,0.726 2.941,-1.726 6,-1 2.649,1.461 9.646,6.119 11,0 3.748,4.359 11.709,-2.394 13,4 4.095,-4.812 6.44,-0.285 12,-2 -1.146,3.146 1.57,2.43 2,4 1.907,-0.426 1.81,-2.857 5,-2 0.655,5.391 8.578,2.583 10,0 10.737,4.808 25.445,1.613 35,-3 12.121,9.633 22.645,-3.295 35,-2 4.098,4.853 18.012,8.368 20,-1 4.378,-1.26 9.622,-1.26 14,0 -0.428,3.906 -5.92,2.747 -5,8 4.395,-3.392 12.369,-6.503 18,-3 0.154,2.488 -1.571,3.096 -2,5 3.648,1.485 8.067,-1.504 12,1 2.009,2.039 -0.442,1.961 -1,4 4.83,0.939 10.73,-0.124 15,1 0.729,2.729 -1.987,2.013 -2,4 5.726,1.614 15.011,-2.139 20,2 1.053,3.719 -3.372,1.961 -4,4 1.697,7.113 11.707,-0.29 14,6 3.149,0.483 2.264,-3.069 6,-2 0,1.333 0,2.667 0,4 5.034,2.047 12.57,-1.803 13,3 3.056,0.723 3.645,-1.022 6,-1 0.324,4.444 6.343,4.734 4,9 2.963,2.199 4.82,0.559 8,2 2.262,1.025 4.305,5.212 6,6 0.376,0.175 2.544,-1.485 4,-1 0.679,0.226 1.392,2.827 2,3 1.661,0.473 2.18,-1.313 4,-1 3.743,0.643 5.582,4.398 9,4 1.816,5.687 10.118,9.65 9,15 1.907,1.877 1.81,-0.593 5,0 -0.515,2.926 4.979,4.915 2,7 3.527,2.755 6.896,6.562 5,12 3.078,0.745 1.922,-2.745 5,-2 -0.468,2.134 1.429,1.905 3,2 -1.928,4.535 1.859,2.85 4,5 0.615,0.618 0.201,2.598 1,3 0.938,0.472 3.199,-0.645 4,0 -0.124,-0.1 5.267,5.184 6,6 0.479,0.533 -0.51,2.503 0,3 2.65,2.58 6.613,3.227 9,6 -2.26,4.796 3.992,9.152 1,13 8.632,7.035 16.733,14.6 22,25 0.15,1.85 3.387,0.613 4,2 1.953,15.429 13.016,23.647 17,39 0.986,3.799 1.181,7.378 3,11 1.21,2.409 3.966,4.515 5,7 0.883,2.12 0.188,4.177 1,6 2.71,6.085 7.362,11.324 8,16 -0.066,-0.488 -1.807,-0.647 -2,-1 0.946,1.728 3.949,2.945 4,3 2.612,2.814 0.731,4.84 4,6 -3.269,-0.65 0.328,4.153 -3,2 1.613,3.096 0.866,3.884 2,6 -0.56,2.896 -1.56,-1.534 -3,-1 -0.541,3.541 3.541,2.459 3,6 -3.82,-2.887 0.316,6.075 1,8 -0.81,-0.19 -0.997,-1.003 -2,-1 1.207,1.555 3.195,3.896 1,6 1.334,1.666 4.447,1.553 6,3 0,0.333 0,0.667 0,1 z"
   id="path7"
   style="fill-rule:evenodd" />
            
            <g
   id="g9" />
            
        </g>
        
    </g>
    
</svg>