<?xml version="1.0" encoding="UTF-8" standalone="no"?>
<!-- Created with Inkscape (http://www.inkscape.org/) -->

<svg
   xmlns:svg="http://www.w3.org/2000/svg"
   xmlns="http://www.w3.org/2000/svg"
   version="1.2"
   width="193.72099"
   height="170.77499"
   viewBox="0 0 193.721 170.775"
   id="Layer_1"
   xml:space="preserve"
   style="overflow:inherit"><defs
   id="defs7" />
<path
   d="m 131.561,170.775 c -0.064,-1.265 1.063,-1.337 1.2,-2.399 -2.229,-0.148 -2.483,1.677 -4.56,1.68 -0.229,-1.514 1.755,-2.076 1.199,-3.12 -1.422,0.262 -2.495,2.14 -3.6,1.92 0.429,-1.57 1.56,-2.439 2.4,-3.6 -1.418,-0.138 -1.469,1.092 -2.641,1.2 0.536,-2.584 3.623,-2.617 4.801,-4.561 3.224,-1.976 9.76,-0.639 12.239,-3.359 -1.65,-1.791 -3.568,0.295 -5.28,0.479 -0.928,0.101 -1.654,-0.45 -2.64,-0.479 -2.253,-0.068 -4.253,2.031 -6.479,0.72 -0.123,1.003 1.102,0.658 1.439,1.2 -1.853,0.531 -2.628,0.7 -4.56,1.199 -0.403,-1.258 -3.546,-0.76 -4.561,-0.479 -1.177,-1.239 -3.441,-0.729 -4.08,-2.88 -2.598,0.602 -5.737,0.662 -8.159,1.439 -0.896,0.256 -0.381,-0.899 -1.2,-0.72 -2.339,0.724 -4.8,1.831 -8.16,1.681 -2.368,-0.107 -4.585,-1.556 -6.72,-1.44 -1.108,0.06 -1.875,1.153 -2.88,0.72 0.07,-1.035 2.534,-2.016 1.68,-2.399 -1.498,-0.225 -2.538,1.041 -3.6,0.479 0.629,-1.371 2.523,-1.477 3.36,-2.64 -0.807,-0.189 -2.401,0.928 -2.64,-0.24 2.897,-0.751 3.502,-2.979 6.24,-3.6 2.983,-0.677 5.75,1.522 8.64,1.439 1.777,-0.051 4.381,-1.411 5.04,-2.64 -3.07,-0.379 -10.259,0.333 -13.68,-0.721 -5.219,1.298 -7.015,4.745 -9.84,8.16 0.178,0.383 1.175,-0.055 0.96,0.721 -0.09,0.95 -1.594,0.485 -2.16,0.96 0.279,0.44 1.566,-0.127 1.2,0.96 -0.589,0.827 -1.876,-0.47 -2.4,0.24 -0.323,0.677 1.272,0.602 0.48,0.959 -0.349,0.132 -1.24,-0.28 -1.2,0.24 0.534,0.187 1.301,0.139 1.44,0.721 -1.012,-0.041 0.004,0.368 0,0.72 -0.467,0.337 -1.546,0.784 -2.16,0.24 -0.317,0.601 1.118,0.582 0.24,0.96 -1.165,0.573 -1.977,-0.471 -1.92,-1.2 -1.011,0.578 -1.906,0.332 -3.12,0 -0.564,0.235 -0.398,1.201 -1.2,1.2 -4.212,-0.493 -7.172,0.424 -10.8,-1.44 -0.958,-0.237 -0.723,0.718 -1.68,0.48 -0.229,-0.491 -0.49,-0.95 -0.72,-1.44 -2.465,0.257 -2.903,-0.938 -6,-0.24 -3.334,3.256 -10.288,4.804 -16.56,3.601 -0.797,0.243 -0.752,1.328 -1.92,1.2 -0.582,-0.816 0.846,-1.283 0.72,-2.4 -1.7,-0.181 -1.657,1.383 -3.12,1.439 -0.071,-1.431 2.003,-2.166 1.68,-3.6 -1.434,0.406 -2.173,1.507 -3.12,2.4 0.295,-2.025 1.479,-3.161 2.64,-4.32 -0.526,-0.712 -1.42,0.979 -1.92,0.24 1.456,-5.184 9.171,-4.109 14.16,-5.76 -5.053,0.856 -9.875,0.042 -14.64,1.439 -5.565,-2.369 -10.322,-5.07 -18,-4.8 -2.424,-1.735 -6.184,-2.137 -7.92,-4.561 -1.067,-0.263 -1.75,0.58 -2.4,0 0.472,-1.048 1.757,-1.282 2.4,-2.159 -1.439,-0.16 -2.342,0.217 -3.6,0.239 0.366,-1.314 1.693,-1.666 2.88,-2.159 -0.622,-0.989 -2.658,-0.533 -3.12,-0.48 2.664,-2.543 7.902,-0.59 11.76,-1.44 2.596,4.059 10.83,2.326 15.6,2.16 -0.434,-1.06 0.424,-1.223 0.96,-2.399 -0.891,-0.105 -2.275,0.802 -2.64,-0.24 0.387,-0.333 1.237,-0.203 1.44,-0.72 -0.8,0 -1.6,-10e-4 -2.4,0 0.321,-1.682 -2.118,-0.603 -2.16,-1.921 0.344,-0.716 -0.196,-0.815 0.24,-1.439 -0.524,-0.276 -1.552,-0.048 -1.68,-0.72 0.387,-0.333 1.237,-0.203 1.44,-0.721 -1.626,-0.693 -2.861,-1.778 -4.8,-2.159 0.078,-0.562 1.047,-0.233 1.2,-0.721 -0.481,-0.479 -1.945,0.025 -2.16,-0.72 -0.119,-0.759 1.191,-0.089 0.96,-0.96 -0.794,-0.01 -2.564,0.234 -1.68,-0.72 -1.359,0.401 -2.115,-0.196 -2.64,-0.721 -0.108,-0.668 1.308,0.188 1.2,-0.479 -1.079,-0.338 -2.133,0.727 -2.4,-0.24 0.146,-0.414 1.138,0.019 1.2,-0.479 -2.192,-1.009 -4.72,-1.681 -6.96,-2.641 0.525,-0.514 1.292,0.388 1.68,-0.479 -0.61,-0.51 -2.181,-0.06 -2.16,-1.2 0.615,0.218 1.361,0.389 1.68,-0.24 -3.638,-2.012 -6.87,-3.051 -9.6,-6 -0.321,-2.935 -3.206,-7.14 -0.72,-9.84 3.678,0.062 7.664,0.895 11.28,0.24 4.833,-5.359 19.775,-7.034 25.92,-2.16 3.178,0.411 6.053,3.108 9.6,3.36 2.241,0.158 4.544,-1.015 6.72,-0.961 1.785,-2.188 4.53,-4.517 6.24,-6 3.453,-5.106 9.785,-9.414 15.12,-13.439 5.901,-2.58 9.317,-6.555 17.28,-6.72 -0.417,-1.583 -1.556,-2.443 -1.44,-4.56 -1.792,-2.749 -2.118,-6.807 -3.6,-9.84 -1.247,-2.552 -2.625,-4.134 -3.12,-6.48 -0.795,-3.767 0.146,-9.395 -0.48,-12.72 2.198,-3.198 3.699,-7.703 4.8,-11.28 0.462,-0.098 0.189,-0.93 0.96,-0.72 0.934,-3.806 2.732,-7.416 4.8,-10.56 3.751,-5.705 6.085,-12.733 12.479,-15.12 0.312,-0.334 2.036,-1.319 2.641,-2.16 1.314,0.423 2.246,-0.684 3.359,-0.96 1.278,-0.317 1.058,-0.292 1.681,-0.72 2.145,-1.474 3.378,-0.558 5.999,-0.72 1.521,-0.094 2.654,-0.191 4.08,0.48 2.848,-5.965 14.014,-8.516 19.681,-3.36 3.005,-0.164 3.269,1.326 6.239,1.44 -0.035,0.756 1.339,0.101 0.961,1.2 4.016,0.704 6.256,3.183 8.64,5.52 0.957,2.755 2.783,5.814 5.04,6.48 1.824,2.49 3.833,5.456 5.52,7.68 1.978,2.606 2.129,4.335 3.36,7.68 0.481,1.307 1.675,2.448 2.16,3.84 0.853,2.447 0.926,5.144 2.16,7.44 0.296,0.777 -0.776,0.184 -0.48,0.96 0.878,0.482 0.873,1.848 1.44,2.64 -1.098,0.618 0.028,1.873 0,2.88 -0.281,0.593 -0.998,-0.582 -0.96,0.48 0.502,4.251 2.997,7.008 4.8,10.56 0.943,0.42 1.025,0.61 1.92,0.72 2.291,3.789 5.273,6.886 6.72,11.52 -0.197,0.602 0.467,2.066 -0.479,1.92 -0.354,0.913 1.072,0.047 0.72,0.96 -0.203,0.597 -0.765,0.835 -1.2,1.2 1.173,0.372 0.332,1.18 0,1.92 0.08,1.818 1.607,5.29 0.721,7.919 0.523,-0.043 0.763,0.197 0.72,0.721 0.7,3.631 -0.694,6.962 -0.48,10.319 0.209,3.269 0.407,6.062 0.96,7.92 -0.425,0.056 -1.201,-0.241 -0.96,0.48 1.167,0.066 0.274,0.949 1.2,1.44 -0.953,0.266 -0.513,0.93 -0.72,1.92 -1.359,0.419 -0.966,1.421 -1.92,1.92 0.604,1.896 -1.487,3.283 -2.16,5.04 -0.312,0.812 -0.21,1.857 -0.48,2.64 -1.399,4.061 -3.382,7.405 -5.76,10.561 -1.7,2.255 -3.675,5.095 -5.28,6.959 -1.099,1.277 -2.659,2.115 -3.84,3.12 -2.736,-0.37 -3.894,2.131 -6,0.96 0.035,0.755 -0.615,0.825 -1.199,0.961 -2.544,0.284 -2.869,-0.611 -4.561,-1.44 -0.824,0.616 -1.163,1.717 -0.96,3.36 -1.241,0.636 -0.563,2.064 -0.96,3.119 -1.289,3.428 -4.362,6.06 -7.2,6.24 0.146,0.414 1.139,-0.019 1.2,0.48 -1.665,0.909 0.184,3.078 -0.48,4.56 -0.347,0.774 -3.312,2.348 -4.56,3.12 -1.692,1.048 -3.777,1.894 -5.04,2.88 -1.524,1.19 -3.542,4.255 -4.8,4.8 -2.148,0.931 -5.327,-0.528 -6.72,0.96 -0.239,0.001 -0.48,0.001 -0.72,0.001 z"
   id="path3"
   style="fill-rule:evenodd" />
</svg>