<?xml version="1.0" encoding="UTF-8" standalone="no"?>
<!-- Created with Inkscape (http://www.inkscape.org/) -->

<svg
   xmlns:svg="http://www.w3.org/2000/svg"
   xmlns="http://www.w3.org/2000/svg"
   version="1.2"
   width="944.27197"
   height="408.66299"
   viewBox="0 0 944.272 408.663"
   id="Layer_1"
   xml:space="preserve"
   style="overflow:inherit"><defs
   id="defs11" />
<g
   id="g3">
	<path
   d="m 785.005,347.634 c 0,0 7.723,27.091 3.599,29.567 -4.125,2.478 -17.479,-19.768 -21.081,-22.752 -3.604,-2.982 -6.346,-16.699 -36.509,-25.728"
   id="path5" />
	<path
   d="m 831.756,285.35 c 0,0 -43.88,-25.285 -63.038,-37.155 -19.158,-11.871 -54.709,-66.584 -67.559,-80.438 -12.85,-13.853 -78.24,-57.3 -107.645,-65.505 C 564.109,94.043 497.054,85.712 467.804,89.44 438.553,93.164 355.803,67.849 334.395,65.641 312.987,63.435 244.371,38.874 228.892,36.046 213.415,33.217 162.006,7.434 144.138,3.425 126.268,-0.586 87.058,-1.684 62.775,3.479 38.495,8.64 22.641,22.663 11.996,26.131 1.35,29.602 -1.333,32.364 0.561,38.096 c 1.896,5.73 7.911,11.535 8.564,16.16 0.652,4.623 8.851,12.485 13.327,14.245 4.479,1.762 48.456,12.586 60.352,13.961 11.896,1.374 42.447,21.578 65.528,61.271 23.083,39.691 59.837,80.419 89.731,95.785 29.894,15.367 16.293,9.56 32.341,10.563 0,0 10.944,30.08 17.135,49.39 6.189,19.31 28.452,58.562 41.031,66.884 12.579,8.319 34.562,21.891 45.336,28.415 10.776,6.526 21.437,20.25 25.468,10.501 4.031,-9.746 6.976,-11.603 8.125,-14.646 1.148,-3.046 -2.478,-7.847 -4.345,-14.487 -1.869,-6.641 3.461,-7.922 -0.213,-16.356 -3.673,-8.437 -3.72,-12.07 -7.337,-16.266 -3.618,-4.194 -3.149,-13.708 -5.017,-20.349 -1.87,-6.641 -8.554,-13.684 -19.319,-19.603 -10.768,-5.921 -27.272,-1.218 -32.71,-8.419 -5.439,-7.202 -5.452,-8.202 -5.452,-8.202 0,0 56.19,14.08 111.422,13.971 55.229,-0.109 168.1,-0.478 200.642,-9.988 32.539,-9.51 39.914,26.42 61.344,30.382 21.433,3.964 53.124,20.521 72.182,24.515 19.055,3.994 44.305,-13.477 46.259,-0.171 1.955,13.304 8.445,6.149 11.159,19.862 4.034,20.381 1.132,13.171 9.076,19.315 7.276,5.628 2.534,10.736 4.61,15.607 1.046,2.452 9.001,3.359 6.471,-5.485 -4.37,-15.277 4.746,1.34 8.903,1.286 4.156,-0.054 -4.343,-12.038 -0.227,-15.121 4.118,-3.082 14.739,7.174 12.903,2.956 -1.837,-4.217 7.931,-1.774 10.25,-6.047 2.321,-4.271 5.805,0.292 11.181,2.646 5.374,2.354 7.956,-3.83 7.284,-9.881 -0.673,-6.049 11.748,4.786 20.124,9.525 8.376,4.739 19.694,4.791 17.241,-1.236 -2.454,-6.028 -8.749,-23.702 -23.165,-36.239 -14.414,-12.537 -43.223,-37.885 -89.009,-57.49 z"
   id="path7" />
</g>
</svg>