<?xml version="1.0" encoding="UTF-8" standalone="no"?>
<!-- Created with Inkscape (http://www.inkscape.org/) -->

<svg
   xmlns:svg="http://www.w3.org/2000/svg"
   xmlns="http://www.w3.org/2000/svg"
   version="1.1"
   width="3280"
   height="1925"
   viewBox="0 0 3280 1925"
   id="svg3336">
  <defs
     id="defs3340" />
  <path
     d="m 2237.176,1504.9704 c -1.6061,-0.6437 -5.8249,-1.6678 -9.375,-2.2758 -3.5503,-0.6082 -10.1111,-2.0023 -14.5799,-3.0981 -22.4835,-5.5137 -41.5307,-8.0695 -61.25,-8.2187 -7.9062,-0.06 -18.5937,-0.6476 -23.75,-1.3065 -5.1562,-0.6587 -17.5312,-1.8186 -27.5,-2.5774 -31.2504,-2.3785 -33.754,-4.5709 -50.0104,-43.7931 -15.2732,-36.8501 -20.7342,-52.7621 -25.0627,-73.0266 -1.6399,-7.6774 -1.3696,-21.7981 0.6254,-32.6744 1.3611,-7.4201 2.0018,-27.422 2.6172,-81.7006 0.7544,-66.5369 1.0341,-73.3706 3.7676,-92.0127 1.7517,-11.9461 4.2464,-23.5744 6.1329,-28.5863 1.749,-4.6467 3.18,-10.3681 3.18,-12.7142 0,-7.5545 -11.0142,-36.0022 -19.6325,-50.7069 -5.0584,-8.631 -8.6375,-11.1189 -20.1012,-13.973 -4.6152,-1.1491 -12.61,-3.1454 -17.7663,-4.4363 -5.1562,-1.291 -15.5625,-2.8885 -23.125,-3.5501 -11.1556,-0.976 -17.391,-2.4122 -33.0471,-7.6117 -11.8355,-3.9307 -21.5024,-6.4125 -25,-6.4184 -3.1366,0 -11.8904,-1.7106 -19.4529,-3.7896 -7.5625,-2.079 -22.4687,-6.0815 -33.125,-8.8944 l -19.375,-5.1144 -49.875,-1.2686 c -44.4329,-1.1301 -50.9116,-1.0471 -59.375,0.7607 -8.4975,1.8152 -10.2255,1.8349 -16.375,0.1874 -10.6942,-2.865 -27.9081,-2.3575 -36.25,1.0688 -7.9921,3.2827 -9.6717,5.9106 -11.3494,17.7568 -1.2961,9.1524 -7.831,31.3804 -13.5758,46.1779 -2.1353,5.5 -4.7289,13.6562 -5.7637,18.125 -1.0346,4.4688 -4.3676,16.8438 -7.4066,27.5 -6.1145,21.4404 -7.4645,28.2651 -9.3686,47.3651 -0.7124,7.1445 -2.418,16.6257 -3.7905,21.0692 -4.5916,14.8661 -3.1629,22.2647 6.8,35.2122 8.8047,11.4424 15.6514,16.6971 29.7336,22.8204 7.0653,3.072 18.2108,9.2497 24.7676,13.7282 6.5569,4.4785 21.4632,12.8158 33.125,18.5273 11.6619,5.7113 25.1409,13.343 29.9534,16.959 10.9248,8.2085 16.9703,10.0562 24.3656,7.447 3.791,-1.3377 10.5043,-1.8784 23.3185,-1.8784 17.4494,0 18.3254,0.1279 28.9053,4.2182 6.0009,2.3202 13.0586,4.9078 15.684,5.7504 5.4401,1.7459 44.0936,21.964 47.4141,24.8003 2.7459,2.3456 2.818,6.922 0.1511,9.5889 -1.604,1.604 -4.0585,1.9547 -11.5592,1.6518 l -9.5229,-0.3846 -0.6282,4.375 c -0.7213,5.0223 -0.182,4.8631 -26.9045,7.9385 -11.3398,1.305 -16.6197,2.5366 -21.5209,5.0204 -6.4771,3.2821 -6.5758,3.2911 -36.2239,3.2751 -28.7544,-0.016 -30.2002,-0.1362 -44.104,-3.6825 -17.0625,-4.3519 -35.7129,-9.5051 -53.75,-14.8515 -7.2187,-2.1396 -22.6875,-6.5365 -34.375,-9.7706 -19.3906,-5.3658 -27.9982,-8.3714 -33.125,-11.5664 -1.0312,-0.6426 -7.5,-3.5264 -14.375,-6.4081 -14.2735,-5.983 -35.5917,-17.0579 -45.4632,-23.6184 -3.6923,-2.4539 -9.2682,-6.0457 -12.3909,-7.982 -3.1228,-1.9362 -7.9768,-5.3592 -10.7868,-7.6066 -2.81,-2.2474 -10.1716,-7.1181 -16.3591,-10.8239 -7.6384,-4.5747 -14.592,-10.1586 -21.6601,-17.3934 -18.2866,-18.718 -22.0263,-23.7808 -26.3101,-35.62 -4.8082,-13.2879 -8.9048,-37.8767 -8.9048,-53.4481 0,-11.1342 -1.4457,-17.8297 -7.6304,-35.3375 -0.7286,-2.0625 -2.7332,-7.9384 -4.4548,-13.0575 -4.3595,-12.9627 -13.4728,-28.3955 -18.2165,-30.8486 -2.828,-1.4624 -6.3725,-1.832 -13.933,-1.453 -16.496,0.8267 -29.5362,8.3417 -53.154,30.6326 -4.53,4.2754 -11.8925,10.1015 -16.3613,12.9468 -4.4687,2.8453 -11.2187,7.8341 -15,11.086 -15.8592,13.6391 -28.7177,19.641 -55.0922,25.715 -10.4188,2.3993 -16.9397,3.1037 -28.735,3.1037 -8.3917,0 -17.2918,0.5369 -19.7778,1.1931 -2.486,0.6563 -6.086,1.5155 -8,1.9095 -8.0728,1.6618 -7.0192,12.1779 2.8201,28.1474 2.7534,4.4688 6.964,12.1287 9.357,17.0223 2.393,4.8935 7.1263,13.703 10.5185,19.5767 3.3921,5.8736 8.4865,15.0886 11.3207,20.4776 5.923,11.2622 7.6037,13.295 19.5001,23.5862 15.9741,13.8185 18.6607,15.4024 45.5886,26.8786 8.5938,3.6625 18.7618,8.4961 22.5955,10.7415 3.8339,2.2455 9.8798,5.2292 13.4353,6.6307 19.2893,7.6031 27.9943,13.9224 33.3991,24.2453 5.3574,10.2325 4.3275,11.3597 -9.3976,10.286 l -11.1739,-0.8742 -1.9354,4.6322 -1.9354,4.6321 -8.4313,-0.7766 c -21.0792,-1.9417 -29.0677,-3.2775 -37.7128,-6.3064 -10.5341,-3.691 -18.1977,-4.2379 -19.2955,-1.377 -1.0764,2.805 -3.8679,2.3221 -14.6065,-2.5264 -10.9175,-4.9294 -26.785,-9.3477 -33.5789,-9.3502 -8.2551,0 -29.2372,-6.0209 -39.4876,-11.3255 -12.2477,-6.3383 -13.457,-7.3892 -18.3565,-15.9525 -2.1463,-3.7513 -5.4203,-8.5699 -7.2756,-10.708 -4.2267,-4.871 -24.9189,-39.4534 -28.1295,-47.0124 -1.3141,-3.0937 -7.2638,-14.9062 -13.2216,-26.25 -5.9578,-11.3437 -14.599,-29.0625 -19.2027,-39.375 -8.087,-18.1151 -11.2976,-24.7629 -22.3811,-46.3405 -2.8506,-5.5498 -6.5278,-13.706 -8.1714,-18.125 -3.5116,-9.4413 -11.7728,-26.9275 -16.4925,-34.9095 -18.1021,-30.6142 -22.7262,-39.539 -26.3248,-50.8083 -3.966,-12.4198 -14.927,-41.4798 -20.4404,-54.1917 -1.64,-3.7812 -3.5316,-9.125 -4.2035,-11.875 -8.6248,-35.2971 -18.8885,-55.625 -28.08533,-55.625 -1.49497,0 -9.46744,3.1665 -17.7166,7.0366 -8.24917,3.8701 -23.99848,10.9612 -34.99848,15.758 -21.65207,9.442 -34.23755,17.1354 -53.7247,32.8412 -11.41925,9.2035 -21.6142,16.7632 -42.51819,31.5277 -4.12891,2.9163 -19.60086,13.4686 -34.38211,23.4496 -14.78125,9.981 -32.78125,22.3247 -40,27.4303 -26.9304,19.0472 -33.43354,23.1661 -43.15699,27.3341 -5.48241,2.35 -15.59301,7.0841 -22.46801,10.5201 -13.44055,6.7175 -22.62756,10.002 -39.375,14.077 -5.84375,1.422 -14,3.9685 -18.125,5.6591 -4.125,1.6905 -11.4375,4.4369 -16.25,6.103 -4.8125,1.6662 -11.84375,4.1569 -15.625,5.535 -3.78125,1.378 -11.97305,3.1169 -18.20401,3.8642 -6.23095,0.7471 -15.23095,2.3968 -20,3.666 -4.76904,1.2691 -13.45224,3.5443 -19.29599,5.0561 -17.59989,4.553 -29.9031,8.7398 -44.375,15.1006 -15.49474,6.8105 -24.62077,9.867 -33.75,11.3038 -3.4375,0.5409 -11.875,2.3687 -18.75,4.0617 -6.875,1.693 -18.125,4.0973 -25,5.3425 -6.875,1.2454 -13.90625,2.7744 -15.625,3.3978 -1.71875,0.6234 -11.5625,1.9568 -21.875,2.9631 -27.78425,2.7114 -35.58305,3.6659 -42.5,5.2016 -3.4375,0.7633 -9.34375,2.0539 -13.125,2.868 -3.78125,0.8143 -10.25,2.2638 -14.375,3.2211 -10.97902,2.5482 -27.58169,5.5438 -36.875,6.6534 -4.46875,0.5336 -9.70849,1.602 -11.64387,2.3743 -1.93538,0.7722 -4.93465,1.4041 -6.66504,1.4041 -1.73039,0 -7.45939,1.4052 -12.73113,3.1227 -21.67157,7.0608 -25.05167,8.0118 -35.57151,10.0088 -8.63349,1.639 -16.54622,1.9955 -36.94495,1.6646 l -25.9584,-0.4211 -8.37007,-4.2508 c -7.5539,-3.8363 -8.50444,-4.7498 -9.74799,-9.368 -0.75785,-2.8145 -2.37841,-7.0891 -3.60125,-9.4992 -1.87325,-3.692 -2.03494,-5.5629 -1.02679,-11.882 0.6581,-4.125 1.4638,-9.3401 1.79044,-11.5893 0.89291,-6.1482 7.34879,-12.5565 17.29511,-17.1673 6.30366,-2.9223 10.98871,-6.3372 16.51343,-12.0365 6.44183,-6.6455 10.45895,-9.335 24.375,-16.3194 17.54437,-8.8054 32.05848,-15.3013 37.28702,-16.6881 1.71875,-0.456 5.9375,-2.1469 9.375,-3.7575 14.52599,-6.8067 29.20498,-12.9907 35.625,-15.0084 16.16053,-5.079 21.16464,-6.5914 30.625,-9.2553 5.5,-1.5487 13.9375,-3.927 18.75,-5.285 14.50726,-4.0937 33.36544,-9.9052 40,-12.3267 3.4375,-1.2546 8.78125,-3.119 11.875,-4.143 20.28253,-6.7135 25.515,-8.8734 66.25,-27.3478 35.18229,-15.9562 73.30339,-35.3139 86.875,-44.1148 7.5625,-4.9041 19.65625,-12.1738 26.875,-16.1549 7.21875,-3.9811 15.9375,-9.0646 19.375,-11.2967 15.26729,-9.9138 21.0861,-13.2172 38.125,-21.6443 19.56929,-9.6786 59.84575,-32.4085 75,-42.3261 36.1588,-23.6637 47.0882,-31.8253 54.40946,-40.6305 4.10605,-4.9383 15.41512,-17.1754 25.13125,-27.1936 19.26317,-19.8619 40.37728,-44.66123 52.22464,-61.3398 4.15101,-5.84375 11.2225,-14.84375 15.7144,-20 4.4919,-5.15625 12.09969,-14.42328 16.90618,-20.59339 4.80648,-6.17012 13.82758,-16.57637 20.04687,-23.125 6.21929,-6.54864 15.8415,-17.53161 21.38268,-24.40661 5.54118,-6.875 14.99053,-17.84375 20.99856,-24.375 6.00802,-6.53125 14.23887,-16.09375 18.29079,-21.25 4.47193,-5.69076 12.09725,-13.05924 19.40353,-18.75 6.62005,-5.15625 14.85513,-12.75 18.3002,-16.875 8.26114,-9.8916 31.77535,-31.63085 62.19475,-57.5 6.4674,-5.5 14.8781,-12.85228 18.6903,-16.33838 3.8123,-3.48611 11.4314,-9.70715 16.9314,-13.82452 5.5,-4.11739 15.3438,-11.48616 21.875,-16.37508 6.5313,-4.8889 14.9688,-11.26547 18.75,-14.17015 12.0308,-9.24183 39.8001,-36.15112 48.1434,-46.65242 13.1698,-16.57624 30.4082,-31.26665 45.6066,-38.86548 8.3582,-4.17887 22.7875,-13.82921 33.75,-22.57196 4.4688,-3.56389 13.1875,-9.45634 19.375,-13.09432 6.1875,-3.63799 16.26,-9.99488 22.3834,-14.12643 9.996,-6.74452 22.0844,-13.92702 32.6166,-19.37965 2.0625,-1.06779 6.7759,-3.86937 10.474,-6.22576 8.7884,-5.59964 15.0045,-8.30193 33.901,-14.73756 8.5938,-2.9268 21.5313,-7.67117 28.75,-10.54304 7.2188,-2.87188 17.3438,-6.8027 22.5,-8.73516 5.1563,-1.93247 13.3931,-5.23852 18.3043,-7.34678 6.7282,-2.88839 12.8903,-4.31262 25,-5.77819 8.8388,-1.06973 18.3207,-2.36226 21.0707,-2.87228 8.5495,-1.58559 96.7565,-0.72952 103.125,1.00087 3.2134,0.87311 20.6304,2.00039 40.625,2.62935 38.1151,1.19898 58.5915,2.65611 66.2966,4.71776 2.7244,0.72897 10.5784,2.20385 17.4534,3.27752 6.875,1.07367 19.25,4.17553 27.5,6.89302 8.25,2.7175 18.375,5.85176 22.5,6.96504 4.125,1.11327 11.4375,3.43227 16.25,5.15334 25.6908,9.18762 55.262,19.07262 57.1299,19.09721 3.2237,0.0425 22.7735,6.73685 34.7451,11.89767 20.5738,8.86913 28.1728,12.05763 32.9879,13.84158 2.6745,0.99089 6.612,2.85449 8.75,4.14132 2.1379,1.28684 6.9809,3.33905 10.7621,4.56048 3.7813,1.22141 8,2.94955 9.375,3.8403 1.375,0.89075 5.875,2.48465 10,3.542 4.125,1.05735 9.4688,2.72521 11.875,3.70635 2.4063,0.98115 6.9063,2.60272 10,3.60351 27.2761,8.82345 55.7763,18.74001 59.8894,20.83838 2.756,1.40605 5.6804,2.55646 6.4984,2.55646 0.8181,0 4.3561,1.35564 7.8623,3.01252 20.4323,9.65553 34.8434,15.86144 44.4999,19.16323 3.0938,1.05782 9.2813,3.17249 13.75,4.69925 4.4688,1.52676 10.9375,3.75367 14.375,4.94869 3.4375,1.19501 9.3438,2.89102 13.125,3.76891 3.7813,0.87789 9.9688,2.53877 13.75,3.69086 3.7813,1.15208 10.25,3.12266 14.375,4.37908 9.3721,2.8546 23.9495,6.60823 39.375,10.13891 6.5313,1.49491 14.9688,3.47487 18.75,4.39991 15.6086,3.81849 50.0889,5.08856 63.75,2.34823 14.6506,-2.93883 32.5781,-6.9934 38.75,-8.76388 3.0938,-0.88749 8.1563,-2.0001 11.25,-2.47247 3.0938,-0.47238 7.0591,-1.59224 8.812,-2.48859 1.7528,-0.89635 7.0676,-2.88344 11.8106,-4.41575 4.743,-1.53231 10.6214,-3.9668 13.063,-5.40996 5.3013,-3.13334 16.0704,-7.78024 23.7222,-10.23617 3.0431,-0.97668 7.3076,-2.82295 9.4768,-4.1028 2.1692,-1.27986 6.1454,-3.05353 8.836,-3.94151 2.6905,-0.88799 7.3692,-2.93165 10.3969,-4.54149 3.0276,-1.60983 6.2524,-2.92697 7.166,-2.92697 0.9136,0 4.6268,-1.34656 8.2513,-2.99238 9.1942,-4.17473 24.7296,-10.40776 28.4652,-11.42062 1.7188,-0.46603 4.3079,-1.59123 5.7535,-2.50045 5.1923,-3.26541 30.0235,-11.41491 40.3148,-13.23104 3.6812,-0.64965 8.7437,-2.05301 11.25,-3.11857 4.6608,-1.98168 16.3161,-5.41012 35.1817,-10.34893 5.8438,-1.52982 12.875,-3.38019 15.625,-4.11191 4.8999,-1.30379 13.7836,-2.77015 28.75,-4.74554 4.125,-0.54445 12.5625,-1.67117 18.75,-2.50384 14.9928,-2.01758 134.7159,-2.11072 153.4465,-0.11937 24.5645,2.61156 47.3614,11.98165 87.8035,36.08942 31.7763,18.942 33.4786,20.10144 48.6464,33.13239 29.9626,25.7416 37.0295,32.07196 45.7286,40.96305 5.1563,5.27003 12.1875,11.42424 15.625,13.67604 3.4375,2.25179 7.9375,5.64449 10,7.53931 7.2228,6.63556 25.0903,17.53145 35,21.34361 5.5,2.11577 10.7849,4.49418 11.7443,5.28534 1.75,1.4432 10.0462,4.51251 27.7656,10.27231 5.2304,1.70019 12.5429,5.20753 16.25,7.79409 l 6.7401,4.70284 0.3819,8.70962 c 0.3746,8.5437 -0.1451,11.53209 -4.9156,28.26355 -2.3638,8.29059 -5.4749,12.15952 -15.0599,18.72862 -1.6313,1.1179 -4.6023,5.26687 -6.6023,9.21995 -4.1677,8.23732 -8.1831,11.17388 -18.1566,13.27858 -9.4955,2.0038 -11.3492,3.40129 -16.7402,12.61945 -2.5837,4.41768 -7.671,11.15158 -11.3054,14.96423 -5.6646,5.94247 -8.0189,7.40196 -16.4906,10.22331 -13.8553,4.61424 -25.9564,6.98989 -35.7343,7.01524 -5.3069,0.0137 -11.944,1.13476 -18.125,3.06136 -5.3636,1.67181 -12.4442,3.42624 -15.7346,3.8987 -3.2905,0.47248 -7.1435,1.79896 -8.5621,2.94776 -1.4188,1.1488 -4.2715,6.8475 -6.3397,12.6638 -2.068,5.81629 -5.0577,14.23133 -6.6438,18.70008 -1.5862,4.46875 -4.9239,12.625 -7.417,18.125 -2.4933,5.5 -5.9883,13.375 -7.7668,17.5 -8.1034,18.79506 -23.5657,49.375 -24.9659,49.375 -3.6342,0 -2.7198,-3.52703 4.9769,-19.19714 9.2008,-18.73232 12.8423,-26.61452 17.6954,-38.30286 1.8555,-4.46875 4.988,-11.21875 6.9612,-15 1.9732,-3.78125 5.2802,-11.51763 7.3487,-17.19194 2.0686,-5.67431 4.6182,-11.97451 5.666,-14.00042 1.8982,-3.67098 2.5265,-9.01919 1.2136,-10.33208 -0.7675,-0.76746 -11.0015,2.02838 -14.9835,4.09336 -2.4831,1.28767 -5.3613,7.69138 -10.3626,23.05608 -4.1615,12.78482 -19.5449,46.71882 -32.8665,72.5 -2.1315,4.125 -5.805,11.29687 -8.1635,15.9375 -4.3719,8.60251 -4.9093,9.12896 -7.5837,7.42974 -1.7887,-1.13657 4.3452,-14.73144 17.311,-38.36724 8.2069,-14.96051 20.367,-41.20925 24.032,-51.875 1.063,-3.09375 3.5994,-10.26278 5.6363,-15.93116 2.0369,-5.66839 3.2587,-10.58099 2.7152,-10.91688 -1.617,-0.99934 -11.5015,7.22746 -18.1628,15.11675 -3.4162,4.04596 -11.8463,13.02898 -18.7335,19.96226 -6.8873,6.93328 -17.866,18.68773 -24.3973,26.121 -15.9787,18.18553 -18.7487,21.06595 -19.5182,20.2964 -1.2943,-1.29418 4.6963,-11.03998 11.8815,-19.32953 4.0253,-4.64412 16.5901,-17.73604 27.9216,-29.09319 11.3316,-11.35714 21.5426,-22.46651 22.6911,-24.6875 1.1485,-2.22098 2.6363,-4.03815 3.3061,-4.03815 0.6699,0 1.2179,-0.5625 1.2179,-1.25 0,-1.77605 -2.5477,-1.53565 -6.7054,0.6327 -1.9692,1.02701 -5.063,1.87542 -6.875,1.88535 -9.6446,0.0529 -43.2863,12.05051 -52.8147,18.83531 -1.8431,1.31236 -10.2988,5.21101 -18.7905,8.66369 -8.4916,3.45267 -19.6781,8.73622 -24.8589,11.74121 -5.1806,3.00499 -14.1555,6.95974 -19.944,8.78833 -5.7885,1.82858 -15.331,6.01738 -21.2055,9.30846 -18.3904,10.30274 -22.8466,12.65595 -35.0387,18.50314 -18.3485,8.79971 -27.5048,16.10416 -51.8729,41.38192 -4.1144,4.26794 -7.9239,7.75989 -8.4655,7.75989 -0.5416,0 -3.3628,2.18289 -6.2693,4.85085 -2.9066,2.66795 -10.9096,9.03865 -17.7846,14.15715 -6.875,5.1185 -15.5937,12.1201 -19.375,15.5591 -6.9085,6.2832 -20.0046,15.5687 -24.0401,17.0452 -1.1909,0.4356 -7.3784,4.381 -13.75,8.7674 -6.3718,4.3864 -14.8826,9.4684 -18.9133,11.2932 -4.0306,1.8248 -11.3431,6.3002 -16.25,9.9452 -4.9068,3.6451 -11.3672,8.3874 -14.3565,10.5385 -9.2298,6.6422 -23.7665,23.526 -47.8531,55.5797 -6.5024,8.6532 -10.5612,12.0661 -31.712,26.6647 -7.6274,5.2645 -18.6185,14.7373 -28.1959,24.3008 -8.6327,8.6203 -19.2746,18.2044 -23.6488,21.2982 -4.3742,3.0938 -10.1014,7.5127 -12.7272,9.8199 -4.9501,4.3494 -13.6156,18.8019 -15.8472,26.4301 -0.704,2.4062 -2.7995,8.0178 -4.6568,12.4701 l -3.3767,8.095 -0.3706,53.78 c -0.3507,50.8743 -1.9139,85.8766 -4.2722,95.6549 -0.5802,2.4062 -1.4206,12.8125 -1.8672,23.125 -0.4905,11.3233 -1.7729,22.8739 -3.2374,29.1612 -1.3337,5.7262 -2.424,11.3512 -2.4229,12.5 0,1.1488 -2.8241,11.37 -6.2782,22.7138 -7.5483,24.7894 -14.6651,39.9754 -20.9706,44.7475 -8.2228,6.223 -11.5033,9.9909 -11.5033,13.2121 0,1.7335 -1.9352,7.3986 -4.3006,12.589 -3.283,7.2041 -5.1316,9.7625 -7.8125,10.8118 -1.9315,0.756 -8.0291,3.6014 -13.5501,6.3231 -6.1704,3.0418 -10.8664,4.6308 -12.1875,4.1237 -2.6342,-1.0107 -2.6629,-1.9083 -0.2457,-7.6937 2.2899,-5.4801 0.7035,-8.2291 -2.8781,-4.9877 -1.256,1.1366 -3.6599,2.2201 -5.342,2.4078 -2.6617,0.2972 -3.0252,-0.1237 -2.8026,-3.2463 0.1407,-1.9733 2.2815,-6.9882 4.7572,-11.1442 4.6859,-7.8662 8.1119,-18.5823 8.1119,-25.3732 0,-2.1753 -1.5469,-6.6978 -3.4375,-10.0499 -3.4286,-6.0792 -3.4365,-6.1497 -3.0505,-27.345 0.3995,-21.9431 0.6659,-23.5769 8.354,-51.25 1.719,-6.1875 3.1274,-13.9442 3.1298,-17.2372 0,-5.7464 -3.4039,-14.7564 -6.2458,-16.5128 -1.7395,-1.075 -6.0151,-9.6146 -9.0447,-18.0649 -1.8594,-5.1858 -2.4303,-9.673 -2.2633,-17.79 0.1949,-9.4787 -0.1037,-11.1823 -2.3594,-13.4375 -4.305,-4.305 -10.0318,-2.7718 -12.4331,3.3285 -0.7499,1.9052 -1.8557,4.3077 -2.4574,5.3389 -0.6017,1.0313 -2.671,6.6563 -4.5985,12.5 -1.9273,5.8438 -5.3118,14.5625 -7.521,19.375 -2.2091,4.8125 -4.4408,10.1563 -4.9592,11.875 -0.5184,1.7188 -3.4648,8.75 -6.5475,15.625 -3.0828,6.875 -7.4478,18.6875 -9.7,26.25 -2.2523,7.5625 -5.3341,16.5625 -6.8485,20 -1.5145,3.4375 -4.8865,11.875 -7.4934,18.75 -2.607,6.875 -7.0539,18.0323 -9.882,24.7938 -2.9951,7.1611 -5.142,14.2975 -5.142,17.0931 0,2.6395 1.739,9.2011 3.8645,14.5811 5.1508,13.0374 22.0336,46.664 24.9459,49.6858 3.0937,3.2102 13.6474,4.5812 23.2276,3.0175 6.9126,-1.1284 8.9933,-0.8809 21.25,2.5273 18.3251,5.0959 42.6111,15.0194 51.1508,20.9009 3.8435,2.6471 9.1906,7.2021 11.8822,10.1224 4.511,4.8937 4.8376,5.7289 4.1743,10.6687 -0.647,4.8168 -0.3289,5.7312 3.1423,9.0308 4.6885,4.4566 4.8297,6.2622 0.7008,8.9676 -2.4519,1.6065 -4.722,1.8883 -10.1109,1.2549 -6.2811,-0.7383 -7.0125,-0.5741 -7.609,1.7071 -0.7279,2.7834 -6.0581,3.3415 -11.4136,1.1953 z"
     id="path3346"
     style="fill:#000000" />
</svg>
