<?xml version="1.0" encoding="UTF-8" standalone="no"?>
<!-- Created with Inkscape (http://www.inkscape.org/) -->

<svg
   xmlns:svg="http://www.w3.org/2000/svg"
   xmlns="http://www.w3.org/2000/svg"
   version="1.2"
   width="647.54102"
   height="723.51898"
   viewBox="0 0 647.541 723.519"
   id="Layer_2"
   xml:space="preserve"><defs
   id="defs7" />
    
    <path
   d="m 638.941,425.368 c 0,0.034 0,0.084 0,0.15 0.033,0.033 0.05,0.083 0.05,0.15 0.1,0.1 0.2,0.216 0.3,0.35 -0.133,-0.266 -0.25,-0.483 -0.35,-0.65 z m -22.95,-149.199 c -0.2,0.399 -0.583,0.6 -1.15,0.6 -0.533,0 -1.166,-0.167 -1.899,-0.5 4.1,5.566 6.149,8.983 6.149,10.25 0,0.566 -0.166,1.033 -0.5,1.4 -0.033,0 -0.866,0.699 -2.5,2.1 -2,-1.267 -4.633,-3.467 -7.899,-6.6 -3.033,-2.934 -5.316,-4.817 -6.851,-5.65 l -0.25,0.75 c 3.534,5.967 7.733,13.9 12.601,23.8 0.8,0.867 1.75,1.934 2.85,3.2 2.8,3.4 4.2,5.717 4.2,6.95 0,0.033 -0.05,0.383 -0.15,1.05 -0.166,0.566 -0.517,0.9 -1.05,1 0.9,1.9 1.733,3.733 2.5,5.5 -0.033,0.134 -0.233,0.417 -0.6,0.85 -0.267,0.334 -0.45,0.634 -0.55,0.9 1.466,1.866 2.899,3.967 4.3,6.3 0.666,1.066 1.883,3.184 3.649,6.351 -0.3,0.133 -0.649,-0.034 -1.05,-0.5 -0.399,-0.567 -0.684,-0.95 -0.85,-1.15 -0.066,0.1 -0.167,0.3 -0.3,0.6 -0.2,0.267 -0.551,0.4 -1.051,0.4 -0.166,0 -1,-0.967 -2.5,-2.9 0,0.134 0,0.267 0,0.4 1.167,4.066 2.217,7.434 3.15,10.1 3.733,6.534 5.6,10.717 5.6,12.551 0,0.3 -0.033,0.517 -0.1,0.649 -0.066,0.066 -0.2,0.134 -0.4,0.2 -1.333,-2.134 -2.583,-4.116 -3.75,-5.95 -0.333,0.634 -0.5,1.066 -0.5,1.3 0,1.567 0.184,3.534 0.551,5.9 -0.134,0.167 -0.284,0.35 -0.45,0.55 0,1.167 0.616,3.233 1.85,6.2 0.634,2.634 1.4,5.566 2.3,8.8 0.067,0.2 0.117,0.417 0.15,0.65 -0.134,-0.033 -0.267,-0.05 -0.4,-0.05 -0.899,0 -1.233,0.783 -1,2.35 0,1.833 0.367,3.4 1.101,4.7 0.967,1.733 1.684,3.8 2.149,6.2 0.2,1.066 0.601,3.267 1.2,6.6 0.267,1.1 0.55,2 0.851,2.7 0,0.133 -0.017,0.283 -0.051,0.45 -0.1,0.267 -0.233,0.517 -0.399,0.75 0.399,1.199 0.7,3.05 0.899,5.55 0.167,2.399 0.217,4.983 0.15,7.75 -0.033,0.033 -0.05,0.083 -0.05,0.149 0.934,1.601 1.666,3.134 2.2,4.601 -0.467,1.8 -0.75,3.616 -0.851,5.45 0.3,0.633 0.617,1.366 0.95,2.199 0.9,2.267 1.533,4.117 1.9,5.551 0.733,0.933 1.1,1.533 1.1,1.8 0,0.467 -0.55,0.833 -1.65,1.1 -0.8,0.2 -1.517,0.3 -2.149,0.3 0,0.034 0,0.25 0,0.65 -0.101,0.4 -0.384,0.6 -0.851,0.6 -0.5,0 -0.949,-0.633 -1.35,-1.899 0,-0.033 -0.217,-0.934 -0.65,-2.7 v 0.1 c 0.034,1.5 0,3.134 -0.1,4.9 -0.1,1.967 -0.15,3.267 -0.15,3.9 0,0.733 0.2,1.583 0.601,2.55 0.434,0.967 0.649,2.116 0.649,3.45 0,2.3 0.217,3.866 0.65,4.699 0.9,1.767 1.667,3.7 2.3,5.801 0.101,-0.101 0.184,-0.15 0.25,-0.15 0.066,0 0.25,0.033 0.55,0.1 -0.033,0.634 0.15,1.584 0.551,2.851 0.399,1.267 0.6,2.133 0.6,2.6 0,0.7 -0.333,1.467 -1,2.3 0.333,1.967 0.5,3.267 0.5,3.9 0,0.134 -0.134,0.4 -0.4,0.8 -0.033,0.066 -0.083,0.15 -0.149,0.25 0.366,1.733 0.75,3.566 1.149,5.5 0.067,0.334 0.134,0.684 0.2,1.05 -1.133,-0.666 -1.7,-0.399 -1.7,0.801 0,0.3 0.934,2 2.801,5.1 1.066,6 1.983,11.833 2.75,17.5 -0.034,0.233 -0.084,0.4 -0.15,0.5 -0.434,0.8 -0.65,1.934 -0.65,3.4 0,0.199 0.983,5.533 2.95,16 0.066,0.8 0.134,1.6 0.2,2.399 l -0.05,-0.05 c -0.167,-0.167 -0.45,-0.25 -0.851,-0.25 -0.767,0 -1.1,0.434 -1,1.3 0,0.667 0.351,1.8 1.051,3.4 0.733,1.7 1.133,2.717 1.199,3.05 0.034,0.2 0.051,0.434 0.051,0.7 0.1,2.166 0.149,4.3 0.149,6.399 -0.033,1.767 -0.267,2.967 -0.7,3.601 -0.5,0.767 -0.75,1.8 -0.75,3.1 0,2.033 0.351,3.55 1.051,4.55 0.133,0.167 0.25,0.351 0.35,0.551 -0.033,3.133 -0.116,6.233 -0.25,9.3 -0.134,-0.066 -0.267,-0.101 -0.4,-0.101 -0.566,0 -0.85,0.417 -0.85,1.25 0,0.434 0.15,2 0.45,4.7 0,0.267 0.149,0.851 0.45,1.75 -0.367,6.834 -0.9,13.533 -1.601,20.101 0.867,2.1 1.3,3.85 1.3,5.25 0,0.399 -0.083,0.683 -0.25,0.85 h -0.5 c -0.267,-0.9 -0.583,-1.8 -0.949,-2.7 -0.267,2.434 -0.567,4.834 -0.9,7.2 0.833,2.4 1.25,4.717 1.25,6.95 0,1.934 -0.384,3.25 -1.15,3.95 -0.433,-0.767 -0.883,-1.667 -1.35,-2.7 -0.134,0.934 -0.283,1.866 -0.45,2.8 -0.066,-0.1 -0.116,-0.2 -0.149,-0.3 -0.967,-1.667 -1.45,0.517 -1.45,6.55 0.267,0.934 0.517,1.717 0.75,2.35 -0.233,1.267 -0.533,2.75 -0.9,4.45 0.601,1.8 0.9,2.783 0.9,2.95 0,0.267 -0.017,0.434 -0.05,0.5 -0.034,0.066 -0.084,0.116 -0.15,0.15 -0.233,-0.301 -0.583,-0.95 -1.05,-1.95 -0.634,3 -1.45,6.566 -2.45,10.7 l -0.3,-0.051 c -0.2,-1.1 -0.351,-2.033 -0.45,-2.8 -0.033,0.167 -0.083,0.351 -0.15,0.55 -0.966,3.167 -1.966,7.534 -3,13.101 -0.267,0.566 -0.433,1.416 -0.5,2.55 -0.233,0.634 -0.583,1.9 -1.05,3.8 -0.333,1.334 -0.733,2.483 -1.2,3.45 -0.1,0.2 -1.517,2.517 -4.25,6.95 -2.166,3.467 -3.25,5.899 -3.25,7.3 0,0.066 -0.116,0.95 -0.35,2.65 -5.267,6.767 -7.9,10.183 -7.9,10.25 0,1 -0.5,1.866 -1.5,2.6 -0.866,0.634 -1.416,1.45 -1.649,2.45 -0.334,0.333 -0.667,0.666 -1,1 -0.134,1.833 -0.584,3.316 -1.351,4.45 -3.199,4.6 -4.816,6.916 -4.85,6.949 -0.267,0.434 -0.934,1.267 -2,2.5 -1.066,1.233 -1.95,2.45 -2.65,3.65 -0.699,1.2 -1.633,2.417 -2.8,3.65 -0.434,0.466 -0.866,0.866 -1.3,1.199 -1.9,0.034 -3.233,0.384 -4,1.051 -0.333,-0.233 -0.717,-0.567 -1.15,-1 -1.966,2.699 -3.5,4.949 -4.6,6.75 -1.066,1.733 -3.866,3.767 -8.4,6.1 -1.466,0 -3.366,0.616 -5.699,1.85 -0.334,0.167 -0.634,0.317 -0.9,0.45 l 0.5,-2.25 c 0,-2.5 -1,-2.934 -3,-1.3 -1.7,1.4 -2.684,2.7 -2.95,3.9 -0.333,0.466 -0.8,1.133 -1.399,2 -1.067,1.399 -1.917,2.1 -2.551,2.1 -0.399,0 -0.733,-0.1 -1,-0.3 0,-0.601 -0.316,-1.483 -0.949,-2.65 0,-1.899 -0.067,-3.05 -0.2,-3.45 -0.667,0.601 -1.033,0.9 -1.101,0.9 -0.233,0 -0.383,-0.05 -0.449,-0.15 0,-0.133 -0.017,-0.199 -0.051,-0.199 v -1.65 c -0.1,0.2 -0.35,0.417 -0.75,0.65 -0.3,-0.167 -0.55,-0.434 -0.75,-0.801 -0.5,0.434 -0.833,0.65 -1,0.65 -0.366,0 -0.666,-0.25 -0.899,-0.75 -0.134,-0.5 -0.217,-0.75 -0.25,-0.75 -1.601,0 -2.934,-0.533 -4,-1.6 -0.033,-2.367 -0.634,-4.184 -1.8,-5.45 -0.301,-0.334 -0.567,-0.55 -0.801,-0.65 -0.333,-3.767 -0.5,-5.7 -0.5,-5.8 0,-1.3 -0.183,-3.05 -0.55,-5.25 -0.2,0 -0.467,-0.083 -0.8,-0.25 -0.1,-0.767 -0.15,-1.35 -0.15,-1.75 0,-0.267 0.101,-0.816 0.301,-1.65 -0.267,-1.533 -0.467,-2.866 -0.601,-4 -0.733,0.434 -1.217,0.65 -1.45,0.65 -0.399,0 -0.616,-0.05 -0.649,-0.15 -0.066,-0.1 -0.101,-0.366 -0.101,-0.8 0,-0.3 0.684,-1.083 2.051,-2.35 -0.067,-0.533 -0.084,-1.033 -0.051,-1.5 -0.233,0.033 -0.483,0.05 -0.75,0.05 -0.5,0 -0.75,-0.283 -0.75,-0.85 0,-0.2 0.2,-0.551 0.601,-1.051 0.434,-0.533 0.649,-0.816 0.649,-0.85 -0.633,0.2 -1.033,-0.05 -1.199,-0.75 -0.034,-0.2 -0.051,-0.7 -0.051,-1.5 l 0.75,-2.25 c -0.133,-1.4 -0.233,-2.8 -0.3,-4.2 -0.2,-0.533 -0.434,-1.1 -0.7,-1.7 -0.933,-2.133 -1.399,-3.699 -1.399,-4.699 0,-1.334 0.684,-3.267 2.05,-5.801 0.3,-4.833 0.967,-9.216 2,-13.149 0.733,-2.8 2.3,-7.101 4.7,-12.9 0.6,-1.434 1.149,-2.833 1.649,-4.2 -0.466,0.867 -1.017,1.867 -1.649,3 -1.733,3.067 -3.684,5.5 -5.851,7.301 -0.166,-0.034 -0.3,-0.117 -0.399,-0.25 0,-0.101 -0.033,-0.217 -0.101,-0.351 -0.066,-0.133 -0.1,-0.316 -0.1,-0.55 0,-0.4 0.5,-1.816 1.5,-4.25 1.134,-2.566 1.8,-4.1 2,-4.6 0.733,-1.801 1.283,-3.084 1.65,-3.851 -0.034,-0.2 -0.051,-0.383 -0.051,-0.55 0,-0.333 0.284,-1.667 0.851,-4 0.6,-2.267 0.899,-3.417 0.899,-3.45 0,-0.166 -0.133,-0.434 -0.399,-0.8 -0.233,-0.366 -0.351,-0.65 -0.351,-0.85 0,-0.267 0.334,-1.784 1,-4.551 0.801,-3.199 1.301,-5.366 1.5,-6.5 -1,-0.033 -1.5,-0.633 -1.5,-1.8 0,-0.767 0.367,-2.366 1.101,-4.8 0.3,-0.967 0.566,-1.8 0.8,-2.5 -0.134,-0.733 -0.267,-1.384 -0.4,-1.95 -0.666,-0.3 -1.05,-0.733 -1.149,-1.3 0.2,-1.566 0.3,-2.767 0.3,-3.6 l -0.05,-6.95 c 0,-1.101 0.333,-1.917 1,-2.45 0.3,-0.233 0.55,-0.55 0.75,-0.95 0.033,-0.066 0.05,-0.133 0.05,-0.2 0.267,-1.366 0.483,-2.6 0.65,-3.699 0.033,-1.101 0.05,-2.733 0.05,-4.9 0,-0.6 0.25,-1.333 0.75,-2.2 0.2,-0.267 0.35,-0.483 0.45,-0.649 0.066,-0.267 0.133,-0.534 0.199,-0.801 l -1.5,-4.35 -0.399,-6.35 c 0,-0.634 0.333,-1.45 1,-2.45 0.7,-1.033 1.05,-1.601 1.05,-1.7 0,-0.066 -0.467,-1.483 -1.4,-4.25 -0.133,0 -0.35,0.017 -0.649,0.05 -0.566,-0.566 -1.5,-1.383 -2.8,-2.45 -0.434,-0.366 -0.851,-0.699 -1.25,-1 0.1,-0.1 0.216,-0.183 0.35,-0.25 1.467,-0.866 2.2,-1.399 2.2,-1.6 0,-0.167 0.133,-0.917 0.399,-2.25 -1.166,0 -2.216,-1.033 -3.149,-3.1 0,-0.134 0.35,-1.233 1.05,-3.301 0.9,-2.6 1.6,-4.767 2.1,-6.5 0.2,-1.1 0.384,-1.933 0.551,-2.5 -0.467,0.601 -0.983,0.9 -1.551,0.9 -0.267,0 -0.433,-0.05 -0.5,-0.15 -0.033,-0.1 -0.066,-0.183 -0.1,-0.25 l -0.15,-0.35 c 0.5,-1.767 0.983,-3.934 1.45,-6.5 0.167,-0.967 0.316,-1.833 0.45,-2.6 -0.2,-1.934 -0.417,-3.867 -0.65,-5.801 -0.833,2.101 -1.683,4.7 -2.55,7.801 -0.5,1.833 -1.233,4.533 -2.2,8.1 l -0.1,-0.1 c 0.4,-1 0.366,-2.434 -0.1,-4.301 -0.601,-2.333 -0.9,-3.816 -0.9,-4.449 0,-2.101 1.517,-6.9 4.55,-14.4 0.101,-0.267 0.2,-0.517 0.3,-0.75 -0.133,-1.1 -0.267,-2.2 -0.399,-3.3 -1.434,4.633 -3.3,8.649 -5.601,12.05 -0.199,-0.1 -0.383,-0.333 -0.55,-0.7 -0.133,-0.366 -0.2,-0.666 -0.2,-0.899 0,-2.301 0.551,-5.184 1.65,-8.65 1.267,-4.033 2.017,-7.033 2.25,-9 0.167,-1.333 0.417,-2.583 0.75,-3.75 -0.566,0.167 -1.2,0.25 -1.9,0.25 -0.3,0 -0.466,-0.017 -0.5,-0.05 -0.433,1.899 -0.966,3.166 -1.6,3.8 -0.066,-0.167 -0.25,-0.95 -0.55,-2.35 -0.3,-1.434 -0.45,-2.267 -0.45,-2.5 0,-4.5 0.75,-9 2.25,-13.5 0.2,-0.634 0.384,-1.2 0.55,-1.7 -0.166,-1.167 -0.35,-2.316 -0.55,-3.45 -0.434,1.1 -0.934,2.417 -1.5,3.95 -1.366,3.366 -2.25,5.05 -2.65,5.05 -0.833,0 -1.25,-0.616 -1.25,-1.85 l 0.5,-8.25 c 0,-4.2 -0.133,-8.483 -0.399,-12.851 -0.233,-4.399 -0.351,-6.616 -0.351,-6.649 0,-1.467 0.5,-2.584 1.5,-3.351 -0.066,-0.399 -0.133,-0.783 -0.199,-1.149 -1.101,2.8 -2.367,5.916 -3.801,9.35 l -0.1,-0.1 c -0.434,-1.233 -0.65,-2.15 -0.65,-2.75 0,-0.2 0.75,-2.15 2.25,-5.851 0.634,-1.633 1.167,-3.05 1.601,-4.25 -0.2,-1.2 -0.417,-2.383 -0.65,-3.55 -0.267,1.7 -0.583,2.9 -0.95,3.6 l -0.149,-0.199 -0.101,-0.4 c 0.167,-0.4 0.284,-1.066 0.351,-2 0.066,-1.066 0.166,-1.816 0.3,-2.25 v -1.5 c -0.033,-0.134 -0.066,-0.25 -0.1,-0.35 -0.134,0.466 -0.25,0.75 -0.351,0.85 -0.3,0.4 -0.783,0.6 -1.45,0.6 -0.199,0 -0.5,-0.133 -0.899,-0.399 -0.367,-0.3 -0.566,-0.45 -0.601,-0.45 -0.333,0 -0.75,0.083 -1.25,0.25 -0.333,0 -0.5,-0.35 -0.5,-1.05 0,-0.066 0.284,-1.066 0.851,-3 0.567,-1.934 0.866,-3.25 0.899,-3.95 -0.133,0.3 -0.483,1.467 -1.05,3.5 -0.733,1.9 -1.633,2.85 -2.7,2.85 -0.6,0 -1.05,-0.267 -1.35,-0.8 -0.2,-0.399 -0.3,-0.783 -0.3,-1.149 0,-0.367 0.45,-2.284 1.35,-5.75 1.101,-4.067 1.667,-6.184 1.7,-6.351 l -0.05,-0.2 c -1.566,-0.033 -2.684,-2.216 -3.351,-6.55 0,-1.566 0.534,-3.45 1.601,-5.649 0.5,-0.967 0.866,-1.967 1.1,-3 -0.166,-0.801 -0.35,-1.601 -0.55,-2.4 -0.366,0.533 -0.616,0.884 -0.75,1.05 -0.9,1.233 -1.616,1.851 -2.15,1.851 -0.933,0 -1.566,-2.784 -1.899,-8.351 l 0.25,-4.149 c 0.033,-0.667 -0.467,-1.384 -1.5,-2.15 -1.066,-0.8 -1.601,-1.417 -1.601,-1.85 0.334,-3.101 0.5,-4.867 0.5,-5.301 -0.166,-2.899 -0.199,-5.05 -0.1,-6.449 0.233,-0.534 0.517,-1.034 0.85,-1.5 -0.3,-1.2 -0.6,-2.384 -0.899,-3.551 -0.101,0.233 -0.217,0.5 -0.351,0.801 -0.699,1.466 -1.316,2.199 -1.85,2.199 -2.033,0 -3.533,-3.899 -4.5,-11.699 -0.6,-7.967 -0.9,-12.134 -0.9,-12.5 0,-1.367 0.017,-2.184 0.051,-2.45 0.066,-0.566 0.25,-1.467 0.55,-2.7 -0.334,-1.333 -0.7,-2.7 -1.101,-4.1 -0.033,0.133 -0.066,0.3 -0.1,0.5 l -0.3,-0.051 -0.7,-4.5 c -0.066,-0.3 -0.15,-0.6 -0.25,-0.899 l -0.05,0.05 c -0.101,0.566 -0.084,1.434 0.05,2.6 0,1 -0.3,1.801 -0.9,2.4 -0.166,0 -0.333,-0.083 -0.5,-0.25 0,-0.934 -0.199,-2.6 -0.6,-5 -0.7,0.2 -1.134,0.116 -1.3,-0.25 -0.066,-0.1 -0.101,-0.384 -0.101,-0.85 l 0.101,-3.15 c -1.2,-0.333 -2.3,-1.833 -3.3,-4.5 -1.034,-2.667 -1.467,-5.116 -1.301,-7.35 0.101,-1.667 -0.183,-3.834 -0.85,-6.5 -0.934,-3.567 -1.45,-5.7 -1.55,-6.4 -0.134,-0.934 -1.316,-5.25 -3.55,-12.95 -2.134,-7.333 -3.2,-11.6 -3.2,-12.8 0,-1.167 -0.101,-2 -0.3,-2.5 -0.367,-0.866 -0.667,-2 -0.9,-3.4 -0.267,-1.566 -0.4,-3.6 -0.4,-6.1 0,-0.6 0.051,-1.066 0.15,-1.4 -2.767,-11.6 -4.15,-19.633 -4.15,-24.1 0,-0.566 0.217,-2.184 0.65,-4.85 0.333,-3.4 0.5,-5.15 0.5,-5.25 0.1,-1.567 0.15,-2.817 0.15,-3.75 0.033,-1.667 -0.184,-2.834 -0.65,-3.5 l -0.4,0.199 c 0,0.934 -0.033,1.551 -0.1,1.851 -0.233,0.866 -0.717,1.366 -1.45,1.5 0.033,-0.066 0.05,-0.15 0.05,-0.25 0.167,-2.566 0.25,-3.884 0.25,-3.95 -0.066,-3.033 -0.316,-5.55 -0.75,-7.55 -0.199,-0.934 -0.433,-1.634 -0.699,-2.101 l -0.051,-1.25 h -0.149 c -0.066,0.233 -0.15,0.45 -0.25,0.65 -0.533,-0.434 -1.167,-0.1 -1.9,1 -0.2,-0.033 -0.366,-0.1 -0.5,-0.2 0.7,-2.967 1.05,-4.767 1.05,-5.399 0.067,-0.867 0.067,-1.667 0,-2.4 -0.166,-1.2 -0.533,-1.917 -1.1,-2.15 -0.066,-0.3 -0.217,-0.583 -0.45,-0.85 -0.366,-0.434 -0.55,-1.05 -0.55,-1.85 0,-0.5 -0.15,-0.9 -0.45,-1.2 -0.166,-0.167 -0.767,-0.601 -1.8,-1.3 -0.5,-0.334 -0.95,-1.101 -1.35,-2.301 0.466,-1.199 0.699,-1.899 0.699,-2.1 0,-1.934 -0.333,-3.35 -1,-4.25 -0.433,-0.566 -0.833,-1.1 -1.199,-1.6 -0.767,-1.301 -1.534,-2.551 -2.301,-3.75 0.601,-0.134 0.983,-0.417 1.15,-0.851 0.066,-0.166 0.1,-0.5 0.1,-1 0,-0.5 -0.383,-1.467 -1.149,-2.899 -0.834,-1.5 -1.584,-2.517 -2.25,-3.051 0.434,-1.066 0.566,-2.066 0.399,-3 -0.3,-1.566 -1.55,-2.35 -3.75,-2.35 -0.5,0 -0.85,0.15 -1.05,0.45 -0.3,0.333 -0.483,0.517 -0.55,0.55 0.566,-1.5 0.85,-2.767 0.85,-3.8 0,-1 -0.683,-2.417 -2.05,-4.25 -1.366,-1.867 -2.434,-2.767 -3.2,-2.7 -1.1,0.3 -1.683,0.783 -1.75,1.45 -0.166,1.166 -0.333,1.899 -0.5,2.2 -0.399,0.8 -0.616,1.883 -0.649,3.25 -0.101,0.133 -0.217,0.283 -0.351,0.449 -2.033,0.467 -3.466,1.25 -4.3,2.351 -0.467,0.633 -0.95,1.566 -1.45,2.8 h -0.05 c 0,0.267 0,0.55 0,0.85 -0.133,2.334 -0.533,3.5 -1.2,3.5 -0.399,0 -0.566,-0.083 -0.5,-0.25 0,-0.767 -0.083,-2.1 -0.25,-4 -1.333,0.2 -2.25,0.684 -2.75,1.45 -0.267,0.434 -0.399,1.134 -0.399,2.101 0,0.033 0,0.083 0,0.149 -0.066,0.033 -0.117,0.066 -0.15,0.101 0.033,0.6 0.05,1.199 0.05,1.8 0,0.399 -0.116,1.333 -0.35,2.8 h -0.25 c 0,-0.134 -0.05,-0.366 -0.15,-0.7 -0.166,0.3 -0.366,0.617 -0.6,0.95 -0.467,0.634 -1,1.15 -1.6,1.55 0.066,0.033 0.133,0.066 0.199,0.101 l -0.1,0.35 c -0.5,0.134 -0.767,0.333 -0.8,0.6 -0.367,0.2 -1.75,0.301 -4.15,0.301 -0.566,1.166 -1.7,2.25 -3.399,3.25 -2.233,1.366 -4.284,1.733 -6.15,1.1 0.066,0.934 0.55,2.366 1.45,4.3 0.866,1.834 1.3,3.217 1.3,4.15 0,0.733 -0.967,3.116 -2.9,7.149 -0.267,0.534 -0.517,1.051 -0.75,1.551 0,0.066 0,0.149 0,0.25 0,0.366 -0.633,1.833 -1.899,4.399 -1.601,3.2 -3.367,6.184 -5.3,8.95 -3.5,5.033 -6.983,8.583 -10.45,10.65 -7.8,9.899 -17.25,14.85 -28.351,14.85 -1.733,0 -2.833,-0.583 -3.3,-1.75 -0.166,-1.167 -0.316,-1.75 -0.45,-1.75 -0.267,0 -1.5,0.35 -3.699,1.05 -0.233,0.233 -0.5,0.467 -0.801,0.7 -2.166,1.833 -4.25,2.75 -6.25,2.75 -1.5,0 -2.449,-0.35 -2.85,-1.05 -0.233,-0.434 -0.434,-0.733 -0.6,-0.9 -0.267,-0.066 -0.534,-0.133 -0.801,-0.2 -1.833,-0.033 -2.833,-0.183 -3,-0.449 -0.566,-1 -1.283,-1.801 -2.149,-2.4 -0.5,0.5 -1.4,0.75 -2.7,0.75 -1.066,0 -1.95,-0.366 -2.65,-1.1 -0.333,-0.4 -0.649,-0.784 -0.949,-1.15 -0.167,0 -0.434,0.066 -0.801,0.2 -0.6,-0.3 -1.449,-0.533 -2.55,-0.7 -0.033,0 -0.066,0 -0.1,0 0.066,-0.134 0.116,-0.217 0.149,-0.25 0.2,-0.434 0.517,-1.366 0.95,-2.8 0.134,-0.434 0.25,-0.816 0.351,-1.15 0.366,-0.366 0.783,-0.717 1.25,-1.05 -0.034,-0.533 -0.051,-1.083 -0.051,-1.65 0,-1.033 1.084,-2.283 3.25,-3.75 2.167,-1.5 3.25,-2.449 3.25,-2.85 0,-1.467 0.851,-2.884 2.551,-4.25 -0.867,0.333 -1.801,0.5 -2.801,0.5 -0.199,0 -0.833,-0.1 -1.899,-0.3 -1.033,-0.233 -1.667,-0.351 -1.9,-0.351 -1.333,0 -2.166,-0.066 -2.5,-0.199 -0.133,-0.034 -0.25,-0.084 -0.35,-0.15 H 333.09 c -1.833,-0.1 -4.267,0.25 -7.3,1.05 -3.166,0.8 -4.899,1.2 -5.2,1.2 -2.8,0 -4.466,-0.7 -5,-2.1 -0.1,-1.834 -0.183,-3.217 -0.25,-4.15 l -6.25,-0.5 c -0.933,-0.467 -1.5,-0.816 -1.699,-1.05 -0.367,-0.434 -0.551,-1.217 -0.551,-2.351 0,-2 0.667,-3.85 2,-5.55 0,-1.399 0.317,-2.649 0.95,-3.75 0.934,-1.566 2.45,-2.666 4.55,-3.3 1.7,-0.833 2.917,-1.4 3.65,-1.7 1.7,-0.666 2.866,-0.85 3.5,-0.55 0.733,0.333 1.517,0.733 2.35,1.2 1.267,-0.367 2.617,-0.7 4.051,-1 1.566,0.366 3.466,0.55 5.699,0.55 3.567,0 6.284,-0.333 8.15,-1 0.434,-0.167 0.816,-0.333 1.15,-0.5 -0.301,-1.1 -0.617,-2.017 -0.95,-2.75 -0.2,0 -0.467,0.017 -0.8,0.05 -0.733,-0.166 -1.483,-0.316 -2.25,-0.45 -0.467,0.2 -1.034,0.351 -1.7,0.45 -0.8,0.134 -2.7,0.2 -5.7,0.2 -0.767,0 -1.15,-0.366 -1.15,-1.1 0,-0.233 0.034,-0.384 0.101,-0.45 l 0.149,-0.2 c -2.633,0.1 -4.366,0 -5.199,-0.3 -0.367,-0.134 -0.551,-0.4 -0.551,-0.8 0,-0.167 -0.183,-0.334 -0.55,-0.5 -0.434,-0.2 -1,-0.301 -1.7,-0.301 l -0.55,0.601 c -0.399,0.366 -0.717,0.55 -0.95,0.55 -0.399,0 -0.616,-0.083 -0.649,-0.25 -0.066,-0.233 -0.101,-0.5 -0.101,-0.8 0,-0.4 0.084,-0.684 0.25,-0.851 l -2,-0.1 c -0.066,0.134 -0.35,0.333 -0.85,0.6 -0.5,0.267 -0.833,0.4 -1,0.4 -0.667,0 -1.033,-0.583 -1.1,-1.75 0,-0.167 0,-0.316 0,-0.45 -0.7,-0.166 -1.4,-0.333 -2.101,-0.5 -0.133,-0.733 -0.833,-1.166 -2.1,-1.3 -0.934,-0.134 -1.566,-0.05 -1.9,0.25 v -0.05 c -1,-0.267 -1.983,-0.55 -2.95,-0.851 -0.933,0.5 -2.1,0.75 -3.5,0.75 -0.166,0 -0.433,-0.699 -0.8,-2.1 -1.5,-0.467 -2.983,-0.967 -4.45,-1.5 -0.199,-0.066 -0.416,-0.134 -0.649,-0.2 -1.267,1.033 -2.384,1.55 -3.351,1.55 -0.5,0 -1.166,-0.949 -2,-2.85 -0.166,-0.333 -0.333,-0.634 -0.5,-0.9 -0.399,-0.166 -0.833,-0.333 -1.3,-0.5 -0.033,-1 -0.283,-1.216 -0.75,-0.649 -0.066,0.066 -0.133,0.149 -0.2,0.25 -0.433,-0.2 -0.883,-0.384 -1.35,-0.55 -0.066,0.1 -0.167,0.233 -0.3,0.399 -0.434,0.566 -0.884,0.851 -1.351,0.851 -0.533,0 -0.899,-0.25 -1.1,-0.75 -0.1,-0.267 -0.184,-0.567 -0.25,-0.9 -0.6,0.333 -0.983,0.533 -1.15,0.6 -0.399,0.101 -1.149,0.15 -2.25,0.15 -0.566,0 -0.933,-0.267 -1.1,-0.8 -0.1,-0.3 -0.15,-0.783 -0.15,-1.45 0,-0.366 0.067,-0.8 0.2,-1.3 -0.5,-0.233 -1.017,-0.467 -1.55,-0.7 -0.634,0.233 -1.434,0.35 -2.4,0.35 -0.666,0 -1.033,-0.399 -1.1,-1.199 0.033,-0.301 0.05,-0.551 0.05,-0.75 -0.467,-0.2 -0.934,-0.417 -1.399,-0.65 -0.101,0.1 -0.25,0.267 -0.45,0.5 -0.4,0.4 -0.851,0.6 -1.351,0.6 -0.699,0 -1.5,-1.017 -2.399,-3.05 -0.367,-0.2 -0.733,-0.383 -1.101,-0.55 -0.366,-0.533 -0.883,-1.134 -1.55,-1.8 -1.1,-1.101 -1.783,-1.05 -2.05,0.149 -0.066,-0.033 -0.116,-0.066 -0.15,-0.1 -0.033,1.233 -0.649,1.85 -1.85,1.85 -1.066,0 -1.85,-0.983 -2.35,-2.949 -0.067,-0.334 -0.134,-0.667 -0.2,-1 -1,-0.5 -1.95,-0.967 -2.851,-1.4 -0.733,0 -3.433,-0.083 -8.1,-0.25 -0.2,-0.4 -0.5,-0.684 -0.9,-0.85 -0.733,-0.301 -1.149,-0.034 -1.25,0.8 -0.767,-0.033 -1.6,-0.066 -2.5,-0.101 -0.399,1.267 -0.899,1.9 -1.5,1.9 -0.899,-0.733 -1.583,-1.417 -2.05,-2.05 -0.366,0 -0.75,-0.017 -1.149,-0.05 -0.601,0.233 -1.534,0.466 -2.8,0.699 -0.333,0 -0.583,-0.199 -0.75,-0.6 -0.033,-0.1 -0.1,-0.167 -0.2,-0.2 -0.433,-0.033 -0.867,-0.05 -1.3,-0.05 -0.033,0 -0.083,0 -0.15,0 0,0.667 -0.284,1 -0.85,1 -0.333,0 -0.667,-0.217 -1,-0.65 -0.167,-0.199 -0.3,-0.35 -0.4,-0.449 -0.2,-0.034 -0.4,-0.051 -0.6,-0.051 0,0.101 0,0.217 0,0.351 -0.1,0.366 -0.35,0.55 -0.75,0.55 -0.133,0 -0.684,-0.333 -1.65,-1 -0.067,0.066 -0.083,0.3 -0.05,0.7 -0.1,0.366 -0.483,0.55 -1.15,0.55 -0.2,0 -0.817,-0.233 -1.85,-0.7 -1,-0.467 -1.566,-0.7 -1.7,-0.7 -0.4,0 -0.784,-0.017 -1.15,-0.05 -0.233,-0.033 -0.466,-0.05 -0.7,-0.05 -1.8,0 -3,0.566 -3.6,1.7 -0.9,1.666 -2.2,2.934 -3.9,3.8 0.433,0.566 0.75,1.15 0.95,1.75 0.233,0.066 0.467,0.134 0.7,0.2 1.467,0.467 2.333,0.95 2.6,1.45 -0.467,0.466 -1.217,0.699 -2.25,0.699 -0.233,0 -0.483,-0.017 -0.75,-0.05 -0.067,0.566 -0.233,1.15 -0.5,1.75 -0.033,0.066 -0.067,0.134 -0.1,0.2 0.233,0.434 0.35,0.85 0.35,1.25 0,0.3 -0.05,0.467 -0.15,0.5 -0.067,0.033 -0.267,0.066 -0.6,0.1 -0.1,-0.033 -0.217,-0.066 -0.35,-0.1 -0.5,1.2 -0.883,2.2 -1.15,3 0.6,1.2 0.9,2.2 0.9,3 0,0.434 -0.05,0.517 -0.15,0.25 -0.333,-0.233 -0.767,-0.616 -1.3,-1.15 -0.1,1.101 -0.2,2.117 -0.3,3.051 0.633,1.466 0.95,2.583 0.95,3.35 0,0.533 -0.2,0.917 -0.6,1.15 -0.3,-0.467 -0.583,-0.934 -0.85,-1.4 -0.033,0.3 -0.083,0.566 -0.15,0.8 -0.2,1.101 -0.45,2.101 -0.75,3 0.233,0.7 0.35,1.316 0.35,1.851 0,0.033 -0.067,0.183 -0.2,0.449 -0.167,0.267 -0.333,0.483 -0.5,0.65 -0.067,-0.1 -0.25,-0.35 -0.55,-0.75 -0.333,0.6 -0.7,1.1 -1.1,1.5 -0.5,0.533 -0.917,1.15 -1.25,1.85 0,0.034 0,0.067 0,0.101 0,0.366 -0.25,1.283 -0.75,2.75 -0.033,0.566 -0.05,1.184 -0.05,1.85 0,0.167 0,0.316 0,0.45 -0.966,0.033 -1.45,0.884 -1.45,2.55 0,0.4 -0.083,1.134 -0.25,2.2 -1.333,-0.5 -2.4,0.134 -3.2,1.9 -0.233,0.5 -0.417,0.983 -0.55,1.449 -4.767,2.067 -13.167,3.75 -25.2,5.051 -0.467,0.267 -1,0.55 -1.6,0.85 -2.7,1.333 -4.966,2 -6.8,2 -2.1,0 -3.983,-0.55 -5.65,-1.65 -3.533,0.233 -7.283,0.45 -11.25,0.65 -1.2,1.2 -2.3,3.1 -3.3,5.7 -0.033,0.1 -0.066,0.2 -0.1,0.3 0.033,0.066 0.083,0.15 0.15,0.25 0.566,1.1 0.85,2.417 0.85,3.95 0,2.5 -1.15,4.184 -3.45,5.05 -0.1,0.033 -0.633,0.967 -1.6,2.8 -0.566,1.066 -1.316,1.783 -2.25,2.15 -0.233,0.366 -0.583,0.8 -1.05,1.3 -1.033,1.1 -2.067,1.65 -3.1,1.65 -1.433,0 -2.267,-0.101 -2.5,-0.301 -0.167,-0.133 -0.25,-0.366 -0.25,-0.699 0.067,-0.101 0.317,-0.384 0.75,-0.851 -1.267,-0.366 -2.25,-1.133 -2.95,-2.3 -0.633,-1.1 -0.95,-2.35 -0.95,-3.75 0,-0.767 0.167,-1.533 0.5,-2.3 -1.033,-0.066 -1.883,-0.217 -2.55,-0.45 -1.066,-0.333 -1.633,-0.5 -1.7,-0.5 -0.867,0 -1.733,0.316 -2.6,0.95 -0.9,0.666 -1.367,1.383 -1.4,2.149 0,0.567 -0.15,1.2 -0.45,1.9 -0.5,1.1 -1.267,1.65 -2.3,1.65 -0.2,0 -0.417,-0.084 -0.65,-0.25 -0.2,-0.167 -0.4,-0.25 -0.6,-0.25 -0.367,0 -0.783,-0.051 -1.25,-0.15 -0.5,0.267 -1.05,0.517 -1.65,0.75 -1.934,0.8 -3.95,1.3 -6.05,1.5 0.067,-0.1 0.133,-0.217 0.2,-0.35 0.333,-1.034 0.5,-1.567 0.5,-1.601 0,-0.2 -0.583,-0.85 -1.75,-1.95 -0.3,-0.3 -0.583,-0.55 -0.85,-0.75 0.067,-0.699 0.1,-1.483 0.1,-2.35 -2.133,-0.1 -3.533,-0.217 -4.2,-0.35 -0.533,-0.101 -1.133,-0.15 -1.8,-0.15 -0.6,0 -1.517,0.366 -2.75,1.1 -1.533,0.934 -2.533,1.483 -3,1.65 -0.067,-0.033 -0.133,-0.05 -0.2,-0.05 -0.2,-1.233 -0.3,-1.95 -0.3,-2.15 0,-0.5 0.167,-2 0.5,-4.5 0.267,-0.666 0.55,-1.383 0.85,-2.149 1.267,-3.167 1.9,-4.884 1.9,-5.15 0,-0.4 -0.434,-0.934 -1.3,-1.6 -0.3,-0.233 -0.7,-0.517 -1.2,-0.851 -0.267,0.367 -0.6,0.8 -1,1.3 -1.533,2 -2.617,3 -3.25,3 -0.4,0 -0.6,-0.116 -0.6,-0.35 v -1.25 c 0.2,-0.3 0.4,-0.583 0.6,-0.85 0.267,-0.601 0.533,-1.233 0.8,-1.9 1.067,-2.634 1.817,-4.616 2.25,-5.95 0.667,-0.399 1.4,-0.783 2.2,-1.149 0.467,-0.967 1.25,-1.95 2.35,-2.95 2.4,-2.134 5.45,-2.983 9.15,-2.55 1.267,0.033 2.6,0.133 4,0.3 1.333,0.133 2.033,0.2 2.1,0.2 0.3,0 0.767,0.183 1.4,0.55 0.066,0 0.133,0 0.2,0 0.1,-0.101 0.2,-0.2 0.3,-0.3 0.5,0.233 0.967,0.35 1.4,0.35 0.733,0 1.433,-0.75 2.1,-2.25 0.167,-0.533 0.316,-0.983 0.45,-1.35 1.1,-0.867 2.133,-1.601 3.1,-2.2 0.067,-0.967 -0.033,-2.033 -0.3,-3.2 -1.167,-5.7 -1.35,-13.767 -0.55,-24.2 0.067,-1.033 0.117,-2.017 0.15,-2.95 -0.667,-0.166 -1.2,-0.833 -1.6,-2 -0.333,-0.933 -0.5,-1.75 -0.5,-2.449 0,-0.233 0.2,-0.601 0.6,-1.101 0.433,-0.533 0.65,-0.85 0.65,-0.95 0,-0.166 -0.217,-0.566 -0.65,-1.199 -0.4,-0.601 -0.6,-1.167 -0.6,-1.7 0,-0.2 0.1,-0.617 0.3,-1.25 0.233,-0.634 0.35,-1.066 0.35,-1.3 0,-0.034 -0.45,-0.4 -1.35,-1.101 -0.867,-0.733 -1.3,-1.483 -1.3,-2.25 0,-0.333 0.083,-0.684 0.25,-1.05 0.2,-0.4 0.35,-0.767 0.45,-1.1 -0.1,-0.2 -0.216,-0.384 -0.35,-0.551 -1.9,-0.767 -3.284,-1.699 -4.15,-2.8 -0.767,-1 -1.033,-1.967 -0.8,-2.899 -1.1,-0.101 -1.883,-0.5 -2.35,-1.2 -0.333,-0.533 -0.467,-1.05 -0.4,-1.55 -0.9,-0.267 -2.3,-1.467 -4.2,-3.601 -1.767,-2.033 -2.95,-3.05 -3.55,-3.05 -0.6,0 -1.1,0.116 -1.5,0.35 -0.133,0 -0.267,-0.45 -0.4,-1.35 -0.067,-0.467 -0.45,-0.833 -1.15,-1.1 l -1.35,-0.5 c -0.233,-0.2 -0.883,-0.833 -1.95,-1.9 -0.367,0.333 -0.75,0.5 -1.15,0.5 -0.733,0 -1.1,-0.567 -1.1,-1.7 0,-0.133 0.017,-0.25 0.05,-0.35 -0.367,-0.1 -0.833,-0.317 -1.4,-0.65 -0.3,0.2 -0.7,0.3 -1.2,0.3 -0.6,0 -0.983,-0.25 -1.15,-0.75 -0.067,-0.2 -0.1,-0.567 -0.1,-1.1 0,-0.067 0,-0.133 0,-0.2 -0.033,-0.033 -0.067,-0.066 -0.1,-0.1 -0.833,-0.667 -1.617,-1.2 -2.35,-1.6 -0.3,0.6 -0.933,0.9 -1.9,0.9 -1.167,0 -1.867,-0.7 -2.1,-2.1 -0.367,-0.167 -0.617,-0.433 -0.75,-0.8 -0.3,-0.667 -0.65,-1 -1.05,-1 -1.033,0 -2.767,-0.867 -5.2,-2.6 -0.5,-0.367 -0.95,-0.7 -1.35,-1 -0.2,0.1 -0.517,0.15 -0.95,0.15 -0.767,0 -1.15,-0.283 -1.15,-0.85 0,-0.233 0.183,-0.5 0.55,-0.8 -0.033,-0.067 -0.067,-0.117 -0.1,-0.15 -0.367,-0.167 -0.783,-0.55 -1.25,-1.15 -0.1,-0.133 -0.3,-0.383 -0.6,-0.75 -0.033,0.066 -0.083,0.117 -0.15,0.15 -0.2,0.167 -0.383,0.25 -0.55,0.25 -0.4,0 -0.567,-0.083 -0.5,-0.25 -0.067,-0.233 -0.1,-0.483 -0.1,-0.75 0,-0.267 0.033,-0.517 0.1,-0.75 -0.733,-0.867 -1.7,-1.967 -2.9,-3.3 -0.133,0.067 -0.284,0.1 -0.45,0.1 -0.233,0 -0.5,-0.183 -0.8,-0.55 -0.333,-0.367 -0.5,-0.684 -0.5,-0.95 0.033,-0.167 0.05,-0.316 0.05,-0.45 -0.4,-0.467 -0.833,-0.967 -1.3,-1.5 -0.467,-0.233 -0.717,-0.367 -0.75,-0.4 -1.034,-0.733 -1.6,-1.5 -1.7,-2.3 -2.1,0.467 -3.1,0.05 -3,-1.25 -0.733,0 -1.467,-0.433 -2.2,-1.3 -0.633,-0.733 -0.95,-1.25 -0.95,-1.55 0,-0.3 0.15,-1.017 0.45,-2.15 -6.667,-7.4 -9.966,-10.85 -9.9,-10.35 0.067,0.533 -1.383,0.934 -4.35,1.2 -2.966,0.2 -6.483,0.4 -10.55,0.6 -4.033,0.2 -7.783,0.867 -11.25,2 -3.467,1.133 -8.2,0.033 -14.2,-3.3 -6,-3.367 -9.216,-6.417 -9.65,-9.15 -0.433,-2.767 0.133,-5.933 1.7,-9.5 1.6,-3.567 2.433,-6.233 2.5,-8 0.066,-1.8 -0.184,-5.233 -0.75,-10.3 -0.5,-5.1 -0.233,-8.333 0.8,-9.7 1.067,-1.367 2.184,-4.167 3.35,-8.4 1.166,-4.233 1.483,-6.55 0.95,-6.95 -0.534,-0.4 -1.85,-3.767 -3.95,-10.1 -2.067,-6.367 -3.05,-11.233 -2.95,-14.6 0.034,-0.267 0.05,-0.5 0.05,-0.7 0.367,-0.367 0.75,-0.817 1.15,-1.35 1.133,-1.5 2.45,-2.25 3.95,-2.25 1.5,1.2 3.367,2.383 5.6,3.55 3.4,1.833 6.583,2.966 9.55,3.4 0.433,0.1 0.816,0.15 1.15,0.15 0.3,0 0.583,0 0.85,0 0.167,0 0.333,0 0.5,0 0.1,0 0.183,0 0.25,0 1.2,-0.033 2.333,-0.083 3.4,-0.15 1.367,0.467 3.117,1.066 5.25,1.8 7.367,-3.3 12.117,-5.316 14.25,-6.05 2.067,-0.733 4.167,-1.25 6.3,-1.55 1.067,-0.167 3.5,-0.45 7.3,-0.85 0.5,-0.133 1.05,-0.284 1.65,-0.45 5.167,-1.3 10.617,-1.883 16.35,-1.75 7.467,0.567 12.05,1.2 13.75,1.9 0.066,0.033 0.183,0.184 0.35,0.45 0.633,-0.2 1.466,-0.233 2.5,-0.1 2.533,0.3 4.3,1.217 5.3,2.75 0.033,0.133 0.117,0.283 0.25,0.45 1.333,0.533 2.617,1.1 3.85,1.7 0.3,0.1 0.617,0.2 0.95,0.3 3.2,1 4.8,1.9 4.8,2.7 l -0.05,0.15 c 0.4,0.233 0.8,0.483 1.2,0.75 1.067,-0.566 2.283,-0.433 3.65,0.4 1.867,1.566 3.15,2.466 3.85,2.7 3.267,1.2 4.95,1.833 5.05,1.9 0.967,0.434 1.684,0.867 2.15,1.3 0.667,0.167 1.367,0.35 2.1,0.55 0.2,0.533 0.717,1.133 1.55,1.8 1.2,0.966 2.45,1.35 3.75,1.15 0.3,-0.033 1.367,0.5 3.2,1.6 1.867,1.133 3.05,1.7 3.55,1.7 0.667,0 1.1,-0.15 1.3,-0.45 0.2,-0.3 0.317,-0.45 0.35,-0.45 1.133,0 2.05,0.15 2.75,0.45 0.767,0.466 1.483,0.816 2.15,1.05 2.567,1 7.8,1.5 15.7,1.5 1.833,0 3.4,-0.067 4.7,-0.2 1.5,0.133 2.817,0.2 3.95,0.2 2.733,0 10.767,-0.333 24.1,-1 2.133,-0.1 4.65,0.183 7.55,0.85 0.3,0.267 0.45,0.45 0.45,0.55 0,0.567 0.417,0.983 1.25,1.25 0.5,0.167 1.083,0.25 1.75,0.25 1.833,0 3.85,0.75 6.05,2.25 2.233,1.467 5.217,2.2 8.95,2.2 4.667,-0.967 8.25,-1.883 10.75,-2.75 0.3,-0.1 1.833,-0.4 4.6,-0.9 2.666,-0.467 4.333,-0.833 5,-1.1 2.333,-0.533 4.1,-0.967 5.3,-1.3 1.4,-0.433 2.333,-1.033 2.8,-1.8 0.601,-0.033 1.2,-0.033 1.8,0 4,-4.933 11.934,-9.65 23.801,-14.15 1.5,-0.567 3.017,-1.117 4.55,-1.65 0.5,0.033 1.017,0.05 1.55,0.05 1.866,0 4.75,-0.45 8.65,-1.35 4.066,-0.967 6.883,-1.483 8.449,-1.55 5.233,-0.2 8.867,-0.434 10.9,-0.7 4.934,-0.6 8.217,-0.983 9.85,-1.15 h 22.75 c 3.034,0.8 8.25,1.533 15.65,2.2 0.1,0 0.184,0.017 0.25,0.05 5,1.2 10.167,2.667 15.5,4.4 6.5,2.1 12.934,4.467 19.3,7.1 1.367,0.933 3.134,2.05 5.3,3.35 5.834,3.533 9.367,5.3 10.601,5.3 1.566,0 4.017,1.5 7.35,4.5 2.566,2.267 4.667,3.684 6.3,4.25 0.334,0.233 0.784,0.517 1.351,0.85 1.366,0.833 2.416,1.25 3.149,1.25 0.233,0 0.45,0 0.65,0 0.134,0.167 0.267,0.35 0.4,0.55 0.833,1.767 1.449,2.784 1.85,3.05 0.7,0.467 1.884,0.75 3.55,0.85 1.8,0.1 2.816,0.2 3.05,0.3 0,0.867 0,1.317 0,1.35 0.467,0.6 1.917,0.783 4.351,0.55 -0.066,0.233 -0.101,0.667 -0.101,1.3 0,1.033 0.267,1.8 0.801,2.3 0.899,0.833 2.8,1.55 5.699,2.15 -0.166,0.4 -0.25,0.9 -0.25,1.5 0,1.4 1.5,2.65 4.5,3.75 3,1.067 4.5,2.367 4.5,3.9 0,1.667 1.067,2.717 3.2,3.15 2.5,0.466 3.851,0.867 4.05,1.2 1.167,1.8 1.767,2.717 1.801,2.75 1.066,1.4 2.017,2.1 2.85,2.1 0.2,0 0.384,-0.083 0.55,-0.25 0.134,-0.167 0.316,-0.25 0.55,-0.25 l 0.301,0.05 c 0.866,1 1.649,1.983 2.35,2.95 -0.1,0.367 -0.15,0.667 -0.15,0.9 0,0.967 0.184,1.583 0.551,1.85 0.333,0.233 0.916,0.383 1.75,0.45 0.199,0.3 0.383,0.6 0.55,0.9 1.633,1.133 3.267,2.35 4.899,3.65 v 0.05 c 0,0.567 1.084,1.617 3.25,3.15 0.934,0.633 1.733,1.15 2.4,1.55 1.7,1.433 3.4,2.967 5.1,4.6 v 0.05 c 0,1.167 0.733,1.85 2.2,2.05 0.934,0.867 1.834,1.75 2.7,2.65 -0.066,0.2 -0.116,0.417 -0.15,0.65 0,0.333 0.417,0.833 1.25,1.5 0.801,0.6 1.45,0.933 1.95,1 3.033,3.2 5.783,6.35 8.25,9.45 0.467,-0.133 0.9,-0.2 1.3,-0.2 0.334,0 0.667,0.033 1,0.1 0.233,1.9 1.851,3.333 4.851,4.3 1.666,0.567 2.649,1.283 2.95,2.15 0.166,0.5 0.316,1.35 0.449,2.55 0.434,1.167 1.717,2.667 3.851,4.5 1.2,1.033 3.083,2.583 5.649,4.65 1.7,1.5 4.601,5.067 8.7,10.7 0.033,0.066 0.084,0.133 0.15,0.2 0.533,0.867 1.083,1.767 1.649,2.7 1.5,0.833 2.334,1.5 2.5,2 0.434,1.3 1.5,2.633 3.2,4 1.467,1.2 2.2,2.334 2.2,3.4 0,0.467 -0.184,1.05 -0.55,1.75 2.166,0.7 4.316,2.434 6.45,5.2 2.399,3.2 3.6,5.616 3.6,7.25 0,1.666 1.4,3.583 4.2,5.75 4,3.133 6.35,5.1 7.05,5.899 0.866,1.034 2.733,2.983 5.6,5.851 2.4,2.666 3.601,4.783 3.601,6.35 0,0.2 -0.101,0.483 -0.3,0.851 -0.2,0.333 -0.301,0.616 -0.301,0.85 0,0.634 0.75,2 2.25,4.1 1.5,2.101 2.25,3.851 2.25,5.25 0,0.167 -0.1,0.384 -0.3,0.65 -0.267,0.3 -0.467,0.634 -0.6,1 0.666,0.366 2.217,1.55 4.649,3.55 2.834,2.334 4.25,3.8 4.25,4.4 0,0.399 -0.05,0.583 -0.149,0.55 l -0.851,0.25 c -0.233,-0.134 -0.666,-0.533 -1.3,-1.2 -0.566,-0.6 -0.967,-0.95 -1.2,-1.05 v 1.9 c 0.034,0.066 0.317,0.449 0.851,1.149 0.333,0.467 0.5,0.767 0.5,0.9 0.2,0.399 0.383,0.783 0.55,1.149 -0.333,0.101 -0.5,0.483 -0.5,1.15 0,0.5 0.566,1.467 1.7,2.9 0.467,0.6 0.983,1.233 1.55,1.899 1.167,2.5 1.75,3.884 1.75,4.15 -0.7,1.7 -1.167,2.55 -1.4,2.55 -0.566,0 -1.533,-0.75 -2.899,-2.25 -1.066,-1.2 -1.983,-2.2 -2.75,-3 -0.066,0.2 -0.101,0.45 -0.101,0.75 0,1.3 0.7,3.1 2.101,5.4 1,1.3 2.1,2.833 3.3,4.6 1.8,2.267 4.417,5.45 7.85,9.55 l -0.1,0.7 c -0.134,0.434 -0.35,0.65 -0.65,0.65 -0.666,0 -1.566,-0.601 -2.699,-1.801 -1.2,-1.366 -1.967,-2.233 -2.301,-2.6 0.334,0.533 0.5,0.95 0.5,1.25 0,0.733 1.017,2.3 3.051,4.7 2.066,2.399 3.1,4.05 3.1,4.95 0,0.233 -0.083,0.517 -0.25,0.85 -0.167,0.366 -0.25,0.65 -0.25,0.85 0,0.034 0.55,1.051 1.65,3.051 0.199,0.366 0.383,0.716 0.55,1.05 0.2,0.2 0.399,0.416 0.6,0.649 6.367,7.334 9.55,11.667 9.55,13 0,0.301 -0.166,0.667 -0.5,1.101 1.4,1.666 2.784,3.399 4.15,5.2 2.4,3.166 3.6,5.017 3.6,5.55 -0.002,0.3 -0.035,0.533 -0.101,0.7 z m -93.05,-159.9 c 0,-0.1 0,-0.217 0,-0.35 0.166,0.2 0.333,0.4 0.5,0.6 -0.267,0 -0.4,-0.017 -0.4,-0.05 -0.034,-0.1 -0.067,-0.167 -0.1,-0.2 z m 33.35,498.299 c -0.066,0.066 -0.116,0.15 -0.149,0.25 -0.2,0.434 -0.301,0.75 -0.301,0.95 0,0.134 0.051,0.25 0.15,0.35 0.099,-0.633 0.2,-1.149 0.3,-1.55 z m -2,-18.95 c -0.066,-0.033 -0.133,-0.05 -0.2,-0.05 0,0.167 0,0.351 0,0.55 0.1,-0.199 0.166,-0.366 0.2,-0.5 z m -28.85,-225.75 c 0.133,-0.333 0.25,-0.616 0.35,-0.85 -0.133,0 -0.283,0 -0.45,0 -0.066,0 -0.149,0 -0.25,0 0.133,0.334 0.249,0.617 0.35,0.85 z m 7,25.551 c -0.066,0.1 -0.101,0.216 -0.101,0.35 l 0.15,1.5 c 0.1,-0.233 0.184,-0.45 0.25,-0.65 -0.099,-0.4 -0.199,-0.801 -0.299,-1.2 z m -358.55,-211.65 c 0,0.267 -0.017,0.55 -0.05,0.85 -0.067,0.367 -0.15,0.733 -0.25,1.101 0,0.2 0,0.434 0,0.7 0,0.866 -0.283,1.533 -0.85,2 l -0.4,-0.051 c -0.067,-0.199 -0.15,-0.366 -0.25,-0.5 -0.1,-0.066 -0.2,-0.133 -0.3,-0.199 -0.066,0.066 -0.216,0.1 -0.45,0.1 0,0.566 -0.167,0.95 -0.5,1.15 -0.133,-0.101 -0.283,-0.25 -0.45,-0.45 -0.467,0.733 -0.917,1.483 -1.35,2.25 -0.133,0.666 -0.2,1.1 -0.2,1.3 0,1.033 -0.083,1.75 -0.25,2.15 -0.2,-0.067 -0.417,-0.301 -0.65,-0.7 -0.067,-0.134 -0.133,-0.267 -0.2,-0.4 -0.067,0.101 -0.117,0.2 -0.15,0.3 0,0.067 0.017,0.134 0.05,0.2 0.133,0.467 0.2,0.816 0.2,1.05 v 0.75 c -0.067,0.2 -0.233,0.301 -0.5,0.301 -0.2,0 -0.283,0.183 -0.25,0.55 0,0.434 -0.167,0.75 -0.5,0.95 -0.233,-0.067 -0.417,-0.25 -0.55,-0.551 0,-0.033 -0.017,-0.066 -0.05,-0.1 0,0.033 -0.017,0.066 -0.05,0.1 0.267,1.233 0.15,2.084 -0.35,2.551 l -0.4,-0.301 c 0,-0.133 -0.017,-0.25 -0.05,-0.35 0,0.1 -0.033,0.2 -0.1,0.3 0.034,0.101 0.067,0.217 0.1,0.351 0,0.3 -0.15,0.533 -0.45,0.699 -0.267,0.767 -0.467,1.483 -0.6,2.15 0.633,-0.167 1.25,-0.316 1.85,-0.45 -0.233,0.434 -0.35,0.934 -0.35,1.5 0,0.467 0.033,0.816 0.1,1.05 0.033,0.101 0.25,0.15 0.65,0.15 0.2,0 0.517,-0.05 0.95,-0.15 0.4,-0.133 0.717,-0.199 0.95,-0.199 0.533,0 0.867,-0.067 1,-0.2 0.133,-0.134 0.333,-0.2 0.6,-0.2 1.8,0 3.183,-1.134 4.15,-3.4 1.5,-0.233 2.7,-0.433 3.6,-0.6 -1.033,-1.2 -1.817,-2.866 -2.35,-5 0,-1.634 -0.2,-2.684 -0.6,-3.15 -0.267,-3.503 -0.517,-6.036 -0.75,-7.602 z m 340.85,143.2 c -0.033,0.1 -0.05,0.2 -0.05,0.3 0,0.167 0.434,2.467 1.3,6.9 l 0.2,-1.801 c -0.033,-0.033 -0.033,-0.05 0,-0.05 -0.467,-1.733 -0.95,-3.516 -1.45,-5.349 z m 75,-93.95 c 0,-0.1 -0.05,-0.217 -0.15,-0.35 0,0.1 0,0.199 0,0.3 l 0.101,0.149 0.049,-0.099 z m -211.151,-22.1 c -0.233,-0.067 -0.433,-0.101 -0.6,-0.101 -1.1,1.4 -2.2,3.351 -3.3,5.851 -1,2.3 -1.8,3.85 -2.4,4.649 -0.333,0.434 -0.684,0.834 -1.05,1.2 0.634,-0.366 1.3,-0.717 2,-1.05 0.134,-1.566 1.417,-2.983 3.85,-4.25 2.301,-1.167 5.134,-2.017 8.5,-2.55 1.034,-0.167 2.017,-0.267 2.95,-0.301 0.2,-0.133 0.384,-0.25 0.55,-0.35 -0.3,-0.066 -0.683,-0.167 -1.149,-0.3 l 0.05,-0.05 c 0.066,-0.534 0.1,-0.817 0.1,-0.851 0,-1.133 -1.683,-1.883 -5.05,-2.25 -2.166,-0.198 -3.65,-0.081 -4.451,0.353 z"
   id="path3"
   style="fill-rule:evenodd" />
    
</svg>