<?xml version="1.0" encoding="UTF-8" standalone="no"?>
<!-- Created with Inkscape (http://www.inkscape.org/) -->

<svg
   xmlns:svg="http://www.w3.org/2000/svg"
   xmlns="http://www.w3.org/2000/svg"
   version="1.1"
   width="760"
   height="649"
   viewBox="0 0 760 649"
   id="Layer_1"
   xml:space="preserve"><defs
   id="defs13" />
    
    <g
   id="g3">
        
        <g
   id="g5">
            
            <path
   d="m 449,649 c -1.011,-1.656 -4.247,-1.086 -6,-2 1.385,-7.615 9.67,-8.33 13,-14 -3.598,-4.402 -9.124,-6.876 -14,-10 0.464,-11.797 -10.794,-11.872 -21,-13 -0.553,-1.78 -0.514,-4.153 -2,-5 28.065,-20.601 66.908,-30.426 116,-30 -8.979,-3.545 -23.396,-6.342 -34,-5 -14.759,-7.21 -33.564,-4.839 -52,-7 -16.987,-1.992 -33.747,-3.217 -51,-4 -20.55,-0.934 -37.282,-0.605 -57,-3 -9.672,-1.175 -19.591,-3.386 -27,-7 -24.881,0.917 -49.41,-4.653 -68,-15 -8.011,2.989 -11.955,10.045 -13,20 -5.14,2.984 -12.425,10.637 -19,6 -4.06,0.606 -3.364,5.97 -5,9 -1.351,5.889 -7.87,7.892 -13,11 -4.552,2.759 -9.094,7.117 -14,9 -3.075,1.181 -6.872,0.78 -10,2 -8.905,3.473 -16.399,10.844 -26,12 -0.479,-3.146 1.424,-3.909 2,-6 -3.769,-0.769 -4.78,1.22 -8,1 2.261,-2.739 4.422,-5.578 5,-10 -2.295,-2.872 -4.295,2.972 -6,4 -8.198,1.469 -13.281,6.052 -16,13 -3.557,1.776 -8.352,2.314 -10,6 -2.077,-4.206 -6.659,-6.799 -4,-13 -4.308,0.05 -12.91,9.732 -20,7 -3.765,-0.902 -4.135,-5.198 -4,-10 -10.961,-0.262 -26.728,3.994 -40,2 -1.647,-1.555 0.342,-3.896 1,-6 -7.663,5.56 -19.622,4.652 -23,-4 27.972,-23.694 66.838,-36.496 95,-60 -6.46,-10.114 -6.054,-27.908 2,-36 -0.431,-2.236 -4.928,-0.405 -7,-1 -5.062,-8.69 -6.203,-19.947 -11,-28 -3.871,-6.497 -10.576,-9.872 -14,-16 -0.504,-4.564 1.736,-5.668 0,-9 -2.456,-2.877 -6.738,-3.929 -10,-6 -3.402,-14.302 -9.454,-31.162 -8,-47 -3.623,-3.044 -3.712,-9.621 -7,-13 -0.042,-6.375 0.537,-12.13 4,-15 -6.242,-14.631 -14.893,-29.555 -13,-47 0.641,-5.907 4.206,-12.023 4,-17 -2.277,-2.39 -4.216,-5.117 -7,-7 -2.349,4.985 -4.789,9.878 -11,11 -5.576,-4.019 -4.481,-16.581 -5,-28 -0.863,-18.993 -2.089,-40.084 -2,-56 -1.567,17.159 -6.837,39.848 -7,61 -0.093,12.144 4.121,28.713 -10,32 0.184,-0.851 -0.39,-0.943 -1,-1 -3.172,-1.676 -3.596,-5.635 -4,-8 C 9.398,286.626 9.715,273.904 9,263 5.922,216.062 5.843,157.541 20,121 c -0.89,0.443 -1.789,0.878 -2,2 -4.416,-0.546 4.137,-3.29 4,-6 -1.555,-1.488 -4.511,4.106 -9,3 -0.548,0.669 12.255,-6.75 14,-14 -2.918,1.102 -8.683,7.969 -15,9 -2.474,0.127 -1.7,-1.224 0,-1 7.089,-2.244 11.215,-7.451 15,-13 -8.905,1.449 -9.647,9.225 -18,9 3.838,-3.162 9.671,-4.329 11,-10 -5.363,-1.76 -8.5,6.636 -16,6 3.932,-3.401 10.797,-3.87 13,-9 -4.376,-2.292 -7.679,4.018 -13,4 1.734,-3.933 8.95,-2.383 10,-7 -2.466,-4.083 -5.116,0.888 -9,1 -3.35,0.026 6.517,-2.365 7,-5 -1.804,-4.772 -5.773,3.35 -9,0 2.48,-1.52 6.221,-1.779 7,-5 C 6.723,85.056 6.177,87.844 2,87 3.333,85.333 6.447,85.447 8,84 8.164,81.169 1.836,84.831 2,82 1.157,78.944 2.3,76.607 4,74 4.869,72.668 1.264,71.956 7,72 6.743,69.365 4.94,68.718 9,69 c -2.294,-7.057 3.115,0.236 1,-7 1.479,1.158 2.521,1.158 4,0 0.368,-1.701 -0.78,-1.887 -2,-2 7.665,-1.833 3.589,-7.117 9,-8 -5.658,-2.491 4.171,-3.25 -1,-5 -0.168,-2.168 3.547,-0.453 5,-1 -3.251,-2.48 0.839,-1.206 -1,-6 4.646,-7.525 16.255,-10.723 25,-16 6.188,-3.734 14.125,-11.862 25,-7 12.312,-4.043 25.445,-13.898 43,-14 3.88,-0.022 7.132,1.618 11,2 23.407,2.315 50.008,-1.289 69,-3 1.693,-0.152 2.604,-0.595 3,-2 1,0 2,0 3,0 0,0.333 0,0.667 0,1 34.53,0.702 51.588,23.491 69,43 18.464,20.689 35.048,38.48 45,67 3.448,9.88 5.153,20.615 10,30 6.707,12.986 20.134,23.065 30,35 10.052,12.161 20.385,25.207 28,37 5.36,8.301 10.632,16.859 13,27 5.584,0.564 14.368,-1.063 20,1 10.206,3.737 13.063,17.509 24,22 11.948,4.906 30.788,5.117 45,7 14.885,1.972 30.261,4.678 43,9 5.554,1.884 10.861,5.616 17,8 17.521,6.805 37.51,12.492 53,22 11.856,7.277 19.05,17.968 31,27 14.826,11.207 31.971,18.028 49,26 16.202,7.584 29.706,19.672 46,28 14.077,17.256 30.47,32.197 34,60 0,4.667 0,9.333 0,14 -4.527,17.131 -7.097,44.253 -15,59 -4.207,7.85 -14.355,18.285 -21,22 -2.807,1.569 -7.268,0.485 -10,2 -1.073,0.595 -2.175,4.312 -4,6 -4.523,4.185 -11.064,8.64 -18,11 -6.18,14.307 -18.788,25.867 -39,23 -9.889,6.488 -19.601,14.587 -31,19 -15.603,6.04 -33.308,7.46 -51,12 -5.679,1.457 -11.191,4.653 -17,6 -6.283,1.456 -13.12,1.247 -19,3 -10.337,3.081 -21.17,10.605 -34,14 -12.955,3.428 -25.003,3.666 -37,8 -5,0 -10,0 -15,0 z"
   id="path7"
   style="fill-rule:evenodd" />
            
            <g
   id="g9" />
            
        </g>
        
    </g>
    
</svg>