<?xml version="1.0" encoding="UTF-8" standalone="no"?>
<!-- Created with Inkscape (http://www.inkscape.org/) -->

<svg
   xmlns:svg="http://www.w3.org/2000/svg"
   xmlns="http://www.w3.org/2000/svg"
   version="1.1"
   width="1833"
   height="1414"
   viewBox="0 0 1833 1414"
   id="Layer_1"
   xml:space="preserve"><defs
   id="defs95" />
    
    <g
   id="g3">
        
        <g
   id="g5">
            
            <path
   d="m 111,0 c 0.667,0 1.333,0 2,0 -0.423,2.09 0.686,2.648 1,4 13.689,-1.689 20.784,3.216 26,10 15.58,8.988 26.051,34.04 41,44 -0.86,0.807 -0.594,2.739 -2,3 1.421,2.912 5.922,2.745 9,4 0.467,2.134 -1.429,1.905 -3,2 2.292,2.041 5.852,2.815 9,4 0.55,2.217 -1.91,1.424 -2,3 3.135,1.105 2.819,0.645 4,-2 -0.421,3.698 4.389,4.591 2,9 2.641,0.025 6.266,-0.933 5,3 8.935,1.499 14.177,0.906 21,1 -2.919,2.747 -8.42,2.914 -13,4 8.568,1.072 16.933,1.761 27,-1 0,1 0,2 0,3 6.747,-0.278 10.14,-5.718 17,-3 0.55,2.217 -1.91,1.424 -2,3 17.743,-2.275 38.823,-4.273 62,-5 0.65,1.017 2.299,1.034 2,3 3.992,-3.656 9.104,-2.546 16,-1 0.282,0.063 -1.421,1.066 -2,1 6.744,0.777 25.312,-0.589 25,7 14.64,-2.894 24.738,3.021 40,3 0.55,2.217 -1.91,1.424 -2,3 3.999,0.332 5.551,-1.783 10,-1 -3.417,3.71 6.234,0.417 6,4 7.733,-1.6 15.232,-3.435 23,-5 -1.063,4.604 -6.681,4.652 -11,6 11.637,1.297 20.279,-9.05 34,-9 -2.561,5.439 -11.169,4.831 -16,8 35.489,0.681 59.008,-28.415 84,-41 8.768,-9.771 26.78,-12.101 40,-16 6.017,-1.774 10.792,-5.557 17,-3 0.326,0.134 0.508,2.789 1,3 5.851,2.513 13.962,1.261 20,2 0.14,4.527 6.782,2.551 11,3 0.467,2.134 -1.429,1.905 -3,2 3.233,3.711 8.3,-3.012 11,0 1.008,3.008 -2.228,1.772 -4,2 5.15,3.846 9.197,8.632 16,6 -2.349,4.021 3.037,3.597 3,8 4.647,-1.019 8.346,-2.987 12,-5 1.935,3.968 -7.897,4.745 -11,7 11.129,2.174 17.702,-5.589 28,-9 1.158,1.479 1.158,2.521 0,4 5.706,-1.627 9.975,-4.692 15,-7 0.282,1.615 -0.945,1.722 -1,3 6.283,-2.717 13.564,-4.436 18,-9 1.172,0.161 0.843,1.823 1,3 2.768,-2.566 7.306,-3.361 10,-6 2.689,-0.689 1.933,2.067 3,3 3.541,0.541 2.459,-3.541 6,-3 -0.162,4.504 -5.663,3.67 -6,8 8.413,-5.921 18.938,-9.728 30,-13 -2.02,2.313 -3.323,5.344 -7,6 18.185,-2.719 23.998,-6.497 44,-11 -7.313,5.021 -14.728,9.939 -23,14 13.177,-2.073 29.252,-18.613 44,-16 1.781,0.733 0.145,1.818 0,3 1.794,0.127 2.109,-1.224 4,-1 0.282,1.615 -0.945,1.722 -1,3 14.219,-5.034 23.557,-7.524 39,-11 -4.262,5.071 -13.003,5.664 -19,9 11.789,3.114 18.009,-7.985 29,-9 -3.417,3.583 -6.685,7.315 -13,8 3.929,2.883 9.42,-1.213 14,-1 -0.147,2.186 -2.52,2.147 -5,2 0.86,0.807 0.594,2.739 2,3 1.987,-1.046 3.434,-4.116 9,-4 -2.084,5.813 10.557,-0.095 16,-1 0.088,4.088 -4.954,3.046 -6,6 0,0.333 0,0.667 0,1 L 864.362,48.396 865,52 c -1.523,2.811 -7.133,1.534 -8,5 7.41,-1.923 12.734,-5.933 21,-7 l -0.5,1.5 1.5,0.5 c -0.027,0.973 -1.224,0.776 -2,1 12.014,0.675 22.576,-8.753 36,-10 -0.847,1.486 -3.22,1.447 -5,2 7.75,2.167 13.026,3.462 20,0 2.558,-0.044 1.22,0.743 1,2 4.774,-1.559 11.911,-0.756 17,-2 -8.332,5.001 -19.251,7.416 -29,11 2.725,1.679 9.826,-0.807 14,-1 L 930.556,58.667 934,60 c 7.008,1.992 17.861,-0.794 25,-2 -6.516,4.151 -16.271,5.062 -25,7 18.996,0.897 39.367,-13.572 58,-10 -3.313,4.18 -12.813,2.307 -16,4 0.431,2.236 4.929,0.405 7,1 l -0.5,3.7 3.5,1.3 c 2.038,2.295 8.305,0.362 12,1 l 0.25,2 1.75,1 c -0.027,0.973 -1.225,0.776 -2,1 1.577,4.098 6.391,-1.909 11,-1 l -0.5,2.5 2.5,0.5 c 15.799,2.794 30.117,-4.546 45,-6 1.555,3.555 -3.396,0.604 -3,3 4.303,2.922 7.752,0.61 14,1 -1.733,3.6 -8.176,2.491 -13,3 10.715,3.039 23.279,-0.714 35,0 -3.377,2.957 -9.524,3.143 -15,4 11.865,1.271 20.865,-3.184 34,1 -3.146,3.855 -12.771,1.229 -19,2 1.232,1.434 3.438,1.895 6,2 -5.714,3.619 -17.289,1.377 -26,2 16.834,4.516 40.101,-3.891 54,5 -2.667,0 -5.333,0 -8,0 5.081,4.938 -3.603,3.988 -9,4 5.506,3.143 12.801,-0.51 18,-1 1.008,3.008 -2.228,1.772 -4,2 4.127,1.54 8.481,2.852 14,3 -1.788,1.568 -13.149,2.167 -20,2 h -5 v 5 c 2.852,3.481 12.156,0.51 16,3 l -2.25,2 0.25,3 c 1.978,1.689 6.241,1.092 9,2 l -0.5,3.5 2.5,2.5 c 0.716,2.715 -4.716,-0.715 -4,2 16.661,-1.594 39.249,0.919 56,5 l -0.5,2 0.5,2 c -0.667,0 -1.333,0 -2,0 0,0.667 0,1.333 0,2 l -1.5,3.357 0.5,3.643 c -1,0 -2,0 -3,0 21.652,5.515 48.536,-4.963 61,10 -3.914,0.989 -5.807,-2.209 -8,0 -1.828,0.622 1.728,4.178 4,4 -0.125,2.208 -4.242,0.425 -6,1 11.938,0.429 15.621,4.164 25,8 -11.23,1.655 -23.695,0.566 -38,1 21.084,3.359 41.179,-2.533 54,7 -1.454,-1.546 -5.119,-0.881 -8,-1 -1.141,0.888 0.618,2.792 -4,2 7.257,3.533 13.998,1.39 21,5 -2.757,2.739 -12.764,0.187 -17,0 -0.582,3.582 2.96,3.041 6,3 1.026,3.36 -3.11,1.557 -5,2 4.52,3.363 11.886,-2.243 15,2 -0.848,3.569 -2.463,0.12 -6,1 3.188,3.812 13.412,0.587 18,3 -0.681,2.669 -6.88,2.827 -8,2 3.908,7.758 19.43,3.903 27,8 -7.071,2.288 -11.509,3.27 -19,1 2.766,2.234 6.108,3.892 10,5 -3.356,2.311 -10.983,0.35 -16,1 4.44,5.088 10.916,0.036 17,1 3.944,0.625 7.146,4.483 11,6 7.812,3.075 18.408,2.331 22,9 -3.908,-1.091 -7.724,-2.276 -12,-3 4.842,4.158 14.437,3.563 18,9 -3.156,0.489 -3.531,-1.802 -7,-1 9.267,5.066 22.709,5.958 31,12 -0.161,1.172 -1.823,0.843 -3,1 2.676,0.991 3.354,3.979 6,5 -10.585,0.911 -22.877,-5.118 -32,-9 1.387,-2.28 6.961,-0.373 10,-1 -8.735,-2.341 -16.272,-0.996 -26,-1 16.427,1.24 26.496,8.837 40,13 -2.836,3.093 -6.199,-1.744 -10,-1 2.29,2.709 7.264,2.736 11,4 -9.985,2.348 -24.797,-0.13 -34,3 10.325,1.314 28.815,-3.173 41,0 l -1.5,3.875 0.5,4.125 c -2.355,-0.022 -2.944,1.723 -6,1 18.297,6.369 34.539,14.794 53,21 -8.133,1.89 -14.317,-5.719 -19,-1 6.047,4.286 14.959,5.708 23,8 -0.161,1.172 -1.823,0.843 -3,1 0.744,2.255 5.609,0.391 8,1 0.599,2.599 -0.401,3.599 -3,3 3.954,1.282 8.788,3.923 11,4 -1.492,3.878 -6.287,-2.02 -10,2 4.812,6.029 19.839,6.929 34,12 -5.313,1.622 -12.646,2.642 -19,-1 -2.953,0.87 2.32,1.497 1,4 -0.891,-0.777 -2.258,-1.075 -4,-1 6.423,4.994 20.887,7.001 22,14 8.326,1.34 14.987,4.346 23,6 -0.31,1.357 -2.504,0.83 -4,1 2.382,2.951 9.049,1.618 10,6 -2.409,0.409 -2.174,-1.826 -5,-1 0.314,2.352 4.74,0.593 4,4 -6.709,-1.763 -13.943,-7.868 -20,-7 12.089,4.103 16.573,11.939 28,15 -3.776,3.058 -8.667,-1.294 -13,-1 9.605,6.903 20.237,10.563 35,14 -0.31,1.357 -2.504,0.83 -4,1 -0.484,4.484 6.854,1.146 6,6 -2.409,0.409 -2.174,-1.826 -5,-1 0.658,1.342 2.138,1.862 4,2 -0.227,1.44 -2.984,0.349 -3,2 2.815,1.851 6.236,3.097 10,4 -0.971,3.791 -6.273,-0.453 -10,0 3.922,3.629 5.082,2.931 9,3 -2.178,6.458 -0.444,3.964 2,9 -3.164,-1.374 -3.342,-0.218 -7,0 4.162,2.505 9.639,3.695 12,8 -3.056,0.723 -3.645,-1.022 -6,-1 0.862,2.805 5.206,2.127 7,4 -0.674,2.766 -5.247,-2.784 -4,3 -5.885,-2.698 -8.959,-2.231 -16,-4 8.415,4.252 18.174,7.16 26,12 -0.161,1.172 -1.823,0.843 -3,1 3.813,2.854 8.838,4.496 12,8 -4.119,2.806 3.939,7.094 8,8 -4.237,1.717 1.865,2.009 -1,4 2.13,2.537 7.903,1.43 8,6 -5.301,-0.699 -8.847,-3.154 -13,-5 4.907,7.098 18.369,14.294 27,21 -6.688,1.671 -11.533,-7.122 -18,-9 -3.263,1.028 6.033,3.442 -1,3 7.94,5.06 18.854,7.146 24,15 -5.747,-2.643 -8.415,-3.586 -15,-4 12.008,6.658 25.322,12.012 38,18 -6.798,3.219 -12.627,-7.257 -19,-2 2.936,4.397 11.508,3.159 13,9 -7.908,-0.076 -17.635,-6.134 -26,-9 4.851,5.489 18.431,10.898 29,14 -4.546,7.49 -15.859,1.564 -23,-2 1.224,2.512 10.557,9.564 16,8 -1.119,1.44 -1.078,2.44 1,3 -0.765,-3.45 6.166,-0.545 9,1 -0.31,1.357 -2.504,0.83 -4,1 2.918,2.416 5.456,5.21 10,6 0.302,4.085 -1.385,-0.169 -4,1 2.739,3.461 4.559,5.562 11,7 -0.745,2.255 -5.609,0.391 -8,1 3.517,2.817 7.749,4.918 12,7 -0.147,2.186 -2.52,2.147 -5,2 2.302,2.365 6.133,3.2 9,5 -4.048,2.35 0.797,1.66 1,5 -3.081,-0.748 -1.219,3.448 -5,2 6.156,3.844 10.779,9.221 17,13 -5.289,-0.378 -7.811,-3.523 -12,-5 -0.901,1.764 -0.08,2.254 -4,1 8.343,6.99 22.711,7.956 30,16 -4.118,0.785 -5.132,-1.535 -9,-1 3.715,3.285 11.116,2.884 13,8 -8.728,2.799 -12.602,-3.629 -19,-6 -2.806,0.013 2.381,2.729 -2,2 5.286,3.047 12.515,4.152 17,8 -3.248,2.89 5.377,8.587 11,9 -0.188,4.351 -1.739,1.82 -5,2 0.469,1.217 6.792,3.763 2,4 3.528,2.472 7.882,4.119 11,7 -2.087,2.981 -5.26,-1.328 -9,0 7.525,6.631 12.109,12.454 23,17 -4.003,2.05 0.962,2.521 3,4 -3.486,1.615 -8.373,-1.917 -12,0 2.979,2.688 7.46,3.874 11,6 -1.908,3.113 -4.342,-1.563 -7,-1 2.694,5.972 10.952,6.381 15,11 -0.027,0.973 -1.224,0.776 -2,1 0.775,2.558 6.445,0.222 6,4 -4.049,-1.382 -3.163,2.17 -6,2 0.91,1.757 3.504,1.829 5,3 -0.161,1.172 -1.823,0.843 -3,1 2.644,5.69 10.318,6.349 13,12 -3.181,-0.153 -4.399,-2.267 -8,-2 4.35,4.479 -4.51,-0.405 -6,-2 -2.806,0.013 2.381,2.729 -2,2 5.769,2.231 10.749,5.251 17,7 -0.437,1.23 -1.279,2.054 -3,2 3.507,3.219 14.701,9.12 9,10 2.057,1.943 5.214,2.786 8,4 -2.586,2.899 -1.115,4.958 3,6 -1.011,2.816 -4.247,-0.276 -6,0 1.416,4.585 2.171,5.671 8,7 -1.951,1.049 -3.994,2.006 -6,3 4.981,3.559 2.068,8.867 10,9 -1.272,1.184 -0.424,3.777 1,5 -1.011,2.815 -4.247,-0.276 -6,0 7.481,5.755 13.1,13.563 18,20 -1.891,3.401 -3.506,-1.713 -6,-1 -0.492,5.64 2.411,4.928 5,9 -1.987,1.666 -1.271,-0.091 -4,0 3.533,4.024 4.433,4.837 7,9 -2.479,4.088 -0.653,6.444 -6,7 0.626,4.094 14.548,8.455 7,11 0.725,2.275 5.702,0.298 5,4 -2.319,0.319 -3.84,-0.161 -5,-1 0.464,3.869 5.515,3.152 8,5 -1.004,2.822 -1.465,2.507 -2,4 1.138,3.196 7.719,0.948 8,5 -3.056,0.723 -3.645,-1.022 -6,-1 0.031,4.596 4.372,7.808 1,9 3.021,3.312 6.422,6.245 9,10 -3.942,-1.953 -3.058,1.953 -7,0 3.5,5.834 12.48,6.187 15,13 -6.47,-0.017 3.363,4.662 3,8 -5.698,-0.302 -8.044,-3.956 -12,-6 0.926,5.752 12.18,9.813 14,18 -4.264,-3.07 -7.962,-6.705 -12,-10 0.064,7.563 12.368,14.962 16,25 -3.541,0.541 -2.459,-3.541 -6,-3 -0.084,2.655 7.611,7.817 2,12 4.997,7.336 12.867,11.8 16,21 -2.889,-1.445 -3.858,-4.809 -6,-7 -1.987,0.013 -1.271,2.729 -4,2 -3.339,-2.661 -6.082,-5.918 -10,-8 4.431,7.419 11.442,15.051 18,24 -5.681,0.014 -5.915,-5.418 -10,-7 8.45,9.087 7.225,22.164 17,29 -3.056,0.723 -3.645,-1.022 -6,-1 -3.061,0.764 6.028,4.739 -1,4 3.967,1.033 6.16,3.841 9,6 -1.011,2.815 -4.247,-0.276 -6,0 1.912,2.754 4.246,5.088 7,7 -4.237,1.645 -6.456,-1.351 -11,-3 2.701,6.307 12.363,14.298 18,21 -0.805,-0.529 -1.623,-1.043 -3,-1 9.292,9.308 10.52,17.228 17,28 -3.162,-2.505 -8.548,-2.786 -10,-7 -1.889,0.111 -0.694,3.306 -3,3 2.032,2.394 8.066,2.116 10,7 -3.651,0.527 -4.491,-4.391 -7,-2 -1.133,3.496 7.861,5.45 7,12 -2.711,2.727 -2.488,-2.586 -6,-2 2.011,5.048 6.709,9.902 11,16 -6.42,-1.246 -11.003,-4.33 -15,-8 6.641,11.359 18.228,17.772 24,30 -4.191,0.191 -3.091,-4.909 -8,-4 -2.931,0.848 0.598,3.22 0,5 -2.729,0.729 -2.013,-1.987 -4,-2 0.462,4.222 8.874,9.113 11,15 -5.07,-1.367 -6.463,-1.403 -11,-2 -2.556,1.662 3.902,2.686 3,6 -3.19,-0.857 -3.093,1.574 -5,2 1.676,2.991 4.577,4.756 7,7 -3.875,1.829 0.288,2.358 -3,5 0.52,4.146 5.047,4.286 4,10 -3.375,-0.958 -6.355,-2.311 -7,-6 -1.361,10.913 7.196,25.949 14,35 0,1 0,2 0,3 -2.949,-2.051 -5.556,-4.444 -7,-8 -2.964,1.453 1.317,3.9 0,7 -2.95,-3.05 -4.321,-7.679 -5,-13 -1.73,3.429 -2.93,0.473 -4,-2 -4.28,8.632 4.738,12.581 5,20 -3.779,0.112 -5.377,-1.957 -6,-5 -1.57,0.43 -0.854,3.146 -4,2 -1.605,-7.044 -5.745,-11.114 -10,-13 5.095,11.701 16.734,18.957 21,34 -7.571,-1.762 -6.143,-12.524 -13,-15 -1.58,1.323 2.923,5.02 3,8 -3.14,0.473 -2.642,-2.691 -5,-3 -0.256,3.923 3.617,3.717 3,8 -2.218,-0.551 -1.424,1.909 -3,2 -4.267,-2.733 -4.347,-9.653 -6,-15 -1.851,11.199 3.912,24.409 5,39 -1.615,0.282 -1.722,-0.945 -3,-1 2.063,6.478 2.84,8.562 4,15 -6.397,-0.603 -4.972,-9.028 -8,-13 -2.916,1.71 2.266,3.64 1,7 -2.039,-0.294 -1.961,-2.706 -4,-3 3.438,15.596 10.997,32.291 11,48 -3.093,0.093 -2.98,-3.02 -3,-6 -2.948,6.554 4.648,16.079 2,21 -0.427,0.793 -5.73,-1.124 -2,2 -5.215,2.19 -8.471,-6.178 -11,-10 -2.256,5.754 4.02,16.433 3,21 -6.242,-1.425 -6.116,-9.217 -6,-17 -2.768,2.565 0.694,11.361 -2,14 -3.637,-1.03 -4.472,-4.861 -5,-9 -1.758,7.724 3.021,20.525 -6,24 0,-3.667 0,-7.333 0,-11 -3.418,5.617 -0.112,16.07 -3,20 -1.667,0 -3.333,0 -5,0 0,-1.333 0,-2.667 0,-4 -0.854,0.602 -2.575,5.985 -3,1 -4.08,7.882 -4.45,13.635 -6,23 -3.624,0.957 -1.017,-4.316 -3,-5 -2.291,1.709 -2.364,5.636 -3,9 -3.92,-2.887 -2.53,-0.771 -6,1 0,-2 0,-4 0,-6 -0.832,9.862 -4.008,13.928 -8,22 -2.413,-1.836 1.371,-5.895 0,-10 -3.19,10.143 -7.595,19.072 -13,27 -3.213,0.88 -1.37,-3.296 -4,-3 -0.735,12.598 -3.48,23.187 -8,32 -4.511,-4.187 3.61,-11.237 2,-19 -3.714,5.62 -5.717,12.95 -9,19 -3.626,-0.708 -1.379,-7.288 -2,-11 -1.23,1.117 -2.054,0.871 -2,-1 -4.999,12.334 -12.115,22.551 -16,36 -2.168,0.169 -0.453,-3.547 -1,-5 -2.822,1.178 1.118,9.118 -3,9 -3.834,0.167 -1.514,-5.82 -7,-4 -4.01,4.324 -4.654,12.012 -7,18 -2.893,-3.283 1.937,-7.354 1,-12 -3.897,5.77 -5.334,13.999 -12,17 3.376,-10.291 10.601,-16.733 12,-29 -1.826,2.507 -2.463,6.203 -5,8 l -3.9,-1.3 -4.1,0.3 c -0.101,-3.101 1.223,-4.777 2,-7 -4.199,-1.473 1.947,-14.233 2,-21 -4.148,5.852 -2.728,17.272 -7,23 -1.172,-0.161 -0.844,-1.823 -1,-3 -3.609,5.724 -4.567,14.1 -9,19 l -2.625,-2.563 L 1640,1359 c 0.898,-2.928 0.898,-3.072 0,-6 -5.904,7.763 -7.878,19.456 -14,27 -2.16,-3.206 2.711,-7.922 2,-13 -2.064,2.269 -2.044,6.622 -4,9 -1.901,-6.253 5.053,-12.268 7,-18 -6.578,4.51 -10.322,16.893 -11,24 1.167,-1.5 2.889,-2.445 3,-5 0.348,14.555 -9.68,21.261 -16,32 -0.802,-3.469 1.489,-3.844 1,-7 -2.846,2.487 -3.461,7.205 -6,10 -3.302,-1.048 2.989,-8.71 2,-14 -2.801,1.532 -1.27,7.397 -6,7 0,-1.333 0,-2.667 0,-4 -1.598,1.402 -2.555,3.445 -3,6 -2.34,-6.665 -3.711,3.742 -5,7 -0.667,0 -1.333,0 -2,0 -0.241,-1.759 -1.721,-2.279 -4,-2 2.238,-4.423 2.295,-6.558 3,-11 -1.136,-2.342 -3.345,2.561 -4,4 -2.265,-2.982 2.71,-7.252 4,-10 1.172,0.161 0.844,1.823 1,3 1.673,-2.327 2.612,-5.388 3,-9 -1.167,1.5 -2.889,2.445 -3,5 -2.412,-4.775 4.622,-8.689 5,-14 -8.859,6.285 -5.041,19.058 -16,23 0.537,-3.537 -0.848,-5.152 -3,-6 1.657,-3.343 3.343,-6.657 5,-10 -1.136,-0.347 -3.345,0.327 -4,0 -3.899,-8.729 2.163,-17.385 10,-24 -1.852,-1.927 -1.832,-0.79 -1,-4 -3.813,2.521 -4.584,8.083 -8,11 l -2.5,-1.5 -2.5,1.5 c -0.805,0.529 -1.623,1.043 -3,1 0.898,-1.768 2.414,-2.92 3,-5 -1.862,-0.956 -3.342,2.995 -4,0 -3.266,6.067 -9.475,9.192 -11,17 -3.021,-9.48 9.46,-15.907 10,-22 -0.898,-2.704 -2.414,2.109 -3,3 -3.027,-1.223 0.707,-3.816 1,-5 -1.326,-0.464 -2.649,-0.475 -2,-5 -4.848,3.819 -5.357,11.977 -13,13 -0.836,-6.335 9.294,-9.012 10,-17 -7.601,1.616 -4.261,8.384 -11,10 -2.879,-7.672 10.039,-10.965 7,-19 -1.96,2.744 -9.079,4.408 -12,3 0.661,-5.672 5.074,-7.593 5,-14 -3.856,3.144 -3.096,10.904 -9,12 1.478,-5.189 4.095,-9.238 6,-14 -1.193,-2.631 -3.424,4.713 -6,1 -0.127,-1.794 1.225,-2.109 1,-4 2.08,-0.565 3.232,-2.857 5,-1 3.401,-10.109 13.518,-11.06 17,-19 -0.241,-2.578 -1.721,1.373 -4,0 5.369,-5.639 3.392,-8.184 10,-14 -13.771,7.229 -17.115,24.885 -31,32 0.817,-0.726 2.683,-6.921 -1,-6 5.164,-4.836 5.158,-14.842 10,-20 -6.178,-6.554 0.652,-12.082 4,-17 -3.729,-1.063 -1.583,3.75 -5,3 2.726,-5.259 6.695,-10.041 7,-15 -7.276,1.39 -7.862,9.471 -11,15 -8.443,-5.049 5.494,-11.567 5,-17 -0.426,-1.952 -2.857,1.636 -2,-3 -2.521,1.813 -2.843,5.824 -6,7 -3.921,-3.824 -3.438,1.393 -8,2 2.879,-5.121 4.511,-11.489 10,-14 -5.058,-4.699 4.819,-9.145 6,-14 -0.667,0 -1.333,0 -2,0 l 0.5,-2.5 -2.5,-0.5 c -3.942,-0.275 -3.058,4.275 -7,4 0.796,-3.537 5.004,-3.663 6,-7 -2.933,0.067 -3.714,2.286 -5,4 -1.55,-2.276 -2.083,-1.889 -5,-1 1.568,-6.765 6.131,-10.535 11,-14 -4.004,-1.508 1.351,-3.681 -1,-6 -1.53,4.47 -5.125,6.875 -7,11 -2.814,-5.84 3.229,-11.419 6,-15 -3.777,-0.948 -0.817,-5.053 1,-9 -3.57,1.096 -5.379,3.954 -7,7 -5.607,-5.809 6.752,-11.98 10,-18 -3.072,-0.047 -7.928,6.721 -11,10 -1.532,-3.896 2.475,-10.837 4,-15 -0.241,-2.578 -1.721,1.373 -4,0 1.117,-4.549 3.76,-7.573 5,-12 -2.923,-2.805 -1.936,3.941 -6,3 0.339,-13.392 9.738,-19.236 13,-30 -4.604,0.411 -7.063,11.591 -13,14 1.77,-9.563 9.383,-13.283 11,-23 -0.437,-1.484 -1.279,0.395 -3,0 0.33,-9.67 7.293,-12.707 12,-18 -3.436,-3.315 1.295,-5.405 2,-10 0.066,-2.787 -5.136,4.657 -5,-1 -3.642,0.024 -2.126,5.207 -7,4 3.194,-8.139 11.319,-11.347 15,-19 -6.191,-2.835 -5.805,9.512 -13,9 4.086,-12.105 12.453,-16.059 17,-26 -6.722,2.619 -11.594,15.734 -20,20 -2.932,-2.038 1.354,-5.232 2,-7 -2.203,-0.077 -3.713,-2.9 -1,-6 -0.241,-2.578 -1.721,1.373 -4,0 2.878,-16.832 12.17,-25.03 20,-35 -0.622,-3.476 -4.178,5.615 -4,0 l 0.5,-2.5 -2.5,0.5 c 0,-0.334 0,-0.666 0,-1 -4.238,-1.559 -7.001,6.079 -10,9 -1.172,-0.161 -0.844,-1.823 -1,-3 -4.646,2.085 -0.354,8.089 -7,9 3.288,1.132 -0.293,5.959 -3,7 1.631,-8.464 5.578,-17.67 11,-25 -0.437,-1.484 -1.279,0.395 -3,0 -0.466,-1.912 3.082,-4.305 -1,-4 3.635,-6.328 7.38,-14.076 18,-18 2.557,-0.044 1.22,0.743 1,2 3.243,-2.09 9.115,-1.552 10,-6 -1.459,1.162 -10.014,3.587 -14,3 2.175,-3.276 5.243,-4.724 5,-8 -2.812,-0.448 -6.834,6.477 -10,9 -7.789,-0.815 -5.783,-1.498 -12,1 1.646,-6.021 5.721,-9.612 10,-13 -1.614,-3.363 -3.166,3.144 -5,0 0.926,-3.923 2.178,-3.717 1,-8 -3.884,7.449 -3.938,18.729 -13,21 0.691,-5.975 3.309,-10.025 4,-16 -1.342,0.658 -1.862,2.138 -2,4 -4.068,-1.383 -1.223,-8.744 -1,-12 -3.102,2.232 -1.768,8.898 -4,12 -2.769,-7.813 3.13,-14.661 0,-22 -1.017,0.649 -1.034,2.3 -3,2 -0.884,-8.996 6.221,-18.363 8,-28 -2.352,0.314 -0.594,4.74 -4,4 0.757,-6.243 4.147,-9.853 5,-16 -5.405,2.066 -5.451,15.081 -9,22 -1.666,-2.528 -1.553,-3.728 -3,0 -2.788,-5.391 2.098,-12.934 3,-21 -0.891,0.615 -1.788,1.209 -2,0 -1.85,0.15 -0.613,3.387 -2,4 -2.814,-6.075 -0.354,-12.02 1,-23 -5.785,6.949 -0.486,22.964 -7,27 0,-5.667 0,-11.333 0,-17 -4.33,3.003 -2.74,11.926 -5,17 -3.076,-4.779 0.895,-11.078 0,-17 -1.486,1.514 -1.611,4.389 -2,7 -2.89,-10.176 2.127,-19.549 2,-28 -5.22,3.114 -3.572,13.094 -7,18 -3.307,-9.652 2.97,-18.354 6,-25 -2.263,-2.196 -3.721,4.896 -7,5 -1.318,-8.383 5.373,-15.437 8,-23 -0.247,-1.086 -1.988,-0.678 -2,-2 -3.524,4.809 -6.476,10.191 -10,15 3.591,1.435 0.222,6.474 0,10 -2.168,0.169 -0.453,-3.547 -1,-5 -2.983,0.017 1.41,7.41 -3,6 0.201,-4.799 2.677,-7.323 2,-13 -0.013,-2.35 -2.729,0.365 -2,2 -2.579,-1.754 -2.078,-6.589 -3,-10 -1.342,0.658 -1.862,2.138 -2,4 -2.78,-1.587 -1.816,-7.512 -7,-4 -1.032,-10.699 2.553,-16.78 4,-25 -7.034,4.966 -1.571,22.429 -10,26 0.042,-3.292 1.688,-4.979 1,-9 -1.564,3.518 -4.886,1.403 -6,-1 -1.342,0.658 -1.862,2.138 -2,4 -3.026,-2.45 0.758,-6.509 0,-10 -0.086,-1.942 -4.281,2.107 -3,-3 -3.094,2.573 -1.311,10.022 -6,11 0.538,-7.129 3.942,-11.391 4,-19 -1.99,3.676 -2.75,8.583 -4,13 -3.527,-6.855 5.122,-17.972 6,-27 -3.413,1.92 -2.817,7.85 -5,11 -1.332,-3.365 1.984,-10.657 3,-15 -0.013,-2.35 -2.729,0.365 -2,2 -3.336,-1.803 2.718,-7.814 -1,-10 l -3.5,-1.5 -1.5,3.5 c -2.262,2.072 -1.23,7.437 -3,10 0.149,-10.529 -1.453,-19.021 1,-34 -1.44,0.227 -0.349,2.984 -2,3 l -2.658,-2.553 L 1444,833 c -2.423,-3.797 0.297,-11.006 1,-15 -5.98,6.885 -8.351,12.094 -12,22 1.598,-1.402 2.555,-3.445 3,-6 0.534,7.878 -5.053,18.272 -5,29 -5.212,-0.308 -2.655,-12.406 -2,-11 -2.218,-3.858 1.771,-12.622 3,-19 -3.461,4.171 -0.459,-3.254 -2,-7 -2.931,4.628 -0.799,-1.658 -3,-3 -1.767,3.233 -1.699,8.301 -4,11 -0.934,-0.566 -1.515,-2.78 -2,-1 -3.509,-6.935 -3.871,-12.735 -2,-22 0.01,-0.045 1.702,1.959 1,3 4.12,-6.109 -2.912,-6.887 -1,-13 -2.061,11.605 -5.272,22.061 -7,34 -2.877,-3.124 -2.985,-9.015 -3,-15 -2.187,0.147 -2.147,2.52 -2,5 -5.113,-2.429 0.896,-6.626 3,-8 -6.343,-4.629 0.701,-19.088 1,-29 -6.862,11.954 -3.065,18.35 -8,28 -0.726,-3.059 1.726,-2.941 1,-6 -1.73,4.667 -2.93,-2.066 -4,0 -1.905,-6.343 -2.141,-16.065 1,-24 -2.423,0.577 -2.224,3.776 -3,6 -2.561,-1.105 -1.964,-5.37 -2,-9 -5.981,6.036 -2.647,18.016 -9,25 -3.381,-3.756 3.075,-10.433 0,-14 -1.486,0.847 -1.447,3.22 -2,5 -2.893,-1.603 -1.208,-3.737 0,-6 -0.426,-1.952 -2.857,1.636 -2,-3 -2.763,1.903 0.148,9.481 -4,10 0.819,-4.181 1.951,-8.049 2,-13 -1.357,0.31 -0.829,2.504 -1,4 -2.472,-5.828 -0.653,-15.969 1,-21 -0.889,-1.141 -2.792,0.618 -2,-4 -1.896,10.104 -4.113,19.887 -7,29 -5.721,-1.612 -1.872,-12.794 -3,-19 -2.288,1.712 -0.367,7.633 -1,11 -4.716,-7.951 -2.397,-22.936 -3,-35 -2.32,5.346 -0.343,14.99 -1,22 l -4.5,-0.5 -4.5,-0.5 c -1.177,-5.49 -1.826,-11.507 -3,-17 -2.208,6.125 -0.822,15.844 -3,22 -3.623,-1.044 -1.237,-8.097 -4,-10 -1.463,3.411 3.489,12.334 1,17 -3.034,0.367 -2.076,-3.258 -3,-5 -3.482,3.858 2.69,10.817 0,14 -4.686,-4.314 -2.832,-15.168 -5,-22 -2.618,9.962 2.435,20.891 4,30 -5.028,-2.972 -5.664,-10.336 -7,-17 -1.446,2.22 -5.078,2.255 -4,7 -3.602,-2.398 -3.009,-8.991 -6,-12 -2.567,1.991 2.688,4.578 1,9 -3.034,0.367 -2.076,-3.258 -3,-5 -2.423,2.287 -1.207,3.543 -1,7 -3.36,1.026 -1.557,-3.11 -2,-5 -3.568,0.848 -0.12,2.463 -1,6 -7.418,-9.248 -6.817,-26.516 -12,-38 -3.244,3.602 6.266,16.793 0,17 0.553,4.113 2.866,6.468 3,11 -1,0 -2,0 -3,0 1.272,2.395 3.651,3.682 3,8 -3.074,-3.593 -5.926,-7.407 -7,-13 2.57,0.097 1.43,3.903 4,4 -0.281,-5.731 -9.885,-10.772 -10,-20 -2.421,9.95 8.853,23.704 12,37 -4.507,-3.16 -5.381,-9.952 -9,-14 -1.465,4.159 4.576,9.403 5,15 -5.136,-1.531 -4.89,-8.444 -7,-13 -2.928,3.646 3.111,6.851 2,12 -5.11,-5.273 -3.598,-13.183 -7,-17 -0.424,-0.476 -1.198,1.618 -1,2 -3.448,-6.646 -3.363,-13.492 -7,-15 l -2,-0.5 -2,0.5 c -4.756,8.813 5.383,16.314 6,26 0.044,2.558 -0.743,1.22 -2,1 1.388,2.945 2.358,6.309 3,10 -1.753,-0.914 -3.475,-1.859 -3,-5 -0.795,0.111 -3.031,3.306 -1,3 -5.476,-2.866 -12.416,-12.911 -14,-23 -1.925,5.011 -2.184,0.715 -5,-1 1.574,10.093 6.72,16.613 9,26 -0.805,-0.529 -1.623,-1.043 -3,-1 2.022,7.644 9.815,9.518 10,19 -6.156,-4.844 -8.363,-13.637 -14,-19 -1.609,2.983 4.948,6.354 5,11 -2.57,-0.097 -1.43,-3.903 -4,-4 4.592,10.026 9.552,15.398 11,27 -2.885,-2.366 -3.315,-1.935 -2,2 -9.479,-13.869 -19.807,-22.706 -31,-36 1.108,5.225 5.892,6.775 7,12 l -4.5,1 4.5,1 c 0.517,5.817 2.842,9.824 4,15 -3.637,-1.696 -2.938,-7.729 -7,-9 2.517,9.462 5.922,9.792 9,21 -4.712,-3.301 -8.87,-12.446 -13,-13 l -2.5,-0.5 -0.5,2.5 c 0,1 0,2 0,3 -2.77,-1.564 -3.887,-4.78 -6,-7 -1.075,2.449 3.553,7.751 4,12 l -3.192,0.346 L 1236,845 c -2.271,-0.729 -2.991,-3.009 -4,-5 -1.167,5.784 3.474,8.373 5,15 l -3.5,0.5 0.5,3.5 c -4.79,0.188 1.717,1.739 0,5 l -2.5,2.5 2.5,2.5 c 0.074,6.259 3.109,9.558 4,15 -5.83,-4.17 -6.59,-13.41 -12,-18 -2.574,2.972 6.484,8.119 3,12 l -2,0.25 -1,1.75 c -1.172,-0.161 -0.844,-1.823 -1,-3 -5.335,2.695 8.188,16.735 2,17 0.938,5.062 4.838,7.162 6,12 l -4.167,0.833 L 1226,910 c -2.57,-0.097 -1.43,-3.903 -4,-4 7.146,14.854 14.107,29.893 18,48 -3.821,-1.592 -1.179,-1.592 -5,0 -3.176,-7.157 -7.436,-13.231 -13,-18 7.303,14.775 13.342,25.918 22,38 -3.879,2.506 -5.465,-5.838 -9,-7 -0.232,5.231 3.492,6.508 3,12 -3.991,-1.245 -2.584,-10.127 -8,-7 1.852,-4.231 -5.029,-7.361 -6,-12 -2.995,0.658 0.956,2.138 0,4 -4.667,-3.333 -6.574,-9.426 -11,-13 9.463,14.09 14.877,26.248 26,38 -8.22,0.21 -11.793,-12.866 -20,-16 4.921,7.681 7.023,14.816 13,25 -4.237,0.237 -1.763,-6.237 -6,-6 l -4.723,-1.5 -4.277,2.5 c -1.889,-0.111 -0.694,-3.306 -3,-3 2.679,8.321 7.425,14.575 11,22 -4.09,-1.91 -5.313,-6.687 -9,-9 7.642,14.025 20.448,22.885 27,38 -5.923,-4.41 -10.077,-10.59 -16,-15 5.974,9.693 16.277,15.056 18,29 -2.365,-5.635 -7.445,-8.555 -10,-14 -4.744,3.084 4.384,6.901 4,12 -3.541,-0.334 -2.459,-2.751 -6,-1 5.203,12.594 10.588,12.075 14,24 -6.726,-8.229 -8.408,-7.309 -15,-13 -0.103,3.018 6.91,11.745 7,12 0.725,1.789 -0.424,3.571 0,5 -2.324,-0.676 -4.2,-1.8 -4,-5 -1.16,0.84 -2.681,1.319 -5,1 -2.958,-3.375 -3.447,-9.22 -7,-12 -0.664,7.973 9.993,16.443 11,23 -4.437,0.104 -3.474,-5.193 -7,-6 -0.066,4.086 6.009,10.644 11,13 -0.577,3.298 -3.776,1.434 -6,1 0.779,8.221 8.025,9.975 8,19 -3.78,-3.22 -5.71,-8.29 -8,-13 -2.374,7.588 5.696,14.451 9,23 -1.995,-1.005 -1.578,-4.422 -5,-4 -0.81,0.19 -0.997,1.003 -2,1 l -2.5,-3.5 -3.5,2.5 c -2.039,-0.294 -1.961,-2.706 -4,-3 0.736,2.41 6.116,19.027 10,15 2.218,0.707 3.322,4.693 2,6 -3.517,0.183 -4.304,-2.362 -6,-4 -2.039,0.294 -1.961,2.706 -4,3 1.828,3.172 5.238,4.762 6,9 -1.479,-0.521 -2.521,-1.479 -4,-2 -0.044,1.711 0.743,2.59 2,3 -1.603,2.809 -3.737,-2.168 -6,-2 0.569,4.173 1.653,7.462 -1,11 -2.638,0.305 -2.579,-2.088 -3,-4 -1.44,0.227 -0.349,2.984 -2,3 6.932,11.054 -0.994,28.017 -3,45 -2.395,20.273 -4.956,45.353 -10,64 -1.271,4.701 -5.111,9.14 -6,14 -1.719,9.404 -5.73,15.95 -8,24 -1.805,6.402 -1.303,12.898 -3,18 -9.798,29.445 -40.223,38.795 -71,42 -2.482,-3.574 -12.974,-1.195 -16,1 -4.483,-1.804 -13.089,-0.01 -18,1 -32.769,-1.251 -48.023,-15.77 -77,-16 -12.535,-3.395 -28.057,-8.174 -33,-22 -0.479,-6.812 0.486,-12.18 1,-18 -1.512,-1.889 -3.428,4.231 -7,1 2.436,-7.897 8.919,-11.748 18,-13 -7.279,-3.026 -14.475,-16.515 -7,-25 -3.458,-0.813 -4.222,1.867 -6,0 0.306,-9.421 12.411,-3.021 17,-2 4.977,9.023 14.968,13.032 25,17 1.132,-11.216 -9.887,-17.542 2,-21 -0.368,1.701 0.78,1.887 2,2 2.163,-4.68 17.104,0.601 19,8 11.555,1.621 19.941,11.152 32,9 -8.143,-6.127 5.43,-11.166 14,-10 8.994,-20.802 39.791,-30.034 34,-59 -48.779,2.15 -103.008,49.007 -156,21 -0.932,-2.735 -3.068,-4.265 -4,-7 -32.02,-5.313 -72.827,-1.84 -73,-39 -0.91,-2.735 -3.504,1.774 -5,-1 0.163,-1.162 -0.221,-1.779 -1,-2 2.482,-3.852 6.521,-6.146 12,-7 -4.22,-6.113 -8.389,-12.278 -19,-12 2.083,-7.917 14.429,-5.57 24,-6 -3.433,-3.934 5.961,-7.161 14,-8 23.795,-2.484 61.643,3.973 75,12 7.347,-9.381 28.725,-13.372 43,-10 2.91,0.688 3.727,2.953 6,3 24.943,0.514 23.576,-16.286 16,-37 -2.28,3.983 1.618,10.354 1,16 -0.782,-6.885 -8.744,-6.589 -10,-13 -2.815,1.011 0.276,4.247 0,6 -5.167,-4.5 -3.973,-15.361 -6,-23 -2.168,-0.168 -0.453,3.547 -1,5 -2.423,-0.577 -2.224,-3.776 -3,-6 -1.735,3.896 -4.245,-1.126 -7,-2 0.042,3.291 1.688,4.979 1,9 -3.905,-3.095 -2.766,-11.234 -3,-18 1.484,1.849 1.916,4.751 2,8 1.616,-3.979 -0.323,-12.988 -1,-18 -4.062,1.938 -1.093,10.907 -2,16 -1.711,-0.044 -2.59,0.743 -3,2 -2.325,-7.009 -0.34,-18.327 -1,-27 -2.27,1.063 -0.381,6.286 -1,9 -3.2,-1.467 -0.656,-8.678 -3,-11 l -1,-3.875 -1,3.875 c -2.27,1.063 -0.381,6.286 -1,9 -2.22,-1.137 -2.119,-13.196 -2,-20 -2.169,-0.168 -0.453,3.547 -1,5 l -2.5,0.5 -2.5,-0.5 c -0.547,-1.453 1.169,-5.169 -1,-5 l -1.25,-2.5 -2.75,0.5 c 0,-2 0,-4 0,-6 -2.313,3.688 -0.349,11.651 -1,17 -3.5,-6.5 -2.623,-17.377 -3,-27 -0.81,0.19 -0.997,1.003 -2,1 l -3.55,-2.8 -2.45,3.8 c -2.246,0.42 -0.027,5.306 -2,6 0.238,15.4 -2.763,-4.166 0,-8 -3.969,-1.343 -1.051,-10.383 -4,-15 l -0.5,-1.5 -1.5,0.5 c -0.19,-1.135 -1.003,-0.555 -1,0 l -3,-0.25 -2,2.25 c -2.169,0.169 -0.453,-3.547 -1,-5 -0.851,-0.184 -0.943,0.391 -1,1 h -2.5 l -1.5,2 c -2.27,-1.063 -0.381,-6.286 -1,-9 -4.127,5.183 -5.045,14.527 -2,22 -6.748,0.543 -4.145,-10.527 -4,-19 -5.367,0.3 -1.197,10.136 -4,13 -4.416,-1.584 -0.85,-11.15 -2,-16 -1.018,0.649 -1.034,2.3 -3,2 0.963,-6.754 -0.167,-9.45 1,-16 -3.677,2.99 -3.464,9.869 -6,14 -0.993,-5.871 -2.787,-15.609 -1,-21 2.28,1.387 0.373,6.961 1,10 3.195,-0.979 -0.369,-8.146 2,-12 -1.87,-1.158 -3.311,1.179 -2,-4 -2.638,2.029 -4.847,4.487 -4,10 -3.999,-1.667 -1.135,-10.198 -2,-15 -2.371,2.962 -3.68,6.987 -4,12 -2.275,-3.138 -0.298,-2.472 -4,-1 -0.434,-7.566 -4.51,-11.49 -4,-20 -2.907,1.427 1.528,10.195 -4,9 -1.289,-6.378 -1.929,-13.405 -3,-20 -2.739,2.595 -2.482,8.185 -4,12 -3.632,-3.393 -2.843,-9.064 -1,-14 3.145,-8.424 -0.355,4.609 1,5 0.531,0.152 3.09,-11.629 2,-16 -5.066,1.935 -1.438,12.563 -7,14 -2.499,-6.193 -6.171,-14.185 -3,-23 -1.733,6.001 -7.513,8.422 -8,13 -4.214,-10.207 -0.557,-23.651 -1,-36 -2.251,0.395 0.15,6.238 -3,3 0.029,8.611 0.854,12.044 0,20 -7.256,-5.556 -4.535,-23.644 -5,-33 -4.602,6.985 0.178,20.875 0,30 -5.154,-5.809 -3.648,-15.5 -6,-23 -0.251,-0.8 -4.177,-2.611 -2,-5 -2.425,4.306 -4.745,14.608 -1,19 -1.794,0.127 -2.109,-1.225 -4,-1 -0.794,-8.461 2.205,-13.128 2,-21 -1.357,0.31 -0.83,2.504 -1,4 -1.49,-6.53 -1.59,-23.29 4,-30 -6.628,2.047 -5.896,20.098 -12,26 -0.237,-6.531 -2.091,-12.982 0,-19 2.3,2.366 0.358,8.976 1,13 2.06,-10.675 3.702,-26.873 5,-35 -2.352,1.981 -1.704,6.963 -3,10 -2.632,-7.081 -0.429,-12.858 -1,-22 -2.152,0.848 -3.537,2.463 -3,6 -2.041,2.939 0.411,-12.31 -4,-7 -1.104,-6.203 -1.186,-17.117 -1,-23 -1.172,0.161 -0.843,1.823 -1,3 -2.858,-5.169 -4.429,-10.359 -2,-16 -2.312,4.009 -2.069,-0.389 -2,-4 -1.608,4.393 -1.376,10.624 -2,16 -3.669,-14.922 -4.361,-25.587 -7,-44 l -4.5,0.25 -2.5,3.75 c -0.973,0.027 -0.776,1.225 -1,2 -2.073,-4.26 -0.394,-12.273 -2,-17 -3.057,6.413 1.289,14.027 0,22 -2.533,-1.134 -2.901,-4.432 -3,-8 -1.875,6.067 -1.376,12.975 -1,19 -4.408,-5.305 -1.101,-12.186 -5,-18 -2.481,7.829 3.816,15.506 3,25 -4.026,-2.599 -2.801,1.279 -9,1 -7.008,-10.992 -11.84,-24.16 -14,-40 -1.638,10.979 4.54,22.788 6,34 -3.598,-4.738 -6.645,-6.952 -10,-10 -2.231,0.147 1.298,2.52 0,5 -4.989,-0.678 -2.182,-9.151 -7,-10 3.016,-6.243 -2.835,-9.863 -2,-17 -1.641,-0.164 -1.641,6.164 0,6 -0.977,3.313 -1.977,-1.117 -3,-1 -2.127,4.49 3.317,9.993 3,16 -3.146,-1.146 -2.43,1.57 -4,2 -5.778,-5.555 -6.109,-16.558 -9,-25 -2.078,6.43 2.955,14.365 4,21 -6.531,-4.163 -4.513,-13.423 -10,-20 -1.979,5.335 3.877,11.438 2,20 -6.692,-5.642 -9.6,-15.066 -11,-26 -2.697,9.705 2.38,16.892 4,27 -3.136,-4.864 -5.063,-10.938 -7,-17 -2.476,5.508 4.61,15.358 3,20 -4.062,-5.622 -4.382,-9.393 -10,-15 0.308,5.359 4.458,6.876 4,13 -5.183,-7.483 -8.241,-17.092 -12,-26 -0.54,7.725 1.366,17.104 4,26 -2.815,-5.518 -6.786,-9.881 -9,-16 -1.656,-0.2 -1.086,7.475 -2,2 -1.274,0.227 -1.311,2.984 0,3 0.715,2.716 -4.715,-0.716 -4,2 -1.673,-2.327 -2.612,-5.388 -3,-9 -3.259,1.645 1.829,5.426 -1,7 -5.901,0.901 -5.761,-4.239 -8,-7 -2.969,5.156 4.192,10.543 1,15 -3.966,-1.7 -2.064,-9.269 -7,-10 1.185,7.18 -0.915,10.384 0,19 -3.936,1.602 -0.348,-4.318 -3,-4 -3,1.71 -1.111,3.64 -1,7 -3.059,-0.607 -2.542,-4.791 -5,-6 -3.569,0.848 -0.12,2.463 -1,6 -3.334,-2.666 -5.862,-6.138 -6,-12 -5.169,-0.131 -1.615,3.862 -3,7 -0.142,0.322 -1.67,-2.226 -1,-3 -4.073,4.708 4.615,9.169 2,19 -2.007,0.34 -3.129,-0.204 -3,-2 -1.159,3.841 -3.832,6.168 -3,12 -3.222,-3.723 -2.402,-2.887 -4,-7 -1.241,4.593 -5.91,-0.102 -6,6 -2.86,-0.14 -1.829,-4.171 -2,-7 -3.418,6.722 1.574,12.09 0,18 -2.961,-2.039 -2.632,-7.368 -5,-10 -1.947,4.174 2.175,4.59 1,11 -1.464,-0.869 -3.169,-1.497 -3,-4 -1.749,2.698 -3.389,11.908 0,11 -2.334,7.671 -6.882,-2.171 -5,-8 -2.673,6.361 -0.099,16.083 0,23 -2.939,-3.571 -7.289,2.664 -5,7 -1.486,-1.181 -4.468,-0.865 -4,-4 -2.884,2.95 1.404,7.213 0,12 -2.348,-0.318 -2.238,-3.095 -4,-4 -0.882,0.908 -0.173,2.951 -1,6 -1.701,0.368 -1.887,-0.78 -2,-2 -3.641,0.956 0.299,7.224 0,11 -4.203,-1.997 -8.639,-1.48 -10,-8 -1.557,4.11 -4.902,6.432 -4,13 -2.039,2.009 -1.961,-0.442 -4,-1 0.034,4.367 -0.868,7.798 -2,11 -2.638,0.305 -2.579,-2.088 -3,-4 -2.92,1.41 2.745,6.513 -3,6 0.225,-3.558 -0.674,-5.992 -3,-7 -2.805,1.599 1.404,4.501 0,8 -1.172,-0.161 -0.843,-1.823 -1,-3 -2.883,3.929 1.212,9.42 1,14 -2.383,-2.599 -4.408,-2.578 -7,-3 -1.633,-1.617 0.893,-4.183 0,-8 -2.251,0.395 0.15,6.238 -3,3 0.45,6.217 4.802,8.531 5,15 -2.655,-0.345 -3.375,-2.625 -4,-5 -3.427,3.494 1.703,6.914 2,10 -3.851,-0.149 -5.754,-2.246 -7,-5 -3.149,6.97 -0.503,-1.268 -4,6 -0.172,0.357 -1.416,-1.532 -1,-2 -3.099,4.62 -1.341,8.752 -2,15 -7.898,-0.103 -6.282,-9.719 -9,-15 -2.531,5.556 2.264,12.384 5,16 -0.903,3.347 -2.237,0.873 -4,0 -0.003,3.336 3.253,3.414 3,7 -2.729,0.729 -2.013,-1.987 -4,-2 0.105,2.562 0.566,4.768 2,6 -1.233,3.038 -3.439,-1.084 -6,0 -0.972,4.096 2.475,6.406 0,9 -3.297,-0.036 -3.823,-2.844 -4,-6 -2.295,2.038 -0.362,8.305 -1,12 -3.297,-0.036 -3.823,-2.844 -4,-6 -2.365,1.492 -2.133,9.137 -6,6 -1.305,3.253 1.817,12.784 -4,14 -0.523,-6.523 0.617,-11.384 2,-16 -2.881,4.119 -4.871,9.13 -5,16 -1.23,-0.437 -2.054,-1.279 -2,-3 -2.246,0.42 -0.027,5.306 -2,6 -1.357,-0.31 -0.83,-2.504 -1,-4 -3.552,3.114 -2.78,10.553 -5,15 -3.008,1.008 -1.772,-2.228 -2,-4 -1.403,3.834 -2.732,9.979 -1,14 -7.695,-0.247 -3.158,-11.192 -5,-15 -2.313,3.687 -0.349,11.651 -1,17 -1.615,0.282 -1.722,-0.945 -3,-1 -0.515,5.818 1.125,13.791 -1,18 -2.168,0.169 -0.453,-3.547 -1,-5 -1.486,0.848 -1.447,3.22 -2,5 -2.182,0.182 -3.182,-0.818 -3,-3 -2.477,1.583 -0.408,6.996 0,9 -4.069,-0.143 -6.142,6.089 -8,11 -4.284,-1.771 1.557,-10.146 -3,-13 -2.771,5.795 0.087,14.561 0,21 -3.702,0.702 -1.725,-4.275 -4,-5 -2.963,1.703 -0.988,8.346 -3,11 -3.566,0.232 -1.024,-5.643 -5,-5 -3.706,2.627 -0.9,11.766 -4,15 -4.953,-1.577 0.862,-8.02 -1,-13 -3.807,4.526 -2.997,13.67 -6,19 -1.889,-0.111 -0.694,-3.306 -3,-3 -2.825,3.217 0.218,9.072 0,13 -3.832,-0.418 -4.383,-0.141 -7,-3 -2.303,2.421 1.019,4.857 1,8 -3.736,1.069 -2.85,-2.483 -6,-2 -3.299,4.067 -1.139,10.945 4,12 -1.453,4.423 -5.316,0.249 -7,-1 0.968,7.204 -4.639,9.537 -1,14 -3.726,1.059 -3.228,-2.105 -5,-3 -3.364,2.158 1.313,4.592 1,7 -2.333,-0.334 -4.309,-1.025 -5,-3 -6.4,4.934 -2.831,19.836 -9,25 1.053,-4.72 -1.717,-5.616 -4,-7 -2.228,1.021 1.308,4.598 0,8 -3.21,0.877 -2.073,-2.594 -4,-3 -4.722,8.944 -12.864,14.469 -13,28 -1.615,0.282 -1.722,-0.945 -3,-1 -5.111,8.536 -8.092,23.476 -8,34 -1.615,0.282 -1.722,-0.945 -3,-1 -15.013,18.32 -25.725,40.941 -40,60 -2.833,0.167 -4.167,1.833 -7,2 -9.449,10.461 -10.097,21.655 -32,23 -26.251,1.612 -76.33,17.002 -98,3 -16.68,5.099 -36.25,-0.257 -47,3 0.08,-5.773 -12.206,-1.021 -13,-9 -4.184,1.15 -4.895,5.771 -9,7 -2.932,-6.535 3.205,-11.931 8,-14 -11.931,-3.81 -20.963,-0.48 -28,5 -2.571,-12.255 11.424,-13.943 15,-25 -5.019,-5.21 -18.901,0.192 -22,0 -0.828,-10.254 16.802,-10.463 19,-21 12.119,-7.285 29.23,-4.72 47,-5 2.658,0.676 5.092,1.574 7,3 11.61,-8.648 29.966,-2.868 43,-4 27.279,-2.37 38.341,-26.954 58,-37 -1.151,-1.182 -1.132,-3.535 -1,-6 4.551,-0.783 4.396,-6.27 8,-8 -4.93,-3.065 1.455,-7.271 5,-8 -0.248,-1.086 -1.988,-0.678 -2,-2 5.501,-5.499 9.922,-12.078 15,-18 -0.429,-1.904 -2.154,-2.513 -2,-5 3.776,-6.654 11.023,-14.846 9,-24 7.755,-14.578 11.093,-33.574 20,-47 -1.604,-10.395 2.402,-16.969 7,-26 -3.845,-9.122 -2.924,-19.525 3,-27 -0.437,-1.23 -1.28,-2.054 -3,-2 5.403,-5.598 7.946,-14.054 9,-24 -5.707,-18.382 14.786,-37.575 9,-56 0.545,-8.121 5.354,-11.979 6,-20 -0.19,-1.135 -1.003,-0.556 -1,0 -2.324,-10.666 2.211,-23.115 5,-32 -5.257,-11.441 8.05,-25.751 1,-33 0.246,-3.087 1.014,-5.652 2,-8 -3.081,-0.748 -1.219,3.447 -5,2 1.246,-5.144 -0.905,-7.516 2,-11 -5.063,-2.772 -7.469,-10.676 -5,-18 -3.389,1.277 -3,6.334 -5,9 -5.658,-4.003 2.59,-10.491 2,-16 -2.638,2.029 -4.496,4.837 -4,10 -7.8,-3.896 0.976,-14.512 0,-19 -2.729,1.938 -4.221,5.112 -5,9 -2.092,-0.327 -3.049,-5.765 -3,0 -3.371,-1.698 -2.9,-1.031 -6,-3 1.241,-7.572 -2.265,-12.838 -1,-23 -3.387,7.859 1.458,18.571 -4,25 -4.309,-0.924 -1.517,-3.153 -3,-6 -0.934,0.732 -1.515,1.818 -2,3 -2.923,-2.702 -1.935,-2.806 -6,-1 0,-1.667 0,-3.333 0,-5 -2.624,-0.342 -6.327,6.349 -6,0 -2.646,2.688 -4.191,6.476 -9,7 -0.162,-1.172 -1.823,-0.844 -3,-1 0.134,-4.532 2.097,-7.236 3,-11 -5.921,1.962 -1.902,7.741 -5,12 -3.36,1.026 -1.557,-3.11 -2,-5 -0.89,0.615 -1.789,1.209 -2,0 -2.924,1.076 -1.076,6.924 -4,8 -2.599,0.599 -3.599,-0.401 -3,-3 -2.501,2.832 -3.969,6.698 -5,11 -2.356,0.022 -2.944,-1.723 -6,-1 -1.572,-4.678 0.829,-3.322 1,-8 -2.013,1.337 -3.27,6.437 -6,4 0,1.667 0,3.333 0,5 -2.863,-1.407 -5.458,3.104 -5,-1 -4.36,2.64 -6.469,7.531 -8,13 -5.756,-1.046 -7.6,4.142 -10,9 -1.172,-0.161 -0.843,-1.823 -1,-3 -1.873,2.794 -1.894,7.439 -4,10 -2.88,-2.533 -1.735,-1.034 -5,0 -2.18,-2.091 0.5,-2.854 0,-6 -5.089,2.91 -1.07,14.93 -7,17 0,-2 0,-4 0,-6 -3.258,1.408 -2.256,7.077 -5,9 -2.208,-0.125 -0.425,-4.242 -1,-6 -3.981,9.019 -8.761,17.239 -15,24 0.27,-5.396 4.318,-7.016 3,-14 -2.05,1.95 -1.286,6.714 -3,9 -1.701,0.368 -1.887,-0.78 -2,-2 -3.471,10.195 -10.966,16.367 -14,27 -4.896,-2.772 1.666,-8.147 1,-13 -3.159,-1.271 -5.833,7.749 -4,12 -3.338,-1.004 -3.279,1.388 -3,4 -2.039,2.009 -1.961,-0.442 -4,-1 0.132,2.465 0.151,4.818 -1,6 -2.134,0.467 -1.905,-1.429 -2,-3 -3.462,3.205 -0.451,12.883 -6,14 0,-1.667 0,-3.333 0,-5 -7.582,0.419 -3.879,12.12 -9,15 -0.502,-6.168 2.771,-8.563 2,-15 -2.954,2.713 -3,8.334 -4,13 -2.767,0.17 -3.433,-1.536 -2,-3 -4.482,0.969 -4.264,5.703 -5,8 -1.615,0.282 -1.722,-0.945 -3,-1 -3.404,11.596 -13.771,16.229 -16,29 -2.217,0.551 -1.424,-1.909 -3,-2 -13.099,16.234 -8.375,50.291 -16,72 -2.284,2.383 -5.896,3.438 -9,5 4.42,12.832 5.158,28.707 -4,37 11.549,6.68 15.694,29.171 10,45 14.724,8.83 22.495,30.583 10,46 0.141,4.525 4.1,5.233 4,10 -2.488,0.109 -3.096,1.874 -5,0 -0.75,3.417 4.063,1.271 3,5 -2.593,2.475 -4.904,-0.973 -9,0 1.767,2.233 5.411,2.589 8,4 -17.053,5.546 -36.545,-15.461 -49,-24 -12.226,-8.383 -20.365,-9.158 -24,-26 -2.665,-12.349 -13.951,-24.868 -17,-37 -2.289,-9.104 0.797,-15.808 2,-24 3.732,-25.425 7.23,-51.798 9,-78 4.533,-12.891 1.161,-27.52 10,-36 -3.67,-7.086 5.414,-16.712 8,-24 1.411,-10.2 0.188,-19.496 4,-30 -0.247,-1.086 -1.988,-0.678 -2,-2 2.894,-8.777 3.986,-19.888 7,-28 -1.852,-3.058 -1.498,4.407 -5,3 2.66,-9.34 9.644,-14.356 14,-22 -0.15,-1.85 -3.386,-0.613 -4,-2 2.539,-7.128 7.967,-11.366 11,-18 -3.33,-2.285 -3.733,6.899 -8,7 4.605,-11.728 8.176,-24.49 17,-32 0.715,-2.716 -4.715,0.716 -4,-2 1.825,-7.175 7.84,-10.16 12,-15 -4.515,-3.44 0.45,-7.119 1,-13 -1.913,-2.655 -4.246,6.308 -7,3 5.139,-9.194 10.329,-18.338 15,-28 -3.356,-1.486 -3.988,7.454 -5,2 -3.314,1.686 -1.576,8.424 -7,8 -0.275,-4.275 2.903,-5.098 5,-7 -0.272,-2.062 -4.428,-0.238 -4,-3 -3.447,0.553 -2.43,5.569 -7,5 8.703,-17.011 8.413,-25.143 19,-38 -0.914,-2.719 -1.859,2.664 -5,1 -0.869,-3.869 2.442,-3.558 3,-6 -2.149,-2.083 -4.105,4.512 -6,6 l -1.5,-0.5 -1.5,0.5 c -5.864,-1.289 -2.903,9.057 -10,9 -2.183,-2.477 0.703,-5.947 3,-7 -5.13,-3.612 1.765,-8.513 2,-13 -4.563,0.104 -2.083,7.25 -7,7 1.038,-7.715 6.467,-14.828 4,-21 3.703,-1.444 4.69,-2.649 6,-8 -3.87,3.326 -8.806,9.254 -16,12 2.802,-4.198 5.823,-8.178 11,-10 -2.62,-4.183 -3.442,0.843 -7,1 -0.127,-1.794 1.224,-2.109 1,-4 -1.23,1.117 -2.054,0.871 -2,-1 -1.986,2.16 -3.251,3.707 -5,8 -4.934,-5.484 4.172,-12.764 9,-15 -0.775,-3.628 -6.445,3.348 -6,-2 -1.774,2.083 -4.659,6.611 -8,4 4.907,-3.094 7.858,-8.142 9,-15 -1.717,-0.875 -3.811,5.446 -9,2 1.382,-2.951 4.618,-4.049 6,-7 -4.561,-1.719 -3.16,1.479 -6,0 -2.693,-2.678 1.273,-3.802 2,-6 -0.437,-1.484 -1.28,0.395 -3,0 1.775,-8.892 9.579,-11.754 13,-19 -4.585,-0.234 -6.539,10.781 -14,11 -2.866,-3.596 1.399,-6.744 4,-8 -2.373,-0.641 -4.06,-0.958 -7,-3 3.46,-5.634 4.229,-8.883 9,-14 -2.116,-3.322 -2.904,3.001 -6,2 -0.519,-9.31 5.517,-14.851 11,-22 -4.787,-1.099 -7.336,8.648 -14,9 1.608,-5.681 9,-7.631 9,-12 1.532,3.531 7.116,-0.809 9,-3 -0.86,-0.807 -0.594,-2.739 -2,-3 l 0.5,-2.5 -2.5,0.5 c 0,-0.333 0,-0.667 0,-1 -3.865,0.71 -9.264,2.695 -15,4 0.236,-5.431 7.11,-4.223 10,-7 -0.91,-2.736 -3.504,1.775 -5,-1 -0.34,-2.007 0.205,-3.129 2,-3 -59.184,2.513 -72.414,-46.247 -77,-95 10.432,2.234 15.577,9.756 22,16 11.835,-7.935 25.155,-24.705 18,-45 -5.725,-26.003 8.027,-52.01 -1,-71 -2.155,-4.534 -17.761,-23.069 -24,-28 -3.104,-2.454 -7.301,-3.012 -10,-5 -6.943,-5.114 -11.071,-13.699 -23,-14 -7.554,6.012 -0.243,21.537 -13,23 C 33.367,350.966 34.399,328.267 28,313 13.223,299.777 8.824,276.176 1,256 c -0.627,-3.04 1.28,-8.613 -1,-10 0,-1.667 0,-3.333 0,-5 10.88,-22.12 28.54,-37.46 54,-45 13.069,-11.114 21.241,-26.241 34,-39 5.668,-5.668 14.601,-13.911 16,-20 2.717,-11.824 -0.476,-29.329 -3,-41 -4.972,-22.991 -13.763,-42.115 -9,-68 1.374,-7.464 5.507,-14.439 10,-21 6.667,-0.789 12.579,-1.014 9,-7 z"
   id="path7"
   style="fill-rule:evenodd" />
            
            <g
   id="g9">
                
                <path
   d="M 864.362,48.396 C 871.928,52.01 879.46,44.552 887,43"
   id="path11"
   style="fill:none;stroke:#000000;stroke-width:2.06010008;stroke-linecap:round" />
                
                <path
   d="M 877.5,51.5 C 885.423,48.625 892.04,44.332 900,42"
   id="path13"
   style="fill:none;stroke:#000000;stroke-width:1.9296;stroke-linecap:round" />
                
                <path
   d="m 932,53 c 7.397,-0.575 16.58,-6.918 23.163,-1.698 -6.131,6.233 -16.847,3.655 -24.607,7.365"
   id="path15"
   style="fill:none;stroke:#000000;stroke-width:4.26859999;stroke-linecap:round" />
                
                <path
   d="m 982.5,63.7 c 8.289,-3.816 17.667,-2.353 26.25,-4.95"
   id="path17"
   style="fill:none;stroke:#000000;stroke-width:6.45349979;stroke-linecap:round" />
                
                <path
   d="m 998.25,68 c 13.015,-4.249 26.27,-3.815 39.25,-6.5"
   id="path19"
   style="fill:none;stroke:#000000;stroke-width:3.05830002;stroke-linecap:round" />
                
                <path
   d="m 1044.5,66.5 c -12.034,1.066 -24.351,1.945 -36,5"
   id="path21"
   style="fill:none;stroke:#000000;stroke-width:3.45959997;stroke-linecap:round" />
                
                <path
   d="m 1134.5,100.5 c -8.236,0.417 -18.612,4.33 -25.5,-1.5"
   id="path23"
   style="fill:none;stroke:#000000;stroke-width:3.8210001;stroke-linecap:round" />
                
                <path
   d="m 1122.75,109 c 14.545,1.53 29.398,-0.517 43.75,2"
   id="path25"
   style="fill:none;stroke:#000000;stroke-width:4.55319977;stroke-linecap:round" />
                
                <path
   d="m 1171.5,117 c -13.372,-0.076 -26.731,-1.472 -40,0.5"
   id="path27"
   style="fill:none;stroke:#000000;stroke-width:5.41779995;stroke-linecap:round" />
                
                <path
   d="m 1185.5,129 c 13.748,3.166 28.288,1.297 42,4"
   id="path29"
   style="fill:none;stroke:#000000;stroke-width:3.21580005;stroke-linecap:round" />
                
                <path
   d="m 1217.5,138.5 c -11.51,-1.332 -23.26,-1.177 -35,-2.143"
   id="path31"
   style="fill:none;stroke:#000000;stroke-width:6.00960016;stroke-linecap:round" />
                
                <path
   d="m 1367.5,255.875 c 11.681,3.529 21.371,12.083 33.5,14.125"
   id="path33"
   style="fill:none;stroke:#000000;stroke-width:4.27839994;stroke-linecap:round" />
                
                <path
   d="m 1650.5,1379.5 c 5.898,-8.472 7.854,-18.844 12.6,-27.8"
   id="path35"
   style="fill:none;stroke:#000000;stroke-width:5.39580011;stroke-linecap:round" />
                
                <path
   d="m 1634.5,1382.5 c 3.621,-7.114 4.543,-15.323 8.875,-22.063"
   id="path37"
   style="fill:none;stroke:#000000;stroke-width:7.26760006;stroke-linecap:round" />
                
                <path
   d="m 1562.5,1388.5 c 2.229,-7.328 9.74,-12.19 11,-20"
   id="path39"
   style="fill:none;stroke:#000000;stroke-width:3.25279999;stroke-linecap:round" />
                
                <path
   d="m 1529.929,1262.214 c 3.614,-7.735 6.87,-15.541 14.571,-20.714"
   id="path41"
   style="fill:none;stroke:#000000;stroke-width:3.05660009;stroke-linecap:round" />
                
                <path
   d="m 1535,1077 c 5.143,-9.238 11.991,-17.231 19.5,-24.5"
   id="path43"
   style="fill:none;stroke:#000000;stroke-width:2.63709998;stroke-linecap:round" />
                
                <path
   d="m 1455.5,851.5 c 2.015,12.468 -4.366,25.225 -5.5,37"
   id="path45"
   style="fill:none;stroke:#000000;stroke-width:3.65070009;stroke-linecap:round" />
                
                <path
   d="m 1445,857.5 c -0.16,-8.626 0.797,-17.354 2.342,-26.053"
   id="path47"
   style="fill:none;stroke:#000000;stroke-width:5.32369995;stroke-linecap:round" />
                
                <path
   d="m 1361,803 c -0.838,-9.751 -3.463,-20.078 -1.5,-29.5"
   id="path49"
   style="fill:none;stroke:#000000;stroke-width:4.19619989;stroke-linecap:round" />
                
                <path
   d="m 1293.5,800.5 c -3.265,-11.045 -7.893,-21.691 -10.5,-33"
   id="path51"
   style="fill:none;stroke:#000000;stroke-width:3.55609989;stroke-linecap:round" />
                
                <path
   d="m 1248.5,817 c 2.221,0.174 4.592,0.006 6.678,0.799 2.922,5.551 6.118,11.022 7.922,17.102"
   id="path53"
   style="fill:none;stroke:#000000;stroke-width:2.76060009;stroke-linecap:round" />
                
                <path
   d="m 1260,860 c -2.913,-10.869 -11.449,-18.091 -16.5,-28.5"
   id="path55"
   style="fill:none;stroke:#000000;stroke-width:3.23259997;stroke-linecap:round" />
                
                <path
   d="m 1249.5,870.5 c -3.916,-9.343 -5.216,-19.813 -11.692,-28.154"
   id="path57"
   style="fill:none;stroke:#000000;stroke-width:4.50150013;stroke-linecap:round" />
                
                <path
   d="m 1233.5,855.5 c 5.127,4.956 9.168,11.465 12,18"
   id="path59"
   style="fill:none;stroke:#000000;stroke-width:3.82209992;stroke-linecap:round" />
                
                <path
   d="m 1231.5,866.5 c 7.703,2.371 7.225,13.228 13,18"
   id="path61"
   style="fill:none;stroke:#000000;stroke-width:1.99319994;stroke-linecap:round" />
                
                <path
   d="m 1237.357,900.714 c -3.32,-7.471 -8.228,-14.397 -10.357,-22.464"
   id="path63"
   style="fill:none;stroke:#000000;stroke-width:3.14470005;stroke-linecap:round" />
                
                <path
   d="m 1245.5,933.5 c -5.849,-8.484 -12.592,-16.764 -16.667,-26.667"
   id="path65"
   style="fill:none;stroke:#000000;stroke-width:3.72340012;stroke-linecap:round" />
                
                <path
   d="m 1234.5,1015.5 c -4.032,-8.342 -10.642,-15.831 -13.223,-25"
   id="path67"
   style="fill:none;stroke:#000000;stroke-width:4.9861002;stroke-linecap:round" />
                
                <path
   d="m 1244,1135 c -5.257,-4.481 -13.922,-9.537 -12.5,-17.5"
   id="path69"
   style="fill:none;stroke:#000000;stroke-width:3.1960001;stroke-linecap:round" />
                
                <path
   d="m 1012,1092 c -1.872,-6.688 -0.647,-13.935 -1,-20.875"
   id="path71"
   style="fill:none;stroke:#000000;stroke-width:1.97119999;stroke-linecap:round" />
                
                <path
   d="m 1007,1095 c -1.314,-8.407 -0.889,-17.637 -3.5,-25.5"
   id="path73"
   style="fill:none;stroke:#000000;stroke-width:2.30170012;stroke-linecap:round" />
                
                <path
   d="m 1003.5,1069.5 c -2.86,6.99 -0.912,15.478 -1,23"
   id="path75"
   style="fill:none;stroke:#000000;stroke-width:1.99440002;stroke-linecap:round" />
                
                <path
   d="m 997.833,1093.5 c 0.151,-10.629 -0.756,-21.481 0.917,-32"
   id="path77"
   style="fill:none;stroke:#000000;stroke-width:3.82540011;stroke-linecap:round" />
                
                <path
   d="m 990.071,1085.214 c -0.203,-13.681 -3.55,-26.877 -3.621,-41.014"
   id="path79"
   style="fill:none;stroke:#000000;stroke-width:6.15010023;stroke-linecap:round" />
                
                <path
   d="m 978,1060 c -1.846,-9.558 -1.087,-20.554 -0.5,-30.5"
   id="path81"
   style="fill:none;stroke:#000000;stroke-width:2.12750006;stroke-linecap:round" />
                
                <path
   d="m 971.5,1049.5 c 2.926,-5.972 1.338,-13.363 0.5,-19.75"
   id="path83"
   style="fill:none;stroke:#000000;stroke-width:4.40250015;stroke-linecap:round" />
                
                <path
   d="m 965.5,1051.5 c -3.109,-7.866 0.644,-15.658 0,-23.5"
   id="path85"
   style="fill:none;stroke:#000000;stroke-width:2.82419991;stroke-linecap:round" />
                
                <path
   d="m 849.5,825.5 c -2.046,-11.328 0.17,-23.752 -5,-34.25"
   id="path87"
   style="fill:none;stroke:#000000;stroke-width:3.96090007;stroke-linecap:round" />
                
                <path
   d="m 165,740.5 c 2.818,-6.559 7.13,-12.266 9.5,-19"
   id="path89"
   style="fill:none;stroke:#000000;stroke-width:2.49239993;stroke-linecap:round" />
                
                <path
   d="m 142,604 c 5.845,-3.88 11.519,-8.508 17.5,-12.5"
   id="path91"
   style="fill:none;stroke:#000000;stroke-width:2.4058001;stroke-linecap:round" />
                
            </g>
            
        </g>
        
    </g>
    
</svg>