<?xml version="1.0" encoding="UTF-8" standalone="no"?>
<!-- Created with Inkscape (http://www.inkscape.org/) -->

<svg
   xmlns:svg="http://www.w3.org/2000/svg"
   xmlns="http://www.w3.org/2000/svg"
   version="1.1"
   width="1024"
   height="709"
   viewBox="0 0 1024 709"
   id="Layer_1"
   xml:space="preserve"><defs
   id="defs103" />
    
    <g
   id="g3">
        
        <g
   id="g5">
            
            <path
   d="m 1.239,11 c 0,-0.4 0,-0.6 0,-1 0.1,-3.5 0.399,-6.9 1,-10 -2.3,1.7 -3,5 -2.101,10 0,0.4 0.101,0.6 0.101,1 0.3,0 0.6,0 1,0 z"
   id="path7"
   style="fill:#cccccc" />
            
            <path
   d="m 0.239,172 c 0,59.6 0,119.4 0,179 0,59.6 0,119.3 0,179 0,59.7 0,119.4 0,179 57.6,0 115.399,0 173,0 59.6,0 119.399,0 179,0 59.6,0 119.399,0 179,0 59.6,0 119.399,0 179,0 0,-0.3 0,-0.7 0,-1 -3.9,-0.4 -7.101,-1.6 -9.301,-3.8 -0.1,-0.101 -0.3,-0.2 -0.699,-0.2 -3,0 -6,0 -9,0 -0.4,0 -0.601,0 -1,0 -1.601,1 -3.9,1.4 -7,1 -0.4,0 -0.601,0 -1,0 -4.4,0 -8.601,0 -13,0 -0.4,0 -0.601,0 -1,0 -9.7,-1.3 -17.7,-2.6 -24,-3.9 -0.4,-0.1 -0.601,-0.1 -1,-0.1 -2.101,1.2 -5.101,1.3 -8.9,0.5 0,0 -0.1,-0.2 -0.1,-0.5 -4.601,-2.1 -10.601,-2.8 -18,-2.1 -0.4,0.1 -0.601,0.1 -1,0.1 -6.4,-4.7 -12.801,-9.2 -19.101,-13.8 -0.3,-0.101 -0.5,-0.2 -0.899,-0.2 -3.4,0 -6.601,-0.1 -9.9,-0.5 -0.1,0 -0.1,-0.1 -0.1,-0.5 -10.601,-2.4 -19.9,-6.1 -27.8,-11.4 -0.101,-0.1 -0.2,-0.199 -0.2,-0.6 -2.601,0 -5.4,0 -8,0 -0.4,0 -0.601,0 -1,0 -17.601,-8.6 -37.601,-13.4 -60,-14 -0.4,0 -0.601,0 -1,0 -3,0 -6,0 -9,0 -0.4,0 -0.601,0 -1,0 -4.3,-1 -9.3,-1.4 -15,-1 -0.4,0 -0.601,0 -1,0 -5,0 -10,0 -15,0 -0.4,0 -0.601,0 -1,0 -17.5,-1.3 -34.8,-0.9 -52,1 -0.4,0 -0.601,0 -1,0 -2.5,-1.1 -4.601,-2.8 -6.3,-4.8 -0.2,-0.101 -0.301,-0.2 -0.7,-0.2 -2.601,0 -5.4,0 -8,0 -0.4,0 -0.601,0 -1,0 -4.5,0.9 -8.601,0.6 -12,-0.8 -0.4,-0.2 -0.601,-0.2 -1,-0.2 -7,0 -14,0 -21,0 -0.4,0 -0.601,0 -1,0 -2.601,-0.7 -5.601,-1 -9,-1 -0.4,0 -0.601,0 -1,0 -4,0 -8,0 -12,0 -0.4,0 -0.601,0 -1,0 -5.601,1 -11,2.3 -16,3.9 -0.4,0.1 -0.601,0.1 -1,0.1 -2.101,1.1 -5.101,1.4 -8.9,0.5 -0.1,0 -0.1,-0.1 -0.1,-0.5 -16.7,-0.6 -27.5,-7.3 -32.5,-19.8 0,-0.2 -0.101,-0.2 -0.5,-0.2 -7.301,-1.4 -12.7,-4.7 -16.4,-9.8 -0.1,-0.101 -0.2,-0.2 -0.6,-0.2 -2.4,-6.3 -3.9,-13.3 -4.5,-21 h 0.5 c 3.1,-6.2 8.5,-10.2 16,-11.9 0.399,-0.1 0.6,-0.1 1,-0.1 2.3,-1.1 2.5,-2.7 0.7,-4.8 -0.2,-0.101 -0.301,-0.2 -0.7,-0.2 -6.4,-7.3 -14.5,-12.3 -24.5,-15.1 -1,-0.2 -1.5,0.8 -1.5,3.1 0,2.7 -0.101,5.3 -0.5,7.9 0,0.1 -0.101,0.1 -0.5,0.1 -2,5.7 -5,10.4 -8.8,14.2 -0.101,0.2 -0.2,0.5 -0.2,0.8 0,4 -0.101,8 -0.5,12 0,0 -0.101,0 -0.5,0 -0.801,3.2 -1.7,6.2 -2.9,9 -0.1,0.3 -0.1,0.7 -0.1,1 -13.601,10.3 -29.5,18.2 -47.4,23.7 -8.6,2.5 -16,2.899 -22.1,1 -2.4,-0.8 -4.9,-1 -7.5,-0.7 -5,-3 -10.601,-5.5 -16.9,-7.5 -0.1,0 -0.1,-0.2 -0.1,-0.5 -8,0 -15,-1 -21,-2.8 -0.4,-0.2 -0.601,-0.2 -1,-0.2 -2.601,0 -5.301,-0.2 -8,-0.5 0,0 0,-0.2 0,-0.5 -1.9,-0.5 -3.2,-1.5 -4.101,-3 -5.7,-9.5 -6,-19.5 -0.899,-30 0.399,0 0.6,-0.1 0.899,-0.2 7.8,-4.1 15.8,-8.1 24.101,-11.8 0.399,0 0.6,0 1,-0.1 3.699,-0.5 8,-0.5 13,0.1 0,-0.3 0.1,-0.6 0.2,-0.7 4.199,-3.2 6.399,-8.3 6.8,-15.3 0,-0.3 0,-0.7 0,-1 0,-6 0,-12 0,-18 0,-0.3 0,-0.7 0,-1 0,-1.3 0,-2.7 0,-4 -1.7,-5.7 -2.7,-11.9 -3,-19 0,-0.3 0,-0.7 0,-1 -1.101,-2.2 -1.5,-5.2 -1,-9 0,-0.3 0,-0.7 0,-1 0,-0.3 0,-0.7 0,-1 0,-1.7 0,-3.3 0,-5 -2.2,-3.8 -3.9,-8.2 -4.9,-13 -0.1,-0.3 -0.1,-0.7 -0.1,-1 -0.601,-6.3 -1.601,-12.6 -3,-18.8 0,-0.101 -0.3,-0.4 -0.8,-0.601 -0.2,0 -0.2,-0.3 -0.2,-0.6 -2.4,-5.7 -4,-11.9 -5,-19 0,-0.3 0,-0.7 0,-1 -10.5,-4.3 -16.801,-12.6 -18.9,-25 -0.1,-0.4 -0.1,-0.6 -0.1,-1 -2.301,-1.4 -4,-3.4 -5.4,-5.8 -0.1,-0.101 -0.2,-0.2 -0.6,-0.2 -0.601,-1.6 -1,-3.6 -1,-6 0,-0.4 0,-0.6 0,-1 -5.2,-4.8 -9.601,-10.4 -13.4,-16.8 -0.1,-0.101 -0.2,-0.2 -0.6,-0.2 0.399,-6.1 -1.601,-9.9 -5.9,-11.4 -0.1,-0.1 -0.1,-0.199 -0.1,-0.6 -1.101,-2.1 -1.5,-5.1 -1,-9 0,-0.4 0,-0.6 0,-1 0,-0.4 0,-0.6 0,-1 0,-1.4 0,-2.6 0,-4 -4,-10.1 -7.301,-20.7 -9.9,-32.1 -0.1,-0.301 -0.1,-0.5 -0.1,-0.9 -1.101,-2.5 -1.5,-5.9 -1,-10 0,-0.4 0,-0.6 0,-1 0,-0.4 0,-0.6 0,-1 0,-1 0,-2 0,-3 -3.601,-11.8 -6,-24.8 -7.101,-39 -0.399,-5.2 -1.399,-9.9 -2.899,-14 -1.101,-2.1 -1.5,-5.1 -1,-9 0,-0.4 0,-0.6 0,-1 0,-0.4 0,-0.6 0,-1 0.399,-4.6 0.6,-9.4 1,-14 -1.2,-12.8 -3.4,-24.8 -6.5,-35.9 0,0 -0.101,-0.1 -0.5,-0.1 -9,-7.6 -15.801,-17.4 -20.2,-29.3 -0.601,-1.5 -0.8,-3.1 -0.8,-4.7 0,-0.4 0,-0.6 0,-1 0,-2.6 0,-5.4 0,-8 0,-0.4 0,-0.6 0,-1 0,-0.4 0,-0.6 0,-1 -14.4,-25 -15.4,-50.6 -3.2,-77.1 0.1,-0.3 0.2,-0.5 0.2,-0.9 -2.601,-8.1 -5.2,-16.1 -7.9,-24 -0.1,-0.4 -0.1,-0.6 -0.1,-1 -1.2,-2.5 -1.5,-5.9 -1.101,-10 0.101,-0.4 0.101,-0.6 0.101,-1 0,-0.4 0,-0.6 0,-1 0,-0.4 0,-0.6 0,-1 -1.5,-0.2 -2.2,-1.2 -2.101,-3 0.101,-0.4 0.101,-0.6 0.101,-1 -1.2,-1.5 -1.5,-3.9 -1.101,-7 0.101,-0.4 0.101,-0.6 0.101,-1 0,-0.4 0,-0.6 0.199,-0.9 1.2,-2 1.801,-4.7 1.801,-8.1 -1.7,-5.6 -3,-11.6 -4,-18 0,-0.4 0,-0.6 0,-1 -0.4,0 -0.7,0 -1,0 0,53.601 0,107.401 0,161.001 z"
   id="path9"
   style="fill:#fefefe" />
            
            <path
   d="m 1.239,12 c 1,6.4 2.3,12.4 4,18 0,3.4 -0.601,6.1 -1.801,8.1 -0.199,0.3 -0.199,0.5 -0.199,0.9 0.3,0 0.6,0 1,0 0,2.4 0,4.6 0,7 0,0.4 0,0.6 0,1 0,0.4 0,0.6 -0.101,1 -0.1,1.8 0.601,2.8 2.101,3 0,0.4 0,0.6 0,1 0,0.4 0,0.6 0,1 0.3,0 0.6,0 1,0 0,3.4 0,6.6 0,10 0,0.4 0,0.6 0,1 0,0.4 0,0.6 0.1,1 2.7,7.9 5.3,15.9 7.9,24 0,0.4 -0.101,0.6 -0.2,0.9 -12.2,26.5 -11.2,52.1 3.2,77.1 0,0.4 0,0.6 0,1 0,0.4 0,0.6 0,1 0.3,0 0.6,0 1,0 -0.101,3 -0.2,6 -0.5,9 0,0 -0.2,0 -0.5,0 0,1.6 0.199,3.2 0.8,4.7 4.399,11.9 11.2,21.7 20.2,29.3 0.399,0 0.5,0.1 0.5,0.1 3.1,11.1 5.3,23.1 6.5,35.9 -0.4,4.6 -0.601,9.4 -1,14 0,0.4 0,0.6 0,1 0.399,0 0.6,0 1,0 0,3 0,6 0,9 0,0.4 0,0.6 0,1 1.5,4.1 2.5,8.8 2.899,14 1.101,14.2 3.5,27.2 7.101,39 0,1 0,2 0,3 0,0.4 0,0.6 0,1 0.399,0 0.6,0 1,0 0,3.4 0,6.6 0,10 0,0.4 0,0.6 0,1 0,0.4 0,0.6 0.1,0.9 2.6,11.399 5.9,22 9.9,32.1 0,1.4 0,2.6 0,4 0,0.4 0,0.6 0,1 0.399,0 0.6,0 1,0 0,3 0,6 0,9 0,0.4 0,0.6 0,1 0,0.4 0,0.5 0.1,0.6 4.3,1.5 6.3,5.301 5.9,11.4 0.399,0 0.5,0.1 0.6,0.2 3.8,6.399 8.2,12 13.4,16.8 0,0.4 0,0.6 0,1 0,2.4 0.399,4.4 1,6 0.399,0 0.5,0.1 0.6,0.2 1.4,2.399 3.1,4.399 5.4,5.8 0,0.4 0,0.6 0.1,1 2.1,12.4 8.4,20.7 18.9,25 0,0.3 0,0.7 0,1 1,7.1 2.6,13.3 5,19 0.399,0 0.6,0 1,0 1,0 2,0 3,0 0,6.3 0,12.7 0,19 0,0.3 0,0.7 0,1 0,0.3 0,0.7 0.1,1 1,4.8 2.7,9.2 4.9,13 0,1.7 0,3.3 0,5 0,0.3 0,0.7 0,1 0.399,0 0.6,0 1,0 0,3 0,6 0,9 0,0.3 0,0.7 0,1 0,0.3 0,0.7 0,1 0.3,7.1 1.3,13.3 3,19 0,1.3 0,2.7 0,4 0,0.3 0,0.7 0,1 0.399,0 0.6,0 1,0 0,6.3 -0.101,12.7 -0.5,18.9 0,0.1 -0.101,0.1 -0.5,0.1 -0.4,7 -2.601,12.1 -6.8,15.3 -0.101,0.101 -0.2,0.4 -0.2,0.7 -5,-0.6 -9.301,-0.6 -13,-0.1 -0.4,0.1 -0.601,0.1 -1,0.1 -8.301,3.7 -16.301,7.7 -24.101,11.8 -0.3,0.101 -0.5,0.2 -0.899,0.2 -5.101,10.5 -4.801,20.5 0.899,30 0.9,1.5 2.2,2.5 4.101,3 0.399,0 0.6,0 1,0 2.399,0 4.699,0 7,0 0,0.3 0,0.7 0,1 0.399,0 0.6,0 1,0.2 6,1.8 13,2.8 21,2.8 0,0.3 0,0.5 0.1,0.5 6.3,2 11.9,4.5 16.9,7.5 2.6,-0.3 5.1,-0.1 7.5,0.7 6.1,1.899 13.5,1.5 22.1,-1 17.9,-5.5 33.8,-13.4 47.4,-23.7 0,-0.3 0,-0.7 0.1,-1 1.2,-2.8 2.101,-5.8 2.9,-9 0,-0.3 0,-0.7 0,-1 -0.5,-4.5 -0.101,-8.2 1,-11 0,-0.3 0.1,-0.6 0.2,-0.8 3.8,-3.8 6.8,-8.5 8.8,-14.2 0,-0.3 0,-0.7 0,-1 -0.5,-3.2 -0.101,-5.5 1,-7 0,-2.3 0.5,-3.3 1.5,-3.1 10,2.8 18.1,7.8 24.5,15.1 0.399,0 0.5,0.1 0.7,0.2 1.8,2.1 1.6,3.7 -0.7,4.8 -0.4,0 -0.601,0 -1,0.1 -7.5,1.7 -12.9,5.7 -16,11.9 h -0.5 c 0.6,7.7 2.1,14.7 4.5,21 0.399,0 0.5,0.1 0.6,0.2 3.7,5.1 9.101,8.399 16.4,9.8 0.399,0 0.5,0 0.5,0.2 5,12.5 15.8,19.2 32.5,19.8 0.399,0 0.6,0 1,0 2.6,0 5.399,0 8,0 0.399,0 0.6,0 1,-0.1 5,-1.601 10.399,-2.9 16,-3.9 0,-0.4 0,-0.5 0,-0.5 4.399,-0.4 8.6,-0.5 13,-0.5 0,0.4 0,0.6 0,1 0.399,0 0.6,0 1,0 3.399,0 6.399,0.3 9,1 v -0.5 c 7.399,-0.4 14.6,-0.5 22,-0.5 0,0.4 0,0.6 0,1 0.399,0 0.6,0 1,0.2 3.399,1.399 7.5,1.7 12,0.8 0,-0.4 0,-0.5 0,-0.5 3,-0.4 6,-0.5 9,-0.5 0,0.4 0,0.6 0,1 0.399,0 0.5,0.1 0.7,0.2 1.699,2 3.8,3.7 6.3,4.8 0.399,0 0.6,0 1,0 17.2,-1.9 34.5,-2.3 52,-1 0,-0.4 0,-0.5 0,-0.5 5.399,-0.4 10.6,-0.5 16,-0.5 0,0.4 0,0.6 0,1 0.399,0 0.6,0 1,0 5.7,-0.4 10.7,0 15,1 0,-0.4 0,-0.5 0,-0.5 3.399,-0.4 6.6,-0.5 10,-0.5 0,0.4 0,0.6 0,1 0.399,0 0.6,0 1,0 22.399,0.6 42.399,5.4 60,14 0.399,0 0.6,0 1,0 2.6,0 5.399,0 8,0 0,0.4 0.1,0.5 0.199,0.6 7.9,5.301 17.2,9 27.801,11.4 0.399,0 0.6,0 1,0 3,0 6,0 9,0 0,0.4 0,0.6 0,1 0.399,0 0.6,0.1 0.899,0.2 6.3,4.6 12.7,9.1 19.101,13.8 0.399,0 0.6,0 1,-0.1 7.399,-0.7 13.399,0 17.999,2.1 0.4,0 0.601,0 1,0 2.601,0 5.4,0 8,0 0.4,0 0.601,0 1,0.1 6.301,1.301 14.301,2.601 24,3.9 0,-0.3 0,-0.5 0.101,-0.5 4.6,-0.3 9.3,-0.5 13.899,-0.5 0,0.3 0,0.7 0,1 0.4,0 0.601,0 1,0 3.101,0.4 5.4,0 7,-1 0,-0.3 0,-0.5 0.101,-0.5 3.3,-0.3 6.5,-0.5 9.899,-0.5 0,0.3 0,0.7 0,1 0.4,0 0.601,0.1 0.7,0.2 2.2,2.2 5.4,3.399 9.3,3.8 0,0.3 0,0.7 0,1 0.4,0 0.601,0 1,0 0.601,0 1.4,0 2,0 0,-0.3 0,-0.5 0.101,-0.5 3.899,-0.3 7.899,-0.5 11.899,-0.5 0.4,0 0.601,0 1,0 3,0 6,0 9,0 0,-0.4 0.101,-0.5 0.101,-0.5 4.5,-0.9 9,-1.4 13.899,-1.5 0,-0.4 0,-0.5 0.101,-0.5 2.6,-0.4 5.3,-0.5 7.899,-0.5 0.4,0 0.601,0 0.9,-0.2 4.7,-2.899 10.4,-4.899 17.1,-5.8 0,-0.4 0,-0.5 0.101,-0.5 2.899,-0.4 5.899,-0.5 8.899,-0.5 0,0.3 0,0.6 0,1 0.301,0 0.7,0 1,0.1 3.7,0.4 7.7,0.4 12,-0.1 0,-0.4 0,-0.5 0.101,-0.5 2.6,-0.4 5.2,-0.5 7.899,-0.5 0.301,0 0.7,0 1,-0.1 6.7,-0.601 12.301,-2.301 17,-4.9 0.301,0 0.7,0.1 1,0.1 20.2,4 36.601,2 49,-6.1 0.301,0 0.7,0.1 0.9,0.1 4.5,1.2 9.2,2.101 14.1,2.9 0.301,0 0.7,0 1,0 2.7,0 5.301,0 8,0 1,-1.6 2,-3.2 3,-4.6 0.7,-0.9 0.9,-1.301 1,-1.4 5.101,-4.9 14.4,-7.3 28,-7 0,-0.4 0,-0.5 0,-0.5 5,-0.6 8,-3.1 9,-7.5 0.301,0 0.7,0 1,0 9,-0.4 16.301,-2.4 22,-6 0,-0.4 0,-0.5 0,-0.5 3,-0.4 6,-0.5 9,-0.5 0.4,0 0.601,0 0.9,-0.2 8.1,-5.1 15.8,-10.7 23.1,-16.8 0.4,0 0.601,0 1,0 3.4,0.4 6.101,0 8,-1 0,-0.3 0.101,-0.5 0.2,-0.7 4.5,-3.2 8.4,-7 11.8,-11.3 0,-0.3 0.101,-0.7 0.2,-1 3,-10.3 5.5,-22.7 7.8,-37 -6.3,-5.6 -7.3,-12 -3.199,-19.1 0.199,-0.2 0.199,-0.601 0.199,-0.9 0,-0.299 0,-0.7 0,-1 0,-2.7 0,-5.3 0,-8 0,-0.3 0,-0.7 0,-1 0,-0.3 0,-0.7 0,-1 -3,-1.7 -3.899,-5.2 -2.8,-10.4 0,-0.3 -0.2,-1 -0.899,-2.3 -3.9,-8.2 -8.601,-15.7 -14.101,-22.5 -6.5,-8 -13.8,-11 -22.2,-8.8 -3,0 -6,-0.2 -9,-0.5 0,0 0,-0.2 0,-0.5 -1.5,-0.6 -2.5,-1.5 -3.399,-2.8 -0.101,-0.101 -0.2,-0.2 -0.601,-0.2 -3.6,0 -7.3,0 -11,0 -0.3,0 -0.699,0 -1,0 -2.3,4.7 -7.699,6.3 -16,5.1 -0.3,-0.1 -0.699,-0.1 -1,-0.1 -4,5.3 -10,8.7 -18,9.9 -0.3,0.1 -0.699,0.1 -1,0.1 -17.8,20.2 -39.3,36.8 -64.6,49.9 -8.3,4.3 -18.5,7 -30.4,8.1 -2.3,0 -4.699,0 -7,0 -0.3,0 -0.699,0 -1,0 -7.399,-0.5 -12.8,1.2 -16.3,4.7 -0.1,0.2 -0.399,0.3 -0.7,0.3 -7.5,-1.7 -14.199,-2.6 -20,-3 -0.3,0 -0.699,0 -1,0 -3.199,1.2 -7.199,1.5 -12,1 -0.399,0 -0.6,0 -1,0 -12.399,5.2 -26.199,6.3 -41.3,3.7 -4.5,-0.8 -8.699,-0.8 -12.8,0.1 -0.6,0.101 -1.3,0.2 -1.899,0.2 -4.101,1.2 -9.101,1.5 -15,1 -0.4,0 -0.601,0 -1,0 -4.101,0.7 -7.601,1.7 -10.801,3.4 -0.1,0 -0.199,0.3 -0.199,0.6 -6.4,-1.7 -12.801,-2 -19,-1.1 -0.4,0.1 -0.601,0.1 -1,0.1 -1.9,1.2 -4.601,1.5 -8,1 -0.4,0 -0.601,0 -1,0 -0.4,0 -0.601,0 -1,0 -0.4,0 -0.601,0 -1,0 -3.9,1.2 -8.5,1.5 -14,1 -0.4,0 -0.601,0 -1,0 -3,0 -6,0 -9,0 -0.4,0 -0.601,0 -1,0 -4.101,-2.6 -9.101,-4.2 -15,-5 -0.4,0 -0.601,0 -1,0 -0.8,-1.6 -2.101,-2.7 -3.8,-3.4 -0.101,-0.1 -0.2,-0.3 -0.2,-0.6 -5.7,-0.7 -10.601,-2.1 -14.8,-4.4 -0.101,-0.1 -0.2,-0.3 -0.2,-0.6 -1.301,-3.7 -0.801,-7.3 1.399,-10.8 0,-0.101 0.2,-0.2 0.601,-0.2 -0.601,-4.1 -0.9,-8.4 -1,-13 0,-0.3 0,-0.7 0,-1 -6.4,-14.3 -11.301,-30.6 -14.601,-48.7 -3.199,-16.6 -7,-33.1 -11.399,-49.3 -1.101,-1.8 -1.5,-4.5 -1.101,-8 0.101,-0.3 0.101,-0.7 0.101,-1 0,-0.3 0,-0.7 0,-1 -8.3,-20.1 -18.2,-38.4 -29.8,-55.1 -0.101,-0.301 -0.2,-0.5 -0.2,-0.9 -1.3,-7.5 -4.5,-14.6 -9.8,-21.4 -5,-6.199 -9.301,-13.199 -13.2,-20.6 -2.601,-1.4 -4.9,-3.1 -6.8,-5.2 -0.101,-0.2 -0.2,-0.399 -0.2,-0.8 -1.101,-7.2 -3.8,-12.9 -8,-16.9 -1.8,-1.699 -2.8,-4 -3,-7.1 -1.101,-1.5 -1.5,-3.9 -1,-7 0,-0.4 0,-0.6 0,-1 -6.8,-8.2 -15.101,-14.8 -25.101,-19.8 -0.3,-0.1 -0.5,-0.2 -0.899,-0.2 -11,-14.8 -25.5,-25.9 -43.8,-33.4 -0.2,-0.1 -0.2,-0.2 -0.2,-0.6 -9.101,-2.9 -18.5,-5.5 -28,-7.9 -0.4,0 -0.601,-0.1 -1,-0.1 -0.8,-1.6 -2,-2.6 -3.8,-3.4 -0.2,0 -0.2,-0.2 -0.2,-0.6 -7,-0.9 -12.601,-3.4 -16.8,-7.3 -0.101,-0.1 -0.2,-0.3 -0.2,-0.7 -11.101,1.1 -19.2,-0.8 -24.3,-5.8 -0.101,-0.1 -0.301,-0.2 -0.7,-0.2 -3.8,-0.1 -7.101,0.1 -10,0.5 V 238 c -2.601,-1.4 -5.4,-2.6 -8.101,-3.8 -0.3,-0.1 -0.5,-0.2 -0.899,-0.2 -1.4,-2.3 -3,-4.4 -4.8,-6.3 -0.101,-0.1 -0.2,-0.3 -0.2,-0.7 -13.3,-8.8 -24.8,-19.1 -34.8,-31.2 -0.101,-0.2 -0.2,-0.4 -0.2,-0.8 -7.601,-0.4 -13.601,-2.3 -18,-5.6 -5.2,-4.1 -10.601,-7.9 -16.101,-11.7 -8.899,-5.8 -18.899,-10.7 -29.899,-14.7 -8.5,1.9 -14.101,0.9 -16.9,-2.9 -0.7,-1.1 -1.1,-2.5 -1.1,-4.1 0,-1.4 0,-2.6 0,-4 0,-0.4 0,-0.6 0,-1 0,-5 0,-10 0,-15 0,-0.4 0,-0.6 -0.101,-1 -1.199,-3.8 -2.199,-7.8 -2.899,-12 -0.5,-1.4 -0.601,-2.3 -0.5,-2.6 5.7,-13.6 8.5,-29.8 8.5,-48.4 0,-0.4 0,-0.6 0,-1 -0.5,-3.1 -0.101,-5.5 1,-7 0,-0.4 0,-0.6 0,-1 0,-3.4 0,-6.6 0,-10 -2.601,-3.7 -4.9,-7.8 -6.8,-12.1 -0.2,-0.3 -0.2,-0.5 -0.2,-0.9 -4.5,-2.5 -9,-5 -13.101,-7.8 -0.3,-0.1 -0.5,-0.2 -0.899,-0.2 -17.4,2 -31.8,6.4 -43.3,13.3 l -1,-1 c -0.7,-0.7 -1.601,-1.1 -2.7,-1.3 -6.601,0 -13.4,-0.1 -20,-0.5 V 42 c -12,-2.4 -24.601,-4 -38,-5 -0.4,0 -0.601,0 -1,0 -2,-1.6 -4.7,-2.8 -7.9,-3.5 -0.1,0 -0.1,-0.1 -0.1,-0.5 -6.301,-0.3 -11.301,0.7 -15.101,2.8 -0.3,0.2 -0.5,0.2 -0.899,0.2 C 45.239,30.6 31.739,21.9 21.438,9.8 21.338,9.6 21.239,9.4 21.239,9 17.138,7.4 13.539,5.3 10.438,2.7 10.338,2.5 10.239,2.4 10.239,2 c -1.9,-0.8 -4.2,-1.3 -7,-1.5 0,0 0,-0.1 0,-0.5 -0.4,0 -0.7,0 -1,0 -0.601,3.1 -0.9,6.5 -1,10 0,0.4 0,0.6 0,1 0,0.4 0,0.6 0,1 z"
   id="path11" />
            
            <path
   d="m 21.239,9 c 0,0.4 0.1,0.6 0.199,0.8 10.301,12.1 23.801,20.8 40.801,26.2 0.399,0 0.6,0 0.899,-0.2 3.8,-2.1 8.8,-3.1 15.101,-2.8 0,0.4 0,0.5 0.1,0.5 3.2,0.7 5.9,1.9 7.9,3.5 0.399,0 0.6,0 1,0 13.399,1 26,2.6 38,5 0.399,0 0.6,0 1,0 6.399,0 12.6,0 19,0 0,0.4 0,0.6 0,1 1.1,0.2 2,0.6 2.7,1.3 l 1,1 c 11.5,-6.9 25.899,-11.3 43.3,-13.3 0.399,0 0.6,0.1 0.899,0.2 4.101,2.8 8.601,5.3 13.101,7.8 0,0.4 0,0.6 0.2,0.9 1.899,4.3 4.199,8.4 6.8,12.1 0,3.4 0,6.6 0,10 0,0.4 0,0.6 0,1 0,2.6 -0.101,5.3 -0.5,8 0,0 -0.101,0 -0.5,0 0,18.6 -2.8,34.8 -8.5,48.4 -0.101,0.3 0,1.2 0.5,2.6 0.7,4.2 1.7,8.2 2.899,12 0.101,0.4 0.101,0.6 0.101,1 0.399,0 0.6,0 1,0 0,5.4 -0.101,10.6 -0.5,16 0,0 -0.101,0 -0.5,0 0,1.4 0,2.6 0,4 0,1.6 0.399,3 1.1,4.1 2.8,3.8 8.4,4.8 16.9,2.9 11,4 21,8.9 29.899,14.7 5.5,3.8 10.9,7.6 16.101,11.7 4.399,3.3 10.399,5.2 18,5.6 0,0.4 0.1,0.6 0.2,0.8 10,12.1 21.5,22.4 34.8,31.2 0,0.4 0.1,0.6 0.2,0.7 1.8,1.9 3.399,4 4.8,6.3 0.399,0 0.6,0.1 0.899,0.2 2.7,1.2 5.5,2.4 8.101,3.8 v 0.5 c 2.899,-0.4 6.2,-0.6 10,-0.5 0.399,0 0.6,0.1 0.7,0.2 5.1,5 13.199,6.9 24.3,5.8 0,0.4 0.1,0.6 0.2,0.7 4.199,3.9 9.8,6.4 16.8,7.3 0,0.4 0,0.6 0.2,0.6 1.8,0.8 3,1.8 3.8,3.4 0.399,0 0.6,0.1 1,0.1 9.5,2.4 18.899,5 28,7.9 0,0.4 0,0.5 0.2,0.6 18.3,7.5 32.8,18.6 43.8,33.4 0.399,0 0.6,0.1 0.899,0.2 10,5 18.301,11.6 25.101,19.8 0.399,0 0.6,0 1,0 0,2.4 0,4.6 0,7 0,0.4 0,0.6 0,1 0.2,3.1 1.2,5.4 3,7.1 4.2,4 6.899,9.7 8,16.9 0,0.4 0.1,0.6 0.2,0.8 1.899,2.101 4.199,3.8 6.8,5.2 3.899,7.4 8.2,14.4 13.2,20.6 5.3,6.801 8.5,13.9 9.8,21.4 0,0.4 0.1,0.6 0.2,0.9 11.6,16.699 21.5,35 29.8,55.1 0,0.3 0,0.7 0,1 0.399,0 0.6,0 1,0 0,2.7 0,5.3 0,8 0,0.3 0,0.7 0,1 4.399,16.2 8.2,32.7 11.399,49.3 3.301,18.101 8.2,34.4 14.601,48.7 0,0.3 0,0.7 0,1 0.1,4.6 0.399,8.9 1,13 -0.4,0 -0.601,0.1 -0.601,0.2 -2.199,3.5 -2.699,7.1 -1.399,10.8 0,0.3 0.1,0.5 0.2,0.6 4.199,2.301 9.1,3.7 14.8,4.4 0,0.3 0.1,0.5 0.2,0.6 1.699,0.7 3,1.801 3.8,3.4 0.399,0 0.6,0 1,0 5.899,0.8 10.899,2.4 15,5 0.399,0 0.6,0 1,0 3,0 6,0 9,0 0,-0.3 0,-0.5 0.1,-0.5 4.9,-0.3 9.9,-0.5 14.9,-0.5 0.399,0 0.6,0 1,0 0.399,0 0.6,0 1,0 0,-0.3 0,-0.5 0.1,-0.5 2.9,-0.3 5.9,-0.5 8.9,-0.5 0.399,0 0.6,0 1,-0.1 6.199,-0.9 12.6,-0.601 19,1.1 0,-0.3 0.1,-0.6 0.199,-0.6 3.2,-1.7 6.7,-2.7 10.801,-3.4 0,-0.3 0,-0.5 0.1,-0.5 5.3,-0.3 10.5,-0.5 15.9,-0.5 0.6,0 1.3,-0.1 1.899,-0.2 4.101,-0.899 8.3,-0.899 12.8,-0.1 15.101,2.6 28.9,1.5 41.301,-3.7 0,-0.3 0,-0.5 0.1,-0.5 4.2,-0.3 8.6,-0.5 12.9,-0.5 0.3,0 0.699,0 1,0 5.8,0.4 12.5,1.3 20,3 0.3,0 0.6,-0.1 0.699,-0.3 3.5,-3.5 8.9,-5.2 16.301,-4.7 0,-0.3 0,-0.5 0.1,-0.5 2.6,-0.3 5.2,-0.5 7.9,-0.5 0,0.3 0,0.7 0,1 11.899,-1.1 22.1,-3.8 30.399,-8.1 25.3,-13.101 46.8,-29.7 64.601,-49.9 0.3,0 0.699,0 1,-0.1 8,-1.2 14,-4.601 18,-9.9 0.3,0 0.699,0 1,0.1 8.3,1.2 13.699,-0.399 16,-5.1 0,-0.3 0,-0.5 0,-0.5 4,-0.3 8,-0.5 12,-0.5 0,0.3 0,0.7 0,1 0.399,0 0.5,0.1 0.6,0.2 0.9,1.3 1.9,2.2 3.4,2.8 0.399,0 0.6,0 1,0 2.6,0 5.399,0 8,0 0,0.3 0,0.7 0,1 8.399,-2.2 15.699,0.8 22.199,8.8 5.5,6.8 10.2,14.3 14.101,22.5 0.7,1.3 0.899,2 0.899,2.3 -1.1,5.2 -0.199,8.7 2.801,10.4 0,0.3 0,0.7 0,1 0,0.3 0,0.7 0,1 0.399,0 0.6,0 1,0 0,3 -0.101,6 -0.5,8.9 0,0.1 -0.101,0.1 -0.5,0.1 0,0.3 0,0.7 -0.2,0.9 -4.101,7.1 -3.101,13.5 3.2,19.1 0.3,0 0.699,0 1,0 0,-19 0,-38 0,-57 0,-59.7 0,-119.4 0,-179 0,-59.6 0,-119.4 0,-179 0,-59.6 0,-119.4 0,-179 -59.601,0 -119.301,0 -179,0 -59.7,0 -119.4,0 -179,0 -59.601,0 -119.4,0 -179,0 -59.601,0 -119.4,0 -179,0 -59.601,0 -119.4,0 -179,0 -42,0 -84,0 -126,0 0,0.4 0,0.5 0,0.5 2.8,0.2 5.1,0.7 7,1.5 0,0.4 0.1,0.5 0.199,0.7 3.101,2.6 6.701,4.7 10.801,6.3 z"
   id="path13"
   style="fill:#fefefe" />
            
            <path
   d="m 4.239,46 c 0,-2.4 0,-4.6 0,-7 -0.4,0 -0.7,0 -1,0 0,0.4 0,0.6 -0.101,1 -0.399,3.1 -0.1,5.5 1.101,7 0,-0.4 0,-0.6 0,-1 z"
   id="path15"
   style="fill:#858585" />
            
            <path
   d="m 6.139,54 c -0.399,4.1 -0.1,7.5 1.101,10 0,-0.4 0,-0.6 0,-1 0,-3.4 0,-6.6 0,-10 -0.4,0 -0.7,0 -1,0 -0.001,0.4 -0.001,0.6 -0.101,1 z"
   id="path17"
   style="fill:#b5b5b5" />
            
            <path
   d="m 18.239,177 c 0,0.4 0,0.6 0,1 0.3,0 0.5,0 0.5,0 0.3,-3 0.399,-6 0.5,-9 -0.4,0 -0.7,0 -1,0 0,2.6 0,5.4 0,8 z"
   id="path19"
   style="fill:#575757" />
            
            <path
   d="m 45.239,263 c 0,0.4 0,0.6 0,1 -0.5,3.9 -0.101,6.9 1,9 0,-0.4 0,-0.6 0,-1 0,-3 0,-6 0,-9 -0.4,0 -0.6,0 -1,0 z"
   id="path21"
   style="fill:#999999" />
            
            <path
   d="m 145.239,43 c 0,-0.4 0,-0.6 0,-1 -6.4,0 -12.601,0 -19,0 -0.4,0 -0.601,0 -1,0 v 0.5 c 6.6,0.4 13.4,0.5 20,0.5 z"
   id="path23"
   style="fill:#838383" />
            
            <path
   d="m 212.739,72 c 0.399,-2.7 0.5,-5.4 0.5,-8 -1.101,1.5 -1.5,3.9 -1,7 0,0.4 0,0.6 0,1 0.4,0 0.5,0 0.5,0 z"
   id="path25"
   style="fill:#787878" />
            
            <path
   d="m 207.239,151 c 0,0.4 0,0.6 0,1 0.399,0 0.5,0 0.5,0 0.399,-5.4 0.5,-10.6 0.5,-16 -0.4,0 -0.601,0 -1,0 0,5 0,10 0,15 z"
   id="path27"
   style="fill:#8c8c8c" />
            
            <path
   d="m 56.239,331 c -0.5,4.1 -0.101,7.5 1,10 0,-0.4 0,-0.6 0,-1 0,-3.4 0,-6.6 0,-10 -0.4,0 -0.601,0 -1,0 0,0.4 0,0.6 0,1 z"
   id="path29"
   style="fill:#7d7d7d" />
            
            <path
   d="m 67.239,380 c -0.5,3.9 -0.101,6.9 1,9 0,-0.4 0,-0.6 0,-1 0,-3 0,-6 0,-9 -0.4,0 -0.601,0 -1,0 0,0.4 0,0.6 0,1 z"
   id="path31"
   style="fill:#b1b1b1" />
            
            <path
   d="m 119.439,477.6 c 0.5,0.2 0.8,0.5 0.8,0.601 1.399,6.2 2.399,12.5 3,18.8 0,-0.3 0,-0.7 0,-1 0,-6.3 0,-12.7 0,-19 -1,0 -2,0 -3,0 -0.4,0 -0.601,0 -1,0 0,0.299 0,0.599 0.2,0.599 z"
   id="path33"
   style="fill:#939393" />
            
            <path
   d="m 128.239,518 c -0.5,3.8 -0.101,6.8 1,9 0,-0.3 0,-0.7 0,-1 0,-3 0,-6 0,-9 -0.4,0 -0.601,0 -1,0 0,0.3 0,0.7 0,1 z"
   id="path35"
   style="fill:#717171" />
            
            <path
   d="m 132.239,570 c 0,0.3 0,0.7 0,1 0.399,0 0.5,0 0.5,-0.1 0.399,-6.2 0.5,-12.601 0.5,-18.9 -0.4,0 -0.601,0 -1,0 0,6 0,12 0,18 z"
   id="path37"
   style="fill:#939393" />
            
            <path
   d="m 228.739,582.9 c 0.399,-2.601 0.5,-5.2 0.5,-7.9 -1.101,1.5 -1.5,3.8 -1,7 0,0.3 0,0.7 0,1 0.4,0 0.5,0 0.5,-0.1 z"
   id="path39"
   style="fill:#8f8f8f" />
            
            <path
   d="m 218.739,610 c 0.399,-4 0.5,-8 0.5,-12 -1.101,2.8 -1.5,6.5 -1,11 0,0.3 0,0.7 0,1 0.4,0 0.5,0 0.5,0 z"
   id="path41"
   style="fill:#b0b0b0" />
            
            <path
   d="m 292.339,655.5 c 3.8,0.9 6.8,0.6 8.9,-0.5 -2.601,0 -5.4,0 -8,0 -0.4,0 -0.601,0 -1,0 0,0.4 0,0.5 0.1,0.5 z"
   id="path43"
   style="fill:#636363" />
            
            <path
   d="m 342.239,652 c 7,0 14,0 21,0 0,-0.4 0,-0.6 0,-1 -7.4,0 -14.601,0.1 -22,0.5 v 0.5 c 0.4,0 0.6,0 1,0 z"
   id="path45"
   style="fill:#878787" />
            
            <path
   d="m 319.239,651 c 4,0 8,0 12,0 0,-0.4 0,-0.6 0,-1 -4.4,0 -8.601,0.1 -13,0.5 0,0 0,0.1 0,0.5 0.4,0 0.6,0 1,0 z"
   id="path47"
   style="fill:#959595" />
            
            <path
   d="m 99.239,633 c 0,-0.3 0,-0.7 0,-1 -2.301,0 -4.601,0 -7,0 -0.4,0 -0.601,0 -1,0 0,0.3 0,0.5 0,0.5 2.699,0.3 5.4,0.5 8,0.5 z"
   id="path49"
   style="fill:#b4b4b4" />
            
            <path
   d="m 494.239,326 c 0,-0.4 0,-0.6 0,-1 0,-2.4 0,-4.6 0,-7 -0.4,0 -0.601,0 -1,0 0,0.4 0,0.6 0,1 -0.5,3.1 -0.1,5.5 1,7 z"
   id="path51"
   style="fill:#787878" />
            
            <path
   d="m 816.339,587.5 c -0.1,0 -0.1,0.2 -0.1,0.5 0.3,0 0.699,0 1,0 2.3,0 4.699,0 7,0 0,-0.3 0,-0.7 0,-1 -2.7,0 -5.301,0.2 -7.9,0.5 z"
   id="path53"
   style="fill:#dadada" />
            
            <path
   d="m 765.239,591 c 0.399,0 0.6,0 1,0 4.8,0.5 8.8,0.2 12,-1 -4.301,0 -8.7,0.2 -12.9,0.5 -0.1,0 -0.1,0.2 -0.1,0.5 z"
   id="path55"
   style="fill:#757575" />
            
            <path
   d="m 967.239,515 c 0,-0.3 0,-0.7 0,-1 -4,0 -8,0.2 -12,0.5 0,0 0,0.2 0,0.5 0.3,0 0.699,0 1,0 3.699,0 7.4,0 11,0 z"
   id="path57"
   style="fill:#b9b9b9" />
            
            <path
   d="m 972.239,518 c -0.4,0 -0.601,0 -1,0 0,0.3 0,0.5 0,0.5 3,0.3 6,0.5 9,0.5 0,-0.3 0,-0.7 0,-1 -2.6,0 -5.4,0 -8,0 z"
   id="path59"
   style="fill:#c2c2c2" />
            
            <path
   d="m 1020.239,573 c 0,0.3 0,0.7 0,1 0.399,0 0.5,0 0.5,-0.1 0.399,-2.9 0.5,-5.9 0.5,-8.9 -0.4,0 -0.601,0 -1,0 0,2.7 0,5.3 0,8 z"
   id="path61"
   style="fill:#a2a2a2" />
            
            <path
   d="m 901.239,684 c -0.101,0.1 -0.301,0.5 -1,1.4 -1,1.399 -2,3 -3,4.6 -2.2,1.1 -5.2,1.4 -8.9,0.5 0,0 -0.1,-0.1 -0.1,-0.5 -4.9,-0.8 -9.601,-1.7 -14.101,-2.9 -0.2,0 -0.6,-0.1 -0.899,-0.1 -12.4,8.1 -28.801,10.1 -49,6.1 -0.301,0 -0.7,-0.1 -1,-0.1 -4.7,2.6 -10.301,4.3 -17,4.9 -0.301,0.1 -0.7,0.1 -1,0.1 -1.5,1.2 -3.801,1.5 -7,1.1 -0.301,-0.1 -0.7,-0.1 -1,-0.1 -4.301,0.5 -8.301,0.5 -12,0.1 -0.301,-0.1 -0.7,-0.1 -1,-0.1 -2.7,0 -5.301,0 -8,0 -0.301,0 -0.7,0 -1,0 -6.7,0.9 -12.4,2.9 -17.101,5.8 -0.3,0.2 -0.5,0.2 -0.899,0.2 -1.5,1.1 -3.9,1.5 -7,1 -0.4,0 -0.601,0 -1,0 -4.9,0.1 -9.4,0.6 -13.9,1.5 0,0 -0.1,0.1 -0.1,0.5 0,0.3 0,0.7 0,1 36.699,0 73.3,0 110,0 59.699,0 119.399,0 179,0 0,-0.3 0,-0.7 0,-1 0,-38 0,-76 0,-114 -0.301,0 -0.7,0 -1,0 -2.301,14.3 -4.801,26.7 -7.801,37 -0.1,0.3 -0.199,0.7 -0.199,1 -3.4,4.3 -7.301,8.1 -11.801,11.3 -0.1,0.2 -0.199,0.4 -0.199,0.7 -1.9,1 -4.601,1.4 -8,1 -0.4,0 -0.601,0 -1,0 -7.301,6.1 -15,11.7 -23.101,16.8 -0.3,0.2 -0.5,0.2 -0.899,0.2 -1.9,1.1 -4.5,1.5 -8,1 -0.4,0 -0.601,0 -1,0 -5.7,3.6 -13,5.6 -22,6 -0.301,0 -0.7,0 -1,0 -1,4.4 -4,6.9 -9,7.5 0,0 0,0.1 0,0.5 -13.6,-0.3 -22.9,2.1 -28,7 z"
   id="path63"
   style="fill:#fdfdfd" />
            
            <path
   d="m 888.339,690.5 c 3.7,0.9 6.7,0.6 8.9,-0.5 -2.7,0 -5.301,0 -8,0 -0.301,0 -0.7,0 -1,0 0,0.4 0.1,0.5 0.1,0.5 z"
   id="path65"
   style="fill:#848484" />
            
            <path
   d="m 962.239,663 c 3.5,0.5 6.1,0.1 8,-1 -3,0 -6,0.1 -9,0.5 0,0 0,0.1 0,0.5 0.4,0 0.6,0 1,0 z"
   id="path67"
   style="fill:#c2c2c2" />
            
            <path
   d="m 775.339,698.5 c -0.1,0 -0.1,0.1 -0.1,0.5 0.3,0 0.699,0 1,0 2.699,0 5.3,0 8,0 0,-0.4 0,-0.7 0,-1 -3,0 -6,0.1 -8.9,0.5 z"
   id="path69"
   style="fill:#575757" />
            
            <path
   d="m 798.239,699.1 c 3.199,0.4 5.5,0.101 7,-1.1 -2.7,0 -5.301,0.1 -7.9,0.5 -0.1,0 -0.1,0.1 -0.1,0.5 0.3,0 0.699,0 1,0.1 z"
   id="path71"
   style="fill:#858585" />
            
            <path
   d="m 725.239,709 c 0,-0.3 0,-0.7 0,-1 -4,0 -8,0.2 -11.9,0.5 -0.1,0 -0.1,0.2 -0.1,0.5 0.399,0 0.6,0 1,0 3.6,0 7.4,0 11,0 z"
   id="path73"
   style="fill:#8d8d8d" />
            
            <path
   d="m 726.239,708 c -0.4,0 -0.601,0 -1,0 0,0.3 0,0.7 0,1 0.399,0 0.6,0 1,0 3,0 6,0 9,0 0,-0.3 0,-0.7 0,-1 -3,0 -6,0 -9,0 z"
   id="path75"
   style="fill:#c4c4c4" />
            
            <path
   d="m 750.239,706 c 3.1,0.5 5.5,0.1 7,-1 -2.601,0 -5.301,0.1 -7.9,0.5 -0.1,0 -0.1,0.1 -0.1,0.5 0.4,0 0.6,0 1,0 z"
   id="path77"
   style="fill:#575757" />
            
            <path
   d="m 566.239,463 c 0,-2.7 0,-5.3 0,-8 -0.4,0 -0.601,0 -1,0 0,0.3 0,0.7 -0.101,1 -0.399,3.5 0,6.2 1.101,8 0,-0.3 0,-0.7 0,-1 z"
   id="path79"
   style="fill:#969696" />
            
            <path
   d="m 585.339,684.5 c 3.3,0.4 6.5,0.5 9.9,0.5 0,-0.4 0,-0.6 0,-1 -3,0 -6,0 -9,0 -0.4,0 -0.601,0 -1,0 0,0.4 0,0.5 0.1,0.5 z"
   id="path81"
   style="fill:#666666" />
            
            <path
   d="m 651.239,600 c -5,0 -10,0.2 -14.9,0.5 -0.1,0 -0.1,0.2 -0.1,0.5 0.399,0 0.6,0 1,0 5.5,0.5 10.1,0.2 14,-1 z"
   id="path83"
   style="fill:#949494" />
            
            <path
   d="m 662.239,599 c -3,0 -6,0.2 -8.9,0.5 -0.1,0 -0.1,0.2 -0.1,0.5 0.399,0 0.6,0 1,0 3.4,0.5 6.1,0.2 8,-1 z"
   id="path85"
   style="fill:#acacac" />
            
            <path
   d="m 709.239,595 c -5.4,0 -10.601,0.2 -15.9,0.5 -0.1,0 -0.1,0.2 -0.1,0.5 0.399,0 0.6,0 1,0 5.9,0.5 10.9,0.2 15,-1 z"
   id="path87"
   style="fill:#757575" />
            
            <path
   d="m 643.239,701 c -2.601,0 -5.4,0 -8,0 -0.4,0 -0.601,0 -1,0 0,0.3 0.1,0.5 0.1,0.5 3.8,0.8 6.8,0.7 8.9,-0.5 z"
   id="path89"
   style="fill:#a2a2a2" />
            
            <path
   d="m 669.239,705 c 4.399,0 8.6,0 13,0 0,-0.3 0,-0.7 0,-1 -4.601,0 -9.301,0.2 -13.9,0.5 -0.1,0 -0.1,0.2 -0.1,0.5 0.4,0 0.6,0 1,0 z"
   id="path91"
   style="fill:#989898" />
            
            <path
   d="m 691.239,704 c 3,0 6,0 9,0 0,-0.3 0,-0.7 0,-1 -3.4,0 -6.601,0.2 -9.9,0.5 -0.1,0 -0.1,0.2 -0.1,0.5 0.4,0 0.6,0 1,0 z"
   id="path93"
   style="fill:#6c6c6c" />
            
            <path
   d="m 446.239,657 c 5,0 10,0 15,0 0,-0.4 0,-0.6 0,-1 -5.4,0 -10.601,0.1 -16,0.5 0,0 0,0.1 0,0.5 0.4,0 0.6,0 1,0 z"
   id="path95"
   style="fill:#878787" />
            
            <path
   d="m 376.239,653 c 0.399,0 0.6,0 1,0 2.6,0 5.399,0 8,0 0,-0.4 0,-0.6 0,-1 -3,0 -6,0.1 -9,0.5 0,0 0,0.1 0,0.5 z"
   id="path97"
   style="fill:#848484" />
            
            <path
   d="m 478.239,658 c 3,0 6,0 9,0 0,-0.4 0,-0.6 0,-1 -3.4,0 -6.601,0.1 -10,0.5 0,0 0,0.1 0,0.5 0.4,0 0.6,0 1,0 z"
   id="path99"
   style="fill:#838383" />
            
        </g>
        
    </g>
    
</svg>