<?xml version="1.0" encoding="UTF-8" standalone="no"?>
<!-- Created with Inkscape (http://www.inkscape.org/) -->

<svg
   xmlns:svg="http://www.w3.org/2000/svg"
   xmlns="http://www.w3.org/2000/svg"
   version="1.2"
   width="550"
   height="400"
   viewBox="0 0 550 400"
   id="Layer_2"
   xml:space="preserve"><defs
   id="defs9" />
    
    <path
   d="m 44.804,117.805 c 0.167,0.095 0.595,0.214 1.286,0.357 l -4.682,-7.254 c -0.311,-2.264 1.394,-2.895 5.109,-1.894 2.858,0.761 5.562,1.953 8.111,3.573 1.478,0.739 2.609,1.537 3.396,2.394 1.882,-1.024 5.05,-1.857 9.505,-2.501 1.405,0.071 2.846,0.274 4.323,0.607 0.501,-0.024 1.013,-0.024 1.537,0 4.049,0.167 9.767,1.847 17.151,5.039 4.192,1.834 10.624,4.765 19.297,8.791 6.766,2.835 11.518,4.753 14.258,5.753 0.977,0.334 2.775,0 5.396,-1 2.622,-1 4.42,-1.572 5.396,-1.715 7.767,-3.812 14.032,-4.836 18.796,-3.073 3.025,-1.096 7.302,-1.561 12.828,-1.394 0.978,0.024 1.953,0.072 2.932,0.143 1.023,-0.381 1.906,-0.643 2.645,-0.786 1.453,-0.262 3.227,-0.644 5.324,-1.144 l 44.596,-3.538 c 3.334,0.977 8.468,1.275 15.4,0.894 2.383,-0.571 4.871,-1.108 7.469,-1.608 3.573,-0.666 6.908,-1.179 10.006,-1.536 1.93,-0.404 3.931,-0.655 6.002,-0.75 5.004,-0.262 11.841,0.167 20.512,1.286 3.74,0.834 10.161,2.454 19.261,4.86 8.076,2.144 14.103,3.621 18.081,4.431 0.954,0.166 4.646,1.405 11.078,3.716 7.527,2.692 16.771,5.979 27.729,9.862 10.935,3.883 18.379,7.242 22.334,10.077 4.192,2.93 8.576,6.348 13.149,10.255 4.789,4.098 9.088,8.993 12.899,14.687 2.162,3.25 3.74,6.032 4.734,8.344 5.158,5.747 7.737,8.85 7.737,9.309 0,0.738 0.737,1.822 2.215,3.251 1.501,1.453 2.251,2.43 2.251,2.93 0,1.406 1.752,3.562 5.253,6.468 3.526,2.883 5.289,4.538 5.289,4.967 0,0.738 -0.06,1.096 -0.179,1.072 -0.072,-0.023 -0.131,-0.119 -0.18,-0.285 l -2.857,-0.357 c 0.5,0.382 1.738,1.359 3.716,2.931 0.884,0.679 1.753,1.313 2.608,1.911 1.998,0.715 3.939,1.602 5.824,2.663 0.453,0.262 2.895,0.989 7.326,2.179 2.479,0.667 4.069,1.358 4.771,2.073 1.241,-0.007 2.213,-0.067 2.913,-0.179 l 2.037,-0.321 -0.5,0.179 2.107,-0.251 h -1.144 l 1.608,-0.25 c 0.713,-0.071 1.213,0 1.5,0.216 0.047,0.022 0.143,0.189 0.285,0.5 -0.166,0.215 -0.523,0.381 -1.072,0.5 -0.31,0.047 -0.69,0.107 -1.144,0.178 l 0.25,0.037 c 0.5,-0.168 0.869,-0.168 1.106,0 0.064,0.045 0.119,0.092 0.162,0.143 6.278,-0.439 11.598,-1.678 15.955,-3.716 1.715,-0.835 3.633,-1.954 5.754,-3.359 2.31,-1.573 3.824,-2.549 4.537,-2.93 0.047,0.095 0.168,0.346 0.357,0.75 0.096,0.215 0.214,0.321 0.357,0.321 0.31,-0.31 0.69,-1 1.144,-2.072 0.333,-0.762 0.763,-1.145 1.286,-1.145 0.548,0 1.847,-1.477 3.895,-4.431 1.703,-2.487 2.83,-4.022 3.377,-4.608 -0.047,-0.008 -0.102,-0.02 -0.16,-0.037 -0.398,-0.131 -0.244,-0.203 0.463,-0.213 0.057,0 0.117,0 0.18,0 0.43,0 0.965,-0.084 1.607,-0.252 1.025,-0.262 1.8,-0.654 2.324,-1.179 0.452,0.072 0.797,0.214 1.036,0.429 0.03,0.024 0.06,0.049 0.089,0.071 0.017,-0.049 0.034,-0.097 0.053,-0.144 0.096,0.048 0.215,0.096 0.357,0.144 0.239,-0.405 0.512,-0.678 0.822,-0.821 l 0.714,0.394 c 0.239,-0.261 0.537,-0.536 0.894,-0.822 0.271,0.181 0.414,0.371 0.43,0.572 0.361,-0.372 0.623,-0.611 0.785,-0.716 0.051,0.138 0.098,0.263 0.145,0.375 0.279,-0.157 0.564,-0.366 0.857,-0.625 0.477,-0.428 0.988,-0.583 1.537,-0.464 0,0.072 0.023,0.167 0.072,0.286 0,0.048 -0.5,0.715 -1.502,2 -0.06,0.079 -0.119,0.156 -0.179,0.232 0.207,0.263 0.493,0.615 0.858,1.054 0.143,-0.048 0.822,-0.262 2.037,-0.643 1.024,-0.31 1.715,-0.572 2.072,-0.786 0.596,0.357 0.893,0.715 0.893,1.072 l -0.178,1.07 -0.715,0.536 c 0.5,-0.071 0.93,-0.106 1.286,-0.106 0.69,0 1.036,0.369 1.036,1.107 0,1.191 -0.059,2.584 -0.178,4.182 1.095,0 2.179,0.07 3.25,0.214 1.072,0.167 1.656,0.334 1.752,0.501 0.119,0.715 0.179,1.607 0.179,2.68 0,0.334 0.202,1.227 0.606,2.68 0.43,1.479 0.644,2.37 0.644,2.682 0,0.738 -0.097,1.144 -0.286,1.215 -0.07,0.023 -0.154,-0.025 -0.25,-0.145 -1.645,0.238 -2.787,0.513 -3.431,0.822 -0.31,0.143 -0.595,0.405 -0.856,0.786 0.547,0.381 0.832,0.81 0.856,1.286 0,0.286 -0.035,0.654 -0.106,1.107 0.07,0.644 1.727,0.858 4.967,0.644 v 0.894 c -0.144,0.215 -0.597,0.488 -1.358,0.822 -0.429,0.166 -1.108,0.428 -2.037,0.785 0.119,0.12 0.417,0.346 0.894,0.68 0.453,0.357 0.75,0.702 0.894,1.036 l -0.179,0.786 c -0.215,0.215 -1.299,0.643 -3.252,1.287 -1.453,0.499 -1.738,0.845 -0.857,1.035 0.238,0.119 0.904,0.393 2.001,0.822 1.024,0.429 1.608,0.75 1.751,0.965 -0.285,0.619 -0.654,1.084 -1.107,1.394 -0.477,0.334 -2.072,1.358 -4.789,3.073 0.715,0.262 1.287,0.477 1.715,0.644 0.811,0.31 1.252,0.571 1.322,0.785 -0.143,1.358 -0.953,2.204 -2.43,2.538 -2.596,0.594 -4.288,1.119 -5.074,1.57 l 1.43,1.181 c 0.977,0.812 1.69,1.608 2.144,2.394 -0.048,0.049 -0.536,0.155 -1.465,0.322 -0.81,0.143 -1.216,0.571 -1.216,1.286 0,0.524 0.072,1.12 0.215,1.787 0.096,0.452 0.084,0.869 -0.035,1.25 -0.477,0.121 -0.941,0.251 -1.395,0.394 -0.357,0.097 -0.905,0.144 -1.644,0.144 -0.31,0 -2.024,-0.285 -5.146,-0.856 -0.885,-0.162 -1.664,-0.305 -2.34,-0.43 1.535,1.002 2.305,1.607 2.305,1.822 0,0.738 -0.215,1.084 -0.645,1.035 -0.189,-0.022 -0.393,-0.131 -0.606,-0.32 -1.288,-0.633 -2.634,-1.215 -4.038,-1.751 -0.003,0.037 -0.01,0.073 -0.018,0.106 0.414,1.039 0.599,1.705 0.553,2.002 -0.047,0.215 -0.19,0.571 -0.428,1.071 h -1.895 c -0.578,0.835 -0.9,1.49 -0.965,1.966 l -0.393,0.178 c -0.43,0.119 -1.014,0.18 -1.752,0.18 -0.516,0 -1.224,-0.119 -2.125,-0.357 0.055,0.449 0.215,0.758 0.481,0.93 0.071,0.072 -0.214,0.061 -0.856,-0.035 -0.668,0 -1.347,-0.143 -2.037,-0.43 -0.691,-0.31 -1.145,-0.465 -1.358,-0.465 l 0.536,0.536 c 0.357,0.31 0.965,0.775 1.822,1.394 0.881,0.621 1.465,1.05 1.75,1.287 l -0.356,0.535 -0.394,0.107 c -0.429,0.048 -1.013,0.07 -1.75,0.07 -0.308,0 -1.522,-0.576 -3.646,-1.731 -0.163,0.22 -0.335,0.453 -0.519,0.696 0.869,0.686 1.305,1.054 1.305,1.107 0,0.453 -0.358,0.68 -1.072,0.68 -0.176,0 -0.365,-0.042 -0.572,-0.127 -0.061,0.367 -0.203,0.517 -0.429,0.447 -0.144,-0.047 -0.286,-0.166 -0.429,-0.356 -0.047,-0.015 -0.105,-0.04 -0.18,-0.071 -0.334,0.396 -0.625,0.729 -0.875,1.001 1.018,0.856 1.905,1.69 2.662,2.501 -0.07,0.096 -0.189,0.18 -0.356,0.25 -0.357,-0.167 -1,-0.583 -1.931,-1.251 -0.455,-0.329 -0.842,-0.591 -1.16,-0.784 -0.062,0.043 -0.115,0.079 -0.162,0.105 0.689,0.574 1.094,1.003 1.216,1.286 -0.071,0.073 -0.226,0.132 -0.464,0.179 -0.168,-0.118 -0.321,-0.225 -0.465,-0.32 -0.262,-0.166 -0.465,-0.263 -0.607,-0.287 0,0.025 -0.023,0.18 -0.07,0.465 -0.096,0.287 -0.311,0.43 -0.644,0.43 -0.429,0 -0.822,-0.143 -1.179,-0.43 -0.357,-0.31 -0.56,-0.465 -0.607,-0.465 -0.177,0 -0.434,-0.07 -0.77,-0.213 -0.823,1.245 -1.295,2.068 -1.41,2.465 -0.096,0.023 -0.858,-0.107 -2.287,-0.394 -0.549,0 -1.395,-0.304 -2.537,-0.911 -0.243,0.026 -0.493,0.043 -0.75,0.055 -1.834,0.047 -3.835,-0.143 -6.003,-0.572 -0.374,0 -1.321,0.113 -2.841,0.34 0.106,0.182 0.16,0.332 0.16,0.447 0,0.189 -0.023,0.297 -0.071,0.32 -0.048,0.023 -0.144,0.049 -0.286,0.071 -0.299,-0.094 -0.746,-0.296 -1.34,-0.606 -0.449,0.057 -0.812,0.099 -1.09,0.125 0.217,0.164 0.443,0.336 0.68,0.518 1,0.787 1.5,1.227 1.5,1.322 0,0.334 -0.154,0.537 -0.464,0.607 -0.214,-0.023 -0.38,-0.119 -0.5,-0.287 -0.119,-0.166 -0.286,-0.248 -0.5,-0.248 -0.796,0 -1.95,-0.482 -3.466,-1.449 -0.186,0.125 -0.315,0.273 -0.394,0.447 0.978,0.92 1.466,1.469 1.466,1.646 0,0.118 -0.238,0.319 -0.716,0.606 -0.302,-0.211 -0.7,-0.515 -1.196,-0.912 -0.328,0.299 -0.883,0.446 -1.662,0.446 -0.108,0 -0.43,-0.125 -0.965,-0.374 -0.053,-0.021 -0.105,-0.046 -0.162,-0.072 -0.522,-0.246 -1.225,-0.598 -2.107,-1.054 -0.169,0.119 -0.281,0.179 -0.34,0.179 -0.167,0 -0.417,-0.119 -0.75,-0.356 -0.358,-0.239 -0.561,-0.381 -0.608,-0.429 0,0.189 -0.047,0.381 -0.143,0.57 -0.144,0.312 -0.357,0.465 -0.644,0.465 -2.072,-1.263 -4.133,-2.691 -6.182,-4.287 -0.314,-0.244 -0.619,-0.482 -0.911,-0.715 -0.289,-0.01 -0.581,-0.021 -0.875,-0.037 0.786,0.925 1.179,1.449 1.179,1.574 0,0.189 -0.023,0.285 -0.072,0.285 -0.166,0 -0.262,0 -0.285,0 -1.129,-0.8 -2.01,-1.468 -2.645,-2.002 -0.111,-0.012 -0.225,-0.023 -0.34,-0.035 1.484,1.86 2.301,2.897 2.448,3.108 -0.071,0.095 -0.19,0.179 -0.356,0.25 -0.936,-0.798 -2.066,-1.978 -3.396,-3.538 -0.272,-0.042 -0.547,-0.09 -0.822,-0.143 0.548,0.715 0.822,1.097 0.822,1.144 0,0.287 -0.035,0.417 -0.106,0.394 l -0.607,0.107 c -0.249,0 -0.922,-0.686 -2.02,-2.055 -0.25,-0.061 -0.5,-0.127 -0.75,-0.197 0.536,0.875 0.805,1.423 0.805,1.645 0,0.023 -0.18,0.189 -0.536,0.5 -0.65,-0.701 -1.437,-1.623 -2.358,-2.77 -0.416,-0.138 -0.833,-0.288 -1.251,-0.447 0.429,0.713 0.644,1.106 0.644,1.18 0,0.072 -0.203,0.273 -0.607,0.607 -0.611,-0.648 -1.309,-1.523 -2.09,-2.626 -0.73,-0.333 -1.457,-0.69 -2.18,-1.071 0.276,0.492 0.508,0.928 0.696,1.305 l -0.071,0.535 c -0.096,0.048 -0.179,0.107 -0.25,0.179 -0.071,0.048 -0.203,0.071 -0.394,0.071 -0.262,0 -0.655,-0.394 -1.179,-1.18 -0.524,-0.856 -0.822,-1.356 -0.893,-1.5 v 0.07 c 0.215,0.786 0.012,1.18 -0.607,1.18 -0.334,0 -0.738,-0.322 -1.215,-0.965 -0.43,-0.689 -0.68,-1.06 -0.75,-1.107 0,0.597 -0.299,0.894 -0.895,0.894 -0.429,0 -1.238,-1.356 -2.43,-4.073 -0.281,-0.642 -0.543,-1.23 -0.786,-1.77 -0.06,-0.064 -0.118,-0.133 -0.179,-0.195 0.904,2.191 1.357,3.454 1.357,3.787 0,0.215 -0.013,0.357 -0.035,0.43 -0.121,0.262 -0.383,0.393 -0.787,0.393 -0.597,0 -1.311,-1.061 -2.145,-3.18 -0.471,-1.39 -0.857,-2.521 -1.161,-3.396 h -0.018 c -0.31,0 -0.394,0.022 -0.25,0.071 l 0.356,1.787 c 0,0.213 -0.082,0.381 -0.25,0.5 -0.072,0.048 -0.287,0.154 -0.644,0.32 -0.162,-0.34 -0.347,-0.794 -0.554,-1.357 -0.1,0.185 -0.2,0.377 -0.305,0.572 -1.334,2.5 -3.133,4.562 -5.396,6.183 0.69,0.737 -1.871,4.573 -7.683,11.506 -5.812,6.956 -9.945,9.136 -12.399,6.539 -0.906,4.098 -3.597,4.907 -8.076,2.43 1.095,1.692 0.214,2.181 -2.646,1.466 -0.547,-0.166 -1.06,-0.322 -1.537,-0.465 -0.357,0.786 -0.844,1.727 -1.465,2.823 -0.689,-1.049 -0.893,-2.323 -0.606,-3.824 -0.358,-0.214 -0.704,-0.44 -1.037,-0.679 -0.237,0.023 -0.44,0.059 -0.606,0.107 -0.668,0.189 -1.358,0.285 -2.074,0.285 -0.189,0 -0.855,0.202 -2,0.606 -1.096,0.382 -1.668,0.571 -1.715,0.571 -0.404,-0.047 -0.644,-0.25 -0.715,-0.606 v -0.536 c 0.047,-0.191 0.215,-0.417 0.5,-0.679 0.525,-0.452 0.822,-0.703 0.895,-0.751 l 0.179,-0.107 c -0.762,-0.047 -1.584,-0.012 -2.465,0.107 -0.715,0.121 -1.12,0.167 -1.215,0.145 -0.476,-0.072 -0.679,-0.311 -0.606,-0.716 0.023,-0.118 0.725,-0.726 2.107,-1.821 1.479,-1.168 2.525,-1.858 3.145,-2.072 0.978,-0.43 2.014,-0.68 3.109,-0.752 0.333,-0.644 0.773,-1.107 1.322,-1.394 0.523,-0.237 1.773,-0.417 3.752,-0.536 4.193,-0.285 7.67,-2.488 10.434,-6.609 0.619,-0.928 1.811,-2.895 3.573,-5.896 1.192,-2.023 1.978,-3.383 2.358,-4.072 -0.429,-0.334 -0.894,-0.681 -1.394,-1.037 h 0.036 c -6.6,-3.096 -15.783,-5.896 -27.551,-8.397 -0.334,-0.047 -0.668,-0.118 -1,-0.214 -10.482,-2.168 -17.7,-3.883 -21.655,-5.146 -0.144,-0.048 -0.286,-0.095 -0.429,-0.143 -5.361,-1.739 -9.137,-3.812 -11.328,-6.218 -0.858,-0.953 -1.561,-2.037 -2.108,-3.253 -0.811,-1.81 -1.274,-3.918 -1.394,-6.324 -0.024,-0.404 -0.036,-0.821 -0.036,-1.251 0,-0.263 0,-0.513 0,-0.75 0.012,-0.823 0.054,-1.638 0.125,-2.447 -0.285,-0.262 -0.661,-0.685 -1.125,-1.269 -0.084,-0.109 -0.167,-0.211 -0.25,-0.305 -0.067,0.031 -0.14,0.062 -0.214,0.09 0.31,0.531 0.465,0.9 0.465,1.106 0,0.095 -0.238,0.464 -0.715,1.108 -0.524,0.715 -0.917,1.072 -1.18,1.072 -0.119,0 -0.25,-0.097 -0.393,-0.287 -0.143,-0.215 -0.227,-0.32 -0.25,-0.32 l -1,-0.107 c -0.023,0 -0.143,0.096 -0.357,0.285 -0.095,0.075 -0.184,0.135 -0.268,0.18 0.486,3.174 0.91,6.164 1.268,8.969 0.858,6.789 1.252,12.472 1.181,17.046 -0.119,5.05 -0.154,7.921 -0.107,8.612 0.072,3.619 0.488,7.944 1.251,12.971 0.119,0.81 0.43,2.299 0.93,4.467 0.072,0.333 0.131,0.654 0.179,0.965 3.073,5.264 2.335,8.814 -2.216,10.648 -4.549,1.835 -8.492,2.883 -11.827,3.145 -3.36,0.262 -5.183,0.262 -5.468,0 -0.31,-0.31 -0.868,-0.715 -1.68,-1.215 -1.883,0.167 -3.348,0.189 -4.396,0.071 -1.048,-0.166 -2.918,0.286 -5.61,1.358 -2.691,1.047 -4.705,1.215 -6.039,0.5 -0.048,-0.072 -0.107,-0.238 -0.179,-0.5 -1,1.356 -1.966,2.049 -2.896,2.071 -0.953,0.022 -2.478,-0.465 -4.574,-1.465 -0.596,2.144 -1.523,3.204 -2.786,3.18 -1.812,-0.048 -3.502,-0.608 -5.075,-1.679 -0.81,0.166 -1.393,0.404 -1.75,0.714 -0.072,0.071 -0.238,0.345 -0.5,0.822 -0.143,0.261 -0.417,0.381 -0.822,0.356 -0.381,0 -0.63,-0.131 -0.75,-0.394 -0.071,-0.095 -0.119,-0.25 -0.143,-0.464 -0.238,-1.502 0.25,-2.609 1.465,-3.323 -0.453,0.047 -1.155,0.548 -2.108,1.501 l -1.323,1.465 c -0.405,0 -0.654,-0.154 -0.75,-0.465 -0.047,-0.285 -0.071,-0.441 -0.071,-0.464 -0.072,-0.356 -0.049,-0.966 0.071,-1.823 -0.477,0.072 -0.846,-0.105 -1.108,-0.535 -0.19,-0.285 -0.31,-0.597 -0.357,-0.93 0.19,-1.049 0.285,-1.598 0.285,-1.645 -0.023,-0.166 -0.094,-0.285 -0.214,-0.356 -0.144,-0.095 -0.227,-0.213 -0.25,-0.356 -0.167,-1.191 0.452,-2.191 1.858,-3.002 0.524,-0.31 1.203,-0.595 2.037,-0.857 0.214,-0.667 0.548,-1.286 1,-1.858 1.167,-1.618 3.133,-2.452 5.896,-2.501 2.716,-0.096 5.777,-0.012 9.185,0.25 3.358,0.238 6.957,-0.512 10.791,-2.251 3.812,-1.786 5.765,-2.692 5.86,-2.716 -0.239,-0.905 -0.299,-1.977 -0.179,-3.216 0.095,-1.24 -0.775,-6.552 -2.609,-15.938 -1.644,-8.338 -3.513,-16.176 -5.609,-23.513 -0.264,-0.929 -0.525,-1.847 -0.787,-2.751 -1.811,-6.075 -3.098,-10.959 -3.859,-14.65 -0.07,-1.049 -0.107,-1.99 -0.107,-2.824 -0.217,-0.094 -0.484,-0.213 -0.803,-0.356 -0.312,0.812 -0.77,1.216 -1.375,1.216 -0.119,0 -0.394,-0.179 -0.822,-0.535 -0.453,-0.383 -0.774,-0.703 -0.965,-0.966 -0.096,0.644 -0.715,0.966 -1.857,0.966 -0.333,0 -0.727,-0.406 -1.18,-1.217 -0.238,-0.428 -0.453,-0.88 -0.644,-1.357 -0.167,0.263 -0.262,0.406 -0.286,0.43 -0.143,0.119 -0.334,0.179 -0.572,0.179 -0.358,0 -0.709,-0.506 -1.054,-1.519 -0.054,0.432 -0.155,0.699 -0.304,0.804 -0.023,-0.022 -0.059,-0.035 -0.107,-0.035 v -0.25 c 0,-0.437 -0.029,-0.973 -0.089,-1.608 0.013,0.168 0.019,0.311 0.019,0.43 0,0.189 -0.024,0.298 -0.071,0.32 -0.048,0.047 -0.144,0.084 -0.286,0.107 -0.166,-0.095 -0.298,-0.25 -0.393,-0.465 -0.069,-0.189 -0.123,-0.331 -0.161,-0.43 -0.017,0.625 -0.035,1.162 -0.054,1.608 h -0.179 c -0.056,-0.28 -0.092,-0.645 -0.106,-1.09 -0.021,0.015 -0.045,0.026 -0.071,0.035 -0.009,0.731 -0.045,1.285 -0.106,1.662 h -0.357 l -0.536,-1.357 c -0.047,0.142 -0.035,0.345 0.036,0.607 0,0.237 -0.131,0.428 -0.393,0.571 l -0.428,-0.25 c -0.01,-0.463 -0.021,-0.869 -0.037,-1.215 -0.064,0.045 -0.134,0.082 -0.214,0.106 -0.148,0.042 -0.302,0.065 -0.464,0.071 -0.049,0.856 -0.264,1.285 -0.644,1.285 -0.286,0 -0.488,-0.5 -0.607,-1.5 -0.006,-0.039 -0.012,-0.074 -0.018,-0.107 -0.105,-0.055 -0.212,-0.107 -0.322,-0.16 0.006,0.05 0.012,0.104 0.018,0.16 0.024,0.834 -0.202,1.251 -0.679,1.251 -0.286,0 -0.441,-0.06 -0.465,-0.179 -0.024,-0.143 -0.083,-0.655 -0.179,-1.536 -0.016,-0.193 -0.04,-0.372 -0.071,-0.536 -0.08,-0.044 -0.157,-0.086 -0.232,-0.125 0.049,0.302 0.138,0.749 0.268,1.34 0.072,0.857 -0.179,1.286 -0.75,1.286 -0.453,0 -0.715,-0.279 -0.786,-0.84 -0.111,0.202 -0.326,0.304 -0.644,0.304 -0.286,0 -0.583,-0.512 -0.893,-1.536 -0.041,-0.153 -0.076,-0.297 -0.107,-0.429 -0.128,0.074 -0.258,0.158 -0.393,0.25 l -0.018,0.018 c 0.004,0.107 0.01,0.221 0.018,0.34 -0.023,0.905 -0.273,1.357 -0.75,1.357 -0.245,0 -0.483,-0.227 -0.714,-0.679 -0.176,0.128 -0.337,0.241 -0.482,0.34 -0.064,0.821 -0.32,1.231 -0.769,1.231 -0.143,0 -0.25,-0.07 -0.322,-0.215 -0.047,-0.143 -0.154,-0.214 -0.321,-0.214 -0.666,0 -1.024,-0.179 -1.072,-0.536 -0.026,-0.191 -0.055,-0.353 -0.089,-0.481 -0.059,-0.029 -0.119,-0.06 -0.179,-0.089 l -0.089,1.106 c -0.096,0.072 -0.167,0.132 -0.215,0.179 -0.071,0.049 -0.203,0.071 -0.394,0.071 -0.31,0 -0.679,-0.512 -1.106,-1.536 -0.129,-0.332 -0.242,-0.631 -0.341,-0.894 -0.094,-0.042 -0.184,-0.084 -0.269,-0.125 0.072,0.297 0.107,0.528 0.107,0.696 0,0.191 -0.132,0.488 -0.394,0.894 -0.334,0.548 -0.738,0.822 -1.216,0.822 -0.524,0 -1.012,-0.298 -1.465,-0.894 -0.237,-0.287 -0.44,-0.584 -0.606,-0.895 -0.408,0 -0.759,-0.148 -1.055,-0.446 -0.396,0.839 -0.771,1.404 -1.126,1.697 -1.144,-0.478 -2.12,-1.062 -2.93,-1.751 -0.453,-0.048 -0.703,-0.286 -0.75,-0.715 -0.073,-0.071 -0.132,-0.143 -0.181,-0.215 -0.094,0.263 -0.203,0.572 -0.32,0.93 -0.357,0.881 -0.75,1.311 -1.18,1.286 -0.311,0 -0.525,-0.154 -0.644,-0.464 -0.094,-0.215 -0.119,-0.369 -0.071,-0.465 -0.215,0.381 -0.393,0.701 -0.535,0.965 -0.31,0.477 -0.668,0.798 -1.072,0.965 l -0.643,-0.215 v -0.035 c -0.097,-0.334 -0.061,-0.68 0.105,-1.036 0,-0.097 -0.023,-0.179 -0.071,-0.251 -0.287,0.882 -0.583,1.525 -0.894,1.931 -0.189,0.214 -0.369,0.357 -0.535,0.429 -0.072,0 -0.145,0 -0.215,0 -0.43,0 -0.691,-0.215 -0.786,-0.644 0,-0.453 0,-0.692 0,-0.715 0,-0.31 0.167,-1.072 0.5,-2.287 -0.144,0.024 -0.275,0.06 -0.394,0.106 -0.072,0.168 -0.154,0.347 -0.25,0.537 -0.716,1.5 -1.299,2.238 -1.75,2.215 -0.287,0 -0.525,-0.119 -0.716,-0.356 -0.071,0.31 -0.144,0.536 -0.215,0.679 -0.144,0.31 -0.394,0.488 -0.75,0.536 l -0.644,-0.251 c -0.049,-0.309 -0.071,-0.761 -0.071,-1.357 0,-0.062 0,-0.115 0,-0.16 -0.003,0.068 -0.015,0.145 -0.036,0.232 -0.096,0.428 -0.369,0.881 -0.822,1.357 -0.023,0.023 -0.035,0.048 -0.035,0.07 -0.548,0.477 -1.143,0.834 -1.787,1.072 l -0.643,-0.215 c -0.048,-0.285 -0.07,-0.726 -0.07,-1.322 0,-0.238 0.096,-0.715 0.285,-1.429 0,-0.024 0.012,-0.048 0.035,-0.071 -0.286,0.023 -0.559,0.059 -0.822,0.106 -0.117,0.31 -0.236,0.631 -0.356,0.965 -0.81,2.146 -1.298,3.216 -1.466,3.216 -0.689,-0.022 -1.119,-0.142 -1.285,-0.356 -0.12,-0.144 -0.168,-0.394 -0.143,-0.75 -0.383,0.737 -0.74,1.106 -1.072,1.106 -0.549,-0.023 -0.787,-0.584 -0.715,-1.68 0.142,-0.833 0.25,-1.43 0.32,-1.786 h -0.035 c -0.072,0.38 -0.178,1 -0.32,1.858 -0.215,1.048 -0.561,1.559 -1.037,1.535 -0.358,0 -0.572,-0.285 -0.644,-0.856 0,-0.573 0,-0.87 0,-0.894 0,-0.381 0.023,-0.846 0.071,-1.395 -0.143,0 -0.262,0 -0.357,0 -0.022,0.167 -0.048,0.346 -0.07,0.536 -0.358,1.954 -1.073,2.918 -2.145,2.896 -0.406,-0.024 -0.644,-0.19 -0.715,-0.5 0,-0.334 0,-0.524 0,-0.572 l -0.072,-0.215 c -0.095,0.19 -0.179,0.535 -0.25,1.037 -0.096,0.403 -0.345,0.594 -0.75,0.57 -0.285,0 -0.524,-0.119 -0.715,-0.357 -0.167,0.382 -0.584,0.656 -1.25,0.822 -0.477,0.119 -0.918,0.18 -1.322,0.18 -0.596,-0.025 -0.895,-0.43 -0.895,-1.215 -0.118,0.309 -0.346,0.582 -0.68,0.82 -0.451,0.357 -0.844,0.383 -1.178,0.072 0,0.047 -0.013,0.191 -0.035,0.428 -0.096,0.215 -0.299,0.322 -0.608,0.322 -0.476,-0.023 -0.798,-0.262 -0.965,-0.715 -0.046,-0.452 -0.083,-0.703 -0.107,-0.75 v 1.32 c -0.071,0.121 -0.25,0.18 -0.536,0.18 -0.189,-0.023 -0.381,-0.143 -0.57,-0.357 v -0.018 c -0.012,-0.02 -0.023,-0.037 -0.035,-0.053 -0.167,-0.215 -0.264,-0.405 -0.286,-0.572 0,0.547 0,0.834 0,0.857 -0.095,0.5 -0.369,0.75 -0.821,0.75 -0.523,0 -0.857,-0.238 -1.001,-0.715 -0.048,-0.548 -0.096,-0.882 -0.144,-1.001 -0.071,0.334 -0.25,0.548 -0.536,0.644 -0.19,0.049 -0.667,0.072 -1.429,0.072 -0.453,0 -0.703,-0.097 -0.752,-0.287 -0.047,-0.213 -0.309,-0.32 -0.785,-0.32 -0.024,0 -0.084,0.107 -0.178,0.32 -0.072,0.19 -0.274,0.287 -0.608,0.287 -0.667,0 -1.263,-0.156 -1.786,-0.466 0,0.144 0.012,0.369 0.035,0.679 -0.071,0.215 -0.321,0.322 -0.75,0.322 -0.262,0 -0.489,-0.096 -0.68,-0.285 -0.166,-0.216 -0.297,-0.358 -0.394,-0.43 -0.142,0.238 -0.25,0.405 -0.321,0.5 -0.119,0.145 -0.25,0.215 -0.394,0.215 -0.333,0 -0.702,-0.262 -1.106,-0.785 -0.382,-0.549 -0.966,-0.822 -1.752,-0.822 -0.191,0.356 -0.429,0.535 -0.715,0.535 -0.118,0.168 -0.285,0.25 -0.5,0.25 -0.333,0 -0.715,-0.262 -1.145,-0.785 -0.118,-0.144 -0.213,-0.274 -0.285,-0.394 -0.143,-0.024 -0.274,-0.036 -0.393,-0.036 -0.072,0.023 -0.133,0.049 -0.18,0.071 l -0.357,-0.356 c -0.047,0 -0.095,0 -0.144,0 -0.499,0 -1.155,-0.43 -1.965,-1.287 2.646,6.267 4.634,12.115 5.968,17.545 0.667,2.717 1.167,5.338 1.5,7.863 0.12,1 -0.178,3.478 -0.893,7.433 -0.547,2.952 -1.334,6.729 -2.358,11.327 -0.144,0.65 -0.274,1.414 -0.394,2.287 h -0.019 c -0.372,2.732 -0.627,6.543 -0.769,11.435 0.393,0.144 0.523,0.428 0.394,0.856 -0.13,0.43 -0.167,1.062 -0.106,1.895 0.189,0.191 0.356,0.382 0.5,0.572 1.025,1.287 1.359,2.211 1,2.77 -0.363,0.557 -0.774,1.105 -1.232,1.645 -0.455,0.537 -1.051,0.664 -1.786,0.375 -0.653,-0.256 -1.003,-0.403 -1.054,-0.446 0.025,0.063 0.049,0.129 0.07,0.196 0.166,0.643 -0.154,1.144 -0.965,1.5 -0.356,0.143 -1.31,0.572 -2.857,1.287 -3.955,1.74 -6.719,3.633 -8.291,5.682 -1.573,2.025 -2.621,3.525 -3.145,4.502 -1.953,3.098 -4.098,4.253 -6.433,3.467 0.69,1.215 -0.429,2.156 -3.358,2.823 -0.787,0.144 -1.572,0.144 -2.358,0 -0.286,0.213 -0.632,0.333 -1.036,0.356 -0.38,0.071 -0.834,0.061 -1.357,-0.035 -1.263,-0.262 -2.275,-0.19 -3.037,0.215 -0.834,0.381 -1.311,0.559 -1.431,0.535 -0.428,-0.047 -0.644,-0.297 -0.644,-0.75 0,-0.381 0.084,-0.846 0.25,-1.395 0.215,-0.619 0.466,-1.048 0.75,-1.286 l 0.072,-0.036 c -0.93,0.072 -1.75,0.322 -2.466,0.75 -0.667,0.406 -1.096,0.596 -1.286,0.572 l -0.5,-0.107 -0.035,-0.679 c 0,-0.524 0.213,-1.049 0.643,-1.571 0.286,-0.334 0.715,-0.728 1.286,-1.18 -0.429,0.047 -1.097,0.083 -2.001,0.106 -1.049,0.024 -1.764,0.012 -2.145,-0.035 -0.334,-0.024 -0.596,-0.144 -0.785,-0.356 -0.072,0.047 -0.144,0.096 -0.215,0.143 -0.144,0.167 -0.298,0.417 -0.465,0.75 -0.096,0.191 -0.262,0.263 -0.501,0.215 -0.261,-0.023 -0.452,-0.239 -0.571,-0.643 l -0.143,-0.681 c 0,-0.403 0.286,-0.987 0.857,-1.751 0.619,-0.857 0.965,-1.513 1.035,-1.965 0.191,-1.001 0.43,-1.645 0.715,-1.93 0.619,-0.668 1.894,-1.061 3.823,-1.18 0.431,-0.334 0.847,-0.822 1.251,-1.466 l -0.07,-0.071 c -0.287,0.097 -0.571,0.227 -0.858,0.394 -0.166,0.12 -0.369,0.167 -0.606,0.144 -0.524,-0.119 -0.99,-0.203 -1.394,-0.25 -0.072,0.023 -0.108,-0.107 -0.108,-0.394 0,-0.739 1.098,-1.62 3.289,-2.644 0.404,-0.192 0.773,-0.347 1.106,-0.465 0.024,-0.097 0.059,-0.168 0.106,-0.216 0.953,-2.144 3.145,-3.383 6.575,-3.716 3.358,-0.357 8.159,-3.109 14.4,-8.255 0.047,-0.048 0.083,-0.142 0.106,-0.286 l 0.071,0.107 c -1.048,-3.692 -1.632,-6.539 -1.751,-8.541 0,-0.023 0,-0.047 0,-0.07 -0.016,-0.287 -0.04,-0.584 -0.07,-0.895 h -0.232 c -0.459,-3.199 -1.334,-7.285 -2.626,-12.257 -1.382,-5.312 -2.704,-12.293 -3.968,-20.938 -0.143,-0.93 -0.273,-1.858 -0.394,-2.788 -4.524,-1.31 -11.981,-5.836 -22.369,-13.578 l -2.18,2.001 c -0.69,-0.477 -1.382,-0.977 -2.072,-1.501 0,0.048 0,0.095 0,0.144 -0.071,0.715 -0.548,1.071 -1.43,1.071 -0.167,0 -0.31,-0.071 -0.429,-0.214 l -0.287,-0.322 c -0.023,0.025 -0.082,0.156 -0.178,0.395 -0.047,0.095 -0.166,0.143 -0.356,0.143 -0.334,0 -0.562,-0.083 -0.681,-0.25 -0.07,-0.215 -0.143,-0.369 -0.213,-0.465 -0.024,0.072 -0.037,0.334 -0.037,0.786 -0.047,0.43 -0.213,0.644 -0.5,0.644 -0.213,0 -0.5,-0.082 -0.856,-0.25 -0.358,-0.189 -0.584,-0.285 -0.679,-0.285 -0.286,0 -0.572,-0.287 -0.857,-0.857 -0.191,-0.405 -0.31,-0.738 -0.357,-1.001 -0.356,0.048 -0.69,0.012 -1,-0.106 0.07,0.356 0.07,0.869 0,1.536 l -0.357,0.144 c -0.5,-0.5 -0.977,-1.191 -1.43,-2.072 -0.214,-0.43 -0.404,-0.811 -0.571,-1.145 -0.144,-0.048 -0.275,-0.095 -0.393,-0.143 0.095,0.5 0.143,0.939 0.143,1.322 0,0.404 -0.024,0.703 -0.072,0.893 h -0.178 c 1.882,7.934 1.822,15.532 -0.179,22.799 -0.334,1.168 -0.263,2.691 0.214,4.573 0.262,1.001 0.13,1.906 -0.394,2.716 l -0.144,0.715 c -0.548,0.644 -1.358,1.155 -2.43,1.537 -2.358,0.809 -3.895,1.25 -4.609,1.321 -0.715,0.024 -2.382,0.584 -5.003,1.681 -2.646,1.072 -9.719,2.633 -21.227,4.682 -9.72,1.738 -16.985,2.394 -21.798,1.965 -0.048,0.167 -0.095,0.322 -0.143,0.465 -0.333,0.977 -0.715,1.453 -1.145,1.43 -0.834,-0.072 -2.215,0.023 -4.146,0.285 -0.381,0.953 -1.262,1.822 -2.645,2.609 0.19,1.857 -0.06,3.668 -0.751,5.431 -0.834,1.906 -2.668,3.358 -5.503,4.36 1.597,1.857 1.049,3.369 -1.644,4.537 0.048,2 -0.321,3.037 -1.107,3.108 -0.62,0.097 -1.287,-0.012 -2.002,-0.321 -0.381,0.43 -0.845,0.93 -1.393,1.5 -2.002,2.074 -2.752,3.86 -2.252,5.36 -0.047,0.144 -0.202,0.261 -0.465,0.356 -0.477,0.168 -1.024,-0.346 -1.645,-1.536 -0.548,-1.19 -0.821,-1.798 -0.821,-1.822 -0.023,-0.071 -0.023,-0.203 0,-0.394 -0.785,0.834 -1.299,1.705 -1.536,2.609 -0.524,-0.263 -0.965,-0.918 -1.321,-1.966 -0.239,-0.644 -0.095,-2.013 0.428,-4.108 -0.523,0.262 -1.096,0.512 -1.715,0.75 -0.191,0.047 -0.333,0.07 -0.429,0.07 -0.5,0.93 -0.607,1.774 -0.321,2.537 -0.81,-0.309 -1.262,-0.584 -1.358,-0.82 -0.12,-0.381 -0.083,-0.834 0.107,-1.358 0.095,-1.431 1.203,-3.692 3.323,-6.789 0.048,-0.119 0.143,-0.238 0.285,-0.356 0.024,-0.357 0.084,-0.787 0.179,-1.287 0.049,-0.144 0.072,-0.274 0.072,-0.394 -0.073,-0.238 -0.12,-0.44 -0.145,-0.606 -0.667,0.977 -1.465,2.119 -2.394,3.43 -0.383,0.119 -0.655,0.096 -0.822,-0.071 -0.096,-0.263 -0.155,-0.405 -0.179,-0.429 -0.549,-1.525 -0.013,-3.43 1.607,-5.717 0.357,-0.524 0.703,-0.94 1.036,-1.252 0,-1.763 0.524,-3.145 1.572,-4.145 1.477,-1.382 6.087,-7.79 13.829,-19.225 0,-0.024 0.904,-0.524 2.716,-1.502 1.62,-0.453 3.335,-0.881 5.146,-1.287 12.745,-3.049 20.179,-5.014 22.299,-5.896 2.12,-0.905 5.765,-1.762 10.935,-2.573 3.431,-0.548 5.849,-1.012 7.254,-1.394 l -2.287,-1.644 c -0.263,-0.5 -0.523,-1.014 -0.786,-1.537 -1.477,-2.907 -2.644,-5.896 -3.502,-8.969 -0.214,-0.738 -0.403,-1.478 -0.57,-2.216 -0.882,-3.883 -1.501,-6.968 -1.858,-9.255 -0.357,-2.311 -0.465,-4.574 -0.322,-6.79 0.049,-0.786 0.097,-1.465 0.145,-2.037 -0.072,0 -0.132,0 -0.18,0 -0.143,0 -0.25,-0.059 -0.321,-0.178 -0.047,-0.119 -0.154,-0.179 -0.32,-0.179 -1.335,0.833 -2.014,1.25 -2.037,1.25 -0.523,0 -0.798,-0.274 -0.822,-0.822 0.071,-0.595 0.107,-0.929 0.107,-1 -0.071,0.095 -0.144,0.274 -0.215,0.536 -0.119,0.191 -0.346,0.286 -0.679,0.286 -0.358,0 -0.739,-0.202 -1.145,-0.607 -0.405,-0.429 -0.62,-0.846 -0.644,-1.251 -0.619,0.381 -0.976,0.584 -1.071,0.608 -0.192,0 -0.429,0 -0.715,0 -0.381,0 -0.643,-0.167 -0.786,-0.5 -0.073,-0.358 -0.131,-0.584 -0.179,-0.679 -0.024,-0.024 -0.097,0 -0.215,0.071 -0.119,0.095 -0.263,0.143 -0.43,0.143 -0.404,0 -0.75,-0.286 -1.036,-0.857 -0.048,-0.143 -0.179,-0.548 -0.393,-1.215 -0.024,0.048 -0.107,0.179 -0.25,0.393 -0.145,0.215 -0.299,0.322 -0.465,0.322 -0.644,0 -1.489,-0.476 -2.537,-1.429 -1.049,-0.953 -1.692,-1.43 -1.931,-1.43 -0.524,0 -0.988,-0.322 -1.394,-0.965 -0.309,-0.691 -0.5,-1.084 -0.572,-1.179 0.072,0.596 -0.167,0.894 -0.715,0.894 -0.381,0 -0.69,-0.214 -0.929,-0.643 -0.19,-0.453 -0.298,-0.715 -0.321,-0.786 -0.095,0.214 -0.179,0.346 -0.25,0.393 -0.096,0.095 -0.251,0.143 -0.465,0.143 -0.429,0 -0.774,-0.345 -1.036,-1.036 -0.286,-0.691 -0.953,-1.036 -2.001,-1.036 -0.334,0 -0.596,-0.25 -0.786,-0.75 -0.19,-0.5 -0.406,-0.75 -0.644,-0.75 -0.285,0 -0.488,-0.131 -0.607,-0.393 -0.047,-0.286 -0.107,-0.488 -0.179,-0.607 0,0.214 -0.096,0.346 -0.286,0.393 -0.262,-0.453 -0.489,-0.858 -0.679,-1.215 -0.071,0.048 -0.144,0.096 -0.215,0.143 -0.476,0 -1.333,-0.846 -2.572,-2.537 -1.215,-1.715 -2.144,-2.573 -2.787,-2.573 -0.524,-0.571 -0.965,-1.108 -1.322,-1.608 -0.811,-0.62 -1.561,-1.215 -2.251,-1.787 -0.048,0 -0.107,0 -0.179,0 -0.358,0 -0.656,-0.083 -0.895,-0.25 -0.238,-0.191 -0.452,-0.286 -0.643,-0.286 -0.715,-0.786 -1.537,-1.572 -2.466,-2.358 -0.167,-0.143 -0.322,-0.274 -0.465,-0.393 v -0.929 c -0.501,0.524 -0.978,1.012 -1.431,1.465 -1.167,1.144 -6.039,4.443 -14.614,9.898 -3.954,2.526 -7.325,4.503 -10.112,5.932 -1.358,0.524 -2.524,0.977 -3.502,1.358 -0.786,0.31 -1.525,0.572 -2.215,0.786 -1.287,0.382 -2.432,0.62 -3.432,0.715 -0.31,0.024 -0.632,0.048 -0.965,0.072 -0.763,0.048 -1.49,0.071 -2.18,0.071 -1.359,-0.023 -2.491,-0.19 -3.396,-0.5 -0.763,-0.238 -1.357,-0.583 -1.786,-1.036 -0.239,-0.238 -0.466,-0.476 -0.68,-0.714 -0.562,-0.636 -1.062,-1.202 -1.501,-1.697 -0.223,-0.01 -0.443,-0.028 -0.661,-0.054 -1.18,-0.148 -2.18,-0.564 -3.002,-1.251 -0.736,-0.627 -1.326,-1.473 -1.769,-2.537 -0.237,-0.568 -0.421,-1.17 -0.554,-1.804 -0.126,-0.13 -0.251,-0.267 -0.376,-0.411 -0.857,-1.025 -1.286,-1.906 -1.286,-2.645 0,-1.119 0.821,-2.906 2.466,-5.36 0.572,-0.858 1.894,-2.657 3.967,-5.396 0.952,-1.263 1.715,-2.216 2.287,-2.859 0.646,-0.694 1.312,-1.319 2.001,-1.876 0.17,-2.211 0.873,-4.552 2.108,-7.022 0.333,-0.738 0.737,-1.489 1.215,-2.251 0.381,-0.691 0.82,-1.393 1.321,-2.108 0.572,-0.857 1.216,-1.739 1.931,-2.644 0.548,-0.715 1.131,-1.43 1.751,-2.144 2.69,-3.193 5.788,-6.254 9.29,-9.184 -0.452,-0.572 -0.953,-1.179 -1.501,-1.822 -1.191,-1.263 -2.073,-2.228 -2.646,-2.895 -1.023,-1.119 -1.596,-2.119 -1.715,-3.001 -0.12,-0.691 0.501,-1.036 1.858,-1.036 0.19,0.002 2.321,0.204 6.432,0.608 z m 233.292,84.19 c 0.023,0.248 0.059,0.498 0.107,0.751 v -0.34 c -0.036,-0.131 -0.07,-0.265 -0.107,-0.411 z m -103.377,-19.688 0.213,-0.179 v -0.036 l -0.213,0.215 z M 376.5,194.884 c 0,0.453 -0.048,1.024 -0.143,1.715 -0.066,0.032 -0.137,0.067 -0.215,0.107 0.119,0.35 0.18,0.589 0.18,0.715 0,0.357 -0.215,0.798 -0.645,1.322 -0.189,-0.191 -0.428,-0.631 -0.713,-1.322 0,1.31 -0.465,2.775 -1.395,4.396 -0.786,1.357 -1.275,2.037 -1.465,2.037 -0.286,0 -0.465,-0.071 -0.536,-0.215 0,0.594 -0.238,1.047 -0.714,1.357 -0.571,0.333 -0.905,0.631 -1,0.895 -0.047,0.071 -0.084,0.547 -0.107,1.428 -0.095,0.834 -0.345,1.252 -0.75,1.252 -0.166,0 -0.273,-0.061 -0.32,-0.18 -0.072,-0.119 -0.18,-0.179 -0.322,-0.179 -0.405,0 -0.62,0.238 -0.643,0.715 -0.025,0.619 -0.168,1.036 -0.43,1.251 -0.118,-0.047 -0.273,-0.167 -0.464,-0.357 -0.072,0.215 -0.132,0.609 -0.179,1.18 -0.096,0.477 -0.297,0.715 -0.607,0.715 -0.286,0 -0.381,-0.035 -0.286,-0.107 -0.187,-0.637 -0.335,-1.131 -0.446,-1.481 -0.05,0.079 -0.098,0.156 -0.144,0.231 0.083,0.897 0.125,1.494 0.125,1.787 -0.024,1.144 -0.334,1.715 -0.931,1.715 -0.332,0 -0.57,-0.154 -0.713,-0.465 -0.096,-0.19 -0.19,-0.429 -0.287,-0.715 v 0.071 c 0,1.167 -0.512,2.203 -1.535,3.108 -0.536,0.485 -0.93,0.914 -1.18,1.287 0.058,0.068 0.123,0.133 0.196,0.195 -0.095,-0.015 -0.19,-0.033 -0.286,-0.054 -0.154,0.257 -0.231,0.483 -0.231,0.679 0,0.5 -0.042,0.881 -0.125,1.145 6.196,0.994 10.239,2.078 12.131,3.252 1.024,0.666 2.632,1.466 4.823,2.395 1.168,0.477 2.527,1.012 4.074,1.608 2.478,0.952 6.479,2.452 12.006,4.502 0.215,0.094 1.252,0.618 3.109,1.571 0.504,0.259 1.028,0.504 1.572,0.732 l -0.125,-2.27 c -0.014,-0.016 -0.025,-0.033 -0.036,-0.055 -0.212,0.395 -0.539,0.59 -0.983,0.59 -0.404,0 -0.666,-0.201 -0.785,-0.605 -0.119,-0.43 -0.369,-0.645 -0.75,-0.645 -0.601,0 -1.219,-0.744 -1.858,-2.232 0.106,-0.038 0.201,-0.085 0.286,-0.145 -0.094,-0.094 -0.189,-0.219 -0.286,-0.375 -0.144,-0.237 -0.203,-0.416 -0.179,-0.535 -0.858,-0.144 -1.441,-0.881 -1.752,-2.217 -0.096,-0.427 -0.202,-1.451 -0.321,-3.072 -0.022,0.049 -0.095,0.369 -0.214,0.966 -0.163,0.471 -0.414,0.739 -0.75,0.804 -0.098,0.369 -0.276,0.555 -0.536,0.555 -0.458,0 -0.94,-0.936 -1.447,-2.806 -0.057,-0.153 -0.11,-0.315 -0.161,-0.481 -0.051,-0.123 -0.205,-0.771 -0.464,-1.948 -0.134,-0.56 -0.253,-1.048 -0.356,-1.466 l -0.036,0.806 c -0.095,0.596 -0.287,0.894 -0.572,0.894 -0.284,0 -0.405,-0.061 -0.356,-0.18 v -1.536 c -0.071,0.071 -0.144,0.167 -0.215,0.286 -0.095,0.119 -0.201,0.18 -0.32,0.18 -0.572,0 -0.858,-0.357 -0.858,-1.072 0.028,-0.269 0.052,-0.512 0.071,-0.732 -0.081,0.25 -0.295,0.375 -0.643,0.375 -0.285,0 -0.406,-0.061 -0.357,-0.179 0,-0.786 -0.154,-1.489 -0.465,-2.108 -0.381,-0.761 -0.606,-1.369 -0.678,-1.822 l -0.035,0.071 c -0.024,0.024 -0.049,0.274 -0.072,0.751 -0.071,0.452 -0.274,0.68 -0.607,0.68 -0.476,0 -0.81,-0.774 -1,-2.322 -0.143,-1.74 -0.226,-2.801 -0.25,-3.182 l -0.393,0.144 c 0,0.262 -0.143,0.536 -0.43,0.821 l -0.356,-0.178 c 0,-1.55 -0.083,-2.943 -0.25,-4.182 l -0.106,0.07 c 0,0.214 0.012,0.5 0.035,0.857 -0.048,0.286 -0.238,0.477 -0.572,0.572 -0.119,0 -0.237,-0.061 -0.356,-0.18 v -0.5 c 0,-0.213 -0.119,-0.75 -0.356,-1.607 -0.238,-0.857 -0.357,-1.561 -0.357,-2.107 0.167,-2.265 0.227,-3.979 0.179,-5.146 -0.037,-0.497 -0.071,-0.961 -0.106,-1.394 -0.15,-0.23 -0.437,-0.611 -0.858,-1.143 -0.242,0.117 -0.362,0.355 -0.368,0.712 z m 107.887,32.054 c 0.033,-0.011 0.069,-0.021 0.106,-0.035 v -0.037 c -0.036,0.025 -0.071,0.048 -0.106,0.072 z m -84.886,6.826 c 0.013,0.008 0.024,0.014 0.036,0.018 -0.011,-0.016 -0.021,-0.033 -0.036,-0.055 v 0.037 z"
   id="path3" />
    
    <path
   d="m 29.068,135.245 c 0.785,0.405 1.549,1.084 2.287,2.037 m -10.684,-2.431 c 1.119,0.239 2.203,0.62 3.251,1.144 0.145,0.096 0.312,0.191 0.501,0.286 1.691,0.882 3.359,2.097 5.003,3.645 m -4.861,3.144 c 0.857,-0.048 1.632,0.358 2.323,1.215 m -4.287,-6.253 c 1.93,0.524 3.764,1.858 5.503,4.002 m -14.366,33.518 c 0.554,-1.352 1.398,-2.65 2.537,-3.895 m -1.608,8.254 c 0.597,-2.075 1.722,-3.981 3.377,-5.717 m -0.625,9.255 c 0.093,-2.745 1.3,-5.413 3.627,-8.004 m 5.271,8.612 c 0.142,-1.667 -0.072,-3.371 -0.644,-5.11 m -5.252,2.823 c 0.309,-1.549 1.238,-3.073 2.787,-4.574 m 18.725,1.107 -0.572,-1.858 m -2.073,3.539 c -0.286,-0.739 -0.763,-1.465 -1.43,-2.18 m -1.036,5.037 c 0.023,-1.477 -0.369,-2.894 -1.179,-4.252 m -2.823,5.218 c 0.072,-1.573 -0.453,-3.049 -1.572,-4.431 m -1.251,4.466 c 0.023,-1.357 -0.285,-2.823 -0.929,-4.395"
   id="path5"
   style="fill:none;stroke:#000000;stroke-width:0.1;stroke-linecap:round;stroke-linejoin:round;stroke-miterlimit:3" />
    
</svg>