<?xml version="1.0" encoding="UTF-8" standalone="no"?>
<!-- Created with Inkscape (http://www.inkscape.org/) -->

<svg
   xmlns:svg="http://www.w3.org/2000/svg"
   xmlns="http://www.w3.org/2000/svg"
   version="1.2"
   width="2422.947"
   height="1755"
   viewBox="0 0 2422.947 1755"
   id="Layer_1"
   xml:space="preserve"
   style="overflow:inherit"><defs
   id="defs69" />
<path
   d="m 180.947,0 c 6.065,0.85 13.572,6.023 18,3 3.866,0.134 3.944,4.056 7,5 4.877,-4.729 14.142,8.374 22,1 1.916,4.418 10.047,2.62 9,10 3.354,-0.021 6.667,0 6,4 6.356,-4.417 14.099,7.613 22,0 0,1.333 0,2.667 0,4 3.657,-0.592 7.896,3.373 8,-2 1.629,2.038 2.101,5.233 4,7 3.078,0.745 1.922,-2.745 5,-2 0.99,3.344 4.01,4.656 5,8 3.852,-2.874 6.736,2.133 9,4 1.289,-1.378 4.344,-0.99 7,-1 -1.548,6.215 9.405,-0.071 7,7 2.805,-0.862 2.127,-5.206 4,-7 2.685,1.013 9.266,2.633 8,-3 5.669,2.435 7.545,-1.615 11,-4 3.586,3.415 9.724,2.806 12,0 2.971,0.696 4.051,3.282 6,5 3.746,0.079 3.022,-4.311 8,-3 0,1.667 0,3.333 0,5 5.058,-2.083 3.78,2.096 8,3 1.759,-0.241 2.279,-1.721 2,-4 1.53,1.395 2.84,5.176 1,7 4.845,0.672 4.838,-2.938 9,-5 -0.55,2.051 1.91,2.386 2,1 1.334,2.812 -0.985,7.943 4,9 3.367,-0.903 0.118,-2.237 2,-4 5.363,1.363 6.126,-1.874 9,-3 0.559,2.925 1.018,6.499 0,11 4.281,0.638 11.49,8.165 15,3 2.995,0.658 -0.956,2.138 0,4 1.956,-1.021 6.976,-0.861 9,3 2.396,0.396 -0.555,-4.555 3,-3 -0.358,5.879 2.487,0.792 5,1 0.439,2.535 1.342,4.535 2,9 10.15,-4.849 14.184,7.589 20,13 2.599,0.599 3.599,-0.401 3,-3 2.341,0.256 0.576,4.394 0,5 5.044,-0.711 5.591,3.075 11,2 -0.423,2.09 0.686,2.648 1,4 1.758,-0.575 5.875,1.208 6,-1 -0.83,2.425 2.928,2.012 3,6 9.755,-1.797 8.605,4.02 17,5 -1.701,3.729 0.591,1.583 1,5 8.894,-3.194 7.061,11.395 15,8 2.596,7.072 8.11,7.802 15,7 2.891,5.775 6.105,11.228 14,12 0.282,1.615 -0.945,1.722 -1,3 6.17,-2.792 6.63,3.314 14,2 -1.417,8.75 9.856,4.811 10,12 4.966,-1.693 7.73,5.089 10,0 3.028,1.223 -0.707,3.816 -1,5 1.972,4.028 8.538,3.462 7,11 4.878,-0.085 7.953,-1.764 12,1 0.473,3.14 -2.691,2.642 -3,5 1.535,4.689 5.965,3.862 5,9 3.741,-2.135 5.683,0.118 8,2 2.048,-2.083 4.791,-7.231 8,-5 -1.258,4.742 -5.86,6.14 -8,10 0.876,3.124 1.878,6.122 5,7 3.104,0.104 2.854,-3.146 7,-2 0.421,4.245 4.384,4.949 9,5 -0.233,3.718 -3.546,2.802 -6,2 0.813,5.187 9.507,2.493 14,4 0.729,2.729 -1.987,2.013 -2,4 1.248,2.142 4.099,-2.489 7,-2 -1.408,2.592 -3.383,4.617 -5,7 4.141,2.859 13.12,0.88 18,3 0.313,4.813 -5.808,8.292 -10,4 -0.804,0.529 -1.624,1.043 -3,1 0,1.667 0,3.333 0,5 4.354,-0.204 8.179,-2.042 12,0 0.75,3.417 -4.063,1.271 -3,5 1.183,2.693 5.214,-0.004 7,0 -1.133,5.279 3.829,3.128 4,9 4.258,0.591 6.614,-0.719 10,-1 1.2,1.313 0.39,1.573 0,3 2.111,-0.889 2.956,-3.044 6,-3 -0.65,3.35 -1.614,6.386 -4,8 1.631,1.564 6.89,-1.728 10,-2 0.144,3.144 -2.564,3.436 -5,4 1.944,1.5 3.69,6.385 -2,5 2.672,2.323 5.531,6.375 10,4 0.178,3.511 -3.378,3.289 -4,6 7.95,-2.599 14.744,-5.745 20,-6 3.351,2.774 -2.589,4.677 -3,7 8.528,3.18 10.745,-8.577 16,-12 1.528,3.562 -5.741,6.901 -6,12 -0.168,2.168 3.547,0.453 5,1 -0.016,2.984 -2.6,3.4 -3,6 -1.781,-0.733 -0.144,-1.818 0,-3 -5.102,-1.102 -5.058,2.942 -7,5 6.479,1.261 13.133,-3.999 14,2 3.204,-0.463 3.526,-3.807 7,-4 2.349,4.895 10.159,-0.844 12,-3 2.525,4.174 5.365,-1.704 10,1 -0.647,5.256 -3.422,2.44 -7,4 -0.769,3.769 1.22,4.78 1,8 3.97,1.363 5.912,4.755 11,5 0,2 0,4 0,6 5.913,-4.699 14.312,-0.898 21,-5 -0.498,4.169 -5.046,4.288 -8,6 -0.827,2.826 1.41,2.591 1,5 3.107,-2.732 7.825,-3.94 7,-8 4.372,0.039 5.027,-3.64 10,-3 0.368,6.035 -4.681,6.652 -7,10 2.002,2.579 6.241,-1.025 8,-2 3.104,-0.104 2.854,3.146 7,2 -3.308,4.918 -3.279,7.239 -6,12 4.253,-0.747 5.615,-4.385 7,-8 3.619,4.447 8.995,0.052 13,-1 -2.641,3.359 -4.894,7.106 -9,9 2.776,3.032 5.825,-2.118 8,-3 2.892,0.441 4.559,2.108 5,5 3.904,0.238 1.825,-5.508 6,-5 0,1 0,2 0,3 1.65,-4.017 8.293,-3.041 10,-7 3.038,1.233 -1.084,3.439 0,6 2.503,0.169 3.13,-1.536 4,-3 2.325,3.219 3.582,1.291 6,4 -1.815,3.519 -4,6.666 -5,11 4,-0.334 4.527,-4.14 9,-4 0.086,-1.419 0.165,-2.832 -1,-3 1.33,-0.265 4.468,-0.472 7,-2 0.691,4.024 -4.211,2.456 -4,6 2.504,2.129 7.167,-6.341 11,-3 0.551,2.217 -1.91,1.424 -2,3 0.407,1.927 3.877,0.79 3,4 2.356,0.022 2.944,-1.723 6,-1 0.927,5.26 -3.379,5.288 -4,9 3.292,1.04 4.574,-4.546 11,-2 0.127,1.793 -1.224,2.109 -1,4 4.74,-0.26 3.597,-6.403 9,-6 -0.496,4.837 -5.759,4.908 -5,11 2.882,0.021 3.216,-1.119 1,4 5.271,0.271 5.57,-4.43 10,-5 0.839,1.161 1.319,2.681 1,5 2.955,-0.711 7.059,-0.275 8,-3 3.287,4.004 -4.752,5.209 -4,10 6.496,-2.552 7.728,-4.225 14,-7 -1.719,3.919 -5.207,5.675 -8,6 1.775,2.935 1.365,3.386 2,6 10.503,0.836 9.312,-10.021 17,-12 -0.708,5.045 -8.413,5.856 -6,11 4.909,0.909 3.809,-4.191 8,-4 -0.385,3.282 -2.924,4.409 -4,7 3.489,-1.511 7.17,-2.83 9,-6 0.109,3.333 2.806,8.368 0,11 5.142,2.778 9.156,-4.155 12,-7 4.801,-0.384 -1.843,4.426 4,3 -0.152,4.515 -3.498,5.835 -4,10 4.809,0.809 3.612,-4.388 9,-3 -2.302,4.392 -0.428,4.792 -1,8 3.727,-0.061 6.325,1.008 9,2 3.09,-0.243 1.689,-4.977 6,-4 -1.669,4.522 -1.094,5.072 -3,9 9.396,-4.894 15.458,-17.477 30,-14 1.656,-1.01 1.086,-4.247 2,-6 3.156,0.489 3.531,-1.802 7,-1 0.857,3.19 -1.574,3.093 -2,5 7.225,-5.674 21.327,-0.421 25,-8 1.357,0.31 0.83,2.504 1,4 7.009,-0.872 8.504,-3.296 15,-3 1.887,-1.779 0.739,-6.595 5,-6 0.826,2.826 -1.409,2.591 -1,5 2.945,-0.721 4.888,-2.445 6,-5 2.833,0.167 4.167,1.833 7,2 1.85,-0.15 0.614,-3.386 2,-4 3.236,-1.236 0.764,3.236 4,2 2.077,-0.257 0.273,-4.394 2,-5 3.228,-0.895 1.405,3.262 3,4 2.784,-4.216 1.717,-12.283 8,-13 0.843,4.51 -2.34,4.993 -3,8 -0.127,1.793 1.224,2.109 1,4 3.307,-0.893 2.304,-6.089 7,-3 1.531,-1.444 -1.227,-7.104 4,-7 0.319,2.319 -0.161,3.839 -1,5 1.615,-0.282 1.722,0.945 3,1 2.077,-0.257 0.273,-4.394 2,-5 1.088,3.815 4.812,-1.215 4,4 2.88,-0.12 1.735,-4.265 5,-4 1.215,3.474 2.422,3.796 0,7 0.31,1.357 2.504,0.83 4,1 3.182,-3.484 4.535,-8.798 8,-12 4.09,2.43 -3.67,7.615 -5,11 3.882,2.836 9.975,-0.658 12,-3 2.396,-0.396 -0.555,4.555 3,3 6.984,-1.792 -0.699,-6.473 5,-9 2.879,1.181 2.799,4.605 7,2 -1.79,1.877 -3.571,3.762 -5,6 8.969,4.618 10.888,-6.432 17,-8 -0.016,2.984 -2.6,3.4 -3,6 3.364,-0.829 7.917,0.956 12,4 3.204,-0.463 3.526,-3.808 7,-4 1.2,1.313 0.39,1.573 0,3 4.528,0.861 6.229,-1.104 7,-4 1.172,0.162 0.844,1.823 1,3 3.789,-0.544 4.504,-4.163 7,-6 4.6,1.741 -3.965,5.574 0,10 11.66,-4.596 20.224,3.211 30,-3 -3.681,3.589 4.212,0.027 3,4 3.976,-0.691 4.936,-4.397 8,-6 3.288,2.083 -1.688,4.217 -2,6 5.378,0.259 6.033,-0.652 12,1 3.906,0.239 3.619,-3.714 5,-6 4.854,-0.814 3.495,3.528 8,2 -3.007,-3.104 -1.159,-5.989 2,-8 1.23,0.437 2.054,1.28 2,3 3.315,-10.352 14.646,-12.688 17,-24 5.504,0.999 15.764,-8.244 22,-14 8.878,-8.195 23.642,-7.519 27,-20 1.357,0.31 0.83,2.504 1,4 1.987,-0.013 1.271,-2.729 4,-2 -0.839,-1.161 -1.319,-2.681 -1,-5 8.402,3.5 12.896,-4.027 15,-10 1.357,0.31 0.83,2.504 1,4 1.479,-0.521 2.521,-1.479 4,-2 -1.471,-6.181 -1.226,-12.967 7,-12 2.081,6.414 -5.698,2.968 -4,9 4.79,-0.876 7.458,-3.875 9,-8 8.023,3.199 3.164,-8.191 10,-9 1.281,3.948 -2.914,2.42 -3,5 -0.458,3.125 2.137,3.197 5,3 1.084,-2.676 6.023,-8.1 6,-15 3.023,1.514 -0.829,4.389 0,7 3.887,-1.247 2.019,-4.544 6,-7 4.711,8.284 9.42,-3.759 14,-5 0.271,4.146 -1.313,3.896 0,7 3.765,-3.569 6.241,-8.426 9,-13 1.172,0.162 0.844,1.823 1,3 4.976,-1.691 4.037,-9.296 9,-11 -0.246,3.087 -1.014,5.653 -2,8 5.59,-2.386 11.022,0.75 16,-5 2.209,0.125 0.425,4.242 1,6 2.928,0.261 3.072,-2.261 6,-2 -1.02,-7.353 3.153,-9.514 6,-13 1.889,0.111 0.694,3.306 3,3 5.731,-1.602 4.895,-9.772 7,-15 3.008,-1.008 1.771,2.228 2,4 4.031,-1.97 7.403,-0.439 9,-6 1.794,2.158 1.757,4.592 1,7 3.059,0.726 2.941,-1.725 6,-1 -2.712,-5.214 3.798,-6.713 5,-11 1.357,0.31 0.83,2.504 1,4 5.146,0.146 3.427,-6.574 6,-9 3.799,0.911 0.731,4.019 1,7 5.819,-1.847 4.698,-10.635 13,-10 -1.887,6.22 3.519,5.148 5,8 2.012,-5.321 9.021,-5.646 11,-11 3.616,4.444 8.092,-0.851 11,-3 5.978,5.982 8.429,-4.402 12,-7 3.123,2.229 -1.968,4.62 -2,7 2.594,-1.406 6.614,-1.386 9,-3 -4.897,-3.494 5.685,-9.464 2,-15 1.922,2.875 7.941,2.411 9,-1 3.955,1.067 -0.254,3.033 0,6 4.031,-2.635 8.628,-4.705 11,-9 2.021,3.979 6.768,5.233 8,10 4.482,-2.234 5.442,-1.524 8,2 7.128,-2.016 9.12,-4.098 18,-5 5.037,-1.63 2.059,-11.275 8,-12 0.537,6.538 -5.199,6.801 -4,14 3.571,-1.096 5.029,-4.304 7,-7 2.138,2.688 1.867,5.589 0,8 2.634,-1.436 5.371,-0.753 9,1 5.527,-0.473 4.171,-7.829 11,-7 -0.663,4.003 -0.63,8.704 -2,12 1.334,3.083 4.447,-1.864 6,1 -3.17,-6.781 -1.579,-18.456 7,-23 0.812,5.145 -0.807,7.86 -3,10 6.872,0.206 5.255,-8.078 12,-8 -2.002,1.998 -2.921,5.079 -6,6 6.286,4.583 6.749,-5.224 11,-6 -0.957,2.043 -2.043,3.957 -3,6 3.511,2.308 10.746,-0.299 13,4 4.024,0.691 2.456,-4.211 6,-4 0,1.333 0,2.667 0,4 4.938,0.787 6.416,0.279 11,-1 2.581,3.854 13.666,3.737 18,0 1.109,1.891 2.494,3.505 3,6 5.621,-1.481 9.001,-2.358 13,-7 3.08,0.26 0.674,7.4 0,10 5.999,-1.372 5.608,-0.442 9,3 7.045,-5.321 11.039,2.462 19,2 3.896,-2.437 4.031,-8.636 7,-12 -0.592,2.278 3.188,11.272 -2,12 0.218,3.658 1.374,3.836 0,7 5.727,0.394 6.541,-4.126 13,-3 0,5 7.227,6.979 5,11 5.671,-1.811 8.042,-1.731 13,-5 -1.748,4.918 -5.906,7.427 -10,10 4.461,2.428 10.486,-2.155 13,-5 1.422,6.578 9.333,6.667 14,10 -0.85,1.483 -2.517,2.15 -5,2 0,1.667 0,3.333 0,5 4.003,-0.33 5.943,-2.723 9,-4 3.21,1.457 6.155,3.178 7,7 5.581,0.581 7.012,-2.988 12,-3 2.025,1.926 2.325,4.024 1,7 0.274,2.358 3.726,-0.092 4,-1 1.865,4.255 -5.197,7.857 0,12 5.562,0.228 6.195,-4.471 11,-5 0.826,2.826 -1.409,2.591 -1,5 5.116,0.45 5.475,-3.859 10,-4 -2.856,2.84 3.636,1.439 2,6 -6.045,0.621 -9.582,3.751 -13,7 1.745,1.489 11.189,-2.029 13,2 0.792,3.458 -1.111,4.222 -2,6 6.819,2.799 12.229,-4.422 19,-5 0.745,3.078 -2.745,1.922 -2,5 4.837,-1.14 10.443,-5.286 15,-1 0.319,2.319 -0.16,3.839 -1,5 5.838,-1.345 8.964,-10.12 16,-7 -2.93,4.926 -1.828,8.354 -6,11 0.19,0.81 1.003,0.997 1,2 1.402,2.913 3.445,-1.773 6,-1 0,1.333 0,2.667 0,4 6.169,-2.216 12.873,-7.927 19,-7 0,1.667 0,3.333 0,5 -4.686,0.648 -7.141,3.526 -11,5 3.975,1.475 7.569,3.636 11,7 3.266,-4.489 6.789,-0.665 12,-2 8.109,-2.078 14.639,-9.913 21,-7 0.556,0.254 -1.085,3.023 -1,3 3.09,-0.829 5.254,-6.552 9,-8 5.408,-2.091 9.521,2.22 14,-2 -0.917,3.75 -5.246,4.087 -8,6 1.006,3.976 6.026,0.959 9,1 0.541,3.541 -3.541,2.459 -3,6 0.431,2.236 4.928,0.405 7,1 -1.066,2.885 -3.033,3.316 -6,2 1.068,1.932 0.694,5.306 5,4 -0.852,3.814 -2.973,6.36 -4,10 7.312,1.607 -0.199,5.509 10,4 0.428,2.762 -3.729,0.938 -4,3 -1.273,5.403 7.762,4.26 4,9 1.904,-0.429 2.513,-2.154 5,-2 -1.399,5.729 4.588,-0.82 4,5 7.858,-2.756 11.174,-0.255 17,3 0.466,1.913 -3.082,4.304 1,4 0.744,3.078 -2.744,1.922 -2,5 2.733,2.987 9.601,-3.653 12,-1 -0.083,3.917 -5.417,2.583 -8,4 1.568,4.456 8.705,6.322 14,4 -2.7,4.372 1.606,5.027 1,10 1.904,-0.429 2.512,-2.154 5,-2 0.309,3.643 -0.159,6.508 -1,9 0.979,1.354 3.371,1.296 4,3 3.579,-1.754 7.971,-2.696 13,-3 -1.442,3.891 -6.154,4.513 -11,5 -0.489,3.156 1.802,3.531 1,7 7.139,4.448 10.539,-0.446 19,0 1.062,3.729 -3.75,1.583 -3,5 4.092,0.823 10.871,1.715 14,-2 1.749,1.908 -2.558,7.809 -6,5 1.66,3.332 -2.441,4.192 -1,10 3.015,-0.652 3.406,-3.927 6,-5 3.982,1.745 6.491,-1.218 10,1 0.306,2.306 -2.889,1.111 -3,3 2.388,3.269 12.614,-0.823 18,-1 0.086,-1.419 0.165,-2.832 -1,-3 0.125,-2.208 4.242,-0.425 6,-1 0,2 0,4 0,6 3.826,0.493 3.193,-3.473 8,-2 0.777,2.223 2.101,3.899 2,7 5.064,0.269 9.07,1.596 11,5 -5.662,0.996 -5.987,-3.346 -12,-2 0,1.333 0,2.667 0,4 3.577,4.756 12.989,3.677 13,12 -3.392,-2.128 -6.698,-2.451 -9,1 3.841,5.826 16.684,2.649 17,12 1.333,0 2.667,0 4,0 -2.099,6.869 -1.14,6.074 -4,10 1.157,3.977 6.268,-0.459 11,1 1.378,1.289 0.99,4.344 1,7 6.113,2.887 15.182,2.819 18,9 -3.405,1.733 -5.865,-0.769 -11,0 -1.605,1.394 -1.064,4.935 -3,6 9.904,0.383 15.277,-2.564 24,-1 0.319,2.319 -0.16,3.839 -1,5 8.688,3.208 16.209,3.547 26,4 1.199,2.133 1.221,5.447 4,6 -0.85,1.483 -2.517,2.15 -5,2 1.299,1.329 1.318,3.721 -1,4 9.939,1.4 8.564,15.988 21,12 -1.829,4.242 2.934,6.94 -1,9 2.56,6.44 11.467,6.533 15,12 3.164,0.164 3.342,-2.658 7,-2 -0.409,6.809 -6.299,2.205 -11,5 2.055,2.312 8.636,0.693 11,0 -4.411,5.963 7.974,0.448 12,0 0.789,6.455 -5.229,6.104 -9,8 0.406,1.927 3.877,0.79 3,4 -3.469,-0.802 -3.844,1.489 -7,1 5.026,2.333 13.057,-0.923 18,-2 -2.415,-3.918 4.924,-7.792 8,-6 -0.84,3.494 -5.086,3.581 -7,6 0.682,1.985 3.045,2.288 4,4 -0.412,3.588 -3.848,4.153 -5,7 1.619,4.916 6.622,-1.571 10,1 0.424,4.091 -6.793,0.541 -7,4 2.088,2.981 5.26,-1.328 9,0 0.776,3.443 -0.557,4.776 -4,4 1.953,2.247 0.871,7.522 0,10 4.911,3.755 11.092,6.242 18,8 0,1.333 0,2.667 0,4 -3.241,1.425 -8.439,0.894 -11,3 -0.088,4.088 4.953,3.046 6,6 4.632,-3.767 17.215,-2.397 12,6 6.555,-0.221 12.945,-0.278 16,3 1.468,5.468 -2.551,5.449 -4,8 8.839,-5.156 11.382,2.683 18,5 0.572,12.573 -8.246,15.753 -14,22 8.834,-4.255 14.523,-19.119 28,-10 2.162,-0.838 3.411,-2.589 7,-2 0.443,0.89 0.878,1.789 2,2 -2.186,10.815 -12.326,13.673 -19,20 5.411,2.055 10.096,-5.22 18,-4 0.443,0.89 0.878,1.789 2,2 0.518,6.185 -3.941,7.393 -9,8 0.306,3.027 3.094,3.573 2,8 -2.091,0.576 -2.854,2.479 -6,2 4.09,2.747 10.103,-4.935 14,0 4.109,11.306 -3.272,14.787 -10,18 -0.282,1.615 0.945,1.722 1,3 6.627,0.294 8.805,-3.863 15,-4 1.654,5.561 2.842,9.273 9,12 0.607,3.941 -2.237,4.429 -5,5 2.055,2.278 8.636,0.031 11,2 0.319,2.319 -0.16,3.839 -1,5 4.397,1.936 13.212,-0.545 16,3 0.111,6.111 -8.582,3.417 -14,4 4.396,5.604 19.908,0.091 20,10 -6.636,2.598 -13.947,-0.881 -20,-2 5.816,3.85 13.709,5.625 21,8 0,1.667 0,3.333 0,5 -3.414,1.818 -4.805,-0.135 -9,0 3.923,2.744 8.539,4.794 14,6 -1.514,3.024 -4.389,-0.829 -7,0 3.855,3.478 10.448,4.219 15,7 -0.246,3.087 -1.014,5.653 -2,8 -2.656,-0.01 -5.711,0.378 -7,-1 0.16,5.853 14.496,6.16 15,15 -2.594,2.3 -6.614,-0.036 -9,-1 -0.254,6.028 17.992,7.201 14,17 -8.001,-0.999 -10.994,-7.005 -18,-9 7.974,12.695 27.445,22.553 38,36 0.424,2.09 -0.686,2.648 -1,4 1.538,3.795 6.462,4.205 8,8 -0.549,3.118 -3.031,4.303 -4,7 -7.34,-0.445 -16.511,-7.402 -23,-12 5.582,10.421 23.775,16.889 30,30 -0.973,0.027 -0.775,1.224 -1,2 -7.883,-0.45 -11.41,-5.256 -17,-8 7.618,9.049 19.393,13.941 25,25 -0.973,0.027 -0.775,1.224 -1,2 -8.487,0.821 -9.805,-5.529 -17,-6 11.203,16.463 31.698,23.635 41,42 -13.662,-4.338 -20.316,-15.684 -31,-23 9.35,12.983 25.451,19.215 33,34 -15.616,-5.717 -24.981,-17.686 -37,-27 -0.919,16.256 18.849,20.481 27,31 0.539,3.538 -1.617,4.383 -3,6 -10.826,-4.174 -19.293,-10.707 -28,-17 7.698,12.971 28.156,21.842 37,37 -10.166,3.06 -20.554,-9.792 -29,-15 6.072,12.262 21.044,15.623 24,31 -11.543,-0.124 -13.722,-9.611 -21,-14 4.643,8.691 12.303,14.364 15,25 -2.923,0.744 -1.936,5.398 -6,5 1.334,3.032 3.561,5.768 2,9 -16.111,-3.05 -17.158,-15.792 -27,-24 4.417,13.288 17.991,22.625 17,38 -9.537,-1.13 -10.747,-10.586 -17,-15 -0.299,5.965 3.631,7.703 4,13 -0.89,0.443 -1.789,0.878 -2,2 -7.742,-0.591 -8.531,-8.135 -13,-12 -3.753,-0.753 -2.18,3.82 -5,4 -12.453,-2.214 -13.216,-16.117 -21,-23 -2.665,12.724 10.185,23.74 6,38 -4.524,0.19 -6.062,-2.604 -7,-6 -2.209,0.125 -0.424,4.242 -1,6 -1.162,-0.162 -1.779,0.221 -2,1 -7.295,-3.038 -7.271,-13.395 -11,-20 -8.82,2.987 -11.219,-8.658 -15,-14 -3.07,4.045 -7.82,0.538 -9,-3 -2.835,4.646 2.21,11.983 -2,16 -6.928,0.515 -5.072,-5.696 -12,-3 -2.843,-4.49 -4.731,-9.936 -5,-17 -3.235,0.098 -2.135,4.532 -7,3 -5.502,-14.832 -6.812,-33.854 -9,-52 -1.778,0.889 -2.541,2.792 -6,2 -3.016,-2.317 -2.4,-8.267 -4,-12 -2.064,6.269 -1.025,15.642 -3,22 -1.667,0 -3.333,0 -5,0 -2.764,-11.065 1.675,-22.771 1,-35 -0.897,-0.774 -8.106,1.474 -6,-5 -0.111,-1.917 -3.349,1.175 -6,0 -1.424,-10.384 3.557,-26.734 -2,-37 -2.804,5.863 -3.785,13.548 -6,20 -7.882,-1.548 -3.861,8.805 -12,7 -1.98,-9.333 2.566,-19.843 4,-29 -1.223,-1.444 -3.816,-1.517 -5,-3 0,-5 0,-10 0,-15 -5.431,0.236 -1.533,9.8 -4,13 -4.042,0.708 -5.709,-0.958 -5,-5 -1.907,0.426 -1.81,2.857 -5,2 -3.047,-5.987 -6.389,-9.793 -8,-15 -2.246,0.42 -0.027,5.306 -2,6 -6.57,-3.096 -5.253,-14.08 -10,-19 -2.876,4.181 4.336,12.551 -2,15 -3.551,-1.449 -3.827,-6.173 -4,-11 -1.191,4.475 -1.8,9.534 -3,14 -2.42,-3.58 -2.084,-9.916 -5,-13 -3.13,2.912 -3.899,4.955 -3,10 -1.426,-1.908 -2.324,-4.342 -3,-7 -2.203,-0.518 -5.517,5.038 -6,0 -1.023,1.991 -0.439,4.579 -1,9 -5.291,-7.039 0.912,-11.081 2,-16 -0.914,-3.357 -1.859,-0.495 -5,-1 0,-2.333 0,-4.667 0,-7 -0.56,-2.259 -1.561,1.212 -3,-1 -0.412,8.399 -6.627,15.406 -5,25 -8.711,-5.384 1.201,-14.171 -3,-21 -3.553,0.114 -4.023,3.31 -4,7 -3.082,-0.042 -3.576,-5.305 -2,-7 -0.248,-1.086 -1.988,-0.678 -2,-2 -7.326,4.09 -7.003,12.42 -8,21 -2.045,-5.083 -1.488,-7.221 -1,-17 -2.312,1.687 -4.352,3.648 -7,5 -0.158,-7.061 -6.117,-2.387 -6,-10 -5.308,0.026 -2.352,8.315 -7,9 -2.281,-4.375 2.432,-6.574 1,-13 -1.223,-3.048 -3.816,1.462 -5,-1 0.7,-3.078 0.7,-1.922 0,-5 -3.847,1.002 -1.858,4.036 -3,6 -1.995,-1.88 -1.578,-3.632 -5,-2 -0.09,-3.736 -1.121,-2.85 0,-6 -1.807,-3.096 -3.062,-0.534 -7,-1 -0.839,-1.161 -1.319,-2.681 -1,-5 -2.711,0.955 -6.895,0.438 -6,5 -2.322,0.54 -3.446,-5.064 -5,-2 -0.824,-0.497 -1.787,-5.577 1,-7 -0.553,-3.447 -5.57,-2.43 -5,-7 -0.792,2.643 -2.758,6.021 -4,1 -2.27,1.064 -0.381,6.286 -1,9 1.017,-0.65 1.034,-2.299 3,-2 0.265,4.14 -3.881,1.33 -4,3 -1.752,-3.248 -1.423,-8.577 -5,-10 -1.615,-0.282 -1.721,0.945 -3,1 -0.802,3.469 1.489,3.844 1,7 -0.729,-2.271 -4.228,-1.772 -6,-3 0,-2.667 0,-5.333 0,-8 -8.059,-0.059 -1.021,14.978 -7,17 0.539,-5.686 1.244,-8.583 0,-14 -1.419,0.086 -2.832,0.165 -3,-1 -3.02,2.313 -3.27,7.397 -5,11 0.356,-7.828 -1.488,-19.044 -4,-27 -5.437,-0.437 -4.642,5.358 -9,6 -0.719,-2.295 -0.723,-4.295 -4,-6 -0.988,2.678 -2.793,4.541 -3,8 1.963,2.591 -2.713,-1.601 -1,-5 -3.353,-0.686 -3.655,1.678 -4,4 -2.983,-2.012 -6.913,-4.992 -11,-3 -0.193,-3.86 4.645,-2.689 4,-7 4.351,2.57 6.327,-1.115 10,-2 0.688,-4.021 -0.958,-5.708 -1,-9 -1.904,0.429 -2.513,2.154 -5,2 0,-1.333 0,-2.667 0,-4 -7.372,1.961 -11.416,7.251 -17,11 -3.676,-3.1 3.442,-3.824 2,-8 9.734,2.446 8.049,-12.3 4,-15 -1.352,0.982 -1.998,2.668 -3,4 -2.763,-1.904 -0.377,-8.957 -4,-10 -3.994,-0.327 -2.11,5.224 -4,7 -2.611,-4.773 -2.168,3.203 -6,3 -0.826,-2.827 1.409,-2.59 1,-5 -1.975,0.691 -2.666,2.667 -3,5 -1.92,-7.463 5.23,-18.992 8,-26 -0.546,-4.121 -3.481,-5.852 -5,-9 -1.205,1.129 -1.812,2.854 -5,2 -0.153,-5.18 1.021,-11.687 -3,-13 -4.129,1.927 -4.771,7.852 -3,13 -10.693,-3.578 0.442,-19.995 -5,-27 -0.442,3.473 -2.735,9.925 -1,15 -0.933,1.067 -3.689,0.311 -3,3 -1.539,-14.904 -4.505,-27.142 -18,-32 -1.172,0.162 -0.844,1.823 -1,3 -2.306,0.306 -1.111,-2.889 -3,-3 -3.403,0.264 -2.829,4.504 -5,6 -4.786,-9.258 -0.318,-30.09 -15,-32 -1.552,6.218 7.782,1.551 7,7 -6.934,-1.255 -5.02,1.794 -6,5 -3.602,0.602 -2.947,-3.053 -6,-3 -1.815,1.954 3.091,3.678 -2,5 1.071,2.926 5.526,12.02 7,8 2.236,0.431 0.405,4.928 1,7 2.503,1.32 3.131,-3.954 4,-1 0.302,2.635 -1.385,3.282 -4,3 0.013,1.987 2.729,1.271 2,4 -5.032,3.237 -10.329,-0.67 -12,-4 -2.236,0.431 -0.405,4.928 -1,7 -3.815,0.148 -4.815,-2.518 -8,-3 3.57,5.647 2.689,12.653 7,19 -3.727,0.061 -6.325,-1.008 -9,-2 -0.641,3.026 8.428,6.744 11,7 -4.932,2.146 -1.267,7.11 -2,13 -3.74,-0.593 -5.171,-3.496 -8,-5 -4.52,3.336 -2.492,7.69 -5,12 1.848,3.152 8.468,1.532 9,6 -2.355,-0.022 -2.944,1.723 -6,1 0,1.333 0,2.667 0,4 1.288,3.115 5.611,-2.515 6,2 0.144,4.019 -2.564,2.646 -5,2 -3.625,-0.292 0.096,6.762 -5,5 -1.532,4.866 2.902,3.765 3,7 -2.104,-2.196 -4.445,-0.207 -6,1 -3.714,-0.62 -4.575,-4.092 -10,-3 1.512,7.822 7.02,11.647 14,14 -1.696,3.78 -0.895,4.856 -2,8 -2.969,-0.381 -7.246,-2.46 -9,-1 1.442,1.557 4.027,1.973 3,6 2.409,0.41 2.174,-1.827 5,-1 1.427,1.334 1.427,5.666 0,7 -4.146,1.146 -3.896,-2.104 -7,-2 -1.794,-0.127 -2.109,1.224 -4,1 -1.144,8.477 11.703,2.963 11,11 -2.919,1.708 -8.003,-2.837 -11,1 4.17,4.742 -0.424,2.639 0,8 2.546,2.012 7.656,2.563 11,1 0.769,4.565 3.826,6.84 5,11 -3.547,1.167 -12.055,-0.335 -16,-2 -3.432,7.783 5.037,12.283 11,14 -2.98,1.868 -4.498,1.397 -3,6 -0.89,-0.776 -2.258,-1.075 -4,-1 -2.784,-0.451 0.784,5.451 -2,5 1.523,2.477 6.213,1.787 6,6 -2.465,0.132 -4.818,0.151 -6,-1 0.258,3.698 1.955,4.418 -3,4 -0.304,4.637 0.01,8.657 2,11 4.124,0.209 8.772,-0.105 9,4 -5.055,1.055 -5.721,-2.279 -10,-2 0.846,4.487 6.225,4.442 5,11 -1.413,1.512 -4.857,3.158 -7,1 -0.163,10.496 10.301,10.366 9,22 -1.986,-0.013 -1.271,-2.729 -4,-2 0.041,3.292 1.688,4.979 1,9 -2.928,0.898 -3.072,0.898 -6,0 0,5.998 5.84,6.16 5,13 -2.503,-0.831 -3.927,-2.739 -7,-3 0.314,7.686 7.841,8.159 10,14 -3.658,0.658 -3.836,-2.164 -7,-2 -0.386,2.083 0.975,9.698 0,13 -4.471,-1.195 -5.863,-5.471 -10,-7 2.396,7.27 9.367,9.966 11,18 -2.729,0.729 -2.013,-1.987 -4,-2 0.136,2.116 1.849,7.271 2,11 3.3,3.366 10.212,3.121 11,9 -3.19,0.857 -3.093,-1.574 -5,-2 -1.759,0.241 -2.279,1.721 -2,4 1.598,1.637 9.729,-0.569 10,5 -2.091,0.424 -2.647,-0.686 -4,-1 1.577,2.423 3.577,4.422 6,6 -2.112,0.521 -4.91,-0.539 -8,-2 -3.146,6.834 5.997,9.986 11,12 -0.257,2.341 -4.394,0.576 -5,0 1.313,3.687 3.323,6.677 6,9 -0.437,1.23 -1.279,2.054 -3,2 0.801,6.457 11.065,3.225 14,5 -4.446,2.413 -13.467,0.824 -17,-1 -0.763,0.789 -0.72,3.497 0,5 0.42,2.246 5.306,0.027 6,2 -3.016,3.428 -3.57,7.628 -1,12 -2.545,-0.516 -3.878,-1.704 -4,2 6.128,2.111 14.805,2.721 11,12 8.005,8.805 8.258,20.105 13,31 2.451,1.549 7.396,0.604 7,5 -8.448,-0.514 3.662,12.663 4,19 3.246,-0.58 4.652,0.682 7,1 -1.589,6.777 8.004,10.523 8,19 13.582,8.436 16.326,18.59 15,41 0.732,0.934 1.818,1.516 3,2 -0.612,16.635 6.695,33.796 -1,46 -0.715,2.715 4.715,-0.716 4,2 0.688,3.327 -2.067,1.611 -3,1 -0.587,12.587 0.723,23.277 1,35 0.15,1.85 3.387,0.614 4,2 -0.333,14 2.228,25.106 2,39 -1.986,0.013 -1.271,2.729 -4,2 2.324,4.113 -0.331,8.197 3,10 -0.979,1.354 -3.371,1.296 -4,3 9.586,23.358 1.759,52.159 9,76 -0.291,3.747 -5.112,8.17 -2,12 -1.386,1.947 -3.595,3.072 -4,6 -0.168,2.168 3.547,0.453 5,1 2.028,6.639 0.553,16.78 1,25 -1.313,-1.2 -1.572,-0.39 -3,0 0.664,5.997 -0.907,9.76 -1,15 4.136,3.197 6.415,8.251 6,16 -3.122,0.938 -3.157,4.248 -7,2 3.439,14.368 0.449,42.286 15,51 -2.343,2.785 -7.384,-2.929 -6,4 -2.928,-0.898 -3.072,-0.898 -6,0 0.271,10.271 -7.813,12.186 -10,20 -3.045,-3.146 -6.658,-0.208 -9,-3 -6.041,6.292 -15.536,9.131 -22,15 -17.781,-1.504 -44.572,-1.887 -64,-5 -17.864,-11.202 -10.594,-43.66 -11,-67 9.578,-15.422 22.17,-27.83 28,-47 -0.429,-1.904 -2.154,-2.513 -2,-5 7.898,-12.422 -3.432,-30.349 5,-40 -3.343,-5.468 -1.294,-10.123 -5,-15 5.178,-22.369 5.006,-52.796 6,-84 -0.354,-1.146 -1.761,-2.534 -2,-1 -2.944,-25.405 -10.795,-51.184 -17,-70 -6.489,-1.511 -0.895,-15.105 -9,-15 1.717,-10.3 -5.942,-5.248 -4,-16 -5.415,-2.919 -9.61,-7.057 -10,-15 -1.711,-0.044 -2.59,0.743 -3,2 -3.038,-1.232 1.084,-3.438 0,-6 -0.908,-2.419 -2.951,2.267 -6,1 -0.792,-3.458 1.111,-4.222 2,-6 -9.263,-17.403 -24.367,-28.966 -37,-43 -12.529,1.503 -17.314,-10.68 -23,-21 -2.826,-0.826 -2.591,1.409 -5,1 -0.254,-3.412 -2.14,-5.194 -6,-5 0.994,-5.994 -1.964,-8.036 -5,-10 -2.476,0.965 1.378,3.84 0,7 -4.727,0.394 -2.165,-6.502 -6,-7 -1.186,12.128 5.117,21.797 3,36 -0.833,5.587 -3.666,10.753 -4,16 -0.574,9.006 4.194,24.686 3,38 -5.1,56.846 -14.192,113.598 -17,168 -2.951,1.382 -4.049,4.618 -7,6 2.087,19.77 -20.591,25.721 -9,43 -7.335,-0 -8.036,6.631 -12,10 -13.84,-0.48 -27.522,7.062 -38,-1 -3.767,3.566 -6.605,8.062 -10,12 -9.712,-3.982 -32.116,-2.007 -46,-1 2.617,-2.735 -1.611,-4.265 -2,-7 -5.113,3.553 -8.484,8.85 -16,10 0.34,-2.007 -0.204,-3.129 -2,-3 2.828,-5.941 3.134,-15.938 10,-15 -1.812,-2.389 -7.83,-0.563 -10,0 -1.151,-1.182 -1.132,-3.535 -1,-6 -2.866,1.8 -6.698,2.635 -9,5 -4.236,-10.914 6.889,-15.104 11,-21 -2.447,-13.016 4.603,-31.543 14,-41 0.409,-2.409 -1.826,-2.174 -1,-5 11.441,-8.066 29.728,-6.351 41,-5 1.461,-0.872 3.873,-0.794 3,-4 10.924,-1.161 6.373,-9.151 6,-16 -1.247,-22.915 10.438,-50.44 14,-71 0.729,-2.729 -1.987,-2.013 -2,-4 4.621,-5.801 -0.399,-13.608 6,-21 -0.31,-1.357 -2.504,-0.83 -4,-1 1.215,-3.118 1.871,-6.796 7,-6 -3.957,-4.685 -1.846,-14.92 1,-20 -0.241,-2.578 -1.721,1.373 -4,0 -1.143,-10.188 6.734,-20.3 1,-26 1.921,-3.729 5.687,-12.562 0,-14 0.606,-3.061 2.123,-5.21 3,-8 0.154,-2.487 -1.57,-3.096 -2,-5 5.474,-16.792 -8.723,-24.15 -12,-38 -4.896,1.229 -3.886,-3.448 -8,-3 -0.69,-5.643 -3.439,-9.228 -9,-10 2.566,-3.297 -0.146,-7.996 0,-12 -8.771,-0.43 -14.158,-6.358 -24,-8 -1.759,0.241 -2.279,1.721 -2,4 -2.236,-0.431 -0.405,-4.928 -1,-7 -4.672,-0.338 -7.004,1.663 -10,3 -0.334,-3.541 -2.751,-2.459 -1,-6 -3.986,-0.319 -7.389,-0.055 -9,2 -2.655,-0.345 -3.375,-2.625 -4,-5 -2.006,0.994 -4.049,1.951 -6,3 -1.975,-0.691 -2.666,-2.668 -3,-5 -3.736,0.09 -2.851,1.121 -6,0 1.408,-6.075 -5.202,-4.131 -5,-9 -5.039,-0.039 -1.577,8.423 -6,9 2.201,-7.953 -3.693,-10.574 -2,-15 -5.945,-0.722 -8.482,-4.852 -14,-6 -3.469,-13.612 -14.955,-18.401 -19,-29 -1.667,0 -3.333,0 -5,0 -1.638,-8.029 -6.103,-13.23 -13,-16 1.242,-9.026 -6.875,-17.038 -15,-20 -0.732,-9.935 -7.299,-14.035 -13,-19 -2.209,0.125 -0.425,4.242 -1,6 -5.86,0.86 -3.332,-6.668 -7,-8 -1.652,2.946 0.539,5.186 0,11 -2.973,-1.693 -5.054,-4.279 -9,-5 1.71,9.035 2.121,24.229 9,31 -9.764,-0.909 -15.435,-14.561 -23,-21 -2.209,0.125 -0.425,4.242 -1,6 -5.776,1.109 -3.674,-5.659 -8,-6 -1.984,8.269 9.515,21.436 5,29 -0.984,-4.215 -1.577,-16.037 -7,-19 -2.59,1.696 1.938,4.65 1,8 -1.768,-0.898 -2.92,-2.414 -5,-3 -5.22,2.513 -0.829,5.802 -1,11 -4.028,-2.426 -9.518,-12.519 -14,-8 -3.419,-1.914 -3.425,-7.242 -7,-9 -1.828,4.853 3.955,10.693 6,15 -0.91,2.735 -3.504,-1.774 -5,1 1.009,1.991 1.729,4.271 4,5 -0.834,1.389 -5.282,-0.309 -2,3 -4.632,1.275 -9.489,-5.826 -14,-8 -1.357,0.31 -0.83,2.504 -1,4 -2.717,0.435 -7.675,-5.002 -7,1 -1.876,-1.125 -2.125,-3.875 -4,-5 -3.798,8.813 4.508,14.147 9,18 -5.282,-0.779 -10.922,-7.396 -16,-7 -2.931,0.848 0.598,3.22 0,5 -2.055,-0.279 -1.996,-2.671 -3,-4 -3.766,1.91 -4.234,1.91 -8,0 0.593,3.606 1.688,6.706 0,10 -4.271,0.271 -4.35,-3.65 -7,-5 -3.671,2.057 -0.061,5.213 -1,10 -5.37,-1.297 -5.502,-7.831 -9,-11 -1.927,1.852 -0.79,1.832 -4,1 -0.528,4.195 1.747,5.586 2,9 -3.135,0.468 -2.819,-2.515 -4,-4 -2.382,0.617 -1.643,4.357 -6,3 0.938,2.075 0.175,4.844 3,7 -2.965,3.222 -4.926,-3.018 -8,-3 -3.038,1.232 1.084,3.438 0,6 -4.156,-3.844 -8.19,-7.81 -16,-8 -0.851,3.775 3.321,4.694 1,7 -5.321,-0.012 -6.032,-4.635 -9,-7 -2.246,0.42 -0.027,5.307 -2,6 -3.658,0.658 -3.836,-2.164 -7,-2 -2.615,7.964 7.466,11.856 7,21 -6.638,-9.832 -12.129,-22.221 -24,-24 -4.095,2.793 -3.648,4.185 -9,2 -0.902,4.285 6.382,5.552 4,8 -0.623,5.065 -2.221,-2.909 -6,-1 3.321,6.346 10.642,8.692 17,12 -2.567,1.85 -8.882,-1.08 -11,-3 -1.273,0.227 -1.311,2.984 0,3 -4.045,-0.971 -7.619,-11.035 -15,-12 -3.305,1.5 2.078,2.445 1,5 -3.405,0.072 -3.725,-2.941 -5,-5 -2.487,0.109 -3.096,1.874 -5,0 0.914,1.753 0.344,4.989 2,6 -0.43,1.57 -3.146,0.854 -2,4 -3.79,-2.877 -8.46,-4.873 -16,-4 -2.652,1.445 3.672,2.233 2,6 -5.918,-4.748 -15.15,-6.183 -20,-12 -5.871,6.335 3.451,11.75 7,15 -3.371,1.338 -7.724,-4.918 -12,-6 -2.032,3.83 -5.732,2.117 -9,3 -0.34,2.007 0.204,3.129 2,3 -1.442,1.892 -6.438,0.229 -6,4 -2.08,-0.586 -3.232,-2.102 -5,-3 -2.226,0.42 -0.783,5.307 0,6 -2.418,-2.266 -6.6,-11.388 -12,-14 -1.438,2.74 -2.52,1.156 -5,0 1.846,3.82 2.172,9.161 3,14 -3.89,-3.443 -2.295,-12.371 -10,-12 -0.38,3.38 1.733,4.267 3,6 -2.885,1.732 -5.316,-2.704 -9,1 -2.116,-1.217 -2.904,-3.763 -6,-4 -1.324,2.37 3.18,7.452 6,9 -5.464,3.432 -8.011,-4.631 -12,-6 0.368,12.632 7.352,18.648 11,28 -6.608,-0.881 0.604,5.877 -3,8 7.359,6.291 9.576,19.679 12,28 -1.777,-2.08 -5.04,-6.23 -9,-3 -0.701,3.701 3.506,2.494 5,4 -4.536,-2.241 -4.375,6.137 -1,9 -0.85,2.934 -2.517,-1.301 -5,0 0.163,1.162 -0.221,1.779 -1,2 0.691,1.975 2.667,2.666 5,3 -2.329,1.337 -6.226,1.108 -6,5 0.125,2.209 4.242,0.425 6,1 -1.83,5.837 -12.831,2.503 -13,10 3.673,-3.686 4.529,1.188 9,-1 0.818,5.485 -5.076,4.257 -6,8 3.204,1.506 1.146,3.604 1,7 0.274,2.358 3.726,-0.092 4,-1 0.689,7.189 4.101,14.262 1,19 -0.75,6.083 7.174,3.492 6,10 3.769,0.769 4.78,-1.22 8,-1 -4.021,3.268 -14.146,2.484 -12,9 0.125,2.209 4.242,0.425 6,1 -3.108,5.031 2.871,5.361 8,5 -0.319,2.348 -3.095,2.238 -4,4 0.658,2.995 2.138,-0.956 4,0 -2.313,3.02 -6.263,4.404 -8,8 0.162,1.172 1.823,0.844 3,1 -1.614,1.386 -3.167,2.834 -5,4 2.75,3.153 5.229,0.632 10,1 -0.274,2.059 -3.726,0.941 -4,3 -0.318,2.652 5.602,-0.936 4,3 -5.649,1.685 -10.86,3.806 -14,8 0.112,2.555 3.349,1.984 6,2 -0.111,1.889 -3.306,0.693 -3,3 -0.168,2.169 3.547,0.453 5,1 -1.334,1.666 -4.447,1.554 -6,3 -0.493,3.16 4.962,0.371 4,4 -2.729,0.091 -2.013,-1.666 -4,0 0.95,8.05 3.248,14.752 10,17 -2.026,2.974 -7.748,2.252 -10,5 0.889,2.917 1.276,3.45 -1,5 0.989,3.568 8.54,1.681 9,3 -0.986,4.246 -6.047,2.872 -8,8 1.941,6.619 -3.19,13.52 -5,21 2.942,1.392 3.401,5.266 8,5 -0.723,3.056 1.022,3.645 1,6 -2.787,-4.521 -8.35,-1.56 -14,-1 -0.235,4.705 6.514,4.439 2,8 1.667,0 3.333,0 5,0 -0.435,2.232 -1.768,3.565 -4,4 1.587,5.144 1.662,6.781 5,11 -2.111,1.328 -2.956,-0.493 -6,1 0.601,2.065 1.546,3.787 5,3 -1.121,3.149 -0.09,2.264 0,6 -3.059,-0.726 -2.941,1.726 -6,1 -0.483,3.149 3.069,2.264 2,6 -8.509,2.142 -3.706,12.349 -1,17 -1.794,-0.127 -2.109,1.225 -4,1 1.067,0.933 0.311,3.688 3,3 -0.15,1.85 -3.386,0.614 -4,2 1.186,3.947 -1.726,8.288 4,9 -1.622,3.61 0.171,4.841 -1,8 1.453,2.547 5.315,2.685 7,5 -2.466,2.399 -4.766,-3.851 -9,-3 -3.095,1.701 -4.775,11.032 0,12 -0.658,1.342 -2.138,1.862 -4,2 -0.468,3.135 2.514,2.819 4,4 -0.982,2.802 -2.668,-1.452 -4,1 0.903,1.764 2.237,3.097 4,4 -2.816,2.517 -6.566,4.101 -7,9 3.454,1.213 4.381,4.952 10,4 1.701,3.483 -7.39,1.12 -3,4 -1.733,3.244 -2.62,-2.598 -6,-1 -2.6,0.733 -1.91,4.757 -5,5 -0.105,4.105 3.997,4.003 3,9 -1.333,0 -2.667,0 -4,0 2.8,3.637 0.8,7.066 2,11 -1.502,1.498 -4.211,1.789 -5,4 0.138,1.862 0.658,3.342 2,4 -0.56,2.259 -1.56,-1.213 -3,1 -0.483,3.149 3.069,2.264 2,6 -2.09,-0.424 -2.648,0.686 -4,1 1.067,0.933 0.311,3.688 3,3 -0.31,1.357 -2.504,0.83 -4,1 -0.723,3.056 1.022,3.645 1,6 -1.794,0.127 -2.109,-1.224 -4,-1 -0.393,6.06 5.017,6.316 6,11 -1.768,-0.898 -2.919,-2.414 -5,-3 -3.941,0.713 -0.126,5.09 -1,9 -0.271,1.216 -3.957,4.925 -4,4 0.205,4.352 6.416,6.832 6,13 -5.679,-1.346 -3.833,4.834 -7,6 0.237,3.096 2.783,3.884 4,6 -4.569,3.256 2.229,8.804 3,13 -1.907,-0.426 -1.81,-2.857 -5,-2 -1.153,6.072 -1.745,16.271 2,22 -4.285,2.491 -2.773,7.945 -5,10 0.31,1.357 2.504,0.83 4,1 -5.167,6.891 3.422,10.079 2,19 -2.039,1.745 -1.961,-0.745 -4,1 0.324,11.59 0.23,22.867 2,37 2.213,17.673 16.432,41.723 13,60 -1.541,8.207 0.788,17.464 5,27 -4.723,1.739 -5.841,-0.88 -9,-3 -1.896,4.05 -0.444,9.434 1,14 1.983,6.269 6.851,14.115 7,18 -0.055,-1.414 -2.759,3.714 -3,3 2.66,7.895 22.447,15.613 10,23 4.75,13.012 -4.454,28.392 -16,22 -10.578,6.086 -18.07,3.266 -32,6 -5.188,11.154 -24.54,12.261 -35,5 -4.884,0.116 -4.305,5.695 -6,9 -1.518,-4.359 -7.836,-2.274 -13,0 -3.926,-4.943 -17.465,-7.156 -24,-5 0.28,-2.279 -0.241,-3.759 -2,-4 -2.812,-0.146 -2.884,2.449 -3,5 -2.863,0.197 -5.458,0.124 -5,-3 -2.461,0.872 -2.239,4.428 -6,4 -2.981,-5.271 5.021,-4.743 3,-12 1.987,1.666 1.271,-0.091 4,0 -0.403,-9.957 -4.642,-14.932 -1,-24 -1.446,-2.651 -2.234,3.672 -6,2 4.216,-9.65 8.095,-33.935 10,-42 3.005,-18.181 21.207,-42.924 14,-65 -3.213,-0.213 -2.434,3.566 -4,5 -8.615,-11.581 1.631,-33.385 4,-43 -2.338,-6.892 -2.799,-10.734 1,-16 -1.812,-3.618 -2.758,1.766 -5,1 6.961,-16.124 2.025,-29.132 2,-48 -0.019,-13.879 -10.572,-22.359 -13,-36 -1.569,-8.814 0.104,-16.159 0,-25 -0.511,-2.823 -2.419,-4.247 -3,-7 1.041,-6.109 9.269,-15.193 4,-21 8.985,-15.579 -3.597,-32.237 7,-47 -3.689,-9.967 -3.251,-24.676 -5,-35 -3.206,-0.872 -3.127,1.539 -4,3 -0.751,-5.767 5.321,-13.334 4,-23 -3.283,1.05 -3.537,5.13 -5,8 1.186,-10.684 3.805,-22.438 5,-36 -4.641,-1.189 -1.753,-12.933 -2,-22 -0.87,-2.953 -1.497,2.32 -4,1 -1.021,-4.687 1.646,-5.688 3,-8 0.726,-3.059 -1.726,-2.941 -1,-6 -0.934,0.732 -1.515,1.818 -2,3 -3.354,-1.671 0.974,-7.67 -5,-5 3.546,-7.711 1.057,-17.712 -3,-25 2.919,-3.414 1.562,-11.104 5,-14 -1.5,-2.146 -2.445,0.716 -5,-1 -2.204,-2.111 1.283,-2.955 1,-6 -4.205,-0.871 -3.346,3.321 -5,5 -2.635,-3.353 2.584,-7.378 2,-12 -0.437,-1.484 -1.279,0.395 -3,0 0.606,-3.061 2.124,-5.21 3,-8 -1.011,-2.815 -4.247,0.276 -6,0 -0.592,-3.856 3.373,-8.29 -2,-6 1.729,-2.271 2.413,-5.587 2,-10 -1.726,-1.982 -3.598,4.345 -8,3 2.998,-7.896 5.814,-11.949 5,-22 -3.405,-0.072 -3.725,2.941 -5,5 -1.907,-0.102 0.797,-3.727 1,-5 -3.656,0.011 -5.357,1.977 -7,4 -1.019,-5.039 7.227,-9.425 9,-15 -1.724,-1.333 -5.276,4.014 -7,6 -2.809,-1.915 1.374,-5.214 1,-8 -1.755,-2.961 -2.075,3.83 -5,3 0.957,-2.043 2.043,-3.957 3,-6 -4.364,2.558 -2.022,-4.171 -7,-1 3.055,-4.969 -0.835,-5.226 2,-11 -2.585,-1.211 -5.415,5.888 -8,8 0.384,-6.626 7.123,-15.536 9,-24 -4.315,0.019 -3.685,4.981 -8,5 -2.886,-4.98 3.717,-5.288 4,-10 -0.909,-2.419 -2.951,2.267 -6,1 0.898,-1.768 2.414,-2.92 3,-5 -2.352,-1.307 -8.21,2.423 -10,5 -1.396,-1.788 3.907,-5.383 5,-8 -1.787,-2.039 -3.69,-0.281 -2,-4 -4.345,-0.146 -5.581,2.812 -9,1 -2.236,0.431 -0.405,4.928 -1,7 -1.91,-2.091 -3.225,-4.775 -4,-8 -1.57,0.43 -0.854,3.146 -4,2 2.985,15.711 2.563,21.56 5,34 -1.987,-0.013 -1.271,-2.729 -4,-2 -3.811,2.627 1.292,9.158 -4,9 3.615,13.687 -4.761,25.277 3,37 -1.714,-1.286 -3.932,-2.067 -4,-5 -2.477,1.583 -0.408,6.996 0,9 -7.151,1.225 0.017,14.874 -7,18 1.947,7.575 1.413,12.092 2,20 -0.804,-0.529 -1.624,-1.043 -3,-1 0.825,13.212 -1.509,20.22 1,35 -1.313,-0.354 -1.573,-1.761 -3,-2 2.112,45.119 -13.472,86.96 -1,132 -2.729,0.729 -2.013,-1.987 -4,-2 0.948,10.919 -2.259,20.205 3,29 -3.213,0.88 -1.371,-3.296 -4,-3 1.011,6.763 -2.759,15.691 1,24 -4.055,6.537 -2.963,15.387 -1,24 -3.95,12.799 -9.776,28.312 -5,45 -1.615,-0.281 -1.722,0.944 -3,1 1.286,6.656 3.409,10.941 2,18 -2.09,-0.424 -2.648,0.686 -4,1 2.355,5.954 3.422,9.052 3,14 -1.333,0 -2.667,0 -4,0 -2.739,7.928 -2.913,18.421 -10,22 -3.961,11.896 1.254,32.547 -4,44 -2.17,4.73 -9.878,6.332 -9,16 0.729,2.729 -1.987,2.013 -2,4 11.853,16.097 -1.148,32.729 5,55 -3.713,2.953 -3.279,10.055 -9,11 -0.664,11.336 -11.234,12.766 -13,23 1.86,5.473 3.391,11.275 3,19 -4.41,8.59 -12.414,13.586 -18,21 -14.08,6.448 -30.189,6.627 -43,8 -1.85,-0.15 -0.614,-3.387 -2,-4 -3.27,3.955 -6.485,0.112 -10,1 -9.748,2.462 -15.46,16.158 -27,10 -1.701,-0.368 -1.887,0.78 -2,2 -2.211,-0.789 -2.502,-3.498 -4,-5 -2.892,0.441 -4.559,2.108 -5,5 -2.145,-2.855 -6.856,-3.144 -12,-3 0,-1 0,-2 0,-3 -14.198,-2.597 -25.246,-4.654 -33,3 -1.965,-3.01 5.228,-5.405 7,-8 -1.915,-3.085 -6.749,-3.251 -8,-7 -2.478,0.871 -7.753,1.953 -10,0 -2.256,1.41 -0.82,6.513 -5,6 2.137,-8.375 -6.738,-23.795 3,-31 -7.336,-12.593 7.234,-17.213 8,-28 9.255,-2.491 17.285,-11.275 26,-11 0.938,-2.909 6.196,-4.418 2,-7 0.111,-1.889 3.306,-0.694 3,-3 3.081,-0.748 1.219,3.447 5,2 8.685,-10.315 29.766,-8.234 37,-20 1.701,-0.368 1.887,0.78 2,2 2.255,-0.745 0.391,-5.609 1,-8 2.729,0.729 2.013,-1.987 4,-2 2.462,-8.137 -1.777,-16.921 2,-24 8.004,-15 19.082,-37.137 25,-52 1.877,-4.716 4.692,-12.522 5,-17 0.043,-0.632 -1.926,-1.244 -2,-1 1.291,-4.256 5.337,-6.7 6,-10 1.226,-6.101 0.367,-22.938 -1,-34 -1.003,-8.118 -7.006,-17.873 -5,-28 0.182,-2.182 -0.818,-3.182 -3,-3 3.133,-8.669 2.565,-16.52 -1,-25 -1.927,0.406 -0.79,3.877 -4,3 -0.443,-8.188 4.68,-12.128 -1,-15 1.976,-2.357 3.28,-5.387 4,-9 -3.458,-0.812 -4.222,1.867 -6,0 0.061,-4.428 0.964,-10.293 -4,-7 5.156,-12.843 -3.028,-27.824 1,-42 -0.162,-1.172 -1.823,-0.844 -3,-1 2.941,-9.728 1.346,-21.51 1,-32 -5.629,0.704 -6.053,6.613 -11,8 2.96,-4.706 5.604,-9.73 11,-12 0.723,-3.056 -1.022,-3.645 -1,-6 -0.87,-2.953 -1.497,2.32 -4,1 0.089,-8.027 6.072,-12.816 5,-19 -1.839,0.244 -3.379,-1.561 -6,-3 -0.257,-9.32 -1.7,-11.379 1,-22 -4.363,-10.382 -4.814,-23.987 -3,-35 -4.05,-1.283 -2.838,-7.829 -7,-9 -0.877,-3.21 2.593,-2.073 3,-4 -3.332,-2.859 -0.36,-6.506 -5,-7 0.146,-2.158 2.204,-8.033 -1,-5 -1.845,-6.196 0.988,-16.332 4,-21 -9.118,-5.885 -4.194,-19.157 -4,-27 -0.162,-1.172 -1.823,-0.844 -3,-1 1.239,-7.854 0.41,-10.987 -2,-17 -2.503,-0.17 -3.13,1.536 -4,3 -0.833,-1.225 2.248,-7.042 1,-12 -3.976,-0.309 -5.413,1.921 -5,6 -2.978,-2.797 -0.181,-7.128 0,-11 -0.162,-1.172 -1.823,-0.844 -3,-1 -0.213,-3.448 3.766,-5.395 4,-11 -7.557,0.443 -5.699,10.301 -12,12 0.26,-3.073 2.169,-4.497 3,-7 -3.989,0.549 -3.011,0.549 -7,0 1.792,-4.208 6.473,-5.527 9,-9 -1.105,-1.999 -5.37,1.218 -9,0 0.578,-2.423 3.776,-2.224 6,-3 1.597,-4.357 -3.475,-3.618 -1,-6 -4.239,-0.238 -7.921,0.079 -9,3 -3.587,-5.759 -1.707,-14.989 2,-19 -7.891,3.452 -14.067,-2.058 -21,3 3.597,-3.736 8.067,-6.6 9,-13 -3.368,-4.574 -7.206,-7.145 -15,-5 2.808,-3.859 10.755,-2.578 13,-7 -2.766,-3.022 -5.56,2.383 -9,2 0.301,-4.085 -1.385,0.169 -4,-1 2.818,-2.516 7.325,-3.342 9,-7 -0.31,-1.357 -2.504,-0.83 -4,-1 1.519,-3.147 4.454,-4.879 5,-9 -0.532,-3.42 -4.818,-1.531 -7,-1 -0.154,-2.487 1.571,-3.096 2,-5 -2.555,0.445 -4.598,1.402 -6,3 -1.127,-2.207 -4.403,-2.264 -7,-3 3.672,-2.328 9.623,-2.377 9,-9 -4.379,-0.379 -5.142,2.858 -9,3 0.163,-4.504 5.313,-4.021 6,-8 -3.13,-1.993 -6.287,-1.738 -10,-1 -0.398,-4.064 4.256,-3.077 5,-6 -3.114,-2.565 -5.594,-1.221 -10,-1 0.294,-2.039 2.706,-1.961 3,-4 -4.595,-2.405 -11.533,-2.467 -17,-4 3.963,-1.963 8.094,0.531 12,-1 -2.557,-4.237 -3.387,-9.164 -12,-6 0.352,-3.981 5.991,-2.676 8,-5 -0.911,-3.799 -4.019,-0.731 -7,-1 -0.551,-2.218 1.91,-1.424 2,-3 -4.35,-2.316 -12.988,-0.346 -19,-1 -4.466,0.785 -6.786,-1.535 -1,-1 3.333,0 6.667,0 10,0 3.002,-1.331 7.65,-1.017 12,-1 1.313,-0.354 1.573,-1.761 3,-2 -0.431,-2.236 -4.928,-0.405 -7,-1 4.014,-1.652 7.306,-4.027 9,-8 -4.279,-0.279 -4.945,3.055 -10,2 4.495,-4.451 -1.913,-3.869 -3,-8 -5.429,-0.763 -7.75,1.584 -13,1 0.838,-4.162 7.799,-2.201 10,-5 -3.864,-1.368 0.181,-4.851 -2,-7 -2.348,0.318 -3.753,1.58 -7,1 0.529,-0.805 1.043,-1.623 1,-3 -10.027,0.307 -14.31,6.357 -17,14 0.266,-9.075 8.571,-18.756 12,-28 -1.161,-2.549 -7.63,-4.979 -10,-3 -2.578,-4.28 4.685,-7.288 5,-12 -0.665,-3.485 -6.432,0.295 -11,-1 2.543,-5.294 -4.611,-16.822 2,-22 -1.811,-2.389 -7.83,-0.563 -10,0 5.235,-4.17 -0.494,-7.652 2,-13 -3.184,-1.482 -5.451,-3.883 -11,-3 0.844,-3.155 5.156,-2.845 6,-6 -2.327,-1.033 -5.911,-0.188 -11,0 0.188,-2.812 3.263,-2.737 4,-5 -5.192,-1.836 -11.493,3.823 -17,5 5.785,-5.882 13.445,-9.889 17,-18 -5.814,-0.467 -11.625,7.697 -19,9 3.581,-3.959 7.126,-8.12 5,-13 -5.495,3.703 -8.525,3.71 -15,6 0.831,-2.503 2.74,-3.927 3,-7 -4.042,-1.435 -3.06,-2.69 -4,-6 -4.134,0.866 -5.866,4.134 -10,5 0.655,-3.012 3.195,-4.139 4,-7 -7.62,0.39 -12.07,12.59 -18,18 1.274,-5.071 7.614,-13.711 12,-19 -3.096,-1.398 -1.244,-3.702 0,-6 -0.279,-2.099 -2.671,1.449 -4,-1 1.692,-2.264 0.369,-6.004 -2,-3 -2.71,-4.414 6.932,-5.041 8,-9 -2.813,-2.095 -6.409,3.552 -11,3 -0.931,-4.598 3.849,-3.484 4,-7 -4.106,-2.91 -1.765,-5.301 -1,-10 -3.197,1.803 -5.253,4.747 -8,7 -1.981,-2.373 2.796,-6.494 2,-11 -3.164,-0.164 -3.342,2.658 -7,2 -0.473,-3.14 2.691,-2.642 3,-5 -0.407,-1.927 -3.877,-0.79 -3,-4 -0.614,1.386 -3.85,0.15 -4,2 -4.129,-1.242 0.379,-2.908 1,-5 -0.493,-1.158 -5.227,1.179 -4,-4 -2.376,1.624 -5.751,2.249 -8,4 -1.025,-1.092 2.277,-6.34 4,-8 -3.392,-1.684 -4.766,0.786 -2,-4 -0.697,-4.824 -4.553,1.274 -5,-1 -0.043,-5.377 3.482,-7.185 4,-12 -2.521,-1.621 -3.246,1.771 -8,0 5.737,-6.81 -0.817,-8.128 3,-15 -3.167,0.833 -5.083,2.917 -7,5 -1.36,-2.078 4.499,-5.463 6,-8 -2.869,-1.495 -6.59,4.713 -13,3 1.712,-0.955 2.015,-3.319 4,-4 -3,-1.302 -1.821,-4.278 0,-6 -3.156,-0.489 -3.531,1.802 -7,1 -0.409,-2.41 1.826,-2.173 1,-5 -1.71,-0.044 -2.59,0.743 -3,2 -2.363,-0.279 1.146,-2.671 1,-4 -0.241,-2.578 -1.721,1.373 -4,0 0.959,-3.371 -3.063,-6.831 0,-9 -2.125,-1.734 -4.374,4.916 -9,4 1.071,-3.722 -2.494,-6.722 2,-10 -1.233,-3.038 -3.439,1.084 -6,0 -0.541,-3.541 3.541,-2.459 3,-6 -1.249,-2.142 -4.099,2.489 -7,2 -1.052,-4.386 3.382,-3.284 3,-7 -4.386,-1.052 -3.285,3.382 -7,3 -0.261,-2.928 2.261,-3.072 2,-6 -4.317,1.584 -7.299,-0.864 -11,2 2.702,-3.202 -0.771,-6.633 0,-11 -6.79,-2.796 -5.054,-12.607 -17,-10 5.083,-5.777 -0.438,-10.877 1,-17 -1.891,-1.985 -3.505,-1.704 -6,-1 0.638,-5.175 -2.071,-1.489 -5,-2 2.172,-5.594 -1.527,-5.665 -1,-11 -1.613,-0.169 -3.936,-4.575 -5,-2 -2.136,-0.625 -0.937,-6.155 0,-7 -1.667,0 -3.333,0 -5,0 -0.936,-3.397 -1.337,-7.329 -2,-11 -2.928,-0.261 -3.072,2.261 -6,2 -2.06,-3.607 -6.01,-5.323 -5,-12 -1.807,-1.299 -3.669,-0.483 -8,-1 0.022,-2.356 -1.723,-2.944 -1,-6 -3.032,1.153 -5.768,-0.446 -9,2 0,-1.333 0,-2.667 0,-4 -3.254,2.397 -7.901,-3.562 -7,-7 -0.848,-2.359 -2.463,2.755 -6,1 0.769,-3.769 -1.22,-4.78 -1,-8 -4.146,0.271 -3.896,-1.313 -7,0 1.27,-7.702 -5.134,-11.146 -10,-12 -0.826,-2.827 1.409,-2.59 1,-5 -2.241,-1.759 -6.162,-1.838 -5,-7 -2.77,2.221 -5.466,-3.959 -8,-3 -2.401,-3.932 -1.082,-11.585 -9,-10 1.853,-6.229 -3.447,-7.527 -3,-12 -3.228,-0.895 -1.405,3.262 -3,4 -5.307,-0.717 -0.238,-14.788 -8,-10 -0.154,-2.488 1.571,-3.096 2,-5 -4.177,0.226 -4.723,-1.626 -8,0 4.497,-10.075 -10.768,-9.514 -9,-14 -4.025,2.997 -9.875,1.958 -13,-1 -2.57,0.076 -1.43,4.659 -4,2 10.045,20.01 25.78,34.84 32,56 -13.556,-20.11 -25.106,-42.227 -41,-60 -2.433,2.635 -6.49,-2.559 -7,2 -7.145,-5.333 -3.902,2.876 -10,-7 -0.417,3.583 -7.71,0.29 -8,4 -1.85,-0.15 -0.614,-3.386 -2,-4 -2.717,1.283 -2.878,5.122 -6,6 -4.158,-5.922 -7.786,-0.551 -12,-5 -2.177,4.333 -13.51,5.637 -22,2 30.697,22.636 64.626,42.04 89,71 -26.168,-23.25 -61.421,-51.131 -93,-69 -7.563,3.188 -19.713,0.343 -23,6 -1.985,-1.364 -6.263,-3.443 -9,-1 18.084,15.249 43.25,23.417 65,35 -10.756,0.767 -24.507,-7.222 -36,-13 -11.884,-5.975 -23.527,-13.131 -34,-19 -7.756,3.385 -12.002,-0.259 -18,4 -3.096,-0.237 -3.884,-2.783 -6,-4 -2.931,0.847 0.598,3.22 0,5 -1.554,-1.446 -3.897,-2.103 -6,-3 -2.954,0.87 2.32,1.497 1,4 -4.286,-0.1 -7.59,-2.269 -10,1 8.516,16.483 19.284,30.716 27,48 -14.648,-14.353 -20.055,-37.944 -36,-51 -2.092,1.242 -3.758,2.908 -5,5 -5.027,-1.915 -11.441,-1.246 -10,4 -4.77,0.77 -4.438,-3.562 -9,-3 0.508,6.25 12.578,14.636 12,22 -8.173,-5.16 -11.292,-15.375 -19,-21 -5.464,4.172 -12.374,11.209 -22,8 -3.806,6.861 -16.208,5.125 -20,12 -3.16,-0.507 -4.39,-2.943 -8,-3 -2.148,2.231 3.376,9.41 1,12 -4.101,-1.566 -2.951,-8.382 -5,-12 -1.023,3.977 -7.03,2.97 -12,3 -2.584,2.082 0.676,10.01 -4,10 0,-3.333 0,-6.667 0,-10 -4.693,-4.237 -16.231,-0.728 -24,-6 -2.977,1.357 -4.152,4.514 -6,7 -2.356,-0.845 0.832,-4.386 1,-6 -1.467,-3.091 -7.731,-2.488 -10,-2 1.507,-5.174 -3.48,-3.853 -6,-5 0.792,-3.458 -1.112,-4.222 -2,-6 -2.63,-0.296 -0.787,3.88 -4,3 0.893,-3.817 -1.633,-6.383 0,-8 -0.226,-1.44 -2.985,-0.349 -3,-2 -1.839,3.798 -5.891,4.991 -4,10 -5.866,-2.399 -1.34,1.324 -9,-3 -1.457,-5.36 2.353,-11.497 -3,-14 -3.312,5.585 -5.966,11.703 -12,12 -1.801,-3.581 -0.33,-7.772 1,-11 2.007,-0.34 3.129,0.205 3,2 3.24,-1.127 3.494,-5.834 2,-9 -5.611,0.389 -7.187,4.813 -8,10 -3.817,-0.377 -3.872,-1.409 -5,2 -3.202,-5.896 4.32,-9.659 6,-14 -3.916,-0.891 -5.223,9.425 -11,10 -2.556,-5.848 6.721,-7.732 6,-15 -14.702,-10.944 -29.934,-26.484 -25,-47 2.698,-11.22 19.314,-15.348 28,-24 1.832,-1.825 1.357,-7.135 5,-4 0.127,-1.793 -1.224,-2.109 -1,-4 10.576,-1.424 9.813,-14.187 20,-16 4.312,-5.022 10.016,-8.65 13,-15 4.529,0.529 6.529,-1.471 6,-6 3.983,0.316 2.708,-4.625 6,-5 8.759,-26.907 36.282,-35.052 41,-66 6.568,-4.099 8.418,-12.915 13,-19 -2.387,-2.613 -6.928,-3.072 -8,-7 3.644,-2.898 4.941,5.005 9,2 0.302,-1.294 -0.088,-5.029 4,-5 -1.724,-3.276 -5.276,-4.724 -7,-8 -1.018,-2.091 4.696,4.899 7,6 1.041,-5.727 -4.977,-7.376 -8,-11 -13.078,-15.672 -23.465,-35.293 -44,-44 26.226,5.442 36.886,35.113 56,51 3.299,-1.494 -3.345,-1.178 -2,-4 6.58,-3.403 6.013,-10.046 8,-17 0.765,-2.678 1.197,-8.009 5,-7 0.723,3.056 -1.022,3.644 -1,6 3.429,-2.182 7.138,-10.809 5,-18 2.946,-1.387 2.905,-5.761 8,-5 0.784,-3.767 0.844,-7.565 -1,-11 2.962,-2.896 4.279,4.338 5,7 5.243,-7.09 14.479,-10.188 14,-23 2.635,-0.301 3.282,1.385 3,4 13.857,-1.297 7.134,-14.562 16,-18 -3.607,-5.298 3.955,-5.354 1,-10 5.848,0.853 6.867,-5.039 5,-9 8.225,-2.207 15.898,-11.254 10,-17 8.73,-6.886 4.832,-22.123 11,-30 2.09,-0.423 2.648,0.686 4,1 -0.163,-1.163 0.221,-1.779 1,-2 -0.644,-5.022 -3.333,-8.001 -9,-8 -0.317,-2.697 -0.238,-4.78 -5,-5 6.335,-2.537 15.265,-1.832 21,-7 -0.329,-2.337 -1.202,-4.131 -2,-6 -3.942,-0.275 -3.058,4.275 -7,4 0.777,-0.89 1.075,-2.258 1,-4 -2.333,0 -4.667,0 -7,0 2.559,-3.497 4.189,-4.4 8,-8 -1.807,-3.096 -3.063,-0.534 -7,-1 1.526,-4.526 -3.837,-2.163 -5,-4 0.068,-2.932 2.286,-3.714 4,-5 -0.426,-1.907 -2.857,-1.81 -2,-5 1.496,-1.171 4.09,-1.243 5,-3 -1.931,-1.069 -4.087,-1.913 -3,-6 -0.515,-1.092 -6.534,0.733 -10,0 2.556,-6.925 -2.388,-0.095 -3,-6 4.416,-0.25 5.999,-3.334 10,-4 -0.911,-2.422 -4.019,-2.648 -7,-3 0.94,-2.726 5.434,-1.899 4,-7 -9.051,-4.731 -14.266,-11.097 -19,-18 -0.304,-2.638 2.088,-2.579 4,-3 -9.808,-10.192 -16.854,-23.146 -27,-33 0.354,-1.401 1.761,-0.086 2,1 0.806,-4.318 4.925,-3.1 3,-8 1.793,-0.127 2.109,1.224 4,1 -6.362,-8.638 -7.985,-22.015 -12,-33 4.244,-2.089 2.351,-10.316 6,-13 0.334,0 0.667,0 1,0 z"
   id="path3"
   style="fill-rule:evenodd" />
<text
   transform="translate(1123.9473,883)"
   id="text5"
   style="font-size:12px;font-family:MyriadPro-Regular">U</text>

<text
   transform="translate(1131.7109,883)"
   id="text7"
   style="font-size:12px;font-family:MyriadPro-Regular">r</text>

<text
   transform="translate(1135.5156,883)"
   id="text9"
   style="font-size:12px;font-family:MyriadPro-Regular">o</text>

<text
   transform="translate(1142.1035,883)"
   id="text11"
   style="font-size:12px;font-family:MyriadPro-Regular">c</text>

<text
   transform="translate(1147.6953,883)"
   id="text13"
   style="font-size:12px;font-family:MyriadPro-Regular">y</text>

<text
   transform="translate(1153.2266,883)"
   id="text15"
   style="font-size:12px;font-family:MyriadPro-Regular">o</text>

<text
   transform="translate(1159.8145,883)"
   id="text17"
   style="font-size:12px;font-family:MyriadPro-Regular">n</text>

<text
   transform="translate(1166.4746,883)"
   id="text19"
   style="font-size:12px;font-family:MyriadPro-Regular"> </text>

<text
   transform="translate(1169.0186,883)"
   id="text21"
   style="font-size:12px;font-family:MyriadPro-Regular">c</text>

<text
   transform="translate(1174.3945,883)"
   id="text23"
   style="font-size:12px;font-family:MyriadPro-Regular">i</text>

<text
   transform="translate(1177.2021,883)"
   id="text25"
   style="font-size:12px;font-family:MyriadPro-Regular">n</text>

<text
   transform="translate(1183.8623,883)"
   id="text27"
   style="font-size:12px;font-family:MyriadPro-Regular">e</text>

<text
   transform="translate(1189.874,883)"
   id="text29"
   style="font-size:12px;font-family:MyriadPro-Regular">r</text>

<text
   transform="translate(1193.6787,883)"
   id="text31"
   style="font-size:12px;font-family:MyriadPro-Regular">e</text>

<text
   transform="translate(1199.6904,883)"
   id="text33"
   style="font-size:12px;font-family:MyriadPro-Regular">o</text>

<text
   transform="translate(1206.2783,883)"
   id="text35"
   style="font-size:12px;font-family:MyriadPro-Regular">a</text>

<text
   transform="translate(1212.0625,883)"
   id="text37"
   style="font-size:12px;font-family:MyriadPro-Regular">r</text>

<text
   transform="translate(1215.8906,883)"
   id="text39"
   style="font-size:12px;font-family:MyriadPro-Regular">g</text>

<text
   transform="translate(1222.5977,883)"
   id="text41"
   style="font-size:12px;font-family:MyriadPro-Regular">e</text>

<text
   transform="translate(1228.6104,883)"
   id="text43"
   style="font-size:12px;font-family:MyriadPro-Regular">n</text>

<text
   transform="translate(1235.2217,883)"
   id="text45"
   style="font-size:12px;font-family:MyriadPro-Regular">t</text>

<text
   transform="translate(1239.1221,883)"
   id="text47"
   style="font-size:12px;font-family:MyriadPro-Regular">e</text>

<text
   transform="translate(1245.1338,883)"
   id="text49"
   style="font-size:12px;font-family:MyriadPro-Regular">u</text>

<text
   transform="translate(1251.7461,883)"
   id="text51"
   style="font-size:12px;font-family:MyriadPro-Regular">s</text>

<text
   transform="translate(1256.498,883)"
   id="text53"
   style="font-size:12px;font-family:MyriadPro-Regular"> </text>

<text
   transform="translate(1259.042,883)"
   id="text55"
   style="font-size:12px;font-family:MyriadPro-Regular">f</text>

<text
   transform="translate(1262.5459,883)"
   id="text57"
   style="font-size:12px;font-family:MyriadPro-Regular">u</text>

<text
   transform="translate(1269.1572,883)"
   id="text59"
   style="font-size:12px;font-family:MyriadPro-Regular">r</text>

<text
   transform="translate(1273.3809,883)"
   id="text61"
   style="font-size:12px;font-family:MyriadPro-Regular">v</text>

<text
   transform="translate(1279.1533,883)"
   id="text63"
   style="font-size:12px;font-family:MyriadPro-Regular">u</text>

<text
   transform="translate(1285.7646,883)"
   id="text65"
   style="font-size:12px;font-family:MyriadPro-Regular">s</text>

</svg>