<?xml version="1.0" encoding="UTF-8" standalone="no"?>
<!-- Created with Inkscape (http://www.inkscape.org/) -->

<svg
   xmlns:svg="http://www.w3.org/2000/svg"
   xmlns="http://www.w3.org/2000/svg"
   version="1.2"
   width="549.24402"
   height="776.45599"
   viewBox="0 0 549.244 776.456"
   id="Layer_1"
   xml:space="preserve"
   style="overflow:inherit"><defs
   id="defs7" />
<path
   d="m 0,346.822 c 0,-0.667 0,-1.333 0,-2 3.832,-4.454 -0.787,-10.123 0.4,-15.6 0.844,-3.893 4.566,-6.109 5.6,-9.6 -1.721,-4.767 0.581,-10.909 2.8,-13.6 3.261,-3.954 2.747,-11.473 5.6,-15.2 4.447,-5.809 11.795,-8.438 14.4,-15.6 3.222,-1.579 5.005,-4.596 9.6,-4.8 1.628,-2.372 3.379,-4.621 5.2,-6.8 4.15,-1.85 8.996,-3.004 11.6,-6.4 3.764,1.154 6.763,-3.237 10.4,-4 7.972,-1.673 14.225,1.64 20.8,3.2 8.754,9.67 25.875,8.517 39.2,13.6 4.428,-3.158 6.173,-8.71 9.6,-12.8 1.388,-1.656 3.561,-2.633 4.8,-4.4 2.168,-3.094 3.195,-6.87 5.6,-10 1.97,-2.563 4.476,-4.467 6.8,-6.8 2.389,-2.399 3.56,-5.312 5.6,-8 3.096,-4.079 8.701,-7.845 13.2,-11.6 4.522,-3.774 10.707,-7.761 13.2,-12 3.397,-5.775 2.318,-14.592 3.2,-23.2 0.488,-4.77 2.255,-9.526 2.4,-14 0.106,-3.295 -1.277,-6.5 -1.2,-9.6 0.09,-3.615 2.016,-7.466 2.4,-11.2 0.875,-8.507 -0.362,-17.863 3.6,-24.4 0,-1.467 0,-2.934 0,-4.4 2.455,-3.133 3.985,-6.828 5.2,-10.8 1.227,-4.008 3.033,-8.092 4,-12.4 1.697,-7.564 1.442,-15.076 3.6,-22.4 0.448,-1.519 1.683,-2.799 2,-4.4 0.814,-4.108 -0.213,-8.555 2.4,-12 -2.917,-4.167 -5.738,-7.963 -6,-14 -0.313,-7.234 3.952,-13.657 5.2,-19.6 5.207,-5.199 13.377,-11.548 23.2,-11.2 4.022,0.143 5.876,2.82 9.6,3.6 3.351,-0.656 5.771,-3.604 8.399,-4.4 1.773,-0.537 4.46,-0.305 6.801,-0.8 1.966,-0.416 4.44,-1.558 6,-1.6 5.702,-0.155 11.389,2.127 17.6,2.8 8.211,0.889 15.546,-3.855 23.2,-4.4 3.364,-0.239 8.013,0.433 11.6,1.2 6.277,1.342 12.693,6.805 16.801,6.4 2.341,-0.231 4.642,-4.064 6.8,-6 5.112,-4.587 11.908,-7.931 20.8,-7.6 14.664,0.545 24.624,15.084 24.8,29.2 0.119,9.599 -7.582,16.264 -12.4,22.4 2.357,4.452 2.755,10.446 4,16 0.67,2.987 2.1,5.361 3.201,8.4 2.158,5.956 3.136,12.238 6,17.2 1.346,2.332 3.843,3.389 5.199,5.6 2.335,3.804 4.626,9.964 6.801,15.2 0.826,1.991 2.598,4.221 2.799,6 0.988,8.688 2.762,20.434 3.601,30 0.294,3.354 1.78,6.834 2,9.6 0.5,6.282 0.339,12.773 1.601,18.4 1.549,6.917 4.5,16.222 7.6,21.2 1.103,1.771 3.521,2.865 5.199,4.8 1.018,1.172 1.519,2.967 2.4,4 2.43,2.846 7.399,6.061 10.801,9.2 2.527,2.332 5.153,6.586 7.199,6.8 4.988,0.521 7.358,-5.468 8.4,-10 1.947,-3.252 5.342,-5.058 7.6,-8 0.574,-6.7 -0.08,-15.086 0,-21.2 0.062,-4.785 3.738,-7.179 5.6,-10.4 1.696,-2.933 2.598,-6.335 4,-8.8 0.585,-1.028 1.96,-2.21 2.801,-3.6 1.141,-1.886 0.713,-3.275 2,-4.4 3.875,-3.39 11.594,-0.721 15.6,0 3.055,0.549 5.533,-0.72 9.2,-0.8 8.675,-0.189 12.179,4.95 17.2,8 7.124,0.076 10.381,4.02 15.199,6.4 2.027,3.127 2.149,7.001 4.4,10 1.655,2.205 4.453,2.251 6.801,4.4 4.137,3.788 3.025,10.172 4,17.2 0.451,3.258 2.608,5.718 3.199,8.4 1.461,6.625 -1.032,10.524 -2.4,15.6 -0.949,3.524 -0.562,7.292 -1.199,10.8 -2.514,13.833 -12.415,18.667 -19.6,26.8 0.652,5.053 -2.996,5.804 -2,11.2 -3.971,3.5 -4.732,9.334 -7.601,14 -1.962,3.191 -5.258,5.607 -7.601,8.8 -2.213,3.018 -4.695,6.321 -6.399,10 -0.839,1.811 -0.984,3.924 -2,5.6 -1.406,2.32 -4.28,4.811 -6.399,7.6 -2.122,2.792 -3.382,6.169 -5.201,8.8 -1.123,1.625 -3.277,2.636 -4.399,4.4 -1.026,1.614 -3.83,6.704 -4,7.6 -0.337,1.777 0.649,4.312 0.399,5.6 -0.256,1.319 -1.807,4.158 -2.799,5.6 -4.421,6.42 -11.675,8.146 -17.601,12.4 -9.405,-5.449 -25.428,-3.43 -36,-0.4 -3.78,4.416 -0.5,10.32 -1.601,16 -0.535,2.766 -3.821,4.157 -4.399,6.4 -1.062,4.115 1.512,8.869 2,13.6 0.422,4.085 0.907,9.751 0.399,13.601 -0.367,2.787 -2.535,4.638 -3.199,7.2 -1.555,5.996 0.837,12.722 0.8,20 -0.029,5.762 -3.601,10.694 -4.8,16.399 -0.927,4.406 0.053,9.983 0.4,14 0.66,7.646 4.53,13.694 7.199,20.8 2.985,7.947 5.051,16.037 9.2,22 -0.819,7.039 3.277,12.685 2,17.601 4.319,5.874 3.669,13.959 4.8,22 1.17,8.313 3.441,16.968 2.801,25.6 -0.233,3.137 -1.274,6.414 -0.801,9.601 0.201,1.355 1.305,2.62 1.6,4 1.34,6.239 -0.027,13.034 0.801,20 1.011,8.504 4.59,16.417 5.6,24.399 1.095,8.654 -0.939,16.294 -1.199,22.4 -0.418,9.813 -3.796,19.307 0.399,27.6 0.232,1.565 -0.345,2.322 -0.8,3.2 5.057,9.209 4.948,23.585 10.8,32 1.183,1.475 -1.275,1.981 -1.601,3.2 3.11,5.678 10.74,10.056 11.601,18.399 0.729,7.063 -2.315,11.599 -4.399,17.601 -18.289,4.625 -35.749,3.712 -57.601,4.8 -12.216,0.608 -22.966,1.25 -30.399,-3.2 -3.088,-4.524 -8.125,-10.667 -9.201,-17.6 -0.226,-1.458 0.469,-2.888 0.4,-4.4 -0.213,-4.72 -2.657,-9.398 -3.6,-14.8 -0.805,-4.608 0.345,-9.581 0,-14.4 -0.55,-7.675 -0.713,-15.931 -2.4,-22.8 -1.572,-6.401 -7.369,-15.8 -11.199,-20.8 -3.947,-5.151 -10.947,-10.669 -16.001,-16.4 -3.143,-3.563 -5.557,-8.539 -8.8,-10.8 -1.283,-0.895 -4.387,-1.485 -6.8,-2.8 -2.459,-1.339 -4.393,-3.49 -6,-4 -11.915,-3.776 -9.922,8.484 -20,8 -2.472,2.461 -4.562,5.306 -6.399,8.4 -8.365,0.435 -10.255,7.345 -17.201,9.199 -2.668,3.124 -5.037,6.161 -7.199,10 -2.143,3.805 -2.834,8.531 -4.801,12.4 -1.592,3.134 -4.73,6.042 -4.399,10.8 7.505,22.804 3.921,53.157 -4.399,74.4 -13.342,4.661 -29.119,4.805 -47.201,5.6 -19.025,0.837 -38.178,2.985 -54.4,0.4 -2.067,-1.063 1.125,-2.917 -0.8,-3.601 -2.518,-1.988 -3.648,2.223 -5.6,0.801 -1.065,-1.265 1.325,-1.637 1.2,-3.2 -1.412,-10.404 -1.271,-20.622 4.4,-26.8 1.985,-2.163 5.756,-3.167 7.6,-5.601 0.711,-0.938 1.152,-2.816 2,-4.399 0.741,-1.383 2.368,-2.953 2.8,-4 0.374,-0.905 -0.03,-2.345 0.4,-3.2 0.527,-1.05 1.899,-1.566 2.4,-2.4 2.579,-4.298 4.398,-15.26 4,-21.6 -0.159,-2.522 -1.483,-4.666 -2,-7.2 -0.519,-2.546 -0.108,-5.352 -0.4,-8.4 -0.468,-4.893 -1.526,-9.104 -1.6,-14 -0.037,-2.449 -1.588,-4.156 -2,-6.8 -0.322,-2.064 0.466,-4.273 0.4,-6.8 -0.067,-2.564 -1.187,-5.262 -1.2,-7.6 -0.041,-7.009 4.25,-14.4 4.4,-21.601 0.056,-2.649 -1.32,-5.304 -1.2,-7.6 0.093,-1.774 1.203,-3.085 1.6,-4.8 0.67,-2.893 0.354,-6.276 1.2,-9.2 1.197,-4.136 3.58,-9.972 2,-15.2 2.867,-7.977 2.072,-16.73 3.2,-24.8 0.236,-1.686 1.769,-3.466 2,-5.2 0.183,-1.365 -0.633,-2.87 -0.4,-4 0.602,-2.913 3.879,-5.256 4.4,-8 0.668,-3.515 -0.396,-5.598 0.8,-8.4 0.599,-1.403 2.536,-2.905 3.2,-4.8 0.517,-1.472 0.051,-3.346 0.4,-4.8 0.496,-2.066 1.902,-4.411 2.8,-6.8 0.941,-2.507 1.155,-5.225 2,-7.601 0.866,-2.435 2.811,-4.721 3.6,-7.199 2.096,-6.579 3.132,-10.926 6.4,-15.2 -2.75,-8.194 -0.91,-19.547 -2,-30 -0.386,-3.703 -2.134,-7.396 -2.4,-11.2 -0.55,-7.867 -0.882,-14.742 -3.2,-20.8 -0.579,-1.513 -1.958,-2.492 -2.4,-4 -1.589,-5.414 1.156,-11.276 0.4,-16.4 -0.314,-2.128 -3.358,-10.122 -5.2,-11.2 -6.479,-3.792 -8.15,3.385 -11.6,4 -2.167,0.387 -4.249,-1.632 -6.4,-2 -5.854,-1.001 -11.802,-0.406 -17.6,-0.8 -2.606,-2.061 -3.679,-5.654 -8.4,-5.6 -5.083,-5.583 -9.994,-11.34 -16.8,-15.2 -1.174,-1.226 -2,-5.2 -2,-5.2 l -12.4,-5.2 c 0,0 -4.718,-3.098 -7.6,-4.8 -2.088,-1.233 -2.497,-3.813 -4.4,-5.2 -0.595,-0.434 -2.194,-0.196 -3.2,-0.8 -0.986,-0.592 -1.468,-1.796 -2,-2 -1.149,-0.439 -2.753,-0.015 -4.4,-0.4 -1.679,-0.392 -3.245,-1.815 -4.8,-2 -1.657,-0.197 -3.658,0.994 -5.2,0.8 -0.773,-0.098 -1.8,-1.218 -2.8,-1.6 -5.236,-2.004 -8.054,-3.242 -10.8,-7.2 -6.169,1.164 -10.614,4.053 -17.6,4.4 -3.264,1.948 -5.397,4.721 -10,4.8 -4.53,0.078 -8.028,-4.118 -12,-4.4 -3.074,-0.218 -6.441,2.924 -9.2,2.8 C 3.342,355.813 0.933,350.317 0,346.822 z"
   id="path3"
   style="fill-rule:evenodd" />
</svg>