<?xml version="1.0" encoding="UTF-8" standalone="no"?>
<!-- Created with Inkscape (http://www.inkscape.org/) -->

<svg
   xmlns:svg="http://www.w3.org/2000/svg"
   xmlns="http://www.w3.org/2000/svg"
   version="1.1"
   width="792"
   height="612"
   viewBox="0 0 792 612"
   id="Layer_1"
   xml:space="preserve"><defs
   id="defs40" />
<g
   id="g3">
	<g
   id="XMLID_3_">
		<g
   id="g6">
			<path
   d="m 690.795,126.292 c 0,0.01 0.011,0.01 0.011,0.01 6.473,2.575 13.183,5.925 17.194,10.019 8.571,8.778 15.364,18.643 23.998,27.679 16.833,17.598 27.938,41.089 32.704,66.256 2.647,13.814 2.729,29.954 2.729,44.119 0,14.093 -1.892,26.2 -6.741,38.908 -6.328,16.678 -9.13,34.616 -16.522,51.087 -4.002,8.861 -10.102,12.904 -10.525,23.42 -0.331,8.416 -0.662,16.347 -0.662,24.67 0,15.055 -2.15,29.912 -3.464,44.771 -1.22,13.876 3.268,34.255 -10.34,42.723 -9.563,5.956 -29.426,2.585 -39.982,4.167 -14.187,2.15 -29.83,1.199 -43.53,-0.083 -8.902,-0.796 -16.822,-1.943 -25.414,-4.569 -5.066,-1.562 -15.055,-7.734 -5.697,-12.46 -12.977,-0.92 -26.666,0.725 -39.632,1.913 -12.324,1.147 -29.778,5.646 -41.71,0.869 -6.431,-2.564 -6.41,-7.621 -5.294,-14.651 1.034,-6.514 3.516,-7.114 9.647,-9.626 5.324,-2.172 13.079,-3.164 16.729,-7.476 3.257,-3.847 3.442,-10.505 4.487,-15.438 1.53,-7.32 1.044,-15.199 2.233,-22.561 1.209,-7.692 3.122,-13.772 2.605,-21.992 -15.055,-5.604 -32.798,-6.607 -48.203,-11.974 -16.646,-5.811 -35.476,-12.676 -49.402,-23.905 -0.486,13.235 -0.155,25.591 0.517,38.577 0.703,12.935 7.692,28.3 2.119,41.307 -3.267,7.538 -8.84,14.289 -12.272,22.127 -2.688,6.069 -6.38,10.67 -10.009,16.347 -6.628,10.453 -6.524,26.139 -19.821,33.438 -6.162,3.381 -15.105,1.86 -22.188,1.86 -11.239,0 -22.364,0.693 -33.625,0.693 -9.605,0 -19.18,0 -28.775,0 -8.53,0 -14.6,2.109 -14.072,-8.21 -2.368,0.196 -4.301,0.362 -6.648,0.527 -1.427,-10.318 2.843,-10.649 11.436,-14.527 6.917,-3.143 15.23,-6.338 20.834,-10.732 -5.077,-2.006 -15.458,0.527 -10.815,-7.578 2.347,-4.157 12.666,-7.372 16.678,-9.006 7.279,-2.916 9.719,-3.392 9.998,-11.881 0.228,-7.062 0,-14.248 0,-21.32 0,-13.39 -1.447,-26.128 -8.416,-37.749 -6.783,-11.271 -12.16,-22.893 -19.325,-34.431 -3.929,-6.421 -9.419,-10.092 -13.783,-16.192 -3.722,-5.263 -5.646,-11.436 -7.931,-17.267 -4.684,-11.983 -11.25,-23.026 -16.067,-34.286 -4.043,-9.564 -21.786,-16.875 -32.394,-17.929 -8.272,-0.837 -13.018,-1.065 -20.627,-4.642 -7.124,-3.36 -15.333,-4.281 -22.209,-7.889 -7.982,-4.188 -14.196,-9.937 -22.406,-13.834 -6.349,-2.988 -12.397,-6.09 -18.673,-8.964 -5.408,-2.451 -9.575,-5.046 -15.633,-6.018 -5.325,-0.858 -7.745,-1.282 -12.108,-3.96 -5.19,-3.236 -10.277,-7.104 -15.799,-9.978 -15.282,-7.951 -32.094,-13.193 -47.262,-20.048 -5.976,-2.699 -12.862,-16.264 -19.614,-26.407 0.993,0.486 0.693,0.196 -0.362,-0.548 -3.433,-5.108 -6.834,-9.254 -10.05,-10.546 0.744,-0.6 0.558,-0.61 -5.108,-1.624 -3.123,-3.66 -5.459,-7.527 -5.852,-10.877 l 0.672,-0.104 c 15.871,-2.761 10.35,-16.564 4.115,-21.403 5.986,-2.109 12.552,-3.526 18.104,-6.7 9.223,-5.232 15.923,-8.789 26.717,-10.526 10.216,-1.685 19.956,-5.552 29.127,-9.802 6.214,-2.885 10.515,-3.856 17.732,-3.97 13.493,-0.166 26.459,1.034 39.879,2.905 6.586,0.972 14.114,-0.083 20.783,1.22 6.09,1.199 11.715,4.436 17.96,5.521 18.735,3.226 36.488,11.673 55.244,14.331 13.452,1.892 31.711,1.323 44.533,-2.068 7.692,-2.037 14.558,-5.924 22.168,-7.423 7.414,-1.468 15.871,-0.714 23.502,-0.714 6.772,0 15.354,-1.075 21.744,1.2 6.266,2.285 11.105,7.899 18.259,9.698 11.58,2.968 26.759,-0.837 38.557,-2.088 14.775,-1.582 30.378,-0.672 44.832,-4.684 7.342,-2.037 14.052,-6.038 21.32,-7.724 7.383,-1.706 15.055,-1.757 22.582,-3.401 15.612,-3.454 32.342,-3.195 48.316,-4.012 21.527,-1.117 41.741,-1.179 62.089,4.622 12.005,3.443 21.941,9.233 32.735,13.152 6.597,2.377 10.496,4.28 14.073,7.661 z"
   id="path8" />
			<path
   d="m 66.76,173.647 c 0.124,0.186 0.248,0.362 0.362,0.548 -2.792,-1.354 -6.607,-4.043 -10.226,-7.32 3.671,2.595 7.972,5.428 9.864,6.772 z"
   id="path10" />
			<path
   d="m 66.76,173.647 c -1.892,-1.344 -6.193,-4.177 -9.864,-6.772 -0.01,-0.01 -0.01,-0.01 -0.021,-0.01 -0.506,-0.455 -1.013,-0.931 -1.509,-1.406 0,-1.324 0.869,-1.965 1.344,-2.357 3.216,1.291 6.618,5.437 10.05,10.545 z"
   id="path12" />
			<path
   d="m 56.71,163.101 c -0.476,0.393 -1.344,1.034 -1.344,2.357 -1.324,-1.272 -2.595,-2.616 -3.764,-3.981 5.667,1.013 5.853,1.024 5.108,1.624 z"
   id="path14" />
			<path
   d="m 55.366,165.458 c 0.496,0.476 1.003,0.951 1.509,1.406 -0.506,-0.373 -1.013,-0.724 -1.489,-1.076 -0.01,-0.113 -0.02,-0.226 -0.02,-0.33 z"
   id="path16" />
			<path
   d="m 55.366,165.458 c 0,0.104 0.01,0.217 0.021,0.331 -3.598,-2.616 -6.018,-4.704 -3.784,-4.312 1.168,1.365 2.439,2.709 3.763,3.981 z"
   id="path18" />
			<path
   d="m 50.538,129.094 c 6.235,4.839 11.756,18.642 -4.115,21.403 L 45.75,150.6 c -0.011,-0.031 -0.021,-0.073 -0.021,-0.104 -0.558,-5.304 -5.438,-12.284 -4.001,-17.123 2.616,-1.86 5.625,-3.163 8.81,-4.279 z"
   id="path20" />
		</g>
		<g
   id="g22">
			<path
   d="m 690.806,126.302 c 6.473,2.575 13.183,5.925 17.194,10.019 8.571,8.778 15.364,18.643 23.998,27.679 16.833,17.598 27.938,41.089 32.704,66.256 2.647,13.814 2.729,29.954 2.729,44.119 0,14.093 -1.892,26.2 -6.741,38.908 -6.328,16.678 -9.13,34.616 -16.522,51.087 -4.002,8.861 -10.102,12.904 -10.525,23.42 -0.331,8.416 -0.662,16.347 -0.662,24.67 0,15.055 -2.15,29.912 -3.464,44.771 -1.22,13.876 3.268,34.255 -10.34,42.723 -9.563,5.956 -29.426,2.585 -39.982,4.167 -14.187,2.15 -29.83,1.199 -43.53,-0.083 -8.902,-0.796 -16.822,-1.943 -25.414,-4.569 -5.066,-1.562 -15.055,-7.734 -5.697,-12.46 -12.977,-0.92 -26.666,0.725 -39.632,1.913 -12.324,1.147 -29.778,5.646 -41.71,0.869 -6.431,-2.564 -6.41,-7.621 -5.294,-14.651 1.034,-6.514 3.516,-7.114 9.647,-9.626 5.324,-2.172 13.079,-3.164 16.729,-7.476 3.257,-3.847 3.442,-10.505 4.487,-15.438 1.53,-7.32 1.044,-15.199 2.233,-22.561 1.209,-7.692 3.122,-13.772 2.605,-21.992 -15.055,-5.604 -32.798,-6.607 -48.203,-11.974 -16.646,-5.811 -35.476,-12.676 -49.402,-23.905 -0.486,13.235 -0.155,25.591 0.517,38.577 0.703,12.935 7.692,28.3 2.119,41.307 -3.267,7.538 -8.84,14.289 -12.272,22.127 -2.688,6.069 -6.38,10.67 -10.009,16.347 -6.628,10.453 -6.524,26.139 -19.821,33.438 -6.162,3.381 -15.105,1.86 -22.188,1.86 -11.239,0 -22.364,0.693 -33.625,0.693 -9.605,0 -19.18,0 -28.775,0 -8.53,0 -14.6,2.109 -14.072,-8.21 -2.368,0.196 -4.301,0.362 -6.648,0.527 -1.427,-10.318 2.843,-10.649 11.436,-14.527 6.917,-3.143 15.23,-6.338 20.834,-10.732 -5.077,-2.006 -15.458,0.527 -10.815,-7.578 2.347,-4.157 12.666,-7.372 16.678,-9.006 7.279,-2.916 9.719,-3.392 9.998,-11.881 0.228,-7.062 0,-14.248 0,-21.32 0,-13.39 -1.447,-26.128 -8.416,-37.749 -6.783,-11.271 -12.16,-22.893 -19.325,-34.431 -3.929,-6.421 -9.419,-10.092 -13.783,-16.192 -3.722,-5.263 -5.646,-11.436 -7.931,-17.267 -4.684,-11.983 -11.25,-23.026 -16.067,-34.286 -4.043,-9.564 -21.786,-16.875 -32.394,-17.929 -8.272,-0.837 -13.018,-1.065 -20.627,-4.642 -7.124,-3.36 -15.333,-4.281 -22.209,-7.889 -7.982,-4.188 -14.196,-9.937 -22.406,-13.834 -6.349,-2.988 -12.397,-6.09 -18.673,-8.964 -5.408,-2.451 -9.575,-5.046 -15.633,-6.018 -5.325,-0.858 -7.745,-1.282 -12.108,-3.96 -5.19,-3.236 -10.277,-7.104 -15.799,-9.978 -15.282,-7.951 -32.094,-13.193 -47.262,-20.048 -5.976,-2.699 -12.862,-16.264 -19.614,-26.407 -0.114,-0.186 -0.238,-0.362 -0.362,-0.548 -3.433,-5.108 -6.834,-9.254 -10.05,-10.546 -0.217,-0.093 -0.424,-0.166 -0.641,-0.228"
   id="path24"
   style="fill:none;stroke:#000000;stroke-miterlimit:10" />
			<path
   d="m 681.262,122.911 c 2.823,0.91 6.142,2.037 9.533,3.381"
   id="path26"
   style="fill:none;stroke:#000000;stroke-miterlimit:10" />
			<path
   d="m 56.875,166.864 c -0.506,-0.373 -1.013,-0.724 -1.489,-1.076 -3.598,-2.616 -6.018,-4.704 -3.784,-4.312 5.666,1.013 5.852,1.024 5.108,1.624 -0.476,0.393 -1.344,1.034 -1.344,2.357 0,0.104 0.01,0.217 0.021,0.331 0.052,0.559 0.259,1.23 0.683,2.027"
   id="path28"
   style="fill:none;stroke:#000000;stroke-miterlimit:10" />
			<path
   d="m 56.896,166.875 c 3.619,3.277 7.434,5.966 10.226,7.32 0.993,0.486 0.693,0.196 -0.362,-0.548 -1.892,-1.344 -6.193,-4.177 -9.864,-6.772"
   id="path30"
   style="fill:none;stroke:#000000;stroke-miterlimit:10" />
			<path
   d="m 56.896,166.875 c -0.01,-0.01 -0.01,-0.01 -0.021,-0.01"
   id="path32"
   style="fill:none;stroke:#000000;stroke-miterlimit:10" />
			<path
   d="m 697.112,133.933 c -2.306,-3.278 -4.26,-5.697 -6.307,-7.631 0,0 -0.011,0 -0.011,-0.01 -3.577,-3.381 -7.476,-5.283 -14.072,-7.662 -10.794,-3.918 -20.73,-9.709 -32.735,-13.152 -20.348,-5.8 -40.562,-5.738 -62.089,-4.622 -15.975,0.816 -32.704,0.558 -48.316,4.012 -7.527,1.644 -15.199,1.695 -22.582,3.401 -7.269,1.686 -13.979,5.687 -21.32,7.724 -14.454,4.012 -30.057,3.102 -44.832,4.684 -11.798,1.251 -26.977,5.056 -38.557,2.088 -7.154,-1.799 -11.994,-7.413 -18.259,-9.698 -6.39,-2.275 -14.972,-1.2 -21.744,-1.2 -7.631,0 -16.088,-0.754 -23.502,0.714 -7.61,1.499 -14.476,5.387 -22.168,7.423 -12.821,3.392 -31.081,3.96 -44.533,2.068 -18.756,-2.658 -36.509,-11.105 -55.244,-14.331 -6.245,-1.085 -11.87,-4.322 -17.96,-5.521 -6.669,-1.303 -14.196,-0.248 -20.783,-1.22 -13.42,-1.872 -26.386,-3.071 -39.879,-2.905 -7.217,0.114 -11.519,1.085 -17.732,3.97 -9.171,4.25 -18.911,8.117 -29.127,9.802 -10.794,1.737 -17.494,5.294 -26.717,10.526 -5.552,3.174 -12.118,4.591 -18.104,6.7 -3.185,1.117 -6.193,2.419 -8.81,4.28 -1.437,4.839 3.443,11.818 4.001,17.123 0,0.031 0.01,0.072 0.021,0.104 0.393,3.35 2.729,7.217 5.852,10.877 1.168,1.365 2.44,2.709 3.764,3.981 0.496,0.476 1.003,0.951 1.509,1.406"
   id="path34"
   style="fill:none;stroke:#000000;stroke-miterlimit:10" />
			<path
   d="m 46.422,150.497 c 15.871,-2.761 10.35,-16.564 4.115,-21.403"
   id="path36"
   style="fill:none;stroke:#000000;stroke-miterlimit:10" />
		</g>
	</g>
</g>
</svg>