<?xml version="1.0" encoding="UTF-8" standalone="no"?>
<!-- Created with Inkscape (http://www.inkscape.org/) -->

<svg
   xmlns:svg="http://www.w3.org/2000/svg"
   xmlns="http://www.w3.org/2000/svg"
   version="1.1"
   width="792"
   height="612"
   viewBox="0 0 792 612"
   id="Layer_1"
   xml:space="preserve"><defs
   id="defs14" />
<g
   id="g3">
	<g
   id="XMLID_1_">
		<g
   id="g6">
			<path
   d="m 195.25,110.75 c 7.04,-3.31 28.42,-2.79 34.5,-3.97 15.02,-2.93 30.4,-7.51 45.56,-9.34 12.62,-1.53 16.21,-6.13 27.69,-11.21 9.07,-4.03 17.03,-5.77 27,-6.23 18.38,-0.84 42.87,-3.36 60.03,2.25 9.13,2.98 16.36,9.01 26,10.97 10.41,2.12 21.31,1.78 32.17,1.78 12.54,0 25.899,1.33 37.76,-2.2 10.35,-3.08 20.67,-5.59 31.41,-7.55 C 551.11,79.08 588.46,76.72 618,92 l -0.3,0.89 c 4.79,1.61 9.569,3.28 14.3,5.11 13.57,5.25 24.85,14.01 36.95,22.23 13.71,9.31 19.92,20.1 27.27,34.77 8.03,16.01 17.101,25.19 18.78,44 1.77,19.84 1.69,43.26 -6.97,59.98 -9.28,17.92 -13.88,29.98 -24.03,47.02 11.35,7.45 18.34,24.78 23.78,34.19 10.05,17.409 7.77,26.67 4.25,44.84 -2.11,10.859 -0.49,21.68 -3.8,32.189 -3,9.511 -7.011,17.91 -12.5,26.48 -6.641,10.35 -7.711,13.149 -20.78,13.3 -9.8,0.11 -16.54,0.78 -21.97,-8.48 -8.37,-14.279 2.18,-19.97 5.039,-32.5 1.73,-7.569 2.33,-33.38 -2.85,-37.939 C 654.16,395.31 646.05,408.7 645,425 c -1,15.52 3.06,34.65 -12.2,43.75 -13.899,8.28 -34.37,5.66 -49.8,4.25 -15.57,-1.42 -37.62,4.84 -51.25,-2.75 -1.88,-1.05 -3.22,-1.09 -5.38,-1.4 -3.311,-13.6 7.35,-24.01 18.91,-30.279 L 545,438 c 5.01,-8.63 23.82,-3.23 32.05,-6.95 9.95,-4.5 9.41,-20.21 7.95,-30.3 -1.82,-12.47 -8.33,-22.37 -9,-35.75 -0.49,-9.8 2.57,-21.24 1.18,-31.03 L 577,334 c -18.01,-0.01 -35.31,3.3 -53.03,5.02 -9.14,0.891 -35,5.131 -45.21,-0.699 1.96,7.76 5.01,14.91 7.21,22.71 2.37,8.39 2.55,16.96 3.03,25.75 1.03,18.939 -0.01,37.51 -5,54.95 -5.28,18.449 0.17,33.029 -22.2,37.319 -17.979,3.45 -39.399,7.7 -56.8,2.22 -6.75,-2.119 -13.16,-4.689 -19.83,-6.439 -6.48,-7.96 6.05,-23.17 13.08,-27.58 8.98,-5.63 22.41,-3.66 32.58,-8.42 -0.061,-7.41 3.71,-17.47 1.22,-24.93 -2.39,-7.181 -11.229,-9.431 -16.3,-16.66 -8.57,-12.23 -16.6,-25.3 -25.58,-37.46 C 381.66,348.24 378.29,332.93 361,333 c -7.74,0.03 -18.1,1.62 -25.05,-0.95 -7.48,-2.76 -9.63,-9.05 -18.8,-7.899 C 316.28,341.33 316.2,361.55 305,374 l -0.06,-0.03 c -2.58,5.221 -4.96,10.86 -7.72,15.28 -6.18,9.88 -9.55,19.83 -15.47,29.7 -6.4,10.649 -13.76,21.42 -20.97,31 -6.21,8.229 -9.8,17.43 -16.17,25.29 -0.33,1.17 -0.77,2.37 -0.74,3.609 -13.33,-0.819 -26.69,-0.899 -40.02,-1.819 -10.59,-0.74 -30.75,-0.15 -39.81,-6.271 -12.9,-8.72 4.96,-27.97 15.4,-32.54 14.62,-6.39 35.06,-0.029 44.59,-14.92 7.91,-12.37 4.69,-36.59 3.97,-51.35 -0.79,-16.16 -1.17,-33.12 1.95,-49.22 1.71,-8.82 4.49,-17.8 5.03,-26.73 0.42,-7.09 0.64,-5.69 -3.23,-10.75 -0.01,0 -7.69,-8.03 -7.73,-8.05 -7.37,-3.53 -20.14,2.21 -28.05,3.81 -7.64,1.54 -19.45,4.22 -27.8,0.82 2.09,-15.78 -30.69,-1.27 -40.44,-4.56 -2.91,-0.98 -4.39,-4.34 -8.51,-5.49 -4.58,-1.27 -7.57,0.31 -12.17,1 -9.86,1.48 -21.79,-0.42 -30.9,2.07 1.46,-1.92 3.56,-5.28 4.85,-8.44 -0.11,0.36 0.15,2.08 0,0.74 0.58,-1.33 1.11,-3.79 1.65,-5.22 -4.79,0.46 -8.89,3.35 -13.52,3.95 1.11,-6.09 3.36,-12.37 7.79,-16.43 -8.37,-1.37 -16.83,3.81 -24.94,1.35 -6.78,-2.06 -14.5,-7.06 -21.45,-9.55 -16.19,-5.82 -18.45,-20.25 -24.38,-34 9.05,-1.84 17.52,-10.37 24.55,-16.5 6.91,-6.01 15.8,-11.16 22.33,-17.7 14.36,-14.37 31.82,-25.57 46.71,-37.16 9.38,-7.29 27.15,-10.05 26.53,-24.92 -0.38,-9.28 -2.08,-13.38 8.48,-17.19 6.82,-2.46 17.8,-3.88 23.32,1.82 4.63,-4.3 22.21,-9.08 28.98,-5.65 4.94,2.511 10.59,16.181 8.2,20.801 z"
   id="path8" />
		</g>
		<g
   id="g10">
		</g>
	</g>
</g>
</svg>