<?xml version="1.0" encoding="UTF-8" standalone="no"?>
<!-- Created with Inkscape (http://www.inkscape.org/) -->

<svg
   xmlns:svg="http://www.w3.org/2000/svg"
   xmlns="http://www.w3.org/2000/svg"
   version="1.1"
   width="384.00101"
   height="163.2"
   viewBox="0 0 384.001 163.2"
   id="Layer_1"
   xml:space="preserve"><defs
   id="defs13" />
    
    <g
   id="g3">
        
        <g
   id="g5">
            
            <path
   d="m 30.48,0 c 0.56,0 1.12,0 1.68,0 0,0.08 0,0.16 0,0.24 3.945,4.854 8.774,8.825 11.28,15.12 1.068,-0.188 1.44,0.32 2.4,0.24 1.799,1.037 3.489,2.332 6,2.64 3.783,0.464 8.396,-0.451 12.24,-0.48 6.101,-0.046 12.143,1.652 18.24,1.92 3.442,0.151 7.167,0.52 10.8,0.24 6.406,-0.493 12.348,-4.104 18.72,-4.56 8.697,-0.623 17.125,0.84 25.92,0.24 6.622,-0.452 12.243,-3.045 18,-5.04 5.921,-2.052 11.874,-3.991 18.48,-4.32 6.563,-0.327 13.276,-0.25 19.92,-0.72 4.626,-0.328 7.932,-0.012 12.24,0.24 10.146,0.593 17.8,2.811 25.44,5.04 5.69,1.661 11.175,3.773 16.56,6.24 2.134,0.978 4.073,2.08 6.96,2.64 2.049,1.631 4.923,2.438 7.92,3.12 -0.199,0.771 -0.204,0.498 0.24,0.96 1.054,0.386 2.709,0.171 3.36,0.96 -0.349,0.131 -1.241,-0.281 -1.2,0.24 1.274,0.246 3.056,-0.016 3.6,0.96 -0.349,0.131 -1.24,-0.28 -1.2,0.24 2.101,0.62 4.776,0.664 5.761,2.4 -0.744,-0.024 -1.331,0.109 -1.681,0.48 1.828,0.492 3.481,1.159 5.04,1.92 -0.106,0.693 -1.813,-0.213 -1.92,0.48 2.55,1.211 5.35,2.171 7.2,4.08 -0.596,-0.035 -1.165,-0.044 -1.2,0.48 3.622,1.578 6.611,3.789 9.36,6.24 -0.055,0.346 -0.717,0.083 -0.72,0.48 3.042,2.157 5.935,4.465 8.399,7.2 -1.054,0.32 -1.983,-0.718 -2.64,0 1.327,0.985 2.259,2.297 3.6,3.36 1.208,0.957 2.938,1.516 3.841,2.88 -0.73,0.15 -2.067,-0.307 -2.4,0.24 2.705,3.775 5.801,7.16 9.12,10.32 -1.142,0.25 -1.315,-0.98 -1.92,0 2.72,3.04 5.6,5.92 8.399,8.88 -0.501,0.473 -1.594,0.184 -2.16,0 2.465,3.616 6.237,5.923 9.36,8.88 -0.837,0.43 -2.2,-0.037 -2.64,0.239 1.757,2.403 4.458,3.862 6.479,6 -0.422,0.139 -1.41,-0.29 -1.439,0.24 2.003,2.374 4.338,4.335 6.96,6.24 0.811,0.589 1.806,1.079 2.399,1.92 -0.573,0.146 -1.741,-0.301 -1.92,0.24 1.544,1.176 3.389,2.051 4.8,3.36 -0.422,0.138 -1.409,-0.291 -1.439,0.239 1.641,1.08 3.07,2.37 4.8,3.36 1.265,1.456 3.571,1.869 4.561,3.6 -0.349,0.132 -1.241,-0.28 -1.2,0.24 3.157,1.962 6.74,3.499 10.08,5.28 -0.25,0.551 -1.714,-0.114 -1.92,0.479 3.297,1.903 6.924,3.477 10.56,5.04 -0.106,0.693 -1.813,-0.213 -1.92,0.48 2.478,0.969 4.921,2.307 7.44,3.359 0.866,0.362 1.91,0.341 2.399,1.2 0.028,0.414 -1.877,-0.485 -2.16,0.24 1.883,1.158 4.498,1.582 6,3.12 -0.349,0.131 -1.24,-0.28 -1.199,0.24 2.073,1.126 3.702,2.697 5.52,4.08 0.172,0.651 -1.132,-0.172 -0.96,0.479 1.05,0.552 1.789,1.952 2.64,3.12 1.208,1.658 2.422,2.6 2.641,4.08 0,0.24 0,0.479 0,0.72 -0.08,0 -0.16,0 -0.24,0 -0.325,0.808 -1.853,0.806 -2.88,1.2 -0.75,0.288 -1.245,0.724 -1.92,0.96 -10.163,0.83 -16.811,-2.516 -23.521,-5.28 -1.311,-0.564 -0.478,0.519 -1.68,0.48 -2.63,-1.356 -5.186,-3.261 -8.16,-4.32 -0.904,-0.322 -1.968,-0.162 -2.88,-0.479 -1.27,-0.442 -2.537,-1.48 -3.84,-2.16 -1.271,-0.664 -2.718,-1.756 -3.84,-2.16 -0.706,-0.254 -1.407,-0.562 -2.16,0 -1.23,-1.568 -3.191,-2.756 -5.04,-3.84 -1.813,-1.063 -3.701,-2.253 -5.521,-2.641 -1.978,-1.781 -3.811,-3.709 -6.72,-4.56 -1.968,-2.112 -4.535,-3.625 -6.479,-5.76 -0.655,0.175 -0.483,-0.478 -0.961,-0.48 0.082,0.481 -0.049,0.751 -0.479,0.72 -1.291,-2.229 -3.501,-3.538 -5.28,-5.279 -1.708,-1.673 -3.113,-3.881 -5.52,-4.8 -1.737,-1.748 -3.679,-5.138 -5.521,-6.48 -0.568,-0.415 -0.899,-0.574 -1.439,-0.48 -1.866,-2.531 -3.315,-5.104 -5.521,-7.199 -0.722,-0.687 -1.701,-0.954 -2.399,-1.681 -1.092,-1.134 -1.923,-2.927 -2.881,-4.319 -0.973,-1.417 -1.851,-3.022 -2.88,-4.32 -0.647,-0.818 -1.544,-1.361 -2.16,-2.16 -2.082,-2.704 -3.196,-6.144 -5.279,-8.64 -0.401,-0.481 -1.065,-0.878 -1.44,-1.44 -1.671,-2.504 -2.185,-5.582 -3.6,-8.16 -0.131,-1.101 -1.02,-0.05 -1.2,-1.2 -0.865,-2.334 -1.567,-4.833 -2.4,-7.2 0.031,-0.594 -0.293,-0.408 -0.239,0 0.166,0.194 0.373,0.658 0,0.72 -0.941,-2.579 -1.55,-5.49 -2.16,-8.4 -1.216,1.21 -1.536,2.939 -2.641,4.56 -1.015,1.49 -2.576,2.314 -2.88,4.08 -0.543,3.16 1.018,7.83 2.16,10.8 3.489,9.073 9.397,15.878 15.84,22.32 3.539,3.539 8.374,8.271 13.681,11.76 2.821,1.855 5.832,2.651 8.159,4.56 2.237,1.834 4.926,4.967 5.761,7.921 0.937,3.315 1.761,6.801 2.88,10.319 2.084,6.554 4.124,12.805 6.479,19.44 1.153,3.248 2.936,6.885 3.12,9.84 0.206,3.28 -1.182,5.427 -2.64,8.16 -1.132,2.121 -2.428,5.642 -4.32,6.24 -1.53,0.484 -4.851,0.256 -6.72,0.239 -3.84,-0.032 -10.055,-0.046 -10.32,-2.88 -0.221,-2.362 3.949,-4.157 6,-5.279 2.328,-1.274 5.846,-2.782 6.24,-5.28 0.356,-2.255 -1.021,-5.546 -1.92,-7.92 -2.626,-6.934 -5.553,-14.194 -9.36,-19.92 -5.551,-8.348 -12.721,-13.874 -20.88,-18.24 -4.592,-2.458 -9.415,-3.856 -13.68,-6 -13.057,-6.564 -23.034,-15.47 -33.36,-25.2 -2.543,3.615 -3.615,7.25 -3.12,13.68 0.521,6.754 3.792,15.133 6.48,21.12 1.015,2.262 1.889,4.801 2.88,6.24 1.333,1.937 3.539,2.581 3.6,5.76 0.104,5.428 -3.962,8.333 -6.96,11.76 -3.903,4.464 -7.473,11.404 -9.6,17.521 -1.11,3.193 -1.454,6.743 -3.601,9.84 -1.936,0.821 -3.423,0.592 -5.04,1.2 -2.841,1.069 -4.574,3.715 -8.64,3.84 -3.68,0 -7.36,0 -11.04,0 0,-0.08 0,-0.16 0,-0.24 -1.244,-0.222 -1.772,-1.737 -1.68,-2.399 0.3,-2.142 5.604,-3.717 8.16,-3.84 2.94,-3.621 6.561,-6.56 11.28,-8.4 3.118,-6.101 6.07,-13.219 8.4,-20.16 0.85,-2.53 2.042,-5.5 1.92,-7.68 -0.1,-1.777 -1.481,-4.148 -2.4,-6.24 -4.597,-10.468 -9.384,-19.961 -14.64,-29.04 -2.227,-3.846 -4.525,-7.583 -5.52,-12 -0.725,0.94 -1.302,-1.554 -2.16,-0.48 0.39,-0.072 0.647,0.324 0.24,0.48 -0.578,0.075 -1.162,-1.047 -1.68,-0.24 0.554,0.148 1.448,0.476 0.96,0.96 -0.799,-0.091 -1.549,-1.476 -2.4,-0.72 0.177,0.383 1.175,-0.055 0.96,0.72 -1.105,0.215 -1.643,-1.383 -2.64,-0.48 0.354,0.348 1.571,0.353 0.96,0.96 -0.871,-0.021 -1.621,-1.406 -2.4,-0.72 0.427,0.133 0.997,0.124 1.2,0.48 -0.844,0.793 -1.993,-1.107 -2.88,-0.24 0.596,-0.036 0.996,0.124 1.2,0.48 -0.811,0.201 -2.043,-0.105 -2.64,0 -0.271,0.048 -0.258,0.486 -0.48,0.479 -1.333,-0.039 -1.026,-0.375 -2.16,0 -0.697,0.231 -1.133,-0.217 -2.16,-0.24 0.067,10e-4 -0.153,0.455 -0.24,0.48 -1.635,0.481 -2.699,-0.971 -4.08,-0.48 0.426,0.454 1.758,10e-4 1.68,0.96 -1.65,-0.278 -2.684,-0.465 -4.08,0 -2.212,-0.677 -4.669,-0.634 -7.2,-0.96 0.565,0.234 1.522,0.078 1.44,0.96 -1.957,-0.413 -3.568,-0.896 -5.52,-1.2 0.584,0.296 1.558,0.202 1.68,0.96 -2.07,-0.029 -3.592,-1.215 -5.28,-1.2 0.674,-0.012 1.484,0.218 0.96,0.72 -1.323,-0.276 -1.702,-1.251 -2.88,-0.479 -0.443,-0.213 -1.286,-1.252 -1.68,-0.72 0.523,-0.043 0.763,0.196 0.72,0.72 -1.154,-0.198 -3.153,-2.068 -1.68,-0.24 -1.106,0.058 -1.827,-1.522 -2.64,-0.96 0.459,0.101 1.033,0.087 0.96,0.72 -1.318,0.271 -1.72,-1.628 -2.64,-0.96 0.224,0.256 0.885,0.075 0.72,0.72 -1.15,0.181 -1.439,-1.749 -2.4,-0.96 0.352,0.208 0.761,0.359 0.72,0.96 -0.759,-0.361 -1.452,-0.789 -1.92,-1.44 0.407,3.001 3.868,5.17 4.32,7.68 0.994,5.521 -5.89,7.185 -6.24,10.8 -0.901,9.301 -1.379,18.571 -1.92,30.48 -0.158,3.488 0.174,7.785 0,11.521 -0.29,6.238 -1.585,11.025 -3.6,16.8 -1.65,4.728 -3.959,11.167 -6.48,11.76 -3.057,0.719 -12.046,0.855 -18.72,1.44 -1.798,0.157 -4.982,0.659 -5.52,-1.44 -0.651,-2.54 3.013,-5.404 4.56,-6 0.81,-0.312 2.683,-0.189 3.36,-0.479 1.703,-0.73 1.909,-2.656 3.36,-3.36 1.746,-0.847 4.751,-0.224 6.24,-1.2 2.606,-1.709 4.017,-12.152 3.6,-21.12 -0.445,-9.563 -1.405,-20.433 -1.92,-29.52 -3.817,2.555 -8.001,4.756 -12.48,6 -0.737,0.204 -1.707,0.191 -2.4,0.479 -2.536,1.057 -5.198,4.348 -7.2,6.96 -2.804,3.659 -5.591,7.649 -5.76,12.24 -0.199,5.396 1.312,10.712 0.72,15.6 -0.372,3.073 -1.524,3.195 -3.12,5.28 -0.844,1.103 -1.039,2.302 -1.92,2.88 -1.118,0.734 -2.616,1.076 -4.08,0.48 1.72,-7.944 0.211,-18.593 0.72,-27.36 0.574,-9.901 4.222,-16.263 9.36,-21.36 6.643,-6.59 15.678,-10.823 20.4,-20.16 -8.627,-9.133 -20.052,-15.468 -28.08,-25.2 -3.06,-0.693 -5.773,-2.858 -9.36,-3.6 -3.594,-0.743 -7.944,-0.969 -12,-1.2 -11.454,-0.651 -20.21,2.942 -27.36,6 -1.917,2.316 -4.506,5.466 -7.44,8.4 -2.791,2.792 -5.513,6.205 -8.4,7.68 -2.476,1.265 -6.388,1.369 -7.44,-1.44 0.078,-0.562 1.047,-0.233 1.2,-0.72 -1.364,-1.06 -3.144,-2.903 -2.64,-5.04 1.795,0.364 2.071,2.249 3.84,2.64 1.379,-1.981 3.399,-3.321 4.08,-6 1.326,-0.354 1.884,-1.476 2.16,-2.88 1.222,-0.857 2.34,-1.82 2.4,-3.84 1.771,-0.708 2.68,-2.28 2.64,-4.8 -0.702,-0.527 -1.366,0.589 -2.4,0.48 -0.041,0.679 0.207,1.646 -0.48,1.68 -1,0.12 -1.059,-0.702 -2.16,-0.48 -4.295,2.265 -6.144,6.976 -11.28,8.4 0.058,1.382 1.146,1.734 1.2,3.12 -3.123,0.677 -2.746,-3 -5.52,-1.92 -0.064,1.104 1.006,1.074 1.2,1.92 -1.2,0 -2.4,0 -3.6,0 C 4.896,61.824 1.636,61.724 0,60 0,59.52 0,59.04 0,58.56 1.543,56.307 4.125,53.092 6.48,50.4 c 1.954,-2.233 5.579,-4.999 6.72,-7.44 0.708,-1.514 0.634,-3.354 1.2,-4.8 1.076,-2.747 3.146,-4.904 4.8,-6.96 0.852,-1.059 1.667,-2.147 2.64,-3.12 0.828,-0.828 2.259,-1.489 2.4,-2.88 -1.087,-3.504 -0.705,-6.845 -2.16,-9.6 -1.221,-2.313 -5.134,-3.648 -3.6,-6.72 3.726,-0.239 6.991,2.735 9.84,4.56 0.046,0.03 0.717,1.305 0.72,0.24 C 29.271,8.657 25.279,1.715 30.48,0 z"
   id="path7"
   style="fill-rule:evenodd" />
            
            <g
   id="g9" />
            
        </g>
        
    </g>
    
</svg>