<?xml version="1.0" encoding="UTF-8" standalone="no"?>
<!-- Created with Inkscape (http://www.inkscape.org/) -->

<svg
   xmlns:svg="http://www.w3.org/2000/svg"
   xmlns="http://www.w3.org/2000/svg"
   version="1.1"
   width="100%"
   height="100%"
   viewBox="0 0 417.9 228.6"
   id="Layer_1"
   xml:space="preserve"><defs
   id="defs7" />
<path
   d="m 122.3,228.6 c -2.1,-0.3 -4.2,-0.8 -6.3,-0.8 -7.2,-0.2 -11.7,-4.8 -11,-11.9 0.9,-10.5 1.9,-21.1 3.3,-31.6 0.4,-3.5 1.6,-7.1 3.1,-10.4 0.6,-1.4 2.7,-2.5 4.3,-3.2 1.9,-0.8 4.2,-0.8 6.2,-1.5 10.6,-3.9 12,-5.9 12.2,-17 0.1,-3.6 0.2,-7.3 0.7,-10.9 0.6,-4.8 -2,-6 -6,-6.5 C 118.2,133.5 107,133.6 97,130.2 76.4,123.2 56.6,113.9 41.6,97 36.6,91.4 30,87.1 25.3,81.3 18.8,73.6 13,65.2 8,56.5 4.5,50.4 2.7,43.3 0,36.1 c 8.6,-1.4 15.8,-0.3 22.5,2.4 14.7,6 29.5,11.9 44,18.6 15.6,7.2 31,15 46.1,23.1 6.2,3.3 11.5,8.2 17.4,12.2 7.5,5 15.7,8.9 24.7,6.6 6.4,-1.6 12.4,-5.3 18.4,-8.3 7.1,-3.5 14,-7.3 21.2,-10.6 2.1,-1 4.7,-1 7.1,-0.9 10,0.3 20,1.5 29.9,1.2 15.1,-0.5 30.5,-0.2 45.1,-3.4 14.7,-3.3 30.6,-5.9 41.6,-18.4 2,-2.3 3.4,-5.2 4.9,-7.9 3.3,-5.7 7,-11.3 9.8,-17.2 2.3,-5 3.5,-10.5 5.2,-15.8 1.3,-4.1 2.6,-8.2 4.1,-12.2 1.4,-3.6 4.4,-4 6.6,-1.3 9.2,11.3 21.5,6.9 32.8,6.5 1.9,-0.1 3.7,-3 5.6,-4.6 2,-1.6 4,-3.2 7.4,-6 1.7,6.5 3.4,11.6 4.3,16.8 1.5,8.8 2.8,17.7 3.5,26.6 0.5,6.5 0,13.1 -0.2,19.7 0,0.8 -0.3,1.7 -0.7,2.4 -8.3,11.5 -9.4,26 -16.2,38.1 -6.1,10.9 -11.4,22.4 -20.4,31.6 -2.5,2.6 -5,5.4 -6.9,8.4 -1,1.6 -1.5,4.7 -0.6,5.9 10.4,14 21.2,27.7 31.7,41.6 2.9,3.9 6.7,3.9 10.7,3.4 8.7,-1.3 14.7,1.9 18,10.1 -11.2,9.5 -25.9,8.9 -37.6,-1.5 -3.2,-2.8 -6.8,-5.3 -9.9,-8.2 -5,-4.7 -9.7,-9.8 -14.7,-14.6 -5.3,-5.1 -11.2,-9.8 -16.2,-15.2 -4.1,-4.5 -8.7,-5.7 -14.3,-4.4 -2.9,0.7 -5.5,2 -7.2,2.7 3.9,10 7.6,18.9 10.9,27.9 1.6,4.5 -0.1,8.5 -3.4,11.8 -1.6,1.6 -3.6,3 -5.5,4.2 -2.5,1.6 -4.8,4.2 -8.4,1.5 -3.3,-2.5 -6.3,-5.1 -6,-9.6 0.2,-2.7 1,-5.6 2.1,-8.1 3.4,-7.5 0.4,-13 -6.8,-16.3 -13.4,-6.1 -26.8,-4.1 -40.6,-3 -8,0.6 -16.2,-0.4 -24.3,-0.7 -2.8,-0.1 -5.6,-0.6 -8.4,-0.8 -3.9,-0.3 -6.7,0.7 -7.6,5.1 -0.9,4.3 -0.6,7.6 3.3,10.5 7.2,5.3 15.1,7.2 23.8,7.2 5.5,0 9.8,2.5 12.8,7 1.4,2.2 1.1,4.1 -1.6,5 -9.3,3.2 -18.5,5.2 -27.7,-0.3 -9.5,-5.7 -19,-11.3 -28.5,-17 -5.6,-3.4 -6.6,-7.7 -2.5,-12.8 2.7,-3.3 2.7,-6.8 0.5,-9.6 -1.3,-1.7 -4.4,-2.3 -6.8,-2.6 -6.8,-0.8 -11.3,4.1 -16.2,7.5 -11.8,8.2 -24.7,12.2 -39.1,12.2 -14.6,0 -23.1,12 -18.8,26.1 0.3,1.1 1.9,2 3.1,2.7 2.4,1.4 5.3,2.2 7.3,4 4.1,3.8 2.6,9.4 -2.6,11.2 -1.3,0.5 -2.5,1.4 -3.7,2.1 -0.1,-0.1 -0.4,-0.1 -0.7,-0.1 z"
   id="path3" />
</svg>