<?xml version="1.0" encoding="UTF-8" standalone="no"?>
<!-- Created with Inkscape (http://www.inkscape.org/) -->

<svg
   xmlns:svg="http://www.w3.org/2000/svg"
   xmlns="http://www.w3.org/2000/svg"
   version="1.1"
   width="100%"
   height="100%"
   viewBox="0 0 341 307.2"
   id="Layer_1"
   xml:space="preserve"><defs
   id="defs7" />
<path
   d="m 0,272.1 c 4.4,-12.4 8.9,-24.8 13.3,-37.3 0.5,-1.5 0.9,-3.2 1,-4.8 0.9,-12.5 1.3,-25 2.5,-37.4 1.8,-17.8 4.5,-35.6 14.8,-50.8 3.8,-5.6 9.3,-10.2 14.3,-14.8 6.3,-5.8 13,-11 19.4,-16.6 8.3,-7.4 17.7,-11.9 28.8,-14 20.4,-3.9 41,-0.3 61.4,-1.9 11.3,-0.9 22.8,-1.4 33.9,-3.4 5,-0.9 9.2,-5.3 14,-7.7 8.4,-4.2 17,-8.2 25.6,-11.9 4.8,-2.1 6.6,-6.3 8.5,-10.4 3.3,-7 6.2,-14.4 9.8,-21.3 3,-5.8 6.9,-10.6 7.6,-17.8 0.6,-6.9 4.2,-13.5 6.7,-20.2 0.3,-0.8 2,-1.7 2.9,-1.6 2.1,0.3 4.6,0.7 6,2 6.8,6.4 14.6,3.8 22.4,3.5 7.8,-0.3 15.8,0 23.6,0.8 5.3,0.6 9.9,0.3 13.6,-3.6 3.2,-3.4 5,-2.1 6.2,1.5 2,6 3.8,11.8 3.2,18.4 -0.4,5.6 1.6,11.3 1.4,17 -0.2,5.5 -1.7,11 -2.7,16.4 -0.2,1 -0.9,1.9 -0.8,2.8 1.4,10.4 -4,19.5 -5.9,29.3 -0.2,1.3 -0.4,2.6 -0.3,3.9 1.4,14.9 -4.2,27.8 -10.9,40.5 -3.4,6.5 -6.5,13.4 -8.8,20.3 -2.5,7.4 -7.8,12.3 -12.5,18.2 -4.1,5.2 -9,8.7 -14,12.4 -0.5,0.4 -1,1.2 -1.5,1.3 -7.2,1.1 -7.5,6.6 -6.8,11.7 1.4,10.4 3.9,20.7 5.6,31.1 1.3,7.9 2.7,15.9 3.2,23.9 0.4,6.3 6.4,13.9 12.5,13.1 7.6,-1 12.2,3.9 17.5,7.6 0.7,0.5 0.9,3.2 0.2,3.8 -2.1,2.1 -3,6.4 -7.7,4.9 -1.1,-0.4 -2.8,0.1 -3.8,0.8 -3.4,2.5 -6.1,1.4 -8.9,-1 -1.1,-0.9 -2.7,-1.9 -3.9,-1.8 -10.3,1.2 -14.2,-5.9 -17.3,-13.5 -2.8,-6.8 -4.7,-14 -7,-20.9 -0.4,-1.1 -0.6,-2.6 -1.4,-3.1 -8.1,-4.6 -8.8,-13.6 -12.7,-20.7 -3.4,-6 -5,-13 -8.4,-19 -1,-1.8 -5.9,-2.9 -8.3,-2.1 -2.5,0.8 -5,3.6 -2.3,7.6 2.9,4.3 4.8,9.3 7.6,13.7 1.2,1.9 3.9,2.8 5.3,4.6 5.8,7.6 9.7,15.8 7.4,25.8 -2,8.6 3.7,13.7 8.4,19.4 1.7,2.1 3.4,4.8 3.6,7.3 0.2,2.1 -0.3,5.5 -4.5,5 -1.5,-0.2 -3,0.8 -4.6,1.1 -9.1,1.9 -19.4,-5.3 -19.1,-15.3 0.1,-3.7 1,-7.3 1.2,-10.9 0.1,-3.4 -0.1,-6.9 -0.5,-10.3 -0.1,-1.1 -1.2,-2.4 -2.2,-3.1 -12.6,-8.7 -25.3,-17.2 -37.9,-25.9 -2.8,-1.9 -5.3,-4.4 -8.2,-6.2 -1,-0.7 -3.4,-0.8 -4.1,-0.1 -6.8,6.4 -14.9,4.2 -22.6,3.1 -5.1,-0.7 -8.6,1.2 -8.9,6.6 -0.3,4.5 -1.6,9.1 -0.8,13.4 0.8,4.5 2.7,9.5 5.8,12.7 6.8,7.3 14.3,14 26,10.9 4,-1.1 8.2,-0.1 11,3.9 0.7,0.9 1.9,1.7 3.1,1.9 4,0.7 5,3.2 4.9,8 -6.4,1.7 -12.9,4.5 -19.6,4.8 -5,0.2 -10.8,-2 -15.2,-4.7 -9.1,-5.6 -17.6,-12.4 -26.4,-18.6 -3.7,-2.6 -7.7,-4.9 -11.4,-7.5 -3.2,-2.1 -4.6,-4.3 -4.9,-9.1 -0.4,-6.3 -4.4,-12.5 -6.9,-18.6 -0.8,-1.9 -1.8,-3.7 -2.7,-5.6 -0.9,-1.8 -1.6,-4.3 -3.1,-5.2 -3.2,-1.8 -5.5,2.1 -6,3.5 -3.1,8.5 -10.6,12.8 -16.7,18.3 -5.9,5.2 -11.8,10.4 -17.7,15.6 -0.5,0.4 -1.4,0.8 -1.4,1.2 0.1,6.7 -5.8,10.5 -7.9,16.1 -0.3,0.8 -1.2,1.4 -2,1.9 -3.8,2.3 -8.5,3.9 -11.4,7.1 -2.2,2.4 -2.7,6.7 -2.9,10.3 -0.2,3.3 3,3.5 5.7,3.9 5.2,0.8 7.7,5.2 9.6,9.3 1.7,3.9 -2.8,8.4 -8.6,9.6 -2.8,0.6 -5.6,1.3 -8.4,2 -6.3,1.6 -15.4,-5.2 -15.8,-11.8 -0.1,-3 -0.1,-6.1 0,-9.2 0.1,-4.9 -2.2,-6.8 -7.1,-6.2 -4.7,0.6 -9.5,0.8 -14.3,1.1 -3.9,0.3 -7.3,-0.5 -9.7,-3.9 C 0,275.4 0,273.7 0,272.1 z"
   id="path3" />
</svg>